M48
; DRILL file {KiCad 9.0.4} date 2025-09-10T15:59:27+0300
; FORMAT={-:-/ absolute / metric / decimal}
; #@! TF.CreationDate,2025-09-10T15:59:27+03:00
; #@! TF.GenerationSoftware,Kicad,Pcbnew,9.0.4
; #@! TF.FileFunction,Plated,1,4,PTH
FMAT,2
METRIC
; #@! TA.AperFunction,Plated,PTH,ViaDrill
T1C0.300
; #@! TA.AperFunction,Plated,PTH,ComponentDrill
T2C0.400
; #@! TA.AperFunction,Plated,PTH,ComponentDrill
T3C0.600
; #@! TA.AperFunction,Plated,PTH,ComponentDrill
T4C1.000
%
G90
G05
T1
X67.925Y-78.625
X69.675Y-95.45
X72.875Y-102.6
X72.9Y-101.05
X73.591Y-102.958
X73.775Y-80.4
X73.8Y-78.675
X74.725Y-129.45
X76.5Y-93.925
X76.525Y-95.45
X76.575Y-97.225
X76.65Y-83.525
X77.875Y-72.25
X78.475Y-90.025
X79.275Y-82.5
X79.275Y-92.175
X79.55Y-87.75
X82.125Y-112.3
X82.425Y-83.475
X82.525Y-102.525
X82.55Y-100.975
X83.2Y-102.975
X83.325Y-111.05
X83.464Y-79.949
X83.475Y-79.149
X83.924Y-109.475
X84.026Y-93.925
X84.026Y-95.45
X84.026Y-97.225
X84.238Y-82.806
X84.575Y-72.4
X84.85Y-76.575
X85.038Y-82.781
X85.501Y-119.0
X85.7Y-79.575
X85.837Y-82.812
X85.85Y-114.487
X86.637Y-82.84
X86.7Y-120.3
X87.075Y-93.8
X87.475Y-82.85
X87.6Y-86.45
X87.626Y-101.163
X87.85Y-72.775
X87.85Y-104.962
X88.275Y-93.725
X88.35Y-118.95
X88.4Y-89.975
X88.871Y-94.325
X89.25Y-100.425
X89.4Y-79.3
X89.4Y-95.75
X89.475Y-94.85
X90.55Y-76.65
X93.737Y-83.375
X93.75Y-85.375
X93.8Y-90.575
X94.05Y-101.225
X94.05Y-102.75
X94.225Y-81.225
X94.375Y-89.375
X94.399Y-88.575
X94.401Y-87.775
X94.825Y-103.225
X94.985Y-111.975
X95.55Y-78.725
X96.675Y-127.8
X96.8Y-82.275
X97.0Y-72.225
X97.125Y-122.625
X97.125Y-124.2
X98.4Y-94.625
X100.225Y-99.825
X100.295Y-101.955
X100.85Y-100.35
X101.625Y-97.85
X102.5Y-114.025
X103.325Y-101.25
X103.35Y-102.71
X104.0Y-103.225
X104.95Y-124.2
X105.05Y-71.675
T2
X84.25Y-122.81
X84.65Y-123.51
X85.45Y-123.51
X85.85Y-122.81
X86.25Y-123.51
X86.65Y-122.81
X87.45Y-122.81
X87.85Y-123.51
X88.25Y-122.81
X88.65Y-123.51
X89.45Y-123.51
X89.85Y-122.81
T4
X68.925Y-79.64
X68.925Y-82.18
X68.925Y-84.72
X68.925Y-87.26
X68.925Y-89.8
X80.0Y-72.4
X82.54Y-72.4
X104.0Y-72.75
X104.0Y-75.29
X104.0Y-77.83
X104.0Y-80.37
X104.0Y-82.91
X104.0Y-85.45
X104.0Y-87.99
X104.0Y-90.53
X104.0Y-93.07
X104.0Y-95.61
T3
G00X82.56Y-127.51
M15
G01X82.56Y-128.11
M16
G05
G00X82.92Y-123.1
M15
G01X82.92Y-123.7
M16
G05
G00X91.18Y-123.1
M15
G01X91.18Y-123.7
M16
G05
G00X91.54Y-127.51
M15
G01X91.54Y-128.11
M16
G05
M30
