%TF.GenerationSoftware,KiCad,Pcbnew,9.0.4*%
%TF.CreationDate,2025-09-10T15:59:19+03:00*%
%TF.ProjectId,Asius1,41736975-7331-42e6-9b69-6361645f7063,rev?*%
%TF.SameCoordinates,Original*%
%TF.FileFunction,Copper,L3,Inr*%
%TF.FilePolarity,Positive*%
%FSLAX46Y46*%
G04 Gerber Fmt 4.6, Leading zero omitted, Abs format (unit mm)*
G04 Created by KiCad (PCBNEW 9.0.4) date 2025-09-10 15:59:19*
%MOMM*%
%LPD*%
G01*
G04 APERTURE LIST*
%TA.AperFunction,ComponentPad*%
%ADD10O,1.000000X1.600000*%
%TD*%
%TA.AperFunction,ComponentPad*%
%ADD11C,0.600000*%
%TD*%
%TA.AperFunction,ComponentPad*%
%ADD12R,1.700000X1.700000*%
%TD*%
%TA.AperFunction,ComponentPad*%
%ADD13C,1.700000*%
%TD*%
%TA.AperFunction,ViaPad*%
%ADD14C,0.600000*%
%TD*%
G04 APERTURE END LIST*
D10*
%TO.N,GND*%
%TO.C,USBC1*%
X82560000Y-127810000D03*
X82920000Y-123400000D03*
X91180000Y-123400000D03*
X91540000Y-127810000D03*
D11*
X89850000Y-122810000D03*
%TO.N,/CAN3_H*%
X89450000Y-123510000D03*
%TO.N,/CAN3_L*%
X88650000Y-123510000D03*
%TO.N,+5V*%
X88250000Y-122810000D03*
%TO.N,Net-(USBC1-CC2)*%
X87850000Y-123510000D03*
%TO.N,/D+*%
X87450000Y-122810000D03*
%TO.N,/D-*%
X86650000Y-122810000D03*
%TO.N,/SBU2*%
X86250000Y-123510000D03*
%TO.N,+5V*%
X85850000Y-122810000D03*
%TO.N,/CAN4_L*%
X85450000Y-123510000D03*
%TO.N,/CAN4_H*%
X84650000Y-123510000D03*
%TO.N,GND*%
X84250000Y-122810000D03*
%TD*%
D12*
%TO.N,/PC2*%
%TO.C,J2*%
X104000000Y-95610000D03*
D13*
%TO.N,/PC4*%
X104000000Y-93070000D03*
%TO.N,/PC8*%
X104000000Y-90530000D03*
%TO.N,/PC10*%
X104000000Y-87990000D03*
%TO.N,/PC11*%
X104000000Y-85450000D03*
%TO.N,/PC12*%
X104000000Y-82910000D03*
%TO.N,/PA1*%
X104000000Y-80370000D03*
%TO.N,/PA13*%
X104000000Y-77830000D03*
%TO.N,/PA14*%
X104000000Y-75290000D03*
%TO.N,GND*%
X104000000Y-72750000D03*
%TD*%
D12*
%TO.N,/MOSI*%
%TO.C,J1*%
X68925000Y-89800000D03*
D13*
%TO.N,/MISO*%
X68925000Y-87260000D03*
%TO.N,/SCK*%
X68925000Y-84720000D03*
%TO.N,/NSS*%
X68925000Y-82180000D03*
%TO.N,GND*%
X68925000Y-79640000D03*
%TD*%
D12*
%TO.N,GND*%
%TO.C,J3*%
X80000000Y-72400000D03*
D13*
%TO.N,+3.3V*%
X82540000Y-72400000D03*
%TD*%
D14*
%TO.N,/D+*%
X86700000Y-120300000D03*
%TO.N,GND*%
X85700000Y-79575000D03*
X89400000Y-95750000D03*
X104000000Y-103225000D03*
X77875000Y-72250000D03*
X85850000Y-114487500D03*
X79550000Y-87750000D03*
X95550000Y-78725000D03*
X96675000Y-127800000D03*
X93737500Y-83375000D03*
X88871366Y-94325000D03*
X84850000Y-76575000D03*
X104950000Y-124200000D03*
X78475000Y-90025000D03*
X103325000Y-101250000D03*
X82550000Y-100975000D03*
X94050000Y-101225000D03*
X90550000Y-76650000D03*
X72900000Y-101050000D03*
X76650000Y-83525000D03*
X83200000Y-102975000D03*
X74725000Y-129450000D03*
X96800000Y-82275000D03*
X73590544Y-102957772D03*
X73800000Y-78675000D03*
X87850000Y-72775000D03*
X82425000Y-83475000D03*
X94825000Y-103225000D03*
X67925000Y-78625000D03*
X105050000Y-71675000D03*
X97125000Y-124200000D03*
X93750000Y-85375000D03*
%TO.N,+3.3V*%
X83475000Y-79149000D03*
X102500000Y-114025000D03*
X79275000Y-92175000D03*
X94225000Y-81225000D03*
X72875000Y-102600000D03*
X89400000Y-79300000D03*
X84575000Y-72400000D03*
X103350000Y-102710008D03*
X82525000Y-102525000D03*
X94050000Y-102750000D03*
X69675000Y-95450000D03*
X79275000Y-82500000D03*
X89475000Y-94850000D03*
X73775000Y-80400000D03*
X97000000Y-72225000D03*
%TO.N,Net-(D1-K)*%
X76500000Y-93925000D03*
X84026000Y-93925000D03*
%TO.N,Net-(D2-K)*%
X76525000Y-95450000D03*
X84026000Y-95450000D03*
%TO.N,Net-(D4-K)*%
X76575000Y-97225000D03*
X84026000Y-97225000D03*
%TO.N,/PC10*%
X94375000Y-89375000D03*
%TO.N,/PA13*%
X88275000Y-93725000D03*
%TO.N,/PC11*%
X94399208Y-88575364D03*
%TO.N,/PC4*%
X87600000Y-86450000D03*
%TO.N,/PC12*%
X94400697Y-87775363D03*
%TO.N,/PA14*%
X93800000Y-90575000D03*
%TO.N,/PA1*%
X83464057Y-79948925D03*
%TO.N,/PC8*%
X88400000Y-89975000D03*
%TO.N,/PC2*%
X85837201Y-82811736D03*
%TO.N,/SBU2*%
X85037793Y-82780890D03*
X82125000Y-112300000D03*
X83325000Y-111050000D03*
%TO.N,/SBU1*%
X87850000Y-104961765D03*
X87475000Y-82850000D03*
%TO.N,/CAN3_R*%
X87075000Y-93800000D03*
X100295000Y-101955000D03*
%TO.N,/CAN1_R*%
X100850000Y-100350000D03*
X89250000Y-100425000D03*
%TO.N,/CAN3_T*%
X101625000Y-97850000D03*
X98400000Y-94625000D03*
%TO.N,/CAN1_E*%
X86636712Y-82839758D03*
X83924000Y-109475000D03*
%TO.N,/CAN1_T*%
X100225000Y-99825000D03*
X87626000Y-101163235D03*
%TO.N,/CAN3_E*%
X94985000Y-111975000D03*
X84238189Y-82806107D03*
%TO.N,+5V*%
X88350000Y-118950000D03*
X85501000Y-119000000D03*
X97125000Y-122625000D03*
%TD*%
%TA.AperFunction,Conductor*%
%TO.N,+3.3V*%
G36*
X104955601Y-70660185D02*
G01*
X105001356Y-70712989D01*
X105011300Y-70782147D01*
X104982275Y-70845703D01*
X104923497Y-70883477D01*
X104912753Y-70886117D01*
X104816510Y-70905261D01*
X104816498Y-70905264D01*
X104670827Y-70965602D01*
X104670814Y-70965609D01*
X104539711Y-71053210D01*
X104539707Y-71053213D01*
X104428213Y-71164707D01*
X104428207Y-71164715D01*
X104340607Y-71295818D01*
X104340605Y-71295821D01*
X104323285Y-71337634D01*
X104279442Y-71392036D01*
X104213147Y-71414099D01*
X104189328Y-71412651D01*
X104106294Y-71399500D01*
X104106287Y-71399500D01*
X103893713Y-71399500D01*
X103845042Y-71407208D01*
X103683760Y-71432753D01*
X103481585Y-71498444D01*
X103292179Y-71594951D01*
X103120213Y-71719890D01*
X102969890Y-71870213D01*
X102844951Y-72042179D01*
X102748444Y-72231585D01*
X102682753Y-72433760D01*
X102665687Y-72541510D01*
X102649500Y-72643713D01*
X102649500Y-72856287D01*
X102656424Y-72900000D01*
X102680260Y-73050500D01*
X102682754Y-73066243D01*
X102732802Y-73220275D01*
X102748444Y-73268414D01*
X102844951Y-73457820D01*
X102969890Y-73629786D01*
X103120213Y-73780109D01*
X103292182Y-73905050D01*
X103300946Y-73909516D01*
X103351742Y-73957491D01*
X103368536Y-74025312D01*
X103345998Y-74091447D01*
X103300946Y-74130484D01*
X103292182Y-74134949D01*
X103120213Y-74259890D01*
X102969890Y-74410213D01*
X102844951Y-74582179D01*
X102748444Y-74771585D01*
X102682753Y-74973760D01*
X102649500Y-75183713D01*
X102649500Y-75396287D01*
X102682754Y-75606243D01*
X102747419Y-75805261D01*
X102748444Y-75808414D01*
X102844951Y-75997820D01*
X102969890Y-76169786D01*
X103120213Y-76320109D01*
X103292182Y-76445050D01*
X103300946Y-76449516D01*
X103351742Y-76497491D01*
X103368536Y-76565312D01*
X103345998Y-76631447D01*
X103300946Y-76670484D01*
X103292182Y-76674949D01*
X103120213Y-76799890D01*
X102969890Y-76950213D01*
X102844951Y-77122179D01*
X102748444Y-77311585D01*
X102682753Y-77513760D01*
X102649500Y-77723713D01*
X102649500Y-77936286D01*
X102677759Y-78114711D01*
X102682754Y-78146243D01*
X102740106Y-78322754D01*
X102748444Y-78348414D01*
X102844951Y-78537820D01*
X102969890Y-78709786D01*
X103120213Y-78860109D01*
X103292182Y-78985050D01*
X103300946Y-78989516D01*
X103351742Y-79037491D01*
X103368536Y-79105312D01*
X103345998Y-79171447D01*
X103300946Y-79210484D01*
X103292182Y-79214949D01*
X103120213Y-79339890D01*
X102969890Y-79490213D01*
X102844951Y-79662179D01*
X102748444Y-79851585D01*
X102682753Y-80053760D01*
X102649500Y-80263713D01*
X102649500Y-80476286D01*
X102682753Y-80686239D01*
X102748444Y-80888414D01*
X102844951Y-81077820D01*
X102969890Y-81249786D01*
X103120213Y-81400109D01*
X103292182Y-81525050D01*
X103300946Y-81529516D01*
X103351742Y-81577491D01*
X103368536Y-81645312D01*
X103345998Y-81711447D01*
X103300946Y-81750484D01*
X103292182Y-81754949D01*
X103120213Y-81879890D01*
X102969890Y-82030213D01*
X102844951Y-82202179D01*
X102748444Y-82391585D01*
X102682753Y-82593760D01*
X102649500Y-82803713D01*
X102649500Y-83016286D01*
X102680198Y-83210109D01*
X102682754Y-83226243D01*
X102748275Y-83427896D01*
X102748444Y-83428414D01*
X102844951Y-83617820D01*
X102969890Y-83789786D01*
X103120213Y-83940109D01*
X103292182Y-84065050D01*
X103300946Y-84069516D01*
X103351742Y-84117491D01*
X103368536Y-84185312D01*
X103345998Y-84251447D01*
X103300946Y-84290484D01*
X103292182Y-84294949D01*
X103120213Y-84419890D01*
X102969890Y-84570213D01*
X102844951Y-84742179D01*
X102748444Y-84931585D01*
X102682753Y-85133760D01*
X102649500Y-85343713D01*
X102649500Y-85556286D01*
X102680198Y-85750109D01*
X102682754Y-85766243D01*
X102739117Y-85939711D01*
X102748444Y-85968414D01*
X102844951Y-86157820D01*
X102969890Y-86329786D01*
X103120213Y-86480109D01*
X103292182Y-86605050D01*
X103300946Y-86609516D01*
X103351742Y-86657491D01*
X103368536Y-86725312D01*
X103345998Y-86791447D01*
X103300946Y-86830484D01*
X103292182Y-86834949D01*
X103120213Y-86959890D01*
X102969890Y-87110213D01*
X102844951Y-87282179D01*
X102748444Y-87471585D01*
X102682753Y-87673760D01*
X102649500Y-87883713D01*
X102649500Y-88096286D01*
X102680197Y-88290104D01*
X102682754Y-88306243D01*
X102747726Y-88506206D01*
X102748444Y-88508414D01*
X102844951Y-88697820D01*
X102969890Y-88869786D01*
X103120213Y-89020109D01*
X103292182Y-89145050D01*
X103300946Y-89149516D01*
X103351742Y-89197491D01*
X103368536Y-89265312D01*
X103345998Y-89331447D01*
X103300946Y-89370484D01*
X103292182Y-89374949D01*
X103120213Y-89499890D01*
X102969890Y-89650213D01*
X102844951Y-89822179D01*
X102748444Y-90011585D01*
X102682753Y-90213760D01*
X102662521Y-90341502D01*
X102649500Y-90423713D01*
X102649500Y-90636287D01*
X102652281Y-90653844D01*
X102679468Y-90825500D01*
X102682754Y-90846243D01*
X102717822Y-90954172D01*
X102748444Y-91048414D01*
X102844951Y-91237820D01*
X102969890Y-91409786D01*
X103120213Y-91560109D01*
X103292182Y-91685050D01*
X103300946Y-91689516D01*
X103351742Y-91737491D01*
X103368536Y-91805312D01*
X103345998Y-91871447D01*
X103300946Y-91910484D01*
X103292182Y-91914949D01*
X103120213Y-92039890D01*
X102969890Y-92190213D01*
X102844951Y-92362179D01*
X102748444Y-92551585D01*
X102682753Y-92753760D01*
X102655711Y-92924500D01*
X102649500Y-92963713D01*
X102649500Y-93176287D01*
X102655585Y-93214707D01*
X102676352Y-93345826D01*
X102682754Y-93386243D01*
X102741324Y-93566503D01*
X102748444Y-93588414D01*
X102844951Y-93777820D01*
X102969890Y-93949786D01*
X103083430Y-94063326D01*
X103116915Y-94124649D01*
X103111931Y-94194341D01*
X103070059Y-94250274D01*
X103039083Y-94267189D01*
X102907669Y-94316203D01*
X102907664Y-94316206D01*
X102792455Y-94402452D01*
X102792452Y-94402455D01*
X102706206Y-94517664D01*
X102706202Y-94517671D01*
X102655908Y-94652517D01*
X102650354Y-94704184D01*
X102649501Y-94712123D01*
X102649500Y-94712135D01*
X102649500Y-96507870D01*
X102649501Y-96507876D01*
X102655908Y-96567483D01*
X102706202Y-96702328D01*
X102706206Y-96702335D01*
X102792452Y-96817544D01*
X102792455Y-96817547D01*
X102907664Y-96903793D01*
X102907671Y-96903797D01*
X103042517Y-96954091D01*
X103042516Y-96954091D01*
X103049444Y-96954835D01*
X103102127Y-96960500D01*
X104897872Y-96960499D01*
X104957483Y-96954091D01*
X105092331Y-96903796D01*
X105207546Y-96817546D01*
X105293796Y-96702331D01*
X105344091Y-96567483D01*
X105350500Y-96507873D01*
X105350499Y-94712128D01*
X105344091Y-94652517D01*
X105341795Y-94646362D01*
X105293797Y-94517671D01*
X105293793Y-94517664D01*
X105207547Y-94402455D01*
X105207544Y-94402452D01*
X105092335Y-94316206D01*
X105092328Y-94316202D01*
X104960917Y-94267189D01*
X104904983Y-94225318D01*
X104880566Y-94159853D01*
X104895418Y-94091580D01*
X104916563Y-94063332D01*
X105030104Y-93949792D01*
X105054942Y-93915606D01*
X105155048Y-93777820D01*
X105155047Y-93777820D01*
X105155051Y-93777816D01*
X105251557Y-93588412D01*
X105317246Y-93386243D01*
X105350500Y-93176287D01*
X105350500Y-92963713D01*
X105317246Y-92753757D01*
X105251557Y-92551588D01*
X105155051Y-92362184D01*
X105155049Y-92362181D01*
X105155048Y-92362179D01*
X105030109Y-92190213D01*
X104879786Y-92039890D01*
X104707820Y-91914951D01*
X104707115Y-91914591D01*
X104699054Y-91910485D01*
X104648259Y-91862512D01*
X104631463Y-91794692D01*
X104653999Y-91728556D01*
X104699054Y-91689515D01*
X104707816Y-91685051D01*
X104729789Y-91669086D01*
X104879786Y-91560109D01*
X104879788Y-91560106D01*
X104879792Y-91560104D01*
X105030104Y-91409792D01*
X105030106Y-91409788D01*
X105030109Y-91409786D01*
X105155048Y-91237820D01*
X105155047Y-91237820D01*
X105155051Y-91237816D01*
X105251557Y-91048412D01*
X105317246Y-90846243D01*
X105350500Y-90636287D01*
X105350500Y-90423713D01*
X105317246Y-90213757D01*
X105251557Y-90011588D01*
X105155051Y-89822184D01*
X105155049Y-89822181D01*
X105155048Y-89822179D01*
X105030109Y-89650213D01*
X104879786Y-89499890D01*
X104707820Y-89374951D01*
X104707115Y-89374591D01*
X104699054Y-89370485D01*
X104648259Y-89322512D01*
X104631463Y-89254692D01*
X104653999Y-89188556D01*
X104699054Y-89149515D01*
X104707816Y-89145051D01*
X104729789Y-89129086D01*
X104879786Y-89020109D01*
X104879788Y-89020106D01*
X104879792Y-89020104D01*
X105030104Y-88869792D01*
X105030106Y-88869788D01*
X105030109Y-88869786D01*
X105155048Y-88697820D01*
X105155047Y-88697820D01*
X105155051Y-88697816D01*
X105251557Y-88508412D01*
X105317246Y-88306243D01*
X105350500Y-88096287D01*
X105350500Y-87883713D01*
X105317246Y-87673757D01*
X105251557Y-87471588D01*
X105155051Y-87282184D01*
X105155049Y-87282181D01*
X105155048Y-87282179D01*
X105030109Y-87110213D01*
X104879786Y-86959890D01*
X104707820Y-86834951D01*
X104707115Y-86834591D01*
X104699054Y-86830485D01*
X104648259Y-86782512D01*
X104631463Y-86714692D01*
X104653999Y-86648556D01*
X104699054Y-86609515D01*
X104707816Y-86605051D01*
X104812707Y-86528844D01*
X104879786Y-86480109D01*
X104879788Y-86480106D01*
X104879792Y-86480104D01*
X105030104Y-86329792D01*
X105030106Y-86329788D01*
X105030109Y-86329786D01*
X105155048Y-86157820D01*
X105155047Y-86157820D01*
X105155051Y-86157816D01*
X105251557Y-85968412D01*
X105317246Y-85766243D01*
X105350500Y-85556287D01*
X105350500Y-85343713D01*
X105317246Y-85133757D01*
X105251557Y-84931588D01*
X105155051Y-84742184D01*
X105155049Y-84742181D01*
X105155048Y-84742179D01*
X105030109Y-84570213D01*
X104879786Y-84419890D01*
X104707820Y-84294951D01*
X104707115Y-84294591D01*
X104699054Y-84290485D01*
X104648259Y-84242512D01*
X104631463Y-84174692D01*
X104653999Y-84108556D01*
X104699054Y-84069515D01*
X104707816Y-84065051D01*
X104780589Y-84012179D01*
X104879786Y-83940109D01*
X104879788Y-83940106D01*
X104879792Y-83940104D01*
X105030104Y-83789792D01*
X105030106Y-83789788D01*
X105030109Y-83789786D01*
X105155048Y-83617820D01*
X105155047Y-83617820D01*
X105155051Y-83617816D01*
X105251557Y-83428412D01*
X105317246Y-83226243D01*
X105350500Y-83016287D01*
X105350500Y-82803713D01*
X105317246Y-82593757D01*
X105251557Y-82391588D01*
X105155051Y-82202184D01*
X105155049Y-82202181D01*
X105155048Y-82202179D01*
X105030109Y-82030213D01*
X104879786Y-81879890D01*
X104707820Y-81754951D01*
X104707115Y-81754591D01*
X104699054Y-81750485D01*
X104648259Y-81702512D01*
X104631463Y-81634692D01*
X104653999Y-81568556D01*
X104699054Y-81529515D01*
X104707816Y-81525051D01*
X104780589Y-81472179D01*
X104879786Y-81400109D01*
X104879788Y-81400106D01*
X104879792Y-81400104D01*
X105030104Y-81249792D01*
X105030106Y-81249788D01*
X105030109Y-81249786D01*
X105155048Y-81077820D01*
X105155047Y-81077820D01*
X105155051Y-81077816D01*
X105251557Y-80888412D01*
X105317246Y-80686243D01*
X105350500Y-80476287D01*
X105350500Y-80263713D01*
X105317246Y-80053757D01*
X105251557Y-79851588D01*
X105155051Y-79662184D01*
X105155049Y-79662181D01*
X105155048Y-79662179D01*
X105030109Y-79490213D01*
X104879786Y-79339890D01*
X104707820Y-79214951D01*
X104707115Y-79214591D01*
X104699054Y-79210485D01*
X104648259Y-79162512D01*
X104631463Y-79094692D01*
X104653999Y-79028556D01*
X104699054Y-78989515D01*
X104707816Y-78985051D01*
X104813179Y-78908501D01*
X104879786Y-78860109D01*
X104879788Y-78860106D01*
X104879792Y-78860104D01*
X105030104Y-78709792D01*
X105030106Y-78709788D01*
X105030109Y-78709786D01*
X105155048Y-78537820D01*
X105155047Y-78537820D01*
X105155051Y-78537816D01*
X105251557Y-78348412D01*
X105317246Y-78146243D01*
X105350500Y-77936287D01*
X105350500Y-77723713D01*
X105317246Y-77513757D01*
X105251557Y-77311588D01*
X105155051Y-77122184D01*
X105155049Y-77122181D01*
X105155048Y-77122179D01*
X105030109Y-76950213D01*
X104879786Y-76799890D01*
X104707820Y-76674951D01*
X104707115Y-76674591D01*
X104699054Y-76670485D01*
X104648259Y-76622512D01*
X104631463Y-76554692D01*
X104653999Y-76488556D01*
X104699054Y-76449515D01*
X104707816Y-76445051D01*
X104747116Y-76416498D01*
X104879786Y-76320109D01*
X104879788Y-76320106D01*
X104879792Y-76320104D01*
X105030104Y-76169792D01*
X105030106Y-76169788D01*
X105030109Y-76169786D01*
X105155048Y-75997820D01*
X105155047Y-75997820D01*
X105155051Y-75997816D01*
X105251557Y-75808412D01*
X105317246Y-75606243D01*
X105350500Y-75396287D01*
X105350500Y-75183713D01*
X105317246Y-74973757D01*
X105251557Y-74771588D01*
X105155051Y-74582184D01*
X105155049Y-74582181D01*
X105155048Y-74582179D01*
X105030109Y-74410213D01*
X104879786Y-74259890D01*
X104707820Y-74134951D01*
X104707115Y-74134591D01*
X104699054Y-74130485D01*
X104648259Y-74082512D01*
X104631463Y-74014692D01*
X104653999Y-73948556D01*
X104699054Y-73909515D01*
X104707816Y-73905051D01*
X104729789Y-73889086D01*
X104879786Y-73780109D01*
X104879788Y-73780106D01*
X104879792Y-73780104D01*
X105030104Y-73629792D01*
X105030106Y-73629788D01*
X105030109Y-73629786D01*
X105155048Y-73457820D01*
X105155047Y-73457820D01*
X105155051Y-73457816D01*
X105251557Y-73268412D01*
X105317246Y-73066243D01*
X105350500Y-72856287D01*
X105350500Y-72643713D01*
X105332092Y-72527491D01*
X105341046Y-72458199D01*
X105386043Y-72404747D01*
X105407106Y-72393536D01*
X105429179Y-72384394D01*
X105560289Y-72296789D01*
X105671789Y-72185289D01*
X105759394Y-72054179D01*
X105764363Y-72042184D01*
X105779655Y-72005264D01*
X105819737Y-71908497D01*
X105850500Y-71753842D01*
X105850500Y-71596158D01*
X105850500Y-71596155D01*
X105850499Y-71596153D01*
X105849884Y-71593059D01*
X105819737Y-71441503D01*
X105788878Y-71367002D01*
X105759397Y-71295827D01*
X105759390Y-71295814D01*
X105671789Y-71164711D01*
X105671786Y-71164707D01*
X105560292Y-71053213D01*
X105560288Y-71053210D01*
X105429185Y-70965609D01*
X105429172Y-70965602D01*
X105283501Y-70905264D01*
X105283489Y-70905261D01*
X105187247Y-70886117D01*
X105125336Y-70853732D01*
X105090762Y-70793016D01*
X105094501Y-70723247D01*
X105135368Y-70666575D01*
X105200386Y-70640994D01*
X105211438Y-70640500D01*
X106235500Y-70640500D01*
X106302539Y-70660185D01*
X106348294Y-70712989D01*
X106359500Y-70764500D01*
X106359500Y-130235500D01*
X106339815Y-130302539D01*
X106287011Y-130348294D01*
X106235500Y-130359500D01*
X75213473Y-130359500D01*
X75146434Y-130339815D01*
X75100679Y-130287011D01*
X75090735Y-130217853D01*
X75119760Y-130154297D01*
X75144582Y-130132398D01*
X75181180Y-130107943D01*
X75235289Y-130071789D01*
X75346789Y-129960289D01*
X75434394Y-129829179D01*
X75494737Y-129683497D01*
X75525500Y-129528842D01*
X75525500Y-129371158D01*
X75525500Y-129371155D01*
X75525499Y-129371153D01*
X75494738Y-129216510D01*
X75494737Y-129216503D01*
X75494735Y-129216498D01*
X75434397Y-129070827D01*
X75434390Y-129070814D01*
X75346789Y-128939711D01*
X75346786Y-128939707D01*
X75235292Y-128828213D01*
X75235288Y-128828210D01*
X75104185Y-128740609D01*
X75104172Y-128740602D01*
X74958501Y-128680264D01*
X74958489Y-128680261D01*
X74803845Y-128649500D01*
X74803842Y-128649500D01*
X74646158Y-128649500D01*
X74646155Y-128649500D01*
X74491510Y-128680261D01*
X74491498Y-128680264D01*
X74345827Y-128740602D01*
X74345814Y-128740609D01*
X74214711Y-128828210D01*
X74214707Y-128828213D01*
X74103213Y-128939707D01*
X74103210Y-128939711D01*
X74015609Y-129070814D01*
X74015602Y-129070827D01*
X73955264Y-129216498D01*
X73955261Y-129216510D01*
X73924500Y-129371153D01*
X73924500Y-129528846D01*
X73955261Y-129683489D01*
X73955264Y-129683501D01*
X74015602Y-129829172D01*
X74015609Y-129829185D01*
X74103210Y-129960288D01*
X74103213Y-129960292D01*
X74214707Y-130071786D01*
X74214711Y-130071789D01*
X74305418Y-130132398D01*
X74350223Y-130186010D01*
X74358930Y-130255335D01*
X74328776Y-130318363D01*
X74269332Y-130355082D01*
X74236527Y-130359500D01*
X66764500Y-130359500D01*
X66697461Y-130339815D01*
X66651706Y-130287011D01*
X66640500Y-130235500D01*
X66640500Y-128208543D01*
X81559499Y-128208543D01*
X81597947Y-128401829D01*
X81597950Y-128401839D01*
X81673364Y-128583907D01*
X81673371Y-128583920D01*
X81782860Y-128747781D01*
X81782863Y-128747785D01*
X81922214Y-128887136D01*
X81922218Y-128887139D01*
X82086079Y-128996628D01*
X82086092Y-128996635D01*
X82265195Y-129070821D01*
X82268165Y-129072051D01*
X82268169Y-129072051D01*
X82268170Y-129072052D01*
X82461456Y-129110500D01*
X82461459Y-129110500D01*
X82658543Y-129110500D01*
X82788582Y-129084632D01*
X82851835Y-129072051D01*
X83033914Y-128996632D01*
X83197782Y-128887139D01*
X83337139Y-128747782D01*
X83446632Y-128583914D01*
X83522051Y-128401835D01*
X83560500Y-128208543D01*
X90539499Y-128208543D01*
X90577947Y-128401829D01*
X90577950Y-128401839D01*
X90653364Y-128583907D01*
X90653371Y-128583920D01*
X90762860Y-128747781D01*
X90762863Y-128747785D01*
X90902214Y-128887136D01*
X90902218Y-128887139D01*
X91066079Y-128996628D01*
X91066092Y-128996635D01*
X91245195Y-129070821D01*
X91248165Y-129072051D01*
X91248169Y-129072051D01*
X91248170Y-129072052D01*
X91441456Y-129110500D01*
X91441459Y-129110500D01*
X91638543Y-129110500D01*
X91768582Y-129084632D01*
X91831835Y-129072051D01*
X92013914Y-128996632D01*
X92177782Y-128887139D01*
X92317139Y-128747782D01*
X92426632Y-128583914D01*
X92502051Y-128401835D01*
X92540500Y-128208541D01*
X92540500Y-127721153D01*
X95874500Y-127721153D01*
X95874500Y-127878846D01*
X95905261Y-128033489D01*
X95905264Y-128033501D01*
X95965602Y-128179172D01*
X95965609Y-128179185D01*
X96053210Y-128310288D01*
X96053213Y-128310292D01*
X96164707Y-128421786D01*
X96164711Y-128421789D01*
X96295814Y-128509390D01*
X96295827Y-128509397D01*
X96441498Y-128569735D01*
X96441503Y-128569737D01*
X96596153Y-128600499D01*
X96596156Y-128600500D01*
X96596158Y-128600500D01*
X96753844Y-128600500D01*
X96753845Y-128600499D01*
X96908497Y-128569737D01*
X97054179Y-128509394D01*
X97185289Y-128421789D01*
X97296789Y-128310289D01*
X97384394Y-128179179D01*
X97444737Y-128033497D01*
X97475500Y-127878842D01*
X97475500Y-127721158D01*
X97475500Y-127721155D01*
X97475499Y-127721153D01*
X97444738Y-127566510D01*
X97444737Y-127566503D01*
X97444735Y-127566498D01*
X97384397Y-127420827D01*
X97384390Y-127420814D01*
X97296789Y-127289711D01*
X97296786Y-127289707D01*
X97185292Y-127178213D01*
X97185288Y-127178210D01*
X97054185Y-127090609D01*
X97054172Y-127090602D01*
X96908501Y-127030264D01*
X96908489Y-127030261D01*
X96753845Y-126999500D01*
X96753842Y-126999500D01*
X96596158Y-126999500D01*
X96596155Y-126999500D01*
X96441510Y-127030261D01*
X96441498Y-127030264D01*
X96295827Y-127090602D01*
X96295814Y-127090609D01*
X96164711Y-127178210D01*
X96164707Y-127178213D01*
X96053213Y-127289707D01*
X96053210Y-127289711D01*
X95965609Y-127420814D01*
X95965602Y-127420827D01*
X95905264Y-127566498D01*
X95905261Y-127566510D01*
X95874500Y-127721153D01*
X92540500Y-127721153D01*
X92540500Y-127411459D01*
X92540500Y-127411456D01*
X92502052Y-127218170D01*
X92502051Y-127218169D01*
X92502051Y-127218165D01*
X92502049Y-127218160D01*
X92426635Y-127036092D01*
X92426628Y-127036079D01*
X92317139Y-126872218D01*
X92317136Y-126872214D01*
X92177785Y-126732863D01*
X92177781Y-126732860D01*
X92013920Y-126623371D01*
X92013907Y-126623364D01*
X91831839Y-126547950D01*
X91831829Y-126547947D01*
X91638543Y-126509500D01*
X91638541Y-126509500D01*
X91441459Y-126509500D01*
X91441457Y-126509500D01*
X91248170Y-126547947D01*
X91248160Y-126547950D01*
X91066092Y-126623364D01*
X91066079Y-126623371D01*
X90902218Y-126732860D01*
X90902214Y-126732863D01*
X90762863Y-126872214D01*
X90762860Y-126872218D01*
X90653371Y-127036079D01*
X90653364Y-127036092D01*
X90577950Y-127218160D01*
X90577947Y-127218170D01*
X90539500Y-127411456D01*
X90539500Y-127411459D01*
X90539500Y-128208541D01*
X90539500Y-128208543D01*
X90539499Y-128208543D01*
X83560500Y-128208543D01*
X83560500Y-128208541D01*
X83560500Y-127411459D01*
X83560500Y-127411456D01*
X83522052Y-127218170D01*
X83522051Y-127218169D01*
X83522051Y-127218165D01*
X83522049Y-127218160D01*
X83446635Y-127036092D01*
X83446628Y-127036079D01*
X83337139Y-126872218D01*
X83337136Y-126872214D01*
X83197785Y-126732863D01*
X83197781Y-126732860D01*
X83033920Y-126623371D01*
X83033907Y-126623364D01*
X82851839Y-126547950D01*
X82851829Y-126547947D01*
X82658543Y-126509500D01*
X82658541Y-126509500D01*
X82461459Y-126509500D01*
X82461457Y-126509500D01*
X82268170Y-126547947D01*
X82268160Y-126547950D01*
X82086092Y-126623364D01*
X82086079Y-126623371D01*
X81922218Y-126732860D01*
X81922214Y-126732863D01*
X81782863Y-126872214D01*
X81782860Y-126872218D01*
X81673371Y-127036079D01*
X81673364Y-127036092D01*
X81597950Y-127218160D01*
X81597947Y-127218170D01*
X81559500Y-127411456D01*
X81559500Y-127411459D01*
X81559500Y-128208541D01*
X81559500Y-128208543D01*
X81559499Y-128208543D01*
X66640500Y-128208543D01*
X66640500Y-123798543D01*
X81919499Y-123798543D01*
X81957947Y-123991829D01*
X81957950Y-123991839D01*
X82033364Y-124173907D01*
X82033371Y-124173920D01*
X82142860Y-124337781D01*
X82142863Y-124337785D01*
X82282214Y-124477136D01*
X82282218Y-124477139D01*
X82446079Y-124586628D01*
X82446092Y-124586635D01*
X82628160Y-124662049D01*
X82628165Y-124662051D01*
X82628169Y-124662051D01*
X82628170Y-124662052D01*
X82821456Y-124700500D01*
X82821459Y-124700500D01*
X83018543Y-124700500D01*
X83148582Y-124674632D01*
X83211835Y-124662051D01*
X83393914Y-124586632D01*
X83557782Y-124477139D01*
X83697139Y-124337782D01*
X83806632Y-124173914D01*
X83806633Y-124173911D01*
X83806635Y-124173908D01*
X83845508Y-124080058D01*
X83889348Y-124025654D01*
X83955642Y-124003589D01*
X84023342Y-124020868D01*
X84047750Y-124039829D01*
X84139707Y-124131786D01*
X84139711Y-124131789D01*
X84270814Y-124219390D01*
X84270827Y-124219397D01*
X84414342Y-124278842D01*
X84416503Y-124279737D01*
X84571153Y-124310499D01*
X84571156Y-124310500D01*
X84571158Y-124310500D01*
X84728844Y-124310500D01*
X84728845Y-124310499D01*
X84883497Y-124279737D01*
X85002548Y-124230425D01*
X85072017Y-124222956D01*
X85097453Y-124230425D01*
X85216503Y-124279737D01*
X85371153Y-124310499D01*
X85371156Y-124310500D01*
X85371158Y-124310500D01*
X85528844Y-124310500D01*
X85528845Y-124310499D01*
X85683497Y-124279737D01*
X85802548Y-124230425D01*
X85872017Y-124222956D01*
X85897453Y-124230425D01*
X86016503Y-124279737D01*
X86171153Y-124310499D01*
X86171156Y-124310500D01*
X86171158Y-124310500D01*
X86328844Y-124310500D01*
X86328845Y-124310499D01*
X86483497Y-124279737D01*
X86629179Y-124219394D01*
X86760289Y-124131789D01*
X86871789Y-124020289D01*
X86946898Y-123907881D01*
X87000510Y-123863076D01*
X87069835Y-123854369D01*
X87132863Y-123884523D01*
X87153102Y-123907881D01*
X87228210Y-124020288D01*
X87228213Y-124020292D01*
X87339707Y-124131786D01*
X87339711Y-124131789D01*
X87470814Y-124219390D01*
X87470827Y-124219397D01*
X87614342Y-124278842D01*
X87616503Y-124279737D01*
X87771153Y-124310499D01*
X87771156Y-124310500D01*
X87771158Y-124310500D01*
X87928844Y-124310500D01*
X87928845Y-124310499D01*
X88083497Y-124279737D01*
X88202548Y-124230425D01*
X88272017Y-124222956D01*
X88297453Y-124230425D01*
X88416503Y-124279737D01*
X88571153Y-124310499D01*
X88571156Y-124310500D01*
X88571158Y-124310500D01*
X88728844Y-124310500D01*
X88728845Y-124310499D01*
X88883497Y-124279737D01*
X89002548Y-124230425D01*
X89072017Y-124222956D01*
X89097453Y-124230425D01*
X89216503Y-124279737D01*
X89371153Y-124310499D01*
X89371156Y-124310500D01*
X89371158Y-124310500D01*
X89528844Y-124310500D01*
X89528845Y-124310499D01*
X89683497Y-124279737D01*
X89829179Y-124219394D01*
X89960289Y-124131789D01*
X90052250Y-124039827D01*
X90113571Y-124006344D01*
X90183263Y-124011328D01*
X90239197Y-124053199D01*
X90254491Y-124080057D01*
X90293366Y-124173911D01*
X90293371Y-124173920D01*
X90402860Y-124337781D01*
X90402863Y-124337785D01*
X90542214Y-124477136D01*
X90542218Y-124477139D01*
X90706079Y-124586628D01*
X90706092Y-124586635D01*
X90888160Y-124662049D01*
X90888165Y-124662051D01*
X90888169Y-124662051D01*
X90888170Y-124662052D01*
X91081456Y-124700500D01*
X91081459Y-124700500D01*
X91278543Y-124700500D01*
X91408582Y-124674632D01*
X91471835Y-124662051D01*
X91653914Y-124586632D01*
X91817782Y-124477139D01*
X91957139Y-124337782D01*
X92066632Y-124173914D01*
X92142051Y-123991835D01*
X92176067Y-123820827D01*
X92180500Y-123798543D01*
X92180500Y-123001456D01*
X92142052Y-122808170D01*
X92142051Y-122808169D01*
X92142051Y-122808165D01*
X92098840Y-122703844D01*
X92066635Y-122626092D01*
X92066627Y-122626078D01*
X92055188Y-122608958D01*
X92055187Y-122608957D01*
X92013223Y-122546153D01*
X96324500Y-122546153D01*
X96324500Y-122703846D01*
X96355261Y-122858489D01*
X96355264Y-122858501D01*
X96415602Y-123004172D01*
X96415609Y-123004185D01*
X96503210Y-123135288D01*
X96503213Y-123135292D01*
X96614707Y-123246786D01*
X96614711Y-123246789D01*
X96708411Y-123309398D01*
X96753216Y-123363010D01*
X96761923Y-123432335D01*
X96731768Y-123495363D01*
X96708411Y-123515602D01*
X96614711Y-123578210D01*
X96614707Y-123578213D01*
X96503213Y-123689707D01*
X96503210Y-123689711D01*
X96415609Y-123820814D01*
X96415602Y-123820827D01*
X96355264Y-123966498D01*
X96355261Y-123966510D01*
X96324500Y-124121153D01*
X96324500Y-124278846D01*
X96355261Y-124433489D01*
X96355264Y-124433501D01*
X96415602Y-124579172D01*
X96415609Y-124579185D01*
X96503210Y-124710288D01*
X96503213Y-124710292D01*
X96614707Y-124821786D01*
X96614711Y-124821789D01*
X96745814Y-124909390D01*
X96745827Y-124909397D01*
X96891498Y-124969735D01*
X96891503Y-124969737D01*
X97046153Y-125000499D01*
X97046156Y-125000500D01*
X97046158Y-125000500D01*
X97203844Y-125000500D01*
X97203845Y-125000499D01*
X97358497Y-124969737D01*
X97504179Y-124909394D01*
X97635289Y-124821789D01*
X97746789Y-124710289D01*
X97834394Y-124579179D01*
X97894737Y-124433497D01*
X97925500Y-124278842D01*
X97925500Y-124121158D01*
X97925500Y-124121155D01*
X97925499Y-124121153D01*
X104149500Y-124121153D01*
X104149500Y-124278846D01*
X104180261Y-124433489D01*
X104180264Y-124433501D01*
X104240602Y-124579172D01*
X104240609Y-124579185D01*
X104328210Y-124710288D01*
X104328213Y-124710292D01*
X104439707Y-124821786D01*
X104439711Y-124821789D01*
X104570814Y-124909390D01*
X104570827Y-124909397D01*
X104716498Y-124969735D01*
X104716503Y-124969737D01*
X104871153Y-125000499D01*
X104871156Y-125000500D01*
X104871158Y-125000500D01*
X105028844Y-125000500D01*
X105028845Y-125000499D01*
X105183497Y-124969737D01*
X105329179Y-124909394D01*
X105460289Y-124821789D01*
X105571789Y-124710289D01*
X105659394Y-124579179D01*
X105719737Y-124433497D01*
X105750500Y-124278842D01*
X105750500Y-124121158D01*
X105750500Y-124121155D01*
X105750499Y-124121153D01*
X105736982Y-124053199D01*
X105719737Y-123966503D01*
X105685780Y-123884523D01*
X105659397Y-123820827D01*
X105659390Y-123820814D01*
X105571789Y-123689711D01*
X105571786Y-123689707D01*
X105460292Y-123578213D01*
X105460288Y-123578210D01*
X105329185Y-123490609D01*
X105329172Y-123490602D01*
X105183501Y-123430264D01*
X105183489Y-123430261D01*
X105028845Y-123399500D01*
X105028842Y-123399500D01*
X104871158Y-123399500D01*
X104871155Y-123399500D01*
X104716510Y-123430261D01*
X104716498Y-123430264D01*
X104570827Y-123490602D01*
X104570814Y-123490609D01*
X104439711Y-123578210D01*
X104439707Y-123578213D01*
X104328213Y-123689707D01*
X104328210Y-123689711D01*
X104240609Y-123820814D01*
X104240602Y-123820827D01*
X104180264Y-123966498D01*
X104180261Y-123966510D01*
X104149500Y-124121153D01*
X97925499Y-124121153D01*
X97911982Y-124053199D01*
X97894737Y-123966503D01*
X97860780Y-123884523D01*
X97834397Y-123820827D01*
X97834390Y-123820814D01*
X97746789Y-123689711D01*
X97746786Y-123689707D01*
X97635292Y-123578213D01*
X97635284Y-123578207D01*
X97541589Y-123515602D01*
X97496783Y-123461990D01*
X97488076Y-123392665D01*
X97518230Y-123329638D01*
X97541589Y-123309398D01*
X97601010Y-123269693D01*
X97635289Y-123246789D01*
X97746789Y-123135289D01*
X97834394Y-123004179D01*
X97894737Y-122858497D01*
X97925500Y-122703842D01*
X97925500Y-122546158D01*
X97925500Y-122546155D01*
X97925499Y-122546153D01*
X97907750Y-122456923D01*
X97894737Y-122391503D01*
X97866305Y-122322861D01*
X97834397Y-122245827D01*
X97834390Y-122245814D01*
X97746789Y-122114711D01*
X97746786Y-122114707D01*
X97635292Y-122003213D01*
X97635288Y-122003210D01*
X97504185Y-121915609D01*
X97504172Y-121915602D01*
X97358501Y-121855264D01*
X97358489Y-121855261D01*
X97203845Y-121824500D01*
X97203842Y-121824500D01*
X97046158Y-121824500D01*
X97046155Y-121824500D01*
X96891510Y-121855261D01*
X96891498Y-121855264D01*
X96745827Y-121915602D01*
X96745814Y-121915609D01*
X96614711Y-122003210D01*
X96614707Y-122003213D01*
X96503213Y-122114707D01*
X96503210Y-122114711D01*
X96415609Y-122245814D01*
X96415602Y-122245827D01*
X96355264Y-122391498D01*
X96355261Y-122391510D01*
X96324500Y-122546153D01*
X92013223Y-122546153D01*
X91957139Y-122462217D01*
X91817785Y-122322863D01*
X91817781Y-122322860D01*
X91653920Y-122213371D01*
X91653907Y-122213364D01*
X91471839Y-122137950D01*
X91471829Y-122137947D01*
X91345133Y-122112745D01*
X91283222Y-122080360D01*
X91249551Y-122023223D01*
X91235094Y-121969269D01*
X91220559Y-121934177D01*
X91168348Y-121843745D01*
X91168343Y-121843736D01*
X91145232Y-121813620D01*
X91145231Y-121813619D01*
X91145225Y-121813611D01*
X91071389Y-121739775D01*
X91071379Y-121739767D01*
X91041263Y-121716656D01*
X90950829Y-121664444D01*
X90950825Y-121664442D01*
X90950823Y-121664441D01*
X90915731Y-121649906D01*
X90814868Y-121622880D01*
X90777210Y-121617922D01*
X90672790Y-121617922D01*
X90635132Y-121622880D01*
X90534268Y-121649906D01*
X90499179Y-121664440D01*
X90499170Y-121664444D01*
X90408736Y-121716656D01*
X90378620Y-121739767D01*
X90378605Y-121739780D01*
X90304780Y-121813605D01*
X90304767Y-121813620D01*
X90281656Y-121843736D01*
X90229444Y-121934170D01*
X90229439Y-121934181D01*
X90216678Y-121964990D01*
X90172837Y-122019393D01*
X90106543Y-122041458D01*
X90077926Y-122039154D01*
X89928845Y-122009500D01*
X89928842Y-122009500D01*
X89771158Y-122009500D01*
X89771155Y-122009500D01*
X89616510Y-122040261D01*
X89616498Y-122040264D01*
X89470827Y-122100602D01*
X89470814Y-122100609D01*
X89339711Y-122188210D01*
X89339707Y-122188213D01*
X89228213Y-122299707D01*
X89228210Y-122299711D01*
X89153102Y-122412118D01*
X89099490Y-122456923D01*
X89030165Y-122465630D01*
X88967137Y-122435475D01*
X88946898Y-122412118D01*
X88871789Y-122299711D01*
X88871786Y-122299707D01*
X88760292Y-122188213D01*
X88760288Y-122188210D01*
X88629185Y-122100609D01*
X88629172Y-122100602D01*
X88483501Y-122040264D01*
X88483489Y-122040261D01*
X88328845Y-122009500D01*
X88328842Y-122009500D01*
X88171158Y-122009500D01*
X88171155Y-122009500D01*
X88016510Y-122040261D01*
X88016498Y-122040264D01*
X87897452Y-122089574D01*
X87827982Y-122097043D01*
X87802548Y-122089574D01*
X87683501Y-122040264D01*
X87683489Y-122040261D01*
X87528845Y-122009500D01*
X87528842Y-122009500D01*
X87371158Y-122009500D01*
X87371155Y-122009500D01*
X87216510Y-122040261D01*
X87216498Y-122040264D01*
X87097452Y-122089574D01*
X87027982Y-122097043D01*
X87002548Y-122089574D01*
X86883501Y-122040264D01*
X86883489Y-122040261D01*
X86728845Y-122009500D01*
X86728842Y-122009500D01*
X86571158Y-122009500D01*
X86571155Y-122009500D01*
X86416510Y-122040261D01*
X86416498Y-122040264D01*
X86297452Y-122089574D01*
X86227982Y-122097043D01*
X86202548Y-122089574D01*
X86083501Y-122040264D01*
X86083489Y-122040261D01*
X85928845Y-122009500D01*
X85928842Y-122009500D01*
X85771158Y-122009500D01*
X85771155Y-122009500D01*
X85616510Y-122040261D01*
X85616498Y-122040264D01*
X85470827Y-122100602D01*
X85470814Y-122100609D01*
X85339711Y-122188210D01*
X85339707Y-122188213D01*
X85228213Y-122299707D01*
X85228210Y-122299711D01*
X85153102Y-122412118D01*
X85099490Y-122456923D01*
X85030165Y-122465630D01*
X84967137Y-122435475D01*
X84946898Y-122412118D01*
X84871789Y-122299711D01*
X84871786Y-122299707D01*
X84760292Y-122188213D01*
X84760288Y-122188210D01*
X84629185Y-122100609D01*
X84629172Y-122100602D01*
X84483501Y-122040264D01*
X84483489Y-122040261D01*
X84328845Y-122009500D01*
X84328842Y-122009500D01*
X84171158Y-122009500D01*
X84171153Y-122009500D01*
X84022073Y-122039154D01*
X83952482Y-122032927D01*
X83897304Y-121990064D01*
X83883320Y-121964987D01*
X83870561Y-121934183D01*
X83870559Y-121934177D01*
X83818348Y-121843745D01*
X83818343Y-121843736D01*
X83795232Y-121813620D01*
X83795231Y-121813619D01*
X83795225Y-121813611D01*
X83721389Y-121739775D01*
X83721379Y-121739767D01*
X83691263Y-121716656D01*
X83600829Y-121664444D01*
X83600825Y-121664442D01*
X83600823Y-121664441D01*
X83565731Y-121649906D01*
X83464868Y-121622880D01*
X83427210Y-121617922D01*
X83322790Y-121617922D01*
X83285132Y-121622880D01*
X83184268Y-121649906D01*
X83149179Y-121664440D01*
X83149170Y-121664444D01*
X83058736Y-121716656D01*
X83028620Y-121739767D01*
X83028605Y-121739780D01*
X82954780Y-121813605D01*
X82954767Y-121813620D01*
X82931656Y-121843736D01*
X82879444Y-121934170D01*
X82879440Y-121934179D01*
X82864905Y-121969271D01*
X82850448Y-122023223D01*
X82814082Y-122082883D01*
X82754866Y-122112745D01*
X82628170Y-122137947D01*
X82628160Y-122137950D01*
X82446092Y-122213364D01*
X82446079Y-122213371D01*
X82282218Y-122322860D01*
X82282214Y-122322863D01*
X82142863Y-122462214D01*
X82142860Y-122462218D01*
X82033371Y-122626079D01*
X82033364Y-122626092D01*
X81957950Y-122808160D01*
X81957947Y-122808170D01*
X81919500Y-123001456D01*
X81919500Y-123001459D01*
X81919500Y-123798541D01*
X81919500Y-123798543D01*
X81919499Y-123798543D01*
X66640500Y-123798543D01*
X66640500Y-118921153D01*
X84700500Y-118921153D01*
X84700500Y-119078846D01*
X84731261Y-119233489D01*
X84731264Y-119233501D01*
X84791602Y-119379172D01*
X84791609Y-119379185D01*
X84879210Y-119510288D01*
X84879213Y-119510292D01*
X84990707Y-119621786D01*
X84990711Y-119621789D01*
X85121814Y-119709390D01*
X85121827Y-119709397D01*
X85221060Y-119750500D01*
X85267503Y-119769737D01*
X85422153Y-119800499D01*
X85422156Y-119800500D01*
X85422158Y-119800500D01*
X85579844Y-119800500D01*
X85579845Y-119800499D01*
X85734497Y-119769737D01*
X85805479Y-119740335D01*
X85850540Y-119721671D01*
X85920009Y-119714202D01*
X85982488Y-119745477D01*
X86018140Y-119805566D01*
X86015646Y-119875391D01*
X86001095Y-119905121D01*
X85990611Y-119920811D01*
X85990602Y-119920827D01*
X85930264Y-120066498D01*
X85930261Y-120066510D01*
X85899500Y-120221153D01*
X85899500Y-120378846D01*
X85930261Y-120533489D01*
X85930264Y-120533501D01*
X85990602Y-120679172D01*
X85990609Y-120679185D01*
X86078210Y-120810288D01*
X86078213Y-120810292D01*
X86189707Y-120921786D01*
X86189711Y-120921789D01*
X86320814Y-121009390D01*
X86320827Y-121009397D01*
X86466498Y-121069735D01*
X86466503Y-121069737D01*
X86621153Y-121100499D01*
X86621156Y-121100500D01*
X86621158Y-121100500D01*
X86778844Y-121100500D01*
X86778845Y-121100499D01*
X86933497Y-121069737D01*
X87079179Y-121009394D01*
X87210289Y-120921789D01*
X87321789Y-120810289D01*
X87409394Y-120679179D01*
X87469737Y-120533497D01*
X87500500Y-120378842D01*
X87500500Y-120221158D01*
X87500500Y-120221155D01*
X87500499Y-120221153D01*
X87469738Y-120066510D01*
X87469737Y-120066503D01*
X87469735Y-120066498D01*
X87409397Y-119920827D01*
X87409390Y-119920814D01*
X87321789Y-119789711D01*
X87321786Y-119789707D01*
X87210292Y-119678213D01*
X87210288Y-119678210D01*
X87079185Y-119590609D01*
X87079172Y-119590602D01*
X86933501Y-119530264D01*
X86933489Y-119530261D01*
X86778845Y-119499500D01*
X86778842Y-119499500D01*
X86621158Y-119499500D01*
X86621155Y-119499500D01*
X86466510Y-119530261D01*
X86466503Y-119530263D01*
X86350458Y-119578329D01*
X86280989Y-119585797D01*
X86218510Y-119554521D01*
X86182858Y-119494432D01*
X86185353Y-119424606D01*
X86199908Y-119394872D01*
X86210390Y-119379185D01*
X86210390Y-119379184D01*
X86210394Y-119379179D01*
X86270737Y-119233497D01*
X86301500Y-119078842D01*
X86301500Y-118921158D01*
X86301500Y-118921155D01*
X86295155Y-118889258D01*
X86295155Y-118889257D01*
X86291554Y-118871153D01*
X87549500Y-118871153D01*
X87549500Y-119028846D01*
X87580261Y-119183489D01*
X87580264Y-119183501D01*
X87640602Y-119329172D01*
X87640609Y-119329185D01*
X87728210Y-119460288D01*
X87728213Y-119460292D01*
X87839707Y-119571786D01*
X87839711Y-119571789D01*
X87970814Y-119659390D01*
X87970827Y-119659397D01*
X88103140Y-119714202D01*
X88116503Y-119719737D01*
X88245906Y-119745477D01*
X88271153Y-119750499D01*
X88271156Y-119750500D01*
X88271158Y-119750500D01*
X88428844Y-119750500D01*
X88428845Y-119750499D01*
X88583497Y-119719737D01*
X88729179Y-119659394D01*
X88860289Y-119571789D01*
X88971789Y-119460289D01*
X89059394Y-119329179D01*
X89119737Y-119183497D01*
X89150500Y-119028842D01*
X89150500Y-118871158D01*
X89150500Y-118871155D01*
X89150499Y-118871153D01*
X89129684Y-118766510D01*
X89119737Y-118716503D01*
X89080102Y-118620814D01*
X89059397Y-118570827D01*
X89059390Y-118570814D01*
X88971789Y-118439711D01*
X88971786Y-118439707D01*
X88860292Y-118328213D01*
X88860288Y-118328210D01*
X88729185Y-118240609D01*
X88729172Y-118240602D01*
X88583501Y-118180264D01*
X88583489Y-118180261D01*
X88428845Y-118149500D01*
X88428842Y-118149500D01*
X88271158Y-118149500D01*
X88271155Y-118149500D01*
X88116510Y-118180261D01*
X88116498Y-118180264D01*
X87970827Y-118240602D01*
X87970814Y-118240609D01*
X87839711Y-118328210D01*
X87839707Y-118328213D01*
X87728213Y-118439707D01*
X87728210Y-118439711D01*
X87640609Y-118570814D01*
X87640602Y-118570827D01*
X87580264Y-118716498D01*
X87580261Y-118716510D01*
X87549500Y-118871153D01*
X86291554Y-118871153D01*
X86270738Y-118766510D01*
X86270737Y-118766503D01*
X86270735Y-118766498D01*
X86210397Y-118620827D01*
X86210390Y-118620814D01*
X86122789Y-118489711D01*
X86122786Y-118489707D01*
X86011292Y-118378213D01*
X86011288Y-118378210D01*
X85880185Y-118290609D01*
X85880172Y-118290602D01*
X85734501Y-118230264D01*
X85734489Y-118230261D01*
X85579845Y-118199500D01*
X85579842Y-118199500D01*
X85422158Y-118199500D01*
X85422155Y-118199500D01*
X85267510Y-118230261D01*
X85267498Y-118230264D01*
X85121827Y-118290602D01*
X85121814Y-118290609D01*
X84990711Y-118378210D01*
X84990707Y-118378213D01*
X84879213Y-118489707D01*
X84879210Y-118489711D01*
X84791609Y-118620814D01*
X84791602Y-118620827D01*
X84731264Y-118766498D01*
X84731261Y-118766510D01*
X84700500Y-118921153D01*
X66640500Y-118921153D01*
X66640500Y-114408653D01*
X85049500Y-114408653D01*
X85049500Y-114566346D01*
X85080261Y-114720989D01*
X85080264Y-114721001D01*
X85140602Y-114866672D01*
X85140609Y-114866685D01*
X85228210Y-114997788D01*
X85228213Y-114997792D01*
X85339707Y-115109286D01*
X85339711Y-115109289D01*
X85470814Y-115196890D01*
X85470827Y-115196897D01*
X85616498Y-115257235D01*
X85616503Y-115257237D01*
X85771153Y-115287999D01*
X85771156Y-115288000D01*
X85771158Y-115288000D01*
X85928844Y-115288000D01*
X85928845Y-115287999D01*
X86083497Y-115257237D01*
X86229179Y-115196894D01*
X86360289Y-115109289D01*
X86471789Y-114997789D01*
X86559394Y-114866679D01*
X86619737Y-114720997D01*
X86650500Y-114566342D01*
X86650500Y-114408658D01*
X86650500Y-114408655D01*
X86650499Y-114408653D01*
X86619738Y-114254010D01*
X86619737Y-114254003D01*
X86619735Y-114253998D01*
X86559397Y-114108327D01*
X86559390Y-114108314D01*
X86471789Y-113977211D01*
X86471786Y-113977207D01*
X86360292Y-113865713D01*
X86360288Y-113865710D01*
X86229185Y-113778109D01*
X86229172Y-113778102D01*
X86083501Y-113717764D01*
X86083489Y-113717761D01*
X85928845Y-113687000D01*
X85928842Y-113687000D01*
X85771158Y-113687000D01*
X85771155Y-113687000D01*
X85616510Y-113717761D01*
X85616498Y-113717764D01*
X85470827Y-113778102D01*
X85470814Y-113778109D01*
X85339711Y-113865710D01*
X85339707Y-113865713D01*
X85228213Y-113977207D01*
X85228210Y-113977211D01*
X85140609Y-114108314D01*
X85140602Y-114108327D01*
X85080264Y-114253998D01*
X85080261Y-114254010D01*
X85049500Y-114408653D01*
X66640500Y-114408653D01*
X66640500Y-112221153D01*
X81324500Y-112221153D01*
X81324500Y-112378846D01*
X81355261Y-112533489D01*
X81355264Y-112533501D01*
X81415602Y-112679172D01*
X81415609Y-112679185D01*
X81503210Y-112810288D01*
X81503213Y-112810292D01*
X81614707Y-112921786D01*
X81614711Y-112921789D01*
X81745814Y-113009390D01*
X81745827Y-113009397D01*
X81891498Y-113069735D01*
X81891503Y-113069737D01*
X82046153Y-113100499D01*
X82046156Y-113100500D01*
X82046158Y-113100500D01*
X82203844Y-113100500D01*
X82203845Y-113100499D01*
X82358497Y-113069737D01*
X82504179Y-113009394D01*
X82635289Y-112921789D01*
X82746789Y-112810289D01*
X82834394Y-112679179D01*
X82894737Y-112533497D01*
X82925500Y-112378842D01*
X82925500Y-112221158D01*
X82925500Y-112221155D01*
X82925499Y-112221153D01*
X82894738Y-112066510D01*
X82894737Y-112066503D01*
X82889493Y-112053842D01*
X82845164Y-111946821D01*
X82839716Y-111896153D01*
X94184500Y-111896153D01*
X94184500Y-112053846D01*
X94215261Y-112208489D01*
X94215264Y-112208501D01*
X94275602Y-112354172D01*
X94275609Y-112354185D01*
X94363210Y-112485288D01*
X94363213Y-112485292D01*
X94474707Y-112596786D01*
X94474711Y-112596789D01*
X94605814Y-112684390D01*
X94605827Y-112684397D01*
X94751498Y-112744735D01*
X94751503Y-112744737D01*
X94906153Y-112775499D01*
X94906156Y-112775500D01*
X94906158Y-112775500D01*
X95063844Y-112775500D01*
X95063845Y-112775499D01*
X95218497Y-112744737D01*
X95364179Y-112684394D01*
X95495289Y-112596789D01*
X95606789Y-112485289D01*
X95694394Y-112354179D01*
X95754737Y-112208497D01*
X95785500Y-112053842D01*
X95785500Y-111896158D01*
X95785500Y-111896155D01*
X95785499Y-111896153D01*
X95770299Y-111819737D01*
X95754737Y-111741503D01*
X95728521Y-111678211D01*
X95694397Y-111595827D01*
X95694390Y-111595814D01*
X95606789Y-111464711D01*
X95606786Y-111464707D01*
X95495292Y-111353213D01*
X95495288Y-111353210D01*
X95364185Y-111265609D01*
X95364172Y-111265602D01*
X95218501Y-111205264D01*
X95218489Y-111205261D01*
X95063845Y-111174500D01*
X95063842Y-111174500D01*
X94906158Y-111174500D01*
X94906155Y-111174500D01*
X94751510Y-111205261D01*
X94751498Y-111205264D01*
X94605827Y-111265602D01*
X94605814Y-111265609D01*
X94474711Y-111353210D01*
X94474707Y-111353213D01*
X94363213Y-111464707D01*
X94363210Y-111464711D01*
X94275609Y-111595814D01*
X94275602Y-111595827D01*
X94215264Y-111741498D01*
X94215261Y-111741510D01*
X94184500Y-111896153D01*
X82839716Y-111896153D01*
X82837695Y-111877352D01*
X82868970Y-111814873D01*
X82929060Y-111779221D01*
X82998885Y-111781715D01*
X83007160Y-111784801D01*
X83091503Y-111819737D01*
X83246153Y-111850499D01*
X83246156Y-111850500D01*
X83246158Y-111850500D01*
X83403844Y-111850500D01*
X83403845Y-111850499D01*
X83558497Y-111819737D01*
X83630987Y-111789711D01*
X83665284Y-111775505D01*
X83704173Y-111759397D01*
X83704176Y-111759395D01*
X83704179Y-111759394D01*
X83835289Y-111671789D01*
X83946789Y-111560289D01*
X84034394Y-111429179D01*
X84094737Y-111283497D01*
X84125500Y-111128842D01*
X84125500Y-110971158D01*
X84125500Y-110971155D01*
X84125499Y-110971153D01*
X84094738Y-110816510D01*
X84094737Y-110816503D01*
X84094735Y-110816498D01*
X84034397Y-110670827D01*
X84034390Y-110670814D01*
X83946789Y-110539711D01*
X83946786Y-110539707D01*
X83894260Y-110487181D01*
X83860775Y-110425858D01*
X83865759Y-110356166D01*
X83907631Y-110300233D01*
X83973095Y-110275816D01*
X83981941Y-110275500D01*
X84002844Y-110275500D01*
X84002845Y-110275499D01*
X84157497Y-110244737D01*
X84303179Y-110184394D01*
X84434289Y-110096789D01*
X84545789Y-109985289D01*
X84633394Y-109854179D01*
X84693737Y-109708497D01*
X84724500Y-109553842D01*
X84724500Y-109396158D01*
X84724500Y-109396155D01*
X84724499Y-109396153D01*
X84693738Y-109241510D01*
X84693737Y-109241503D01*
X84693735Y-109241498D01*
X84633397Y-109095827D01*
X84633390Y-109095814D01*
X84545789Y-108964711D01*
X84545786Y-108964707D01*
X84434292Y-108853213D01*
X84434288Y-108853210D01*
X84303185Y-108765609D01*
X84303172Y-108765602D01*
X84157501Y-108705264D01*
X84157489Y-108705261D01*
X84002845Y-108674500D01*
X84002842Y-108674500D01*
X83845158Y-108674500D01*
X83845155Y-108674500D01*
X83690510Y-108705261D01*
X83690498Y-108705264D01*
X83544827Y-108765602D01*
X83544814Y-108765609D01*
X83413711Y-108853210D01*
X83413707Y-108853213D01*
X83302213Y-108964707D01*
X83302210Y-108964711D01*
X83214609Y-109095814D01*
X83214602Y-109095827D01*
X83154264Y-109241498D01*
X83154261Y-109241510D01*
X83123500Y-109396153D01*
X83123500Y-109553846D01*
X83154261Y-109708489D01*
X83154264Y-109708501D01*
X83214602Y-109854172D01*
X83214609Y-109854185D01*
X83302210Y-109985288D01*
X83302213Y-109985292D01*
X83354740Y-110037819D01*
X83388225Y-110099142D01*
X83383241Y-110168834D01*
X83341369Y-110224767D01*
X83275905Y-110249184D01*
X83267059Y-110249500D01*
X83246155Y-110249500D01*
X83091510Y-110280261D01*
X83091498Y-110280264D01*
X82945827Y-110340602D01*
X82945814Y-110340609D01*
X82814711Y-110428210D01*
X82814707Y-110428213D01*
X82703213Y-110539707D01*
X82703210Y-110539711D01*
X82615609Y-110670814D01*
X82615602Y-110670827D01*
X82555264Y-110816498D01*
X82555261Y-110816510D01*
X82524500Y-110971153D01*
X82524500Y-111128846D01*
X82555261Y-111283489D01*
X82555264Y-111283501D01*
X82604835Y-111403178D01*
X82612304Y-111472648D01*
X82581028Y-111535127D01*
X82520939Y-111570778D01*
X82451114Y-111568284D01*
X82442822Y-111565191D01*
X82358501Y-111530264D01*
X82358489Y-111530261D01*
X82203845Y-111499500D01*
X82203842Y-111499500D01*
X82046158Y-111499500D01*
X82046155Y-111499500D01*
X81891510Y-111530261D01*
X81891498Y-111530264D01*
X81745827Y-111590602D01*
X81745814Y-111590609D01*
X81614711Y-111678210D01*
X81614707Y-111678213D01*
X81503213Y-111789707D01*
X81503210Y-111789711D01*
X81415609Y-111920814D01*
X81415602Y-111920827D01*
X81355264Y-112066498D01*
X81355261Y-112066510D01*
X81324500Y-112221153D01*
X66640500Y-112221153D01*
X66640500Y-104882918D01*
X87049500Y-104882918D01*
X87049500Y-105040611D01*
X87080261Y-105195254D01*
X87080264Y-105195266D01*
X87140602Y-105340937D01*
X87140609Y-105340950D01*
X87228210Y-105472053D01*
X87228213Y-105472057D01*
X87339707Y-105583551D01*
X87339711Y-105583554D01*
X87470814Y-105671155D01*
X87470827Y-105671162D01*
X87616498Y-105731500D01*
X87616503Y-105731502D01*
X87771153Y-105762264D01*
X87771156Y-105762265D01*
X87771158Y-105762265D01*
X87928844Y-105762265D01*
X87928845Y-105762264D01*
X88083497Y-105731502D01*
X88229179Y-105671159D01*
X88360289Y-105583554D01*
X88471789Y-105472054D01*
X88559394Y-105340944D01*
X88619737Y-105195262D01*
X88650500Y-105040607D01*
X88650500Y-104882923D01*
X88650500Y-104882920D01*
X88650499Y-104882918D01*
X88619738Y-104728275D01*
X88619737Y-104728268D01*
X88619735Y-104728263D01*
X88559397Y-104582592D01*
X88559390Y-104582579D01*
X88471789Y-104451476D01*
X88471786Y-104451472D01*
X88360292Y-104339978D01*
X88360288Y-104339975D01*
X88229185Y-104252374D01*
X88229172Y-104252367D01*
X88083501Y-104192029D01*
X88083489Y-104192026D01*
X87928845Y-104161265D01*
X87928842Y-104161265D01*
X87771158Y-104161265D01*
X87771155Y-104161265D01*
X87616510Y-104192026D01*
X87616498Y-104192029D01*
X87470827Y-104252367D01*
X87470814Y-104252374D01*
X87339711Y-104339975D01*
X87339707Y-104339978D01*
X87228213Y-104451472D01*
X87228210Y-104451476D01*
X87140609Y-104582579D01*
X87140602Y-104582592D01*
X87080264Y-104728263D01*
X87080261Y-104728275D01*
X87049500Y-104882918D01*
X66640500Y-104882918D01*
X66640500Y-102878925D01*
X72790044Y-102878925D01*
X72790044Y-103036618D01*
X72820805Y-103191261D01*
X72820808Y-103191273D01*
X72881146Y-103336944D01*
X72881153Y-103336957D01*
X72968754Y-103468060D01*
X72968757Y-103468064D01*
X73080251Y-103579558D01*
X73080255Y-103579561D01*
X73211358Y-103667162D01*
X73211371Y-103667169D01*
X73357042Y-103727507D01*
X73357047Y-103727509D01*
X73511697Y-103758271D01*
X73511700Y-103758272D01*
X73511702Y-103758272D01*
X73669388Y-103758272D01*
X73669389Y-103758271D01*
X73824041Y-103727509D01*
X73969723Y-103667166D01*
X74100833Y-103579561D01*
X74212333Y-103468061D01*
X74299938Y-103336951D01*
X74360281Y-103191269D01*
X74391044Y-103036614D01*
X74391044Y-102896153D01*
X82399500Y-102896153D01*
X82399500Y-103053846D01*
X82430261Y-103208489D01*
X82430264Y-103208501D01*
X82490602Y-103354172D01*
X82490609Y-103354185D01*
X82578210Y-103485288D01*
X82578213Y-103485292D01*
X82689707Y-103596786D01*
X82689711Y-103596789D01*
X82820814Y-103684390D01*
X82820827Y-103684397D01*
X82966498Y-103744735D01*
X82966503Y-103744737D01*
X83121153Y-103775499D01*
X83121156Y-103775500D01*
X83121158Y-103775500D01*
X83278844Y-103775500D01*
X83278845Y-103775499D01*
X83433497Y-103744737D01*
X83579179Y-103684394D01*
X83710289Y-103596789D01*
X83821789Y-103485289D01*
X83909394Y-103354179D01*
X83969737Y-103208497D01*
X83982138Y-103146153D01*
X94024500Y-103146153D01*
X94024500Y-103303846D01*
X94055261Y-103458489D01*
X94055264Y-103458501D01*
X94115602Y-103604172D01*
X94115609Y-103604185D01*
X94203210Y-103735288D01*
X94203213Y-103735292D01*
X94314707Y-103846786D01*
X94314711Y-103846789D01*
X94445814Y-103934390D01*
X94445827Y-103934397D01*
X94591498Y-103994735D01*
X94591503Y-103994737D01*
X94746153Y-104025499D01*
X94746156Y-104025500D01*
X94746158Y-104025500D01*
X94903844Y-104025500D01*
X94903845Y-104025499D01*
X95058497Y-103994737D01*
X95204179Y-103934394D01*
X95335289Y-103846789D01*
X95446789Y-103735289D01*
X95534394Y-103604179D01*
X95594737Y-103458497D01*
X95625500Y-103303842D01*
X95625500Y-103146158D01*
X95625500Y-103146155D01*
X95625499Y-103146153D01*
X103199500Y-103146153D01*
X103199500Y-103303846D01*
X103230261Y-103458489D01*
X103230264Y-103458501D01*
X103290602Y-103604172D01*
X103290609Y-103604185D01*
X103378210Y-103735288D01*
X103378213Y-103735292D01*
X103489707Y-103846786D01*
X103489711Y-103846789D01*
X103620814Y-103934390D01*
X103620827Y-103934397D01*
X103766498Y-103994735D01*
X103766503Y-103994737D01*
X103921153Y-104025499D01*
X103921156Y-104025500D01*
X103921158Y-104025500D01*
X104078844Y-104025500D01*
X104078845Y-104025499D01*
X104233497Y-103994737D01*
X104379179Y-103934394D01*
X104510289Y-103846789D01*
X104621789Y-103735289D01*
X104709394Y-103604179D01*
X104769737Y-103458497D01*
X104800500Y-103303842D01*
X104800500Y-103146158D01*
X104800500Y-103146155D01*
X104800499Y-103146153D01*
X104778711Y-103036618D01*
X104769737Y-102991503D01*
X104730242Y-102896153D01*
X104709397Y-102845827D01*
X104709390Y-102845814D01*
X104621789Y-102714711D01*
X104621786Y-102714707D01*
X104510292Y-102603213D01*
X104510288Y-102603210D01*
X104379185Y-102515609D01*
X104379172Y-102515602D01*
X104233501Y-102455264D01*
X104233489Y-102455261D01*
X104078845Y-102424500D01*
X104078842Y-102424500D01*
X103921158Y-102424500D01*
X103921155Y-102424500D01*
X103766510Y-102455261D01*
X103766498Y-102455264D01*
X103620827Y-102515602D01*
X103620814Y-102515609D01*
X103489711Y-102603210D01*
X103489707Y-102603213D01*
X103378213Y-102714707D01*
X103378210Y-102714711D01*
X103290609Y-102845814D01*
X103290602Y-102845827D01*
X103230264Y-102991498D01*
X103230261Y-102991510D01*
X103199500Y-103146153D01*
X95625499Y-103146153D01*
X95603711Y-103036618D01*
X95594737Y-102991503D01*
X95555242Y-102896153D01*
X95534397Y-102845827D01*
X95534390Y-102845814D01*
X95446789Y-102714711D01*
X95446786Y-102714707D01*
X95335292Y-102603213D01*
X95335288Y-102603210D01*
X95204185Y-102515609D01*
X95204172Y-102515602D01*
X95058501Y-102455264D01*
X95058489Y-102455261D01*
X94903845Y-102424500D01*
X94903842Y-102424500D01*
X94746158Y-102424500D01*
X94746155Y-102424500D01*
X94591510Y-102455261D01*
X94591498Y-102455264D01*
X94445827Y-102515602D01*
X94445814Y-102515609D01*
X94314711Y-102603210D01*
X94314707Y-102603213D01*
X94203213Y-102714707D01*
X94203210Y-102714711D01*
X94115609Y-102845814D01*
X94115602Y-102845827D01*
X94055264Y-102991498D01*
X94055261Y-102991510D01*
X94024500Y-103146153D01*
X83982138Y-103146153D01*
X83988161Y-103115874D01*
X84000500Y-103053844D01*
X84000500Y-102896155D01*
X84000499Y-102896153D01*
X83997073Y-102878930D01*
X83969737Y-102741503D01*
X83962599Y-102724270D01*
X83909397Y-102595827D01*
X83909390Y-102595814D01*
X83821789Y-102464711D01*
X83821786Y-102464707D01*
X83710292Y-102353213D01*
X83710288Y-102353210D01*
X83579185Y-102265609D01*
X83579172Y-102265602D01*
X83433501Y-102205264D01*
X83433489Y-102205261D01*
X83278845Y-102174500D01*
X83278842Y-102174500D01*
X83121158Y-102174500D01*
X83121155Y-102174500D01*
X82966510Y-102205261D01*
X82966498Y-102205264D01*
X82820827Y-102265602D01*
X82820814Y-102265609D01*
X82689711Y-102353210D01*
X82689707Y-102353213D01*
X82578213Y-102464707D01*
X82578210Y-102464711D01*
X82490609Y-102595814D01*
X82490602Y-102595827D01*
X82430264Y-102741498D01*
X82430261Y-102741510D01*
X82399500Y-102896153D01*
X74391044Y-102896153D01*
X74391044Y-102878930D01*
X74391044Y-102878927D01*
X74391043Y-102878925D01*
X74360373Y-102724737D01*
X74360281Y-102724275D01*
X74360279Y-102724270D01*
X74299941Y-102578599D01*
X74299934Y-102578586D01*
X74212333Y-102447483D01*
X74212330Y-102447479D01*
X74100836Y-102335985D01*
X74100832Y-102335982D01*
X73969729Y-102248381D01*
X73969716Y-102248374D01*
X73824045Y-102188036D01*
X73824033Y-102188033D01*
X73669389Y-102157272D01*
X73669386Y-102157272D01*
X73511702Y-102157272D01*
X73511699Y-102157272D01*
X73357054Y-102188033D01*
X73357042Y-102188036D01*
X73211371Y-102248374D01*
X73211358Y-102248381D01*
X73080255Y-102335982D01*
X73080251Y-102335985D01*
X72968757Y-102447479D01*
X72968754Y-102447483D01*
X72881153Y-102578586D01*
X72881146Y-102578599D01*
X72820808Y-102724270D01*
X72820805Y-102724282D01*
X72790044Y-102878925D01*
X66640500Y-102878925D01*
X66640500Y-100971153D01*
X72099500Y-100971153D01*
X72099500Y-101128846D01*
X72130261Y-101283489D01*
X72130264Y-101283501D01*
X72190602Y-101429172D01*
X72190609Y-101429185D01*
X72278210Y-101560288D01*
X72278213Y-101560292D01*
X72389707Y-101671786D01*
X72389711Y-101671789D01*
X72520814Y-101759390D01*
X72520827Y-101759397D01*
X72666498Y-101819735D01*
X72666503Y-101819737D01*
X72802487Y-101846786D01*
X72821153Y-101850499D01*
X72821156Y-101850500D01*
X72821158Y-101850500D01*
X72978844Y-101850500D01*
X72978845Y-101850499D01*
X73133497Y-101819737D01*
X73279179Y-101759394D01*
X73410289Y-101671789D01*
X73521789Y-101560289D01*
X73609394Y-101429179D01*
X73669737Y-101283497D01*
X73700500Y-101128842D01*
X73700500Y-100971158D01*
X73700500Y-100971155D01*
X73689182Y-100914258D01*
X73689182Y-100914257D01*
X73685581Y-100896153D01*
X81749500Y-100896153D01*
X81749500Y-101053846D01*
X81780261Y-101208489D01*
X81780264Y-101208501D01*
X81840602Y-101354172D01*
X81840609Y-101354185D01*
X81928210Y-101485288D01*
X81928213Y-101485292D01*
X82039707Y-101596786D01*
X82039711Y-101596789D01*
X82170814Y-101684390D01*
X82170827Y-101684397D01*
X82316498Y-101744735D01*
X82316503Y-101744737D01*
X82471153Y-101775499D01*
X82471156Y-101775500D01*
X82471158Y-101775500D01*
X82628844Y-101775500D01*
X82628845Y-101775499D01*
X82783497Y-101744737D01*
X82929179Y-101684394D01*
X83060289Y-101596789D01*
X83171789Y-101485289D01*
X83259394Y-101354179D01*
X83319737Y-101208497D01*
X83344424Y-101084388D01*
X86825500Y-101084388D01*
X86825500Y-101242081D01*
X86856261Y-101396724D01*
X86856264Y-101396736D01*
X86916602Y-101542407D01*
X86916609Y-101542420D01*
X87004210Y-101673523D01*
X87004213Y-101673527D01*
X87115707Y-101785021D01*
X87115711Y-101785024D01*
X87246814Y-101872625D01*
X87246827Y-101872632D01*
X87392498Y-101932970D01*
X87392503Y-101932972D01*
X87525350Y-101959397D01*
X87547153Y-101963734D01*
X87547156Y-101963735D01*
X87547158Y-101963735D01*
X87704844Y-101963735D01*
X87704845Y-101963734D01*
X87859497Y-101932972D01*
X87996659Y-101876158D01*
X88005172Y-101872632D01*
X88005172Y-101872631D01*
X88005179Y-101872629D01*
X88136289Y-101785024D01*
X88247789Y-101673524D01*
X88335394Y-101542414D01*
X88395737Y-101396732D01*
X88426500Y-101242077D01*
X88426500Y-101084393D01*
X88426500Y-101084390D01*
X88419140Y-101047390D01*
X88425367Y-100977798D01*
X88468230Y-100922621D01*
X88534120Y-100899376D01*
X88602117Y-100915444D01*
X88628438Y-100935517D01*
X88739707Y-101046786D01*
X88739711Y-101046789D01*
X88870814Y-101134390D01*
X88870827Y-101134397D01*
X88993633Y-101185264D01*
X89016503Y-101194737D01*
X89171153Y-101225499D01*
X89171156Y-101225500D01*
X89171158Y-101225500D01*
X89328844Y-101225500D01*
X89328845Y-101225499D01*
X89483497Y-101194737D01*
X89600790Y-101146153D01*
X93249500Y-101146153D01*
X93249500Y-101303846D01*
X93280261Y-101458489D01*
X93280264Y-101458501D01*
X93340602Y-101604172D01*
X93340609Y-101604185D01*
X93428210Y-101735288D01*
X93428213Y-101735292D01*
X93539707Y-101846786D01*
X93539711Y-101846789D01*
X93670814Y-101934390D01*
X93670827Y-101934397D01*
X93816498Y-101994735D01*
X93816503Y-101994737D01*
X93942176Y-102019735D01*
X93971153Y-102025499D01*
X93971156Y-102025500D01*
X93971158Y-102025500D01*
X94128844Y-102025500D01*
X94128845Y-102025499D01*
X94283497Y-101994737D01*
X94429179Y-101934394D01*
X94560289Y-101846789D01*
X94671789Y-101735289D01*
X94759394Y-101604179D01*
X94819737Y-101458497D01*
X94850500Y-101303842D01*
X94850500Y-101146158D01*
X94850500Y-101146155D01*
X94850499Y-101146153D01*
X94845245Y-101119738D01*
X94819737Y-100991503D01*
X94794156Y-100929745D01*
X94759397Y-100845827D01*
X94759390Y-100845814D01*
X94671789Y-100714711D01*
X94671786Y-100714707D01*
X94560292Y-100603213D01*
X94560288Y-100603210D01*
X94429185Y-100515609D01*
X94429172Y-100515602D01*
X94283501Y-100455264D01*
X94283489Y-100455261D01*
X94128845Y-100424500D01*
X94128842Y-100424500D01*
X93971158Y-100424500D01*
X93971155Y-100424500D01*
X93816510Y-100455261D01*
X93816498Y-100455264D01*
X93670827Y-100515602D01*
X93670814Y-100515609D01*
X93539711Y-100603210D01*
X93539707Y-100603213D01*
X93428213Y-100714707D01*
X93428210Y-100714711D01*
X93340609Y-100845814D01*
X93340602Y-100845827D01*
X93280264Y-100991498D01*
X93280261Y-100991510D01*
X93249500Y-101146153D01*
X89600790Y-101146153D01*
X89629179Y-101134394D01*
X89760289Y-101046789D01*
X89871789Y-100935289D01*
X89959394Y-100804179D01*
X90019737Y-100658497D01*
X90050500Y-100503842D01*
X90050500Y-100346158D01*
X90050500Y-100346155D01*
X90050499Y-100346153D01*
X90037393Y-100280264D01*
X90019737Y-100191503D01*
X89988674Y-100116510D01*
X89959397Y-100045827D01*
X89959390Y-100045814D01*
X89871789Y-99914711D01*
X89871786Y-99914707D01*
X89760292Y-99803213D01*
X89760288Y-99803210D01*
X89674897Y-99746153D01*
X99424500Y-99746153D01*
X99424500Y-99903846D01*
X99455261Y-100058489D01*
X99455264Y-100058501D01*
X99515602Y-100204172D01*
X99515609Y-100204185D01*
X99603210Y-100335288D01*
X99603213Y-100335292D01*
X99714707Y-100446786D01*
X99714711Y-100446789D01*
X99845814Y-100534390D01*
X99845827Y-100534397D01*
X99991498Y-100594735D01*
X99991503Y-100594737D01*
X100028299Y-100602056D01*
X100090209Y-100634439D01*
X100118669Y-100676219D01*
X100140606Y-100729179D01*
X100140609Y-100729185D01*
X100228210Y-100860288D01*
X100228213Y-100860292D01*
X100310740Y-100942819D01*
X100344225Y-101004142D01*
X100339241Y-101073834D01*
X100297369Y-101129767D01*
X100231905Y-101154184D01*
X100223059Y-101154500D01*
X100216155Y-101154500D01*
X100061510Y-101185261D01*
X100061498Y-101185264D01*
X99915827Y-101245602D01*
X99915814Y-101245609D01*
X99784711Y-101333210D01*
X99784707Y-101333213D01*
X99673213Y-101444707D01*
X99673210Y-101444711D01*
X99585609Y-101575814D01*
X99585602Y-101575827D01*
X99525264Y-101721498D01*
X99525261Y-101721510D01*
X99494500Y-101876153D01*
X99494500Y-102033846D01*
X99525261Y-102188489D01*
X99525264Y-102188501D01*
X99585602Y-102334172D01*
X99585609Y-102334185D01*
X99673210Y-102465288D01*
X99673213Y-102465292D01*
X99784707Y-102576786D01*
X99784711Y-102576789D01*
X99915814Y-102664390D01*
X99915827Y-102664397D01*
X100061498Y-102724735D01*
X100061503Y-102724737D01*
X100216153Y-102755499D01*
X100216156Y-102755500D01*
X100216158Y-102755500D01*
X100373844Y-102755500D01*
X100373845Y-102755499D01*
X100528497Y-102724737D01*
X100674179Y-102664394D01*
X100805289Y-102576789D01*
X100916789Y-102465289D01*
X101004394Y-102334179D01*
X101064737Y-102188497D01*
X101095500Y-102033842D01*
X101095500Y-101876158D01*
X101095500Y-101876155D01*
X101095499Y-101876153D01*
X101089658Y-101846789D01*
X101064737Y-101721503D01*
X101049366Y-101684394D01*
X101004397Y-101575827D01*
X101004390Y-101575814D01*
X100916789Y-101444711D01*
X100916786Y-101444707D01*
X100834260Y-101362181D01*
X100800775Y-101300858D01*
X100805759Y-101231166D01*
X100847631Y-101175233D01*
X100858570Y-101171153D01*
X102524500Y-101171153D01*
X102524500Y-101328846D01*
X102555261Y-101483489D01*
X102555264Y-101483501D01*
X102615602Y-101629172D01*
X102615609Y-101629185D01*
X102703210Y-101760288D01*
X102703213Y-101760292D01*
X102814707Y-101871786D01*
X102814711Y-101871789D01*
X102945814Y-101959390D01*
X102945827Y-101959397D01*
X103091498Y-102019735D01*
X103091503Y-102019737D01*
X103246153Y-102050499D01*
X103246156Y-102050500D01*
X103246158Y-102050500D01*
X103403844Y-102050500D01*
X103403845Y-102050499D01*
X103558497Y-102019737D01*
X103704179Y-101959394D01*
X103835289Y-101871789D01*
X103946789Y-101760289D01*
X104034394Y-101629179D01*
X104094737Y-101483497D01*
X104125500Y-101328842D01*
X104125500Y-101171158D01*
X104125500Y-101171155D01*
X104125499Y-101171153D01*
X104120527Y-101146158D01*
X104094737Y-101016503D01*
X104075955Y-100971158D01*
X104034397Y-100870827D01*
X104034390Y-100870814D01*
X103946789Y-100739711D01*
X103946786Y-100739707D01*
X103835292Y-100628213D01*
X103835288Y-100628210D01*
X103704185Y-100540609D01*
X103704172Y-100540602D01*
X103558501Y-100480264D01*
X103558489Y-100480261D01*
X103403845Y-100449500D01*
X103403842Y-100449500D01*
X103246158Y-100449500D01*
X103246155Y-100449500D01*
X103091510Y-100480261D01*
X103091498Y-100480264D01*
X102945827Y-100540602D01*
X102945814Y-100540609D01*
X102814711Y-100628210D01*
X102814707Y-100628213D01*
X102703213Y-100739707D01*
X102703210Y-100739711D01*
X102615609Y-100870814D01*
X102615602Y-100870827D01*
X102555264Y-101016498D01*
X102555261Y-101016510D01*
X102524500Y-101171153D01*
X100858570Y-101171153D01*
X100913095Y-101150816D01*
X100921941Y-101150500D01*
X100928844Y-101150500D01*
X100928845Y-101150499D01*
X101083497Y-101119737D01*
X101229179Y-101059394D01*
X101360289Y-100971789D01*
X101471789Y-100860289D01*
X101559394Y-100729179D01*
X101565389Y-100714707D01*
X101585723Y-100665615D01*
X101619737Y-100583497D01*
X101650500Y-100428842D01*
X101650500Y-100271158D01*
X101650500Y-100271155D01*
X101650499Y-100271153D01*
X101637393Y-100205264D01*
X101619737Y-100116503D01*
X101595712Y-100058501D01*
X101559397Y-99970827D01*
X101559390Y-99970814D01*
X101471789Y-99839711D01*
X101471786Y-99839707D01*
X101360292Y-99728213D01*
X101360288Y-99728210D01*
X101229185Y-99640609D01*
X101229172Y-99640602D01*
X101083499Y-99580263D01*
X101083492Y-99580261D01*
X101046697Y-99572942D01*
X100984786Y-99540556D01*
X100956329Y-99498777D01*
X100934396Y-99445827D01*
X100934394Y-99445821D01*
X100934392Y-99445819D01*
X100934392Y-99445817D01*
X100846789Y-99314711D01*
X100846786Y-99314707D01*
X100735292Y-99203213D01*
X100735288Y-99203210D01*
X100604185Y-99115609D01*
X100604172Y-99115602D01*
X100458501Y-99055264D01*
X100458489Y-99055261D01*
X100303845Y-99024500D01*
X100303842Y-99024500D01*
X100146158Y-99024500D01*
X100146155Y-99024500D01*
X99991510Y-99055261D01*
X99991498Y-99055264D01*
X99845827Y-99115602D01*
X99845814Y-99115609D01*
X99714711Y-99203210D01*
X99714707Y-99203213D01*
X99603213Y-99314707D01*
X99603210Y-99314711D01*
X99515609Y-99445814D01*
X99515602Y-99445827D01*
X99455264Y-99591498D01*
X99455261Y-99591510D01*
X99424500Y-99746153D01*
X89674897Y-99746153D01*
X89629185Y-99715609D01*
X89629172Y-99715602D01*
X89483501Y-99655264D01*
X89483489Y-99655261D01*
X89328845Y-99624500D01*
X89328842Y-99624500D01*
X89171158Y-99624500D01*
X89171155Y-99624500D01*
X89016510Y-99655261D01*
X89016498Y-99655264D01*
X88870827Y-99715602D01*
X88870814Y-99715609D01*
X88739711Y-99803210D01*
X88739707Y-99803213D01*
X88628213Y-99914707D01*
X88628210Y-99914711D01*
X88540609Y-100045814D01*
X88540602Y-100045827D01*
X88480264Y-100191498D01*
X88480261Y-100191510D01*
X88449500Y-100346153D01*
X88449500Y-100503842D01*
X88456860Y-100540847D01*
X88450631Y-100610438D01*
X88407767Y-100665615D01*
X88341877Y-100688858D01*
X88273880Y-100672789D01*
X88247561Y-100652717D01*
X88136292Y-100541448D01*
X88136288Y-100541445D01*
X88005185Y-100453844D01*
X88005172Y-100453837D01*
X87859501Y-100393499D01*
X87859489Y-100393496D01*
X87704845Y-100362735D01*
X87704842Y-100362735D01*
X87547158Y-100362735D01*
X87547155Y-100362735D01*
X87392510Y-100393496D01*
X87392498Y-100393499D01*
X87246827Y-100453837D01*
X87246814Y-100453844D01*
X87115711Y-100541445D01*
X87115707Y-100541448D01*
X87004213Y-100652942D01*
X87004210Y-100652946D01*
X86916609Y-100784049D01*
X86916602Y-100784062D01*
X86856264Y-100929733D01*
X86856261Y-100929745D01*
X86825500Y-101084388D01*
X83344424Y-101084388D01*
X83350447Y-101054110D01*
X83350448Y-101054103D01*
X83350500Y-101053841D01*
X83350500Y-100896155D01*
X83350499Y-100896153D01*
X83334657Y-100816510D01*
X83319737Y-100741503D01*
X83314629Y-100729172D01*
X83259397Y-100595827D01*
X83259390Y-100595814D01*
X83171789Y-100464711D01*
X83171786Y-100464707D01*
X83060292Y-100353213D01*
X83060288Y-100353210D01*
X82929185Y-100265609D01*
X82929172Y-100265602D01*
X82783501Y-100205264D01*
X82783489Y-100205261D01*
X82628845Y-100174500D01*
X82628842Y-100174500D01*
X82471158Y-100174500D01*
X82471155Y-100174500D01*
X82316510Y-100205261D01*
X82316498Y-100205264D01*
X82170827Y-100265602D01*
X82170814Y-100265609D01*
X82039711Y-100353210D01*
X82039707Y-100353213D01*
X81928213Y-100464707D01*
X81928210Y-100464711D01*
X81840609Y-100595814D01*
X81840602Y-100595827D01*
X81780264Y-100741498D01*
X81780261Y-100741510D01*
X81749500Y-100896153D01*
X73685581Y-100896153D01*
X73669738Y-100816510D01*
X73669737Y-100816503D01*
X73638674Y-100741510D01*
X73609397Y-100670827D01*
X73609390Y-100670814D01*
X73521789Y-100539711D01*
X73521786Y-100539707D01*
X73410292Y-100428213D01*
X73410288Y-100428210D01*
X73279185Y-100340609D01*
X73279172Y-100340602D01*
X73133501Y-100280264D01*
X73133489Y-100280261D01*
X72978845Y-100249500D01*
X72978842Y-100249500D01*
X72821158Y-100249500D01*
X72821155Y-100249500D01*
X72666510Y-100280261D01*
X72666498Y-100280264D01*
X72520827Y-100340602D01*
X72520814Y-100340609D01*
X72389711Y-100428210D01*
X72389707Y-100428213D01*
X72278213Y-100539707D01*
X72278210Y-100539711D01*
X72190609Y-100670814D01*
X72190602Y-100670827D01*
X72130264Y-100816498D01*
X72130261Y-100816510D01*
X72099500Y-100971153D01*
X66640500Y-100971153D01*
X66640500Y-93846153D01*
X75699500Y-93846153D01*
X75699500Y-94003846D01*
X75730261Y-94158489D01*
X75730264Y-94158501D01*
X75790602Y-94304172D01*
X75790609Y-94304185D01*
X75878210Y-94435288D01*
X75878213Y-94435292D01*
X75989707Y-94546786D01*
X75989711Y-94546789D01*
X76058496Y-94592750D01*
X76103301Y-94646362D01*
X76112008Y-94715687D01*
X76081854Y-94778714D01*
X76058496Y-94798954D01*
X76014711Y-94828210D01*
X76014707Y-94828213D01*
X75903213Y-94939707D01*
X75903210Y-94939711D01*
X75815609Y-95070814D01*
X75815602Y-95070827D01*
X75755264Y-95216498D01*
X75755261Y-95216510D01*
X75724500Y-95371153D01*
X75724500Y-95528846D01*
X75755261Y-95683489D01*
X75755264Y-95683501D01*
X75815602Y-95829172D01*
X75815609Y-95829185D01*
X75903210Y-95960288D01*
X75903213Y-95960292D01*
X76014707Y-96071786D01*
X76014711Y-96071789D01*
X76145814Y-96159390D01*
X76145827Y-96159397D01*
X76281764Y-96215703D01*
X76291503Y-96219737D01*
X76308499Y-96223117D01*
X76370410Y-96255500D01*
X76404986Y-96316214D01*
X76401249Y-96385984D01*
X76360385Y-96442657D01*
X76331764Y-96459296D01*
X76195824Y-96515604D01*
X76195814Y-96515609D01*
X76064711Y-96603210D01*
X76064707Y-96603213D01*
X75953213Y-96714707D01*
X75953210Y-96714711D01*
X75865609Y-96845814D01*
X75865602Y-96845827D01*
X75805264Y-96991498D01*
X75805261Y-96991510D01*
X75774500Y-97146153D01*
X75774500Y-97303846D01*
X75805261Y-97458489D01*
X75805264Y-97458501D01*
X75865602Y-97604172D01*
X75865609Y-97604185D01*
X75953210Y-97735288D01*
X75953213Y-97735292D01*
X76064707Y-97846786D01*
X76064711Y-97846789D01*
X76195814Y-97934390D01*
X76195827Y-97934397D01*
X76341498Y-97994735D01*
X76341503Y-97994737D01*
X76496153Y-98025499D01*
X76496156Y-98025500D01*
X76496158Y-98025500D01*
X76653844Y-98025500D01*
X76653845Y-98025499D01*
X76808497Y-97994737D01*
X76954179Y-97934394D01*
X77085289Y-97846789D01*
X77196789Y-97735289D01*
X77284394Y-97604179D01*
X77344737Y-97458497D01*
X77375500Y-97303842D01*
X77375500Y-97146158D01*
X77375500Y-97146155D01*
X77375499Y-97146153D01*
X77362393Y-97080264D01*
X77344737Y-96991503D01*
X77331895Y-96960499D01*
X77284397Y-96845827D01*
X77284390Y-96845814D01*
X77196789Y-96714711D01*
X77196786Y-96714707D01*
X77085292Y-96603213D01*
X77085288Y-96603210D01*
X76954185Y-96515609D01*
X76954172Y-96515602D01*
X76808501Y-96455264D01*
X76808489Y-96455261D01*
X76791497Y-96451881D01*
X76729586Y-96419496D01*
X76695012Y-96358781D01*
X76698751Y-96289011D01*
X76739618Y-96232339D01*
X76768236Y-96215703D01*
X76904172Y-96159397D01*
X76904172Y-96159396D01*
X76904179Y-96159394D01*
X77035289Y-96071789D01*
X77146789Y-95960289D01*
X77234394Y-95829179D01*
X77294737Y-95683497D01*
X77325500Y-95528842D01*
X77325500Y-95371158D01*
X77325500Y-95371155D01*
X77325499Y-95371153D01*
X77300761Y-95246789D01*
X77294737Y-95216503D01*
X77261099Y-95135292D01*
X77234397Y-95070827D01*
X77234390Y-95070814D01*
X77146789Y-94939711D01*
X77146786Y-94939707D01*
X77035292Y-94828213D01*
X77035288Y-94828210D01*
X76966503Y-94782249D01*
X76921698Y-94728637D01*
X76912991Y-94659312D01*
X76943146Y-94596284D01*
X76966502Y-94576046D01*
X77010289Y-94546789D01*
X77121789Y-94435289D01*
X77209394Y-94304179D01*
X77269737Y-94158497D01*
X77300500Y-94003842D01*
X77300500Y-93846158D01*
X77300500Y-93846155D01*
X77300499Y-93846153D01*
X83225500Y-93846153D01*
X83225500Y-94003846D01*
X83256261Y-94158489D01*
X83256264Y-94158501D01*
X83316602Y-94304172D01*
X83316609Y-94304185D01*
X83404210Y-94435288D01*
X83404213Y-94435292D01*
X83515707Y-94546786D01*
X83515711Y-94546789D01*
X83571996Y-94584398D01*
X83616801Y-94638010D01*
X83625508Y-94707335D01*
X83595353Y-94770363D01*
X83571996Y-94790602D01*
X83515711Y-94828210D01*
X83515707Y-94828213D01*
X83404213Y-94939707D01*
X83404210Y-94939711D01*
X83316609Y-95070814D01*
X83316602Y-95070827D01*
X83256264Y-95216498D01*
X83256261Y-95216510D01*
X83225500Y-95371153D01*
X83225500Y-95528846D01*
X83256261Y-95683489D01*
X83256264Y-95683501D01*
X83316602Y-95829172D01*
X83316609Y-95829185D01*
X83404210Y-95960288D01*
X83404213Y-95960292D01*
X83515707Y-96071786D01*
X83515711Y-96071789D01*
X83646814Y-96159390D01*
X83646827Y-96159397D01*
X83798130Y-96222068D01*
X83797349Y-96223952D01*
X83847985Y-96257140D01*
X83876440Y-96320953D01*
X83865878Y-96390019D01*
X83819652Y-96442412D01*
X83797889Y-96452350D01*
X83798130Y-96452932D01*
X83646827Y-96515602D01*
X83646814Y-96515609D01*
X83515711Y-96603210D01*
X83515707Y-96603213D01*
X83404213Y-96714707D01*
X83404210Y-96714711D01*
X83316609Y-96845814D01*
X83316602Y-96845827D01*
X83256264Y-96991498D01*
X83256261Y-96991510D01*
X83225500Y-97146153D01*
X83225500Y-97303846D01*
X83256261Y-97458489D01*
X83256264Y-97458501D01*
X83316602Y-97604172D01*
X83316609Y-97604185D01*
X83404210Y-97735288D01*
X83404213Y-97735292D01*
X83515707Y-97846786D01*
X83515711Y-97846789D01*
X83646814Y-97934390D01*
X83646827Y-97934397D01*
X83792498Y-97994735D01*
X83792503Y-97994737D01*
X83947153Y-98025499D01*
X83947156Y-98025500D01*
X83947158Y-98025500D01*
X84104844Y-98025500D01*
X84104845Y-98025499D01*
X84259497Y-97994737D01*
X84405179Y-97934394D01*
X84536289Y-97846789D01*
X84611925Y-97771153D01*
X100824500Y-97771153D01*
X100824500Y-97928846D01*
X100855261Y-98083489D01*
X100855264Y-98083501D01*
X100915602Y-98229172D01*
X100915609Y-98229185D01*
X101003210Y-98360288D01*
X101003213Y-98360292D01*
X101114707Y-98471786D01*
X101114711Y-98471789D01*
X101245814Y-98559390D01*
X101245827Y-98559397D01*
X101391498Y-98619735D01*
X101391503Y-98619737D01*
X101546153Y-98650499D01*
X101546156Y-98650500D01*
X101546158Y-98650500D01*
X101703844Y-98650500D01*
X101703845Y-98650499D01*
X101858497Y-98619737D01*
X102004179Y-98559394D01*
X102135289Y-98471789D01*
X102246789Y-98360289D01*
X102334394Y-98229179D01*
X102394737Y-98083497D01*
X102425500Y-97928842D01*
X102425500Y-97771158D01*
X102425500Y-97771155D01*
X102425499Y-97771153D01*
X102418365Y-97735288D01*
X102394737Y-97616503D01*
X102389629Y-97604172D01*
X102334397Y-97470827D01*
X102334390Y-97470814D01*
X102246789Y-97339711D01*
X102246786Y-97339707D01*
X102135292Y-97228213D01*
X102135288Y-97228210D01*
X102004185Y-97140609D01*
X102004172Y-97140602D01*
X101858501Y-97080264D01*
X101858489Y-97080261D01*
X101703845Y-97049500D01*
X101703842Y-97049500D01*
X101546158Y-97049500D01*
X101546155Y-97049500D01*
X101391510Y-97080261D01*
X101391498Y-97080264D01*
X101245827Y-97140602D01*
X101245814Y-97140609D01*
X101114711Y-97228210D01*
X101114707Y-97228213D01*
X101003213Y-97339707D01*
X101003210Y-97339711D01*
X100915609Y-97470814D01*
X100915602Y-97470827D01*
X100855264Y-97616498D01*
X100855261Y-97616510D01*
X100824500Y-97771153D01*
X84611925Y-97771153D01*
X84647789Y-97735289D01*
X84735394Y-97604179D01*
X84795737Y-97458497D01*
X84826500Y-97303842D01*
X84826500Y-97146158D01*
X84826500Y-97146155D01*
X84826499Y-97146153D01*
X84813393Y-97080264D01*
X84795737Y-96991503D01*
X84782895Y-96960499D01*
X84735397Y-96845827D01*
X84735390Y-96845814D01*
X84647789Y-96714711D01*
X84647786Y-96714707D01*
X84536292Y-96603213D01*
X84536288Y-96603210D01*
X84405185Y-96515609D01*
X84405172Y-96515602D01*
X84253870Y-96452932D01*
X84254651Y-96451044D01*
X84204021Y-96417869D01*
X84175561Y-96354059D01*
X84186116Y-96284991D01*
X84232337Y-96232595D01*
X84254111Y-96222650D01*
X84253870Y-96222068D01*
X84405172Y-96159397D01*
X84405172Y-96159396D01*
X84405179Y-96159394D01*
X84536289Y-96071789D01*
X84647789Y-95960289D01*
X84735394Y-95829179D01*
X84795737Y-95683497D01*
X84826500Y-95528842D01*
X84826500Y-95371158D01*
X84826500Y-95371155D01*
X84826499Y-95371153D01*
X84801761Y-95246789D01*
X84795737Y-95216503D01*
X84762099Y-95135292D01*
X84735397Y-95070827D01*
X84735390Y-95070814D01*
X84647789Y-94939711D01*
X84647786Y-94939707D01*
X84536291Y-94828212D01*
X84511947Y-94811946D01*
X84480003Y-94790601D01*
X84435198Y-94736991D01*
X84426491Y-94667666D01*
X84456645Y-94604638D01*
X84480003Y-94584398D01*
X84536289Y-94546789D01*
X84647789Y-94435289D01*
X84735394Y-94304179D01*
X84795737Y-94158497D01*
X84826500Y-94003842D01*
X84826500Y-93846158D01*
X84826500Y-93846155D01*
X84805236Y-93739258D01*
X84801635Y-93721153D01*
X86274500Y-93721153D01*
X86274500Y-93878846D01*
X86305261Y-94033489D01*
X86305264Y-94033501D01*
X86365602Y-94179172D01*
X86365609Y-94179185D01*
X86453210Y-94310288D01*
X86453213Y-94310292D01*
X86564707Y-94421786D01*
X86564711Y-94421789D01*
X86695814Y-94509390D01*
X86695827Y-94509397D01*
X86815697Y-94559048D01*
X86841503Y-94569737D01*
X86974963Y-94596284D01*
X86996153Y-94600499D01*
X86996156Y-94600500D01*
X86996158Y-94600500D01*
X87153844Y-94600500D01*
X87153845Y-94600499D01*
X87308497Y-94569737D01*
X87454179Y-94509394D01*
X87585289Y-94421789D01*
X87630155Y-94376923D01*
X87691478Y-94343437D01*
X87761169Y-94348421D01*
X87786728Y-94361501D01*
X87895814Y-94434390D01*
X87895827Y-94434397D01*
X88034748Y-94491939D01*
X88089152Y-94535779D01*
X88101857Y-94559048D01*
X88161968Y-94704172D01*
X88161975Y-94704185D01*
X88249576Y-94835288D01*
X88249579Y-94835292D01*
X88361073Y-94946786D01*
X88361077Y-94946789D01*
X88492180Y-95034390D01*
X88492193Y-95034397D01*
X88637864Y-95094735D01*
X88637869Y-95094737D01*
X88652769Y-95097700D01*
X88665236Y-95100181D01*
X88727147Y-95132565D01*
X88761721Y-95193281D01*
X88757982Y-95263050D01*
X88744148Y-95290688D01*
X88690608Y-95370816D01*
X88690602Y-95370827D01*
X88630264Y-95516498D01*
X88630261Y-95516510D01*
X88599500Y-95671153D01*
X88599500Y-95828846D01*
X88630261Y-95983489D01*
X88630264Y-95983501D01*
X88690602Y-96129172D01*
X88690609Y-96129185D01*
X88778210Y-96260288D01*
X88778213Y-96260292D01*
X88889707Y-96371786D01*
X88889711Y-96371789D01*
X89020814Y-96459390D01*
X89020827Y-96459397D01*
X89156520Y-96515602D01*
X89166503Y-96519737D01*
X89321153Y-96550499D01*
X89321156Y-96550500D01*
X89321158Y-96550500D01*
X89478844Y-96550500D01*
X89478845Y-96550499D01*
X89633497Y-96519737D01*
X89779179Y-96459394D01*
X89910289Y-96371789D01*
X90021789Y-96260289D01*
X90109394Y-96129179D01*
X90169737Y-95983497D01*
X90200500Y-95828842D01*
X90200500Y-95671158D01*
X90200500Y-95671155D01*
X90200499Y-95671153D01*
X90172192Y-95528846D01*
X90169737Y-95516503D01*
X90132043Y-95425500D01*
X90109397Y-95370827D01*
X90109390Y-95370814D01*
X90021789Y-95239711D01*
X90021786Y-95239707D01*
X89910292Y-95128213D01*
X89910288Y-95128210D01*
X89779185Y-95040609D01*
X89779172Y-95040602D01*
X89633501Y-94980264D01*
X89633494Y-94980262D01*
X89606126Y-94974818D01*
X89544216Y-94942432D01*
X89509643Y-94881715D01*
X89513384Y-94811946D01*
X89527218Y-94784310D01*
X89556420Y-94740606D01*
X89580760Y-94704179D01*
X89641103Y-94558497D01*
X89643432Y-94546787D01*
X89643558Y-94546153D01*
X97599500Y-94546153D01*
X97599500Y-94703846D01*
X97630261Y-94858489D01*
X97630264Y-94858501D01*
X97690602Y-95004172D01*
X97690609Y-95004185D01*
X97778210Y-95135288D01*
X97778213Y-95135292D01*
X97889707Y-95246786D01*
X97889711Y-95246789D01*
X98020814Y-95334390D01*
X98020827Y-95334397D01*
X98166498Y-95394735D01*
X98166503Y-95394737D01*
X98321153Y-95425499D01*
X98321156Y-95425500D01*
X98321158Y-95425500D01*
X98478844Y-95425500D01*
X98478845Y-95425499D01*
X98633497Y-95394737D01*
X98779179Y-95334394D01*
X98910289Y-95246789D01*
X99021789Y-95135289D01*
X99109394Y-95004179D01*
X99169737Y-94858497D01*
X99200500Y-94703842D01*
X99200500Y-94546158D01*
X99200500Y-94546155D01*
X99200499Y-94546153D01*
X99198435Y-94535779D01*
X99169737Y-94391503D01*
X99138548Y-94316206D01*
X99109397Y-94245827D01*
X99109390Y-94245814D01*
X99021789Y-94114711D01*
X99021786Y-94114707D01*
X98910292Y-94003213D01*
X98910288Y-94003210D01*
X98779185Y-93915609D01*
X98779172Y-93915602D01*
X98633501Y-93855264D01*
X98633489Y-93855261D01*
X98478845Y-93824500D01*
X98478842Y-93824500D01*
X98321158Y-93824500D01*
X98321155Y-93824500D01*
X98166510Y-93855261D01*
X98166498Y-93855264D01*
X98020827Y-93915602D01*
X98020814Y-93915609D01*
X97889711Y-94003210D01*
X97889707Y-94003213D01*
X97778213Y-94114707D01*
X97778210Y-94114711D01*
X97690609Y-94245814D01*
X97690602Y-94245827D01*
X97630264Y-94391498D01*
X97630261Y-94391510D01*
X97599500Y-94546153D01*
X89643558Y-94546153D01*
X89649582Y-94515874D01*
X89649582Y-94515873D01*
X89671865Y-94403846D01*
X89671866Y-94403844D01*
X89671866Y-94246155D01*
X89671865Y-94246153D01*
X89667721Y-94225318D01*
X89641103Y-94091503D01*
X89629432Y-94063326D01*
X89580763Y-93945827D01*
X89580756Y-93945814D01*
X89493155Y-93814711D01*
X89493152Y-93814707D01*
X89381658Y-93703213D01*
X89381654Y-93703210D01*
X89250551Y-93615609D01*
X89250538Y-93615602D01*
X89111617Y-93558060D01*
X89057213Y-93514219D01*
X89044508Y-93490951D01*
X88984397Y-93345826D01*
X88984390Y-93345814D01*
X88896789Y-93214711D01*
X88896786Y-93214707D01*
X88785292Y-93103213D01*
X88785288Y-93103210D01*
X88654185Y-93015609D01*
X88654172Y-93015602D01*
X88508501Y-92955264D01*
X88508489Y-92955261D01*
X88353845Y-92924500D01*
X88353842Y-92924500D01*
X88196158Y-92924500D01*
X88196155Y-92924500D01*
X88041510Y-92955261D01*
X88041498Y-92955264D01*
X87895827Y-93015602D01*
X87895814Y-93015609D01*
X87764711Y-93103210D01*
X87764706Y-93103214D01*
X87719842Y-93148078D01*
X87658519Y-93181562D01*
X87588827Y-93176577D01*
X87563271Y-93163498D01*
X87454185Y-93090609D01*
X87454172Y-93090602D01*
X87308501Y-93030264D01*
X87308489Y-93030261D01*
X87153845Y-92999500D01*
X87153842Y-92999500D01*
X86996158Y-92999500D01*
X86996155Y-92999500D01*
X86841510Y-93030261D01*
X86841498Y-93030264D01*
X86695827Y-93090602D01*
X86695814Y-93090609D01*
X86564711Y-93178210D01*
X86564707Y-93178213D01*
X86453213Y-93289707D01*
X86453210Y-93289711D01*
X86365609Y-93420814D01*
X86365602Y-93420827D01*
X86305264Y-93566498D01*
X86305261Y-93566510D01*
X86274500Y-93721153D01*
X84801635Y-93721153D01*
X84795737Y-93691503D01*
X84764298Y-93615602D01*
X84735397Y-93545827D01*
X84735390Y-93545814D01*
X84647789Y-93414711D01*
X84647786Y-93414707D01*
X84536292Y-93303213D01*
X84536288Y-93303210D01*
X84405185Y-93215609D01*
X84405172Y-93215602D01*
X84259501Y-93155264D01*
X84259489Y-93155261D01*
X84104845Y-93124500D01*
X84104842Y-93124500D01*
X83947158Y-93124500D01*
X83947155Y-93124500D01*
X83792510Y-93155261D01*
X83792498Y-93155264D01*
X83646827Y-93215602D01*
X83646814Y-93215609D01*
X83515711Y-93303210D01*
X83515707Y-93303213D01*
X83404213Y-93414707D01*
X83404210Y-93414711D01*
X83316609Y-93545814D01*
X83316602Y-93545827D01*
X83256264Y-93691498D01*
X83256261Y-93691510D01*
X83225500Y-93846153D01*
X77300499Y-93846153D01*
X77294244Y-93814707D01*
X77269737Y-93691503D01*
X77238298Y-93615602D01*
X77209397Y-93545827D01*
X77209390Y-93545814D01*
X77121789Y-93414711D01*
X77121786Y-93414707D01*
X77010292Y-93303213D01*
X77010288Y-93303210D01*
X76879185Y-93215609D01*
X76879172Y-93215602D01*
X76733501Y-93155264D01*
X76733489Y-93155261D01*
X76578845Y-93124500D01*
X76578842Y-93124500D01*
X76421158Y-93124500D01*
X76421155Y-93124500D01*
X76266510Y-93155261D01*
X76266498Y-93155264D01*
X76120827Y-93215602D01*
X76120814Y-93215609D01*
X75989711Y-93303210D01*
X75989707Y-93303213D01*
X75878213Y-93414707D01*
X75878210Y-93414711D01*
X75790609Y-93545814D01*
X75790602Y-93545827D01*
X75730264Y-93691498D01*
X75730261Y-93691510D01*
X75699500Y-93846153D01*
X66640500Y-93846153D01*
X66640500Y-78546153D01*
X67124500Y-78546153D01*
X67124500Y-78703846D01*
X67155261Y-78858489D01*
X67155264Y-78858501D01*
X67215602Y-79004172D01*
X67215609Y-79004185D01*
X67303210Y-79135288D01*
X67303213Y-79135292D01*
X67414707Y-79246786D01*
X67414711Y-79246789D01*
X67534303Y-79326699D01*
X67579108Y-79380312D01*
X67587885Y-79449197D01*
X67574500Y-79533713D01*
X67574500Y-79746287D01*
X67607754Y-79956243D01*
X67649683Y-80085288D01*
X67673444Y-80158414D01*
X67769951Y-80347820D01*
X67894890Y-80519786D01*
X68045213Y-80670109D01*
X68217182Y-80795050D01*
X68225946Y-80799516D01*
X68276742Y-80847491D01*
X68293536Y-80915312D01*
X68270998Y-80981447D01*
X68225946Y-81020484D01*
X68217182Y-81024949D01*
X68045213Y-81149890D01*
X67894890Y-81300213D01*
X67769951Y-81472179D01*
X67673444Y-81661585D01*
X67607753Y-81863760D01*
X67574500Y-82073713D01*
X67574500Y-82286286D01*
X67603727Y-82470821D01*
X67607754Y-82496243D01*
X67665673Y-82674500D01*
X67673444Y-82698414D01*
X67769951Y-82887820D01*
X67894890Y-83059786D01*
X68045213Y-83210109D01*
X68217182Y-83335050D01*
X68225946Y-83339516D01*
X68276742Y-83387491D01*
X68293536Y-83455312D01*
X68270998Y-83521447D01*
X68225946Y-83560484D01*
X68217182Y-83564949D01*
X68045213Y-83689890D01*
X67894890Y-83840213D01*
X67769951Y-84012179D01*
X67673444Y-84201585D01*
X67607753Y-84403760D01*
X67574500Y-84613713D01*
X67574500Y-84826286D01*
X67601352Y-84995827D01*
X67607754Y-85036243D01*
X67641957Y-85141510D01*
X67673444Y-85238414D01*
X67769951Y-85427820D01*
X67894890Y-85599786D01*
X68045213Y-85750109D01*
X68217182Y-85875050D01*
X68225946Y-85879516D01*
X68276742Y-85927491D01*
X68293536Y-85995312D01*
X68270998Y-86061447D01*
X68225946Y-86100484D01*
X68217182Y-86104949D01*
X68045213Y-86229890D01*
X67894890Y-86380213D01*
X67769951Y-86552179D01*
X67673444Y-86741585D01*
X67607753Y-86943760D01*
X67574500Y-87153713D01*
X67574500Y-87366286D01*
X67607753Y-87576239D01*
X67607753Y-87576241D01*
X67607754Y-87576243D01*
X67646833Y-87696516D01*
X67673444Y-87778414D01*
X67769951Y-87967820D01*
X67894890Y-88139786D01*
X68008430Y-88253326D01*
X68041915Y-88314649D01*
X68036931Y-88384341D01*
X67995059Y-88440274D01*
X67964083Y-88457189D01*
X67832669Y-88506203D01*
X67832664Y-88506206D01*
X67717455Y-88592452D01*
X67717452Y-88592455D01*
X67631206Y-88707664D01*
X67631202Y-88707671D01*
X67580908Y-88842517D01*
X67574889Y-88898508D01*
X67574501Y-88902123D01*
X67574500Y-88902135D01*
X67574500Y-90697870D01*
X67574501Y-90697876D01*
X67580908Y-90757483D01*
X67631202Y-90892328D01*
X67631206Y-90892335D01*
X67717452Y-91007544D01*
X67717455Y-91007547D01*
X67832664Y-91093793D01*
X67832671Y-91093797D01*
X67967517Y-91144091D01*
X67967516Y-91144091D01*
X67974444Y-91144835D01*
X68027127Y-91150500D01*
X69822872Y-91150499D01*
X69882483Y-91144091D01*
X70017331Y-91093796D01*
X70132546Y-91007546D01*
X70218796Y-90892331D01*
X70269091Y-90757483D01*
X70275500Y-90697873D01*
X70275499Y-89946153D01*
X77674500Y-89946153D01*
X77674500Y-90103846D01*
X77705261Y-90258489D01*
X77705264Y-90258501D01*
X77765602Y-90404172D01*
X77765609Y-90404185D01*
X77853210Y-90535288D01*
X77853213Y-90535292D01*
X77964707Y-90646786D01*
X77964711Y-90646789D01*
X78095814Y-90734390D01*
X78095827Y-90734397D01*
X78195060Y-90775500D01*
X78241503Y-90794737D01*
X78396153Y-90825499D01*
X78396156Y-90825500D01*
X78396158Y-90825500D01*
X78553844Y-90825500D01*
X78553845Y-90825499D01*
X78708497Y-90794737D01*
X78854179Y-90734394D01*
X78985289Y-90646789D01*
X79096789Y-90535289D01*
X79184394Y-90404179D01*
X79244737Y-90258497D01*
X79275500Y-90103842D01*
X79275500Y-89946158D01*
X79275500Y-89946155D01*
X79269155Y-89914258D01*
X79269155Y-89914257D01*
X79265554Y-89896153D01*
X87599500Y-89896153D01*
X87599500Y-90053846D01*
X87630261Y-90208489D01*
X87630264Y-90208501D01*
X87690602Y-90354172D01*
X87690609Y-90354185D01*
X87778210Y-90485288D01*
X87778213Y-90485292D01*
X87889707Y-90596786D01*
X87889711Y-90596789D01*
X88020814Y-90684390D01*
X88020827Y-90684397D01*
X88166498Y-90744735D01*
X88166503Y-90744737D01*
X88321153Y-90775499D01*
X88321156Y-90775500D01*
X88321158Y-90775500D01*
X88478844Y-90775500D01*
X88478845Y-90775499D01*
X88633497Y-90744737D01*
X88779179Y-90684394D01*
X88910289Y-90596789D01*
X89010925Y-90496153D01*
X92999500Y-90496153D01*
X92999500Y-90653846D01*
X93030261Y-90808489D01*
X93030264Y-90808501D01*
X93090602Y-90954172D01*
X93090609Y-90954185D01*
X93178210Y-91085288D01*
X93178213Y-91085292D01*
X93289707Y-91196786D01*
X93289711Y-91196789D01*
X93420814Y-91284390D01*
X93420827Y-91284397D01*
X93566498Y-91344735D01*
X93566503Y-91344737D01*
X93721153Y-91375499D01*
X93721156Y-91375500D01*
X93721158Y-91375500D01*
X93878844Y-91375500D01*
X93878845Y-91375499D01*
X94033497Y-91344737D01*
X94179179Y-91284394D01*
X94310289Y-91196789D01*
X94421789Y-91085289D01*
X94509394Y-90954179D01*
X94569737Y-90808497D01*
X94600500Y-90653842D01*
X94600500Y-90496158D01*
X94600500Y-90496155D01*
X94600499Y-90496153D01*
X94582204Y-90404179D01*
X94569737Y-90341503D01*
X94553297Y-90301814D01*
X94545829Y-90232348D01*
X94577104Y-90169869D01*
X94620403Y-90139805D01*
X94754179Y-90084394D01*
X94885289Y-89996789D01*
X94996789Y-89885289D01*
X95084394Y-89754179D01*
X95144737Y-89608497D01*
X95175500Y-89453842D01*
X95175500Y-89296158D01*
X95175500Y-89296155D01*
X95175499Y-89296153D01*
X95154096Y-89188556D01*
X95144737Y-89141503D01*
X95107603Y-89051854D01*
X95100135Y-88982388D01*
X95107604Y-88956951D01*
X95108600Y-88954545D01*
X95108602Y-88954543D01*
X95168945Y-88808861D01*
X95199708Y-88654206D01*
X95199708Y-88496522D01*
X95199708Y-88496519D01*
X95199707Y-88496517D01*
X95191884Y-88457189D01*
X95168945Y-88341867D01*
X95120376Y-88224612D01*
X95112908Y-88155144D01*
X95120375Y-88129712D01*
X95170434Y-88008860D01*
X95201197Y-87854205D01*
X95201197Y-87696521D01*
X95201197Y-87696518D01*
X95201196Y-87696516D01*
X95170434Y-87541866D01*
X95159931Y-87516510D01*
X95110094Y-87396190D01*
X95110087Y-87396177D01*
X95022486Y-87265074D01*
X95022483Y-87265070D01*
X94910989Y-87153576D01*
X94910985Y-87153573D01*
X94779882Y-87065972D01*
X94779869Y-87065965D01*
X94634198Y-87005627D01*
X94634186Y-87005624D01*
X94479542Y-86974863D01*
X94479539Y-86974863D01*
X94321855Y-86974863D01*
X94321852Y-86974863D01*
X94167207Y-87005624D01*
X94167195Y-87005627D01*
X94021524Y-87065965D01*
X94021511Y-87065972D01*
X93890408Y-87153573D01*
X93890404Y-87153576D01*
X93778910Y-87265070D01*
X93778907Y-87265074D01*
X93691306Y-87396177D01*
X93691299Y-87396190D01*
X93630961Y-87541861D01*
X93630958Y-87541873D01*
X93600197Y-87696516D01*
X93600197Y-87854209D01*
X93630958Y-88008852D01*
X93630961Y-88008864D01*
X93679527Y-88126114D01*
X93686996Y-88195583D01*
X93679527Y-88221018D01*
X93629472Y-88341862D01*
X93629469Y-88341874D01*
X93598708Y-88496517D01*
X93598708Y-88654210D01*
X93629469Y-88808853D01*
X93629472Y-88808865D01*
X93666603Y-88898508D01*
X93674072Y-88967977D01*
X93666603Y-88993412D01*
X93605264Y-89141498D01*
X93605261Y-89141510D01*
X93574500Y-89296153D01*
X93574500Y-89453846D01*
X93605261Y-89608489D01*
X93605264Y-89608501D01*
X93621701Y-89648183D01*
X93629170Y-89717652D01*
X93597895Y-89780131D01*
X93554592Y-89810196D01*
X93420827Y-89865602D01*
X93420814Y-89865609D01*
X93289711Y-89953210D01*
X93289707Y-89953213D01*
X93178213Y-90064707D01*
X93178210Y-90064711D01*
X93090609Y-90195814D01*
X93090602Y-90195827D01*
X93030264Y-90341498D01*
X93030261Y-90341510D01*
X92999500Y-90496153D01*
X89010925Y-90496153D01*
X89021789Y-90485289D01*
X89109394Y-90354179D01*
X89169737Y-90208497D01*
X89200500Y-90053842D01*
X89200500Y-89896158D01*
X89200500Y-89896155D01*
X89200499Y-89896153D01*
X89194422Y-89865602D01*
X89169737Y-89741503D01*
X89130102Y-89645814D01*
X89109397Y-89595827D01*
X89109390Y-89595814D01*
X89021789Y-89464711D01*
X89021786Y-89464707D01*
X88910292Y-89353213D01*
X88910288Y-89353210D01*
X88779185Y-89265609D01*
X88779172Y-89265602D01*
X88633501Y-89205264D01*
X88633489Y-89205261D01*
X88478845Y-89174500D01*
X88478842Y-89174500D01*
X88321158Y-89174500D01*
X88321155Y-89174500D01*
X88166510Y-89205261D01*
X88166498Y-89205264D01*
X88020827Y-89265602D01*
X88020814Y-89265609D01*
X87889711Y-89353210D01*
X87889707Y-89353213D01*
X87778213Y-89464707D01*
X87778210Y-89464711D01*
X87690609Y-89595814D01*
X87690602Y-89595827D01*
X87630264Y-89741498D01*
X87630261Y-89741510D01*
X87599500Y-89896153D01*
X79265554Y-89896153D01*
X79244738Y-89791510D01*
X79244737Y-89791503D01*
X79244735Y-89791498D01*
X79184397Y-89645827D01*
X79184390Y-89645814D01*
X79096789Y-89514711D01*
X79096786Y-89514707D01*
X78985292Y-89403213D01*
X78985288Y-89403210D01*
X78854185Y-89315609D01*
X78854172Y-89315602D01*
X78708501Y-89255264D01*
X78708489Y-89255261D01*
X78553845Y-89224500D01*
X78553842Y-89224500D01*
X78396158Y-89224500D01*
X78396155Y-89224500D01*
X78241510Y-89255261D01*
X78241498Y-89255264D01*
X78095827Y-89315602D01*
X78095814Y-89315609D01*
X77964711Y-89403210D01*
X77964707Y-89403213D01*
X77853213Y-89514707D01*
X77853210Y-89514711D01*
X77765609Y-89645814D01*
X77765602Y-89645827D01*
X77705264Y-89791498D01*
X77705261Y-89791510D01*
X77674500Y-89946153D01*
X70275499Y-89946153D01*
X70275499Y-89791510D01*
X70275499Y-88902129D01*
X70275498Y-88902123D01*
X70275497Y-88902116D01*
X70269091Y-88842517D01*
X70218796Y-88707669D01*
X70218795Y-88707668D01*
X70218793Y-88707664D01*
X70132547Y-88592455D01*
X70132544Y-88592452D01*
X70017335Y-88506206D01*
X70017328Y-88506202D01*
X69885917Y-88457189D01*
X69829983Y-88415318D01*
X69805566Y-88349853D01*
X69820418Y-88281580D01*
X69841563Y-88253332D01*
X69955104Y-88139792D01*
X69962431Y-88129708D01*
X70080048Y-87967820D01*
X70080047Y-87967820D01*
X70080051Y-87967816D01*
X70176557Y-87778412D01*
X70211408Y-87671153D01*
X78749500Y-87671153D01*
X78749500Y-87828846D01*
X78780261Y-87983489D01*
X78780264Y-87983501D01*
X78840602Y-88129172D01*
X78840609Y-88129185D01*
X78928210Y-88260288D01*
X78928213Y-88260292D01*
X79039707Y-88371786D01*
X79039711Y-88371789D01*
X79170814Y-88459390D01*
X79170827Y-88459397D01*
X79316498Y-88519735D01*
X79316503Y-88519737D01*
X79471153Y-88550499D01*
X79471156Y-88550500D01*
X79471158Y-88550500D01*
X79628844Y-88550500D01*
X79628845Y-88550499D01*
X79783497Y-88519737D01*
X79929179Y-88459394D01*
X80060289Y-88371789D01*
X80171789Y-88260289D01*
X80259394Y-88129179D01*
X80319737Y-87983497D01*
X80350500Y-87828842D01*
X80350500Y-87671158D01*
X80350500Y-87671155D01*
X80350499Y-87671153D01*
X80331620Y-87576243D01*
X80319737Y-87516503D01*
X80301133Y-87471588D01*
X80259397Y-87370827D01*
X80259390Y-87370814D01*
X80171789Y-87239711D01*
X80171786Y-87239707D01*
X80060292Y-87128213D01*
X80060288Y-87128210D01*
X79929185Y-87040609D01*
X79929172Y-87040602D01*
X79783501Y-86980264D01*
X79783489Y-86980261D01*
X79628845Y-86949500D01*
X79628842Y-86949500D01*
X79471158Y-86949500D01*
X79471155Y-86949500D01*
X79316510Y-86980261D01*
X79316498Y-86980264D01*
X79170827Y-87040602D01*
X79170814Y-87040609D01*
X79039711Y-87128210D01*
X79039707Y-87128213D01*
X78928213Y-87239707D01*
X78928210Y-87239711D01*
X78840609Y-87370814D01*
X78840602Y-87370827D01*
X78780264Y-87516498D01*
X78780261Y-87516510D01*
X78749500Y-87671153D01*
X70211408Y-87671153D01*
X70242246Y-87576243D01*
X70275500Y-87366287D01*
X70275500Y-87153713D01*
X70242246Y-86943757D01*
X70176557Y-86741588D01*
X70080051Y-86552184D01*
X69955104Y-86380208D01*
X69946049Y-86371153D01*
X86799500Y-86371153D01*
X86799500Y-86528846D01*
X86830261Y-86683489D01*
X86830264Y-86683501D01*
X86890602Y-86829172D01*
X86890609Y-86829185D01*
X86978210Y-86960288D01*
X86978213Y-86960292D01*
X87089707Y-87071786D01*
X87089711Y-87071789D01*
X87220814Y-87159390D01*
X87220827Y-87159397D01*
X87366498Y-87219735D01*
X87366503Y-87219737D01*
X87521153Y-87250499D01*
X87521156Y-87250500D01*
X87521158Y-87250500D01*
X87678844Y-87250500D01*
X87678845Y-87250499D01*
X87833497Y-87219737D01*
X87979179Y-87159394D01*
X88110289Y-87071789D01*
X88221789Y-86960289D01*
X88309394Y-86829179D01*
X88369737Y-86683497D01*
X88400500Y-86528842D01*
X88400500Y-86371158D01*
X88400500Y-86371155D01*
X88400499Y-86371153D01*
X88392272Y-86329792D01*
X88369737Y-86216503D01*
X88323531Y-86104951D01*
X88309397Y-86070827D01*
X88309390Y-86070814D01*
X88221789Y-85939711D01*
X88221786Y-85939707D01*
X88110292Y-85828213D01*
X88110288Y-85828210D01*
X87979185Y-85740609D01*
X87979172Y-85740602D01*
X87833501Y-85680264D01*
X87833489Y-85680261D01*
X87678845Y-85649500D01*
X87678842Y-85649500D01*
X87521158Y-85649500D01*
X87521155Y-85649500D01*
X87366510Y-85680261D01*
X87366498Y-85680264D01*
X87220827Y-85740602D01*
X87220814Y-85740609D01*
X87089711Y-85828210D01*
X87089707Y-85828213D01*
X86978213Y-85939707D01*
X86978210Y-85939711D01*
X86890609Y-86070814D01*
X86890602Y-86070827D01*
X86830264Y-86216498D01*
X86830261Y-86216510D01*
X86799500Y-86371153D01*
X69946049Y-86371153D01*
X69804792Y-86229896D01*
X69804786Y-86229890D01*
X69632820Y-86104951D01*
X69632115Y-86104591D01*
X69624054Y-86100485D01*
X69573259Y-86052512D01*
X69556463Y-85984692D01*
X69578999Y-85918556D01*
X69624054Y-85879515D01*
X69632816Y-85875051D01*
X69654789Y-85859086D01*
X69804786Y-85750109D01*
X69804788Y-85750106D01*
X69804792Y-85750104D01*
X69955104Y-85599792D01*
X69955106Y-85599788D01*
X69955109Y-85599786D01*
X70080048Y-85427820D01*
X70080047Y-85427820D01*
X70080051Y-85427816D01*
X70147137Y-85296153D01*
X92949500Y-85296153D01*
X92949500Y-85453846D01*
X92980261Y-85608489D01*
X92980264Y-85608501D01*
X93040602Y-85754172D01*
X93040609Y-85754185D01*
X93128210Y-85885288D01*
X93128213Y-85885292D01*
X93239707Y-85996786D01*
X93239711Y-85996789D01*
X93370814Y-86084390D01*
X93370827Y-86084397D01*
X93516498Y-86144735D01*
X93516503Y-86144737D01*
X93671153Y-86175499D01*
X93671156Y-86175500D01*
X93671158Y-86175500D01*
X93828844Y-86175500D01*
X93828845Y-86175499D01*
X93983497Y-86144737D01*
X94129179Y-86084394D01*
X94260289Y-85996789D01*
X94371789Y-85885289D01*
X94459394Y-85754179D01*
X94519737Y-85608497D01*
X94550500Y-85453842D01*
X94550500Y-85296158D01*
X94550500Y-85296155D01*
X94550499Y-85296153D01*
X94539014Y-85238414D01*
X94519737Y-85141503D01*
X94516529Y-85133757D01*
X94459397Y-84995827D01*
X94459390Y-84995814D01*
X94371789Y-84864711D01*
X94371786Y-84864707D01*
X94260292Y-84753213D01*
X94260288Y-84753210D01*
X94129185Y-84665609D01*
X94129172Y-84665602D01*
X93983501Y-84605264D01*
X93983489Y-84605261D01*
X93828845Y-84574500D01*
X93828842Y-84574500D01*
X93671158Y-84574500D01*
X93671155Y-84574500D01*
X93516510Y-84605261D01*
X93516498Y-84605264D01*
X93370827Y-84665602D01*
X93370814Y-84665609D01*
X93239711Y-84753210D01*
X93239707Y-84753213D01*
X93128213Y-84864707D01*
X93128210Y-84864711D01*
X93040609Y-84995814D01*
X93040602Y-84995827D01*
X92980264Y-85141498D01*
X92980261Y-85141510D01*
X92949500Y-85296153D01*
X70147137Y-85296153D01*
X70176557Y-85238412D01*
X70242246Y-85036243D01*
X70275500Y-84826287D01*
X70275500Y-84613713D01*
X70242246Y-84403757D01*
X70176557Y-84201588D01*
X70080051Y-84012184D01*
X70080049Y-84012181D01*
X70080048Y-84012179D01*
X69955109Y-83840213D01*
X69804786Y-83689890D01*
X69632820Y-83564951D01*
X69632115Y-83564591D01*
X69624054Y-83560485D01*
X69615949Y-83552829D01*
X69605523Y-83548879D01*
X69591000Y-83529267D01*
X69573259Y-83512512D01*
X69570578Y-83501688D01*
X69563943Y-83492728D01*
X69562329Y-83468378D01*
X69556825Y-83446153D01*
X75849500Y-83446153D01*
X75849500Y-83603846D01*
X75880261Y-83758489D01*
X75880264Y-83758501D01*
X75940602Y-83904172D01*
X75940609Y-83904185D01*
X76028210Y-84035288D01*
X76028213Y-84035292D01*
X76139707Y-84146786D01*
X76139711Y-84146789D01*
X76270814Y-84234390D01*
X76270827Y-84234397D01*
X76370060Y-84275500D01*
X76416503Y-84294737D01*
X76571153Y-84325499D01*
X76571156Y-84325500D01*
X76571158Y-84325500D01*
X76728844Y-84325500D01*
X76728845Y-84325499D01*
X76883497Y-84294737D01*
X77029179Y-84234394D01*
X77160289Y-84146789D01*
X77271789Y-84035289D01*
X77359394Y-83904179D01*
X77419737Y-83758497D01*
X77450500Y-83603842D01*
X77450500Y-83446158D01*
X77450500Y-83446155D01*
X77444155Y-83414258D01*
X77444155Y-83414257D01*
X77440554Y-83396153D01*
X81624500Y-83396153D01*
X81624500Y-83553846D01*
X81655261Y-83708489D01*
X81655264Y-83708501D01*
X81715602Y-83854172D01*
X81715609Y-83854185D01*
X81803210Y-83985288D01*
X81803213Y-83985292D01*
X81914707Y-84096786D01*
X81914711Y-84096789D01*
X82045814Y-84184390D01*
X82045827Y-84184397D01*
X82186131Y-84242512D01*
X82191503Y-84244737D01*
X82346153Y-84275499D01*
X82346156Y-84275500D01*
X82346158Y-84275500D01*
X82503844Y-84275500D01*
X82503845Y-84275499D01*
X82658497Y-84244737D01*
X82804179Y-84184394D01*
X82935289Y-84096789D01*
X83046789Y-83985289D01*
X83134394Y-83854179D01*
X83194737Y-83708497D01*
X83225500Y-83553842D01*
X83225500Y-83396158D01*
X83225500Y-83396155D01*
X83225499Y-83396153D01*
X83209634Y-83316395D01*
X83194737Y-83241503D01*
X83188416Y-83226243D01*
X83134397Y-83095827D01*
X83134390Y-83095814D01*
X83046789Y-82964711D01*
X83046786Y-82964707D01*
X82935292Y-82853213D01*
X82935288Y-82853210D01*
X82891984Y-82824275D01*
X82804185Y-82765609D01*
X82804172Y-82765602D01*
X82711605Y-82727260D01*
X83437689Y-82727260D01*
X83437689Y-82884953D01*
X83468450Y-83039596D01*
X83468453Y-83039608D01*
X83528791Y-83185279D01*
X83528798Y-83185292D01*
X83616399Y-83316395D01*
X83616402Y-83316399D01*
X83727896Y-83427893D01*
X83727900Y-83427896D01*
X83859003Y-83515497D01*
X83859016Y-83515504D01*
X84004687Y-83575842D01*
X84004692Y-83575844D01*
X84145447Y-83603842D01*
X84159342Y-83606606D01*
X84159345Y-83606607D01*
X84159347Y-83606607D01*
X84317033Y-83606607D01*
X84317034Y-83606606D01*
X84471686Y-83575844D01*
X84617368Y-83515501D01*
X84617370Y-83515499D01*
X84620978Y-83514005D01*
X84690448Y-83506536D01*
X84715877Y-83514002D01*
X84804296Y-83550627D01*
X84931060Y-83575842D01*
X84958946Y-83581389D01*
X84958949Y-83581390D01*
X84958951Y-83581390D01*
X85116637Y-83581390D01*
X85116638Y-83581389D01*
X85271290Y-83550627D01*
X85353401Y-83516614D01*
X85422869Y-83509145D01*
X85452170Y-83519336D01*
X85452393Y-83518799D01*
X85603699Y-83581471D01*
X85603704Y-83581473D01*
X85739522Y-83608489D01*
X85758354Y-83612235D01*
X85758357Y-83612236D01*
X85758359Y-83612236D01*
X85916045Y-83612236D01*
X85916046Y-83612235D01*
X86070698Y-83581473D01*
X86155847Y-83546202D01*
X86225312Y-83538734D01*
X86251481Y-83547841D01*
X86251904Y-83546821D01*
X86400815Y-83608501D01*
X86403215Y-83609495D01*
X86557865Y-83640257D01*
X86557868Y-83640258D01*
X86557870Y-83640258D01*
X86715556Y-83640258D01*
X86715557Y-83640257D01*
X86870209Y-83609495D01*
X86996041Y-83557373D01*
X87065510Y-83549905D01*
X87090946Y-83557374D01*
X87095818Y-83559392D01*
X87095821Y-83559394D01*
X87241503Y-83619737D01*
X87396153Y-83650499D01*
X87396156Y-83650500D01*
X87396158Y-83650500D01*
X87553844Y-83650500D01*
X87553845Y-83650499D01*
X87708497Y-83619737D01*
X87851543Y-83560486D01*
X87854172Y-83559397D01*
X87854172Y-83559396D01*
X87854179Y-83559394D01*
X87985289Y-83471789D01*
X88096789Y-83360289D01*
X88139643Y-83296153D01*
X92937000Y-83296153D01*
X92937000Y-83453846D01*
X92967761Y-83608489D01*
X92967764Y-83608501D01*
X93028102Y-83754172D01*
X93028109Y-83754185D01*
X93115710Y-83885288D01*
X93115713Y-83885292D01*
X93227207Y-83996786D01*
X93227211Y-83996789D01*
X93358314Y-84084390D01*
X93358327Y-84084397D01*
X93503998Y-84144735D01*
X93504003Y-84144737D01*
X93654596Y-84174692D01*
X93658653Y-84175499D01*
X93658656Y-84175500D01*
X93658658Y-84175500D01*
X93816344Y-84175500D01*
X93816345Y-84175499D01*
X93970997Y-84144737D01*
X94116679Y-84084394D01*
X94247789Y-83996789D01*
X94359289Y-83885289D01*
X94446894Y-83754179D01*
X94507237Y-83608497D01*
X94538000Y-83453842D01*
X94538000Y-83296158D01*
X94538000Y-83296155D01*
X94537999Y-83296153D01*
X94524092Y-83226239D01*
X94507237Y-83141503D01*
X94483212Y-83083501D01*
X94446897Y-82995827D01*
X94446890Y-82995814D01*
X94359289Y-82864711D01*
X94359286Y-82864707D01*
X94247792Y-82753213D01*
X94247788Y-82753210D01*
X94116685Y-82665609D01*
X94116672Y-82665602D01*
X93971001Y-82605264D01*
X93970989Y-82605261D01*
X93816345Y-82574500D01*
X93816342Y-82574500D01*
X93658658Y-82574500D01*
X93658655Y-82574500D01*
X93504010Y-82605261D01*
X93503998Y-82605264D01*
X93358327Y-82665602D01*
X93358314Y-82665609D01*
X93227211Y-82753210D01*
X93227207Y-82753213D01*
X93115713Y-82864707D01*
X93115710Y-82864711D01*
X93028109Y-82995814D01*
X93028102Y-82995827D01*
X92967764Y-83141498D01*
X92967761Y-83141510D01*
X92937000Y-83296153D01*
X88139643Y-83296153D01*
X88184394Y-83229179D01*
X88244737Y-83083497D01*
X88275500Y-82928842D01*
X88275500Y-82771158D01*
X88275500Y-82771155D01*
X88275499Y-82771153D01*
X88262393Y-82705264D01*
X88244737Y-82616503D01*
X88240081Y-82605263D01*
X88184397Y-82470827D01*
X88184390Y-82470814D01*
X88096789Y-82339711D01*
X88096786Y-82339707D01*
X87985292Y-82228213D01*
X87985288Y-82228210D01*
X87937312Y-82196153D01*
X95999500Y-82196153D01*
X95999500Y-82353846D01*
X96030261Y-82508489D01*
X96030264Y-82508501D01*
X96090602Y-82654172D01*
X96090609Y-82654185D01*
X96178210Y-82785288D01*
X96178213Y-82785292D01*
X96289707Y-82896786D01*
X96289711Y-82896789D01*
X96420814Y-82984390D01*
X96420827Y-82984397D01*
X96554120Y-83039608D01*
X96566503Y-83044737D01*
X96721153Y-83075499D01*
X96721156Y-83075500D01*
X96721158Y-83075500D01*
X96878844Y-83075500D01*
X96878845Y-83075499D01*
X97033497Y-83044737D01*
X97151592Y-82995821D01*
X97179172Y-82984397D01*
X97179172Y-82984396D01*
X97179179Y-82984394D01*
X97310289Y-82896789D01*
X97421789Y-82785289D01*
X97509394Y-82654179D01*
X97569737Y-82508497D01*
X97600500Y-82353842D01*
X97600500Y-82196158D01*
X97600500Y-82196155D01*
X97600499Y-82196153D01*
X97593743Y-82162188D01*
X97569737Y-82041503D01*
X97565061Y-82030213D01*
X97509397Y-81895827D01*
X97509390Y-81895814D01*
X97421789Y-81764711D01*
X97421786Y-81764707D01*
X97310292Y-81653213D01*
X97310288Y-81653210D01*
X97179185Y-81565609D01*
X97179172Y-81565602D01*
X97033501Y-81505264D01*
X97033489Y-81505261D01*
X96878845Y-81474500D01*
X96878842Y-81474500D01*
X96721158Y-81474500D01*
X96721155Y-81474500D01*
X96566510Y-81505261D01*
X96566498Y-81505264D01*
X96420827Y-81565602D01*
X96420814Y-81565609D01*
X96289711Y-81653210D01*
X96289707Y-81653213D01*
X96178213Y-81764707D01*
X96178210Y-81764711D01*
X96090609Y-81895814D01*
X96090602Y-81895827D01*
X96030264Y-82041498D01*
X96030261Y-82041510D01*
X95999500Y-82196153D01*
X87937312Y-82196153D01*
X87854185Y-82140609D01*
X87854172Y-82140602D01*
X87708501Y-82080264D01*
X87708489Y-82080261D01*
X87553845Y-82049500D01*
X87553842Y-82049500D01*
X87396158Y-82049500D01*
X87396155Y-82049500D01*
X87241510Y-82080261D01*
X87241498Y-82080264D01*
X87115671Y-82132383D01*
X87046202Y-82139852D01*
X87020767Y-82132383D01*
X86870213Y-82070022D01*
X86870201Y-82070019D01*
X86715557Y-82039258D01*
X86715554Y-82039258D01*
X86557870Y-82039258D01*
X86557867Y-82039258D01*
X86403223Y-82070018D01*
X86403218Y-82070020D01*
X86403216Y-82070020D01*
X86403215Y-82070021D01*
X86388754Y-82076011D01*
X86318066Y-82105290D01*
X86248597Y-82112757D01*
X86222426Y-82103664D01*
X86222009Y-82104673D01*
X86070702Y-82042000D01*
X86070690Y-82041997D01*
X85916046Y-82011236D01*
X85916043Y-82011236D01*
X85758359Y-82011236D01*
X85758356Y-82011236D01*
X85603712Y-82041996D01*
X85603702Y-82041999D01*
X85521590Y-82076011D01*
X85452120Y-82083480D01*
X85422822Y-82073290D01*
X85422600Y-82073827D01*
X85271294Y-82011154D01*
X85271282Y-82011151D01*
X85116638Y-81980390D01*
X85116635Y-81980390D01*
X84958951Y-81980390D01*
X84958948Y-81980390D01*
X84804303Y-82011151D01*
X84804291Y-82011154D01*
X84655003Y-82072991D01*
X84585534Y-82080460D01*
X84560099Y-82072991D01*
X84471690Y-82036371D01*
X84471678Y-82036368D01*
X84317034Y-82005607D01*
X84317031Y-82005607D01*
X84159347Y-82005607D01*
X84159344Y-82005607D01*
X84004699Y-82036368D01*
X84004687Y-82036371D01*
X83859016Y-82096709D01*
X83859003Y-82096716D01*
X83727900Y-82184317D01*
X83727896Y-82184320D01*
X83616402Y-82295814D01*
X83616399Y-82295818D01*
X83528798Y-82426921D01*
X83528791Y-82426934D01*
X83468453Y-82572605D01*
X83468450Y-82572617D01*
X83437689Y-82727260D01*
X82711605Y-82727260D01*
X82658501Y-82705264D01*
X82658489Y-82705261D01*
X82503845Y-82674500D01*
X82503842Y-82674500D01*
X82346158Y-82674500D01*
X82346155Y-82674500D01*
X82191510Y-82705261D01*
X82191498Y-82705264D01*
X82045827Y-82765602D01*
X82045814Y-82765609D01*
X81914711Y-82853210D01*
X81914707Y-82853213D01*
X81803213Y-82964707D01*
X81803210Y-82964711D01*
X81715609Y-83095814D01*
X81715602Y-83095827D01*
X81655264Y-83241498D01*
X81655261Y-83241510D01*
X81624500Y-83396153D01*
X77440554Y-83396153D01*
X77424689Y-83316399D01*
X77419737Y-83291503D01*
X77419735Y-83291498D01*
X77359397Y-83145827D01*
X77359390Y-83145814D01*
X77271789Y-83014711D01*
X77271786Y-83014707D01*
X77160292Y-82903213D01*
X77160288Y-82903210D01*
X77029185Y-82815609D01*
X77029172Y-82815602D01*
X76883501Y-82755264D01*
X76883489Y-82755261D01*
X76728845Y-82724500D01*
X76728842Y-82724500D01*
X76571158Y-82724500D01*
X76571155Y-82724500D01*
X76416510Y-82755261D01*
X76416498Y-82755264D01*
X76270827Y-82815602D01*
X76270814Y-82815609D01*
X76139711Y-82903210D01*
X76139707Y-82903213D01*
X76028213Y-83014707D01*
X76028210Y-83014711D01*
X75940609Y-83145814D01*
X75940602Y-83145827D01*
X75880264Y-83291498D01*
X75880261Y-83291510D01*
X75849500Y-83446153D01*
X69556825Y-83446153D01*
X69556463Y-83444692D01*
X69560059Y-83434137D01*
X69559322Y-83423012D01*
X69571127Y-83401656D01*
X69578999Y-83378556D01*
X69588612Y-83370027D01*
X69593125Y-83361864D01*
X69618397Y-83343602D01*
X69621489Y-83340860D01*
X69622747Y-83340180D01*
X69632816Y-83335051D01*
X69778532Y-83229183D01*
X69804786Y-83210109D01*
X69804788Y-83210106D01*
X69804792Y-83210104D01*
X69955104Y-83059792D01*
X69955106Y-83059788D01*
X69955109Y-83059786D01*
X70064086Y-82909789D01*
X70080051Y-82887816D01*
X70176557Y-82698412D01*
X70242246Y-82496243D01*
X70275500Y-82286287D01*
X70275500Y-82073713D01*
X70242246Y-81863757D01*
X70176557Y-81661588D01*
X70080051Y-81472184D01*
X70080049Y-81472181D01*
X70080048Y-81472179D01*
X69955109Y-81300213D01*
X69804786Y-81149890D01*
X69632820Y-81024951D01*
X69632115Y-81024591D01*
X69624054Y-81020485D01*
X69573259Y-80972512D01*
X69556463Y-80904692D01*
X69578999Y-80838556D01*
X69624054Y-80799515D01*
X69632816Y-80795051D01*
X69737956Y-80718663D01*
X69804786Y-80670109D01*
X69804788Y-80670106D01*
X69804792Y-80670104D01*
X69955104Y-80519792D01*
X69955106Y-80519788D01*
X69955109Y-80519786D01*
X70080048Y-80347820D01*
X70080047Y-80347820D01*
X70080051Y-80347816D01*
X70176557Y-80158412D01*
X70242246Y-79956243D01*
X70255893Y-79870078D01*
X82663557Y-79870078D01*
X82663557Y-80027771D01*
X82694318Y-80182414D01*
X82694321Y-80182426D01*
X82754659Y-80328097D01*
X82754666Y-80328110D01*
X82842267Y-80459213D01*
X82842270Y-80459217D01*
X82953764Y-80570711D01*
X82953768Y-80570714D01*
X83084871Y-80658315D01*
X83084884Y-80658322D01*
X83230555Y-80718660D01*
X83230560Y-80718662D01*
X83385210Y-80749424D01*
X83385213Y-80749425D01*
X83385215Y-80749425D01*
X83542901Y-80749425D01*
X83542902Y-80749424D01*
X83697554Y-80718662D01*
X83843236Y-80658319D01*
X83974346Y-80570714D01*
X84085846Y-80459214D01*
X84173451Y-80328104D01*
X84233794Y-80182422D01*
X84264557Y-80027767D01*
X84264557Y-79870083D01*
X84264557Y-79870080D01*
X84264556Y-79870078D01*
X84233795Y-79715435D01*
X84233794Y-79715428D01*
X84208286Y-79653846D01*
X84173454Y-79569752D01*
X84173445Y-79569736D01*
X84166242Y-79558955D01*
X84124278Y-79496153D01*
X84899500Y-79496153D01*
X84899500Y-79653846D01*
X84930261Y-79808489D01*
X84930264Y-79808501D01*
X84990602Y-79954172D01*
X84990609Y-79954185D01*
X85078210Y-80085288D01*
X85078213Y-80085292D01*
X85189707Y-80196786D01*
X85189711Y-80196789D01*
X85320814Y-80284390D01*
X85320827Y-80284397D01*
X85466498Y-80344735D01*
X85466503Y-80344737D01*
X85621153Y-80375499D01*
X85621156Y-80375500D01*
X85621158Y-80375500D01*
X85778844Y-80375500D01*
X85778845Y-80375499D01*
X85933497Y-80344737D01*
X86079179Y-80284394D01*
X86210289Y-80196789D01*
X86321789Y-80085289D01*
X86409394Y-79954179D01*
X86469737Y-79808497D01*
X86500500Y-79653842D01*
X86500500Y-79496158D01*
X86500500Y-79496155D01*
X86500499Y-79496153D01*
X86478269Y-79384397D01*
X86469737Y-79341503D01*
X86462388Y-79323760D01*
X86409397Y-79195827D01*
X86409390Y-79195814D01*
X86321789Y-79064711D01*
X86321786Y-79064707D01*
X86210292Y-78953213D01*
X86210288Y-78953210D01*
X86079185Y-78865609D01*
X86079172Y-78865602D01*
X85933501Y-78805264D01*
X85933489Y-78805261D01*
X85778845Y-78774500D01*
X85778842Y-78774500D01*
X85621158Y-78774500D01*
X85621155Y-78774500D01*
X85466510Y-78805261D01*
X85466498Y-78805264D01*
X85320827Y-78865602D01*
X85320814Y-78865609D01*
X85189711Y-78953210D01*
X85189707Y-78953213D01*
X85078213Y-79064707D01*
X85078210Y-79064711D01*
X84990609Y-79195814D01*
X84990602Y-79195827D01*
X84930264Y-79341498D01*
X84930261Y-79341510D01*
X84899500Y-79496153D01*
X84124278Y-79496153D01*
X84085846Y-79438636D01*
X84085843Y-79438632D01*
X83974349Y-79327138D01*
X83974345Y-79327135D01*
X83843242Y-79239534D01*
X83843229Y-79239527D01*
X83697558Y-79179189D01*
X83697546Y-79179186D01*
X83542902Y-79148425D01*
X83542899Y-79148425D01*
X83385215Y-79148425D01*
X83385212Y-79148425D01*
X83230567Y-79179186D01*
X83230555Y-79179189D01*
X83084884Y-79239527D01*
X83084871Y-79239534D01*
X82953768Y-79327135D01*
X82953764Y-79327138D01*
X82842270Y-79438632D01*
X82842267Y-79438636D01*
X82754666Y-79569739D01*
X82754659Y-79569752D01*
X82694321Y-79715423D01*
X82694318Y-79715435D01*
X82663557Y-79870078D01*
X70255893Y-79870078D01*
X70258822Y-79851588D01*
X70259930Y-79844593D01*
X70275500Y-79746286D01*
X70275500Y-79533713D01*
X70262114Y-79449198D01*
X70242246Y-79323757D01*
X70176557Y-79121588D01*
X70080051Y-78932184D01*
X70080049Y-78932181D01*
X70080048Y-78932179D01*
X69955109Y-78760213D01*
X69804786Y-78609890D01*
X69785878Y-78596153D01*
X72999500Y-78596153D01*
X72999500Y-78753846D01*
X73030261Y-78908489D01*
X73030264Y-78908501D01*
X73090602Y-79054172D01*
X73090609Y-79054185D01*
X73178210Y-79185288D01*
X73178213Y-79185292D01*
X73289707Y-79296786D01*
X73289711Y-79296789D01*
X73420814Y-79384390D01*
X73420827Y-79384397D01*
X73566498Y-79444735D01*
X73566503Y-79444737D01*
X73721153Y-79475499D01*
X73721156Y-79475500D01*
X73721158Y-79475500D01*
X73878844Y-79475500D01*
X73878845Y-79475499D01*
X74033497Y-79444737D01*
X74179179Y-79384394D01*
X74310289Y-79296789D01*
X74421789Y-79185289D01*
X74509394Y-79054179D01*
X74569737Y-78908497D01*
X74600500Y-78753842D01*
X74600500Y-78646153D01*
X94749500Y-78646153D01*
X94749500Y-78803846D01*
X94780261Y-78958489D01*
X94780264Y-78958501D01*
X94840602Y-79104172D01*
X94840609Y-79104185D01*
X94928210Y-79235288D01*
X94928213Y-79235292D01*
X95039707Y-79346786D01*
X95039711Y-79346789D01*
X95170814Y-79434390D01*
X95170827Y-79434397D01*
X95270060Y-79475500D01*
X95316503Y-79494737D01*
X95471153Y-79525499D01*
X95471156Y-79525500D01*
X95471158Y-79525500D01*
X95628844Y-79525500D01*
X95628845Y-79525499D01*
X95783497Y-79494737D01*
X95918938Y-79438636D01*
X95929172Y-79434397D01*
X95929172Y-79434396D01*
X95929179Y-79434394D01*
X96060289Y-79346789D01*
X96171789Y-79235289D01*
X96259394Y-79104179D01*
X96319737Y-78958497D01*
X96350500Y-78803842D01*
X96350500Y-78646158D01*
X96350500Y-78646155D01*
X96350499Y-78646153D01*
X96340553Y-78596153D01*
X96319737Y-78491503D01*
X96317022Y-78484949D01*
X96259397Y-78345827D01*
X96259390Y-78345814D01*
X96171789Y-78214711D01*
X96171786Y-78214707D01*
X96060292Y-78103213D01*
X96060288Y-78103210D01*
X95929185Y-78015609D01*
X95929172Y-78015602D01*
X95783501Y-77955264D01*
X95783489Y-77955261D01*
X95628845Y-77924500D01*
X95628842Y-77924500D01*
X95471158Y-77924500D01*
X95471155Y-77924500D01*
X95316510Y-77955261D01*
X95316498Y-77955264D01*
X95170827Y-78015602D01*
X95170814Y-78015609D01*
X95039711Y-78103210D01*
X95039707Y-78103213D01*
X94928213Y-78214707D01*
X94928210Y-78214711D01*
X94840609Y-78345814D01*
X94840602Y-78345827D01*
X94780264Y-78491498D01*
X94780261Y-78491510D01*
X94749500Y-78646153D01*
X74600500Y-78646153D01*
X74600500Y-78596158D01*
X74600500Y-78596155D01*
X74600499Y-78596153D01*
X74579684Y-78491510D01*
X74569737Y-78441503D01*
X74569735Y-78441498D01*
X74509397Y-78295827D01*
X74509390Y-78295814D01*
X74421789Y-78164711D01*
X74421786Y-78164707D01*
X74310292Y-78053213D01*
X74310288Y-78053210D01*
X74179185Y-77965609D01*
X74179172Y-77965602D01*
X74033501Y-77905264D01*
X74033489Y-77905261D01*
X73878845Y-77874500D01*
X73878842Y-77874500D01*
X73721158Y-77874500D01*
X73721155Y-77874500D01*
X73566510Y-77905261D01*
X73566498Y-77905264D01*
X73420827Y-77965602D01*
X73420814Y-77965609D01*
X73289711Y-78053210D01*
X73289707Y-78053213D01*
X73178213Y-78164707D01*
X73178210Y-78164711D01*
X73090609Y-78295814D01*
X73090602Y-78295827D01*
X73030264Y-78441498D01*
X73030261Y-78441510D01*
X72999500Y-78596153D01*
X69785878Y-78596153D01*
X69632820Y-78484951D01*
X69443414Y-78388444D01*
X69443413Y-78388443D01*
X69443412Y-78388443D01*
X69241243Y-78322754D01*
X69241241Y-78322753D01*
X69241240Y-78322753D01*
X69036628Y-78290346D01*
X69031287Y-78289500D01*
X68818713Y-78289500D01*
X68766692Y-78297739D01*
X68756825Y-78299302D01*
X68687532Y-78290346D01*
X68634327Y-78245719D01*
X68546789Y-78114711D01*
X68546786Y-78114707D01*
X68435292Y-78003213D01*
X68435288Y-78003210D01*
X68304185Y-77915609D01*
X68304172Y-77915602D01*
X68158501Y-77855264D01*
X68158489Y-77855261D01*
X68003845Y-77824500D01*
X68003842Y-77824500D01*
X67846158Y-77824500D01*
X67846155Y-77824500D01*
X67691510Y-77855261D01*
X67691498Y-77855264D01*
X67545827Y-77915602D01*
X67545814Y-77915609D01*
X67414711Y-78003210D01*
X67414707Y-78003213D01*
X67303213Y-78114707D01*
X67303210Y-78114711D01*
X67215609Y-78245814D01*
X67215602Y-78245827D01*
X67155264Y-78391498D01*
X67155261Y-78391510D01*
X67124500Y-78546153D01*
X66640500Y-78546153D01*
X66640500Y-76496153D01*
X84049500Y-76496153D01*
X84049500Y-76653846D01*
X84080261Y-76808489D01*
X84080264Y-76808501D01*
X84140602Y-76954172D01*
X84140609Y-76954185D01*
X84228210Y-77085288D01*
X84228213Y-77085292D01*
X84339707Y-77196786D01*
X84339711Y-77196789D01*
X84470814Y-77284390D01*
X84470827Y-77284397D01*
X84616498Y-77344735D01*
X84616503Y-77344737D01*
X84771153Y-77375499D01*
X84771156Y-77375500D01*
X84771158Y-77375500D01*
X84928844Y-77375500D01*
X84928845Y-77375499D01*
X85083497Y-77344737D01*
X85229179Y-77284394D01*
X85360289Y-77196789D01*
X85471789Y-77085289D01*
X85559394Y-76954179D01*
X85619737Y-76808497D01*
X85650500Y-76653842D01*
X85650500Y-76571153D01*
X89749500Y-76571153D01*
X89749500Y-76728846D01*
X89780261Y-76883489D01*
X89780264Y-76883501D01*
X89840602Y-77029172D01*
X89840609Y-77029185D01*
X89928210Y-77160288D01*
X89928213Y-77160292D01*
X90039707Y-77271786D01*
X90039711Y-77271789D01*
X90170814Y-77359390D01*
X90170827Y-77359397D01*
X90316498Y-77419735D01*
X90316503Y-77419737D01*
X90471153Y-77450499D01*
X90471156Y-77450500D01*
X90471158Y-77450500D01*
X90628844Y-77450500D01*
X90628845Y-77450499D01*
X90783497Y-77419737D01*
X90929179Y-77359394D01*
X91060289Y-77271789D01*
X91171789Y-77160289D01*
X91259394Y-77029179D01*
X91319737Y-76883497D01*
X91350500Y-76728842D01*
X91350500Y-76571158D01*
X91350500Y-76571155D01*
X91350499Y-76571153D01*
X91349337Y-76565312D01*
X91319737Y-76416503D01*
X91288674Y-76341510D01*
X91259397Y-76270827D01*
X91259390Y-76270814D01*
X91171789Y-76139711D01*
X91171786Y-76139707D01*
X91060292Y-76028213D01*
X91060288Y-76028210D01*
X90929185Y-75940609D01*
X90929172Y-75940602D01*
X90783501Y-75880264D01*
X90783489Y-75880261D01*
X90628845Y-75849500D01*
X90628842Y-75849500D01*
X90471158Y-75849500D01*
X90471155Y-75849500D01*
X90316510Y-75880261D01*
X90316498Y-75880264D01*
X90170827Y-75940602D01*
X90170814Y-75940609D01*
X90039711Y-76028210D01*
X90039707Y-76028213D01*
X89928213Y-76139707D01*
X89928210Y-76139711D01*
X89840609Y-76270814D01*
X89840602Y-76270827D01*
X89780264Y-76416498D01*
X89780261Y-76416510D01*
X89749500Y-76571153D01*
X85650500Y-76571153D01*
X85650500Y-76496158D01*
X85650500Y-76496155D01*
X85650499Y-76496153D01*
X85640334Y-76445050D01*
X85619737Y-76341503D01*
X85619735Y-76341498D01*
X85559397Y-76195827D01*
X85559390Y-76195814D01*
X85471789Y-76064711D01*
X85471786Y-76064707D01*
X85360292Y-75953213D01*
X85360288Y-75953210D01*
X85229185Y-75865609D01*
X85229172Y-75865602D01*
X85083501Y-75805264D01*
X85083489Y-75805261D01*
X84928845Y-75774500D01*
X84928842Y-75774500D01*
X84771158Y-75774500D01*
X84771155Y-75774500D01*
X84616510Y-75805261D01*
X84616498Y-75805264D01*
X84470827Y-75865602D01*
X84470814Y-75865609D01*
X84339711Y-75953210D01*
X84339707Y-75953213D01*
X84228213Y-76064707D01*
X84228210Y-76064711D01*
X84140609Y-76195814D01*
X84140602Y-76195827D01*
X84080264Y-76341498D01*
X84080261Y-76341510D01*
X84049500Y-76496153D01*
X66640500Y-76496153D01*
X66640500Y-72171153D01*
X77074500Y-72171153D01*
X77074500Y-72328846D01*
X77105261Y-72483489D01*
X77105264Y-72483501D01*
X77165602Y-72629172D01*
X77165609Y-72629185D01*
X77253210Y-72760288D01*
X77253213Y-72760292D01*
X77364707Y-72871786D01*
X77364711Y-72871789D01*
X77495814Y-72959390D01*
X77495827Y-72959397D01*
X77641498Y-73019735D01*
X77641503Y-73019737D01*
X77796153Y-73050499D01*
X77796156Y-73050500D01*
X77796158Y-73050500D01*
X77953844Y-73050500D01*
X77953845Y-73050499D01*
X78108497Y-73019737D01*
X78254179Y-72959394D01*
X78385289Y-72871789D01*
X78437818Y-72819260D01*
X78499141Y-72785774D01*
X78568833Y-72790758D01*
X78624766Y-72832629D01*
X78649184Y-72898093D01*
X78649500Y-72906940D01*
X78649500Y-73297870D01*
X78649501Y-73297876D01*
X78655908Y-73357483D01*
X78706202Y-73492328D01*
X78706206Y-73492335D01*
X78792452Y-73607544D01*
X78792455Y-73607547D01*
X78907664Y-73693793D01*
X78907671Y-73693797D01*
X79042517Y-73744091D01*
X79042516Y-73744091D01*
X79049444Y-73744835D01*
X79102127Y-73750500D01*
X80897872Y-73750499D01*
X80957483Y-73744091D01*
X81092331Y-73693796D01*
X81207546Y-73607546D01*
X81293796Y-73492331D01*
X81344091Y-73357483D01*
X81350500Y-73297873D01*
X81350499Y-73273979D01*
X81353330Y-73260963D01*
X81363940Y-73241525D01*
X81370179Y-73220275D01*
X81386803Y-73199643D01*
X81386808Y-73199636D01*
X81386811Y-73199634D01*
X81386818Y-73199626D01*
X82057037Y-72529408D01*
X82074075Y-72592993D01*
X82139901Y-72707007D01*
X82232993Y-72800099D01*
X82347007Y-72865925D01*
X82410590Y-72882962D01*
X81778282Y-73515269D01*
X81778282Y-73515270D01*
X81832449Y-73554624D01*
X82021782Y-73651095D01*
X82223870Y-73716757D01*
X82433754Y-73750000D01*
X82646246Y-73750000D01*
X82856127Y-73716757D01*
X82856130Y-73716757D01*
X83058217Y-73651095D01*
X83247554Y-73554622D01*
X83301716Y-73515270D01*
X83301717Y-73515270D01*
X82669408Y-72882962D01*
X82732993Y-72865925D01*
X82847007Y-72800099D01*
X82940099Y-72707007D01*
X83005925Y-72592993D01*
X83022962Y-72529408D01*
X83655270Y-73161717D01*
X83655270Y-73161716D01*
X83694622Y-73107554D01*
X83791095Y-72918217D01*
X83856757Y-72716130D01*
X83856757Y-72716127D01*
X83859921Y-72696153D01*
X87049500Y-72696153D01*
X87049500Y-72853846D01*
X87080261Y-73008489D01*
X87080264Y-73008501D01*
X87140602Y-73154172D01*
X87140609Y-73154185D01*
X87228210Y-73285288D01*
X87228213Y-73285292D01*
X87339707Y-73396786D01*
X87339711Y-73396789D01*
X87470814Y-73484390D01*
X87470827Y-73484397D01*
X87616498Y-73544735D01*
X87616503Y-73544737D01*
X87771153Y-73575499D01*
X87771156Y-73575500D01*
X87771158Y-73575500D01*
X87928844Y-73575500D01*
X87928845Y-73575499D01*
X88083497Y-73544737D01*
X88210017Y-73492331D01*
X88229172Y-73484397D01*
X88229172Y-73484396D01*
X88229179Y-73484394D01*
X88360289Y-73396789D01*
X88471789Y-73285289D01*
X88559394Y-73154179D01*
X88619737Y-73008497D01*
X88650500Y-72853842D01*
X88650500Y-72696158D01*
X88650500Y-72696155D01*
X88650499Y-72696153D01*
X88637177Y-72629179D01*
X88619737Y-72541503D01*
X88619735Y-72541498D01*
X88559397Y-72395827D01*
X88559390Y-72395814D01*
X88471789Y-72264711D01*
X88471786Y-72264707D01*
X88360292Y-72153213D01*
X88360288Y-72153210D01*
X88229185Y-72065609D01*
X88229172Y-72065602D01*
X88083501Y-72005264D01*
X88083489Y-72005261D01*
X87928845Y-71974500D01*
X87928842Y-71974500D01*
X87771158Y-71974500D01*
X87771155Y-71974500D01*
X87616510Y-72005261D01*
X87616498Y-72005264D01*
X87470827Y-72065602D01*
X87470814Y-72065609D01*
X87339711Y-72153210D01*
X87339707Y-72153213D01*
X87228213Y-72264707D01*
X87228210Y-72264711D01*
X87140609Y-72395814D01*
X87140602Y-72395827D01*
X87080264Y-72541498D01*
X87080261Y-72541510D01*
X87049500Y-72696153D01*
X83859921Y-72696153D01*
X83863958Y-72670668D01*
X83890000Y-72506246D01*
X83890000Y-72293753D01*
X83856757Y-72083872D01*
X83856757Y-72083869D01*
X83791095Y-71881782D01*
X83694624Y-71692449D01*
X83655270Y-71638282D01*
X83655269Y-71638282D01*
X83022962Y-72270590D01*
X83005925Y-72207007D01*
X82940099Y-72092993D01*
X82847007Y-71999901D01*
X82732993Y-71934075D01*
X82669409Y-71917037D01*
X83301716Y-71284728D01*
X83247550Y-71245375D01*
X83058217Y-71148904D01*
X82856129Y-71083242D01*
X82646246Y-71050000D01*
X82433754Y-71050000D01*
X82223872Y-71083242D01*
X82223869Y-71083242D01*
X82021782Y-71148904D01*
X81832439Y-71245380D01*
X81778282Y-71284727D01*
X81778282Y-71284728D01*
X82410591Y-71917037D01*
X82347007Y-71934075D01*
X82232993Y-71999901D01*
X82139901Y-72092993D01*
X82074075Y-72207007D01*
X82057037Y-72270591D01*
X81386818Y-71600372D01*
X81353333Y-71539049D01*
X81353330Y-71539036D01*
X81350499Y-71526015D01*
X81350499Y-71502128D01*
X81344091Y-71442517D01*
X81315926Y-71367002D01*
X81293798Y-71307673D01*
X81293793Y-71307664D01*
X81207547Y-71192455D01*
X81207544Y-71192452D01*
X81092335Y-71106206D01*
X81092328Y-71106202D01*
X80957482Y-71055908D01*
X80957483Y-71055908D01*
X80897883Y-71049501D01*
X80897881Y-71049500D01*
X80897873Y-71049500D01*
X80897864Y-71049500D01*
X79102129Y-71049500D01*
X79102123Y-71049501D01*
X79042516Y-71055908D01*
X78907671Y-71106202D01*
X78907664Y-71106206D01*
X78792455Y-71192452D01*
X78792452Y-71192455D01*
X78706206Y-71307664D01*
X78706202Y-71307671D01*
X78655908Y-71442517D01*
X78649501Y-71502116D01*
X78649500Y-71502135D01*
X78649500Y-71593059D01*
X78629815Y-71660098D01*
X78577011Y-71705853D01*
X78507853Y-71715797D01*
X78444297Y-71686772D01*
X78437819Y-71680740D01*
X78385292Y-71628213D01*
X78385288Y-71628210D01*
X78254185Y-71540609D01*
X78254172Y-71540602D01*
X78108501Y-71480264D01*
X78108489Y-71480261D01*
X77953845Y-71449500D01*
X77953842Y-71449500D01*
X77796158Y-71449500D01*
X77796155Y-71449500D01*
X77641510Y-71480261D01*
X77641498Y-71480264D01*
X77495827Y-71540602D01*
X77495814Y-71540609D01*
X77364711Y-71628210D01*
X77364707Y-71628213D01*
X77253213Y-71739707D01*
X77253210Y-71739711D01*
X77165609Y-71870814D01*
X77165602Y-71870827D01*
X77105264Y-72016498D01*
X77105261Y-72016510D01*
X77074500Y-72171153D01*
X66640500Y-72171153D01*
X66640500Y-70764500D01*
X66660185Y-70697461D01*
X66712989Y-70651706D01*
X66764500Y-70640500D01*
X104888562Y-70640500D01*
X104955601Y-70660185D01*
G37*
%TD.AperFunction*%
%TD*%
M02*
