%TF.GenerationSoftware,KiCad,Pcbnew,9.0.4*%
%TF.CreationDate,2025-09-10T15:59:19+03:00*%
%TF.ProjectId,Asius1,41736975-7331-42e6-9b69-6361645f7063,rev?*%
%TF.SameCoordinates,Original*%
%TF.FileFunction,Copper,L4,Bot*%
%TF.FilePolarity,Positive*%
%FSLAX46Y46*%
G04 Gerber Fmt 4.6, Leading zero omitted, Abs format (unit mm)*
G04 Created by KiCad (PCBNEW 9.0.4) date 2025-09-10 15:59:19*
%MOMM*%
%LPD*%
G01*
G04 APERTURE LIST*
%TA.AperFunction,ComponentPad*%
%ADD10O,1.000000X1.600000*%
%TD*%
%TA.AperFunction,ComponentPad*%
%ADD11C,0.600000*%
%TD*%
%TA.AperFunction,ComponentPad*%
%ADD12R,1.700000X1.700000*%
%TD*%
%TA.AperFunction,ComponentPad*%
%ADD13C,1.700000*%
%TD*%
%TA.AperFunction,ViaPad*%
%ADD14C,0.600000*%
%TD*%
%TA.AperFunction,Conductor*%
%ADD15C,0.200000*%
%TD*%
G04 APERTURE END LIST*
D10*
%TO.P,USBC1,0,0*%
%TO.N,GND*%
X82560000Y-127810000D03*
X82920000Y-123400000D03*
X91180000Y-123400000D03*
X91540000Y-127810000D03*
D11*
%TO.P,USBC1,B1,GND*%
X89850000Y-122810000D03*
%TO.P,USBC1,B2,SSTXp2*%
%TO.N,/CAN3_H*%
X89450000Y-123510000D03*
%TO.P,USBC1,B3,SSTXn2*%
%TO.N,/CAN3_L*%
X88650000Y-123510000D03*
%TO.P,USBC1,B4,VBUS*%
%TO.N,+5V*%
X88250000Y-122810000D03*
%TO.P,USBC1,B5,CC2*%
%TO.N,Net-(USBC1-CC2)*%
X87850000Y-123510000D03*
%TO.P,USBC1,B6,DP2*%
%TO.N,/D+*%
X87450000Y-122810000D03*
%TO.P,USBC1,B7,DN2*%
%TO.N,/D-*%
X86650000Y-122810000D03*
%TO.P,USBC1,B8,SUB2*%
%TO.N,/SBU2*%
X86250000Y-123510000D03*
%TO.P,USBC1,B9,VBUS*%
%TO.N,+5V*%
X85850000Y-122810000D03*
%TO.P,USBC1,B10,SSRXn1*%
%TO.N,/CAN4_L*%
X85450000Y-123510000D03*
%TO.P,USBC1,B11,SSRXp1*%
%TO.N,/CAN4_H*%
X84650000Y-123510000D03*
%TO.P,USBC1,B12,GND*%
%TO.N,GND*%
X84250000Y-122810000D03*
%TD*%
D12*
%TO.P,J2,1,Pin_1*%
%TO.N,/PC2*%
X104000000Y-95610000D03*
D13*
%TO.P,J2,2,Pin_2*%
%TO.N,/PC4*%
X104000000Y-93070000D03*
%TO.P,J2,3,Pin_3*%
%TO.N,/PC8*%
X104000000Y-90530000D03*
%TO.P,J2,4,Pin_4*%
%TO.N,/PC10*%
X104000000Y-87990000D03*
%TO.P,J2,5,Pin_5*%
%TO.N,/PC11*%
X104000000Y-85450000D03*
%TO.P,J2,6,Pin_6*%
%TO.N,/PC12*%
X104000000Y-82910000D03*
%TO.P,J2,7,Pin_7*%
%TO.N,/PA1*%
X104000000Y-80370000D03*
%TO.P,J2,8,Pin_8*%
%TO.N,/PA13*%
X104000000Y-77830000D03*
%TO.P,J2,9,Pin_9*%
%TO.N,/PA14*%
X104000000Y-75290000D03*
%TO.P,J2,10,Pin_10*%
%TO.N,GND*%
X104000000Y-72750000D03*
%TD*%
D12*
%TO.P,J1,1,Pin_1*%
%TO.N,/MOSI*%
X68925000Y-89800000D03*
D13*
%TO.P,J1,2,Pin_2*%
%TO.N,/MISO*%
X68925000Y-87260000D03*
%TO.P,J1,3,Pin_3*%
%TO.N,/SCK*%
X68925000Y-84720000D03*
%TO.P,J1,4,Pin_4*%
%TO.N,/NSS*%
X68925000Y-82180000D03*
%TO.P,J1,5,Pin_5*%
%TO.N,GND*%
X68925000Y-79640000D03*
%TD*%
D12*
%TO.P,J3,1,Pin_1*%
%TO.N,GND*%
X80000000Y-72400000D03*
D13*
%TO.P,J3,2,Pin_2*%
%TO.N,+3.3V*%
X82540000Y-72400000D03*
%TD*%
D14*
%TO.N,/D+*%
X86700000Y-120300000D03*
%TO.N,GND*%
X85700000Y-79575000D03*
X89400000Y-95750000D03*
X104000000Y-103225000D03*
X77875000Y-72250000D03*
X85850000Y-114487500D03*
X79550000Y-87750000D03*
X95550000Y-78725000D03*
X96675000Y-127800000D03*
X93737500Y-83375000D03*
X88871366Y-94325000D03*
X84850000Y-76575000D03*
X104950000Y-124200000D03*
X78475000Y-90025000D03*
X103325000Y-101250000D03*
X82550000Y-100975000D03*
X94050000Y-101225000D03*
X90550000Y-76650000D03*
X72900000Y-101050000D03*
X76650000Y-83525000D03*
X83200000Y-102975000D03*
X74725000Y-129450000D03*
X96800000Y-82275000D03*
X73590544Y-102957772D03*
X73800000Y-78675000D03*
X87850000Y-72775000D03*
X82425000Y-83475000D03*
X94825000Y-103225000D03*
X67925000Y-78625000D03*
X105050000Y-71675000D03*
X97125000Y-124200000D03*
X93750000Y-85375000D03*
%TO.N,+3.3V*%
X83475000Y-79149000D03*
X102500000Y-114025000D03*
X79275000Y-92175000D03*
X94225000Y-81225000D03*
X72875000Y-102600000D03*
X89400000Y-79300000D03*
X84575000Y-72400000D03*
X103350000Y-102710008D03*
X82525000Y-102525000D03*
X94050000Y-102750000D03*
X69675000Y-95450000D03*
X79275000Y-82500000D03*
X89475000Y-94850000D03*
X73775000Y-80400000D03*
X97000000Y-72225000D03*
%TO.N,Net-(D1-K)*%
X76500000Y-93925000D03*
X84026000Y-93925000D03*
%TO.N,Net-(D2-K)*%
X76525000Y-95450000D03*
X84026000Y-95450000D03*
%TO.N,Net-(D4-K)*%
X76575000Y-97225000D03*
X84026000Y-97225000D03*
%TO.N,/PC10*%
X94375000Y-89375000D03*
%TO.N,/PA13*%
X88275000Y-93725000D03*
%TO.N,/PC11*%
X94399208Y-88575364D03*
%TO.N,/PC4*%
X87600000Y-86450000D03*
%TO.N,/PC12*%
X94400697Y-87775363D03*
%TO.N,/PA14*%
X93800000Y-90575000D03*
%TO.N,/PA1*%
X83464057Y-79948925D03*
%TO.N,/PC8*%
X88400000Y-89975000D03*
%TO.N,/PC2*%
X85837201Y-82811736D03*
%TO.N,/SBU2*%
X85037793Y-82780890D03*
X82125000Y-112300000D03*
X83325000Y-111050000D03*
%TO.N,/SBU1*%
X87850000Y-104961765D03*
X87475000Y-82850000D03*
%TO.N,/CAN3_R*%
X87075000Y-93800000D03*
X100295000Y-101955000D03*
%TO.N,/CAN1_R*%
X100850000Y-100350000D03*
X89250000Y-100425000D03*
%TO.N,/CAN3_T*%
X101625000Y-97850000D03*
X98400000Y-94625000D03*
%TO.N,/CAN1_E*%
X86636712Y-82839758D03*
X83924000Y-109475000D03*
%TO.N,/CAN1_T*%
X100225000Y-99825000D03*
X87626000Y-101163235D03*
%TO.N,/CAN3_E*%
X94985000Y-111975000D03*
X84238189Y-82806107D03*
%TO.N,+5V*%
X88350000Y-118950000D03*
X85501000Y-119000000D03*
X97125000Y-122625000D03*
%TD*%
D15*
%TO.N,/SBU2*%
X82125000Y-112300000D02*
X82125000Y-112325000D01*
X82125000Y-112325000D02*
X81350000Y-113100000D01*
X86250000Y-124550000D02*
X86250000Y-123510000D01*
X81350000Y-113100000D02*
X81350000Y-124775000D01*
X81350000Y-124775000D02*
X82025000Y-125450000D01*
X82025000Y-125450000D02*
X85350000Y-125450000D01*
X85350000Y-125450000D02*
X86250000Y-124550000D01*
%TO.N,/D+*%
X86700000Y-120300000D02*
X86700000Y-122060000D01*
X86700000Y-122060000D02*
X87450000Y-122810000D01*
%TO.N,Net-(D1-K)*%
X84026000Y-93925000D02*
X76500000Y-93925000D01*
%TO.N,Net-(D2-K)*%
X84026000Y-95450000D02*
X76525000Y-95450000D01*
%TO.N,Net-(D4-K)*%
X84026000Y-97225000D02*
X76575000Y-97225000D01*
%TO.N,/PC10*%
X104000000Y-87990000D02*
X102910000Y-87990000D01*
X101525000Y-89375000D02*
X102910000Y-87990000D01*
X94375000Y-89375000D02*
X101525000Y-89375000D01*
%TO.N,/PA13*%
X104887000Y-97025000D02*
X105899000Y-96013000D01*
X105899000Y-79729000D02*
X104000000Y-77830000D01*
X99038893Y-93714893D02*
X102349000Y-97025000D01*
X99028786Y-93725000D02*
X99038893Y-93714893D01*
X105899000Y-96013000D02*
X105899000Y-79729000D01*
X88275000Y-93725000D02*
X99028786Y-93725000D01*
X102349000Y-97025000D02*
X104887000Y-97025000D01*
%TO.N,/PC11*%
X102625000Y-85450000D02*
X104000000Y-85450000D01*
X94399208Y-88575364D02*
X101299636Y-88575364D01*
X101850000Y-86225000D02*
X102625000Y-85450000D01*
X101850000Y-88025000D02*
X101850000Y-86225000D01*
X101299636Y-88575364D02*
X101850000Y-88025000D01*
%TO.N,/PC4*%
X88475000Y-91175000D02*
X102105000Y-91175000D01*
X87600000Y-86450000D02*
X87600000Y-90300000D01*
X87600000Y-90300000D02*
X88475000Y-91175000D01*
X102105000Y-91175000D02*
X104000000Y-93070000D01*
%TO.N,/PC12*%
X104000000Y-82910000D02*
X101840000Y-82910000D01*
X101325000Y-83425000D02*
X101325000Y-87250000D01*
X94400697Y-87775363D02*
X100799637Y-87775363D01*
X100799637Y-87775363D02*
X101325000Y-87250000D01*
X101840000Y-82910000D02*
X101325000Y-83425000D01*
%TO.N,/PA14*%
X105151000Y-79851000D02*
X104475000Y-79175000D01*
X102849000Y-78724000D02*
X102849000Y-76441000D01*
X104475000Y-79175000D02*
X103300000Y-79175000D01*
X93875000Y-90575000D02*
X94050000Y-90400000D01*
X102849000Y-76441000D02*
X104000000Y-75290000D01*
X94001000Y-90399000D02*
X101974000Y-90399000D01*
X103300000Y-79175000D02*
X102849000Y-78724000D01*
X93800000Y-90575000D02*
X93875000Y-90575000D01*
X104476760Y-91681000D02*
X105151000Y-91006760D01*
X105151000Y-91006760D02*
X105151000Y-79851000D01*
X93800000Y-90575000D02*
X93825000Y-90575000D01*
X103256000Y-91681000D02*
X104476760Y-91681000D01*
X93825000Y-90575000D02*
X94001000Y-90399000D01*
X101974000Y-90399000D02*
X103256000Y-91681000D01*
%TO.N,/PA1*%
X104045000Y-80370000D02*
X104225000Y-80550000D01*
X83464057Y-79948925D02*
X83763132Y-80248000D01*
X83763132Y-80248000D02*
X103878000Y-80248000D01*
X103878000Y-80248000D02*
X104000000Y-80370000D01*
X104000000Y-80370000D02*
X104045000Y-80370000D01*
%TO.N,/PC8*%
X88400000Y-89975000D02*
X103445000Y-89975000D01*
X103445000Y-89975000D02*
X104000000Y-90530000D01*
%TO.N,/PC2*%
X86387769Y-82238758D02*
X87813758Y-82238758D01*
X87813758Y-82238758D02*
X88075000Y-82500000D01*
X85837201Y-82811736D02*
X85716566Y-82691101D01*
X86350000Y-85125000D02*
X86350000Y-91207900D01*
X85837201Y-82789326D02*
X86387769Y-82238758D01*
X86350000Y-91207900D02*
X86717100Y-91575000D01*
X88075000Y-82500000D02*
X88075000Y-83400000D01*
X85837201Y-82811736D02*
X85837201Y-82789326D01*
X99965000Y-91575000D02*
X104000000Y-95610000D01*
X86717100Y-91575000D02*
X99965000Y-91575000D01*
X88075000Y-83400000D02*
X86350000Y-85125000D01*
%TO.N,/SBU2*%
X83300000Y-108950000D02*
X85101000Y-107149000D01*
X85037793Y-82780890D02*
X84922434Y-82780890D01*
X85101000Y-82844097D02*
X85037793Y-82780890D01*
X85101000Y-107149000D02*
X85101000Y-82844097D01*
X83325000Y-111050000D02*
X83300000Y-111025000D01*
X84922434Y-82780890D02*
X84874265Y-82829059D01*
X83300000Y-111025000D02*
X83300000Y-108950000D01*
%TO.N,/SBU1*%
X85903000Y-103003000D02*
X87861765Y-104961765D01*
X87475000Y-82850000D02*
X87475000Y-83350000D01*
X87475000Y-83350000D02*
X85903000Y-84922000D01*
X87861765Y-104961765D02*
X87850000Y-104961765D01*
X85903000Y-84922000D02*
X85903000Y-103003000D01*
%TO.N,/CAN3_R*%
X87530000Y-101955000D02*
X87026000Y-101451000D01*
X87026000Y-101451000D02*
X87026000Y-93701000D01*
X100555000Y-101955000D02*
X87530000Y-101955000D01*
%TO.N,/CAN1_R*%
X90899000Y-100426000D02*
X100774000Y-100426000D01*
X90898000Y-100425000D02*
X90899000Y-100426000D01*
X89250000Y-100425000D02*
X90898000Y-100425000D01*
%TO.N,/CAN3_T*%
X101625000Y-97850000D02*
X98400000Y-94625000D01*
%TO.N,/CAN1_E*%
X85339743Y-108010257D02*
X83924000Y-109426000D01*
X85341743Y-108010257D02*
X85339743Y-108010257D01*
X86636712Y-83313288D02*
X85502000Y-84448000D01*
X83924000Y-109426000D02*
X83924000Y-109475000D01*
X85502000Y-84448000D02*
X85502000Y-107850000D01*
X85502000Y-107850000D02*
X85341743Y-108010257D01*
X86636712Y-82839758D02*
X86636712Y-83313288D01*
%TO.N,/CAN1_T*%
X87626000Y-101163235D02*
X87626000Y-101149000D01*
X100225000Y-99825000D02*
X100300000Y-99900000D01*
X88950000Y-99825000D02*
X100225000Y-99825000D01*
X87626000Y-101149000D02*
X88950000Y-99825000D01*
%TO.N,/CAN3_E*%
X82725000Y-108725000D02*
X82725000Y-110800057D01*
X84238189Y-82806107D02*
X84238189Y-83013189D01*
X82725000Y-110800057D02*
X82724000Y-110801057D01*
X83400057Y-111975000D02*
X94985000Y-111975000D01*
X84700000Y-106750000D02*
X82725000Y-108725000D01*
X84238189Y-83013189D02*
X84700000Y-83475000D01*
X84238189Y-82806107D02*
X84080943Y-82806107D01*
X82724000Y-110801057D02*
X82724000Y-111298943D01*
X84700000Y-83475000D02*
X84700000Y-106750000D01*
X82724000Y-111298943D02*
X83400057Y-111975000D01*
%TO.N,+5V*%
X88350000Y-118950000D02*
X93425000Y-118950000D01*
X97100000Y-122625000D02*
X97125000Y-122625000D01*
X88350000Y-118950000D02*
X85551000Y-118950000D01*
X93425000Y-118950000D02*
X97100000Y-122625000D01*
X85551000Y-118950000D02*
X85501000Y-119000000D01*
%TD*%
M02*
