%TF.GenerationSoftware,KiCad,Pcbnew,9.0.4*%
%TF.CreationDate,2025-09-10T15:59:19+03:00*%
%TF.ProjectId,Asius1,41736975-7331-42e6-9b69-6361645f7063,rev?*%
%TF.SameCoordinates,Original*%
%TF.FileFunction,Soldermask,Top*%
%TF.FilePolarity,Negative*%
%FSLAX46Y46*%
G04 Gerber Fmt 4.6, Leading zero omitted, Abs format (unit mm)*
G04 Created by KiCad (PCBNEW 9.0.4) date 2025-09-10 15:59:19*
%MOMM*%
%LPD*%
G01*
G04 APERTURE LIST*
G04 Aperture macros list*
%AMRoundRect*
0 Rectangle with rounded corners*
0 $1 Rounding radius*
0 $2 $3 $4 $5 $6 $7 $8 $9 X,Y pos of 4 corners*
0 Add a 4 corners polygon primitive as box body*
4,1,4,$2,$3,$4,$5,$6,$7,$8,$9,$2,$3,0*
0 Add four circle primitives for the rounded corners*
1,1,$1+$1,$2,$3*
1,1,$1+$1,$4,$5*
1,1,$1+$1,$6,$7*
1,1,$1+$1,$8,$9*
0 Add four rect primitives between the rounded corners*
20,1,$1+$1,$2,$3,$4,$5,0*
20,1,$1+$1,$4,$5,$6,$7,0*
20,1,$1+$1,$6,$7,$8,$9,0*
20,1,$1+$1,$8,$9,$2,$3,0*%
%AMFreePoly0*
4,1,23,0.500000,-0.750000,0.000000,-0.750000,0.000000,-0.745722,-0.065263,-0.745722,-0.191342,-0.711940,-0.304381,-0.646677,-0.396677,-0.554381,-0.461940,-0.441342,-0.495722,-0.315263,-0.495722,-0.250000,-0.500000,-0.250000,-0.500000,0.250000,-0.495722,0.250000,-0.495722,0.315263,-0.461940,0.441342,-0.396677,0.554381,-0.304381,0.646677,-0.191342,0.711940,-0.065263,0.745722,0.000000,0.745722,
0.000000,0.750000,0.500000,0.750000,0.500000,-0.750000,0.500000,-0.750000,$1*%
%AMFreePoly1*
4,1,23,0.000000,0.745722,0.065263,0.745722,0.191342,0.711940,0.304381,0.646677,0.396677,0.554381,0.461940,0.441342,0.495722,0.315263,0.495722,0.250000,0.500000,0.250000,0.500000,-0.250000,0.495722,-0.250000,0.495722,-0.315263,0.461940,-0.441342,0.396677,-0.554381,0.304381,-0.646677,0.191342,-0.711940,0.065263,-0.745722,0.000000,-0.745722,0.000000,-0.750000,-0.500000,-0.750000,
-0.500000,0.750000,0.000000,0.750000,0.000000,0.745722,0.000000,0.745722,$1*%
G04 Aperture macros list end*
%ADD10O,1.000000X1.600000*%
%ADD11R,0.300000X0.900000*%
%ADD12C,0.600000*%
%ADD13RoundRect,0.200000X-0.200000X-0.275000X0.200000X-0.275000X0.200000X0.275000X-0.200000X0.275000X0*%
%ADD14RoundRect,0.250000X-0.450000X-0.350000X0.450000X-0.350000X0.450000X0.350000X-0.450000X0.350000X0*%
%ADD15RoundRect,0.250000X-0.525000X-0.400000X0.525000X-0.400000X0.525000X0.400000X-0.525000X0.400000X0*%
%ADD16RoundRect,0.200000X0.200000X0.275000X-0.200000X0.275000X-0.200000X-0.275000X0.200000X-0.275000X0*%
%ADD17RoundRect,0.225000X0.250000X-0.225000X0.250000X0.225000X-0.250000X0.225000X-0.250000X-0.225000X0*%
%ADD18RoundRect,0.225000X-0.225000X-0.250000X0.225000X-0.250000X0.225000X0.250000X-0.225000X0.250000X0*%
%ADD19RoundRect,0.225000X0.225000X0.250000X-0.225000X0.250000X-0.225000X-0.250000X0.225000X-0.250000X0*%
%ADD20FreePoly0,270.000000*%
%ADD21FreePoly1,270.000000*%
%ADD22RoundRect,0.218750X0.218750X0.256250X-0.218750X0.256250X-0.218750X-0.256250X0.218750X-0.256250X0*%
%ADD23R,1.700000X1.700000*%
%ADD24C,1.700000*%
%ADD25RoundRect,0.200000X-0.275000X0.200000X-0.275000X-0.200000X0.275000X-0.200000X0.275000X0.200000X0*%
%ADD26RoundRect,0.200000X0.275000X-0.200000X0.275000X0.200000X-0.275000X0.200000X-0.275000X-0.200000X0*%
%ADD27RoundRect,0.150000X-0.150000X0.825000X-0.150000X-0.825000X0.150000X-0.825000X0.150000X0.825000X0*%
%ADD28RoundRect,0.375000X-0.375000X0.625000X-0.375000X-0.625000X0.375000X-0.625000X0.375000X0.625000X0*%
%ADD29RoundRect,0.500000X-1.400000X0.500000X-1.400000X-0.500000X1.400000X-0.500000X1.400000X0.500000X0*%
%ADD30RoundRect,0.225000X-0.250000X0.225000X-0.250000X-0.225000X0.250000X-0.225000X0.250000X0.225000X0*%
%ADD31RoundRect,0.075000X-0.075000X0.700000X-0.075000X-0.700000X0.075000X-0.700000X0.075000X0.700000X0*%
%ADD32RoundRect,0.075000X-0.700000X0.075000X-0.700000X-0.075000X0.700000X-0.075000X0.700000X0.075000X0*%
G04 APERTURE END LIST*
%TO.C,JP2*%
G36*
X90500000Y-106250000D02*
G01*
X89000000Y-106250000D01*
X89000000Y-106550000D01*
X90500000Y-106550000D01*
X90500000Y-106250000D01*
G37*
%TO.C,JP3*%
G36*
X78750000Y-106000000D02*
G01*
X77250000Y-106000000D01*
X77250000Y-106300000D01*
X78750000Y-106300000D01*
X78750000Y-106000000D01*
G37*
%TO.C,JP5*%
G36*
X103250000Y-117250000D02*
G01*
X101750000Y-117250000D01*
X101750000Y-117550000D01*
X103250000Y-117550000D01*
X103250000Y-117250000D01*
G37*
%TO.C,JP4*%
G36*
X69250000Y-105725000D02*
G01*
X67750000Y-105725000D01*
X67750000Y-106025000D01*
X69250000Y-106025000D01*
X69250000Y-105725000D01*
G37*
%TO.C,JP1*%
G36*
X99740000Y-106200000D02*
G01*
X98240000Y-106200000D01*
X98240000Y-106500000D01*
X99740000Y-106500000D01*
X99740000Y-106200000D01*
G37*
%TD*%
D10*
%TO.C,USBC1*%
X82560000Y-127810000D03*
X82920000Y-123400000D03*
X91180000Y-123400000D03*
X91540000Y-127810000D03*
D11*
X84299500Y-121600000D03*
X84800000Y-121600000D03*
X85300000Y-121600000D03*
X85800000Y-121600000D03*
X86300000Y-121600000D03*
X86800000Y-121600000D03*
X87300000Y-121600000D03*
X87800000Y-121600000D03*
X88300000Y-121600000D03*
X88800000Y-121600000D03*
X89300000Y-121600000D03*
X89800000Y-121600000D03*
D12*
X89850000Y-122810000D03*
X89450000Y-123510000D03*
X88650000Y-123510000D03*
X88250000Y-122810000D03*
X87850000Y-123510000D03*
X87450000Y-122810000D03*
X86650000Y-122810000D03*
X86250000Y-123510000D03*
X85850000Y-122810000D03*
X85450000Y-123510000D03*
X84650000Y-123510000D03*
X84250000Y-122810000D03*
%TD*%
D13*
%TO.C,R5*%
X74770000Y-80425000D03*
X76420000Y-80425000D03*
%TD*%
D14*
%TO.C,Y2*%
X86800000Y-73650000D03*
X89000000Y-73650000D03*
X89000000Y-71950000D03*
X86800000Y-71950000D03*
%TD*%
D15*
%TO.C,SW2*%
X68345000Y-72175000D03*
X76305000Y-72175000D03*
X68345000Y-76675000D03*
X76305000Y-76675000D03*
%TD*%
D16*
%TO.C,R8*%
X72325000Y-95475000D03*
X70675000Y-95475000D03*
%TD*%
D17*
%TO.C,C10*%
X81500000Y-102525000D03*
X81500000Y-100975000D03*
%TD*%
D18*
%TO.C,C9*%
X89000000Y-75450000D03*
X90550000Y-75450000D03*
%TD*%
%TO.C,C2*%
X94225000Y-82275000D03*
X95775000Y-82275000D03*
%TD*%
D19*
%TO.C,C4*%
X79275000Y-91125000D03*
X77725000Y-91125000D03*
%TD*%
D20*
%TO.C,JP2*%
X89750000Y-105750000D03*
D21*
X89750000Y-107050000D03*
%TD*%
D19*
%TO.C,C18*%
X76345000Y-78675000D03*
X74795000Y-78675000D03*
%TD*%
%TO.C,C6*%
X86825000Y-75450000D03*
X85275000Y-75450000D03*
%TD*%
D20*
%TO.C,JP3*%
X78000000Y-105500000D03*
D21*
X78000000Y-106800000D03*
%TD*%
D22*
%TO.C,D2*%
X75287500Y-95475000D03*
X73712500Y-95475000D03*
%TD*%
D17*
%TO.C,C11*%
X93000000Y-102775000D03*
X93000000Y-101225000D03*
%TD*%
D23*
%TO.C,J2*%
X104000000Y-95610000D03*
D24*
X104000000Y-93070000D03*
X104000000Y-90530000D03*
X104000000Y-87990000D03*
X104000000Y-85450000D03*
X104000000Y-82910000D03*
X104000000Y-80370000D03*
X104000000Y-77830000D03*
X104000000Y-75290000D03*
X104000000Y-72750000D03*
%TD*%
D25*
%TO.C,R9*%
X89750000Y-108750000D03*
X89750000Y-110400000D03*
%TD*%
D26*
%TO.C,R12*%
X85800000Y-117137500D03*
X85800000Y-115487500D03*
%TD*%
D27*
%TO.C,U3*%
X83905000Y-104525000D03*
X82635000Y-104525000D03*
X81365000Y-104525000D03*
X80095000Y-104525000D03*
X80095000Y-109475000D03*
X81365000Y-109475000D03*
X82635000Y-109475000D03*
X83905000Y-109475000D03*
%TD*%
D22*
%TO.C,D4*%
X75318750Y-97100000D03*
X73743750Y-97100000D03*
%TD*%
D16*
%TO.C,R1*%
X72281250Y-93875000D03*
X70631250Y-93875000D03*
%TD*%
D19*
%TO.C,C7*%
X79250000Y-89000000D03*
X77700000Y-89000000D03*
%TD*%
D28*
%TO.C,U5*%
X104950000Y-122650000D03*
X102650000Y-122650000D03*
D29*
X102650000Y-128950000D03*
D28*
X100350000Y-122650000D03*
%TD*%
D30*
%TO.C,C3*%
X90475000Y-94200000D03*
X90475000Y-95750000D03*
%TD*%
D27*
%TO.C,U2*%
X74405000Y-104525000D03*
X73135000Y-104525000D03*
X71865000Y-104525000D03*
X70595000Y-104525000D03*
X70595000Y-109475000D03*
X71865000Y-109475000D03*
X73135000Y-109475000D03*
X74405000Y-109475000D03*
%TD*%
%TO.C,U4*%
X95655000Y-104775000D03*
X94385000Y-104775000D03*
X93115000Y-104775000D03*
X91845000Y-104775000D03*
X91845000Y-109725000D03*
X93115000Y-109725000D03*
X94385000Y-109725000D03*
X95655000Y-109725000D03*
%TD*%
D25*
%TO.C,R7*%
X98990000Y-108750000D03*
X98990000Y-110400000D03*
%TD*%
D20*
%TO.C,JP5*%
X102500000Y-116750000D03*
D21*
X102500000Y-118050000D03*
%TD*%
D25*
%TO.C,R11*%
X68500000Y-108275000D03*
X68500000Y-109925000D03*
%TD*%
D17*
%TO.C,C1*%
X84475000Y-79300000D03*
X84475000Y-77750000D03*
%TD*%
D20*
%TO.C,JP4*%
X68500000Y-105225000D03*
D21*
X68500000Y-106525000D03*
%TD*%
D17*
%TO.C,C15*%
X71845000Y-102575000D03*
X71845000Y-101025000D03*
%TD*%
%TO.C,C8*%
X90475000Y-79300000D03*
X90475000Y-77750000D03*
%TD*%
D22*
%TO.C,D1*%
X75243750Y-93875000D03*
X73668750Y-93875000D03*
%TD*%
D17*
%TO.C,C12*%
X102240000Y-102775000D03*
X102240000Y-101225000D03*
%TD*%
D23*
%TO.C,J1*%
X68925000Y-89800000D03*
D24*
X68925000Y-87260000D03*
X68925000Y-84720000D03*
X68925000Y-82180000D03*
X68925000Y-79640000D03*
%TD*%
D31*
%TO.C,U1*%
X90475000Y-81050000D03*
X89975000Y-81050000D03*
X89475000Y-81050000D03*
X88975000Y-81050000D03*
X88475000Y-81050000D03*
X87975000Y-81050000D03*
X87475000Y-81050000D03*
X86975000Y-81050000D03*
X86475000Y-81050000D03*
X85975000Y-81050000D03*
X85475000Y-81050000D03*
X84975000Y-81050000D03*
X84475000Y-81050000D03*
X83975000Y-81050000D03*
X83475000Y-81050000D03*
X82975000Y-81050000D03*
D32*
X81050000Y-82975000D03*
X81050000Y-83475000D03*
X81050000Y-83975000D03*
X81050000Y-84475000D03*
X81050000Y-84975000D03*
X81050000Y-85475000D03*
X81050000Y-85975000D03*
X81050000Y-86475000D03*
X81050000Y-86975000D03*
X81050000Y-87475000D03*
X81050000Y-87975000D03*
X81050000Y-88475000D03*
X81050000Y-88975000D03*
X81050000Y-89475000D03*
X81050000Y-89975000D03*
X81050000Y-90475000D03*
D31*
X82975000Y-92400000D03*
X83475000Y-92400000D03*
X83975000Y-92400000D03*
X84475000Y-92400000D03*
X84975000Y-92400000D03*
X85475000Y-92400000D03*
X85975000Y-92400000D03*
X86475000Y-92400000D03*
X86975000Y-92400000D03*
X87475000Y-92400000D03*
X87975000Y-92400000D03*
X88475000Y-92400000D03*
X88975000Y-92400000D03*
X89475000Y-92400000D03*
X89975000Y-92400000D03*
X90475000Y-92400000D03*
D32*
X92400000Y-90475000D03*
X92400000Y-89975000D03*
X92400000Y-89475000D03*
X92400000Y-88975000D03*
X92400000Y-88475000D03*
X92400000Y-87975000D03*
X92400000Y-87475000D03*
X92400000Y-86975000D03*
X92400000Y-86475000D03*
X92400000Y-85975000D03*
X92400000Y-85475000D03*
X92400000Y-84975000D03*
X92400000Y-84475000D03*
X92400000Y-83975000D03*
X92400000Y-83475000D03*
X92400000Y-82975000D03*
%TD*%
D20*
%TO.C,JP1*%
X98990000Y-105700000D03*
D21*
X98990000Y-107000000D03*
%TD*%
D23*
%TO.C,J3*%
X80000000Y-72400000D03*
D24*
X82540000Y-72400000D03*
%TD*%
D17*
%TO.C,C13*%
X98225000Y-124200000D03*
X98225000Y-122650000D03*
%TD*%
D27*
%TO.C,U6*%
X104895000Y-104775000D03*
X103625000Y-104775000D03*
X102355000Y-104775000D03*
X101085000Y-104775000D03*
X101085000Y-109725000D03*
X102355000Y-109725000D03*
X103625000Y-109725000D03*
X104895000Y-109725000D03*
%TD*%
D18*
%TO.C,C14*%
X96675000Y-128905000D03*
X98225000Y-128905000D03*
%TD*%
D16*
%TO.C,R13*%
X77500000Y-129500000D03*
X75850000Y-129500000D03*
%TD*%
D19*
%TO.C,C5*%
X79275000Y-83525000D03*
X77725000Y-83525000D03*
%TD*%
D16*
%TO.C,R3*%
X72356250Y-97100000D03*
X70706250Y-97100000D03*
%TD*%
D25*
%TO.C,R10*%
X78000000Y-108500000D03*
X78000000Y-110150000D03*
%TD*%
D13*
%TO.C,R2*%
X92925000Y-78750000D03*
X94575000Y-78750000D03*
%TD*%
D15*
%TO.C,SW1*%
X93000000Y-72250000D03*
X100960000Y-72250000D03*
X93000000Y-76750000D03*
X100960000Y-76750000D03*
%TD*%
M02*
