%TF.GenerationSoftware,KiCad,Pcbnew,9.0.4*%
%TF.CreationDate,2025-09-10T15:59:19+03:00*%
%TF.ProjectId,Asius1,41736975-7331-42e6-9b69-6361645f7063,rev?*%
%TF.SameCoordinates,Original*%
%TF.FileFunction,Profile,NP*%
%FSLAX46Y46*%
G04 Gerber Fmt 4.6, Leading zero omitted, Abs format (unit mm)*
G04 Created by KiCad (PCBNEW 9.0.4) date 2025-09-10 15:59:19*
%MOMM*%
%LPD*%
G01*
G04 APERTURE LIST*
%TA.AperFunction,Profile*%
%ADD10C,0.050000*%
%TD*%
%TA.AperFunction,Profile*%
%ADD11C,0.000000*%
%TD*%
G04 APERTURE END LIST*
D10*
X66500000Y-70500000D02*
X106500000Y-70500000D01*
X106500000Y-130500000D01*
X66500000Y-130500000D01*
X66500000Y-70500000D01*
D11*
%TA.AperFunction,Profile*%
%TO.C,USBC1*%
G36*
X83528073Y-121790448D02*
G01*
X83618505Y-121842659D01*
X83692341Y-121916495D01*
X83744552Y-122006927D01*
X83771578Y-122107790D01*
X83771578Y-122212210D01*
X83744552Y-122313073D01*
X83692341Y-122403505D01*
X83618505Y-122477341D01*
X83528073Y-122529552D01*
X83427210Y-122556578D01*
X83322790Y-122556578D01*
X83221927Y-122529552D01*
X83131495Y-122477341D01*
X83057659Y-122403505D01*
X83005448Y-122313073D01*
X82978422Y-122212210D01*
X82978422Y-122107790D01*
X83005448Y-122006927D01*
X83057659Y-121916495D01*
X83131495Y-121842659D01*
X83221927Y-121790448D01*
X83322790Y-121763422D01*
X83427210Y-121763422D01*
X83528073Y-121790448D01*
G37*
%TD.AperFunction*%
%TA.AperFunction,Profile*%
G36*
X90878073Y-121790448D02*
G01*
X90968505Y-121842659D01*
X91042341Y-121916495D01*
X91094552Y-122006927D01*
X91121578Y-122107790D01*
X91121578Y-122212210D01*
X91094552Y-122313073D01*
X91042341Y-122403505D01*
X90968505Y-122477341D01*
X90878073Y-122529552D01*
X90777210Y-122556578D01*
X90672790Y-122556578D01*
X90571927Y-122529552D01*
X90481495Y-122477341D01*
X90407659Y-122403505D01*
X90355448Y-122313073D01*
X90328422Y-122212210D01*
X90328422Y-122107790D01*
X90355448Y-122006927D01*
X90407659Y-121916495D01*
X90481495Y-121842659D01*
X90571927Y-121790448D01*
X90672790Y-121763422D01*
X90777210Y-121763422D01*
X90878073Y-121790448D01*
G37*
%TD.AperFunction*%
%TD*%
M02*
