M48
; DRILL file {KiCad 9.0.4} date 2025-09-29T16:36:41+0300
; FORMAT={-:-/ absolute / metric / decimal}
; #@! TF.CreationDate,2025-09-29T16:36:41+03:00
; #@! TF.GenerationSoftware,Kicad,Pcbnew,9.0.4
; #@! TF.FileFunction,Plated,1,6,PTH
FMAT,2
METRIC
; #@! TA.AperFunction,Plated,PTH,ViaDrill
T1C0.200
; #@! TA.AperFunction,Plated,PTH,ViaDrill
T2C0.300
; #@! TA.AperFunction,Plated,PTH,ComponentDrill
T3C0.400
; #@! TA.AperFunction,Plated,PTH,ComponentDrill
T4C0.600
; #@! TA.AperFunction,Plated,PTH,ComponentDrill
T5C1.000
%
G90
G05
T1
X71.46Y-91.2
X71.49Y-98.58
X81.01Y-125.35
X81.576Y-107.454
X81.79Y-111.36
X81.79Y-112.36
X81.79Y-112.86
X81.79Y-114.86
X81.79Y-115.36
X82.29Y-111.36
X82.29Y-111.86
X82.29Y-112.86
X82.29Y-114.86
X82.29Y-115.36
X82.79Y-109.86
X82.79Y-110.36
X82.79Y-111.86
X82.79Y-113.86
X83.29Y-110.36
X83.29Y-110.86
X83.29Y-115.36
X83.29Y-115.86
X83.79Y-110.86
X83.79Y-113.36
X83.79Y-113.86
X83.79Y-114.36
X84.119Y-102.83
X84.29Y-109.86
X84.29Y-110.36
X84.29Y-110.86
X84.29Y-111.36
X84.29Y-111.86
X84.29Y-112.86
X84.29Y-114.36
X84.47Y-98.42
X84.47Y-102.016
X84.79Y-109.86
X84.79Y-110.36
X84.79Y-112.36
X84.79Y-115.36
X84.79Y-115.86
X85.221Y-125.364
X85.29Y-111.36
X85.29Y-112.86
X85.29Y-113.36
X85.29Y-113.86
X85.29Y-114.36
X85.61Y-85.37
X85.78Y-124.74
X85.79Y-110.36
X85.79Y-111.36
X85.79Y-111.86
X85.79Y-112.36
X85.79Y-113.86
X85.79Y-114.86
X85.97Y-80.27
X86.29Y-109.86
X86.29Y-110.36
X86.29Y-112.36
X86.29Y-113.86
X86.29Y-115.36
X86.51Y-80.23
X86.56Y-80.82
X86.79Y-111.36
X86.79Y-112.36
X86.79Y-113.86
X86.79Y-115.36
X86.79Y-115.86
X86.98Y-91.69
X87.29Y-110.86
X87.29Y-111.36
X87.29Y-113.36
X87.29Y-114.86
X87.79Y-110.86
X87.79Y-112.86
X87.79Y-113.36
X87.79Y-114.86
X89.06Y-109.0
X89.66Y-107.77
X90.474Y-107.43
X92.86Y-114.864
X93.204Y-113.87
X93.544Y-113.537
X94.01Y-108.58
X94.336Y-122.61
X95.59Y-117.08
X96.53Y-110.39
X96.764Y-113.77
X96.78Y-116.064
X97.24Y-113.77
X97.24Y-115.756
X97.37Y-117.44
X97.65Y-114.08
X97.99Y-114.45
T2
X67.66Y-80.22
X67.81Y-87.38
X67.84Y-94.49
X71.44Y-94.71
X71.46Y-87.28
X72.87Y-94.79
X73.69Y-79.52
X75.49Y-99.85
X76.48Y-76.91
X76.63Y-74.05
X76.65Y-113.59
X77.05Y-99.86
X77.51Y-110.92
X77.57Y-116.63
X78.07Y-87.31
X79.06Y-72.46
X80.67Y-98.51
X81.68Y-105.816
X81.8Y-99.67
X82.359Y-120.01
X83.35Y-99.64
X84.11Y-87.28
X85.01Y-81.43
X85.04Y-105.816
X87.04Y-85.79
X87.31Y-105.816
X87.55Y-81.38
X87.55Y-120.0
X87.81Y-98.35
X88.9Y-99.71
X90.41Y-99.68
X91.37Y-87.15
X91.61Y-98.11
X91.92Y-109.684
X92.141Y-112.829
X93.096Y-111.25
X94.08Y-72.21
X94.58Y-98.4
X95.75Y-80.72
X96.48Y-75.21
X98.08Y-86.7
X98.18Y-98.43
X98.69Y-122.54
X100.22Y-74.71
X100.24Y-72.19
X101.37Y-74.694
X104.18Y-71.24
X104.29Y-75.2
T3
X83.46Y-78.15
X83.86Y-77.45
X84.66Y-77.45
X85.06Y-78.15
X85.46Y-77.45
X85.86Y-78.15
X86.66Y-78.15
X87.06Y-77.45
X87.46Y-78.15
X87.86Y-77.45
X88.66Y-77.45
X89.06Y-78.15
T5
X68.17Y-128.72
X68.25Y-113.92
X68.25Y-116.46
X68.25Y-119.0
X68.25Y-122.56
X68.25Y-125.1
X68.3Y-100.19
X68.3Y-102.73
X68.3Y-105.27
X68.3Y-107.81
X68.3Y-110.35
X70.71Y-128.72
X73.25Y-128.72
X75.79Y-128.72
X78.33Y-128.72
X80.87Y-128.72
X83.41Y-128.72
X86.96Y-128.7
X89.5Y-128.7
X92.04Y-128.7
X94.58Y-128.7
X97.12Y-128.7
X99.66Y-128.7
X102.16Y-76.89
X102.16Y-79.43
X102.16Y-81.97
X102.16Y-84.51
X102.16Y-87.05
X102.16Y-89.59
X102.16Y-92.13
X102.16Y-94.67
X102.16Y-97.21
X102.16Y-99.75
X102.16Y-102.29
X102.16Y-104.83
X102.16Y-107.37
X102.16Y-109.91
X102.16Y-112.45
X102.16Y-114.99
X102.16Y-117.53
X102.16Y-120.07
X102.16Y-122.61
X102.16Y-125.15
X102.2Y-128.7
X104.7Y-76.89
X104.7Y-79.43
X104.7Y-81.97
X104.7Y-84.51
X104.7Y-87.05
X104.7Y-89.59
X104.7Y-92.13
X104.7Y-94.67
X104.7Y-97.21
X104.7Y-99.75
X104.7Y-102.29
X104.7Y-104.83
X104.7Y-107.37
X104.7Y-109.91
X104.7Y-112.45
X104.7Y-114.99
X104.7Y-117.53
X104.7Y-120.07
X104.7Y-122.61
X104.7Y-125.15
X104.74Y-128.7
T4
G00X81.77Y-73.45
M15
G01X81.77Y-72.85
M16
G05
G00X82.13Y-77.859
M15
G01X82.13Y-77.26
M16
G05
G00X90.39Y-77.859
M15
G01X90.39Y-77.26
M16
G05
G00X90.75Y-73.45
M15
G01X90.75Y-72.85
M16
G05
M30
