%TF.GenerationSoftware,KiCad,Pcbnew,9.0.4*%
%TF.CreationDate,2025-09-28T18:54:50+03:00*%
%TF.ProjectId,Asius2,41736975-7332-42e6-9b69-6361645f7063,rev?*%
%TF.SameCoordinates,Original*%
%TF.FileFunction,Soldermask,Bot*%
%TF.FilePolarity,Negative*%
%FSLAX46Y46*%
G04 Gerber Fmt 4.6, Leading zero omitted, Abs format (unit mm)*
G04 Created by KiCad (PCBNEW 9.0.4) date 2025-09-28 18:54:50*
%MOMM*%
%LPD*%
G01*
G04 APERTURE LIST*
G04 Aperture macros list*
%AMRoundRect*
0 Rectangle with rounded corners*
0 $1 Rounding radius*
0 $2 $3 $4 $5 $6 $7 $8 $9 X,Y pos of 4 corners*
0 Add a 4 corners polygon primitive as box body*
4,1,4,$2,$3,$4,$5,$6,$7,$8,$9,$2,$3,0*
0 Add four circle primitives for the rounded corners*
1,1,$1+$1,$2,$3*
1,1,$1+$1,$4,$5*
1,1,$1+$1,$6,$7*
1,1,$1+$1,$8,$9*
0 Add four rect primitives between the rounded corners*
20,1,$1+$1,$2,$3,$4,$5,0*
20,1,$1+$1,$4,$5,$6,$7,0*
20,1,$1+$1,$6,$7,$8,$9,0*
20,1,$1+$1,$8,$9,$2,$3,0*%
G04 Aperture macros list end*
%ADD10C,0.600000*%
%ADD11O,1.000000X1.600000*%
%ADD12R,1.700000X1.700000*%
%ADD13C,1.700000*%
%ADD14RoundRect,0.140000X0.140000X0.170000X-0.140000X0.170000X-0.140000X-0.170000X0.140000X-0.170000X0*%
%ADD15RoundRect,0.140000X0.170000X-0.140000X0.170000X0.140000X-0.170000X0.140000X-0.170000X-0.140000X0*%
%ADD16RoundRect,0.140000X-0.140000X-0.170000X0.140000X-0.170000X0.140000X0.170000X-0.140000X0.170000X0*%
%ADD17RoundRect,0.140000X-0.170000X0.140000X-0.170000X-0.140000X0.170000X-0.140000X0.170000X0.140000X0*%
G04 APERTURE END LIST*
D10*
%TO.C,USBC1*%
X83460000Y-78150000D03*
X83860000Y-77450000D03*
X84660000Y-77450000D03*
X85060000Y-78150000D03*
X85460000Y-77450000D03*
X85860000Y-78150000D03*
X86660000Y-78150000D03*
X87060000Y-77450000D03*
X87460000Y-78150000D03*
X87860000Y-77450000D03*
X88660000Y-77450000D03*
X89060000Y-78150000D03*
D11*
X90390000Y-77560000D03*
X82130000Y-77560000D03*
X90750000Y-73150000D03*
X81770000Y-73150000D03*
%TD*%
D12*
%TO.C,J2*%
X102160000Y-76890000D03*
D13*
X104700000Y-76890000D03*
X102160000Y-79430000D03*
X104700000Y-79430000D03*
X102160000Y-81970000D03*
X104700000Y-81970000D03*
X102160000Y-84510000D03*
X104700000Y-84510000D03*
X102160000Y-87050000D03*
X104700000Y-87050000D03*
X102160000Y-89590000D03*
X104700000Y-89590000D03*
X102160000Y-92130000D03*
X104700000Y-92130000D03*
X102160000Y-94670000D03*
X104700000Y-94670000D03*
X102160000Y-97210000D03*
X104700000Y-97210000D03*
X102160000Y-99750000D03*
X104700000Y-99750000D03*
X102160000Y-102290000D03*
X104700000Y-102290000D03*
X102160000Y-104830000D03*
X104700000Y-104830000D03*
X102160000Y-107370000D03*
X104700000Y-107370000D03*
X102160000Y-109910000D03*
X104700000Y-109910000D03*
X102160000Y-112450000D03*
X104700000Y-112450000D03*
X102160000Y-114990000D03*
X104700000Y-114990000D03*
X102160000Y-117530000D03*
X104700000Y-117530000D03*
X102160000Y-120070000D03*
X104700000Y-120070000D03*
X102160000Y-122610000D03*
X104700000Y-122610000D03*
X102160000Y-125150000D03*
X104700000Y-125150000D03*
%TD*%
D12*
%TO.C,J6*%
X68300000Y-100190000D03*
D13*
X68300000Y-102730000D03*
X68300000Y-105270000D03*
X68300000Y-107810000D03*
X68300000Y-110350000D03*
%TD*%
D12*
%TO.C,J5*%
X83410000Y-128720000D03*
D13*
X80870000Y-128720000D03*
X78330000Y-128720000D03*
X75790000Y-128720000D03*
X73250000Y-128720000D03*
X70710000Y-128720000D03*
X68170000Y-128720000D03*
%TD*%
D12*
%TO.C,J4*%
X68250000Y-113920000D03*
D13*
X68250000Y-116460000D03*
X68250000Y-119000000D03*
%TD*%
D12*
%TO.C,J3*%
X86960000Y-128700000D03*
D13*
X89500000Y-128700000D03*
X92040000Y-128700000D03*
X94580000Y-128700000D03*
X97120000Y-128700000D03*
X99660000Y-128700000D03*
X102200000Y-128700000D03*
X104740000Y-128700000D03*
%TD*%
D12*
%TO.C,J1*%
X68250000Y-122560000D03*
D13*
X68250000Y-125100000D03*
%TD*%
D14*
%TO.C,C16*%
X79740000Y-114150000D03*
X80700000Y-114150000D03*
%TD*%
%TO.C,C20*%
X79710000Y-110270000D03*
X80670000Y-110270000D03*
%TD*%
D15*
%TO.C,C21*%
X82320000Y-107890000D03*
X82320000Y-108850000D03*
%TD*%
%TO.C,C22*%
X84270000Y-107870000D03*
X84270000Y-108830000D03*
%TD*%
%TO.C,C23*%
X85250000Y-107870000D03*
X85250000Y-108830000D03*
%TD*%
%TO.C,C24*%
X86230000Y-108830000D03*
X86230000Y-107870000D03*
%TD*%
D16*
%TO.C,C25*%
X89880000Y-110400000D03*
X88920000Y-110400000D03*
%TD*%
D14*
%TO.C,C26*%
X79710000Y-111230000D03*
X80670000Y-111230000D03*
%TD*%
%TO.C,C27*%
X79730000Y-113170000D03*
X80690000Y-113170000D03*
%TD*%
D16*
%TO.C,C28*%
X89870000Y-113900000D03*
X88910000Y-113900000D03*
%TD*%
%TO.C,C29*%
X89870000Y-114870000D03*
X88910000Y-114870000D03*
%TD*%
D14*
%TO.C,C30*%
X79760000Y-116070000D03*
X80720000Y-116070000D03*
%TD*%
D17*
%TO.C,C31*%
X83280000Y-117990000D03*
X83280000Y-117030000D03*
%TD*%
%TO.C,C32*%
X84260000Y-117990000D03*
X84260000Y-117030000D03*
%TD*%
%TO.C,C33*%
X87240000Y-117940000D03*
X87240000Y-116980000D03*
%TD*%
D16*
%TO.C,C34*%
X89870000Y-112940000D03*
X88910000Y-112940000D03*
%TD*%
D14*
%TO.C,C35*%
X79750000Y-115110000D03*
X80710000Y-115110000D03*
%TD*%
D15*
%TO.C,C36*%
X83290000Y-107890000D03*
X83290000Y-108850000D03*
%TD*%
D16*
%TO.C,C37*%
X89890000Y-111370000D03*
X88930000Y-111370000D03*
%TD*%
D17*
%TO.C,C38*%
X86270000Y-117940000D03*
X86270000Y-116980000D03*
%TD*%
D14*
%TO.C,C39*%
X79700000Y-112200000D03*
X80660000Y-112200000D03*
%TD*%
M02*
