%TF.GenerationSoftware,KiCad,Pcbnew,9.0.4*%
%TF.CreationDate,2025-09-29T22:44:47+03:00*%
%TF.ProjectId,Asius2,41736975-7332-42e6-9b69-6361645f7063,rev?*%
%TF.SameCoordinates,Original*%
%TF.FileFunction,Copper,L3,Inr*%
%TF.FilePolarity,Positive*%
%FSLAX46Y46*%
G04 Gerber Fmt 4.6, Leading zero omitted, Abs format (unit mm)*
G04 Created by KiCad (PCBNEW 9.0.4) date 2025-09-29 22:44:47*
%MOMM*%
%LPD*%
G01*
G04 APERTURE LIST*
%TA.AperFunction,ComponentPad*%
%ADD10R,1.700000X1.700000*%
%TD*%
%TA.AperFunction,ComponentPad*%
%ADD11C,1.700000*%
%TD*%
%TA.AperFunction,HeatsinkPad*%
%ADD12C,0.500000*%
%TD*%
%TA.AperFunction,ComponentPad*%
%ADD13C,0.600000*%
%TD*%
%TA.AperFunction,ComponentPad*%
%ADD14O,1.000000X1.600000*%
%TD*%
%TA.AperFunction,ViaPad*%
%ADD15C,0.600000*%
%TD*%
%TA.AperFunction,ViaPad*%
%ADD16C,0.400000*%
%TD*%
%TA.AperFunction,Conductor*%
%ADD17C,0.200000*%
%TD*%
%TA.AperFunction,Conductor*%
%ADD18C,0.100000*%
%TD*%
G04 APERTURE END LIST*
D10*
%TO.N,GND*%
%TO.C,J7*%
X96515000Y-72290000D03*
D11*
%TO.N,+5V*%
X99055000Y-72290000D03*
%TD*%
D12*
%TO.N,GND*%
%TO.C,U8*%
X78630000Y-75712500D03*
X78630000Y-74532500D03*
X77450000Y-75712500D03*
X77450000Y-74532500D03*
%TD*%
D13*
%TO.N,GND*%
%TO.C,USBC1*%
X83460000Y-78150000D03*
%TO.N,/CAN3_H*%
X83860000Y-77450000D03*
%TO.N,/CAN3_L*%
X84660000Y-77450000D03*
%TO.N,+12V*%
X85060000Y-78150000D03*
%TO.N,Net-(USBC1-CC2)*%
X85460000Y-77450000D03*
%TO.N,/USB_DP*%
X85860000Y-78150000D03*
%TO.N,/USB_DM*%
X86660000Y-78150000D03*
%TO.N,/SBU2*%
X87060000Y-77450000D03*
%TO.N,+12V*%
X87460000Y-78150000D03*
%TO.N,/CAN4_L*%
X87860000Y-77450000D03*
%TO.N,/CAN4_H*%
X88660000Y-77450000D03*
%TO.N,GND*%
X89060000Y-78150000D03*
D14*
X90390000Y-77560000D03*
X82130000Y-77560000D03*
X90750000Y-73150000D03*
X81770000Y-73150000D03*
%TD*%
D10*
%TO.N,unconnected-(J2-Pin_1-Pad1)*%
%TO.C,J2*%
X102160000Y-76890000D03*
D11*
%TO.N,+5V*%
X104700000Y-76890000D03*
%TO.N,/IMU_SDA*%
X102160000Y-79430000D03*
%TO.N,+5V*%
X104700000Y-79430000D03*
%TO.N,/IMU_SCL*%
X102160000Y-81970000D03*
%TO.N,GND*%
X104700000Y-81970000D03*
%TO.N,unconnected-(J2-Pin_7-Pad7)*%
X102160000Y-84510000D03*
%TO.N,/UART_RX*%
X104700000Y-84510000D03*
%TO.N,GND*%
X102160000Y-87050000D03*
%TO.N,/UART_TX*%
X104700000Y-87050000D03*
%TO.N,unconnected-(J2-Pin_11-Pad11)*%
X102160000Y-89590000D03*
%TO.N,unconnected-(J2-Pin_12-Pad12)*%
X104700000Y-89590000D03*
%TO.N,unconnected-(J2-Pin_13-Pad13)*%
X102160000Y-92130000D03*
%TO.N,GND*%
X104700000Y-92130000D03*
%TO.N,unconnected-(J2-Pin_15-Pad15)*%
X102160000Y-94670000D03*
%TO.N,unconnected-(J2-Pin_16-Pad16)*%
X104700000Y-94670000D03*
%TO.N,unconnected-(J2-Pin_17-Pad17)*%
X102160000Y-97210000D03*
%TO.N,unconnected-(J2-Pin_18-Pad18)*%
X104700000Y-97210000D03*
%TO.N,/SPI_MOSI*%
X102160000Y-99750000D03*
%TO.N,unconnected-(J2-Pin_20-Pad20)*%
X104700000Y-99750000D03*
%TO.N,/SPI_MISO*%
X102160000Y-102290000D03*
%TO.N,unconnected-(J2-Pin_22-Pad22)*%
X104700000Y-102290000D03*
%TO.N,/SPI_SCK*%
X102160000Y-104830000D03*
%TO.N,/SPI_NSS*%
X104700000Y-104830000D03*
%TO.N,unconnected-(J2-Pin_25-Pad25)*%
X102160000Y-107370000D03*
%TO.N,unconnected-(J2-Pin_26-Pad26)*%
X104700000Y-107370000D03*
%TO.N,unconnected-(J2-Pin_27-Pad27)*%
X102160000Y-109910000D03*
%TO.N,unconnected-(J2-Pin_28-Pad28)*%
X104700000Y-109910000D03*
%TO.N,unconnected-(J2-Pin_29-Pad29)*%
X102160000Y-112450000D03*
%TO.N,unconnected-(J2-Pin_30-Pad30)*%
X104700000Y-112450000D03*
%TO.N,unconnected-(J2-Pin_31-Pad31)*%
X102160000Y-114990000D03*
%TO.N,unconnected-(J2-Pin_32-Pad32)*%
X104700000Y-114990000D03*
%TO.N,unconnected-(J2-Pin_33-Pad33)*%
X102160000Y-117530000D03*
%TO.N,unconnected-(J2-Pin_34-Pad34)*%
X104700000Y-117530000D03*
%TO.N,unconnected-(J2-Pin_35-Pad35)*%
X102160000Y-120070000D03*
%TO.N,unconnected-(J2-Pin_36-Pad36)*%
X104700000Y-120070000D03*
%TO.N,unconnected-(J2-Pin_37-Pad37)*%
X102160000Y-122610000D03*
%TO.N,unconnected-(J2-Pin_38-Pad38)*%
X104700000Y-122610000D03*
%TO.N,unconnected-(J2-Pin_39-Pad39)*%
X102160000Y-125150000D03*
%TO.N,unconnected-(J2-Pin_40-Pad40)*%
X104700000Y-125150000D03*
%TD*%
D10*
%TO.N,/AUDIO_SAI4_SCK_B*%
%TO.C,J5*%
X83410000Y-128720000D03*
D11*
%TO.N,/AUDIO_SAI4_FS_B*%
X80870000Y-128720000D03*
%TO.N,/AUDIO_SAI4_SD_A*%
X78330000Y-128720000D03*
%TO.N,/AUDIO_SAI4_SD_B*%
X75790000Y-128720000D03*
%TO.N,/AUDIO_DFSDM1_DATIN3*%
X73250000Y-128720000D03*
%TO.N,/AUDIO_DFSDM1_CKOUT*%
X70710000Y-128720000D03*
%TO.N,/AUDIO_SAI4_MCLK_B*%
X68170000Y-128720000D03*
%TD*%
D10*
%TO.N,GND*%
%TO.C,J1*%
X68250000Y-122560000D03*
D11*
%TO.N,+3.3V*%
X68250000Y-125100000D03*
%TD*%
D10*
%TO.N,/SWDIO*%
%TO.C,J6*%
X68300000Y-100190000D03*
D11*
%TO.N,/SWCLK*%
X68300000Y-102730000D03*
%TO.N,/JTDI*%
X68300000Y-105270000D03*
%TO.N,/TRACESWO*%
X68300000Y-107810000D03*
%TO.N,/NJTRST*%
X68300000Y-110350000D03*
%TD*%
D10*
%TO.N,/FAN_ENABLE*%
%TO.C,J4*%
X68250000Y-113920000D03*
D11*
%TO.N,/FAN_TACHOMETER*%
X68250000Y-116460000D03*
%TO.N,/FAN_SETUP*%
X68250000Y-119000000D03*
%TD*%
D10*
%TO.N,/BOOTKICK*%
%TO.C,J3*%
X86960000Y-128700000D03*
D11*
%TO.N,/SOM_GPIO*%
X89500000Y-128700000D03*
%TO.N,/VOLT_S*%
X92040000Y-128700000D03*
%TO.N,/VBAT_EN*%
X94580000Y-128700000D03*
%TO.N,/SBU1_RELAY*%
X97120000Y-128700000D03*
%TO.N,/SBU2_RELAY*%
X99660000Y-128700000D03*
%TO.N,/PWR_READOUT1*%
X102200000Y-128700000D03*
%TO.N,/PWR_READOUT2*%
X104740000Y-128700000D03*
%TD*%
D15*
%TO.N,GND*%
X96580000Y-74940000D03*
%TO.N,/IMU_SCL*%
X74160000Y-122260000D03*
%TO.N,/IMU_SDA*%
X74120000Y-121050000D03*
%TO.N,GND*%
X79080000Y-124020000D03*
X73300000Y-123820000D03*
%TO.N,+3.3V*%
X76910000Y-124490000D03*
X71800000Y-121500000D03*
%TO.N,GND*%
X76110000Y-121366200D03*
X77240000Y-123870000D03*
X78760000Y-83260000D03*
X67960000Y-79780000D03*
X70910000Y-82980000D03*
%TO.N,+5V*%
X83330000Y-99753800D03*
X90490000Y-99690000D03*
X98200000Y-98430000D03*
X76990000Y-99910000D03*
X74905000Y-83250000D03*
%TO.N,GND*%
X75310000Y-73380000D03*
%TO.N,+3.3V*%
X68940000Y-80160000D03*
%TO.N,GND*%
X78560000Y-77410000D03*
X77980000Y-72680000D03*
X78100000Y-71360000D03*
%TO.N,+12V*%
X74830000Y-77330000D03*
%TO.N,GND*%
X94580000Y-98400000D03*
X105180000Y-71170000D03*
X75490000Y-99850000D03*
X81800000Y-99670000D03*
D16*
%TO.N,/CAN1_T*%
X84118800Y-102830000D03*
%TO.N,/CAN2_R*%
X84470000Y-102016200D03*
D15*
%TO.N,GND*%
X72870000Y-94790000D03*
X93096200Y-111250000D03*
X81680000Y-105816200D03*
X92141369Y-112828631D03*
X91920000Y-109683800D03*
X85040000Y-105816200D03*
X87310000Y-105816200D03*
X77570000Y-116630000D03*
X77510000Y-110920000D03*
X82359400Y-120010000D03*
X87550000Y-120000000D03*
D16*
X83290000Y-115360000D03*
D15*
X98080000Y-86700000D03*
D16*
X86790000Y-115360000D03*
X82790000Y-110360000D03*
D15*
X91370000Y-87150000D03*
D16*
X85290000Y-111360000D03*
D15*
X84110000Y-87280000D03*
X78070000Y-87310000D03*
D16*
X85790000Y-110360000D03*
X82290000Y-112860000D03*
X87290000Y-110860000D03*
X87290000Y-114860000D03*
X82290000Y-115360000D03*
X87290000Y-113360000D03*
D15*
X88900000Y-99710000D03*
X76650000Y-113590000D03*
D16*
X86290000Y-110360000D03*
X82290000Y-111360000D03*
D15*
X87040000Y-85790000D03*
D16*
X84790000Y-110360000D03*
D15*
X71460000Y-87280000D03*
D16*
X84790000Y-115360000D03*
D15*
X67840000Y-94490000D03*
D16*
X82790000Y-113860000D03*
X82290000Y-111860000D03*
%TO.N,+3.3V*%
X87790000Y-112860000D03*
X87790000Y-113360000D03*
X86290000Y-109860000D03*
X87290000Y-111360000D03*
X81790000Y-114860000D03*
X84290000Y-109860000D03*
X81790000Y-112360000D03*
X81790000Y-112860000D03*
X87790000Y-114860000D03*
X84790000Y-109860000D03*
X83290000Y-110360000D03*
D15*
X67810000Y-87380000D03*
D16*
X86290000Y-115360000D03*
X81790000Y-111360000D03*
X82790000Y-109860000D03*
D15*
X71440000Y-94710000D03*
D16*
X82290000Y-114860000D03*
X83290000Y-115860000D03*
X83290000Y-110860000D03*
X84790000Y-115860000D03*
X81790000Y-115360000D03*
X87790000Y-110860000D03*
X82790000Y-111860000D03*
D15*
X98690000Y-122540000D03*
D16*
X86790000Y-115860000D03*
%TO.N,/SBU2*%
X85220594Y-125363800D03*
X81010000Y-125350000D03*
%TO.N,/SBU1*%
X84290000Y-114360000D03*
X85610000Y-85370000D03*
%TO.N,/CAN2_E*%
X85790000Y-114860000D03*
X97990000Y-114450000D03*
%TO.N,/CAN3_R*%
X97650000Y-114080000D03*
X86790000Y-113860000D03*
%TO.N,/CAN1_R*%
X83790000Y-110860000D03*
D15*
X91610000Y-98110000D03*
D16*
%TO.N,/CAN3_T*%
X97240000Y-113770000D03*
X97240000Y-115756200D03*
%TO.N,/CAN1_E*%
X86980000Y-91690000D03*
X84290000Y-111360000D03*
D15*
%TO.N,/CAN1_T*%
X87810000Y-98350000D03*
D16*
%TO.N,/CAN2_R*%
X84470000Y-98420000D03*
%TO.N,/CAN2_T*%
X84290000Y-110860000D03*
D15*
X80670000Y-98510000D03*
D16*
%TO.N,/CAN3_E*%
X96780000Y-116063800D03*
X96763797Y-113770000D03*
D15*
%TO.N,+12V*%
X85010000Y-81430000D03*
X87550000Y-81380000D03*
D16*
%TO.N,Net-(U7-NRST)*%
X71490000Y-98580000D03*
X84290000Y-112860000D03*
%TO.N,/UART_RX*%
X89660000Y-107770000D03*
X85290000Y-113360000D03*
%TO.N,/SPI_MISO*%
X85290000Y-114360000D03*
%TO.N,/SPI_MOSI*%
X85790000Y-113860000D03*
%TO.N,/UART_TX*%
X90473800Y-107430000D03*
X85290000Y-112860000D03*
%TO.N,/SOM_GPIO*%
X83790000Y-113360000D03*
%TO.N,/PWR_READOUT2*%
X83790000Y-114360000D03*
%TO.N,/VBAT_EN*%
X94010000Y-108580000D03*
%TO.N,/BOOTKICK*%
X83790000Y-113860000D03*
%TO.N,/SBU1_RELAY*%
X93543741Y-113536520D03*
%TO.N,/FAN_SETUP*%
X92860000Y-114863800D03*
%TO.N,/FAN_TACHOMETER*%
X85790000Y-111860000D03*
%TO.N,/FAN_ENABLE*%
X85790000Y-111360000D03*
%TO.N,/AUDIO_DFSDM1_CKOUT*%
X85780000Y-124740000D03*
X85290000Y-113860000D03*
%TO.N,/AUDIO_SAI4_SD_A*%
X86290000Y-113860000D03*
X93203800Y-113870000D03*
%TO.N,/SWDIO*%
X96530000Y-110390000D03*
X86790000Y-111360000D03*
%TO.N,/JTDI*%
X89060000Y-109000000D03*
%TO.N,/NJTRST*%
X84290000Y-110360000D03*
X81575958Y-107454042D03*
%TO.N,/TRACESWO*%
X84790000Y-112360000D03*
%TO.N,/LED_RED*%
X85790000Y-112360000D03*
X97370000Y-117440000D03*
%TO.N,/LED_GREEN*%
X95590000Y-117080000D03*
X86290000Y-112360000D03*
%TO.N,/LED_BLUE*%
X94336200Y-122610000D03*
X86790000Y-112360000D03*
%TO.N,Net-(U7-BOOT0)*%
X71460000Y-91200000D03*
X84290000Y-111860000D03*
%TO.N,/USB_DM*%
X85970000Y-80270000D03*
X86560000Y-80820000D03*
%TO.N,/USB_DP*%
X86510000Y-80230000D03*
%TD*%
D17*
%TO.N,/IMU_SCL*%
X99350000Y-84780000D02*
X71210000Y-84780000D01*
X71210000Y-84780000D02*
X70350000Y-85640000D01*
X102160000Y-81970000D02*
X99350000Y-84780000D01*
X70350000Y-85640000D02*
X70350000Y-116605137D01*
X74597200Y-121822800D02*
X74160000Y-122260000D01*
X70350000Y-116605137D02*
X74597200Y-120852337D01*
X74597200Y-120852337D02*
X74597200Y-121822800D01*
%TO.N,/IMU_SDA*%
X74120000Y-121050000D02*
X69890000Y-116820000D01*
X69890000Y-116820000D02*
X69890000Y-85530000D01*
X69890000Y-85530000D02*
X71260000Y-84160000D01*
X97430000Y-84160000D02*
X102160000Y-79430000D01*
X71260000Y-84160000D02*
X97430000Y-84160000D01*
D18*
%TO.N,/SBU1*%
X84290000Y-114360000D02*
X84290000Y-113322731D01*
X71110000Y-86760000D02*
X84220000Y-86760000D01*
X79358634Y-109391366D02*
X71241366Y-109391366D01*
X84290000Y-113322731D02*
X83903634Y-112936366D01*
X82903635Y-112936366D02*
X79358634Y-109391366D01*
X83903634Y-112936366D02*
X82903635Y-112936366D01*
X71241366Y-109391366D02*
X70810000Y-108960000D01*
X70810000Y-108960000D02*
X70810000Y-87060000D01*
X70810000Y-87060000D02*
X71110000Y-86760000D01*
X84220000Y-86760000D02*
X85610000Y-85370000D01*
%TO.N,Net-(U7-BOOT0)*%
X71450000Y-91190000D02*
X71450000Y-91180000D01*
X72585000Y-108295000D02*
X79995000Y-108295000D01*
X71450000Y-91180000D02*
X72120000Y-91850000D01*
X83560000Y-111860000D02*
X84290000Y-111860000D01*
X72120000Y-91850000D02*
X72120000Y-107830000D01*
X71460000Y-91200000D02*
X71450000Y-91190000D01*
X72120000Y-107830000D02*
X72585000Y-108295000D01*
X79995000Y-108295000D02*
X83560000Y-111860000D01*
%TO.N,/CAN2_E*%
X86142800Y-114507200D02*
X97932800Y-114507200D01*
X97932800Y-114507200D02*
X97990000Y-114450000D01*
X85790000Y-114860000D02*
X86142800Y-114507200D01*
%TO.N,/CAN3_R*%
X87127200Y-114197200D02*
X86790000Y-113860000D01*
X97650000Y-114080000D02*
X97532800Y-114197200D01*
X97532800Y-114197200D02*
X87127200Y-114197200D01*
%TO.N,/CAN1_R*%
X91610000Y-98110000D02*
X91580000Y-98080000D01*
X90910000Y-97170000D02*
X80980000Y-97170000D01*
X83655001Y-110455001D02*
X83810000Y-110610000D01*
X83810000Y-110610000D02*
X83810000Y-110840000D01*
X83810000Y-110840000D02*
X83790000Y-110860000D01*
X91580000Y-98080000D02*
X91580000Y-97840000D01*
X83655001Y-110245001D02*
X83655001Y-110455001D01*
X80242800Y-106832800D02*
X83655001Y-110245001D01*
X91580000Y-97840000D02*
X90910000Y-97170000D01*
X80242800Y-97907200D02*
X80242800Y-106832800D01*
X80980000Y-97170000D02*
X80242800Y-97907200D01*
%TO.N,/CAN1_E*%
X86980000Y-96220000D02*
X86400000Y-96800000D01*
X80970000Y-96800000D02*
X79802800Y-97967200D01*
X83327269Y-111360000D02*
X84290000Y-111360000D01*
X86400000Y-96800000D02*
X80970000Y-96800000D01*
X79802800Y-97967200D02*
X79802800Y-107835531D01*
X79802800Y-107835531D02*
X83327269Y-111360000D01*
X86980000Y-91610000D02*
X86980000Y-96220000D01*
%TO.N,/CAN2_T*%
X83832201Y-110172201D02*
X83832201Y-110171602D01*
X83832201Y-110171602D02*
X80670000Y-107009402D01*
X83987200Y-110557200D02*
X83987200Y-110536602D01*
X83962800Y-110495531D02*
X83962800Y-110302800D01*
X83962800Y-110302800D02*
X83832201Y-110172201D01*
X83958331Y-110500000D02*
X83962800Y-110495531D01*
X80670000Y-107009402D02*
X80670000Y-98510000D01*
X83950599Y-110500000D02*
X83958331Y-110500000D01*
X84290000Y-110860000D02*
X83987200Y-110557200D01*
X83987200Y-110536602D02*
X83950599Y-110500000D01*
%TO.N,Net-(U7-NRST)*%
X84290000Y-112860000D02*
X84260000Y-112860000D01*
X80040000Y-108640000D02*
X71890000Y-108640000D01*
X71890000Y-108640000D02*
X71490000Y-108240000D01*
X71490000Y-108240000D02*
X71490000Y-98580000D01*
X84260000Y-112860000D02*
X80040000Y-108640000D01*
%TO.N,/UART_RX*%
X85123635Y-111063635D02*
X85427200Y-110760069D01*
X84962800Y-111224469D02*
X85123635Y-111063635D01*
X85427200Y-108512800D02*
X86170000Y-107770000D01*
X85617200Y-112649931D02*
X85350000Y-112382731D01*
X86170000Y-107770000D02*
X89660000Y-107770000D01*
X85290000Y-113360000D02*
X85617200Y-113032800D01*
X85350000Y-111920000D02*
X84962800Y-111532800D01*
X85350000Y-112382731D02*
X85350000Y-111920000D01*
X85617200Y-113032800D02*
X85617200Y-112649931D01*
X85427200Y-110760069D02*
X85427200Y-108512800D01*
X84962800Y-111532800D02*
X84962800Y-111224469D01*
%TO.N,/SPI_MISO*%
X85290000Y-114360000D02*
X85400000Y-114250000D01*
%TO.N,/SOM_GPIO*%
X85840000Y-129800000D02*
X88400000Y-129800000D01*
X83790000Y-113360000D02*
X82785600Y-114364400D01*
X85367800Y-128517800D02*
X85367800Y-129327800D01*
X82785600Y-114364400D02*
X82785600Y-125935600D01*
X85367800Y-129327800D02*
X85840000Y-129800000D01*
X88400000Y-129800000D02*
X89500000Y-128700000D01*
X82785600Y-125935600D02*
X85367800Y-128517800D01*
%TO.N,/PWR_READOUT2*%
X84760000Y-127120000D02*
X103160000Y-127120000D01*
X83790000Y-114360000D02*
X83790000Y-126150000D01*
X103160000Y-127120000D02*
X104740000Y-128700000D01*
X83790000Y-126150000D02*
X84760000Y-127120000D01*
%TO.N,/BOOTKICK*%
X85910000Y-128700000D02*
X86960000Y-128700000D01*
X83790000Y-113860000D02*
X82962800Y-114687200D01*
X82962800Y-114687200D02*
X82962800Y-125752800D01*
X82962800Y-125752800D02*
X85910000Y-128700000D01*
%TO.N,/AUDIO_DFSDM1_CKOUT*%
X85780000Y-124740000D02*
X85780000Y-115312731D01*
X84977200Y-114170000D02*
X84980000Y-114170000D01*
X84962800Y-114184400D02*
X84977200Y-114170000D01*
X85780000Y-115312731D02*
X84962800Y-114495531D01*
X84980000Y-114170000D02*
X85290000Y-113860000D01*
X84962800Y-114495531D02*
X84962800Y-114184400D01*
%TO.N,/AUDIO_SAI4_SD_A*%
X93191000Y-113882800D02*
X93203800Y-113870000D01*
X87350069Y-113882800D02*
X93191000Y-113882800D01*
X86617200Y-113532800D02*
X87000069Y-113532800D01*
X87000069Y-113532800D02*
X87350069Y-113882800D01*
X86290000Y-113860000D02*
X86617200Y-113532800D01*
%TO.N,/SWDIO*%
X87283634Y-110403634D02*
X96516366Y-110403634D01*
X96516366Y-110403634D02*
X96530000Y-110390000D01*
X86790000Y-111360000D02*
X86790000Y-110897268D01*
X86790000Y-110897268D02*
X87283634Y-110403634D01*
%TO.N,/NJTRST*%
X84290000Y-110360000D02*
X81505000Y-107575000D01*
X81575958Y-107504042D02*
X81575958Y-107454042D01*
X81390000Y-107460000D02*
X81380000Y-107460000D01*
X81505000Y-107575000D02*
X81390000Y-107460000D01*
X81505000Y-107575000D02*
X81575958Y-107504042D01*
%TO.N,/TRACESWO*%
X84700000Y-112450000D02*
X84790000Y-112360000D01*
%TO.N,/LED_RED*%
X97370000Y-117440000D02*
X99650000Y-117440000D01*
X86370000Y-111780000D02*
X85790000Y-112360000D01*
X100030000Y-112810000D02*
X99000000Y-111780000D01*
X99000000Y-111780000D02*
X86370000Y-111780000D01*
X99650000Y-117440000D02*
X100030000Y-117060000D01*
X100030000Y-117060000D02*
X100030000Y-112810000D01*
%TO.N,/LED_GREEN*%
X99852800Y-112932800D02*
X99852800Y-116747200D01*
X99852800Y-116747200D02*
X99520000Y-117080000D01*
X99520000Y-117080000D02*
X95590000Y-117080000D01*
X98952800Y-112032800D02*
X99852800Y-112932800D01*
X86290000Y-112360000D02*
X86617200Y-112032800D01*
X86617200Y-112032800D02*
X98952800Y-112032800D01*
%TO.N,/LED_BLUE*%
X99560000Y-116270000D02*
X99560000Y-113060000D01*
X99240000Y-116590000D02*
X99560000Y-116270000D01*
X98860000Y-112360000D02*
X86790000Y-112360000D01*
X94330000Y-117220000D02*
X94940000Y-116610000D01*
X94330000Y-122603800D02*
X94330000Y-117220000D01*
X99560000Y-113060000D02*
X98860000Y-112360000D01*
X94940000Y-116610000D02*
X99240000Y-116610000D01*
X86810000Y-112340000D02*
X86790000Y-112360000D01*
X99240000Y-116610000D02*
X99240000Y-116590000D01*
X94336200Y-122610000D02*
X94330000Y-122603800D01*
%TO.N,/UART_TX*%
X85290000Y-112860000D02*
X85155001Y-112725001D01*
X85250000Y-110370000D02*
X85250000Y-108260000D01*
X84740000Y-111840000D02*
X84740000Y-110880000D01*
X85155001Y-112255001D02*
X84740000Y-111840000D01*
X85155001Y-112725001D02*
X85155001Y-112255001D01*
X90463800Y-107420000D02*
X90473800Y-107430000D01*
X84740000Y-110880000D02*
X85250000Y-110370000D01*
X85250000Y-108260000D02*
X86090000Y-107420000D01*
X86090000Y-107420000D02*
X90463800Y-107420000D01*
%TD*%
M02*
