%TF.GenerationSoftware,KiCad,Pcbnew,9.0.4*%
%TF.CreationDate,2025-09-29T16:36:38+03:00*%
%TF.ProjectId,Asius2,41736975-7332-42e6-9b69-6361645f7063,rev?*%
%TF.SameCoordinates,Original*%
%TF.FileFunction,Paste,Top*%
%TF.FilePolarity,Positive*%
%FSLAX46Y46*%
G04 Gerber Fmt 4.6, Leading zero omitted, Abs format (unit mm)*
G04 Created by KiCad (PCBNEW 9.0.4) date 2025-09-29 16:36:38*
%MOMM*%
%LPD*%
G01*
G04 APERTURE LIST*
G04 Aperture macros list*
%AMRoundRect*
0 Rectangle with rounded corners*
0 $1 Rounding radius*
0 $2 $3 $4 $5 $6 $7 $8 $9 X,Y pos of 4 corners*
0 Add a 4 corners polygon primitive as box body*
4,1,4,$2,$3,$4,$5,$6,$7,$8,$9,$2,$3,0*
0 Add four circle primitives for the rounded corners*
1,1,$1+$1,$2,$3*
1,1,$1+$1,$4,$5*
1,1,$1+$1,$6,$7*
1,1,$1+$1,$8,$9*
0 Add four rect primitives between the rounded corners*
20,1,$1+$1,$2,$3,$4,$5,0*
20,1,$1+$1,$4,$5,$6,$7,0*
20,1,$1+$1,$6,$7,$8,$9,0*
20,1,$1+$1,$8,$9,$2,$3,0*%
G04 Aperture macros list end*
%ADD10C,0.300000*%
%ADD11C,0.000000*%
%ADD12RoundRect,0.225000X0.250000X-0.225000X0.250000X0.225000X-0.250000X0.225000X-0.250000X-0.225000X0*%
%ADD13RoundRect,0.225000X-0.250000X0.225000X-0.250000X-0.225000X0.250000X-0.225000X0.250000X0.225000X0*%
%ADD14RoundRect,0.225000X0.225000X0.250000X-0.225000X0.250000X-0.225000X-0.250000X0.225000X-0.250000X0*%
%ADD15R,0.300000X0.900000*%
%ADD16RoundRect,0.200000X-0.275000X0.200000X-0.275000X-0.200000X0.275000X-0.200000X0.275000X0.200000X0*%
%ADD17RoundRect,0.150000X0.150000X-0.825000X0.150000X0.825000X-0.150000X0.825000X-0.150000X-0.825000X0*%
%ADD18RoundRect,0.225000X-0.225000X-0.250000X0.225000X-0.250000X0.225000X0.250000X-0.225000X0.250000X0*%
%ADD19RoundRect,0.200000X0.275000X-0.200000X0.275000X0.200000X-0.275000X0.200000X-0.275000X-0.200000X0*%
%ADD20C,0.270002*%
%ADD21RoundRect,0.200000X-0.200000X-0.275000X0.200000X-0.275000X0.200000X0.275000X-0.200000X0.275000X0*%
%ADD22R,0.610000X0.350000*%
%ADD23R,0.350000X0.610000*%
%ADD24RoundRect,0.250000X0.550000X-1.500000X0.550000X1.500000X-0.550000X1.500000X-0.550000X-1.500000X0*%
%ADD25R,1.000000X1.500000*%
%ADD26RoundRect,0.250000X0.475000X-0.250000X0.475000X0.250000X-0.475000X0.250000X-0.475000X-0.250000X0*%
%ADD27RoundRect,0.250000X-0.450000X-0.350000X0.450000X-0.350000X0.450000X0.350000X-0.450000X0.350000X0*%
%ADD28RoundRect,0.250000X0.250000X-0.475000X0.250000X0.475000X-0.250000X0.475000X-0.250000X-0.475000X0*%
%ADD29RoundRect,0.200000X0.200000X0.275000X-0.200000X0.275000X-0.200000X-0.275000X0.200000X-0.275000X0*%
%ADD30RoundRect,0.375000X0.625000X0.375000X-0.625000X0.375000X-0.625000X-0.375000X0.625000X-0.375000X0*%
%ADD31RoundRect,0.500000X0.500000X1.400000X-0.500000X1.400000X-0.500000X-1.400000X0.500000X-1.400000X0*%
G04 APERTURE END LIST*
D10*
%TO.C,USBC1*%
X83610000Y-78150500D02*
G75*
G02*
X83310000Y-78150500I-150000J0D01*
G01*
X83310000Y-78150500D02*
G75*
G02*
X83610000Y-78150500I150000J0D01*
G01*
X84010000Y-77450500D02*
G75*
G02*
X83710000Y-77450500I-150000J0D01*
G01*
X83710000Y-77450500D02*
G75*
G02*
X84010000Y-77450500I150000J0D01*
G01*
X84810000Y-77450500D02*
G75*
G02*
X84510000Y-77450500I-150000J0D01*
G01*
X84510000Y-77450500D02*
G75*
G02*
X84810000Y-77450500I150000J0D01*
G01*
X85210500Y-78150500D02*
G75*
G02*
X84909500Y-78150500I-150500J0D01*
G01*
X84909500Y-78150500D02*
G75*
G02*
X85210500Y-78150500I150500J0D01*
G01*
X85610000Y-77450500D02*
G75*
G02*
X85310000Y-77450500I-150000J0D01*
G01*
X85310000Y-77450500D02*
G75*
G02*
X85610000Y-77450500I150000J0D01*
G01*
X86010000Y-78150500D02*
G75*
G02*
X85710000Y-78150500I-150000J0D01*
G01*
X85710000Y-78150500D02*
G75*
G02*
X86010000Y-78150500I150000J0D01*
G01*
X86810000Y-78150500D02*
G75*
G02*
X86510000Y-78150500I-150000J0D01*
G01*
X86510000Y-78150500D02*
G75*
G02*
X86810000Y-78150500I150000J0D01*
G01*
X87210500Y-77450500D02*
G75*
G02*
X86909500Y-77450500I-150500J0D01*
G01*
X86909500Y-77450500D02*
G75*
G02*
X87210500Y-77450500I150500J0D01*
G01*
X87610000Y-78150500D02*
G75*
G02*
X87310000Y-78150500I-150000J0D01*
G01*
X87310000Y-78150500D02*
G75*
G02*
X87610000Y-78150500I150000J0D01*
G01*
X88010000Y-77450500D02*
G75*
G02*
X87710000Y-77450500I-150000J0D01*
G01*
X87710000Y-77450500D02*
G75*
G02*
X88010000Y-77450500I150000J0D01*
G01*
X88810000Y-77450500D02*
G75*
G02*
X88510000Y-77450500I-150000J0D01*
G01*
X88510000Y-77450500D02*
G75*
G02*
X88810000Y-77450500I150000J0D01*
G01*
X89210500Y-78150500D02*
G75*
G02*
X88909500Y-78150500I-150500J0D01*
G01*
X88909500Y-78150500D02*
G75*
G02*
X89210500Y-78150500I150500J0D01*
G01*
D11*
G36*
X83660500Y-79810000D02*
G01*
X83360000Y-79810000D01*
X83360000Y-78910000D01*
X83660500Y-78910000D01*
X83660500Y-79810000D01*
G37*
G36*
X84160000Y-79810500D02*
G01*
X83860000Y-79810500D01*
X83860000Y-78910500D01*
X84160000Y-78910500D01*
X84160000Y-79810500D01*
G37*
G36*
X84660000Y-79810500D02*
G01*
X84360000Y-79810500D01*
X84360000Y-78910500D01*
X84660000Y-78910500D01*
X84660000Y-79810500D01*
G37*
G36*
X85160000Y-79810500D02*
G01*
X84860000Y-79810500D01*
X84860000Y-78910500D01*
X85160000Y-78910500D01*
X85160000Y-79810500D01*
G37*
G36*
X85660000Y-79810500D02*
G01*
X85360000Y-79810500D01*
X85360000Y-78910500D01*
X85660000Y-78910500D01*
X85660000Y-79810500D01*
G37*
G36*
X86160000Y-79810500D02*
G01*
X85860000Y-79810500D01*
X85860000Y-78910500D01*
X86160000Y-78910500D01*
X86160000Y-79810500D01*
G37*
G36*
X86660000Y-79810500D02*
G01*
X86360000Y-79810500D01*
X86360000Y-78910500D01*
X86660000Y-78910500D01*
X86660000Y-79810500D01*
G37*
G36*
X87160000Y-79810500D02*
G01*
X86860000Y-79810500D01*
X86860000Y-78910500D01*
X87160000Y-78910500D01*
X87160000Y-79810500D01*
G37*
G36*
X87660000Y-79810500D02*
G01*
X87360000Y-79810500D01*
X87360000Y-78910500D01*
X87660000Y-78910500D01*
X87660000Y-79810500D01*
G37*
G36*
X88160000Y-79810500D02*
G01*
X87860000Y-79810500D01*
X87860000Y-78910500D01*
X88160000Y-78910500D01*
X88160000Y-79810500D01*
G37*
G36*
X88660000Y-79810500D02*
G01*
X88360000Y-79810500D01*
X88360000Y-78910500D01*
X88660000Y-78910500D01*
X88660000Y-79810500D01*
G37*
G36*
X89160000Y-79810500D02*
G01*
X88860000Y-79810500D01*
X88860000Y-78910500D01*
X89160000Y-78910500D01*
X89160000Y-79810500D01*
G37*
G36*
X81270000Y-72860500D02*
G01*
X81270000Y-72860500D01*
G75*
G02*
X82270000Y-72860500I500000J0D01*
G01*
X82270000Y-73460500D01*
G75*
G02*
X81270000Y-73460500I-500000J0D01*
G01*
X81270000Y-72860500D01*
G37*
G36*
X81630000Y-77260500D02*
G01*
X81630000Y-77260500D01*
G75*
G02*
X82630000Y-77260500I500000J0D01*
G01*
X82630000Y-77860500D01*
G75*
G02*
X81630000Y-77860500I-500000J0D01*
G01*
X81630000Y-77260500D01*
G37*
G36*
X89890000Y-77260500D02*
G01*
X89890000Y-77260500D01*
G75*
G02*
X90890000Y-77260500I500000J0D01*
G01*
X90890000Y-77860500D01*
G75*
G02*
X89890000Y-77860500I-500000J0D01*
G01*
X89890000Y-77260500D01*
G37*
G36*
X90250000Y-72860500D02*
G01*
X90250000Y-72860500D01*
G75*
G02*
X91250000Y-72860500I500000J0D01*
G01*
X91250000Y-73460500D01*
G75*
G02*
X90250000Y-73460500I-500000J0D01*
G01*
X90250000Y-72860500D01*
G37*
%TD*%
D12*
%TO.C,C15*%
X72890000Y-97515000D03*
X72890000Y-95965000D03*
%TD*%
D13*
%TO.C,C12*%
X99180000Y-74695000D03*
X99180000Y-76245000D03*
%TD*%
%TO.C,C11*%
X103240000Y-72645000D03*
X103240000Y-74195000D03*
%TD*%
D14*
%TO.C,C10*%
X97155000Y-98380000D03*
X95605000Y-98380000D03*
%TD*%
%TO.C,C9*%
X77050000Y-98830000D03*
X75500000Y-98830000D03*
%TD*%
%TO.C,C6*%
X83345000Y-98720000D03*
X81795000Y-98720000D03*
%TD*%
%TO.C,C5*%
X90425000Y-98670000D03*
X88875000Y-98670000D03*
%TD*%
D15*
%TO.C,USBC1*%
X89010500Y-79360000D03*
X88510000Y-79360000D03*
X88010000Y-79360000D03*
X87510000Y-79360000D03*
X87010000Y-79360000D03*
X86510000Y-79360000D03*
X86010000Y-79360000D03*
X85510000Y-79360000D03*
X85010000Y-79360000D03*
X84510000Y-79360000D03*
X84010000Y-79360000D03*
X83510000Y-79360000D03*
%TD*%
D16*
%TO.C,R5*%
X82830000Y-88265000D03*
X82830000Y-89915000D03*
%TD*%
D17*
%TO.C,U2*%
X87800000Y-96650000D03*
X89070000Y-96650000D03*
X90340000Y-96650000D03*
X91610000Y-96650000D03*
X91610000Y-91700000D03*
X90340000Y-91700000D03*
X89070000Y-91700000D03*
X87800000Y-91700000D03*
%TD*%
D16*
%TO.C,R9*%
X96660000Y-87860000D03*
X96660000Y-89510000D03*
%TD*%
D18*
%TO.C,C2*%
X67650000Y-79010000D03*
X69200000Y-79010000D03*
%TD*%
D19*
%TO.C,R10*%
X95160000Y-89510000D03*
X95160000Y-87860000D03*
%TD*%
D20*
%TO.C,U7*%
X81790000Y-109860000D03*
X82290000Y-109860000D03*
X82790000Y-109860000D03*
X83290000Y-109860000D03*
X83790000Y-109860000D03*
X84290000Y-109860000D03*
X84790000Y-109860000D03*
X85290000Y-109860000D03*
X85790000Y-109860000D03*
X86290000Y-109860000D03*
X86790000Y-109860000D03*
X87290000Y-109860000D03*
X87790000Y-109860000D03*
X81790000Y-110360000D03*
X82290000Y-110360000D03*
X82790000Y-110360000D03*
X83290000Y-110360000D03*
X83790000Y-110360000D03*
X84290000Y-110360000D03*
X84790000Y-110360000D03*
X85290000Y-110360000D03*
X85790000Y-110360000D03*
X86290000Y-110360000D03*
X86790000Y-110360000D03*
X87290000Y-110360000D03*
X87790000Y-110360000D03*
X81790000Y-110860000D03*
X82290000Y-110860000D03*
X82790000Y-110860000D03*
X83290000Y-110860000D03*
X83790000Y-110860000D03*
X84290000Y-110860000D03*
X84790000Y-110860000D03*
X85290000Y-110860000D03*
X85790000Y-110860000D03*
X86290000Y-110860000D03*
X86790000Y-110860000D03*
X87290000Y-110860000D03*
X87790000Y-110860000D03*
X81790000Y-111360000D03*
X82290000Y-111360000D03*
X82790000Y-111360000D03*
X83290000Y-111360000D03*
X83790000Y-111360000D03*
X84290000Y-111360000D03*
X84790000Y-111360000D03*
X85290000Y-111360000D03*
X85790000Y-111360000D03*
X86290000Y-111360000D03*
X86790000Y-111360000D03*
X87290000Y-111360000D03*
X87790000Y-111360000D03*
X81790000Y-111860000D03*
X82290000Y-111860000D03*
X82790000Y-111860000D03*
X83290000Y-111860000D03*
X83790000Y-111860000D03*
X84290000Y-111860000D03*
X84790000Y-111860000D03*
X85290000Y-111860000D03*
X85790000Y-111860000D03*
X86290000Y-111860000D03*
X86790000Y-111860000D03*
X87290000Y-111860000D03*
X87790000Y-111860000D03*
X81790000Y-112360000D03*
X82290000Y-112360000D03*
X82790000Y-112360000D03*
X83290000Y-112360000D03*
X83790000Y-112360000D03*
X84290000Y-112360000D03*
X84790000Y-112360000D03*
X85290000Y-112360000D03*
X85790000Y-112360000D03*
X86290000Y-112360000D03*
X86790000Y-112360000D03*
X87290000Y-112360000D03*
X87790000Y-112360000D03*
X81790000Y-112860000D03*
X82290000Y-112860000D03*
X82790000Y-112860000D03*
X83290000Y-112860000D03*
X83790000Y-112860000D03*
X84290000Y-112860000D03*
X84790000Y-112860000D03*
X85290000Y-112860000D03*
X85790000Y-112860000D03*
X86290000Y-112860000D03*
X86790000Y-112860000D03*
X87290000Y-112860000D03*
X87790000Y-112860000D03*
X81790000Y-113360000D03*
X82290000Y-113360000D03*
X82790000Y-113360000D03*
X83290000Y-113360000D03*
X83790000Y-113360000D03*
X84290000Y-113360000D03*
X84790000Y-113360000D03*
X85290000Y-113360000D03*
X85790000Y-113360000D03*
X86290000Y-113360000D03*
X86790000Y-113360000D03*
X87290000Y-113360000D03*
X87790000Y-113360000D03*
X81790000Y-113860000D03*
X82290000Y-113860000D03*
X82790000Y-113860000D03*
X83290000Y-113860000D03*
X83790000Y-113860000D03*
X84290000Y-113860000D03*
X84790000Y-113860000D03*
X85290000Y-113860000D03*
X85790000Y-113860000D03*
X86290000Y-113860000D03*
X86790000Y-113860000D03*
X87290000Y-113860000D03*
X87790000Y-113860000D03*
X81790000Y-114360000D03*
X82290000Y-114360000D03*
X82790000Y-114360000D03*
X83290000Y-114360000D03*
X83790000Y-114360000D03*
X84290000Y-114360000D03*
X84790000Y-114360000D03*
X85290000Y-114360000D03*
X85790000Y-114360000D03*
X86290000Y-114360000D03*
X86790000Y-114360000D03*
X87290000Y-114360000D03*
X87790000Y-114360000D03*
X81790000Y-114860000D03*
X82290000Y-114860000D03*
X82790000Y-114860000D03*
X83290000Y-114860000D03*
X83790000Y-114860000D03*
X84290000Y-114860000D03*
X84790000Y-114860000D03*
X85290000Y-114860000D03*
X85790000Y-114860000D03*
X86290000Y-114860000D03*
X86790000Y-114860000D03*
X87290000Y-114860000D03*
X87790000Y-114860000D03*
X81790000Y-115360000D03*
X82290000Y-115360000D03*
X82790000Y-115360000D03*
X83290000Y-115360000D03*
X83790000Y-115360000D03*
X84290000Y-115360000D03*
X84790000Y-115360000D03*
X85290000Y-115360000D03*
X85790000Y-115360000D03*
X86290000Y-115360000D03*
X86790000Y-115360000D03*
X87290000Y-115360000D03*
X87790000Y-115360000D03*
X81790000Y-115860000D03*
X82290000Y-115860000D03*
X82790000Y-115860000D03*
X83290000Y-115860000D03*
X83790000Y-115860000D03*
X84290000Y-115860000D03*
X84790000Y-115860000D03*
X85290000Y-115860000D03*
X85790000Y-115860000D03*
X86290000Y-115860000D03*
X86790000Y-115860000D03*
X87290000Y-115860000D03*
X87790000Y-115860000D03*
%TD*%
D12*
%TO.C,C13*%
X79530000Y-112755000D03*
X79530000Y-111205000D03*
%TD*%
D13*
%TO.C,C14*%
X79540000Y-114160000D03*
X79540000Y-115710000D03*
%TD*%
D17*
%TO.C,U3*%
X80675000Y-96765000D03*
X81945000Y-96765000D03*
X83215000Y-96765000D03*
X84485000Y-96765000D03*
X84485000Y-91815000D03*
X83215000Y-91815000D03*
X81945000Y-91815000D03*
X80675000Y-91815000D03*
%TD*%
D21*
%TO.C,R12*%
X95415000Y-71570000D03*
X97065000Y-71570000D03*
%TD*%
D16*
%TO.C,R14*%
X95590000Y-119665000D03*
X95590000Y-121315000D03*
%TD*%
D19*
%TO.C,R4*%
X88405000Y-89800000D03*
X88405000Y-88150000D03*
%TD*%
D22*
%TO.C,U6*%
X99510000Y-71660000D03*
X99510000Y-72160000D03*
X99510000Y-72660000D03*
X99510000Y-73160000D03*
D23*
X100170000Y-73320000D03*
X100670000Y-73320000D03*
X101170000Y-73320000D03*
D22*
X101830000Y-73160000D03*
X101830000Y-72660000D03*
X101830000Y-72160000D03*
X101830000Y-71660000D03*
D23*
X101170000Y-71500000D03*
X100670000Y-71500000D03*
X100170000Y-71500000D03*
%TD*%
D24*
%TO.C,C40*%
X96460000Y-83530000D03*
X96460000Y-77930000D03*
%TD*%
D12*
%TO.C,C3*%
X91405000Y-89750000D03*
X91405000Y-88200000D03*
%TD*%
D13*
%TO.C,C19*%
X86290000Y-118125000D03*
X86290000Y-119675000D03*
%TD*%
D25*
%TO.C,D1*%
X98720000Y-120330000D03*
X97320000Y-120330000D03*
X97320000Y-123830000D03*
X98720000Y-123830000D03*
%TD*%
D16*
%TO.C,R15*%
X95630000Y-122645000D03*
X95630000Y-124295000D03*
%TD*%
D26*
%TO.C,C41*%
X105150000Y-74340000D03*
X105150000Y-72440000D03*
%TD*%
D16*
%TO.C,R3*%
X89905000Y-88150000D03*
X89905000Y-89800000D03*
%TD*%
D27*
%TO.C,Y1*%
X75560000Y-114430000D03*
X77760000Y-114430000D03*
X77760000Y-112730000D03*
X75560000Y-112730000D03*
%TD*%
D28*
%TO.C,SW1*%
X67830000Y-90025000D03*
X67830000Y-84875000D03*
X69530000Y-90025000D03*
X69530000Y-84875000D03*
%TD*%
D19*
%TO.C,R6*%
X81330000Y-89940000D03*
X81330000Y-88290000D03*
%TD*%
D16*
%TO.C,R2*%
X87200000Y-83020000D03*
X87200000Y-84670000D03*
%TD*%
D14*
%TO.C,C1*%
X78165000Y-72990000D03*
X76615000Y-72990000D03*
%TD*%
D19*
%TO.C,R8*%
X75070000Y-90050000D03*
X75070000Y-88400000D03*
%TD*%
D21*
%TO.C,R11*%
X95435000Y-73090000D03*
X97085000Y-73090000D03*
%TD*%
D29*
%TO.C,R1*%
X80815000Y-71370000D03*
X79165000Y-71370000D03*
%TD*%
D16*
%TO.C,R7*%
X76570000Y-88375000D03*
X76570000Y-90025000D03*
%TD*%
D21*
%TO.C,R13*%
X97355000Y-118350000D03*
X99005000Y-118350000D03*
%TD*%
D18*
%TO.C,C18*%
X90020000Y-111380000D03*
X91570000Y-111380000D03*
%TD*%
D17*
%TO.C,U5*%
X94505000Y-96385000D03*
X95775000Y-96385000D03*
X97045000Y-96385000D03*
X98315000Y-96385000D03*
X98315000Y-91435000D03*
X97045000Y-91435000D03*
X95775000Y-91435000D03*
X94505000Y-91435000D03*
%TD*%
D12*
%TO.C,C7*%
X78070000Y-89975000D03*
X78070000Y-88425000D03*
%TD*%
D30*
%TO.C,U1*%
X74530000Y-76940000D03*
X74530000Y-74640000D03*
D31*
X68230000Y-74640000D03*
D30*
X74530000Y-72340000D03*
%TD*%
D12*
%TO.C,C8*%
X98160000Y-89485000D03*
X98160000Y-87935000D03*
%TD*%
D17*
%TO.C,U4*%
X74415000Y-96875000D03*
X75685000Y-96875000D03*
X76955000Y-96875000D03*
X78225000Y-96875000D03*
X78225000Y-91925000D03*
X76955000Y-91925000D03*
X75685000Y-91925000D03*
X74415000Y-91925000D03*
%TD*%
D12*
%TO.C,C17*%
X83290000Y-107605000D03*
X83290000Y-106055000D03*
%TD*%
D16*
%TO.C,R17*%
X71430000Y-95910000D03*
X71430000Y-97560000D03*
%TD*%
D28*
%TO.C,SW2*%
X67850000Y-97175000D03*
X67850000Y-92025000D03*
X69550000Y-97175000D03*
X69550000Y-92025000D03*
%TD*%
D12*
%TO.C,C4*%
X84330000Y-89865000D03*
X84330000Y-88315000D03*
%TD*%
D19*
%TO.C,R16*%
X71450000Y-90045000D03*
X71450000Y-88395000D03*
%TD*%
M02*
