%TF.GenerationSoftware,KiCad,Pcbnew,9.0.4*%
%TF.CreationDate,2025-09-29T16:36:38+03:00*%
%TF.ProjectId,Asius2,41736975-7332-42e6-9b69-6361645f7063,rev?*%
%TF.SameCoordinates,Original*%
%TF.FileFunction,Copper,L6,Bot*%
%TF.FilePolarity,Positive*%
%FSLAX46Y46*%
G04 Gerber Fmt 4.6, Leading zero omitted, Abs format (unit mm)*
G04 Created by KiCad (PCBNEW 9.0.4) date 2025-09-29 16:36:38*
%MOMM*%
%LPD*%
G01*
G04 APERTURE LIST*
G04 Aperture macros list*
%AMRoundRect*
0 Rectangle with rounded corners*
0 $1 Rounding radius*
0 $2 $3 $4 $5 $6 $7 $8 $9 X,Y pos of 4 corners*
0 Add a 4 corners polygon primitive as box body*
4,1,4,$2,$3,$4,$5,$6,$7,$8,$9,$2,$3,0*
0 Add four circle primitives for the rounded corners*
1,1,$1+$1,$2,$3*
1,1,$1+$1,$4,$5*
1,1,$1+$1,$6,$7*
1,1,$1+$1,$8,$9*
0 Add four rect primitives between the rounded corners*
20,1,$1+$1,$2,$3,$4,$5,0*
20,1,$1+$1,$4,$5,$6,$7,0*
20,1,$1+$1,$6,$7,$8,$9,0*
20,1,$1+$1,$8,$9,$2,$3,0*%
G04 Aperture macros list end*
%TA.AperFunction,SMDPad,CuDef*%
%ADD10RoundRect,0.225000X0.225000X0.250000X-0.225000X0.250000X-0.225000X-0.250000X0.225000X-0.250000X0*%
%TD*%
%TA.AperFunction,SMDPad,CuDef*%
%ADD11RoundRect,0.225000X-0.250000X0.225000X-0.250000X-0.225000X0.250000X-0.225000X0.250000X0.225000X0*%
%TD*%
%TA.AperFunction,SMDPad,CuDef*%
%ADD12RoundRect,0.225000X-0.225000X-0.250000X0.225000X-0.250000X0.225000X0.250000X-0.225000X0.250000X0*%
%TD*%
%TA.AperFunction,SMDPad,CuDef*%
%ADD13RoundRect,0.225000X0.250000X-0.225000X0.250000X0.225000X-0.250000X0.225000X-0.250000X-0.225000X0*%
%TD*%
%TA.AperFunction,ComponentPad*%
%ADD14C,0.600000*%
%TD*%
%TA.AperFunction,ComponentPad*%
%ADD15O,1.000000X1.600000*%
%TD*%
%TA.AperFunction,ComponentPad*%
%ADD16R,1.700000X1.700000*%
%TD*%
%TA.AperFunction,ComponentPad*%
%ADD17C,1.700000*%
%TD*%
%TA.AperFunction,ViaPad*%
%ADD18C,0.600000*%
%TD*%
%TA.AperFunction,ViaPad*%
%ADD19C,0.400000*%
%TD*%
%TA.AperFunction,Conductor*%
%ADD20C,0.200000*%
%TD*%
%TA.AperFunction,Conductor*%
%ADD21C,0.100000*%
%TD*%
G04 APERTURE END LIST*
D10*
%TO.P,C39,2*%
%TO.N,GND*%
X78895000Y-111970000D03*
%TO.P,C39,1*%
%TO.N,+3.3V*%
X80445000Y-111970000D03*
%TD*%
%TO.P,C30,2*%
%TO.N,GND*%
X78915000Y-118030000D03*
%TO.P,C30,1*%
%TO.N,+3.3V*%
X80465000Y-118030000D03*
%TD*%
D11*
%TO.P,C31,2*%
%TO.N,GND*%
X83250000Y-118815000D03*
%TO.P,C31,1*%
%TO.N,+3.3V*%
X83250000Y-117265000D03*
%TD*%
%TO.P,C32,2*%
%TO.N,GND*%
X84760000Y-118810000D03*
%TO.P,C32,1*%
%TO.N,+3.3V*%
X84760000Y-117260000D03*
%TD*%
%TO.P,C38,1*%
%TO.N,+3.3V*%
X86270000Y-117255000D03*
%TO.P,C38,2*%
%TO.N,GND*%
X86270000Y-118805000D03*
%TD*%
D12*
%TO.P,C37,1*%
%TO.N,+3.3V*%
X89205000Y-111380000D03*
%TO.P,C37,2*%
%TO.N,GND*%
X90755000Y-111380000D03*
%TD*%
D13*
%TO.P,C36,1*%
%TO.N,+3.3V*%
X83710000Y-108435000D03*
%TO.P,C36,2*%
%TO.N,GND*%
X83710000Y-106885000D03*
%TD*%
D10*
%TO.P,C35,1*%
%TO.N,+3.3V*%
X80475000Y-116500000D03*
%TO.P,C35,2*%
%TO.N,GND*%
X78925000Y-116500000D03*
%TD*%
D12*
%TO.P,C34,1*%
%TO.N,+3.3V*%
X89205000Y-112840000D03*
%TO.P,C34,2*%
%TO.N,GND*%
X90755000Y-112840000D03*
%TD*%
D11*
%TO.P,C33,1*%
%TO.N,+3.3V*%
X87750000Y-117255000D03*
%TO.P,C33,2*%
%TO.N,GND*%
X87750000Y-118805000D03*
%TD*%
D12*
%TO.P,C29,1*%
%TO.N,+3.3V*%
X89205000Y-115780000D03*
%TO.P,C29,2*%
%TO.N,GND*%
X90755000Y-115780000D03*
%TD*%
%TO.P,C28,1*%
%TO.N,+3.3V*%
X89215000Y-114300000D03*
%TO.P,C28,2*%
%TO.N,GND*%
X90765000Y-114300000D03*
%TD*%
D10*
%TO.P,C27,1*%
%TO.N,+3.3V*%
X80445000Y-113470000D03*
%TO.P,C27,2*%
%TO.N,GND*%
X78895000Y-113470000D03*
%TD*%
%TO.P,C26,1*%
%TO.N,+3.3V*%
X80450000Y-110500000D03*
%TO.P,C26,2*%
%TO.N,GND*%
X78900000Y-110500000D03*
%TD*%
D12*
%TO.P,C25,1*%
%TO.N,+3.3V*%
X89195000Y-109900000D03*
%TO.P,C25,2*%
%TO.N,GND*%
X90745000Y-109900000D03*
%TD*%
D13*
%TO.P,C24,1*%
%TO.N,+3.3V*%
X88090000Y-108430000D03*
%TO.P,C24,2*%
%TO.N,GND*%
X88090000Y-106880000D03*
%TD*%
%TO.P,C23,1*%
%TO.N,+3.3V*%
X86630000Y-108430000D03*
%TO.P,C23,2*%
%TO.N,GND*%
X86630000Y-106880000D03*
%TD*%
%TO.P,C22,1*%
%TO.N,+3.3V*%
X85170000Y-108430000D03*
%TO.P,C22,2*%
%TO.N,GND*%
X85170000Y-106880000D03*
%TD*%
%TO.P,C21,1*%
%TO.N,+3.3V*%
X82250000Y-108425000D03*
%TO.P,C21,2*%
%TO.N,GND*%
X82250000Y-106875000D03*
%TD*%
D10*
%TO.P,C20,1*%
%TO.N,+3.3V*%
X80450000Y-109030000D03*
%TO.P,C20,2*%
%TO.N,GND*%
X78900000Y-109030000D03*
%TD*%
%TO.P,C16,1*%
%TO.N,+3.3V*%
X80465000Y-114970000D03*
%TO.P,C16,2*%
%TO.N,GND*%
X78915000Y-114970000D03*
%TD*%
D14*
%TO.P,USBC1,B1,GND*%
%TO.N,GND*%
X83460000Y-78150000D03*
%TO.P,USBC1,B2,SSTXp2*%
%TO.N,/CAN3_H*%
X83860000Y-77450000D03*
%TO.P,USBC1,B3,SSTXn2*%
%TO.N,/CAN3_L*%
X84660000Y-77450000D03*
%TO.P,USBC1,B4,VBUS*%
%TO.N,+5V*%
X85060000Y-78150000D03*
%TO.P,USBC1,B5,CC2*%
%TO.N,Net-(USBC1-CC2)*%
X85460000Y-77450000D03*
%TO.P,USBC1,B6,DP2*%
%TO.N,/USB_DP*%
X85860000Y-78150000D03*
%TO.P,USBC1,B7,DN2*%
%TO.N,/USB_DM*%
X86660000Y-78150000D03*
%TO.P,USBC1,B8,SUB2*%
%TO.N,/SBU2*%
X87060000Y-77450000D03*
%TO.P,USBC1,B9,VBUS*%
%TO.N,+5V*%
X87460000Y-78150000D03*
%TO.P,USBC1,B10,SSRXn1*%
%TO.N,/CAN4_L*%
X87860000Y-77450000D03*
%TO.P,USBC1,B11,SSRXp1*%
%TO.N,/CAN4_H*%
X88660000Y-77450000D03*
%TO.P,USBC1,B12,GND*%
%TO.N,GND*%
X89060000Y-78150000D03*
D15*
%TO.P,USBC1,S1,0*%
X90390000Y-77560000D03*
%TO.P,USBC1,S2,0*%
X82130000Y-77560000D03*
%TO.P,USBC1,S3,0*%
X90750000Y-73150000D03*
%TO.P,USBC1,S4,0*%
X81770000Y-73150000D03*
%TD*%
D16*
%TO.P,J2,1,Pin_1*%
%TO.N,unconnected-(J2-Pin_1-Pad1)*%
X102160000Y-76890000D03*
D17*
%TO.P,J2,2,Pin_2*%
%TO.N,+5V*%
X104700000Y-76890000D03*
%TO.P,J2,3,Pin_3*%
%TO.N,/IMU_SDA*%
X102160000Y-79430000D03*
%TO.P,J2,4,Pin_4*%
%TO.N,+5V*%
X104700000Y-79430000D03*
%TO.P,J2,5,Pin_5*%
%TO.N,/IMU_SCL*%
X102160000Y-81970000D03*
%TO.P,J2,6,Pin_6*%
%TO.N,GND*%
X104700000Y-81970000D03*
%TO.P,J2,7,Pin_7*%
%TO.N,unconnected-(J2-Pin_7-Pad7)*%
X102160000Y-84510000D03*
%TO.P,J2,8,Pin_8*%
%TO.N,/UART_RX*%
X104700000Y-84510000D03*
%TO.P,J2,9,Pin_9*%
%TO.N,GND*%
X102160000Y-87050000D03*
%TO.P,J2,10,Pin_10*%
%TO.N,/UART_TX*%
X104700000Y-87050000D03*
%TO.P,J2,11,Pin_11*%
%TO.N,unconnected-(J2-Pin_11-Pad11)*%
X102160000Y-89590000D03*
%TO.P,J2,12,Pin_12*%
%TO.N,unconnected-(J2-Pin_12-Pad12)*%
X104700000Y-89590000D03*
%TO.P,J2,13,Pin_13*%
%TO.N,unconnected-(J2-Pin_13-Pad13)*%
X102160000Y-92130000D03*
%TO.P,J2,14,Pin_14*%
%TO.N,GND*%
X104700000Y-92130000D03*
%TO.P,J2,15,Pin_15*%
%TO.N,unconnected-(J2-Pin_15-Pad15)*%
X102160000Y-94670000D03*
%TO.P,J2,16,Pin_16*%
%TO.N,unconnected-(J2-Pin_16-Pad16)*%
X104700000Y-94670000D03*
%TO.P,J2,17,Pin_17*%
%TO.N,unconnected-(J2-Pin_17-Pad17)*%
X102160000Y-97210000D03*
%TO.P,J2,18,Pin_18*%
%TO.N,unconnected-(J2-Pin_18-Pad18)*%
X104700000Y-97210000D03*
%TO.P,J2,19,Pin_19*%
%TO.N,/SPI_MOSI*%
X102160000Y-99750000D03*
%TO.P,J2,20,Pin_20*%
%TO.N,unconnected-(J2-Pin_20-Pad20)*%
X104700000Y-99750000D03*
%TO.P,J2,21,Pin_21*%
%TO.N,/SPI_MISO*%
X102160000Y-102290000D03*
%TO.P,J2,22,Pin_22*%
%TO.N,unconnected-(J2-Pin_22-Pad22)*%
X104700000Y-102290000D03*
%TO.P,J2,23,Pin_23*%
%TO.N,/SPI_SCK*%
X102160000Y-104830000D03*
%TO.P,J2,24,Pin_24*%
%TO.N,/SPI_NSS*%
X104700000Y-104830000D03*
%TO.P,J2,25,Pin_25*%
%TO.N,unconnected-(J2-Pin_25-Pad25)*%
X102160000Y-107370000D03*
%TO.P,J2,26,Pin_26*%
%TO.N,unconnected-(J2-Pin_26-Pad26)*%
X104700000Y-107370000D03*
%TO.P,J2,27,Pin_27*%
%TO.N,unconnected-(J2-Pin_27-Pad27)*%
X102160000Y-109910000D03*
%TO.P,J2,28,Pin_28*%
%TO.N,unconnected-(J2-Pin_28-Pad28)*%
X104700000Y-109910000D03*
%TO.P,J2,29,Pin_29*%
%TO.N,unconnected-(J2-Pin_29-Pad29)*%
X102160000Y-112450000D03*
%TO.P,J2,30,Pin_30*%
%TO.N,unconnected-(J2-Pin_30-Pad30)*%
X104700000Y-112450000D03*
%TO.P,J2,31,Pin_31*%
%TO.N,unconnected-(J2-Pin_31-Pad31)*%
X102160000Y-114990000D03*
%TO.P,J2,32,Pin_32*%
%TO.N,unconnected-(J2-Pin_32-Pad32)*%
X104700000Y-114990000D03*
%TO.P,J2,33,Pin_33*%
%TO.N,unconnected-(J2-Pin_33-Pad33)*%
X102160000Y-117530000D03*
%TO.P,J2,34,Pin_34*%
%TO.N,unconnected-(J2-Pin_34-Pad34)*%
X104700000Y-117530000D03*
%TO.P,J2,35,Pin_35*%
%TO.N,unconnected-(J2-Pin_35-Pad35)*%
X102160000Y-120070000D03*
%TO.P,J2,36,Pin_36*%
%TO.N,unconnected-(J2-Pin_36-Pad36)*%
X104700000Y-120070000D03*
%TO.P,J2,37,Pin_37*%
%TO.N,unconnected-(J2-Pin_37-Pad37)*%
X102160000Y-122610000D03*
%TO.P,J2,38,Pin_38*%
%TO.N,unconnected-(J2-Pin_38-Pad38)*%
X104700000Y-122610000D03*
%TO.P,J2,39,Pin_39*%
%TO.N,unconnected-(J2-Pin_39-Pad39)*%
X102160000Y-125150000D03*
%TO.P,J2,40,Pin_40*%
%TO.N,unconnected-(J2-Pin_40-Pad40)*%
X104700000Y-125150000D03*
%TD*%
D16*
%TO.P,J5,1,Pin_1*%
%TO.N,/AUDIO_SAI4_SCK_B*%
X83410000Y-128720000D03*
D17*
%TO.P,J5,2,Pin_2*%
%TO.N,/AUDIO_SAI4_FS_B*%
X80870000Y-128720000D03*
%TO.P,J5,3,Pin_3*%
%TO.N,/AUDIO_SAI4_SD_A*%
X78330000Y-128720000D03*
%TO.P,J5,4,Pin_4*%
%TO.N,/AUDIO_SAI4_SD_B*%
X75790000Y-128720000D03*
%TO.P,J5,5,Pin_5*%
%TO.N,/AUDIO_DFSDM1_DATIN3*%
X73250000Y-128720000D03*
%TO.P,J5,6,Pin_6*%
%TO.N,/AUDIO_DFSDM1_CKOUT*%
X70710000Y-128720000D03*
%TO.P,J5,7,Pin_7*%
%TO.N,/AUDIO_SAI4_MCLK_B*%
X68170000Y-128720000D03*
%TD*%
D16*
%TO.P,J1,1,Pin_1*%
%TO.N,GND*%
X68250000Y-122560000D03*
D17*
%TO.P,J1,2,Pin_2*%
%TO.N,+3.3V*%
X68250000Y-125100000D03*
%TD*%
D16*
%TO.P,J6,1,Pin_1*%
%TO.N,/SWDIO*%
X68300000Y-100190000D03*
D17*
%TO.P,J6,2,Pin_2*%
%TO.N,/SWCLK*%
X68300000Y-102730000D03*
%TO.P,J6,3,Pin_3*%
%TO.N,/JTDI*%
X68300000Y-105270000D03*
%TO.P,J6,4,Pin_4*%
%TO.N,/TRACESWO*%
X68300000Y-107810000D03*
%TO.P,J6,5,Pin_5*%
%TO.N,/NJTRST*%
X68300000Y-110350000D03*
%TD*%
D16*
%TO.P,J4,1,Pin_1*%
%TO.N,/FAN_ENABLE*%
X68250000Y-113920000D03*
D17*
%TO.P,J4,2,Pin_2*%
%TO.N,/FAN_TACHOMETER*%
X68250000Y-116460000D03*
%TO.P,J4,3,Pin_3*%
%TO.N,/FAN_SETUP*%
X68250000Y-119000000D03*
%TD*%
D16*
%TO.P,J3,1,Pin_1*%
%TO.N,/BOOTKICK*%
X86960000Y-128700000D03*
D17*
%TO.P,J3,2,Pin_2*%
%TO.N,/SOM_GPIO*%
X89500000Y-128700000D03*
%TO.P,J3,3,Pin_3*%
%TO.N,/VOLT_S*%
X92040000Y-128700000D03*
%TO.P,J3,4,Pin_4*%
%TO.N,/VBAT_EN*%
X94580000Y-128700000D03*
%TO.P,J3,5,Pin_5*%
%TO.N,/SBU1_RELAY*%
X97120000Y-128700000D03*
%TO.P,J3,6,Pin_6*%
%TO.N,/SBU2_RELAY*%
X99660000Y-128700000D03*
%TO.P,J3,7,Pin_7*%
%TO.N,/PWR_READOUT1*%
X102200000Y-128700000D03*
%TO.P,J3,8,Pin_8*%
%TO.N,/PWR_READOUT2*%
X104740000Y-128700000D03*
%TD*%
D18*
%TO.N,+5V*%
X95750000Y-80720000D03*
%TO.N,GND*%
X94580000Y-98400000D03*
%TO.N,+3.3V*%
X100220000Y-74710000D03*
%TO.N,GND*%
X101370000Y-74693800D03*
X104180000Y-71240000D03*
X75490000Y-99850000D03*
%TO.N,+3.3V*%
X77050000Y-99860000D03*
%TO.N,GND*%
X81800000Y-99670000D03*
%TO.N,+3.3V*%
X83350000Y-99640000D03*
D19*
%TO.N,/CAN1_T*%
X84118800Y-102830000D03*
%TO.N,/CAN2_R*%
X84470000Y-102016200D03*
D18*
%TO.N,GND*%
X72870000Y-94790000D03*
X93096200Y-111250000D03*
X81680000Y-105816200D03*
X92141369Y-112828631D03*
X91920000Y-109683800D03*
X85040000Y-105816200D03*
X87310000Y-105816200D03*
X77570000Y-116630000D03*
X77510000Y-110920000D03*
X82359400Y-120010000D03*
X87550000Y-120000000D03*
D19*
X83290000Y-115360000D03*
D18*
X96480000Y-75210000D03*
X98080000Y-86700000D03*
D19*
X86790000Y-115360000D03*
X82790000Y-110360000D03*
D18*
X91370000Y-87150000D03*
D19*
X85290000Y-111360000D03*
D18*
X84110000Y-87280000D03*
X78070000Y-87310000D03*
D19*
X85790000Y-110360000D03*
X82290000Y-112860000D03*
X87290000Y-110860000D03*
X87290000Y-114860000D03*
X82290000Y-115360000D03*
D18*
X76480000Y-76910000D03*
D19*
X87290000Y-113360000D03*
D18*
X88900000Y-99710000D03*
X67660000Y-80220000D03*
X79060000Y-72460000D03*
X76650000Y-113590000D03*
D19*
X86290000Y-110360000D03*
X82290000Y-111360000D03*
D18*
X100240000Y-72190000D03*
X87040000Y-85790000D03*
D19*
X84790000Y-110360000D03*
D18*
X71460000Y-87280000D03*
D19*
X84790000Y-115360000D03*
D18*
X67840000Y-94490000D03*
D19*
X82790000Y-113860000D03*
X82290000Y-111860000D03*
%TO.N,+3.3V*%
X87790000Y-112860000D03*
X87790000Y-113360000D03*
X86290000Y-109860000D03*
X87290000Y-111360000D03*
X81790000Y-114860000D03*
X84290000Y-109860000D03*
D18*
X73690000Y-79520000D03*
X98180000Y-98430000D03*
D19*
X81790000Y-112360000D03*
X81790000Y-112860000D03*
X87790000Y-114860000D03*
X84790000Y-109860000D03*
X83290000Y-110360000D03*
D18*
X67810000Y-87380000D03*
X94080000Y-72210000D03*
D19*
X86290000Y-115360000D03*
X81790000Y-111360000D03*
D18*
X90410000Y-99680000D03*
D19*
X82790000Y-109860000D03*
D18*
X71440000Y-94710000D03*
D19*
X82290000Y-114860000D03*
X83290000Y-115860000D03*
X83290000Y-110860000D03*
X84790000Y-115860000D03*
X81790000Y-115360000D03*
X87790000Y-110860000D03*
X82790000Y-111860000D03*
D18*
X98690000Y-122540000D03*
D19*
X86790000Y-115860000D03*
%TO.N,/SBU2*%
X85220594Y-125363800D03*
X81010000Y-125350000D03*
%TO.N,/SBU1*%
X84290000Y-114360000D03*
X85610000Y-85370000D03*
%TO.N,/CAN2_E*%
X85790000Y-114860000D03*
X97990000Y-114450000D03*
%TO.N,/CAN3_R*%
X97650000Y-114080000D03*
X86790000Y-113860000D03*
%TO.N,/CAN1_R*%
X83790000Y-110860000D03*
D18*
X91610000Y-98110000D03*
D19*
%TO.N,/CAN3_T*%
X97240000Y-113770000D03*
X97240000Y-115756200D03*
%TO.N,/CAN1_E*%
X86980000Y-91690000D03*
X84290000Y-111360000D03*
D18*
%TO.N,/CAN1_T*%
X87810000Y-98350000D03*
D19*
%TO.N,/CAN2_R*%
X84470000Y-98420000D03*
%TO.N,/CAN2_T*%
X84290000Y-110860000D03*
D18*
X80670000Y-98510000D03*
D19*
%TO.N,/CAN3_E*%
X96780000Y-116063800D03*
X96763797Y-113770000D03*
D18*
%TO.N,+5V*%
X85010000Y-81430000D03*
X87550000Y-81380000D03*
X104290000Y-75200000D03*
X76630000Y-74050000D03*
D19*
%TO.N,Net-(U7-NRST)*%
X71490000Y-98580000D03*
X84290000Y-112860000D03*
%TO.N,/UART_RX*%
X89660000Y-107770000D03*
X85290000Y-113360000D03*
%TO.N,/SPI_MISO*%
X85290000Y-114360000D03*
%TO.N,/SPI_MOSI*%
X85790000Y-113860000D03*
%TO.N,/UART_TX*%
X90473800Y-107430000D03*
X85290000Y-112860000D03*
%TO.N,/SOM_GPIO*%
X83790000Y-113360000D03*
%TO.N,/PWR_READOUT2*%
X83790000Y-114360000D03*
%TO.N,/VBAT_EN*%
X94010000Y-108580000D03*
%TO.N,/BOOTKICK*%
X83790000Y-113860000D03*
%TO.N,/SBU1_RELAY*%
X93543741Y-113536520D03*
%TO.N,/FAN_SETUP*%
X92860000Y-114863800D03*
%TO.N,/FAN_TACHOMETER*%
X85790000Y-111860000D03*
%TO.N,/FAN_ENABLE*%
X85790000Y-111360000D03*
%TO.N,/AUDIO_DFSDM1_CKOUT*%
X85780000Y-124740000D03*
X85290000Y-113860000D03*
%TO.N,/AUDIO_SAI4_SD_A*%
X86290000Y-113860000D03*
X93203800Y-113870000D03*
%TO.N,/SWDIO*%
X96530000Y-110390000D03*
X86790000Y-111360000D03*
%TO.N,/JTDI*%
X89060000Y-109000000D03*
%TO.N,/NJTRST*%
X84290000Y-110360000D03*
X81575958Y-107454042D03*
%TO.N,/TRACESWO*%
X84790000Y-112360000D03*
%TO.N,/LED_RED*%
X85790000Y-112360000D03*
X97370000Y-117440000D03*
%TO.N,/LED_GREEN*%
X95590000Y-117080000D03*
X86290000Y-112360000D03*
%TO.N,/LED_BLUE*%
X94336200Y-122610000D03*
X86790000Y-112360000D03*
%TO.N,Net-(U7-BOOT0)*%
X71460000Y-91200000D03*
X84290000Y-111860000D03*
%TO.N,/USB_DM*%
X85970000Y-80270000D03*
X86560000Y-80820000D03*
%TO.N,/USB_DP*%
X86510000Y-80230000D03*
%TD*%
D20*
%TO.N,GND*%
X82250000Y-106875000D02*
X82250000Y-106386200D01*
X82250000Y-106386200D02*
X81680000Y-105816200D01*
X90765000Y-114300000D02*
X90765000Y-114205000D01*
X90765000Y-114205000D02*
X92141369Y-112828631D01*
X90755000Y-115780000D02*
X91660000Y-115780000D01*
X91660000Y-115780000D02*
X92141369Y-115298631D01*
X92141369Y-115298631D02*
X92141369Y-112828631D01*
X92141369Y-112828631D02*
X90766369Y-112828631D01*
X90766369Y-112828631D02*
X90755000Y-112840000D01*
X91920000Y-109683800D02*
X90961200Y-109683800D01*
X90961200Y-109683800D02*
X90745000Y-109900000D01*
X90755000Y-110848800D02*
X91920000Y-109683800D01*
X90755000Y-111380000D02*
X90755000Y-110848800D01*
X85150000Y-106895000D02*
X85150000Y-105926200D01*
X85150000Y-105926200D02*
X85040000Y-105816200D01*
X83981200Y-106875000D02*
X85040000Y-105816200D01*
X86620000Y-106895000D02*
X86620000Y-106506200D01*
X86620000Y-106506200D02*
X87310000Y-105816200D01*
X88090000Y-106596200D02*
X87310000Y-105816200D01*
X88090000Y-106905000D02*
X88090000Y-106596200D01*
D21*
%TO.N,/JTDI*%
X89060000Y-109000000D02*
X89080000Y-108980000D01*
X88490000Y-105390000D02*
X68420000Y-105390000D01*
X89080000Y-108980000D02*
X89080000Y-105980000D01*
X89080000Y-105980000D02*
X88490000Y-105390000D01*
X68420000Y-105390000D02*
X68300000Y-105270000D01*
D20*
%TO.N,GND*%
X78915000Y-114970000D02*
X78915000Y-115285000D01*
X78915000Y-115285000D02*
X77570000Y-116630000D01*
X78925000Y-116500000D02*
X77700000Y-116500000D01*
X77700000Y-116500000D02*
X77570000Y-116630000D01*
X78915000Y-117975000D02*
X77570000Y-116630000D01*
X78915000Y-118030000D02*
X78915000Y-117975000D01*
X78895000Y-113470000D02*
X76770000Y-113470000D01*
X76770000Y-113470000D02*
X76650000Y-113590000D01*
X78900000Y-110500000D02*
X78530000Y-110870000D01*
X78530000Y-110870000D02*
X77560000Y-110870000D01*
X77560000Y-110870000D02*
X77510000Y-110920000D01*
X78895000Y-111970000D02*
X78560000Y-111970000D01*
X78560000Y-111970000D02*
X77510000Y-110920000D01*
X78900000Y-109530000D02*
X77510000Y-110920000D01*
X78900000Y-109030000D02*
X78900000Y-109530000D01*
%TO.N,+3.3V*%
X87790000Y-114860000D02*
X88285000Y-114860000D01*
X88285000Y-114860000D02*
X89205000Y-115780000D01*
X87790000Y-113360000D02*
X88275000Y-113360000D01*
X88275000Y-113360000D02*
X89215000Y-114300000D01*
X87790000Y-112860000D02*
X89185000Y-112860000D01*
X89185000Y-112860000D02*
X89205000Y-112840000D01*
X87290000Y-111360000D02*
X89185000Y-111360000D01*
X89185000Y-111360000D02*
X89205000Y-111380000D01*
X87790000Y-110860000D02*
X88235000Y-110860000D01*
X88235000Y-110860000D02*
X89195000Y-109900000D01*
X86290000Y-109860000D02*
X86685000Y-109860000D01*
X86685000Y-109860000D02*
X88090000Y-108455000D01*
X84790000Y-109860000D02*
X85205000Y-109860000D01*
X85205000Y-109860000D02*
X86620000Y-108445000D01*
X84290000Y-109860000D02*
X84290000Y-109305000D01*
X84290000Y-109305000D02*
X85150000Y-108445000D01*
X83710000Y-108435000D02*
X83710000Y-109940000D01*
X83710000Y-109940000D02*
X83290000Y-110360000D01*
X82250000Y-108425000D02*
X82250000Y-109320000D01*
X82250000Y-109320000D02*
X82790000Y-109860000D01*
X80450000Y-109030000D02*
X80493442Y-109030000D01*
X80493442Y-109030000D02*
X82790000Y-111326558D01*
X82790000Y-111326558D02*
X82790000Y-111860000D01*
X80450000Y-110500000D02*
X80930000Y-110500000D01*
X80930000Y-110500000D02*
X81790000Y-111360000D01*
X80445000Y-111970000D02*
X81400000Y-111970000D01*
X81400000Y-111970000D02*
X81790000Y-112360000D01*
X80445000Y-113470000D02*
X81180000Y-113470000D01*
X81180000Y-113470000D02*
X81790000Y-112860000D01*
X80465000Y-114970000D02*
X81080000Y-114970000D01*
X82290000Y-114590000D02*
X82290000Y-114860000D01*
X81080000Y-114970000D02*
X81700000Y-114350000D01*
X81700000Y-114350000D02*
X82050000Y-114350000D01*
X82050000Y-114350000D02*
X82290000Y-114590000D01*
X80475000Y-116500000D02*
X80475000Y-116155000D01*
X80475000Y-116155000D02*
X81360000Y-115270000D01*
X81360000Y-115270000D02*
X81380000Y-115270000D01*
X81380000Y-115270000D02*
X81790000Y-114860000D01*
X80780000Y-118030000D02*
X81500000Y-117310000D01*
X80465000Y-118030000D02*
X80780000Y-118030000D01*
X81500000Y-117310000D02*
X81500000Y-115650000D01*
X81500000Y-115650000D02*
X81790000Y-115360000D01*
D21*
%TO.N,/TRACESWO*%
X84682800Y-112467200D02*
X84682800Y-114429931D01*
X84682800Y-114429931D02*
X84079931Y-115032800D01*
X84790000Y-112360000D02*
X84682800Y-112467200D01*
X82070000Y-116700000D02*
X82070000Y-119190000D01*
X84079931Y-115032800D02*
X83154469Y-115032800D01*
X81730000Y-119530000D02*
X73090000Y-119530000D01*
X66780000Y-114404400D02*
X66780000Y-109330000D01*
X82962800Y-115224469D02*
X82962800Y-115807200D01*
X82070000Y-119190000D02*
X81730000Y-119530000D01*
X82962800Y-115807200D02*
X82070000Y-116700000D01*
X83154469Y-115032800D02*
X82962800Y-115224469D01*
X73090000Y-119530000D02*
X68680000Y-115120000D01*
X68680000Y-115120000D02*
X67495600Y-115120000D01*
X67495600Y-115120000D02*
X66780000Y-114404400D01*
X66780000Y-109330000D02*
X68300000Y-107810000D01*
%TO.N,/FAN_ENABLE*%
X85820000Y-111310000D02*
X85117200Y-112012800D01*
X81840000Y-118970000D02*
X81540000Y-119270000D01*
X85117200Y-112012800D02*
X84674469Y-112012800D01*
X82760000Y-115660000D02*
X81840000Y-116580000D01*
X83117200Y-113570069D02*
X83117200Y-114442800D01*
X73620000Y-119270000D02*
X68270000Y-113920000D01*
X83117200Y-114442800D02*
X82760000Y-114800000D01*
X84674469Y-112012800D02*
X83117200Y-113570069D01*
X82760000Y-114800000D02*
X82760000Y-115660000D01*
X81840000Y-116580000D02*
X81840000Y-118970000D01*
X81540000Y-119270000D02*
X73620000Y-119270000D01*
X68270000Y-113920000D02*
X68250000Y-113920000D01*
%TO.N,/FAN_TACHOMETER*%
X68250000Y-116460000D02*
X71610000Y-119820000D01*
X81860000Y-119820000D02*
X82310000Y-119370000D01*
X84030000Y-117860000D02*
X84030000Y-115530000D01*
X71610000Y-119820000D02*
X81860000Y-119820000D01*
X82690000Y-118050000D02*
X83840000Y-118050000D01*
X84960000Y-112690000D02*
X85790000Y-111860000D01*
X82310000Y-119370000D02*
X82310000Y-118430000D01*
X82310000Y-118430000D02*
X82690000Y-118050000D01*
X83840000Y-118050000D02*
X84030000Y-117860000D01*
X84030000Y-115530000D02*
X84960000Y-114600000D01*
X84960000Y-114600000D02*
X84960000Y-112690000D01*
%TO.N,/SPI_MOSI*%
X102160000Y-99750000D02*
X103290000Y-100880000D01*
X103290000Y-100880000D02*
X103290000Y-105690000D01*
X102920000Y-106060000D02*
X101050000Y-106060000D01*
X92430000Y-108440000D02*
X92430000Y-111580000D01*
X103290000Y-105690000D02*
X102920000Y-106060000D01*
X92430000Y-111580000D02*
X91920000Y-112090000D01*
X101050000Y-106060000D02*
X99360000Y-107750000D01*
X87560000Y-112090000D02*
X85790000Y-113860000D01*
X99360000Y-107750000D02*
X93120000Y-107750000D01*
X93120000Y-107750000D02*
X92430000Y-108440000D01*
X91920000Y-112090000D02*
X87560000Y-112090000D01*
%TO.N,/SPI_MISO*%
X101080000Y-101210000D02*
X101080000Y-99120000D01*
X102920598Y-106310000D02*
X101130000Y-106310000D01*
X92420000Y-116780000D02*
X88680000Y-116780000D01*
X101080000Y-99120000D02*
X101560000Y-98640000D01*
X101130000Y-106310000D02*
X99339701Y-108100299D01*
X102940000Y-98640000D02*
X103467200Y-99167200D01*
X101560000Y-98640000D02*
X102940000Y-98640000D01*
X86260000Y-114360000D02*
X85290000Y-114360000D01*
X103467200Y-99167200D02*
X103467200Y-105763398D01*
X102160000Y-102290000D02*
X101080000Y-101210000D01*
X103467200Y-105763398D02*
X102920598Y-106310000D01*
X92670000Y-108730000D02*
X92670000Y-114591069D01*
X99339701Y-108100299D02*
X93299701Y-108100299D01*
X93299701Y-108100299D02*
X92670000Y-108730000D01*
X92532800Y-114728269D02*
X92532800Y-116667200D01*
X92670000Y-114591069D02*
X92532800Y-114728269D01*
X92532800Y-116667200D02*
X92420000Y-116780000D01*
X88680000Y-116780000D02*
X86260000Y-114360000D01*
%TO.N,/NJTRST*%
X81575958Y-107454042D02*
X81011916Y-106890000D01*
X71760000Y-106890000D02*
X68300000Y-110350000D01*
X81011916Y-106890000D02*
X71760000Y-106890000D01*
D20*
%TO.N,GND*%
X82359400Y-120010000D02*
X83970000Y-120010000D01*
X83970000Y-120010000D02*
X84760000Y-119220000D01*
X84760000Y-119220000D02*
X84760000Y-118810000D01*
X83250000Y-119119400D02*
X82359400Y-120010000D01*
X83250000Y-118815000D02*
X83250000Y-119119400D01*
%TO.N,+3.3V*%
X83290000Y-115860000D02*
X83290000Y-117210000D01*
X83290000Y-117210000D02*
X83260000Y-117210000D01*
X84790000Y-115860000D02*
X84790000Y-117230000D01*
X84790000Y-117230000D02*
X84760000Y-117260000D01*
%TO.N,GND*%
X87550000Y-120000000D02*
X87750000Y-119800000D01*
X87750000Y-119800000D02*
X87750000Y-118805000D01*
X87550000Y-120000000D02*
X86355000Y-118805000D01*
X86355000Y-118805000D02*
X86270000Y-118805000D01*
%TO.N,+3.3V*%
X86790000Y-115860000D02*
X87750000Y-116820000D01*
X87750000Y-116820000D02*
X87750000Y-117255000D01*
X86290000Y-115360000D02*
X86290000Y-117235000D01*
X86290000Y-117235000D02*
X86270000Y-117255000D01*
X87800000Y-114870000D02*
X87790000Y-114860000D01*
X84270000Y-109840000D02*
X84290000Y-109860000D01*
X82290000Y-114669082D02*
X82290000Y-114860000D01*
X83280000Y-115870000D02*
X83290000Y-115860000D01*
X87300000Y-111370000D02*
X87290000Y-111360000D01*
X86230000Y-109800000D02*
X86290000Y-109860000D01*
X87870000Y-112940000D02*
X87790000Y-112860000D01*
X86270000Y-115380000D02*
X86290000Y-115360000D01*
X83290000Y-110860000D02*
X83290000Y-110360000D01*
D21*
%TO.N,/SBU2*%
X85220594Y-125363800D02*
X85216794Y-125360000D01*
X81020000Y-125360000D02*
X81010000Y-125350000D01*
X85216794Y-125360000D02*
X81020000Y-125360000D01*
%TO.N,/CAN3_T*%
X97240000Y-115730000D02*
X97240000Y-115756200D01*
X97240000Y-115730000D02*
X97240000Y-113770000D01*
%TO.N,/CAN3_E*%
X96763797Y-116047597D02*
X96780000Y-116063800D01*
X96763797Y-115716363D02*
X96763797Y-116047597D01*
X96763797Y-113770000D02*
X96763797Y-115716363D01*
D20*
%TO.N,+5V*%
X77130000Y-80080000D02*
X78470000Y-81420000D01*
X85000000Y-81420000D02*
X85010000Y-81430000D01*
X77130000Y-74550000D02*
X76630000Y-74050000D01*
X78470000Y-81420000D02*
X85000000Y-81420000D01*
X87500000Y-81430000D02*
X87550000Y-81380000D01*
X77130000Y-80080000D02*
X77130000Y-74550000D01*
X85010000Y-81430000D02*
X87500000Y-81430000D01*
D21*
%TO.N,/UART_RX*%
X100620000Y-85670000D02*
X103540000Y-85670000D01*
X99960000Y-106380000D02*
X99960000Y-86330000D01*
X99960000Y-86330000D02*
X100620000Y-85670000D01*
X103540000Y-85670000D02*
X104700000Y-84510000D01*
X89660000Y-107770000D02*
X90330642Y-107099358D01*
X99240642Y-107099358D02*
X99960000Y-106380000D01*
X90330642Y-107099358D02*
X99240642Y-107099358D01*
%TO.N,/UART_TX*%
X100475000Y-106295000D02*
X100475000Y-89893030D01*
X103722800Y-88027200D02*
X104700000Y-87050000D01*
X100475000Y-89893030D02*
X102340830Y-88027200D01*
X102340830Y-88027200D02*
X103722800Y-88027200D01*
X90473800Y-107430000D02*
X99340000Y-107430000D01*
X99340000Y-107430000D02*
X100475000Y-106295000D01*
%TO.N,/VBAT_EN*%
X94010000Y-108580000D02*
X94010000Y-126710000D01*
X94580000Y-127280000D02*
X94580000Y-128700000D01*
X94010000Y-126710000D02*
X94580000Y-127280000D01*
%TO.N,/SBU1_RELAY*%
X95940000Y-129880000D02*
X97120000Y-128700000D01*
X93870000Y-129880000D02*
X95940000Y-129880000D01*
X93530000Y-113550261D02*
X93530000Y-129540000D01*
X93530000Y-129540000D02*
X93870000Y-129880000D01*
X93543741Y-113536520D02*
X93530000Y-113550261D01*
%TO.N,/FAN_SETUP*%
X92860000Y-123477143D02*
X92347143Y-123990000D01*
X92860000Y-114863800D02*
X92860000Y-123477143D01*
X92347143Y-123990000D02*
X73240000Y-123990000D01*
X73240000Y-123990000D02*
X68250000Y-119000000D01*
%TO.N,/AUDIO_DFSDM1_CKOUT*%
X71920000Y-129930000D02*
X70710000Y-128720000D01*
X79610000Y-125480000D02*
X79610000Y-129330000D01*
X79010000Y-129930000D02*
X71920000Y-129930000D01*
X79610000Y-129330000D02*
X79010000Y-129930000D01*
X80350000Y-124740000D02*
X85780000Y-124740000D01*
X79610000Y-125480000D02*
X80350000Y-124740000D01*
%TO.N,/AUDIO_SAI4_SD_A*%
X78330000Y-126200000D02*
X78330000Y-128720000D01*
X80140000Y-124390000D02*
X78330000Y-126200000D01*
X92710000Y-124390000D02*
X80140000Y-124390000D01*
X93203800Y-113870000D02*
X93260000Y-113926200D01*
X93260000Y-123840000D02*
X92710000Y-124390000D01*
X93260000Y-113926200D02*
X93260000Y-123840000D01*
%TO.N,/USB_DM*%
X86020000Y-80320000D02*
X86060000Y-80320000D01*
X86060000Y-80320000D02*
X86560000Y-80820000D01*
X85970000Y-80270000D02*
X86020000Y-80320000D01*
%TO.N,/USB_DP*%
X85860000Y-78150000D02*
X86520000Y-78810000D01*
X86520000Y-78810000D02*
X86510000Y-78820000D01*
X86510000Y-78820000D02*
X86510000Y-80230000D01*
%TO.N,/CAN2_R*%
X84470000Y-98420000D02*
X84470000Y-102016200D01*
%TO.N,/CAN1_T*%
X84118800Y-102830000D02*
X87810000Y-99138800D01*
X87810000Y-99138800D02*
X87810000Y-98350000D01*
D20*
%TO.N,+5V*%
X88720000Y-81380000D02*
X89380000Y-80720000D01*
X87550000Y-81380000D02*
X88720000Y-81380000D01*
X104290000Y-75200000D02*
X104260000Y-75170000D01*
X89380000Y-80720000D02*
X95660000Y-80720000D01*
X101300000Y-75170000D02*
X95750000Y-80720000D01*
X104260000Y-75170000D02*
X101300000Y-75170000D01*
X95750000Y-80720000D02*
X95660000Y-80720000D01*
%TD*%
M02*
