%TF.GenerationSoftware,KiCad,Pcbnew,9.0.4*%
%TF.CreationDate,2025-09-29T22:44:47+03:00*%
%TF.ProjectId,Asius2,41736975-7332-42e6-9b69-6361645f7063,rev?*%
%TF.SameCoordinates,Original*%
%TF.FileFunction,Copper,L1,Top*%
%TF.FilePolarity,Positive*%
%FSLAX46Y46*%
G04 Gerber Fmt 4.6, Leading zero omitted, Abs format (unit mm)*
G04 Created by KiCad (PCBNEW 9.0.4) date 2025-09-29 22:44:47*
%MOMM*%
%LPD*%
G01*
G04 APERTURE LIST*
G04 Aperture macros list*
%AMRoundRect*
0 Rectangle with rounded corners*
0 $1 Rounding radius*
0 $2 $3 $4 $5 $6 $7 $8 $9 X,Y pos of 4 corners*
0 Add a 4 corners polygon primitive as box body*
4,1,4,$2,$3,$4,$5,$6,$7,$8,$9,$2,$3,0*
0 Add four circle primitives for the rounded corners*
1,1,$1+$1,$2,$3*
1,1,$1+$1,$4,$5*
1,1,$1+$1,$6,$7*
1,1,$1+$1,$8,$9*
0 Add four rect primitives between the rounded corners*
20,1,$1+$1,$2,$3,$4,$5,0*
20,1,$1+$1,$4,$5,$6,$7,0*
20,1,$1+$1,$6,$7,$8,$9,0*
20,1,$1+$1,$8,$9,$2,$3,0*%
G04 Aperture macros list end*
%TA.AperFunction,SMDPad,CuDef*%
%ADD10RoundRect,0.225000X0.250000X-0.225000X0.250000X0.225000X-0.250000X0.225000X-0.250000X-0.225000X0*%
%TD*%
%TA.AperFunction,ComponentPad*%
%ADD11R,1.700000X1.700000*%
%TD*%
%TA.AperFunction,ComponentPad*%
%ADD12C,1.700000*%
%TD*%
%TA.AperFunction,SMDPad,CuDef*%
%ADD13RoundRect,0.200000X-0.200000X-0.275000X0.200000X-0.275000X0.200000X0.275000X-0.200000X0.275000X0*%
%TD*%
%TA.AperFunction,SMDPad,CuDef*%
%ADD14R,0.350000X0.610000*%
%TD*%
%TA.AperFunction,SMDPad,CuDef*%
%ADD15R,0.610000X0.350000*%
%TD*%
%TA.AperFunction,SMDPad,CuDef*%
%ADD16RoundRect,0.225000X0.225000X0.250000X-0.225000X0.250000X-0.225000X-0.250000X0.225000X-0.250000X0*%
%TD*%
%TA.AperFunction,SMDPad,CuDef*%
%ADD17RoundRect,0.225000X-0.250000X0.225000X-0.250000X-0.225000X0.250000X-0.225000X0.250000X0.225000X0*%
%TD*%
%TA.AperFunction,SMDPad,CuDef*%
%ADD18RoundRect,0.250000X0.550000X-1.500000X0.550000X1.500000X-0.550000X1.500000X-0.550000X-1.500000X0*%
%TD*%
%TA.AperFunction,SMDPad,CuDef*%
%ADD19RoundRect,0.062500X0.350000X0.062500X-0.350000X0.062500X-0.350000X-0.062500X0.350000X-0.062500X0*%
%TD*%
%TA.AperFunction,SMDPad,CuDef*%
%ADD20RoundRect,0.062500X0.062500X0.350000X-0.062500X0.350000X-0.062500X-0.350000X0.062500X-0.350000X0*%
%TD*%
%TA.AperFunction,HeatsinkPad*%
%ADD21C,0.500000*%
%TD*%
%TA.AperFunction,HeatsinkPad*%
%ADD22R,1.680000X1.680000*%
%TD*%
%TA.AperFunction,SMDPad,CuDef*%
%ADD23R,0.980000X3.400000*%
%TD*%
%TA.AperFunction,SMDPad,CuDef*%
%ADD24RoundRect,0.250000X-0.475000X0.250000X-0.475000X-0.250000X0.475000X-0.250000X0.475000X0.250000X0*%
%TD*%
%TA.AperFunction,SMDPad,CuDef*%
%ADD25RoundRect,0.225000X-0.225000X-0.250000X0.225000X-0.250000X0.225000X0.250000X-0.225000X0.250000X0*%
%TD*%
%TA.AperFunction,SMDPad,CuDef*%
%ADD26R,0.300000X0.900000*%
%TD*%
%TA.AperFunction,ComponentPad*%
%ADD27C,0.600000*%
%TD*%
%TA.AperFunction,ComponentPad*%
%ADD28O,1.000000X1.600000*%
%TD*%
%TA.AperFunction,SMDPad,CuDef*%
%ADD29RoundRect,0.200000X-0.275000X0.200000X-0.275000X-0.200000X0.275000X-0.200000X0.275000X0.200000X0*%
%TD*%
%TA.AperFunction,SMDPad,CuDef*%
%ADD30RoundRect,0.150000X0.150000X-0.825000X0.150000X0.825000X-0.150000X0.825000X-0.150000X-0.825000X0*%
%TD*%
%TA.AperFunction,SMDPad,CuDef*%
%ADD31RoundRect,0.200000X0.275000X-0.200000X0.275000X0.200000X-0.275000X0.200000X-0.275000X-0.200000X0*%
%TD*%
%TA.AperFunction,BGAPad,CuDef*%
%ADD32C,0.270000*%
%TD*%
%TA.AperFunction,SMDPad,CuDef*%
%ADD33R,1.000000X1.500000*%
%TD*%
%TA.AperFunction,SMDPad,CuDef*%
%ADD34RoundRect,0.250000X-0.450000X-0.350000X0.450000X-0.350000X0.450000X0.350000X-0.450000X0.350000X0*%
%TD*%
%TA.AperFunction,SMDPad,CuDef*%
%ADD35RoundRect,0.250000X0.250000X-0.475000X0.250000X0.475000X-0.250000X0.475000X-0.250000X-0.475000X0*%
%TD*%
%TA.AperFunction,SMDPad,CuDef*%
%ADD36RoundRect,0.200000X0.200000X0.275000X-0.200000X0.275000X-0.200000X-0.275000X0.200000X-0.275000X0*%
%TD*%
%TA.AperFunction,SMDPad,CuDef*%
%ADD37RoundRect,0.375000X0.375000X-0.625000X0.375000X0.625000X-0.375000X0.625000X-0.375000X-0.625000X0*%
%TD*%
%TA.AperFunction,SMDPad,CuDef*%
%ADD38RoundRect,0.500000X1.400000X-0.500000X1.400000X0.500000X-1.400000X0.500000X-1.400000X-0.500000X0*%
%TD*%
%TA.AperFunction,ViaPad*%
%ADD39C,0.600000*%
%TD*%
%TA.AperFunction,ViaPad*%
%ADD40C,0.400000*%
%TD*%
%TA.AperFunction,Conductor*%
%ADD41C,0.200000*%
%TD*%
%TA.AperFunction,Conductor*%
%ADD42C,0.100000*%
%TD*%
%TA.AperFunction,Conductor*%
%ADD43C,0.076200*%
%TD*%
%TA.AperFunction,Conductor*%
%ADD44C,0.150000*%
%TD*%
G04 APERTURE END LIST*
D10*
%TO.P,C41,2*%
%TO.N,GND*%
X105150000Y-72615000D03*
%TO.P,C41,1*%
%TO.N,+5V*%
X105150000Y-74165000D03*
%TD*%
D11*
%TO.P,J7,1,Pin_1*%
%TO.N,GND*%
X96515000Y-72290000D03*
D12*
%TO.P,J7,2,Pin_2*%
%TO.N,+5V*%
X99055000Y-72290000D03*
%TD*%
D13*
%TO.P,R11,2*%
%TO.N,/IMU_SCL*%
X72955000Y-122266200D03*
%TO.P,R11,1*%
%TO.N,+3.3V*%
X71305000Y-122266200D03*
%TD*%
D14*
%TO.P,U6,14,SDA*%
%TO.N,/IMU_SDA*%
X76040000Y-120676200D03*
%TO.P,U6,13,SCL*%
%TO.N,/IMU_SCL*%
X76540000Y-120676200D03*
%TO.P,U6,12,CS*%
%TO.N,+3.3V*%
X77040000Y-120676200D03*
D15*
%TO.P,U6,11,SDO_AUX*%
%TO.N,unconnected-(U6-SDO_AUX-Pad11)*%
X77700000Y-120836200D03*
%TO.P,U6,10,OCS_AUX*%
%TO.N,unconnected-(U6-OCS_AUX-Pad10)*%
X77700000Y-121336200D03*
%TO.P,U6,9,INT2*%
%TO.N,unconnected-(U6-INT2-Pad9)*%
X77700000Y-121836200D03*
%TO.P,U6,8,VDD*%
%TO.N,+3.3V*%
X77700000Y-122336200D03*
D14*
%TO.P,U6,7,GND*%
%TO.N,GND*%
X77040000Y-122496200D03*
%TO.P,U6,6,GND*%
X76540000Y-122496200D03*
%TO.P,U6,5,VDDIO*%
%TO.N,+3.3V*%
X76040000Y-122496200D03*
D15*
%TO.P,U6,4,INT1*%
%TO.N,unconnected-(U6-INT1-Pad4)*%
X75380000Y-122336200D03*
%TO.P,U6,3,SCX*%
%TO.N,GND*%
X75380000Y-121836200D03*
%TO.P,U6,2,SDX*%
X75380000Y-121336200D03*
%TO.P,U6,1,SDO/SA0*%
X75380000Y-120836200D03*
%TD*%
D13*
%TO.P,R12,2*%
%TO.N,/IMU_SDA*%
X72935000Y-120746200D03*
%TO.P,R12,1*%
%TO.N,+3.3V*%
X71285000Y-120746200D03*
%TD*%
D16*
%TO.P,C12,2*%
%TO.N,GND*%
X74275000Y-123871200D03*
%TO.P,C12,1*%
%TO.N,+3.3V*%
X75825000Y-123871200D03*
%TD*%
D17*
%TO.P,C11,1*%
%TO.N,+3.3V*%
X79080000Y-121435000D03*
%TO.P,C11,2*%
%TO.N,GND*%
X79080000Y-122985000D03*
%TD*%
D18*
%TO.P,C40,2*%
%TO.N,GND*%
X96590000Y-77310000D03*
%TO.P,C40,1*%
%TO.N,+5V*%
X96590000Y-82910000D03*
%TD*%
D10*
%TO.P,C1,2*%
%TO.N,+5V*%
X71820000Y-80210000D03*
%TO.P,C1,1*%
%TO.N,GND*%
X71820000Y-81760000D03*
%TD*%
D19*
%TO.P,U8,1,SW*%
%TO.N,Net-(L1-Pad1)*%
X79502500Y-75872500D03*
%TO.P,U8,2,SW*%
X79502500Y-75372500D03*
%TO.P,U8,3,SW*%
X79502500Y-74872500D03*
%TO.P,U8,4,PG*%
%TO.N,unconnected-(U8-PG-Pad4)*%
X79502500Y-74372500D03*
D20*
%TO.P,U8,5,FB*%
%TO.N,GND*%
X78790000Y-73660000D03*
%TO.P,U8,6,GND*%
X78290000Y-73660000D03*
%TO.P,U8,7,FSW*%
X77790000Y-73660000D03*
%TO.P,U8,8,DEF*%
X77290000Y-73660000D03*
D19*
%TO.P,U8,9,SS/TR*%
%TO.N,Net-(U8-SS{slash}TR)*%
X76577500Y-74372500D03*
%TO.P,U8,10,VIN*%
%TO.N,+12V*%
X76577500Y-74872500D03*
%TO.P,U8,11,VIN*%
X76577500Y-75372500D03*
%TO.P,U8,12,VIN*%
X76577500Y-75872500D03*
D20*
%TO.P,U8,13,EN*%
X77290000Y-76585000D03*
%TO.P,U8,14,VOS*%
%TO.N,+5V*%
X77790000Y-76585000D03*
%TO.P,U8,15,GND*%
%TO.N,GND*%
X78290000Y-76585000D03*
%TO.P,U8,16,GND*%
X78790000Y-76585000D03*
D21*
%TO.P,U8,17,GND*%
X78630000Y-75712500D03*
X78630000Y-74532500D03*
D22*
X78040000Y-75122500D03*
D21*
X77450000Y-75712500D03*
X77450000Y-74532500D03*
%TD*%
D23*
%TO.P,L1,1,1*%
%TO.N,Net-(L1-Pad1)*%
X78890000Y-80250000D03*
%TO.P,L1,2,2*%
%TO.N,+5V*%
X76520000Y-80250000D03*
%TD*%
D16*
%TO.P,C44,1*%
%TO.N,GND*%
X77735000Y-83250000D03*
%TO.P,C44,2*%
%TO.N,+5V*%
X76185000Y-83250000D03*
%TD*%
D24*
%TO.P,C43,1*%
%TO.N,GND*%
X74870000Y-74240000D03*
%TO.P,C43,2*%
%TO.N,+12V*%
X74870000Y-76140000D03*
%TD*%
D25*
%TO.P,C42,1*%
%TO.N,GND*%
X74620000Y-72570000D03*
%TO.P,C42,2*%
%TO.N,Net-(U8-SS{slash}TR)*%
X76170000Y-72570000D03*
%TD*%
D10*
%TO.P,C15,1*%
%TO.N,Net-(U7-NRST)*%
X72890000Y-97515000D03*
%TO.P,C15,2*%
%TO.N,GND*%
X72890000Y-95965000D03*
%TD*%
D16*
%TO.P,C10,1*%
%TO.N,+5V*%
X97155000Y-98380000D03*
%TO.P,C10,2*%
%TO.N,GND*%
X95605000Y-98380000D03*
%TD*%
%TO.P,C9,1*%
%TO.N,+5V*%
X77050000Y-98830000D03*
%TO.P,C9,2*%
%TO.N,GND*%
X75500000Y-98830000D03*
%TD*%
%TO.P,C6,1*%
%TO.N,+5V*%
X83345000Y-98720000D03*
%TO.P,C6,2*%
%TO.N,GND*%
X81795000Y-98720000D03*
%TD*%
%TO.P,C5,1*%
%TO.N,+5V*%
X90425000Y-98670000D03*
%TO.P,C5,2*%
%TO.N,GND*%
X88875000Y-98670000D03*
%TD*%
D26*
%TO.P,USBC1,A1,GND*%
%TO.N,GND*%
X89010500Y-79360000D03*
%TO.P,USBC1,A2,SSTXP1*%
%TO.N,/CAN1_H*%
X88510000Y-79360000D03*
%TO.P,USBC1,A3,SSTXn1*%
%TO.N,/CAN1_L*%
X88010000Y-79360000D03*
%TO.P,USBC1,A4,VBUS*%
%TO.N,+12V*%
X87510000Y-79360000D03*
%TO.P,USBC1,A5,CC1*%
%TO.N,Net-(USBC1-CC1)*%
X87010000Y-79360000D03*
%TO.P,USBC1,A6,DP1*%
%TO.N,/USB_DP*%
X86510000Y-79360000D03*
%TO.P,USBC1,A7,DN1*%
%TO.N,/USB_DM*%
X86010000Y-79360000D03*
%TO.P,USBC1,A8,SUB1*%
%TO.N,/SBU1*%
X85510000Y-79360000D03*
%TO.P,USBC1,A9,VBUS*%
%TO.N,+12V*%
X85010000Y-79360000D03*
%TO.P,USBC1,A10,SSRXn2*%
%TO.N,/CAN2_L*%
X84510000Y-79360000D03*
%TO.P,USBC1,A11,SSRXp2*%
%TO.N,/CAN2_H*%
X84010000Y-79360000D03*
%TO.P,USBC1,A12,GND*%
%TO.N,GND*%
X83510000Y-79360000D03*
D27*
%TO.P,USBC1,B1,GND*%
X83460000Y-78150000D03*
%TO.P,USBC1,B2,SSTXp2*%
%TO.N,/CAN3_H*%
X83860000Y-77450000D03*
%TO.P,USBC1,B3,SSTXn2*%
%TO.N,/CAN3_L*%
X84660000Y-77450000D03*
%TO.P,USBC1,B4,VBUS*%
%TO.N,+12V*%
X85060000Y-78150000D03*
%TO.P,USBC1,B5,CC2*%
%TO.N,Net-(USBC1-CC2)*%
X85460000Y-77450000D03*
%TO.P,USBC1,B6,DP2*%
%TO.N,/USB_DP*%
X85860000Y-78150000D03*
%TO.P,USBC1,B7,DN2*%
%TO.N,/USB_DM*%
X86660000Y-78150000D03*
%TO.P,USBC1,B8,SUB2*%
%TO.N,/SBU2*%
X87060000Y-77450000D03*
%TO.P,USBC1,B9,VBUS*%
%TO.N,+12V*%
X87460000Y-78150000D03*
%TO.P,USBC1,B10,SSRXn1*%
%TO.N,/CAN4_L*%
X87860000Y-77450000D03*
%TO.P,USBC1,B11,SSRXp1*%
%TO.N,/CAN4_H*%
X88660000Y-77450000D03*
%TO.P,USBC1,B12,GND*%
%TO.N,GND*%
X89060000Y-78150000D03*
D28*
%TO.P,USBC1,S1,0*%
X90390000Y-77560000D03*
%TO.P,USBC1,S2,0*%
X82130000Y-77560000D03*
%TO.P,USBC1,S3,0*%
X90750000Y-73150000D03*
%TO.P,USBC1,S4,0*%
X81770000Y-73150000D03*
%TD*%
D29*
%TO.P,R5,1*%
%TO.N,Net-(U3-SPLIT)*%
X82830000Y-88265000D03*
%TO.P,R5,2*%
%TO.N,/CAN2_L*%
X82830000Y-89915000D03*
%TD*%
D11*
%TO.P,J2,1,Pin_1*%
%TO.N,unconnected-(J2-Pin_1-Pad1)*%
X102160000Y-76890000D03*
D12*
%TO.P,J2,2,Pin_2*%
%TO.N,+5V*%
X104700000Y-76890000D03*
%TO.P,J2,3,Pin_3*%
%TO.N,/IMU_SDA*%
X102160000Y-79430000D03*
%TO.P,J2,4,Pin_4*%
%TO.N,+5V*%
X104700000Y-79430000D03*
%TO.P,J2,5,Pin_5*%
%TO.N,/IMU_SCL*%
X102160000Y-81970000D03*
%TO.P,J2,6,Pin_6*%
%TO.N,GND*%
X104700000Y-81970000D03*
%TO.P,J2,7,Pin_7*%
%TO.N,unconnected-(J2-Pin_7-Pad7)*%
X102160000Y-84510000D03*
%TO.P,J2,8,Pin_8*%
%TO.N,/UART_RX*%
X104700000Y-84510000D03*
%TO.P,J2,9,Pin_9*%
%TO.N,GND*%
X102160000Y-87050000D03*
%TO.P,J2,10,Pin_10*%
%TO.N,/UART_TX*%
X104700000Y-87050000D03*
%TO.P,J2,11,Pin_11*%
%TO.N,unconnected-(J2-Pin_11-Pad11)*%
X102160000Y-89590000D03*
%TO.P,J2,12,Pin_12*%
%TO.N,unconnected-(J2-Pin_12-Pad12)*%
X104700000Y-89590000D03*
%TO.P,J2,13,Pin_13*%
%TO.N,unconnected-(J2-Pin_13-Pad13)*%
X102160000Y-92130000D03*
%TO.P,J2,14,Pin_14*%
%TO.N,GND*%
X104700000Y-92130000D03*
%TO.P,J2,15,Pin_15*%
%TO.N,unconnected-(J2-Pin_15-Pad15)*%
X102160000Y-94670000D03*
%TO.P,J2,16,Pin_16*%
%TO.N,unconnected-(J2-Pin_16-Pad16)*%
X104700000Y-94670000D03*
%TO.P,J2,17,Pin_17*%
%TO.N,unconnected-(J2-Pin_17-Pad17)*%
X102160000Y-97210000D03*
%TO.P,J2,18,Pin_18*%
%TO.N,unconnected-(J2-Pin_18-Pad18)*%
X104700000Y-97210000D03*
%TO.P,J2,19,Pin_19*%
%TO.N,/SPI_MOSI*%
X102160000Y-99750000D03*
%TO.P,J2,20,Pin_20*%
%TO.N,unconnected-(J2-Pin_20-Pad20)*%
X104700000Y-99750000D03*
%TO.P,J2,21,Pin_21*%
%TO.N,/SPI_MISO*%
X102160000Y-102290000D03*
%TO.P,J2,22,Pin_22*%
%TO.N,unconnected-(J2-Pin_22-Pad22)*%
X104700000Y-102290000D03*
%TO.P,J2,23,Pin_23*%
%TO.N,/SPI_SCK*%
X102160000Y-104830000D03*
%TO.P,J2,24,Pin_24*%
%TO.N,/SPI_NSS*%
X104700000Y-104830000D03*
%TO.P,J2,25,Pin_25*%
%TO.N,unconnected-(J2-Pin_25-Pad25)*%
X102160000Y-107370000D03*
%TO.P,J2,26,Pin_26*%
%TO.N,unconnected-(J2-Pin_26-Pad26)*%
X104700000Y-107370000D03*
%TO.P,J2,27,Pin_27*%
%TO.N,unconnected-(J2-Pin_27-Pad27)*%
X102160000Y-109910000D03*
%TO.P,J2,28,Pin_28*%
%TO.N,unconnected-(J2-Pin_28-Pad28)*%
X104700000Y-109910000D03*
%TO.P,J2,29,Pin_29*%
%TO.N,unconnected-(J2-Pin_29-Pad29)*%
X102160000Y-112450000D03*
%TO.P,J2,30,Pin_30*%
%TO.N,unconnected-(J2-Pin_30-Pad30)*%
X104700000Y-112450000D03*
%TO.P,J2,31,Pin_31*%
%TO.N,unconnected-(J2-Pin_31-Pad31)*%
X102160000Y-114990000D03*
%TO.P,J2,32,Pin_32*%
%TO.N,unconnected-(J2-Pin_32-Pad32)*%
X104700000Y-114990000D03*
%TO.P,J2,33,Pin_33*%
%TO.N,unconnected-(J2-Pin_33-Pad33)*%
X102160000Y-117530000D03*
%TO.P,J2,34,Pin_34*%
%TO.N,unconnected-(J2-Pin_34-Pad34)*%
X104700000Y-117530000D03*
%TO.P,J2,35,Pin_35*%
%TO.N,unconnected-(J2-Pin_35-Pad35)*%
X102160000Y-120070000D03*
%TO.P,J2,36,Pin_36*%
%TO.N,unconnected-(J2-Pin_36-Pad36)*%
X104700000Y-120070000D03*
%TO.P,J2,37,Pin_37*%
%TO.N,unconnected-(J2-Pin_37-Pad37)*%
X102160000Y-122610000D03*
%TO.P,J2,38,Pin_38*%
%TO.N,unconnected-(J2-Pin_38-Pad38)*%
X104700000Y-122610000D03*
%TO.P,J2,39,Pin_39*%
%TO.N,unconnected-(J2-Pin_39-Pad39)*%
X102160000Y-125150000D03*
%TO.P,J2,40,Pin_40*%
%TO.N,unconnected-(J2-Pin_40-Pad40)*%
X104700000Y-125150000D03*
%TD*%
D30*
%TO.P,U2,1,TXD*%
%TO.N,/CAN1_T*%
X87800000Y-96650000D03*
%TO.P,U2,2,GND*%
%TO.N,GND*%
X89070000Y-96650000D03*
%TO.P,U2,3,VCC*%
%TO.N,+5V*%
X90340000Y-96650000D03*
%TO.P,U2,4,RXD*%
%TO.N,/CAN1_R*%
X91610000Y-96650000D03*
%TO.P,U2,5,SPLIT*%
%TO.N,Net-(U2-SPLIT)*%
X91610000Y-91700000D03*
%TO.P,U2,6,CANL*%
%TO.N,/CAN1_L*%
X90340000Y-91700000D03*
%TO.P,U2,7,CANH*%
%TO.N,/CAN1_H*%
X89070000Y-91700000D03*
%TO.P,U2,8,STB*%
%TO.N,/CAN1_E*%
X87800000Y-91700000D03*
%TD*%
D11*
%TO.P,J5,1,Pin_1*%
%TO.N,/AUDIO_SAI4_SCK_B*%
X83410000Y-128720000D03*
D12*
%TO.P,J5,2,Pin_2*%
%TO.N,/AUDIO_SAI4_FS_B*%
X80870000Y-128720000D03*
%TO.P,J5,3,Pin_3*%
%TO.N,/AUDIO_SAI4_SD_A*%
X78330000Y-128720000D03*
%TO.P,J5,4,Pin_4*%
%TO.N,/AUDIO_SAI4_SD_B*%
X75790000Y-128720000D03*
%TO.P,J5,5,Pin_5*%
%TO.N,/AUDIO_DFSDM1_DATIN3*%
X73250000Y-128720000D03*
%TO.P,J5,6,Pin_6*%
%TO.N,/AUDIO_DFSDM1_CKOUT*%
X70710000Y-128720000D03*
%TO.P,J5,7,Pin_7*%
%TO.N,/AUDIO_SAI4_MCLK_B*%
X68170000Y-128720000D03*
%TD*%
D29*
%TO.P,R9,1*%
%TO.N,Net-(U5-SPLIT)*%
X96660000Y-87860000D03*
%TO.P,R9,2*%
%TO.N,/CAN4_L*%
X96660000Y-89510000D03*
%TD*%
D10*
%TO.P,C2,1*%
%TO.N,GND*%
X70050000Y-81730000D03*
%TO.P,C2,2*%
%TO.N,+3.3V*%
X70050000Y-80180000D03*
%TD*%
D31*
%TO.P,R10,1*%
%TO.N,/CAN4_H*%
X95160000Y-89510000D03*
%TO.P,R10,2*%
%TO.N,Net-(U5-SPLIT)*%
X95160000Y-87860000D03*
%TD*%
D32*
%TO.P,U7,A1,PE4*%
%TO.N,/AUDIO_DFSDM1_DATIN3*%
X81790000Y-109860000D03*
%TO.P,U7,A2,PE2*%
%TO.N,unconnected-(U7-PE2-PadA2)*%
X82290000Y-109860000D03*
%TO.P,U7,A3,VDD*%
%TO.N,+3.3V*%
X82790000Y-109860000D03*
%TO.P,U7,A4,VCAP*%
%TO.N,Net-(C17-Pad1)*%
X83290000Y-109860000D03*
%TO.P,U7,A5,PB6*%
%TO.N,/CAN2_R*%
X83790000Y-109860000D03*
%TO.P,U7,A6,VDD*%
%TO.N,+3.3V*%
X84290000Y-109860000D03*
%TO.P,U7,A7,VDD*%
X84790000Y-109860000D03*
%TO.P,U7,A8,PG10*%
%TO.N,unconnected-(U7-PG10-PadA8)*%
X85290000Y-109860000D03*
%TO.P,U7,A9,PD5*%
%TO.N,unconnected-(U7-PD5-PadA9)*%
X85790000Y-109860000D03*
%TO.P,U7,A10,VDD*%
%TO.N,+3.3V*%
X86290000Y-109860000D03*
%TO.P,U7,A11,PC12*%
%TO.N,/VBAT_EN*%
X86790000Y-109860000D03*
%TO.P,U7,A12,PC10*%
%TO.N,unconnected-(U7-PC10-PadA12)*%
X87290000Y-109860000D03*
%TO.P,U7,A13,PH14*%
%TO.N,unconnected-(U7-PH14-PadA13)*%
X87790000Y-109860000D03*
%TO.P,U7,B1,PC15*%
%TO.N,unconnected-(U7-PC15-PadB1)*%
X81790000Y-110360000D03*
%TO.P,U7,B2,PE3*%
%TO.N,/AUDIO_SAI4_SD_B*%
X82290000Y-110360000D03*
%TO.P,U7,B3,VSS*%
%TO.N,GND*%
X82790000Y-110360000D03*
%TO.P,U7,B4,VDDLDO*%
%TO.N,+3.3V*%
X83290000Y-110360000D03*
%TO.P,U7,B5,PB8*%
%TO.N,/CAN1_T*%
X83790000Y-110360000D03*
%TO.P,U7,B6,PB4(NJTRST)*%
%TO.N,/NJTRST*%
X84290000Y-110360000D03*
%TO.P,U7,B7,VSS*%
%TO.N,GND*%
X84790000Y-110360000D03*
%TO.P,U7,B8,PG11*%
%TO.N,unconnected-(U7-PG11-PadB8)*%
X85290000Y-110360000D03*
%TO.P,U7,B9,PD6*%
%TO.N,GND*%
X85790000Y-110360000D03*
%TO.P,U7,B10,VSS*%
X86290000Y-110360000D03*
%TO.P,U7,B11,PC11*%
%TO.N,unconnected-(U7-PC11-PadB11)*%
X86790000Y-110360000D03*
%TO.P,U7,B12,PA14(JTCK*%
%TO.N,/SWCLK*%
X87290000Y-110360000D03*
%TO.P,U7,B13,PH13*%
%TO.N,unconnected-(U7-PH13-PadB13)*%
X87790000Y-110360000D03*
%TO.P,U7,C1,PC14*%
%TO.N,unconnected-(U7-PC14-PadC1)*%
X81790000Y-110860000D03*
%TO.P,U7,C2,PE6*%
%TO.N,/AUDIO_SAI4_MCLK_B*%
X82290000Y-110860000D03*
%TO.P,U7,C3,PE5*%
%TO.N,unconnected-(U7-PE5-PadC3)*%
X82790000Y-110860000D03*
%TO.P,U7,C4,PDR_ON*%
%TO.N,+3.3V*%
X83290000Y-110860000D03*
%TO.P,U7,C5,PB9*%
%TO.N,/CAN1_R*%
X83790000Y-110860000D03*
%TO.P,U7,C6,PB5*%
%TO.N,/CAN2_T*%
X84290000Y-110860000D03*
%TO.P,U7,C7,PG14*%
%TO.N,unconnected-(U7-PG14-PadC7)*%
X84790000Y-110860000D03*
%TO.P,U7,C8,PG9*%
%TO.N,unconnected-(U7-PG9-PadC8)*%
X85290000Y-110860000D03*
%TO.P,U7,C9,PD4*%
%TO.N,unconnected-(U7-PD4-PadC9)*%
X85790000Y-110860000D03*
%TO.P,U7,C10,PD1*%
%TO.N,unconnected-(U7-PD1-PadC10)*%
X86290000Y-110860000D03*
%TO.P,U7,C11,PA15(JTDI)*%
%TO.N,/JTDI*%
X86790000Y-110860000D03*
%TO.P,U7,C12,VSS*%
%TO.N,GND*%
X87290000Y-110860000D03*
%TO.P,U7,C13,VDD*%
%TO.N,+3.3V*%
X87790000Y-110860000D03*
%TO.P,U7,D1,VDD*%
X81790000Y-111360000D03*
%TO.P,U7,D2,VSS*%
%TO.N,GND*%
X82290000Y-111360000D03*
%TO.P,U7,D3,PC13*%
%TO.N,unconnected-(U7-PC13-PadD3)*%
X82790000Y-111360000D03*
%TO.P,U7,D4,PE1*%
%TO.N,unconnected-(U7-PE1-PadD4)*%
X83290000Y-111360000D03*
%TO.P,U7,D5,PE0*%
%TO.N,unconnected-(U7-PE0-PadD5)*%
X83790000Y-111360000D03*
%TO.P,U7,D6,PB7*%
%TO.N,/CAN1_E*%
X84290000Y-111360000D03*
%TO.P,U7,D7,PG13*%
%TO.N,unconnected-(U7-PG13-PadD7)*%
X84790000Y-111360000D03*
%TO.P,U7,D8,PD7*%
%TO.N,GND*%
X85290000Y-111360000D03*
%TO.P,U7,D9,PD3*%
%TO.N,/FAN_ENABLE*%
X85790000Y-111360000D03*
%TO.P,U7,D10,PD0*%
%TO.N,unconnected-(U7-PD0-PadD10)*%
X86290000Y-111360000D03*
%TO.P,U7,D11,PA13(JTMS*%
%TO.N,/SWDIO*%
X86790000Y-111360000D03*
%TO.P,U7,D12,VDDLDO*%
%TO.N,+3.3V*%
X87290000Y-111360000D03*
%TO.P,U7,D13,VCAP*%
%TO.N,Net-(C18-Pad1)*%
X87790000Y-111360000D03*
%TO.P,U7,E1,VLXSMPS*%
%TO.N,unconnected-(U7-VLXSMPS-PadE1)*%
X81790000Y-111860000D03*
%TO.P,U7,E2,VSSSMPS*%
%TO.N,GND*%
X82290000Y-111860000D03*
%TO.P,U7,E3,VBAT*%
%TO.N,+3.3V*%
X82790000Y-111860000D03*
%TO.P,U7,E4,PF1*%
%TO.N,unconnected-(U7-PF1-PadE4)*%
X83290000Y-111860000D03*
%TO.P,U7,E5,PF3*%
%TO.N,unconnected-(U7-PF3-PadE5)*%
X83790000Y-111860000D03*
%TO.P,U7,E6,BOOT0*%
%TO.N,Net-(U7-BOOT0)*%
X84290000Y-111860000D03*
%TO.P,U7,E7,PG15*%
%TO.N,unconnected-(U7-PG15-PadE7)*%
X84790000Y-111860000D03*
%TO.P,U7,E8,PG12*%
%TO.N,unconnected-(U7-PG12-PadE8)*%
X85290000Y-111860000D03*
%TO.P,U7,E9,PD2*%
%TO.N,/FAN_TACHOMETER*%
X85790000Y-111860000D03*
%TO.P,U7,E10,PA10*%
%TO.N,unconnected-(U7-PA10-PadE10)*%
X86290000Y-111860000D03*
%TO.P,U7,E11,PA9*%
%TO.N,/SBU1_RELAY*%
X86790000Y-111860000D03*
%TO.P,U7,E12,PA8*%
%TO.N,unconnected-(U7-PA8-PadE12)*%
X87290000Y-111860000D03*
%TO.P,U7,E13,PA12*%
%TO.N,/USB_DP*%
X87790000Y-111860000D03*
%TO.P,U7,F1,VDDSMPS*%
%TO.N,+3.3V*%
X81790000Y-112360000D03*
%TO.P,U7,F2,VFBSMPS*%
%TO.N,unconnected-(U7-VFBSMPS-PadF2)*%
X82290000Y-112360000D03*
%TO.P,U7,F3,PF0*%
%TO.N,unconnected-(U7-PF0-PadF3)*%
X82790000Y-112360000D03*
%TO.P,U7,F4,PF2*%
%TO.N,unconnected-(U7-PF2-PadF4)*%
X83290000Y-112360000D03*
%TO.P,U7,F5,PF5*%
%TO.N,unconnected-(U7-PF5-PadF5)*%
X83790000Y-112360000D03*
%TO.P,U7,F6,PF7*%
%TO.N,unconnected-(U7-PF7-PadF6)*%
X84290000Y-112360000D03*
%TO.P,U7,F7,PB3(JTDO*%
%TO.N,/TRACESWO*%
X84790000Y-112360000D03*
%TO.P,U7,F8,PG4*%
%TO.N,unconnected-(U7-PG4-PadF8)*%
X85290000Y-112360000D03*
%TO.P,U7,F9,PC6*%
%TO.N,/LED_RED*%
X85790000Y-112360000D03*
%TO.P,U7,F10,PC7*%
%TO.N,/LED_GREEN*%
X86290000Y-112360000D03*
%TO.P,U7,F11,PC9*%
%TO.N,/LED_BLUE*%
X86790000Y-112360000D03*
%TO.P,U7,F12,PC8*%
%TO.N,/FAN_SETUP*%
X87290000Y-112360000D03*
%TO.P,U7,F13,PA11*%
%TO.N,/USB_DM*%
X87790000Y-112360000D03*
%TO.P,U7,G1,VDD*%
%TO.N,+3.3V*%
X81790000Y-112860000D03*
%TO.P,U7,G2,VSS*%
%TO.N,GND*%
X82290000Y-112860000D03*
%TO.P,U7,G3,PF4*%
%TO.N,unconnected-(U7-PF4-PadG3)*%
X82790000Y-112860000D03*
%TO.P,U7,G4,PF6*%
%TO.N,unconnected-(U7-PF6-PadG4)*%
X83290000Y-112860000D03*
%TO.P,U7,G5,PF9*%
%TO.N,unconnected-(U7-PF9-PadG5)*%
X83790000Y-112860000D03*
%TO.P,U7,G6,NRST*%
%TO.N,Net-(U7-NRST)*%
X84290000Y-112860000D03*
%TO.P,U7,G7,PF13*%
%TO.N,unconnected-(U7-PF13-PadG7)*%
X84790000Y-112860000D03*
%TO.P,U7,G8,PE7*%
%TO.N,/UART_TX*%
X85290000Y-112860000D03*
%TO.P,U7,G9,PG6*%
%TO.N,unconnected-(U7-PG6-PadG9)*%
X85790000Y-112860000D03*
%TO.P,U7,G10,PG7*%
%TO.N,unconnected-(U7-PG7-PadG10)*%
X86290000Y-112860000D03*
%TO.P,U7,G11,PG8*%
%TO.N,unconnected-(U7-PG8-PadG11)*%
X86790000Y-112860000D03*
%TO.P,U7,G12,VDD50USB*%
%TO.N,unconnected-(U7-VDD50USB-PadG12)*%
X87290000Y-112860000D03*
%TO.P,U7,G13,VDD33USB*%
%TO.N,+3.3V*%
X87790000Y-112860000D03*
%TO.P,U7,H1,PH0*%
%TO.N,Net-(U7-PH0)*%
X81790000Y-113360000D03*
%TO.P,U7,H2,PH1*%
%TO.N,Net-(U7-PH1)*%
X82290000Y-113360000D03*
%TO.P,U7,H3,PF10*%
%TO.N,unconnected-(U7-PF10-PadH3)*%
X82790000Y-113360000D03*
%TO.P,U7,H4,PF8*%
%TO.N,unconnected-(U7-PF8-PadH4)*%
X83290000Y-113360000D03*
%TO.P,U7,H5,PC2*%
%TO.N,/SOM_GPIO*%
X83790000Y-113360000D03*
%TO.P,U7,H6,PA4*%
%TO.N,unconnected-(U7-PA4-PadH6)*%
X84290000Y-113360000D03*
%TO.P,U7,H7,PF14*%
%TO.N,unconnected-(U7-PF14-PadH7)*%
X84790000Y-113360000D03*
%TO.P,U7,H8,PE8*%
%TO.N,/UART_RX*%
X85290000Y-113360000D03*
%TO.P,U7,H9,PG2*%
%TO.N,unconnected-(U7-PG2-PadH9)*%
X85790000Y-113360000D03*
%TO.P,U7,H10,PG3*%
%TO.N,unconnected-(U7-PG3-PadH10)*%
X86290000Y-113360000D03*
%TO.P,U7,H11,PG5*%
%TO.N,unconnected-(U7-PG5-PadH11)*%
X86790000Y-113360000D03*
%TO.P,U7,H12,VSS*%
%TO.N,GND*%
X87290000Y-113360000D03*
%TO.P,U7,H13,VDD*%
%TO.N,+3.3V*%
X87790000Y-113360000D03*
%TO.P,U7,J1,PC0*%
%TO.N,/AUDIO_SAI4_FS_B*%
X81790000Y-113860000D03*
%TO.P,U7,J2,PC1*%
%TO.N,unconnected-(U7-PC1-PadJ2)*%
X82290000Y-113860000D03*
%TO.P,U7,J3,VSSA*%
%TO.N,GND*%
X82790000Y-113860000D03*
%TO.P,U7,J4,PC3*%
%TO.N,unconnected-(U7-PC3-PadJ4)*%
X83290000Y-113860000D03*
%TO.P,U7,J5,PA0*%
%TO.N,/BOOTKICK*%
X83790000Y-113860000D03*
%TO.P,U7,J6,PA7*%
%TO.N,unconnected-(U7-PA7-PadJ6)*%
X84290000Y-113860000D03*
%TO.P,U7,J7,PF15*%
%TO.N,unconnected-(U7-PF15-PadJ7)*%
X84790000Y-113860000D03*
%TO.P,U7,J8,PE9*%
%TO.N,/AUDIO_DFSDM1_CKOUT*%
X85290000Y-113860000D03*
%TO.P,U7,J9,PE14*%
%TO.N,/SPI_MOSI*%
X85790000Y-113860000D03*
%TO.P,U7,J10,PD11*%
%TO.N,/AUDIO_SAI4_SD_A*%
X86290000Y-113860000D03*
%TO.P,U7,J11,PD13*%
%TO.N,/CAN3_R*%
X86790000Y-113860000D03*
%TO.P,U7,J12,PD15*%
%TO.N,unconnected-(U7-PD15-PadJ12)*%
X87290000Y-113860000D03*
%TO.P,U7,J13,PD14*%
%TO.N,unconnected-(U7-PD14-PadJ13)*%
X87790000Y-113860000D03*
%TO.P,U7,K1,PC3_C*%
%TO.N,unconnected-(U7-PC3_C-PadK1)*%
X81790000Y-114360000D03*
%TO.P,U7,K2,PC2_C*%
%TO.N,unconnected-(U7-PC2_C-PadK2)*%
X82290000Y-114360000D03*
%TO.P,U7,K3,PA0_C*%
%TO.N,unconnected-(U7-PA0_C-PadK3)*%
X82790000Y-114360000D03*
%TO.P,U7,K4,PA1*%
%TO.N,/SBU2*%
X83290000Y-114360000D03*
%TO.P,U7,K5,PA6*%
%TO.N,/PWR_READOUT2*%
X83790000Y-114360000D03*
%TO.P,U7,K6,PC4*%
%TO.N,/SBU1*%
X84290000Y-114360000D03*
%TO.P,U7,K7,PG0*%
%TO.N,unconnected-(U7-PG0-PadK7)*%
X84790000Y-114360000D03*
%TO.P,U7,K8,PE13*%
%TO.N,/SPI_MISO*%
X85290000Y-114360000D03*
%TO.P,U7,K9,PH10*%
%TO.N,unconnected-(U7-PH10-PadK9)*%
X85790000Y-114360000D03*
%TO.P,U7,K10,PH12*%
%TO.N,unconnected-(U7-PH12-PadK10)*%
X86290000Y-114360000D03*
%TO.P,U7,K11,PD9*%
%TO.N,unconnected-(U7-PD9-PadK11)*%
X86790000Y-114360000D03*
%TO.P,U7,K12,PD10*%
%TO.N,unconnected-(U7-PD10-PadK12)*%
X87290000Y-114360000D03*
%TO.P,U7,K13,PD12*%
%TO.N,/CAN3_T*%
X87790000Y-114360000D03*
%TO.P,U7,L1,VDDA*%
%TO.N,+3.3V*%
X81790000Y-114860000D03*
%TO.P,U7,L2,VREF+*%
X82290000Y-114860000D03*
%TO.P,U7,L3,PA1_C*%
%TO.N,unconnected-(U7-PA1_C-PadL3)*%
X82790000Y-114860000D03*
%TO.P,U7,L4,PA5*%
%TO.N,unconnected-(U7-PA5-PadL4)*%
X83290000Y-114860000D03*
%TO.P,U7,L5,PB1*%
%TO.N,unconnected-(U7-PB1-PadL5)*%
X83790000Y-114860000D03*
%TO.P,U7,L6,PB2*%
%TO.N,unconnected-(U7-PB2-PadL6)*%
X84290000Y-114860000D03*
%TO.P,U7,L7,PG1*%
%TO.N,unconnected-(U7-PG1-PadL7)*%
X84790000Y-114860000D03*
%TO.P,U7,L8,PE12*%
%TO.N,/SPI_SCK*%
X85290000Y-114860000D03*
%TO.P,U7,L9,PB10*%
%TO.N,/CAN2_E*%
X85790000Y-114860000D03*
%TO.P,U7,L10,PH11*%
%TO.N,unconnected-(U7-PH11-PadL10)*%
X86290000Y-114860000D03*
%TO.P,U7,L11,PB13*%
%TO.N,/CAN4_R*%
X86790000Y-114860000D03*
%TO.P,U7,L12,VSS*%
%TO.N,GND*%
X87290000Y-114860000D03*
%TO.P,U7,L13,VDD*%
%TO.N,+3.3V*%
X87790000Y-114860000D03*
%TO.P,U7,M1,VDD*%
X81790000Y-115360000D03*
%TO.P,U7,M2,VSS*%
%TO.N,GND*%
X82290000Y-115360000D03*
%TO.P,U7,M3,PH3*%
%TO.N,unconnected-(U7-PH3-PadM3)*%
X82790000Y-115360000D03*
%TO.P,U7,M4,VSS*%
%TO.N,GND*%
X83290000Y-115360000D03*
%TO.P,U7,M5,PB0*%
%TO.N,unconnected-(U7-PB0-PadM5)*%
X83790000Y-115360000D03*
%TO.P,U7,M6,PF11*%
%TO.N,/VOLT_S*%
X84290000Y-115360000D03*
%TO.P,U7,M7,VSS*%
%TO.N,GND*%
X84790000Y-115360000D03*
%TO.P,U7,M8,PE10*%
%TO.N,unconnected-(U7-PE10-PadM8)*%
X85290000Y-115360000D03*
%TO.P,U7,M9,PB11*%
%TO.N,/CAN4_E*%
X85790000Y-115360000D03*
%TO.P,U7,M10,VDDLDO*%
%TO.N,+3.3V*%
X86290000Y-115360000D03*
%TO.P,U7,M11,VSS*%
%TO.N,GND*%
X86790000Y-115360000D03*
%TO.P,U7,M12,PD8*%
%TO.N,/CAN3_E*%
X87290000Y-115360000D03*
%TO.P,U7,M13,PB15*%
%TO.N,unconnected-(U7-PB15-PadM13)*%
X87790000Y-115360000D03*
%TO.P,U7,N1,PA2*%
%TO.N,/AUDIO_SAI4_SCK_B*%
X81790000Y-115860000D03*
%TO.P,U7,N2,PH2*%
%TO.N,unconnected-(U7-PH2-PadN2)*%
X82290000Y-115860000D03*
%TO.P,U7,N3,PA3*%
%TO.N,/SBU2_RELAY*%
X82790000Y-115860000D03*
%TO.P,U7,N4,VDD*%
%TO.N,+3.3V*%
X83290000Y-115860000D03*
%TO.P,U7,N5,PC5*%
%TO.N,/PWR_READOUT1*%
X83790000Y-115860000D03*
%TO.P,U7,N6,PF12*%
%TO.N,unconnected-(U7-PF12-PadN6)*%
X84290000Y-115860000D03*
%TO.P,U7,N7,VDD*%
%TO.N,+3.3V*%
X84790000Y-115860000D03*
%TO.P,U7,N8,PE11*%
%TO.N,/SPI_NSS*%
X85290000Y-115860000D03*
%TO.P,U7,N9,PE15*%
%TO.N,unconnected-(U7-PE15-PadN9)*%
X85790000Y-115860000D03*
%TO.P,U7,N10,VCAP*%
%TO.N,Net-(C19-Pad1)*%
X86290000Y-115860000D03*
%TO.P,U7,N11,VDD*%
%TO.N,+3.3V*%
X86790000Y-115860000D03*
%TO.P,U7,N12,PB12*%
%TO.N,/CAN4_T*%
X87290000Y-115860000D03*
%TO.P,U7,N13,PB14*%
%TO.N,unconnected-(U7-PB14-PadN13)*%
X87790000Y-115860000D03*
%TD*%
D10*
%TO.P,C13,1*%
%TO.N,Net-(U7-PH0)*%
X79530000Y-112755000D03*
%TO.P,C13,2*%
%TO.N,GND*%
X79530000Y-111205000D03*
%TD*%
D17*
%TO.P,C14,1*%
%TO.N,Net-(U7-PH1)*%
X79540000Y-114160000D03*
%TO.P,C14,2*%
%TO.N,GND*%
X79540000Y-115710000D03*
%TD*%
D30*
%TO.P,U3,1,TXD*%
%TO.N,/CAN2_T*%
X80675000Y-96765000D03*
%TO.P,U3,2,GND*%
%TO.N,GND*%
X81945000Y-96765000D03*
%TO.P,U3,3,VCC*%
%TO.N,+5V*%
X83215000Y-96765000D03*
%TO.P,U3,4,RXD*%
%TO.N,/CAN2_R*%
X84485000Y-96765000D03*
%TO.P,U3,5,SPLIT*%
%TO.N,Net-(U3-SPLIT)*%
X84485000Y-91815000D03*
%TO.P,U3,6,CANL*%
%TO.N,/CAN2_L*%
X83215000Y-91815000D03*
%TO.P,U3,7,CANH*%
%TO.N,/CAN2_H*%
X81945000Y-91815000D03*
%TO.P,U3,8,STB*%
%TO.N,/CAN2_E*%
X80675000Y-91815000D03*
%TD*%
D29*
%TO.P,R14,1*%
%TO.N,/LED_GREEN*%
X95590000Y-119665000D03*
%TO.P,R14,2*%
%TO.N,Net-(D1-GK)*%
X95590000Y-121315000D03*
%TD*%
D31*
%TO.P,R4,1*%
%TO.N,/CAN1_H*%
X88405000Y-89800000D03*
%TO.P,R4,2*%
%TO.N,Net-(U2-SPLIT)*%
X88405000Y-88150000D03*
%TD*%
D10*
%TO.P,C3,1*%
%TO.N,Net-(U2-SPLIT)*%
X91405000Y-89750000D03*
%TO.P,C3,2*%
%TO.N,GND*%
X91405000Y-88200000D03*
%TD*%
D17*
%TO.P,C19,1*%
%TO.N,Net-(C19-Pad1)*%
X86290000Y-118125000D03*
%TO.P,C19,2*%
%TO.N,GND*%
X86290000Y-119675000D03*
%TD*%
D33*
%TO.P,D1,1,RK*%
%TO.N,Net-(D1-RK)*%
X98720000Y-120330000D03*
%TO.P,D1,2,GK*%
%TO.N,Net-(D1-GK)*%
X97320000Y-120330000D03*
%TO.P,D1,3,BK*%
%TO.N,Net-(D1-BK)*%
X97320000Y-123830000D03*
%TO.P,D1,4,A*%
%TO.N,+3.3V*%
X98720000Y-123830000D03*
%TD*%
D11*
%TO.P,J1,1,Pin_1*%
%TO.N,GND*%
X68250000Y-122560000D03*
D12*
%TO.P,J1,2,Pin_2*%
%TO.N,+3.3V*%
X68250000Y-125100000D03*
%TD*%
D29*
%TO.P,R15,1*%
%TO.N,/LED_BLUE*%
X95630000Y-122645000D03*
%TO.P,R15,2*%
%TO.N,Net-(D1-BK)*%
X95630000Y-124295000D03*
%TD*%
D11*
%TO.P,J6,1,Pin_1*%
%TO.N,/SWDIO*%
X68300000Y-100190000D03*
D12*
%TO.P,J6,2,Pin_2*%
%TO.N,/SWCLK*%
X68300000Y-102730000D03*
%TO.P,J6,3,Pin_3*%
%TO.N,/JTDI*%
X68300000Y-105270000D03*
%TO.P,J6,4,Pin_4*%
%TO.N,/TRACESWO*%
X68300000Y-107810000D03*
%TO.P,J6,5,Pin_5*%
%TO.N,/NJTRST*%
X68300000Y-110350000D03*
%TD*%
D11*
%TO.P,J4,1,Pin_1*%
%TO.N,/FAN_ENABLE*%
X68250000Y-113920000D03*
D12*
%TO.P,J4,2,Pin_2*%
%TO.N,/FAN_TACHOMETER*%
X68250000Y-116460000D03*
%TO.P,J4,3,Pin_3*%
%TO.N,/FAN_SETUP*%
X68250000Y-119000000D03*
%TD*%
D29*
%TO.P,R3,1*%
%TO.N,Net-(U2-SPLIT)*%
X89905000Y-88150000D03*
%TO.P,R3,2*%
%TO.N,/CAN1_L*%
X89905000Y-89800000D03*
%TD*%
D34*
%TO.P,Y1,1,1*%
%TO.N,Net-(U7-PH1)*%
X75560000Y-114430000D03*
%TO.P,Y1,2,2*%
%TO.N,GND*%
X77760000Y-114430000D03*
%TO.P,Y1,3,3*%
%TO.N,Net-(U7-PH0)*%
X77760000Y-112730000D03*
%TO.P,Y1,4,4*%
%TO.N,GND*%
X75560000Y-112730000D03*
%TD*%
D35*
%TO.P,SW1,1,1*%
%TO.N,+3.3V*%
X67830000Y-90025000D03*
X67830000Y-84875000D03*
%TO.P,SW1,2,2*%
%TO.N,Net-(U7-BOOT0)*%
X69530000Y-90025000D03*
X69530000Y-84875000D03*
%TD*%
D31*
%TO.P,R6,1*%
%TO.N,/CAN2_H*%
X81330000Y-89940000D03*
%TO.P,R6,2*%
%TO.N,Net-(U3-SPLIT)*%
X81330000Y-88290000D03*
%TD*%
D29*
%TO.P,R2,1*%
%TO.N,Net-(USBC1-CC1)*%
X87200000Y-83020000D03*
%TO.P,R2,2*%
%TO.N,GND*%
X87200000Y-84670000D03*
%TD*%
D31*
%TO.P,R8,1*%
%TO.N,/CAN3_H*%
X75070000Y-90050000D03*
%TO.P,R8,2*%
%TO.N,Net-(U4-SPLIT)*%
X75070000Y-88400000D03*
%TD*%
D36*
%TO.P,R1,1*%
%TO.N,Net-(USBC1-CC2)*%
X80815000Y-71370000D03*
%TO.P,R1,2*%
%TO.N,GND*%
X79165000Y-71370000D03*
%TD*%
D29*
%TO.P,R7,1*%
%TO.N,Net-(U4-SPLIT)*%
X76570000Y-88375000D03*
%TO.P,R7,2*%
%TO.N,/CAN3_L*%
X76570000Y-90025000D03*
%TD*%
D11*
%TO.P,J3,1,Pin_1*%
%TO.N,/BOOTKICK*%
X86960000Y-128700000D03*
D12*
%TO.P,J3,2,Pin_2*%
%TO.N,/SOM_GPIO*%
X89500000Y-128700000D03*
%TO.P,J3,3,Pin_3*%
%TO.N,/VOLT_S*%
X92040000Y-128700000D03*
%TO.P,J3,4,Pin_4*%
%TO.N,/VBAT_EN*%
X94580000Y-128700000D03*
%TO.P,J3,5,Pin_5*%
%TO.N,/SBU1_RELAY*%
X97120000Y-128700000D03*
%TO.P,J3,6,Pin_6*%
%TO.N,/SBU2_RELAY*%
X99660000Y-128700000D03*
%TO.P,J3,7,Pin_7*%
%TO.N,/PWR_READOUT1*%
X102200000Y-128700000D03*
%TO.P,J3,8,Pin_8*%
%TO.N,/PWR_READOUT2*%
X104740000Y-128700000D03*
%TD*%
D13*
%TO.P,R13,1*%
%TO.N,/LED_RED*%
X97355000Y-118350000D03*
%TO.P,R13,2*%
%TO.N,Net-(D1-RK)*%
X99005000Y-118350000D03*
%TD*%
D25*
%TO.P,C18,1*%
%TO.N,Net-(C18-Pad1)*%
X90020000Y-111380000D03*
%TO.P,C18,2*%
%TO.N,GND*%
X91570000Y-111380000D03*
%TD*%
D30*
%TO.P,U5,1,TXD*%
%TO.N,/CAN4_T*%
X94505000Y-96385000D03*
%TO.P,U5,2,GND*%
%TO.N,GND*%
X95775000Y-96385000D03*
%TO.P,U5,3,VCC*%
%TO.N,+5V*%
X97045000Y-96385000D03*
%TO.P,U5,4,RXD*%
%TO.N,/CAN4_R*%
X98315000Y-96385000D03*
%TO.P,U5,5,SPLIT*%
%TO.N,Net-(U5-SPLIT)*%
X98315000Y-91435000D03*
%TO.P,U5,6,CANL*%
%TO.N,/CAN4_L*%
X97045000Y-91435000D03*
%TO.P,U5,7,CANH*%
%TO.N,/CAN4_H*%
X95775000Y-91435000D03*
%TO.P,U5,8,STB*%
%TO.N,/CAN4_E*%
X94505000Y-91435000D03*
%TD*%
D10*
%TO.P,C7,1*%
%TO.N,Net-(U4-SPLIT)*%
X78070000Y-89975000D03*
%TO.P,C7,2*%
%TO.N,GND*%
X78070000Y-88425000D03*
%TD*%
D37*
%TO.P,U1,1,GND*%
%TO.N,GND*%
X67970000Y-78230000D03*
%TO.P,U1,2,VO*%
%TO.N,+3.3V*%
X70270000Y-78230000D03*
D38*
X70270000Y-71930000D03*
D37*
%TO.P,U1,3,VI*%
%TO.N,+5V*%
X72570000Y-78230000D03*
%TD*%
D10*
%TO.P,C8,1*%
%TO.N,Net-(U5-SPLIT)*%
X98160000Y-89485000D03*
%TO.P,C8,2*%
%TO.N,GND*%
X98160000Y-87935000D03*
%TD*%
D30*
%TO.P,U4,1,TXD*%
%TO.N,/CAN3_T*%
X74415000Y-96875000D03*
%TO.P,U4,2,GND*%
%TO.N,GND*%
X75685000Y-96875000D03*
%TO.P,U4,3,VCC*%
%TO.N,+5V*%
X76955000Y-96875000D03*
%TO.P,U4,4,RXD*%
%TO.N,/CAN3_R*%
X78225000Y-96875000D03*
%TO.P,U4,5,SPLIT*%
%TO.N,Net-(U4-SPLIT)*%
X78225000Y-91925000D03*
%TO.P,U4,6,CANL*%
%TO.N,/CAN3_L*%
X76955000Y-91925000D03*
%TO.P,U4,7,CANH*%
%TO.N,/CAN3_H*%
X75685000Y-91925000D03*
%TO.P,U4,8,STB*%
%TO.N,/CAN3_E*%
X74415000Y-91925000D03*
%TD*%
D10*
%TO.P,C17,1*%
%TO.N,Net-(C17-Pad1)*%
X83290000Y-107605000D03*
%TO.P,C17,2*%
%TO.N,GND*%
X83290000Y-106055000D03*
%TD*%
D29*
%TO.P,R17,1*%
%TO.N,+3.3V*%
X71430000Y-95910000D03*
%TO.P,R17,2*%
%TO.N,Net-(U7-NRST)*%
X71430000Y-97560000D03*
%TD*%
D35*
%TO.P,SW2,1,1*%
%TO.N,GND*%
X67850000Y-97175000D03*
X67850000Y-92025000D03*
%TO.P,SW2,2,2*%
%TO.N,Net-(U7-NRST)*%
X69550000Y-97175000D03*
X69550000Y-92025000D03*
%TD*%
D10*
%TO.P,C4,1*%
%TO.N,Net-(U3-SPLIT)*%
X84330000Y-89865000D03*
%TO.P,C4,2*%
%TO.N,GND*%
X84330000Y-88315000D03*
%TD*%
D31*
%TO.P,R16,1*%
%TO.N,Net-(U7-BOOT0)*%
X71450000Y-90045000D03*
%TO.P,R16,2*%
%TO.N,GND*%
X71450000Y-88395000D03*
%TD*%
D39*
%TO.N,GND*%
X96580000Y-74940000D03*
%TO.N,/IMU_SCL*%
X74160000Y-122260000D03*
%TO.N,/IMU_SDA*%
X74120000Y-121050000D03*
%TO.N,GND*%
X79080000Y-124020000D03*
X73300000Y-123820000D03*
%TO.N,+3.3V*%
X76910000Y-124490000D03*
X71800000Y-121500000D03*
%TO.N,GND*%
X76110000Y-121366200D03*
X77240000Y-123870000D03*
X78760000Y-83260000D03*
X67960000Y-79780000D03*
X70910000Y-82980000D03*
%TO.N,+5V*%
X83330000Y-99753800D03*
X90490000Y-99690000D03*
X98200000Y-98430000D03*
X76990000Y-99910000D03*
X74905000Y-83250000D03*
%TO.N,GND*%
X75310000Y-73380000D03*
%TO.N,+3.3V*%
X68940000Y-80160000D03*
%TO.N,GND*%
X78560000Y-77410000D03*
X77980000Y-72680000D03*
X78100000Y-71360000D03*
%TO.N,+12V*%
X74830000Y-77330000D03*
%TO.N,GND*%
X94580000Y-98400000D03*
X105180000Y-71170000D03*
X75490000Y-99850000D03*
X81800000Y-99670000D03*
D40*
%TO.N,/CAN1_T*%
X84118800Y-102830000D03*
%TO.N,/CAN2_R*%
X84470000Y-102016200D03*
D39*
%TO.N,GND*%
X72870000Y-94790000D03*
X93096200Y-111250000D03*
X81680000Y-105816200D03*
X92141369Y-112828631D03*
X91920000Y-109683800D03*
X85040000Y-105816200D03*
X87310000Y-105816200D03*
X77570000Y-116630000D03*
X77510000Y-110920000D03*
X82359400Y-120010000D03*
X87550000Y-120000000D03*
D40*
X83290000Y-115360000D03*
D39*
X98080000Y-86700000D03*
D40*
X86790000Y-115360000D03*
X82790000Y-110360000D03*
D39*
X91370000Y-87150000D03*
D40*
X85290000Y-111360000D03*
D39*
X84110000Y-87280000D03*
X78070000Y-87310000D03*
D40*
X85790000Y-110360000D03*
X82290000Y-112860000D03*
X87290000Y-110860000D03*
X87290000Y-114860000D03*
X82290000Y-115360000D03*
X87290000Y-113360000D03*
D39*
X88900000Y-99710000D03*
X76650000Y-113590000D03*
D40*
X86290000Y-110360000D03*
X82290000Y-111360000D03*
D39*
X87040000Y-85790000D03*
D40*
X84790000Y-110360000D03*
D39*
X71460000Y-87280000D03*
D40*
X84790000Y-115360000D03*
D39*
X67840000Y-94490000D03*
D40*
X82790000Y-113860000D03*
X82290000Y-111860000D03*
%TO.N,+3.3V*%
X87790000Y-112860000D03*
X87790000Y-113360000D03*
X86290000Y-109860000D03*
X87290000Y-111360000D03*
X81790000Y-114860000D03*
X84290000Y-109860000D03*
X81790000Y-112360000D03*
X81790000Y-112860000D03*
X87790000Y-114860000D03*
X84790000Y-109860000D03*
X83290000Y-110360000D03*
D39*
X67810000Y-87380000D03*
D40*
X86290000Y-115360000D03*
X81790000Y-111360000D03*
X82790000Y-109860000D03*
D39*
X71440000Y-94710000D03*
D40*
X82290000Y-114860000D03*
X83290000Y-115860000D03*
X83290000Y-110860000D03*
X84790000Y-115860000D03*
X81790000Y-115360000D03*
X87790000Y-110860000D03*
X82790000Y-111860000D03*
D39*
X98690000Y-122540000D03*
D40*
X86790000Y-115860000D03*
%TO.N,/SBU2*%
X85220594Y-125363800D03*
X81010000Y-125350000D03*
%TO.N,/SBU1*%
X84290000Y-114360000D03*
X85610000Y-85370000D03*
%TO.N,/CAN2_E*%
X85790000Y-114860000D03*
X97990000Y-114450000D03*
%TO.N,/CAN3_R*%
X97650000Y-114080000D03*
X86790000Y-113860000D03*
%TO.N,/CAN1_R*%
X83790000Y-110860000D03*
D39*
X91610000Y-98110000D03*
D40*
%TO.N,/CAN3_T*%
X97240000Y-113770000D03*
X97240000Y-115756200D03*
%TO.N,/CAN1_E*%
X86980000Y-91690000D03*
X84290000Y-111360000D03*
D39*
%TO.N,/CAN1_T*%
X87810000Y-98350000D03*
D40*
%TO.N,/CAN2_R*%
X84470000Y-98420000D03*
%TO.N,/CAN2_T*%
X84290000Y-110860000D03*
D39*
X80670000Y-98510000D03*
D40*
%TO.N,/CAN3_E*%
X96780000Y-116063800D03*
X96763797Y-113770000D03*
D39*
%TO.N,+12V*%
X85010000Y-81430000D03*
X87550000Y-81380000D03*
D40*
%TO.N,Net-(U7-NRST)*%
X71490000Y-98580000D03*
X84290000Y-112860000D03*
%TO.N,/UART_RX*%
X89660000Y-107770000D03*
X85290000Y-113360000D03*
%TO.N,/SPI_MISO*%
X85290000Y-114360000D03*
%TO.N,/SPI_MOSI*%
X85790000Y-113860000D03*
%TO.N,/UART_TX*%
X90473800Y-107430000D03*
X85290000Y-112860000D03*
%TO.N,/SOM_GPIO*%
X83790000Y-113360000D03*
%TO.N,/PWR_READOUT2*%
X83790000Y-114360000D03*
%TO.N,/VBAT_EN*%
X94010000Y-108580000D03*
%TO.N,/BOOTKICK*%
X83790000Y-113860000D03*
%TO.N,/SBU1_RELAY*%
X93543741Y-113536520D03*
%TO.N,/FAN_SETUP*%
X92860000Y-114863800D03*
%TO.N,/FAN_TACHOMETER*%
X85790000Y-111860000D03*
%TO.N,/FAN_ENABLE*%
X85790000Y-111360000D03*
%TO.N,/AUDIO_DFSDM1_CKOUT*%
X85780000Y-124740000D03*
X85290000Y-113860000D03*
%TO.N,/AUDIO_SAI4_SD_A*%
X86290000Y-113860000D03*
X93203800Y-113870000D03*
%TO.N,/SWDIO*%
X96530000Y-110390000D03*
X86790000Y-111360000D03*
%TO.N,/JTDI*%
X89060000Y-109000000D03*
%TO.N,/NJTRST*%
X84290000Y-110360000D03*
X81575958Y-107454042D03*
%TO.N,/TRACESWO*%
X84790000Y-112360000D03*
%TO.N,/LED_RED*%
X85790000Y-112360000D03*
X97370000Y-117440000D03*
%TO.N,/LED_GREEN*%
X95590000Y-117080000D03*
X86290000Y-112360000D03*
%TO.N,/LED_BLUE*%
X94336200Y-122610000D03*
X86790000Y-112360000D03*
%TO.N,Net-(U7-BOOT0)*%
X71460000Y-91200000D03*
X84290000Y-111860000D03*
%TO.N,/USB_DM*%
X85970000Y-80270000D03*
X86560000Y-80820000D03*
%TO.N,/USB_DP*%
X86510000Y-80230000D03*
%TD*%
D41*
%TO.N,+5V*%
X104700000Y-79430000D02*
X103510000Y-80620000D01*
X103510000Y-80620000D02*
X98880000Y-80620000D01*
X98880000Y-80620000D02*
X96590000Y-82910000D01*
%TO.N,GND*%
X96590000Y-74950000D02*
X96580000Y-74940000D01*
X96590000Y-77310000D02*
X96590000Y-74950000D01*
%TO.N,+5V*%
X90490000Y-99690000D02*
X90490000Y-98735000D01*
X90490000Y-98735000D02*
X90425000Y-98670000D01*
X75190000Y-83250000D02*
X75235000Y-83295000D01*
X75235000Y-83295000D02*
X76140000Y-83295000D01*
X74905000Y-83250000D02*
X75190000Y-83250000D01*
X76140000Y-83295000D02*
X76185000Y-83250000D01*
%TO.N,/IMU_SCL*%
X74153800Y-122266200D02*
X74160000Y-122260000D01*
X72955000Y-122266200D02*
X74153800Y-122266200D01*
%TO.N,/IMU_SDA*%
X73816200Y-120746200D02*
X74120000Y-121050000D01*
X72935000Y-120746200D02*
X73816200Y-120746200D01*
%TO.N,GND*%
X79080000Y-122985000D02*
X79080000Y-124020000D01*
X73351200Y-123871200D02*
X73300000Y-123820000D01*
X74275000Y-123871200D02*
X73351200Y-123871200D01*
%TO.N,+3.3V*%
X75825000Y-123871200D02*
X75825000Y-122711200D01*
X75825000Y-122711200D02*
X76040000Y-122496200D01*
X76291200Y-123871200D02*
X76910000Y-124490000D01*
X75825000Y-123871200D02*
X76291200Y-123871200D01*
X71800000Y-121500000D02*
X71800000Y-121771200D01*
X71800000Y-121771200D02*
X71305000Y-122266200D01*
X71285000Y-120985000D02*
X71800000Y-121500000D01*
X71285000Y-120746200D02*
X71285000Y-120985000D01*
D42*
%TO.N,/AUDIO_DFSDM1_DATIN3*%
X70290000Y-109860000D02*
X69830000Y-110320000D01*
X81790000Y-109860000D02*
X70290000Y-109860000D01*
X69830000Y-127159979D02*
X70180021Y-127510000D01*
X70180021Y-127510000D02*
X72040000Y-127510000D01*
X72040000Y-127510000D02*
X73250000Y-128720000D01*
%TO.N,/AUDIO_SAI4_SD_B*%
X74130000Y-127060000D02*
X70640000Y-127060000D01*
X70640000Y-127060000D02*
X70230000Y-126650000D01*
X70230000Y-126650000D02*
X70230000Y-110370000D01*
X70230000Y-110370000D02*
X70490000Y-110110000D01*
X75790000Y-128720000D02*
X74130000Y-127060000D01*
X70490000Y-110110000D02*
X81520000Y-110110000D01*
%TO.N,/AUDIO_SAI4_MCLK_B*%
X68170000Y-128720000D02*
X69147200Y-129697200D01*
X69147200Y-129697200D02*
X76662800Y-129697200D01*
X76662800Y-129697200D02*
X77050000Y-129310000D01*
X77050000Y-129310000D02*
X77050000Y-128300000D01*
X77050000Y-128300000D02*
X75550000Y-126800000D01*
X81207500Y-110287200D02*
X81530000Y-110609700D01*
X75550000Y-126800000D02*
X70820000Y-126800000D01*
X70820000Y-126800000D02*
X70470000Y-126450000D01*
X70470000Y-126450000D02*
X70470000Y-110610000D01*
X70792800Y-110287200D02*
X81207500Y-110287200D01*
X70470000Y-110610000D02*
X70792800Y-110287200D01*
D41*
%TO.N,+3.3V*%
X79110000Y-121821200D02*
X78595000Y-122336200D01*
X78595000Y-122336200D02*
X77700000Y-122336200D01*
X77470000Y-120246200D02*
X77040000Y-120676200D01*
X78310000Y-120246200D02*
X77470000Y-120246200D01*
X79110000Y-121821200D02*
X79110000Y-121046200D01*
X79110000Y-121046200D02*
X78310000Y-120246200D01*
%TO.N,/IMU_SCL*%
X72955000Y-122741200D02*
X72955000Y-122266200D01*
%TO.N,+3.3V*%
X77040000Y-120676200D02*
X77040000Y-121181200D01*
X77040000Y-121181200D02*
X76040000Y-122181200D01*
X76040000Y-122181200D02*
X76040000Y-122496200D01*
X76075000Y-123871200D02*
X76090000Y-123886200D01*
%TO.N,GND*%
X77113800Y-123870000D02*
X76540000Y-123296200D01*
X77240000Y-123870000D02*
X77113800Y-123870000D01*
X76540000Y-123296200D02*
X76540000Y-122496200D01*
X77240000Y-122696200D02*
X77040000Y-122496200D01*
X77240000Y-123870000D02*
X77240000Y-122696200D01*
X75380000Y-121836200D02*
X75640000Y-121836200D01*
%TO.N,/IMU_SDA*%
X75750000Y-120386200D02*
X76040000Y-120676200D01*
X73295000Y-120386200D02*
X75750000Y-120386200D01*
X72935000Y-120746200D02*
X73295000Y-120386200D01*
%TO.N,/IMU_SCL*%
X72357800Y-121669000D02*
X72955000Y-122266200D01*
X76540000Y-120676200D02*
X76540000Y-120341800D01*
X76540000Y-120341800D02*
X76292200Y-120094000D01*
X76292200Y-120094000D02*
X72573218Y-120094000D01*
X72357800Y-120309418D02*
X72357800Y-121669000D01*
X72573218Y-120094000D02*
X72357800Y-120309418D01*
%TO.N,GND*%
X75640000Y-121836200D02*
X76110000Y-121366200D01*
X76080000Y-121336200D02*
X76110000Y-121366200D01*
X75380000Y-120836200D02*
X75910000Y-121366200D01*
X77040000Y-122496200D02*
X76540000Y-122496200D01*
X75910000Y-121366200D02*
X76110000Y-121366200D01*
X75380000Y-121336200D02*
X76080000Y-121336200D01*
%TO.N,+5V*%
X105150000Y-74340000D02*
X105150000Y-76440000D01*
X105150000Y-76440000D02*
X104700000Y-76890000D01*
%TO.N,GND*%
X105180000Y-71170000D02*
X105180000Y-72180000D01*
X105180000Y-72180000D02*
X105150000Y-72210000D01*
X105150000Y-72210000D02*
X105150000Y-72440000D01*
X78750000Y-83250000D02*
X78760000Y-83260000D01*
X77735000Y-83250000D02*
X78750000Y-83250000D01*
X75310000Y-73380000D02*
X75310000Y-73260000D01*
X75310000Y-73260000D02*
X74620000Y-72570000D01*
X67970000Y-79770000D02*
X67960000Y-79780000D01*
X67970000Y-78230000D02*
X67970000Y-79770000D01*
X70910000Y-82980000D02*
X70910000Y-82590000D01*
X70910000Y-82590000D02*
X70050000Y-81730000D01*
X71820000Y-82070000D02*
X70910000Y-82980000D01*
X71820000Y-81760000D02*
X71820000Y-82070000D01*
X75310000Y-73380000D02*
X74740000Y-73950000D01*
X74740000Y-74160000D02*
X74830000Y-74250000D01*
X74740000Y-73950000D02*
X74740000Y-74160000D01*
%TO.N,+5V*%
X83330000Y-99753800D02*
X83350000Y-99733800D01*
X83350000Y-99733800D02*
X83350000Y-98725000D01*
X83350000Y-98725000D02*
X83345000Y-98720000D01*
X97205000Y-98430000D02*
X97155000Y-98380000D01*
X98200000Y-98430000D02*
X97205000Y-98430000D01*
X76990000Y-98890000D02*
X77050000Y-98830000D01*
X76990000Y-99910000D02*
X76990000Y-98890000D01*
%TO.N,+3.3V*%
X68955000Y-80175000D02*
X68940000Y-80160000D01*
X70050000Y-80175000D02*
X68955000Y-80175000D01*
X70170000Y-78080000D02*
X70170000Y-80055000D01*
X70170000Y-80055000D02*
X70050000Y-80175000D01*
X70170000Y-78080000D02*
X70170000Y-71780000D01*
%TO.N,+5V*%
X71820000Y-80165000D02*
X71820000Y-78730000D01*
X71820000Y-78730000D02*
X72470000Y-78080000D01*
X76185000Y-83250000D02*
X74905000Y-83250000D01*
X74905000Y-83250000D02*
X71820000Y-80165000D01*
X76520000Y-80250000D02*
X76520000Y-82915000D01*
X76520000Y-82915000D02*
X76185000Y-83250000D01*
%TO.N,GND*%
X78290000Y-76585000D02*
X78290000Y-77140000D01*
X78290000Y-77140000D02*
X78560000Y-77410000D01*
X78790000Y-77180000D02*
X78560000Y-77410000D01*
X78790000Y-76585000D02*
X78790000Y-77180000D01*
%TO.N,+5V*%
X76520000Y-80250000D02*
X77790000Y-78980000D01*
X77790000Y-78980000D02*
X77790000Y-76585000D01*
%TO.N,Net-(L1-Pad1)*%
X78890000Y-80250000D02*
X79502500Y-79637500D01*
X79502500Y-79637500D02*
X79502500Y-75872500D01*
X79502500Y-75372500D02*
X79502500Y-75872500D01*
X79502500Y-74872500D02*
X79502500Y-75372500D01*
%TO.N,GND*%
X77290000Y-73660000D02*
X77290000Y-73100000D01*
X77290000Y-73100000D02*
X77710000Y-72680000D01*
X77710000Y-72680000D02*
X77980000Y-72680000D01*
X77790000Y-73660000D02*
X77790000Y-72870000D01*
X77790000Y-72870000D02*
X77980000Y-72680000D01*
X77980000Y-72680000D02*
X78110000Y-72680000D01*
X78110000Y-72680000D02*
X78290000Y-72860000D01*
X78470000Y-72680000D02*
X78790000Y-73000000D01*
X78290000Y-72860000D02*
X78290000Y-73660000D01*
X77980000Y-72680000D02*
X78470000Y-72680000D01*
X78790000Y-73000000D02*
X78790000Y-73660000D01*
X78110000Y-71370000D02*
X78100000Y-71360000D01*
X79165000Y-71370000D02*
X78110000Y-71370000D01*
%TO.N,Net-(U8-SS{slash}TR)*%
X76577500Y-74372500D02*
X76125000Y-73920000D01*
X76125000Y-73920000D02*
X76125000Y-72170000D01*
%TO.N,+12V*%
X77290000Y-76585000D02*
X76855000Y-76150000D01*
X76855000Y-76150000D02*
X74830000Y-76150000D01*
X74830000Y-76150000D02*
X75800000Y-76150000D01*
X75800000Y-76150000D02*
X76577500Y-75372500D01*
X74830000Y-76150000D02*
X76107500Y-74872500D01*
X76107500Y-74872500D02*
X76577500Y-74872500D01*
X74830000Y-76150000D02*
X76300000Y-76150000D01*
X76300000Y-76150000D02*
X76577500Y-75872500D01*
X74830000Y-77330000D02*
X74830000Y-76150000D01*
%TO.N,/CAN3_L*%
X76955000Y-91925000D02*
X76955000Y-92899999D01*
X76955000Y-92899999D02*
X77156001Y-93101000D01*
X77156001Y-93101000D02*
X78618000Y-93101000D01*
X78618000Y-93101000D02*
X79070000Y-92649000D01*
X79070000Y-92649000D02*
X79070000Y-87820000D01*
X80730000Y-86160000D02*
X80730000Y-76470000D01*
X79070000Y-87820000D02*
X80730000Y-86160000D01*
X80730000Y-76470000D02*
X81110000Y-76090000D01*
X81110000Y-76090000D02*
X84100000Y-76090000D01*
X84100000Y-76090000D02*
X84660000Y-76650000D01*
X84660000Y-76650000D02*
X84660000Y-77450000D01*
%TO.N,/CAN3_H*%
X75685000Y-91925000D02*
X75685000Y-92899999D01*
X79560000Y-92900000D02*
X79560000Y-87940000D01*
X75685000Y-92899999D02*
X76275001Y-93490000D01*
X76275001Y-93490000D02*
X78970000Y-93490000D01*
X78970000Y-93490000D02*
X79560000Y-92900000D01*
X79560000Y-87940000D02*
X81110000Y-86390000D01*
X81110000Y-86390000D02*
X81110000Y-76870000D01*
X81110000Y-76870000D02*
X81444800Y-76535200D01*
X83860000Y-76980000D02*
X83860000Y-77450000D01*
X81444800Y-76535200D02*
X83415200Y-76535200D01*
X83415200Y-76535200D02*
X83860000Y-76980000D01*
%TO.N,GND*%
X95605000Y-98380000D02*
X95605000Y-96555000D01*
X95605000Y-96555000D02*
X95775000Y-96385000D01*
X94580000Y-98400000D02*
X95585000Y-98400000D01*
X95585000Y-98400000D02*
X95605000Y-98380000D01*
%TO.N,+5V*%
X90410000Y-98685000D02*
X90425000Y-98670000D01*
%TO.N,GND*%
X88875000Y-99685000D02*
X88875000Y-98670000D01*
X88900000Y-99710000D02*
X88875000Y-99685000D01*
D42*
%TO.N,/USB_DM*%
X86560000Y-80820000D02*
X86310000Y-81070000D01*
X86310000Y-81070000D02*
X86310000Y-92330000D01*
X86310000Y-92330000D02*
X87540000Y-93560000D01*
X93730000Y-99590000D02*
X98120000Y-99590000D01*
X98650000Y-100120000D02*
X98650000Y-114900000D01*
X87540000Y-93560000D02*
X92100000Y-93560000D01*
X93070000Y-94530000D02*
X93070000Y-98930000D01*
X92100000Y-93560000D02*
X93070000Y-94530000D01*
X98120000Y-99590000D02*
X98650000Y-100120000D01*
X98650000Y-114900000D02*
X98360000Y-115190000D01*
X93070000Y-98930000D02*
X93730000Y-99590000D01*
X98360000Y-115190000D02*
X91970598Y-115190000D01*
X91970598Y-115190000D02*
X90713398Y-113932800D01*
X90713398Y-113932800D02*
X89362800Y-113932800D01*
X89362800Y-113932800D02*
X87790000Y-112360000D01*
%TO.N,/CAN3_E*%
X74415000Y-91925000D02*
X73780000Y-92560000D01*
X96520000Y-101050000D02*
X96940000Y-101470000D01*
X73780000Y-92560000D02*
X73780000Y-100540000D01*
X73780000Y-100540000D02*
X74290000Y-101050000D01*
X74290000Y-101050000D02*
X96520000Y-101050000D01*
X96940000Y-101470000D02*
X96940000Y-113260000D01*
X96940000Y-113260000D02*
X96763797Y-113436203D01*
X96763797Y-113436203D02*
X96763797Y-113770000D01*
%TO.N,/SBU2*%
X92390000Y-76610000D02*
X91660000Y-75880000D01*
X100140000Y-94700000D02*
X99430000Y-93990000D01*
X85226794Y-125370000D02*
X99729924Y-125370000D01*
X91660000Y-75880000D02*
X87670000Y-75880000D01*
X85220594Y-125363800D02*
X85226794Y-125370000D01*
X99430000Y-93990000D02*
X99430000Y-86210000D01*
X93440056Y-85980000D02*
X92390000Y-84929944D01*
X87060000Y-76490000D02*
X87060000Y-77450000D01*
X99430000Y-86210000D02*
X99200000Y-85980000D01*
X100140000Y-124959924D02*
X100140000Y-94700000D01*
X99200000Y-85980000D02*
X93440056Y-85980000D01*
X92390000Y-84929944D02*
X92390000Y-76610000D01*
X99729924Y-125370000D02*
X100140000Y-124959924D01*
X87670000Y-75880000D02*
X87060000Y-76490000D01*
D41*
%TO.N,/CAN4_L*%
X98950000Y-86250000D02*
X98304863Y-86250000D01*
X98277663Y-86222800D02*
X97882337Y-86222800D01*
X92060000Y-85040000D02*
X92060000Y-76959000D01*
X97450000Y-92900000D02*
X98570000Y-92900000D01*
X98570000Y-92900000D02*
X99100000Y-92370000D01*
X88421000Y-76229000D02*
X87860000Y-76790000D01*
X97045000Y-91435000D02*
X97045000Y-92495000D01*
X99100000Y-92370000D02*
X99100000Y-86400000D01*
X87860000Y-76790000D02*
X87860000Y-77450000D01*
X97882337Y-86222800D02*
X97855137Y-86250000D01*
X99100000Y-86400000D02*
X98950000Y-86250000D01*
X97045000Y-92495000D02*
X97450000Y-92900000D01*
X98304863Y-86250000D02*
X98277663Y-86222800D01*
X97855137Y-86250000D02*
X93270000Y-86250000D01*
X93270000Y-86250000D02*
X92060000Y-85040000D01*
X92060000Y-76959000D02*
X91330000Y-76229000D01*
X91330000Y-76229000D02*
X88421000Y-76229000D01*
%TO.N,/IMU_SDA*%
X102160000Y-79430000D02*
X102140000Y-79410000D01*
%TO.N,+5V*%
X104700000Y-76890000D02*
X104700000Y-76880000D01*
%TO.N,GND*%
X75500000Y-99840000D02*
X75490000Y-99850000D01*
X75500000Y-98830000D02*
X75500000Y-99840000D01*
%TO.N,+5V*%
X77050000Y-98830000D02*
X77050000Y-96970000D01*
X77050000Y-96970000D02*
X76955000Y-96875000D01*
%TO.N,GND*%
X75500000Y-98830000D02*
X75500000Y-97060000D01*
X75500000Y-97060000D02*
X75685000Y-96875000D01*
X81795000Y-99665000D02*
X81800000Y-99670000D01*
X81795000Y-98720000D02*
X81795000Y-99665000D01*
%TO.N,+5V*%
X83345000Y-98720000D02*
X83345000Y-96895000D01*
X83345000Y-96895000D02*
X83215000Y-96765000D01*
%TO.N,GND*%
X81795000Y-98720000D02*
X81795000Y-96915000D01*
X81795000Y-96915000D02*
X81945000Y-96765000D01*
%TO.N,+5V*%
X83200000Y-96780000D02*
X83215000Y-96765000D01*
X90425000Y-98670000D02*
X90425000Y-96735000D01*
X90425000Y-96735000D02*
X90340000Y-96650000D01*
%TO.N,GND*%
X88875000Y-98670000D02*
X88875000Y-96845000D01*
X88875000Y-96845000D02*
X89070000Y-96650000D01*
%TO.N,+5V*%
X97155000Y-98380000D02*
X97155000Y-98225000D01*
X97155000Y-98225000D02*
X97045000Y-98115000D01*
X97045000Y-98115000D02*
X97045000Y-96385000D01*
X97030000Y-96400000D02*
X97045000Y-96385000D01*
%TO.N,GND*%
X72890000Y-94810000D02*
X72870000Y-94790000D01*
X72890000Y-95965000D02*
X72890000Y-94810000D01*
X92966200Y-111380000D02*
X93096200Y-111250000D01*
X91570000Y-111380000D02*
X92966200Y-111380000D01*
X81918800Y-106055000D02*
X81680000Y-105816200D01*
X83290000Y-106055000D02*
X81918800Y-106055000D01*
X79530000Y-111205000D02*
X77795000Y-111205000D01*
X77795000Y-111205000D02*
X77510000Y-110920000D01*
X79540000Y-115710000D02*
X78490000Y-115710000D01*
X78490000Y-115710000D02*
X77570000Y-116630000D01*
D42*
%TO.N,/JTDI*%
X89060000Y-109000000D02*
X87330000Y-109000000D01*
X87040000Y-109290000D02*
X87040000Y-109670000D01*
X87330000Y-109000000D02*
X87040000Y-109290000D01*
D41*
%TO.N,GND*%
X87550000Y-120000000D02*
X86615000Y-120000000D01*
X86615000Y-120000000D02*
X86290000Y-119675000D01*
X82140000Y-77550000D02*
X82130000Y-77560000D01*
X75790000Y-112730000D02*
X76650000Y-113590000D01*
X77760000Y-114430000D02*
X77490000Y-114430000D01*
X89010500Y-78199500D02*
X89060000Y-78150000D01*
X84330000Y-88315000D02*
X84330000Y-87500000D01*
X89060000Y-78150000D02*
X89800000Y-78150000D01*
X98160000Y-86780000D02*
X98080000Y-86700000D01*
X67850000Y-92025000D02*
X67850000Y-94480000D01*
X83510000Y-79360000D02*
X83510000Y-78200000D01*
X79433800Y-115816200D02*
X79540000Y-115710000D01*
X67840000Y-94490000D02*
X67850000Y-94500000D01*
X86990000Y-85740000D02*
X87040000Y-85790000D01*
X90390000Y-73510000D02*
X90750000Y-73150000D01*
X91405000Y-87185000D02*
X91370000Y-87150000D01*
X77490000Y-114430000D02*
X76650000Y-113590000D01*
X75560000Y-112730000D02*
X75790000Y-112730000D01*
X87040000Y-84830000D02*
X87200000Y-84670000D01*
X98160000Y-87935000D02*
X98160000Y-86780000D01*
X71450000Y-88395000D02*
X71450000Y-87290000D01*
X91570000Y-111023465D02*
X91570000Y-111380000D01*
X71450000Y-87290000D02*
X71460000Y-87280000D01*
X72710000Y-96010000D02*
X72720000Y-96000000D01*
X89800000Y-78150000D02*
X90390000Y-77560000D01*
X81770000Y-73150000D02*
X82140000Y-73520000D01*
X67850000Y-94500000D02*
X67850000Y-97175000D01*
X83290000Y-106055000D02*
X83061200Y-106055000D01*
X67850000Y-94480000D02*
X67840000Y-94490000D01*
X78070000Y-88425000D02*
X78070000Y-87310000D01*
X89010500Y-79360000D02*
X89010500Y-78199500D01*
X83460000Y-78150000D02*
X82720000Y-78150000D01*
X91405000Y-88200000D02*
X91405000Y-87185000D01*
X79220000Y-71425000D02*
X79165000Y-71370000D01*
X87040000Y-85790000D02*
X87040000Y-84830000D01*
X82720000Y-78150000D02*
X82130000Y-77560000D01*
X83510000Y-78200000D02*
X83460000Y-78150000D01*
X84330000Y-87500000D02*
X84110000Y-87280000D01*
%TO.N,+5V*%
X76930000Y-96900000D02*
X76955000Y-96875000D01*
%TO.N,+3.3V*%
X67830000Y-90025000D02*
X67830000Y-87400000D01*
X67830000Y-87360000D02*
X67810000Y-87380000D01*
X71480000Y-94750000D02*
X71440000Y-94710000D01*
X67830000Y-87400000D02*
X67810000Y-87380000D01*
X71480000Y-95840000D02*
X71480000Y-94750000D01*
X67830000Y-84875000D02*
X67830000Y-87360000D01*
X98720000Y-123830000D02*
X98720000Y-122570000D01*
%TO.N,/CAN3_H*%
X75685000Y-91925000D02*
X75685000Y-90665000D01*
X75685000Y-90665000D02*
X75070000Y-90050000D01*
%TO.N,/CAN2_H*%
X82006000Y-91754000D02*
X81945000Y-91815000D01*
X80490000Y-87930000D02*
X80490000Y-89100000D01*
X84010000Y-79360000D02*
X84010000Y-84410000D01*
X81945000Y-90555000D02*
X81945000Y-91815000D01*
X84010000Y-84410000D02*
X80490000Y-87930000D01*
X80490000Y-89100000D02*
X81945000Y-90555000D01*
%TO.N,/CAN1_H*%
X87729000Y-87778358D02*
X87729000Y-89384001D01*
X89070000Y-90725001D02*
X89070000Y-91700000D01*
X88510000Y-86997358D02*
X87729000Y-87778358D01*
X88510000Y-79360000D02*
X88510000Y-86997358D01*
X87729000Y-89384001D02*
X89070000Y-90725001D01*
%TO.N,/CAN4_H*%
X91570000Y-85920000D02*
X91570000Y-77130000D01*
X91570000Y-77130000D02*
X90970000Y-76530000D01*
X95160000Y-89510000D02*
X91570000Y-85920000D01*
X88660000Y-77050000D02*
X88660000Y-77450000D01*
X95160000Y-90820000D02*
X95775000Y-91435000D01*
X89180000Y-76530000D02*
X88660000Y-77050000D01*
X90970000Y-76530000D02*
X89180000Y-76530000D01*
X95160000Y-89510000D02*
X95160000Y-90820000D01*
%TO.N,/CAN2_L*%
X84510000Y-86820000D02*
X85380000Y-87690000D01*
X83750000Y-93350000D02*
X83215000Y-92815000D01*
X85380000Y-87690000D02*
X85380000Y-92690000D01*
X84510000Y-79360000D02*
X84510000Y-86820000D01*
X83215000Y-90300000D02*
X82830000Y-89915000D01*
X84720000Y-93350000D02*
X83750000Y-93350000D01*
X85380000Y-92690000D02*
X84720000Y-93350000D01*
X83215000Y-92815000D02*
X83215000Y-91815000D01*
X83215000Y-91815000D02*
X83215000Y-90300000D01*
%TO.N,/CAN1_L*%
X88010000Y-79360000D02*
X88050000Y-79400000D01*
X88324000Y-92429546D02*
X88770454Y-92876000D01*
X88324000Y-90524000D02*
X88324000Y-92429546D01*
X87428000Y-87653680D02*
X87428000Y-89870642D01*
X88770454Y-92876000D02*
X89369546Y-92876000D01*
X89369546Y-92876000D02*
X90340000Y-91905546D01*
X87428000Y-89870642D02*
X88081358Y-90524000D01*
X90340000Y-90235000D02*
X89905000Y-89800000D01*
X88081358Y-90524000D02*
X88324000Y-90524000D01*
X88050000Y-79400000D02*
X88050000Y-87031680D01*
X90340000Y-91700000D02*
X90340000Y-90235000D01*
X88050000Y-87031680D02*
X87428000Y-87653680D01*
X90340000Y-91905546D02*
X90340000Y-91700000D01*
%TO.N,/CAN4_L*%
X97045000Y-89895000D02*
X96660000Y-89510000D01*
X97045000Y-91435000D02*
X97045000Y-89895000D01*
D43*
%TO.N,/SBU2*%
X83290000Y-114360000D02*
X83039700Y-114610300D01*
D42*
X80990000Y-114690000D02*
X80990000Y-125330000D01*
D43*
X82540300Y-114463678D02*
X82540300Y-114256322D01*
X82540300Y-114256322D02*
X82393978Y-114110000D01*
X82686922Y-114610300D02*
X82540300Y-114463678D01*
D42*
X81570000Y-114110000D02*
X80990000Y-114690000D01*
D43*
X83039700Y-114610300D02*
X82686922Y-114610300D01*
D42*
X80990000Y-125330000D02*
X81010000Y-125350000D01*
D43*
X82393978Y-114110000D02*
X81570000Y-114110000D01*
D42*
%TO.N,/SBU1*%
X85760000Y-85220000D02*
X85610000Y-85370000D01*
X85760000Y-84950000D02*
X85760000Y-85220000D01*
X85510000Y-80560000D02*
X85510000Y-79360000D01*
X85760000Y-84950000D02*
X85760000Y-80810000D01*
X85760000Y-80810000D02*
X85510000Y-80560000D01*
D41*
%TO.N,/CAN3_L*%
X76955000Y-90410000D02*
X76570000Y-90025000D01*
X76955000Y-91925000D02*
X76955000Y-90410000D01*
D42*
%TO.N,/CAN4_E*%
X99450000Y-125130000D02*
X85500000Y-125130000D01*
D43*
X85790000Y-115360000D02*
X86040300Y-115610300D01*
D42*
X94505000Y-91435000D02*
X94505000Y-93626176D01*
X85060000Y-124690000D02*
X85060000Y-117040000D01*
X94818824Y-93940000D02*
X98910000Y-93940000D01*
X85060000Y-117040000D02*
X86040300Y-116059700D01*
X94505000Y-93626176D02*
X94818824Y-93940000D01*
X86040300Y-116059700D02*
X86040300Y-116030000D01*
X98910000Y-93940000D02*
X99850000Y-94880000D01*
X85500000Y-125130000D02*
X85060000Y-124690000D01*
X99850000Y-124730000D02*
X99450000Y-125130000D01*
D43*
X86040300Y-115610300D02*
X86040300Y-116030000D01*
D42*
X99850000Y-94880000D02*
X99850000Y-124730000D01*
%TO.N,/CAN2_E*%
X79871000Y-98891000D02*
X81160000Y-100180000D01*
X98010000Y-100630000D02*
X98010000Y-114430000D01*
X97560000Y-100180000D02*
X98010000Y-100630000D01*
X98010000Y-114430000D02*
X97990000Y-114450000D01*
X80675000Y-91815000D02*
X79871000Y-92619000D01*
X81160000Y-100180000D02*
X97560000Y-100180000D01*
X79871000Y-92619000D02*
X79871000Y-98891000D01*
%TO.N,/CAN3_R*%
X97730000Y-100890000D02*
X97730000Y-114000000D01*
X78610000Y-100450000D02*
X97290000Y-100450000D01*
X78225000Y-100065000D02*
X78610000Y-100450000D01*
X97290000Y-100450000D02*
X97730000Y-100890000D01*
X97730000Y-114000000D02*
X97650000Y-114080000D01*
X78225000Y-96875000D02*
X78225000Y-100065000D01*
D44*
%TO.N,/CAN1_R*%
X91610000Y-98370000D02*
X91600000Y-98370000D01*
X91610000Y-96650000D02*
X91610000Y-98370000D01*
D41*
%TO.N,/CAN3_T*%
X87790000Y-114360000D02*
X87820000Y-114390000D01*
D42*
X97380000Y-113630000D02*
X97240000Y-113770000D01*
X89169393Y-115739393D02*
X89172186Y-115736600D01*
X87790000Y-114360000D02*
X89169393Y-115739393D01*
X97380000Y-113540000D02*
X97380000Y-113630000D01*
X96890878Y-100750000D02*
X97380000Y-101239122D01*
X97380000Y-101239122D02*
X97380000Y-113540000D01*
X75040000Y-100750000D02*
X96890878Y-100750000D01*
X97380000Y-113540000D02*
X97380000Y-113700000D01*
X74415000Y-96875000D02*
X74415000Y-100125000D01*
X89172186Y-115736600D02*
X97220400Y-115736600D01*
X74415000Y-100125000D02*
X75040000Y-100750000D01*
X97220400Y-115736600D02*
X97240000Y-115756200D01*
%TO.N,/CAN1_E*%
X87800000Y-91700000D02*
X86990000Y-91700000D01*
X86990000Y-91700000D02*
X86980000Y-91690000D01*
D44*
%TO.N,/CAN1_T*%
X87800000Y-98340000D02*
X87810000Y-98350000D01*
D43*
X83790000Y-110360000D02*
X83539700Y-110109700D01*
X83539700Y-110109700D02*
X83539700Y-109560000D01*
D44*
X87800000Y-96650000D02*
X87800000Y-98340000D01*
D42*
%TO.N,/CAN2_R*%
X84470000Y-97950000D02*
X84485000Y-97935000D01*
X84485000Y-97935000D02*
X84485000Y-96765000D01*
X84470000Y-98420000D02*
X84470000Y-97950000D01*
%TO.N,/CAN2_T*%
X80675000Y-96765000D02*
X80675000Y-98505000D01*
X80675000Y-98505000D02*
X80670000Y-98510000D01*
%TO.N,/CAN4_T*%
X98550000Y-94870000D02*
X99570000Y-95890000D01*
X94505000Y-95410001D02*
X95045001Y-94870000D01*
X99570000Y-95890000D02*
X99570000Y-115780000D01*
X99570000Y-115780000D02*
X98960000Y-116390000D01*
X87810000Y-116390000D02*
X87290000Y-115870000D01*
X98960000Y-116390000D02*
X87810000Y-116390000D01*
X95045001Y-94870000D02*
X98550000Y-94870000D01*
X94505000Y-96385000D02*
X94505000Y-95410001D01*
X87290000Y-115870000D02*
X87290000Y-115860000D01*
D43*
%TO.N,/CAN3_E*%
X87539700Y-115609700D02*
X88010000Y-115609700D01*
D42*
X96773800Y-116070000D02*
X96780000Y-116063800D01*
D43*
X87290000Y-115360000D02*
X87539700Y-115609700D01*
D42*
X88470300Y-116070000D02*
X96773800Y-116070000D01*
X88010000Y-115609700D02*
X88470300Y-116070000D01*
D43*
%TO.N,/CAN4_R*%
X87039700Y-114230300D02*
X87160000Y-114110000D01*
D42*
X98315000Y-96385000D02*
X99310000Y-97380000D01*
X99310000Y-114960000D02*
X98840000Y-115430000D01*
X99310000Y-97380000D02*
X99310000Y-114960000D01*
X98840000Y-115430000D02*
X91960000Y-115430000D01*
D43*
X87039700Y-114610300D02*
X87039700Y-114230300D01*
X86790000Y-114860000D02*
X87039700Y-114610300D01*
D42*
X91960000Y-115430000D02*
X90640000Y-114110000D01*
D43*
X87160000Y-114110000D02*
X88130000Y-114110000D01*
D42*
X90640000Y-114110000D02*
X88130000Y-114110000D01*
D41*
%TO.N,+12V*%
X87550000Y-81380000D02*
X87520000Y-81350000D01*
X87510000Y-79360000D02*
X87510000Y-81340000D01*
X85010000Y-78200000D02*
X85060000Y-78150000D01*
X85010000Y-79360000D02*
X85010000Y-78200000D01*
X85010000Y-81430000D02*
X85010000Y-79360000D01*
X87510000Y-81340000D02*
X87550000Y-81380000D01*
X87460000Y-78150000D02*
X87460000Y-79310000D01*
%TO.N,Net-(USBC1-CC1)*%
X87010000Y-82830000D02*
X87010000Y-79360000D01*
X87200000Y-83020000D02*
X87010000Y-82830000D01*
%TO.N,Net-(USBC1-CC2)*%
X82970000Y-71460000D02*
X80835000Y-71460000D01*
X85460000Y-77450000D02*
X85460000Y-73950000D01*
X85460000Y-73950000D02*
X82970000Y-71460000D01*
%TO.N,Net-(U2-SPLIT)*%
X91405000Y-89750000D02*
X90635000Y-88980000D01*
X89090000Y-88500000D02*
X89090000Y-88150000D01*
X91405000Y-89750000D02*
X91405000Y-91495000D01*
X90635000Y-88980000D02*
X89570000Y-88980000D01*
X91405000Y-91495000D02*
X91610000Y-91700000D01*
X89570000Y-88980000D02*
X89090000Y-88500000D01*
X91405000Y-89650000D02*
X91405000Y-89750000D01*
X88405000Y-88150000D02*
X89090000Y-88150000D01*
X89090000Y-88150000D02*
X89905000Y-88150000D01*
%TO.N,Net-(U3-SPLIT)*%
X82090000Y-88740000D02*
X82090000Y-88290000D01*
X82805000Y-88290000D02*
X82830000Y-88265000D01*
X81330000Y-88290000D02*
X82090000Y-88290000D01*
X84330000Y-91660000D02*
X84485000Y-91815000D01*
X82360000Y-89010000D02*
X82090000Y-88740000D01*
X83475000Y-89010000D02*
X82360000Y-89010000D01*
X82090000Y-88290000D02*
X82805000Y-88290000D01*
X84330000Y-89865000D02*
X83475000Y-89010000D01*
X84330000Y-89865000D02*
X84330000Y-91660000D01*
%TO.N,Net-(U4-SPLIT)*%
X78225000Y-91925000D02*
X78225000Y-90130000D01*
X78225000Y-90130000D02*
X78070000Y-89975000D01*
X75095000Y-88375000D02*
X75070000Y-88400000D01*
X77305000Y-89210000D02*
X76220000Y-89210000D01*
X76220000Y-89210000D02*
X75810000Y-88800000D01*
X78070000Y-89975000D02*
X77305000Y-89210000D01*
X75810000Y-88375000D02*
X75095000Y-88375000D01*
X76570000Y-88375000D02*
X75810000Y-88375000D01*
X75810000Y-88800000D02*
X75810000Y-88375000D01*
%TO.N,Net-(U5-SPLIT)*%
X97315000Y-88640000D02*
X96170000Y-88640000D01*
X95810000Y-87860000D02*
X96660000Y-87860000D01*
X96170000Y-88220000D02*
X95810000Y-87860000D01*
X98160000Y-89485000D02*
X97315000Y-88640000D01*
X95160000Y-87860000D02*
X95810000Y-87860000D01*
X96170000Y-88640000D02*
X96170000Y-88220000D01*
X98160000Y-91280000D02*
X98315000Y-91435000D01*
X98160000Y-89485000D02*
X98160000Y-91280000D01*
%TO.N,Net-(U7-PH0)*%
X77785000Y-112755000D02*
X77760000Y-112730000D01*
X81790000Y-113360000D02*
X81655001Y-113225001D01*
X79530000Y-112755000D02*
X77785000Y-112755000D01*
X81655001Y-113225001D02*
X80000001Y-113225001D01*
X80000001Y-113225001D02*
X79530000Y-112755000D01*
%TO.N,Net-(U7-PH1)*%
X76470000Y-115340000D02*
X75560000Y-114430000D01*
X78360000Y-115340000D02*
X76470000Y-115340000D01*
X81590000Y-113610300D02*
X80089700Y-113610300D01*
D43*
X82039700Y-113610300D02*
X81590000Y-113610300D01*
X82290000Y-113360000D02*
X82039700Y-113610300D01*
X81590000Y-113610300D02*
X80330300Y-113610300D01*
D41*
X79540000Y-114160000D02*
X78360000Y-115340000D01*
D43*
X80330000Y-113610000D02*
X80330300Y-113610300D01*
D41*
X80089700Y-113610300D02*
X79540000Y-114160000D01*
D42*
%TO.N,Net-(U7-NRST)*%
X70955000Y-98580000D02*
X69550000Y-97175000D01*
X72340000Y-97730000D02*
X72710000Y-97730000D01*
X71490000Y-98580000D02*
X72340000Y-97730000D01*
D41*
X69705000Y-97330000D02*
X69550000Y-97175000D01*
D42*
X71480000Y-98570000D02*
X71480000Y-97490000D01*
X71490000Y-98580000D02*
X70955000Y-98580000D01*
X71490000Y-98580000D02*
X71480000Y-98570000D01*
D41*
X69550000Y-92025000D02*
X69550000Y-97175000D01*
%TO.N,Net-(C17-Pad1)*%
X83290000Y-109860000D02*
X83290000Y-107605000D01*
%TO.N,Net-(C18-Pad1)*%
X90000000Y-111360000D02*
X90020000Y-111380000D01*
X87790000Y-111360000D02*
X90000000Y-111360000D01*
%TO.N,Net-(C19-Pad1)*%
X86290000Y-115860000D02*
X86290000Y-118125000D01*
D42*
%TO.N,Net-(D1-GK)*%
X96575000Y-120330000D02*
X95590000Y-121315000D01*
X97320000Y-120330000D02*
X96575000Y-120330000D01*
%TO.N,Net-(D1-RK)*%
X99005000Y-120045000D02*
X98720000Y-120330000D01*
X99005000Y-118350000D02*
X99005000Y-120045000D01*
%TO.N,Net-(D1-BK)*%
X96095000Y-123830000D02*
X95630000Y-124295000D01*
X97320000Y-123830000D02*
X96095000Y-123830000D01*
D43*
%TO.N,/SPI_SCK*%
X85539700Y-115109700D02*
X85539700Y-115960000D01*
D42*
X100430000Y-106560000D02*
X102160000Y-104830000D01*
X84590000Y-125310000D02*
X84970000Y-125690000D01*
X99940000Y-125690000D02*
X100430000Y-125200000D01*
X84970000Y-125690000D02*
X99940000Y-125690000D01*
X85539700Y-115960000D02*
X85539700Y-116080300D01*
X100430000Y-125200000D02*
X100430000Y-106560000D01*
X85539700Y-116080300D02*
X84590000Y-117030000D01*
X84590000Y-117030000D02*
X84590000Y-125310000D01*
D43*
X85290000Y-114860000D02*
X85539700Y-115109700D01*
D42*
%TO.N,/SPI_NSS*%
X100160000Y-126000000D02*
X100750598Y-125409402D01*
X85290000Y-115860000D02*
X84412800Y-116737200D01*
X84920000Y-126000000D02*
X100160000Y-126000000D01*
X84412800Y-125492800D02*
X84920000Y-126000000D01*
X101670000Y-106140000D02*
X103390000Y-106140000D01*
X84412800Y-116737200D02*
X84412800Y-125492800D01*
X100750598Y-125409402D02*
X100750598Y-107059402D01*
X103390000Y-106140000D02*
X104700000Y-104830000D01*
X100750598Y-107059402D02*
X101670000Y-106140000D01*
%TO.N,/SBU2_RELAY*%
X82790000Y-126330000D02*
X83630000Y-127170000D01*
X83630000Y-127170000D02*
X98130000Y-127170000D01*
X82790000Y-115860000D02*
X82790000Y-126330000D01*
X98130000Y-127170000D02*
X99660000Y-128700000D01*
D43*
%TO.N,/VOLT_S*%
X84290000Y-115360000D02*
X84039700Y-115610300D01*
D42*
X93150000Y-129810000D02*
X102810000Y-129810000D01*
X92040000Y-128700000D02*
X93150000Y-129810000D01*
X102810000Y-129810000D02*
X103320000Y-129300000D01*
X102370000Y-126260000D02*
X84600000Y-126260000D01*
X103320000Y-127210000D02*
X102370000Y-126260000D01*
X84039700Y-125699700D02*
X84039700Y-116140000D01*
D43*
X84039700Y-115610300D02*
X84039700Y-116140000D01*
D42*
X84600000Y-126260000D02*
X84039700Y-125699700D01*
X103320000Y-129300000D02*
X103320000Y-127210000D01*
%TO.N,/VBAT_EN*%
X86790000Y-108820000D02*
X86790000Y-109860000D01*
X87030000Y-108580000D02*
X86790000Y-108820000D01*
X94010000Y-108580000D02*
X87030000Y-108580000D01*
%TO.N,/PWR_READOUT1*%
X102200000Y-127370000D02*
X102200000Y-128700000D01*
X101798068Y-128700000D02*
X102200000Y-128700000D01*
X83790000Y-115860000D02*
X83790000Y-125900000D01*
X101440000Y-126610000D02*
X102200000Y-127370000D01*
X83790000Y-125900000D02*
X84500000Y-126610000D01*
X84500000Y-126610000D02*
X101440000Y-126610000D01*
%TO.N,/SBU1_RELAY*%
X88261900Y-111610300D02*
X88030000Y-111610300D01*
X91972200Y-111982200D02*
X88633800Y-111982200D01*
D43*
X87540300Y-111756322D02*
X87686322Y-111610300D01*
X87540300Y-111963678D02*
X87540300Y-111756322D01*
X87686322Y-111610300D02*
X88030000Y-111610300D01*
D42*
X93543741Y-113536520D02*
X93526520Y-113536520D01*
X88633800Y-111982200D02*
X88261900Y-111610300D01*
D43*
X86790000Y-111860000D02*
X87040300Y-112110300D01*
D42*
X93526520Y-113536520D02*
X91972200Y-111982200D01*
D43*
X87040300Y-112110300D02*
X87393678Y-112110300D01*
X87393678Y-112110300D02*
X87540300Y-111963678D01*
D42*
%TO.N,/FAN_SETUP*%
X87290000Y-112360000D02*
X87430000Y-112360000D01*
D43*
X87686022Y-112110000D02*
X88000000Y-112110000D01*
D42*
X88462800Y-112502800D02*
X88070000Y-112110000D01*
X92880000Y-114843800D02*
X92880000Y-114755847D01*
X92860000Y-114863800D02*
X92880000Y-114843800D01*
D43*
X87290000Y-112360000D02*
X87436022Y-112360000D01*
X87436022Y-112360000D02*
X87686022Y-112110000D01*
D42*
X92880000Y-114755847D02*
X90626953Y-112502800D01*
X88070000Y-112110000D02*
X88000000Y-112110000D01*
X90626953Y-112502800D02*
X88462800Y-112502800D01*
%TO.N,/FAN_TACHOMETER*%
X68250000Y-115960000D02*
X68250000Y-116460000D01*
%TO.N,/AUDIO_SAI4_FS_B*%
X80870000Y-126070000D02*
X80870000Y-128720000D01*
X80450000Y-114469401D02*
X80450000Y-125650000D01*
X81059401Y-113860000D02*
X80450000Y-114469401D01*
X81790000Y-113860000D02*
X81059401Y-113860000D01*
X80450000Y-125650000D02*
X80870000Y-126070000D01*
D43*
%TO.N,/AUDIO_SAI4_SD_B*%
X82290000Y-110360000D02*
X82040000Y-110110000D01*
X82040000Y-110110000D02*
X81520000Y-110110000D01*
D42*
%TO.N,/AUDIO_SAI4_SCK_B*%
X81790000Y-126620000D02*
X83410000Y-128240000D01*
X81790000Y-115860000D02*
X81790000Y-126620000D01*
X83410000Y-128240000D02*
X83410000Y-128720000D01*
D43*
%TO.N,/AUDIO_SAI4_MCLK_B*%
X82290000Y-110860000D02*
X82039700Y-110609700D01*
X82039700Y-110609700D02*
X81530000Y-110609700D01*
D42*
%TO.N,/SWDIO*%
X96540000Y-110380000D02*
X96530000Y-110390000D01*
X68300000Y-100190000D02*
X69440000Y-101330000D01*
X96080000Y-101330000D02*
X96540000Y-101790000D01*
X96540000Y-101790000D02*
X96540000Y-110380000D01*
X69440000Y-101330000D02*
X96080000Y-101330000D01*
D43*
%TO.N,/SWCLK*%
X87540300Y-110109700D02*
X87290000Y-110360000D01*
D42*
X87290000Y-110360000D02*
X87310000Y-110340000D01*
D43*
X88000000Y-110109700D02*
X87540300Y-110109700D01*
%TO.N,/JTDI*%
X87040000Y-110610000D02*
X87040000Y-109963978D01*
X86790000Y-110860000D02*
X87040000Y-110610000D01*
X87040000Y-109963978D02*
X87040000Y-109670000D01*
D42*
%TO.N,/LED_RED*%
X97370000Y-117440000D02*
X97370000Y-118335000D01*
X97370000Y-118335000D02*
X97355000Y-118350000D01*
%TO.N,/LED_GREEN*%
X95590000Y-117080000D02*
X95590000Y-119665000D01*
%TO.N,/LED_BLUE*%
X95590000Y-122605000D02*
X95630000Y-122645000D01*
X94341200Y-122605000D02*
X95590000Y-122605000D01*
X94336200Y-122610000D02*
X94341200Y-122605000D01*
%TO.N,Net-(U7-BOOT0)*%
X71460000Y-91200000D02*
X71450000Y-91190000D01*
D41*
X69530000Y-84875000D02*
X69530000Y-90025000D01*
D42*
X71450000Y-91190000D02*
X71450000Y-90045000D01*
X71460000Y-91200000D02*
X70705000Y-91200000D01*
X70705000Y-91200000D02*
X69530000Y-90025000D01*
%TO.N,/USB_DM*%
X85970000Y-79400000D02*
X86010000Y-79360000D01*
X85970000Y-80270000D02*
X85970000Y-79400000D01*
X86010000Y-79360000D02*
X86010000Y-78800000D01*
X86010000Y-78800000D02*
X86660000Y-78150000D01*
%TO.N,/USB_DP*%
X87490000Y-93970000D02*
X91960000Y-93970000D01*
X97880000Y-99860000D02*
X98360000Y-100340000D01*
X90870000Y-112160000D02*
X88480000Y-112160000D01*
X98360000Y-100340000D02*
X98360000Y-114630000D01*
X93610000Y-114900000D02*
X90870000Y-112160000D01*
X86050000Y-80690000D02*
X86050000Y-92530000D01*
X98090000Y-114900000D02*
X93610000Y-114900000D01*
X92710000Y-94720000D02*
X92710000Y-99260000D01*
X88480000Y-112160000D02*
X88180000Y-111860000D01*
D41*
X86540000Y-79390000D02*
X86510000Y-79360000D01*
D42*
X93310000Y-99860000D02*
X97880000Y-99860000D01*
X92710000Y-99260000D02*
X93310000Y-99860000D01*
X98360000Y-114630000D02*
X98090000Y-114900000D01*
X91960000Y-93970000D02*
X92710000Y-94720000D01*
X86510000Y-80230000D02*
X86050000Y-80690000D01*
X86510000Y-79360000D02*
X86510000Y-80230000D01*
X88180000Y-111860000D02*
X87790000Y-111860000D01*
X86050000Y-92530000D02*
X87490000Y-93970000D01*
%TO.N,/SWCLK*%
X88000000Y-110109700D02*
X88000300Y-110110000D01*
X88000300Y-110110000D02*
X95600000Y-110110000D01*
X96070000Y-109640000D02*
X96070000Y-102180000D01*
X96070000Y-102180000D02*
X95580000Y-101690000D01*
X95600000Y-110110000D02*
X96070000Y-109640000D01*
X95580000Y-101690000D02*
X69340000Y-101690000D01*
X69340000Y-101690000D02*
X68300000Y-102730000D01*
%TO.N,/CAN2_R*%
X84470000Y-102016200D02*
X84445000Y-102041200D01*
X84445000Y-102041200D02*
X84445000Y-109205000D01*
X84445000Y-109205000D02*
X83790000Y-109860000D01*
%TO.N,/CAN1_T*%
X84118800Y-102830000D02*
X84118800Y-108980900D01*
X84118800Y-108980900D02*
X83539700Y-109560000D01*
D41*
%TO.N,GND*%
X95775000Y-96745000D02*
X95775000Y-96385000D01*
X95490000Y-98750000D02*
X95605000Y-98750000D01*
D42*
%TO.N,/AUDIO_DFSDM1_DATIN3*%
X69830000Y-110320000D02*
X69830000Y-127159979D01*
%TD*%
M02*
