%TF.GenerationSoftware,KiCad,Pcbnew,9.0.4*%
%TF.CreationDate,2025-09-28T18:54:50+03:00*%
%TF.ProjectId,Asius2,41736975-7332-42e6-9b69-6361645f7063,rev?*%
%TF.SameCoordinates,Original*%
%TF.FileFunction,Paste,Bot*%
%TF.FilePolarity,Positive*%
%FSLAX46Y46*%
G04 Gerber Fmt 4.6, Leading zero omitted, Abs format (unit mm)*
G04 Created by KiCad (PCBNEW 9.0.4) date 2025-09-28 18:54:50*
%MOMM*%
%LPD*%
G01*
G04 APERTURE LIST*
G04 Aperture macros list*
%AMRoundRect*
0 Rectangle with rounded corners*
0 $1 Rounding radius*
0 $2 $3 $4 $5 $6 $7 $8 $9 X,Y pos of 4 corners*
0 Add a 4 corners polygon primitive as box body*
4,1,4,$2,$3,$4,$5,$6,$7,$8,$9,$2,$3,0*
0 Add four circle primitives for the rounded corners*
1,1,$1+$1,$2,$3*
1,1,$1+$1,$4,$5*
1,1,$1+$1,$6,$7*
1,1,$1+$1,$8,$9*
0 Add four rect primitives between the rounded corners*
20,1,$1+$1,$2,$3,$4,$5,0*
20,1,$1+$1,$4,$5,$6,$7,0*
20,1,$1+$1,$6,$7,$8,$9,0*
20,1,$1+$1,$8,$9,$2,$3,0*%
G04 Aperture macros list end*
%ADD10RoundRect,0.140000X0.140000X0.170000X-0.140000X0.170000X-0.140000X-0.170000X0.140000X-0.170000X0*%
%ADD11RoundRect,0.140000X0.170000X-0.140000X0.170000X0.140000X-0.170000X0.140000X-0.170000X-0.140000X0*%
%ADD12RoundRect,0.140000X-0.140000X-0.170000X0.140000X-0.170000X0.140000X0.170000X-0.140000X0.170000X0*%
%ADD13RoundRect,0.140000X-0.170000X0.140000X-0.170000X-0.140000X0.170000X-0.140000X0.170000X0.140000X0*%
G04 APERTURE END LIST*
D10*
%TO.C,C16*%
X79740000Y-114150000D03*
X80700000Y-114150000D03*
%TD*%
%TO.C,C20*%
X79710000Y-110270000D03*
X80670000Y-110270000D03*
%TD*%
D11*
%TO.C,C21*%
X82320000Y-107890000D03*
X82320000Y-108850000D03*
%TD*%
%TO.C,C22*%
X84270000Y-107870000D03*
X84270000Y-108830000D03*
%TD*%
%TO.C,C23*%
X85250000Y-107870000D03*
X85250000Y-108830000D03*
%TD*%
%TO.C,C24*%
X86230000Y-108830000D03*
X86230000Y-107870000D03*
%TD*%
D12*
%TO.C,C25*%
X89880000Y-110400000D03*
X88920000Y-110400000D03*
%TD*%
D10*
%TO.C,C26*%
X79710000Y-111230000D03*
X80670000Y-111230000D03*
%TD*%
%TO.C,C27*%
X79730000Y-113170000D03*
X80690000Y-113170000D03*
%TD*%
D12*
%TO.C,C28*%
X89870000Y-113900000D03*
X88910000Y-113900000D03*
%TD*%
%TO.C,C29*%
X89870000Y-114870000D03*
X88910000Y-114870000D03*
%TD*%
D10*
%TO.C,C30*%
X79760000Y-116070000D03*
X80720000Y-116070000D03*
%TD*%
D13*
%TO.C,C31*%
X83280000Y-117990000D03*
X83280000Y-117030000D03*
%TD*%
%TO.C,C32*%
X84260000Y-117990000D03*
X84260000Y-117030000D03*
%TD*%
%TO.C,C33*%
X87240000Y-117940000D03*
X87240000Y-116980000D03*
%TD*%
D12*
%TO.C,C34*%
X89870000Y-112940000D03*
X88910000Y-112940000D03*
%TD*%
D10*
%TO.C,C35*%
X79750000Y-115110000D03*
X80710000Y-115110000D03*
%TD*%
D11*
%TO.C,C36*%
X83290000Y-107890000D03*
X83290000Y-108850000D03*
%TD*%
D12*
%TO.C,C37*%
X89890000Y-111370000D03*
X88930000Y-111370000D03*
%TD*%
D13*
%TO.C,C38*%
X86270000Y-117940000D03*
X86270000Y-116980000D03*
%TD*%
D10*
%TO.C,C39*%
X79700000Y-112200000D03*
X80660000Y-112200000D03*
%TD*%
M02*
