%TF.GenerationSoftware,KiCad,Pcbnew,9.0.4*%
%TF.CreationDate,2025-09-29T22:44:47+03:00*%
%TF.ProjectId,Asius2,41736975-7332-42e6-9b69-6361645f7063,rev?*%
%TF.SameCoordinates,Original*%
%TF.FileFunction,Copper,L5,Inr*%
%TF.FilePolarity,Positive*%
%FSLAX46Y46*%
G04 Gerber Fmt 4.6, Leading zero omitted, Abs format (unit mm)*
G04 Created by KiCad (PCBNEW 9.0.4) date 2025-09-29 22:44:47*
%MOMM*%
%LPD*%
G01*
G04 APERTURE LIST*
%TA.AperFunction,ComponentPad*%
%ADD10R,1.700000X1.700000*%
%TD*%
%TA.AperFunction,ComponentPad*%
%ADD11C,1.700000*%
%TD*%
%TA.AperFunction,HeatsinkPad*%
%ADD12C,0.500000*%
%TD*%
%TA.AperFunction,ComponentPad*%
%ADD13C,0.600000*%
%TD*%
%TA.AperFunction,ComponentPad*%
%ADD14O,1.000000X1.600000*%
%TD*%
%TA.AperFunction,ViaPad*%
%ADD15C,0.600000*%
%TD*%
%TA.AperFunction,ViaPad*%
%ADD16C,0.400000*%
%TD*%
G04 APERTURE END LIST*
D10*
%TO.N,GND*%
%TO.C,J7*%
X96515000Y-72290000D03*
D11*
%TO.N,+5V*%
X99055000Y-72290000D03*
%TD*%
D12*
%TO.N,GND*%
%TO.C,U8*%
X78630000Y-75712500D03*
X78630000Y-74532500D03*
X77450000Y-75712500D03*
X77450000Y-74532500D03*
%TD*%
D13*
%TO.N,GND*%
%TO.C,USBC1*%
X83460000Y-78150000D03*
%TO.N,/CAN3_H*%
X83860000Y-77450000D03*
%TO.N,/CAN3_L*%
X84660000Y-77450000D03*
%TO.N,+12V*%
X85060000Y-78150000D03*
%TO.N,Net-(USBC1-CC2)*%
X85460000Y-77450000D03*
%TO.N,/USB_DP*%
X85860000Y-78150000D03*
%TO.N,/USB_DM*%
X86660000Y-78150000D03*
%TO.N,/SBU2*%
X87060000Y-77450000D03*
%TO.N,+12V*%
X87460000Y-78150000D03*
%TO.N,/CAN4_L*%
X87860000Y-77450000D03*
%TO.N,/CAN4_H*%
X88660000Y-77450000D03*
%TO.N,GND*%
X89060000Y-78150000D03*
D14*
X90390000Y-77560000D03*
X82130000Y-77560000D03*
X90750000Y-73150000D03*
X81770000Y-73150000D03*
%TD*%
D10*
%TO.N,unconnected-(J2-Pin_1-Pad1)*%
%TO.C,J2*%
X102160000Y-76890000D03*
D11*
%TO.N,+5V*%
X104700000Y-76890000D03*
%TO.N,/IMU_SDA*%
X102160000Y-79430000D03*
%TO.N,+5V*%
X104700000Y-79430000D03*
%TO.N,/IMU_SCL*%
X102160000Y-81970000D03*
%TO.N,GND*%
X104700000Y-81970000D03*
%TO.N,unconnected-(J2-Pin_7-Pad7)*%
X102160000Y-84510000D03*
%TO.N,/UART_RX*%
X104700000Y-84510000D03*
%TO.N,GND*%
X102160000Y-87050000D03*
%TO.N,/UART_TX*%
X104700000Y-87050000D03*
%TO.N,unconnected-(J2-Pin_11-Pad11)*%
X102160000Y-89590000D03*
%TO.N,unconnected-(J2-Pin_12-Pad12)*%
X104700000Y-89590000D03*
%TO.N,unconnected-(J2-Pin_13-Pad13)*%
X102160000Y-92130000D03*
%TO.N,GND*%
X104700000Y-92130000D03*
%TO.N,unconnected-(J2-Pin_15-Pad15)*%
X102160000Y-94670000D03*
%TO.N,unconnected-(J2-Pin_16-Pad16)*%
X104700000Y-94670000D03*
%TO.N,unconnected-(J2-Pin_17-Pad17)*%
X102160000Y-97210000D03*
%TO.N,unconnected-(J2-Pin_18-Pad18)*%
X104700000Y-97210000D03*
%TO.N,/SPI_MOSI*%
X102160000Y-99750000D03*
%TO.N,unconnected-(J2-Pin_20-Pad20)*%
X104700000Y-99750000D03*
%TO.N,/SPI_MISO*%
X102160000Y-102290000D03*
%TO.N,unconnected-(J2-Pin_22-Pad22)*%
X104700000Y-102290000D03*
%TO.N,/SPI_SCK*%
X102160000Y-104830000D03*
%TO.N,/SPI_NSS*%
X104700000Y-104830000D03*
%TO.N,unconnected-(J2-Pin_25-Pad25)*%
X102160000Y-107370000D03*
%TO.N,unconnected-(J2-Pin_26-Pad26)*%
X104700000Y-107370000D03*
%TO.N,unconnected-(J2-Pin_27-Pad27)*%
X102160000Y-109910000D03*
%TO.N,unconnected-(J2-Pin_28-Pad28)*%
X104700000Y-109910000D03*
%TO.N,unconnected-(J2-Pin_29-Pad29)*%
X102160000Y-112450000D03*
%TO.N,unconnected-(J2-Pin_30-Pad30)*%
X104700000Y-112450000D03*
%TO.N,unconnected-(J2-Pin_31-Pad31)*%
X102160000Y-114990000D03*
%TO.N,unconnected-(J2-Pin_32-Pad32)*%
X104700000Y-114990000D03*
%TO.N,unconnected-(J2-Pin_33-Pad33)*%
X102160000Y-117530000D03*
%TO.N,unconnected-(J2-Pin_34-Pad34)*%
X104700000Y-117530000D03*
%TO.N,unconnected-(J2-Pin_35-Pad35)*%
X102160000Y-120070000D03*
%TO.N,unconnected-(J2-Pin_36-Pad36)*%
X104700000Y-120070000D03*
%TO.N,unconnected-(J2-Pin_37-Pad37)*%
X102160000Y-122610000D03*
%TO.N,unconnected-(J2-Pin_38-Pad38)*%
X104700000Y-122610000D03*
%TO.N,unconnected-(J2-Pin_39-Pad39)*%
X102160000Y-125150000D03*
%TO.N,unconnected-(J2-Pin_40-Pad40)*%
X104700000Y-125150000D03*
%TD*%
D10*
%TO.N,/AUDIO_SAI4_SCK_B*%
%TO.C,J5*%
X83410000Y-128720000D03*
D11*
%TO.N,/AUDIO_SAI4_FS_B*%
X80870000Y-128720000D03*
%TO.N,/AUDIO_SAI4_SD_A*%
X78330000Y-128720000D03*
%TO.N,/AUDIO_SAI4_SD_B*%
X75790000Y-128720000D03*
%TO.N,/AUDIO_DFSDM1_DATIN3*%
X73250000Y-128720000D03*
%TO.N,/AUDIO_DFSDM1_CKOUT*%
X70710000Y-128720000D03*
%TO.N,/AUDIO_SAI4_MCLK_B*%
X68170000Y-128720000D03*
%TD*%
D10*
%TO.N,GND*%
%TO.C,J1*%
X68250000Y-122560000D03*
D11*
%TO.N,+3.3V*%
X68250000Y-125100000D03*
%TD*%
D10*
%TO.N,/SWDIO*%
%TO.C,J6*%
X68300000Y-100190000D03*
D11*
%TO.N,/SWCLK*%
X68300000Y-102730000D03*
%TO.N,/JTDI*%
X68300000Y-105270000D03*
%TO.N,/TRACESWO*%
X68300000Y-107810000D03*
%TO.N,/NJTRST*%
X68300000Y-110350000D03*
%TD*%
D10*
%TO.N,/FAN_ENABLE*%
%TO.C,J4*%
X68250000Y-113920000D03*
D11*
%TO.N,/FAN_TACHOMETER*%
X68250000Y-116460000D03*
%TO.N,/FAN_SETUP*%
X68250000Y-119000000D03*
%TD*%
D10*
%TO.N,/BOOTKICK*%
%TO.C,J3*%
X86960000Y-128700000D03*
D11*
%TO.N,/SOM_GPIO*%
X89500000Y-128700000D03*
%TO.N,/VOLT_S*%
X92040000Y-128700000D03*
%TO.N,/VBAT_EN*%
X94580000Y-128700000D03*
%TO.N,/SBU1_RELAY*%
X97120000Y-128700000D03*
%TO.N,/SBU2_RELAY*%
X99660000Y-128700000D03*
%TO.N,/PWR_READOUT1*%
X102200000Y-128700000D03*
%TO.N,/PWR_READOUT2*%
X104740000Y-128700000D03*
%TD*%
D15*
%TO.N,GND*%
X96580000Y-74940000D03*
%TO.N,/IMU_SCL*%
X74160000Y-122260000D03*
%TO.N,/IMU_SDA*%
X74120000Y-121050000D03*
%TO.N,GND*%
X79080000Y-124020000D03*
X73300000Y-123820000D03*
%TO.N,+3.3V*%
X76910000Y-124490000D03*
X71800000Y-121500000D03*
%TO.N,GND*%
X76110000Y-121366200D03*
X77240000Y-123870000D03*
X78760000Y-83260000D03*
X67960000Y-79780000D03*
X70910000Y-82980000D03*
%TO.N,+5V*%
X83330000Y-99753800D03*
X90490000Y-99690000D03*
X98200000Y-98430000D03*
X76990000Y-99910000D03*
X74905000Y-83250000D03*
%TO.N,GND*%
X75310000Y-73380000D03*
%TO.N,+3.3V*%
X68940000Y-80160000D03*
%TO.N,GND*%
X78560000Y-77410000D03*
X77980000Y-72680000D03*
X78100000Y-71360000D03*
%TO.N,+12V*%
X74830000Y-77330000D03*
%TO.N,GND*%
X94580000Y-98400000D03*
X105180000Y-71170000D03*
X75490000Y-99850000D03*
X81800000Y-99670000D03*
D16*
%TO.N,/CAN1_T*%
X84118800Y-102830000D03*
%TO.N,/CAN2_R*%
X84470000Y-102016200D03*
D15*
%TO.N,GND*%
X72870000Y-94790000D03*
X93096200Y-111250000D03*
X81680000Y-105816200D03*
X92141369Y-112828631D03*
X91920000Y-109683800D03*
X85040000Y-105816200D03*
X87310000Y-105816200D03*
X77570000Y-116630000D03*
X77510000Y-110920000D03*
X82359400Y-120010000D03*
X87550000Y-120000000D03*
D16*
X83290000Y-115360000D03*
D15*
X98080000Y-86700000D03*
D16*
X86790000Y-115360000D03*
X82790000Y-110360000D03*
D15*
X91370000Y-87150000D03*
D16*
X85290000Y-111360000D03*
D15*
X84110000Y-87280000D03*
X78070000Y-87310000D03*
D16*
X85790000Y-110360000D03*
X82290000Y-112860000D03*
X87290000Y-110860000D03*
X87290000Y-114860000D03*
X82290000Y-115360000D03*
X87290000Y-113360000D03*
D15*
X88900000Y-99710000D03*
X76650000Y-113590000D03*
D16*
X86290000Y-110360000D03*
X82290000Y-111360000D03*
D15*
X87040000Y-85790000D03*
D16*
X84790000Y-110360000D03*
D15*
X71460000Y-87280000D03*
D16*
X84790000Y-115360000D03*
D15*
X67840000Y-94490000D03*
D16*
X82790000Y-113860000D03*
X82290000Y-111860000D03*
%TO.N,+3.3V*%
X87790000Y-112860000D03*
X87790000Y-113360000D03*
X86290000Y-109860000D03*
X87290000Y-111360000D03*
X81790000Y-114860000D03*
X84290000Y-109860000D03*
X81790000Y-112360000D03*
X81790000Y-112860000D03*
X87790000Y-114860000D03*
X84790000Y-109860000D03*
X83290000Y-110360000D03*
D15*
X67810000Y-87380000D03*
D16*
X86290000Y-115360000D03*
X81790000Y-111360000D03*
X82790000Y-109860000D03*
D15*
X71440000Y-94710000D03*
D16*
X82290000Y-114860000D03*
X83290000Y-115860000D03*
X83290000Y-110860000D03*
X84790000Y-115860000D03*
X81790000Y-115360000D03*
X87790000Y-110860000D03*
X82790000Y-111860000D03*
D15*
X98690000Y-122540000D03*
D16*
X86790000Y-115860000D03*
%TO.N,/SBU2*%
X85220594Y-125363800D03*
X81010000Y-125350000D03*
%TO.N,/SBU1*%
X84290000Y-114360000D03*
X85610000Y-85370000D03*
%TO.N,/CAN2_E*%
X85790000Y-114860000D03*
X97990000Y-114450000D03*
%TO.N,/CAN3_R*%
X97650000Y-114080000D03*
X86790000Y-113860000D03*
%TO.N,/CAN1_R*%
X83790000Y-110860000D03*
D15*
X91610000Y-98110000D03*
D16*
%TO.N,/CAN3_T*%
X97240000Y-113770000D03*
X97240000Y-115756200D03*
%TO.N,/CAN1_E*%
X86980000Y-91690000D03*
X84290000Y-111360000D03*
D15*
%TO.N,/CAN1_T*%
X87810000Y-98350000D03*
D16*
%TO.N,/CAN2_R*%
X84470000Y-98420000D03*
%TO.N,/CAN2_T*%
X84290000Y-110860000D03*
D15*
X80670000Y-98510000D03*
D16*
%TO.N,/CAN3_E*%
X96780000Y-116063800D03*
X96763797Y-113770000D03*
D15*
%TO.N,+12V*%
X85010000Y-81430000D03*
X87550000Y-81380000D03*
D16*
%TO.N,Net-(U7-NRST)*%
X71490000Y-98580000D03*
X84290000Y-112860000D03*
%TO.N,/UART_RX*%
X89660000Y-107770000D03*
X85290000Y-113360000D03*
%TO.N,/SPI_MISO*%
X85290000Y-114360000D03*
%TO.N,/SPI_MOSI*%
X85790000Y-113860000D03*
%TO.N,/UART_TX*%
X90473800Y-107430000D03*
X85290000Y-112860000D03*
%TO.N,/SOM_GPIO*%
X83790000Y-113360000D03*
%TO.N,/PWR_READOUT2*%
X83790000Y-114360000D03*
%TO.N,/VBAT_EN*%
X94010000Y-108580000D03*
%TO.N,/BOOTKICK*%
X83790000Y-113860000D03*
%TO.N,/SBU1_RELAY*%
X93543741Y-113536520D03*
%TO.N,/FAN_SETUP*%
X92860000Y-114863800D03*
%TO.N,/FAN_TACHOMETER*%
X85790000Y-111860000D03*
%TO.N,/FAN_ENABLE*%
X85790000Y-111360000D03*
%TO.N,/AUDIO_DFSDM1_CKOUT*%
X85780000Y-124740000D03*
X85290000Y-113860000D03*
%TO.N,/AUDIO_SAI4_SD_A*%
X86290000Y-113860000D03*
X93203800Y-113870000D03*
%TO.N,/SWDIO*%
X96530000Y-110390000D03*
X86790000Y-111360000D03*
%TO.N,/JTDI*%
X89060000Y-109000000D03*
%TO.N,/NJTRST*%
X84290000Y-110360000D03*
X81575958Y-107454042D03*
%TO.N,/TRACESWO*%
X84790000Y-112360000D03*
%TO.N,/LED_RED*%
X85790000Y-112360000D03*
X97370000Y-117440000D03*
%TO.N,/LED_GREEN*%
X95590000Y-117080000D03*
X86290000Y-112360000D03*
%TO.N,/LED_BLUE*%
X94336200Y-122610000D03*
X86790000Y-112360000D03*
%TO.N,Net-(U7-BOOT0)*%
X71460000Y-91200000D03*
X84290000Y-111860000D03*
%TO.N,/USB_DM*%
X85970000Y-80270000D03*
X86560000Y-80820000D03*
%TO.N,/USB_DP*%
X86510000Y-80230000D03*
%TD*%
%TA.AperFunction,Conductor*%
%TO.N,GND*%
G36*
X106318691Y-70659407D02*
G01*
X106354655Y-70708907D01*
X106359500Y-70739500D01*
X106359500Y-130260500D01*
X106340593Y-130318691D01*
X106291093Y-130354655D01*
X106260500Y-130359500D01*
X66739500Y-130359500D01*
X66681309Y-130340593D01*
X66645345Y-130291093D01*
X66640500Y-130260500D01*
X66640500Y-128616532D01*
X67119500Y-128616532D01*
X67119500Y-128823467D01*
X67159869Y-129026418D01*
X67239058Y-129217597D01*
X67354020Y-129389651D01*
X67354023Y-129389655D01*
X67500345Y-129535977D01*
X67672402Y-129650941D01*
X67863580Y-129730130D01*
X68066535Y-129770500D01*
X68066536Y-129770500D01*
X68273464Y-129770500D01*
X68273465Y-129770500D01*
X68476420Y-129730130D01*
X68667598Y-129650941D01*
X68839655Y-129535977D01*
X68985977Y-129389655D01*
X69100941Y-129217598D01*
X69180130Y-129026420D01*
X69220500Y-128823465D01*
X69220500Y-128616535D01*
X69220499Y-128616532D01*
X69659500Y-128616532D01*
X69659500Y-128823467D01*
X69699869Y-129026418D01*
X69779058Y-129217597D01*
X69894020Y-129389651D01*
X69894023Y-129389655D01*
X70040345Y-129535977D01*
X70212402Y-129650941D01*
X70403580Y-129730130D01*
X70606535Y-129770500D01*
X70606536Y-129770500D01*
X70813464Y-129770500D01*
X70813465Y-129770500D01*
X71016420Y-129730130D01*
X71207598Y-129650941D01*
X71379655Y-129535977D01*
X71525977Y-129389655D01*
X71640941Y-129217598D01*
X71720130Y-129026420D01*
X71760500Y-128823465D01*
X71760500Y-128616535D01*
X71760499Y-128616532D01*
X72199500Y-128616532D01*
X72199500Y-128823467D01*
X72239869Y-129026418D01*
X72319058Y-129217597D01*
X72434020Y-129389651D01*
X72434023Y-129389655D01*
X72580345Y-129535977D01*
X72752402Y-129650941D01*
X72943580Y-129730130D01*
X73146535Y-129770500D01*
X73146536Y-129770500D01*
X73353464Y-129770500D01*
X73353465Y-129770500D01*
X73556420Y-129730130D01*
X73747598Y-129650941D01*
X73919655Y-129535977D01*
X74065977Y-129389655D01*
X74180941Y-129217598D01*
X74260130Y-129026420D01*
X74300500Y-128823465D01*
X74300500Y-128616535D01*
X74300499Y-128616532D01*
X74739500Y-128616532D01*
X74739500Y-128823467D01*
X74779869Y-129026418D01*
X74859058Y-129217597D01*
X74974020Y-129389651D01*
X74974023Y-129389655D01*
X75120345Y-129535977D01*
X75292402Y-129650941D01*
X75483580Y-129730130D01*
X75686535Y-129770500D01*
X75686536Y-129770500D01*
X75893464Y-129770500D01*
X75893465Y-129770500D01*
X76096420Y-129730130D01*
X76287598Y-129650941D01*
X76459655Y-129535977D01*
X76605977Y-129389655D01*
X76720941Y-129217598D01*
X76800130Y-129026420D01*
X76840500Y-128823465D01*
X76840500Y-128616535D01*
X76840499Y-128616532D01*
X77279500Y-128616532D01*
X77279500Y-128823467D01*
X77319869Y-129026418D01*
X77399058Y-129217597D01*
X77514020Y-129389651D01*
X77514023Y-129389655D01*
X77660345Y-129535977D01*
X77832402Y-129650941D01*
X78023580Y-129730130D01*
X78226535Y-129770500D01*
X78226536Y-129770500D01*
X78433464Y-129770500D01*
X78433465Y-129770500D01*
X78636420Y-129730130D01*
X78827598Y-129650941D01*
X78999655Y-129535977D01*
X79145977Y-129389655D01*
X79260941Y-129217598D01*
X79340130Y-129026420D01*
X79380500Y-128823465D01*
X79380500Y-128616535D01*
X79380499Y-128616532D01*
X79819500Y-128616532D01*
X79819500Y-128823467D01*
X79859869Y-129026418D01*
X79939058Y-129217597D01*
X80054020Y-129389651D01*
X80054023Y-129389655D01*
X80200345Y-129535977D01*
X80372402Y-129650941D01*
X80563580Y-129730130D01*
X80766535Y-129770500D01*
X80766536Y-129770500D01*
X80973464Y-129770500D01*
X80973465Y-129770500D01*
X81176420Y-129730130D01*
X81367598Y-129650941D01*
X81539655Y-129535977D01*
X81685977Y-129389655D01*
X81800941Y-129217598D01*
X81880130Y-129026420D01*
X81920500Y-128823465D01*
X81920500Y-128616535D01*
X81880130Y-128413580D01*
X81800941Y-128222402D01*
X81685977Y-128050345D01*
X81539655Y-127904023D01*
X81509723Y-127884023D01*
X81459182Y-127850253D01*
X82359500Y-127850253D01*
X82359500Y-129589746D01*
X82359501Y-129589758D01*
X82371132Y-129648227D01*
X82371134Y-129648233D01*
X82412493Y-129710130D01*
X82415448Y-129714552D01*
X82481769Y-129758867D01*
X82526231Y-129767711D01*
X82540241Y-129770498D01*
X82540246Y-129770498D01*
X82540252Y-129770500D01*
X82540253Y-129770500D01*
X84279747Y-129770500D01*
X84279748Y-129770500D01*
X84338231Y-129758867D01*
X84404552Y-129714552D01*
X84448867Y-129648231D01*
X84460500Y-129589748D01*
X84460500Y-127850252D01*
X84460499Y-127850250D01*
X84460499Y-127850244D01*
X84459399Y-127844715D01*
X84459396Y-127844703D01*
X84456522Y-127830253D01*
X85909500Y-127830253D01*
X85909500Y-129569746D01*
X85909501Y-129569758D01*
X85921132Y-129628227D01*
X85921134Y-129628233D01*
X85965445Y-129694548D01*
X85965448Y-129694552D01*
X86031769Y-129738867D01*
X86076231Y-129747711D01*
X86090241Y-129750498D01*
X86090246Y-129750498D01*
X86090252Y-129750500D01*
X86090253Y-129750500D01*
X87829747Y-129750500D01*
X87829748Y-129750500D01*
X87888231Y-129738867D01*
X87954552Y-129694552D01*
X87998867Y-129628231D01*
X88010500Y-129569748D01*
X88010500Y-128596532D01*
X88449500Y-128596532D01*
X88449500Y-128803467D01*
X88489869Y-129006418D01*
X88569058Y-129197597D01*
X88582422Y-129217598D01*
X88684023Y-129369655D01*
X88830345Y-129515977D01*
X89002402Y-129630941D01*
X89193580Y-129710130D01*
X89396535Y-129750500D01*
X89396536Y-129750500D01*
X89603464Y-129750500D01*
X89603465Y-129750500D01*
X89806420Y-129710130D01*
X89997598Y-129630941D01*
X90169655Y-129515977D01*
X90315977Y-129369655D01*
X90430941Y-129197598D01*
X90510130Y-129006420D01*
X90550500Y-128803465D01*
X90550500Y-128596535D01*
X90550499Y-128596532D01*
X90989500Y-128596532D01*
X90989500Y-128803467D01*
X91029869Y-129006418D01*
X91109058Y-129197597D01*
X91122422Y-129217598D01*
X91224023Y-129369655D01*
X91370345Y-129515977D01*
X91542402Y-129630941D01*
X91733580Y-129710130D01*
X91936535Y-129750500D01*
X91936536Y-129750500D01*
X92143464Y-129750500D01*
X92143465Y-129750500D01*
X92346420Y-129710130D01*
X92537598Y-129630941D01*
X92709655Y-129515977D01*
X92855977Y-129369655D01*
X92970941Y-129197598D01*
X93050130Y-129006420D01*
X93090500Y-128803465D01*
X93090500Y-128596535D01*
X93090499Y-128596532D01*
X93529500Y-128596532D01*
X93529500Y-128803467D01*
X93569869Y-129006418D01*
X93649058Y-129197597D01*
X93662422Y-129217598D01*
X93764023Y-129369655D01*
X93910345Y-129515977D01*
X94082402Y-129630941D01*
X94273580Y-129710130D01*
X94476535Y-129750500D01*
X94476536Y-129750500D01*
X94683464Y-129750500D01*
X94683465Y-129750500D01*
X94886420Y-129710130D01*
X95077598Y-129630941D01*
X95249655Y-129515977D01*
X95395977Y-129369655D01*
X95510941Y-129197598D01*
X95590130Y-129006420D01*
X95630500Y-128803465D01*
X95630500Y-128596535D01*
X95630499Y-128596532D01*
X96069500Y-128596532D01*
X96069500Y-128803467D01*
X96109869Y-129006418D01*
X96189058Y-129197597D01*
X96202422Y-129217598D01*
X96304023Y-129369655D01*
X96450345Y-129515977D01*
X96622402Y-129630941D01*
X96813580Y-129710130D01*
X97016535Y-129750500D01*
X97016536Y-129750500D01*
X97223464Y-129750500D01*
X97223465Y-129750500D01*
X97426420Y-129710130D01*
X97617598Y-129630941D01*
X97789655Y-129515977D01*
X97935977Y-129369655D01*
X98050941Y-129197598D01*
X98130130Y-129006420D01*
X98170500Y-128803465D01*
X98170500Y-128596535D01*
X98170499Y-128596532D01*
X98609500Y-128596532D01*
X98609500Y-128803467D01*
X98649869Y-129006418D01*
X98729058Y-129197597D01*
X98742422Y-129217598D01*
X98844023Y-129369655D01*
X98990345Y-129515977D01*
X99162402Y-129630941D01*
X99353580Y-129710130D01*
X99556535Y-129750500D01*
X99556536Y-129750500D01*
X99763464Y-129750500D01*
X99763465Y-129750500D01*
X99966420Y-129710130D01*
X100157598Y-129630941D01*
X100329655Y-129515977D01*
X100475977Y-129369655D01*
X100590941Y-129197598D01*
X100670130Y-129006420D01*
X100710500Y-128803465D01*
X100710500Y-128596535D01*
X100710499Y-128596532D01*
X101149500Y-128596532D01*
X101149500Y-128803467D01*
X101189869Y-129006418D01*
X101269058Y-129197597D01*
X101282422Y-129217598D01*
X101384023Y-129369655D01*
X101530345Y-129515977D01*
X101702402Y-129630941D01*
X101893580Y-129710130D01*
X102096535Y-129750500D01*
X102096536Y-129750500D01*
X102303464Y-129750500D01*
X102303465Y-129750500D01*
X102506420Y-129710130D01*
X102697598Y-129630941D01*
X102869655Y-129515977D01*
X103015977Y-129369655D01*
X103130941Y-129197598D01*
X103210130Y-129006420D01*
X103250500Y-128803465D01*
X103250500Y-128596535D01*
X103250499Y-128596532D01*
X103689500Y-128596532D01*
X103689500Y-128803467D01*
X103729869Y-129006418D01*
X103809058Y-129197597D01*
X103822422Y-129217598D01*
X103924023Y-129369655D01*
X104070345Y-129515977D01*
X104242402Y-129630941D01*
X104433580Y-129710130D01*
X104636535Y-129750500D01*
X104636536Y-129750500D01*
X104843464Y-129750500D01*
X104843465Y-129750500D01*
X105046420Y-129710130D01*
X105237598Y-129630941D01*
X105409655Y-129515977D01*
X105555977Y-129369655D01*
X105670941Y-129197598D01*
X105750130Y-129006420D01*
X105790500Y-128803465D01*
X105790500Y-128596535D01*
X105750130Y-128393580D01*
X105670941Y-128202402D01*
X105555977Y-128030345D01*
X105409655Y-127884023D01*
X105409651Y-127884020D01*
X105237597Y-127769058D01*
X105046418Y-127689869D01*
X104843467Y-127649500D01*
X104843465Y-127649500D01*
X104636535Y-127649500D01*
X104636532Y-127649500D01*
X104433581Y-127689869D01*
X104242402Y-127769058D01*
X104070348Y-127884020D01*
X103924020Y-128030348D01*
X103809058Y-128202402D01*
X103729869Y-128393581D01*
X103689500Y-128596532D01*
X103250499Y-128596532D01*
X103210130Y-128393580D01*
X103130941Y-128202402D01*
X103015977Y-128030345D01*
X102869655Y-127884023D01*
X102869651Y-127884020D01*
X102697597Y-127769058D01*
X102506418Y-127689869D01*
X102303467Y-127649500D01*
X102303465Y-127649500D01*
X102096535Y-127649500D01*
X102096532Y-127649500D01*
X101893581Y-127689869D01*
X101702402Y-127769058D01*
X101530348Y-127884020D01*
X101384020Y-128030348D01*
X101269058Y-128202402D01*
X101189869Y-128393581D01*
X101149500Y-128596532D01*
X100710499Y-128596532D01*
X100670130Y-128393580D01*
X100590941Y-128202402D01*
X100475977Y-128030345D01*
X100329655Y-127884023D01*
X100329651Y-127884020D01*
X100157597Y-127769058D01*
X99966418Y-127689869D01*
X99763467Y-127649500D01*
X99763465Y-127649500D01*
X99556535Y-127649500D01*
X99556532Y-127649500D01*
X99353581Y-127689869D01*
X99162402Y-127769058D01*
X98990348Y-127884020D01*
X98844020Y-128030348D01*
X98729058Y-128202402D01*
X98649869Y-128393581D01*
X98609500Y-128596532D01*
X98170499Y-128596532D01*
X98130130Y-128393580D01*
X98050941Y-128202402D01*
X97935977Y-128030345D01*
X97789655Y-127884023D01*
X97789651Y-127884020D01*
X97617597Y-127769058D01*
X97426418Y-127689869D01*
X97223467Y-127649500D01*
X97223465Y-127649500D01*
X97016535Y-127649500D01*
X97016532Y-127649500D01*
X96813581Y-127689869D01*
X96622402Y-127769058D01*
X96450348Y-127884020D01*
X96304020Y-128030348D01*
X96189058Y-128202402D01*
X96109869Y-128393581D01*
X96069500Y-128596532D01*
X95630499Y-128596532D01*
X95590130Y-128393580D01*
X95510941Y-128202402D01*
X95395977Y-128030345D01*
X95249655Y-127884023D01*
X95249651Y-127884020D01*
X95077597Y-127769058D01*
X94886418Y-127689869D01*
X94683467Y-127649500D01*
X94683465Y-127649500D01*
X94476535Y-127649500D01*
X94476532Y-127649500D01*
X94273581Y-127689869D01*
X94082402Y-127769058D01*
X93910348Y-127884020D01*
X93764020Y-128030348D01*
X93649058Y-128202402D01*
X93569869Y-128393581D01*
X93529500Y-128596532D01*
X93090499Y-128596532D01*
X93050130Y-128393580D01*
X92970941Y-128202402D01*
X92855977Y-128030345D01*
X92709655Y-127884023D01*
X92709651Y-127884020D01*
X92537597Y-127769058D01*
X92346418Y-127689869D01*
X92143467Y-127649500D01*
X92143465Y-127649500D01*
X91936535Y-127649500D01*
X91936532Y-127649500D01*
X91733581Y-127689869D01*
X91542402Y-127769058D01*
X91370348Y-127884020D01*
X91224020Y-128030348D01*
X91109058Y-128202402D01*
X91029869Y-128393581D01*
X90989500Y-128596532D01*
X90550499Y-128596532D01*
X90510130Y-128393580D01*
X90430941Y-128202402D01*
X90315977Y-128030345D01*
X90169655Y-127884023D01*
X90169651Y-127884020D01*
X89997597Y-127769058D01*
X89806418Y-127689869D01*
X89603467Y-127649500D01*
X89603465Y-127649500D01*
X89396535Y-127649500D01*
X89396532Y-127649500D01*
X89193581Y-127689869D01*
X89002402Y-127769058D01*
X88830348Y-127884020D01*
X88684020Y-128030348D01*
X88569058Y-128202402D01*
X88489869Y-128393581D01*
X88449500Y-128596532D01*
X88010500Y-128596532D01*
X88010500Y-127830252D01*
X87998867Y-127771769D01*
X87954552Y-127705448D01*
X87954548Y-127705445D01*
X87888233Y-127661134D01*
X87888231Y-127661133D01*
X87888228Y-127661132D01*
X87888227Y-127661132D01*
X87829758Y-127649501D01*
X87829748Y-127649500D01*
X86090252Y-127649500D01*
X86090251Y-127649500D01*
X86090241Y-127649501D01*
X86031772Y-127661132D01*
X86031766Y-127661134D01*
X85965451Y-127705445D01*
X85965445Y-127705451D01*
X85921134Y-127771766D01*
X85921132Y-127771772D01*
X85909501Y-127830241D01*
X85909500Y-127830253D01*
X84456522Y-127830253D01*
X84448867Y-127791769D01*
X84404552Y-127725448D01*
X84404548Y-127725445D01*
X84338233Y-127681134D01*
X84338231Y-127681133D01*
X84338228Y-127681132D01*
X84338227Y-127681132D01*
X84279758Y-127669501D01*
X84279748Y-127669500D01*
X82540252Y-127669500D01*
X82540251Y-127669500D01*
X82540241Y-127669501D01*
X82481772Y-127681132D01*
X82481766Y-127681134D01*
X82415451Y-127725445D01*
X82415445Y-127725451D01*
X82371134Y-127791766D01*
X82371132Y-127791772D01*
X82359501Y-127850241D01*
X82359500Y-127850253D01*
X81459182Y-127850253D01*
X81367597Y-127789058D01*
X81176418Y-127709869D01*
X80973467Y-127669500D01*
X80973465Y-127669500D01*
X80766535Y-127669500D01*
X80766532Y-127669500D01*
X80563581Y-127709869D01*
X80372402Y-127789058D01*
X80200348Y-127904020D01*
X80054020Y-128050348D01*
X79939058Y-128222402D01*
X79859869Y-128413581D01*
X79819500Y-128616532D01*
X79380499Y-128616532D01*
X79340130Y-128413580D01*
X79260941Y-128222402D01*
X79145977Y-128050345D01*
X78999655Y-127904023D01*
X78969723Y-127884023D01*
X78827597Y-127789058D01*
X78636418Y-127709869D01*
X78433467Y-127669500D01*
X78433465Y-127669500D01*
X78226535Y-127669500D01*
X78226532Y-127669500D01*
X78023581Y-127709869D01*
X77832402Y-127789058D01*
X77660348Y-127904020D01*
X77514020Y-128050348D01*
X77399058Y-128222402D01*
X77319869Y-128413581D01*
X77279500Y-128616532D01*
X76840499Y-128616532D01*
X76800130Y-128413580D01*
X76720941Y-128222402D01*
X76605977Y-128050345D01*
X76459655Y-127904023D01*
X76429723Y-127884023D01*
X76287597Y-127789058D01*
X76096418Y-127709869D01*
X75893467Y-127669500D01*
X75893465Y-127669500D01*
X75686535Y-127669500D01*
X75686532Y-127669500D01*
X75483581Y-127709869D01*
X75292402Y-127789058D01*
X75120348Y-127904020D01*
X74974020Y-128050348D01*
X74859058Y-128222402D01*
X74779869Y-128413581D01*
X74739500Y-128616532D01*
X74300499Y-128616532D01*
X74260130Y-128413580D01*
X74180941Y-128222402D01*
X74065977Y-128050345D01*
X73919655Y-127904023D01*
X73889723Y-127884023D01*
X73747597Y-127789058D01*
X73556418Y-127709869D01*
X73353467Y-127669500D01*
X73353465Y-127669500D01*
X73146535Y-127669500D01*
X73146532Y-127669500D01*
X72943581Y-127709869D01*
X72752402Y-127789058D01*
X72580348Y-127904020D01*
X72434020Y-128050348D01*
X72319058Y-128222402D01*
X72239869Y-128413581D01*
X72199500Y-128616532D01*
X71760499Y-128616532D01*
X71720130Y-128413580D01*
X71640941Y-128222402D01*
X71525977Y-128050345D01*
X71379655Y-127904023D01*
X71349723Y-127884023D01*
X71207597Y-127789058D01*
X71016418Y-127709869D01*
X70813467Y-127669500D01*
X70813465Y-127669500D01*
X70606535Y-127669500D01*
X70606532Y-127669500D01*
X70403581Y-127709869D01*
X70212402Y-127789058D01*
X70040348Y-127904020D01*
X69894020Y-128050348D01*
X69779058Y-128222402D01*
X69699869Y-128413581D01*
X69659500Y-128616532D01*
X69220499Y-128616532D01*
X69180130Y-128413580D01*
X69100941Y-128222402D01*
X68985977Y-128050345D01*
X68839655Y-127904023D01*
X68809723Y-127884023D01*
X68667597Y-127789058D01*
X68476418Y-127709869D01*
X68273467Y-127669500D01*
X68273465Y-127669500D01*
X68066535Y-127669500D01*
X68066532Y-127669500D01*
X67863581Y-127709869D01*
X67672402Y-127789058D01*
X67500348Y-127904020D01*
X67354020Y-128050348D01*
X67239058Y-128222402D01*
X67159869Y-128413581D01*
X67119500Y-128616532D01*
X66640500Y-128616532D01*
X66640500Y-123457824D01*
X66899999Y-123457824D01*
X66906401Y-123517370D01*
X66906403Y-123517381D01*
X66956646Y-123652088D01*
X66956647Y-123652090D01*
X67042807Y-123767184D01*
X67042815Y-123767192D01*
X67157909Y-123853352D01*
X67157911Y-123853353D01*
X67292618Y-123903596D01*
X67292629Y-123903598D01*
X67352176Y-123910000D01*
X67880119Y-123910000D01*
X67938310Y-123928907D01*
X67974274Y-123978407D01*
X67974274Y-124039593D01*
X67938310Y-124089093D01*
X67918007Y-124100462D01*
X67868697Y-124120887D01*
X67752402Y-124169058D01*
X67580348Y-124284020D01*
X67434020Y-124430348D01*
X67319058Y-124602402D01*
X67239869Y-124793581D01*
X67199500Y-124996532D01*
X67199500Y-125203467D01*
X67239869Y-125406418D01*
X67319058Y-125597597D01*
X67412207Y-125737005D01*
X67434023Y-125769655D01*
X67580345Y-125915977D01*
X67752402Y-126030941D01*
X67943580Y-126110130D01*
X68146535Y-126150500D01*
X68146536Y-126150500D01*
X68353464Y-126150500D01*
X68353465Y-126150500D01*
X68556420Y-126110130D01*
X68747598Y-126030941D01*
X68919655Y-125915977D01*
X69065977Y-125769655D01*
X69180941Y-125597598D01*
X69260130Y-125406420D01*
X69281841Y-125297273D01*
X80609500Y-125297273D01*
X80609500Y-125402727D01*
X80623887Y-125456420D01*
X80636794Y-125504589D01*
X80636794Y-125504590D01*
X80689518Y-125595910D01*
X80689520Y-125595913D01*
X80764087Y-125670480D01*
X80855413Y-125723207D01*
X80957273Y-125750500D01*
X80957275Y-125750500D01*
X81062725Y-125750500D01*
X81062727Y-125750500D01*
X81164587Y-125723207D01*
X81255913Y-125670480D01*
X81330480Y-125595913D01*
X81383207Y-125504587D01*
X81410500Y-125402727D01*
X81410500Y-125311073D01*
X84820094Y-125311073D01*
X84820094Y-125416527D01*
X84847387Y-125518387D01*
X84847388Y-125518389D01*
X84847388Y-125518390D01*
X84893119Y-125597597D01*
X84900114Y-125609713D01*
X84974681Y-125684280D01*
X85066007Y-125737007D01*
X85167867Y-125764300D01*
X85167869Y-125764300D01*
X85273319Y-125764300D01*
X85273321Y-125764300D01*
X85375181Y-125737007D01*
X85466507Y-125684280D01*
X85541074Y-125609713D01*
X85593801Y-125518387D01*
X85621094Y-125416527D01*
X85621094Y-125311073D01*
X85608021Y-125262283D01*
X85611222Y-125201183D01*
X85649727Y-125153633D01*
X85708827Y-125137797D01*
X85720834Y-125139699D01*
X85720841Y-125139653D01*
X85727272Y-125140499D01*
X85727273Y-125140500D01*
X85727274Y-125140500D01*
X85832725Y-125140500D01*
X85832727Y-125140500D01*
X85934587Y-125113207D01*
X86025913Y-125060480D01*
X86039861Y-125046532D01*
X101109500Y-125046532D01*
X101109500Y-125253467D01*
X101149869Y-125456418D01*
X101229058Y-125647597D01*
X101310614Y-125769655D01*
X101344023Y-125819655D01*
X101490345Y-125965977D01*
X101662402Y-126080941D01*
X101853580Y-126160130D01*
X102056535Y-126200500D01*
X102056536Y-126200500D01*
X102263464Y-126200500D01*
X102263465Y-126200500D01*
X102466420Y-126160130D01*
X102657598Y-126080941D01*
X102829655Y-125965977D01*
X102975977Y-125819655D01*
X103090941Y-125647598D01*
X103170130Y-125456420D01*
X103210500Y-125253465D01*
X103210500Y-125046535D01*
X103210499Y-125046532D01*
X103649500Y-125046532D01*
X103649500Y-125253467D01*
X103689869Y-125456418D01*
X103769058Y-125647597D01*
X103850614Y-125769655D01*
X103884023Y-125819655D01*
X104030345Y-125965977D01*
X104202402Y-126080941D01*
X104393580Y-126160130D01*
X104596535Y-126200500D01*
X104596536Y-126200500D01*
X104803464Y-126200500D01*
X104803465Y-126200500D01*
X105006420Y-126160130D01*
X105197598Y-126080941D01*
X105369655Y-125965977D01*
X105515977Y-125819655D01*
X105630941Y-125647598D01*
X105710130Y-125456420D01*
X105750500Y-125253465D01*
X105750500Y-125046535D01*
X105710130Y-124843580D01*
X105630941Y-124652402D01*
X105515977Y-124480345D01*
X105369655Y-124334023D01*
X105369651Y-124334020D01*
X105197597Y-124219058D01*
X105006418Y-124139869D01*
X104803467Y-124099500D01*
X104803465Y-124099500D01*
X104596535Y-124099500D01*
X104596532Y-124099500D01*
X104393581Y-124139869D01*
X104202402Y-124219058D01*
X104030348Y-124334020D01*
X103884020Y-124480348D01*
X103769058Y-124652402D01*
X103689869Y-124843581D01*
X103649500Y-125046532D01*
X103210499Y-125046532D01*
X103170130Y-124843580D01*
X103090941Y-124652402D01*
X102975977Y-124480345D01*
X102829655Y-124334023D01*
X102829651Y-124334020D01*
X102657597Y-124219058D01*
X102466418Y-124139869D01*
X102263467Y-124099500D01*
X102263465Y-124099500D01*
X102056535Y-124099500D01*
X102056532Y-124099500D01*
X101853581Y-124139869D01*
X101662402Y-124219058D01*
X101490348Y-124334020D01*
X101344020Y-124480348D01*
X101229058Y-124652402D01*
X101149869Y-124843581D01*
X101109500Y-125046532D01*
X86039861Y-125046532D01*
X86100480Y-124985913D01*
X86153207Y-124894587D01*
X86180500Y-124792727D01*
X86180500Y-124687273D01*
X86153207Y-124585413D01*
X86100480Y-124494087D01*
X86025913Y-124419520D01*
X85934587Y-124366793D01*
X85832727Y-124339500D01*
X85727273Y-124339500D01*
X85625413Y-124366793D01*
X85625412Y-124366793D01*
X85625410Y-124366794D01*
X85625409Y-124366794D01*
X85534089Y-124419518D01*
X85459518Y-124494089D01*
X85406794Y-124585409D01*
X85406794Y-124585410D01*
X85406793Y-124585412D01*
X85406793Y-124585413D01*
X85379500Y-124687273D01*
X85379500Y-124792727D01*
X85392573Y-124841515D01*
X85389370Y-124902617D01*
X85350865Y-124950167D01*
X85291764Y-124966002D01*
X85279759Y-124964100D01*
X85279753Y-124964147D01*
X85273321Y-124963300D01*
X85167867Y-124963300D01*
X85066007Y-124990593D01*
X85066006Y-124990593D01*
X85066004Y-124990594D01*
X85066003Y-124990594D01*
X84974683Y-125043318D01*
X84900112Y-125117889D01*
X84847388Y-125209209D01*
X84847388Y-125209210D01*
X84847387Y-125209212D01*
X84847387Y-125209213D01*
X84820094Y-125311073D01*
X81410500Y-125311073D01*
X81410500Y-125297273D01*
X81383207Y-125195413D01*
X81330480Y-125104087D01*
X81255913Y-125029520D01*
X81198781Y-124996535D01*
X81164589Y-124976794D01*
X81164588Y-124976793D01*
X81164587Y-124976793D01*
X81062727Y-124949500D01*
X80957273Y-124949500D01*
X80855413Y-124976793D01*
X80855412Y-124976793D01*
X80855410Y-124976794D01*
X80855409Y-124976794D01*
X80764089Y-125029518D01*
X80689518Y-125104089D01*
X80636794Y-125195409D01*
X80636794Y-125195410D01*
X80636793Y-125195412D01*
X80636793Y-125195413D01*
X80609500Y-125297273D01*
X69281841Y-125297273D01*
X69300500Y-125203465D01*
X69300500Y-124996535D01*
X69260130Y-124793580D01*
X69180941Y-124602402D01*
X69065977Y-124430345D01*
X69059740Y-124424108D01*
X76409500Y-124424108D01*
X76409500Y-124555892D01*
X76435360Y-124652402D01*
X76443609Y-124683190D01*
X76509496Y-124797309D01*
X76509498Y-124797311D01*
X76509500Y-124797314D01*
X76602686Y-124890500D01*
X76602688Y-124890501D01*
X76602690Y-124890503D01*
X76716810Y-124956390D01*
X76716808Y-124956390D01*
X76716812Y-124956391D01*
X76716814Y-124956392D01*
X76844108Y-124990500D01*
X76844110Y-124990500D01*
X76975890Y-124990500D01*
X76975892Y-124990500D01*
X77103186Y-124956392D01*
X77103188Y-124956390D01*
X77103190Y-124956390D01*
X77217309Y-124890503D01*
X77217309Y-124890502D01*
X77217314Y-124890500D01*
X77310500Y-124797314D01*
X77313148Y-124792727D01*
X77376390Y-124683190D01*
X77376390Y-124683188D01*
X77376392Y-124683186D01*
X77410500Y-124555892D01*
X77410500Y-124424108D01*
X77376392Y-124296814D01*
X77376390Y-124296811D01*
X77376390Y-124296809D01*
X77310503Y-124182690D01*
X77310501Y-124182688D01*
X77310500Y-124182686D01*
X77217314Y-124089500D01*
X77217311Y-124089498D01*
X77217309Y-124089496D01*
X77103189Y-124023609D01*
X77103191Y-124023609D01*
X77053799Y-124010375D01*
X76975892Y-123989500D01*
X76844108Y-123989500D01*
X76766200Y-124010375D01*
X76716809Y-124023609D01*
X76602690Y-124089496D01*
X76509496Y-124182690D01*
X76443609Y-124296809D01*
X76443608Y-124296814D01*
X76409500Y-124424108D01*
X69059740Y-124424108D01*
X68919655Y-124284023D01*
X68822429Y-124219059D01*
X68747597Y-124169058D01*
X68651528Y-124129265D01*
X68581994Y-124100463D01*
X68535470Y-124060727D01*
X68521186Y-124001233D01*
X68544601Y-123944705D01*
X68596770Y-123912735D01*
X68619881Y-123910000D01*
X69147824Y-123910000D01*
X69207370Y-123903598D01*
X69207381Y-123903596D01*
X69342088Y-123853353D01*
X69342090Y-123853352D01*
X69457184Y-123767192D01*
X69457192Y-123767184D01*
X69543352Y-123652090D01*
X69543353Y-123652088D01*
X69593596Y-123517381D01*
X69593598Y-123517370D01*
X69600000Y-123457824D01*
X69600000Y-122810001D01*
X69599999Y-122810000D01*
X68683012Y-122810000D01*
X68715925Y-122752993D01*
X68750000Y-122625826D01*
X68750000Y-122494174D01*
X68715925Y-122367007D01*
X68683012Y-122310000D01*
X69599999Y-122310000D01*
X69600000Y-122309999D01*
X69600000Y-122194108D01*
X73659500Y-122194108D01*
X73659500Y-122325892D01*
X73669735Y-122364089D01*
X73693609Y-122453190D01*
X73759496Y-122567309D01*
X73759498Y-122567311D01*
X73759500Y-122567314D01*
X73852686Y-122660500D01*
X73852688Y-122660501D01*
X73852690Y-122660503D01*
X73966810Y-122726390D01*
X73966808Y-122726390D01*
X73966812Y-122726391D01*
X73966814Y-122726392D01*
X74094108Y-122760500D01*
X74094110Y-122760500D01*
X74225890Y-122760500D01*
X74225892Y-122760500D01*
X74353186Y-122726392D01*
X74353188Y-122726390D01*
X74353190Y-122726390D01*
X74467309Y-122660503D01*
X74467309Y-122660502D01*
X74467314Y-122660500D01*
X74560500Y-122567314D01*
X74566297Y-122557273D01*
X93935700Y-122557273D01*
X93935700Y-122662727D01*
X93961898Y-122760500D01*
X93962994Y-122764589D01*
X93962994Y-122764590D01*
X94010752Y-122847309D01*
X94015720Y-122855913D01*
X94090287Y-122930480D01*
X94181613Y-122983207D01*
X94283473Y-123010500D01*
X94283475Y-123010500D01*
X94388925Y-123010500D01*
X94388927Y-123010500D01*
X94490787Y-122983207D01*
X94582113Y-122930480D01*
X94656680Y-122855913D01*
X94709407Y-122764587D01*
X94736700Y-122662727D01*
X94736700Y-122557273D01*
X94714416Y-122474108D01*
X98189500Y-122474108D01*
X98189500Y-122605892D01*
X98204132Y-122660500D01*
X98223609Y-122733190D01*
X98289496Y-122847309D01*
X98289498Y-122847311D01*
X98289500Y-122847314D01*
X98382686Y-122940500D01*
X98382688Y-122940501D01*
X98382690Y-122940503D01*
X98496810Y-123006390D01*
X98496808Y-123006390D01*
X98496812Y-123006391D01*
X98496814Y-123006392D01*
X98624108Y-123040500D01*
X98624110Y-123040500D01*
X98755890Y-123040500D01*
X98755892Y-123040500D01*
X98883186Y-123006392D01*
X98883188Y-123006390D01*
X98883190Y-123006390D01*
X98997309Y-122940503D01*
X98997309Y-122940502D01*
X98997314Y-122940500D01*
X99090500Y-122847314D01*
X99138261Y-122764590D01*
X99156390Y-122733190D01*
X99156390Y-122733188D01*
X99156392Y-122733186D01*
X99190500Y-122605892D01*
X99190500Y-122506532D01*
X101109500Y-122506532D01*
X101109500Y-122713467D01*
X101149869Y-122916418D01*
X101229058Y-123107597D01*
X101229059Y-123107598D01*
X101344023Y-123279655D01*
X101490345Y-123425977D01*
X101662402Y-123540941D01*
X101853580Y-123620130D01*
X102056535Y-123660500D01*
X102056536Y-123660500D01*
X102263464Y-123660500D01*
X102263465Y-123660500D01*
X102466420Y-123620130D01*
X102657598Y-123540941D01*
X102829655Y-123425977D01*
X102975977Y-123279655D01*
X103090941Y-123107598D01*
X103170130Y-122916420D01*
X103210500Y-122713465D01*
X103210500Y-122506535D01*
X103210499Y-122506532D01*
X103649500Y-122506532D01*
X103649500Y-122713467D01*
X103689869Y-122916418D01*
X103769058Y-123107597D01*
X103769059Y-123107598D01*
X103884023Y-123279655D01*
X104030345Y-123425977D01*
X104202402Y-123540941D01*
X104393580Y-123620130D01*
X104596535Y-123660500D01*
X104596536Y-123660500D01*
X104803464Y-123660500D01*
X104803465Y-123660500D01*
X105006420Y-123620130D01*
X105197598Y-123540941D01*
X105369655Y-123425977D01*
X105515977Y-123279655D01*
X105630941Y-123107598D01*
X105710130Y-122916420D01*
X105750500Y-122713465D01*
X105750500Y-122506535D01*
X105710130Y-122303580D01*
X105630941Y-122112402D01*
X105515977Y-121940345D01*
X105369655Y-121794023D01*
X105369651Y-121794020D01*
X105197597Y-121679058D01*
X105006418Y-121599869D01*
X104803467Y-121559500D01*
X104803465Y-121559500D01*
X104596535Y-121559500D01*
X104596532Y-121559500D01*
X104393581Y-121599869D01*
X104202402Y-121679058D01*
X104030348Y-121794020D01*
X103884020Y-121940348D01*
X103769058Y-122112402D01*
X103689869Y-122303581D01*
X103649500Y-122506532D01*
X103210499Y-122506532D01*
X103170130Y-122303580D01*
X103090941Y-122112402D01*
X102975977Y-121940345D01*
X102829655Y-121794023D01*
X102829651Y-121794020D01*
X102657597Y-121679058D01*
X102466418Y-121599869D01*
X102263467Y-121559500D01*
X102263465Y-121559500D01*
X102056535Y-121559500D01*
X102056532Y-121559500D01*
X101853581Y-121599869D01*
X101662402Y-121679058D01*
X101490348Y-121794020D01*
X101344020Y-121940348D01*
X101229058Y-122112402D01*
X101149869Y-122303581D01*
X101109500Y-122506532D01*
X99190500Y-122506532D01*
X99190500Y-122474108D01*
X99156392Y-122346814D01*
X99156390Y-122346811D01*
X99156390Y-122346809D01*
X99090503Y-122232690D01*
X99090501Y-122232688D01*
X99090500Y-122232686D01*
X98997314Y-122139500D01*
X98997311Y-122139498D01*
X98997309Y-122139496D01*
X98883189Y-122073609D01*
X98883191Y-122073609D01*
X98832400Y-122060000D01*
X98755892Y-122039500D01*
X98624108Y-122039500D01*
X98547600Y-122060000D01*
X98496809Y-122073609D01*
X98382690Y-122139496D01*
X98289496Y-122232690D01*
X98223609Y-122346809D01*
X98223608Y-122346814D01*
X98189500Y-122474108D01*
X94714416Y-122474108D01*
X94709407Y-122455413D01*
X94708122Y-122453188D01*
X94656681Y-122364089D01*
X94656680Y-122364087D01*
X94582113Y-122289520D01*
X94518846Y-122252993D01*
X94490789Y-122236794D01*
X94490788Y-122236793D01*
X94490787Y-122236793D01*
X94388927Y-122209500D01*
X94283473Y-122209500D01*
X94181613Y-122236793D01*
X94181612Y-122236793D01*
X94181610Y-122236794D01*
X94181609Y-122236794D01*
X94090289Y-122289518D01*
X94015718Y-122364089D01*
X93962994Y-122455409D01*
X93962994Y-122455410D01*
X93962993Y-122455412D01*
X93962993Y-122455413D01*
X93935700Y-122557273D01*
X74566297Y-122557273D01*
X74626392Y-122453186D01*
X74660500Y-122325892D01*
X74660500Y-122194108D01*
X74626392Y-122066814D01*
X74626390Y-122066811D01*
X74626390Y-122066809D01*
X74560503Y-121952690D01*
X74560501Y-121952688D01*
X74560500Y-121952686D01*
X74467314Y-121859500D01*
X74467311Y-121859498D01*
X74467309Y-121859496D01*
X74353189Y-121793609D01*
X74353191Y-121793609D01*
X74303799Y-121780375D01*
X74225892Y-121759500D01*
X74094108Y-121759500D01*
X74016200Y-121780375D01*
X73966809Y-121793609D01*
X73852690Y-121859496D01*
X73759496Y-121952690D01*
X73693609Y-122066809D01*
X73681393Y-122112402D01*
X73659500Y-122194108D01*
X69600000Y-122194108D01*
X69600000Y-121662175D01*
X69593598Y-121602629D01*
X69593596Y-121602619D01*
X69543353Y-121467910D01*
X69543352Y-121467909D01*
X69518048Y-121434108D01*
X71299500Y-121434108D01*
X71299500Y-121565892D01*
X71309341Y-121602618D01*
X71333609Y-121693190D01*
X71399496Y-121807309D01*
X71399498Y-121807311D01*
X71399500Y-121807314D01*
X71492686Y-121900500D01*
X71492688Y-121900501D01*
X71492690Y-121900503D01*
X71606810Y-121966390D01*
X71606808Y-121966390D01*
X71606812Y-121966391D01*
X71606814Y-121966392D01*
X71734108Y-122000500D01*
X71734110Y-122000500D01*
X71865890Y-122000500D01*
X71865892Y-122000500D01*
X71993186Y-121966392D01*
X71993188Y-121966390D01*
X71993190Y-121966390D01*
X72107309Y-121900503D01*
X72107309Y-121900502D01*
X72107314Y-121900500D01*
X72200500Y-121807314D01*
X72208413Y-121793608D01*
X72266390Y-121693190D01*
X72266390Y-121693188D01*
X72266392Y-121693186D01*
X72300500Y-121565892D01*
X72300500Y-121434108D01*
X72266392Y-121306814D01*
X72266390Y-121306811D01*
X72266390Y-121306809D01*
X72200503Y-121192690D01*
X72200501Y-121192688D01*
X72200500Y-121192686D01*
X72107314Y-121099500D01*
X72107311Y-121099498D01*
X72107309Y-121099496D01*
X72044714Y-121063356D01*
X72044711Y-121063356D01*
X71993187Y-121033608D01*
X71950754Y-121022238D01*
X71865892Y-120999500D01*
X71734108Y-120999500D01*
X71656200Y-121020375D01*
X71606809Y-121033609D01*
X71492690Y-121099496D01*
X71399496Y-121192690D01*
X71333609Y-121306809D01*
X71333608Y-121306814D01*
X71299500Y-121434108D01*
X69518048Y-121434108D01*
X69457192Y-121352815D01*
X69457184Y-121352807D01*
X69342090Y-121266647D01*
X69342088Y-121266646D01*
X69207381Y-121216403D01*
X69207370Y-121216401D01*
X69147824Y-121210000D01*
X68500001Y-121210000D01*
X68500000Y-121210001D01*
X68500000Y-122126988D01*
X68442993Y-122094075D01*
X68315826Y-122060000D01*
X68184174Y-122060000D01*
X68057007Y-122094075D01*
X68000000Y-122126988D01*
X68000000Y-121210001D01*
X67999999Y-121210000D01*
X67352176Y-121210000D01*
X67292629Y-121216401D01*
X67292618Y-121216403D01*
X67157911Y-121266646D01*
X67157909Y-121266647D01*
X67042815Y-121352807D01*
X67042807Y-121352815D01*
X66956647Y-121467909D01*
X66956646Y-121467911D01*
X66906403Y-121602618D01*
X66906401Y-121602629D01*
X66900000Y-121662175D01*
X66900000Y-122309999D01*
X66900001Y-122310000D01*
X67816988Y-122310000D01*
X67784075Y-122367007D01*
X67750000Y-122494174D01*
X67750000Y-122625826D01*
X67784075Y-122752993D01*
X67816988Y-122810000D01*
X66900001Y-122810000D01*
X66900000Y-122810001D01*
X66900000Y-123457824D01*
X66899999Y-123457824D01*
X66640500Y-123457824D01*
X66640500Y-120984108D01*
X73619500Y-120984108D01*
X73619500Y-121115892D01*
X73620735Y-121120500D01*
X73653609Y-121243190D01*
X73719496Y-121357309D01*
X73719498Y-121357311D01*
X73719500Y-121357314D01*
X73812686Y-121450500D01*
X73812688Y-121450501D01*
X73812690Y-121450503D01*
X73926810Y-121516390D01*
X73926808Y-121516390D01*
X73926812Y-121516391D01*
X73926814Y-121516392D01*
X74054108Y-121550500D01*
X74054110Y-121550500D01*
X74185890Y-121550500D01*
X74185892Y-121550500D01*
X74313186Y-121516392D01*
X74313188Y-121516390D01*
X74313190Y-121516390D01*
X74427309Y-121450503D01*
X74427309Y-121450502D01*
X74427314Y-121450500D01*
X74520500Y-121357314D01*
X74572847Y-121266647D01*
X74586390Y-121243190D01*
X74586390Y-121243188D01*
X74586392Y-121243186D01*
X74620500Y-121115892D01*
X74620500Y-120984108D01*
X74586392Y-120856814D01*
X74586390Y-120856811D01*
X74586390Y-120856809D01*
X74520503Y-120742690D01*
X74520501Y-120742688D01*
X74520500Y-120742686D01*
X74427314Y-120649500D01*
X74427311Y-120649498D01*
X74427309Y-120649496D01*
X74313189Y-120583609D01*
X74313191Y-120583609D01*
X74253435Y-120567598D01*
X74185892Y-120549500D01*
X74054108Y-120549500D01*
X73986565Y-120567598D01*
X73926809Y-120583609D01*
X73812690Y-120649496D01*
X73719496Y-120742690D01*
X73653609Y-120856809D01*
X73653608Y-120856814D01*
X73619500Y-120984108D01*
X66640500Y-120984108D01*
X66640500Y-118896532D01*
X67199500Y-118896532D01*
X67199500Y-119103467D01*
X67239869Y-119306418D01*
X67319058Y-119497597D01*
X67319059Y-119497598D01*
X67434023Y-119669655D01*
X67580345Y-119815977D01*
X67752402Y-119930941D01*
X67943580Y-120010130D01*
X68146535Y-120050500D01*
X68146536Y-120050500D01*
X68353464Y-120050500D01*
X68353465Y-120050500D01*
X68556420Y-120010130D01*
X68661674Y-119966532D01*
X101109500Y-119966532D01*
X101109500Y-120173467D01*
X101149869Y-120376418D01*
X101229058Y-120567597D01*
X101344020Y-120739651D01*
X101344023Y-120739655D01*
X101490345Y-120885977D01*
X101662402Y-121000941D01*
X101853580Y-121080130D01*
X102056535Y-121120500D01*
X102056536Y-121120500D01*
X102263464Y-121120500D01*
X102263465Y-121120500D01*
X102466420Y-121080130D01*
X102657598Y-121000941D01*
X102829655Y-120885977D01*
X102975977Y-120739655D01*
X103090941Y-120567598D01*
X103170130Y-120376420D01*
X103210500Y-120173465D01*
X103210500Y-119966535D01*
X103210499Y-119966532D01*
X103649500Y-119966532D01*
X103649500Y-120173467D01*
X103689869Y-120376418D01*
X103769058Y-120567597D01*
X103884020Y-120739651D01*
X103884023Y-120739655D01*
X104030345Y-120885977D01*
X104202402Y-121000941D01*
X104393580Y-121080130D01*
X104596535Y-121120500D01*
X104596536Y-121120500D01*
X104803464Y-121120500D01*
X104803465Y-121120500D01*
X105006420Y-121080130D01*
X105197598Y-121000941D01*
X105369655Y-120885977D01*
X105515977Y-120739655D01*
X105630941Y-120567598D01*
X105710130Y-120376420D01*
X105750500Y-120173465D01*
X105750500Y-119966535D01*
X105710130Y-119763580D01*
X105630941Y-119572402D01*
X105515977Y-119400345D01*
X105369655Y-119254023D01*
X105197598Y-119139059D01*
X105197599Y-119139059D01*
X105197597Y-119139058D01*
X105006418Y-119059869D01*
X104803467Y-119019500D01*
X104803465Y-119019500D01*
X104596535Y-119019500D01*
X104596532Y-119019500D01*
X104393581Y-119059869D01*
X104202402Y-119139058D01*
X104030348Y-119254020D01*
X103884020Y-119400348D01*
X103769058Y-119572402D01*
X103689869Y-119763581D01*
X103649500Y-119966532D01*
X103210499Y-119966532D01*
X103170130Y-119763580D01*
X103090941Y-119572402D01*
X102975977Y-119400345D01*
X102829655Y-119254023D01*
X102657598Y-119139059D01*
X102657599Y-119139059D01*
X102657597Y-119139058D01*
X102466418Y-119059869D01*
X102263467Y-119019500D01*
X102263465Y-119019500D01*
X102056535Y-119019500D01*
X102056532Y-119019500D01*
X101853581Y-119059869D01*
X101662402Y-119139058D01*
X101490348Y-119254020D01*
X101344020Y-119400348D01*
X101229058Y-119572402D01*
X101149869Y-119763581D01*
X101109500Y-119966532D01*
X68661674Y-119966532D01*
X68747598Y-119930941D01*
X68919655Y-119815977D01*
X69065977Y-119669655D01*
X69180941Y-119497598D01*
X69260130Y-119306420D01*
X69300500Y-119103465D01*
X69300500Y-118896535D01*
X69260130Y-118693580D01*
X69180941Y-118502402D01*
X69065977Y-118330345D01*
X68919655Y-118184023D01*
X68747598Y-118069059D01*
X68747599Y-118069059D01*
X68747597Y-118069058D01*
X68556418Y-117989869D01*
X68353467Y-117949500D01*
X68353465Y-117949500D01*
X68146535Y-117949500D01*
X68146532Y-117949500D01*
X67943581Y-117989869D01*
X67752402Y-118069058D01*
X67580348Y-118184020D01*
X67434020Y-118330348D01*
X67319058Y-118502402D01*
X67239869Y-118693581D01*
X67199500Y-118896532D01*
X66640500Y-118896532D01*
X66640500Y-116356532D01*
X67199500Y-116356532D01*
X67199500Y-116563467D01*
X67239869Y-116766418D01*
X67319058Y-116957597D01*
X67427251Y-117119520D01*
X67434023Y-117129655D01*
X67580345Y-117275977D01*
X67752402Y-117390941D01*
X67943580Y-117470130D01*
X68146535Y-117510500D01*
X68146536Y-117510500D01*
X68353464Y-117510500D01*
X68353465Y-117510500D01*
X68556420Y-117470130D01*
X68747598Y-117390941D01*
X68919655Y-117275977D01*
X69065977Y-117129655D01*
X69134386Y-117027273D01*
X95189500Y-117027273D01*
X95189500Y-117132727D01*
X95205942Y-117194089D01*
X95216794Y-117234589D01*
X95216794Y-117234590D01*
X95246137Y-117285413D01*
X95269520Y-117325913D01*
X95344087Y-117400480D01*
X95435413Y-117453207D01*
X95537273Y-117480500D01*
X95537275Y-117480500D01*
X95642725Y-117480500D01*
X95642727Y-117480500D01*
X95744587Y-117453207D01*
X95835913Y-117400480D01*
X95849120Y-117387273D01*
X96969500Y-117387273D01*
X96969500Y-117492727D01*
X96996793Y-117594587D01*
X96996794Y-117594589D01*
X96996794Y-117594590D01*
X97019239Y-117633465D01*
X97049520Y-117685913D01*
X97124087Y-117760480D01*
X97215413Y-117813207D01*
X97317273Y-117840500D01*
X97317275Y-117840500D01*
X97422725Y-117840500D01*
X97422727Y-117840500D01*
X97524587Y-117813207D01*
X97615913Y-117760480D01*
X97690480Y-117685913D01*
X97743207Y-117594587D01*
X97770500Y-117492727D01*
X97770500Y-117426532D01*
X101109500Y-117426532D01*
X101109500Y-117633467D01*
X101149869Y-117836418D01*
X101229058Y-118027597D01*
X101229059Y-118027598D01*
X101344023Y-118199655D01*
X101490345Y-118345977D01*
X101662402Y-118460941D01*
X101853580Y-118540130D01*
X102056535Y-118580500D01*
X102056536Y-118580500D01*
X102263464Y-118580500D01*
X102263465Y-118580500D01*
X102466420Y-118540130D01*
X102657598Y-118460941D01*
X102829655Y-118345977D01*
X102975977Y-118199655D01*
X103090941Y-118027598D01*
X103170130Y-117836420D01*
X103210500Y-117633465D01*
X103210500Y-117426535D01*
X103210499Y-117426532D01*
X103649500Y-117426532D01*
X103649500Y-117633467D01*
X103689869Y-117836418D01*
X103769058Y-118027597D01*
X103769059Y-118027598D01*
X103884023Y-118199655D01*
X104030345Y-118345977D01*
X104202402Y-118460941D01*
X104393580Y-118540130D01*
X104596535Y-118580500D01*
X104596536Y-118580500D01*
X104803464Y-118580500D01*
X104803465Y-118580500D01*
X105006420Y-118540130D01*
X105197598Y-118460941D01*
X105369655Y-118345977D01*
X105515977Y-118199655D01*
X105630941Y-118027598D01*
X105710130Y-117836420D01*
X105750500Y-117633465D01*
X105750500Y-117426535D01*
X105710130Y-117223580D01*
X105630941Y-117032402D01*
X105515977Y-116860345D01*
X105369655Y-116714023D01*
X105358836Y-116706794D01*
X105197597Y-116599058D01*
X105006418Y-116519869D01*
X104803467Y-116479500D01*
X104803465Y-116479500D01*
X104596535Y-116479500D01*
X104596532Y-116479500D01*
X104393581Y-116519869D01*
X104202402Y-116599058D01*
X104030348Y-116714020D01*
X103884020Y-116860348D01*
X103769058Y-117032402D01*
X103689869Y-117223581D01*
X103649500Y-117426532D01*
X103210499Y-117426532D01*
X103170130Y-117223580D01*
X103090941Y-117032402D01*
X102975977Y-116860345D01*
X102829655Y-116714023D01*
X102818836Y-116706794D01*
X102657597Y-116599058D01*
X102466418Y-116519869D01*
X102263467Y-116479500D01*
X102263465Y-116479500D01*
X102056535Y-116479500D01*
X102056532Y-116479500D01*
X101853581Y-116519869D01*
X101662402Y-116599058D01*
X101490348Y-116714020D01*
X101344020Y-116860348D01*
X101229058Y-117032402D01*
X101149869Y-117223581D01*
X101109500Y-117426532D01*
X97770500Y-117426532D01*
X97770500Y-117387273D01*
X97743207Y-117285413D01*
X97737760Y-117275979D01*
X97690481Y-117194089D01*
X97690480Y-117194087D01*
X97615913Y-117119520D01*
X97524587Y-117066793D01*
X97422727Y-117039500D01*
X97317273Y-117039500D01*
X97215413Y-117066793D01*
X97215412Y-117066793D01*
X97215410Y-117066794D01*
X97215409Y-117066794D01*
X97124089Y-117119518D01*
X97049518Y-117194089D01*
X96996794Y-117285409D01*
X96996794Y-117285410D01*
X96996793Y-117285412D01*
X96996793Y-117285413D01*
X96969500Y-117387273D01*
X95849120Y-117387273D01*
X95910480Y-117325913D01*
X95963207Y-117234587D01*
X95990500Y-117132727D01*
X95990500Y-117027273D01*
X95963207Y-116925413D01*
X95910480Y-116834087D01*
X95835913Y-116759520D01*
X95744587Y-116706793D01*
X95642727Y-116679500D01*
X95537273Y-116679500D01*
X95435413Y-116706793D01*
X95435412Y-116706793D01*
X95435410Y-116706794D01*
X95435409Y-116706794D01*
X95344089Y-116759518D01*
X95269518Y-116834089D01*
X95216794Y-116925409D01*
X95216794Y-116925410D01*
X95216793Y-116925412D01*
X95216793Y-116925413D01*
X95189500Y-117027273D01*
X69134386Y-117027273D01*
X69180941Y-116957598D01*
X69260130Y-116766420D01*
X69300500Y-116563465D01*
X69300500Y-116356535D01*
X69260130Y-116153580D01*
X69180941Y-115962402D01*
X69077288Y-115807273D01*
X82889500Y-115807273D01*
X82889500Y-115912727D01*
X82915852Y-116011074D01*
X82916794Y-116014589D01*
X82916794Y-116014590D01*
X82952642Y-116076680D01*
X82969520Y-116105913D01*
X83044087Y-116180480D01*
X83135413Y-116233207D01*
X83237273Y-116260500D01*
X83237275Y-116260500D01*
X83342725Y-116260500D01*
X83342727Y-116260500D01*
X83444587Y-116233207D01*
X83535913Y-116180480D01*
X83610480Y-116105913D01*
X83663207Y-116014587D01*
X83690500Y-115912727D01*
X83690500Y-115807273D01*
X84389500Y-115807273D01*
X84389500Y-115912727D01*
X84415852Y-116011074D01*
X84416794Y-116014589D01*
X84416794Y-116014590D01*
X84452642Y-116076680D01*
X84469520Y-116105913D01*
X84544087Y-116180480D01*
X84635413Y-116233207D01*
X84737273Y-116260500D01*
X84737275Y-116260500D01*
X84842725Y-116260500D01*
X84842727Y-116260500D01*
X84944587Y-116233207D01*
X85035913Y-116180480D01*
X85110480Y-116105913D01*
X85163207Y-116014587D01*
X85190500Y-115912727D01*
X85190500Y-115807273D01*
X85163207Y-115705413D01*
X85110480Y-115614087D01*
X85035913Y-115539520D01*
X85017792Y-115529058D01*
X84944589Y-115486794D01*
X84944588Y-115486793D01*
X84944587Y-115486793D01*
X84842727Y-115459500D01*
X84737273Y-115459500D01*
X84635413Y-115486793D01*
X84635412Y-115486793D01*
X84635410Y-115486794D01*
X84635409Y-115486794D01*
X84544089Y-115539518D01*
X84469518Y-115614089D01*
X84416794Y-115705409D01*
X84416794Y-115705410D01*
X84416793Y-115705412D01*
X84416793Y-115705413D01*
X84389500Y-115807273D01*
X83690500Y-115807273D01*
X83663207Y-115705413D01*
X83610480Y-115614087D01*
X83535913Y-115539520D01*
X83517792Y-115529058D01*
X83444589Y-115486794D01*
X83444588Y-115486793D01*
X83444587Y-115486793D01*
X83342727Y-115459500D01*
X83237273Y-115459500D01*
X83135413Y-115486793D01*
X83135412Y-115486793D01*
X83135410Y-115486794D01*
X83135409Y-115486794D01*
X83044089Y-115539518D01*
X82969518Y-115614089D01*
X82916794Y-115705409D01*
X82916794Y-115705410D01*
X82916793Y-115705412D01*
X82916793Y-115705413D01*
X82889500Y-115807273D01*
X69077288Y-115807273D01*
X69065977Y-115790345D01*
X68919655Y-115644023D01*
X68919651Y-115644020D01*
X68747597Y-115529058D01*
X68556418Y-115449869D01*
X68353467Y-115409500D01*
X68353465Y-115409500D01*
X68146535Y-115409500D01*
X68146532Y-115409500D01*
X67943581Y-115449869D01*
X67752402Y-115529058D01*
X67580348Y-115644020D01*
X67434020Y-115790348D01*
X67319058Y-115962402D01*
X67239869Y-116153581D01*
X67199500Y-116356532D01*
X66640500Y-116356532D01*
X66640500Y-113050253D01*
X67199500Y-113050253D01*
X67199500Y-114789746D01*
X67199501Y-114789758D01*
X67211132Y-114848227D01*
X67211134Y-114848233D01*
X67255445Y-114914548D01*
X67255448Y-114914552D01*
X67321769Y-114958867D01*
X67366231Y-114967711D01*
X67380241Y-114970498D01*
X67380246Y-114970498D01*
X67380252Y-114970500D01*
X67380253Y-114970500D01*
X69119747Y-114970500D01*
X69119748Y-114970500D01*
X69178231Y-114958867D01*
X69244552Y-114914552D01*
X69288867Y-114848231D01*
X69297014Y-114807273D01*
X81389500Y-114807273D01*
X81389500Y-114912727D01*
X81401863Y-114958865D01*
X81416793Y-115014588D01*
X81443301Y-115060501D01*
X81456022Y-115120349D01*
X81443301Y-115159499D01*
X81416793Y-115205411D01*
X81406620Y-115243380D01*
X81389500Y-115307273D01*
X81389500Y-115412727D01*
X81416793Y-115514587D01*
X81416794Y-115514589D01*
X81416794Y-115514590D01*
X81467037Y-115601613D01*
X81469520Y-115605913D01*
X81544087Y-115680480D01*
X81635413Y-115733207D01*
X81737273Y-115760500D01*
X81737275Y-115760500D01*
X81842725Y-115760500D01*
X81842727Y-115760500D01*
X81944587Y-115733207D01*
X82035913Y-115680480D01*
X82110480Y-115605913D01*
X82163207Y-115514587D01*
X82190500Y-115412727D01*
X82190500Y-115359500D01*
X82209407Y-115301309D01*
X82258907Y-115265345D01*
X82289500Y-115260500D01*
X82342725Y-115260500D01*
X82342727Y-115260500D01*
X82444587Y-115233207D01*
X82535913Y-115180480D01*
X82610480Y-115105913D01*
X82663207Y-115014587D01*
X82690500Y-114912727D01*
X82690500Y-114807273D01*
X82663207Y-114705413D01*
X82657720Y-114695910D01*
X82610481Y-114614089D01*
X82610480Y-114614087D01*
X82535913Y-114539520D01*
X82492731Y-114514589D01*
X82444589Y-114486794D01*
X82444588Y-114486793D01*
X82444587Y-114486793D01*
X82342727Y-114459500D01*
X82237273Y-114459500D01*
X82186343Y-114473146D01*
X82135411Y-114486793D01*
X82089499Y-114513301D01*
X82029651Y-114526022D01*
X81990501Y-114513301D01*
X81944588Y-114486793D01*
X81906617Y-114476619D01*
X81842727Y-114459500D01*
X81737273Y-114459500D01*
X81635413Y-114486793D01*
X81635412Y-114486793D01*
X81635410Y-114486794D01*
X81635409Y-114486794D01*
X81544089Y-114539518D01*
X81469518Y-114614089D01*
X81416794Y-114705409D01*
X81416794Y-114705410D01*
X81416793Y-114705412D01*
X81416793Y-114705413D01*
X81389500Y-114807273D01*
X69297014Y-114807273D01*
X69299270Y-114795933D01*
X69300499Y-114789756D01*
X69300500Y-114789749D01*
X69300500Y-113050253D01*
X69300498Y-113050241D01*
X69293406Y-113014588D01*
X69288867Y-112991769D01*
X69244552Y-112925448D01*
X69225511Y-112912725D01*
X69178233Y-112881134D01*
X69178231Y-112881133D01*
X69178228Y-112881132D01*
X69178227Y-112881132D01*
X69119758Y-112869501D01*
X69119748Y-112869500D01*
X67380252Y-112869500D01*
X67380251Y-112869500D01*
X67380241Y-112869501D01*
X67321772Y-112881132D01*
X67321766Y-112881134D01*
X67255451Y-112925445D01*
X67255445Y-112925451D01*
X67211134Y-112991766D01*
X67211132Y-112991772D01*
X67199501Y-113050241D01*
X67199500Y-113050253D01*
X66640500Y-113050253D01*
X66640500Y-112307273D01*
X81389500Y-112307273D01*
X81389500Y-112412727D01*
X81402033Y-112459500D01*
X81416793Y-112514588D01*
X81443301Y-112560501D01*
X81456022Y-112620349D01*
X81443301Y-112659499D01*
X81416793Y-112705411D01*
X81406620Y-112743380D01*
X81389500Y-112807273D01*
X81389500Y-112912727D01*
X81410679Y-112991769D01*
X81416794Y-113014589D01*
X81416794Y-113014590D01*
X81443300Y-113060499D01*
X81469520Y-113105913D01*
X81544087Y-113180480D01*
X81635413Y-113233207D01*
X81737273Y-113260500D01*
X81737275Y-113260500D01*
X81842725Y-113260500D01*
X81842727Y-113260500D01*
X81944587Y-113233207D01*
X82035913Y-113180480D01*
X82110480Y-113105913D01*
X82163207Y-113014587D01*
X82190500Y-112912727D01*
X82190500Y-112807273D01*
X82163207Y-112705413D01*
X82136698Y-112659498D01*
X82123977Y-112599652D01*
X82136698Y-112560501D01*
X82163207Y-112514587D01*
X82190500Y-112412727D01*
X82190500Y-112307273D01*
X82163207Y-112205413D01*
X82110480Y-112114087D01*
X82035913Y-112039520D01*
X81992731Y-112014589D01*
X81944589Y-111986794D01*
X81944588Y-111986793D01*
X81944587Y-111986793D01*
X81842727Y-111959500D01*
X81737273Y-111959500D01*
X81635413Y-111986793D01*
X81635412Y-111986793D01*
X81635410Y-111986794D01*
X81635409Y-111986794D01*
X81544089Y-112039518D01*
X81469518Y-112114089D01*
X81416794Y-112205409D01*
X81416794Y-112205410D01*
X81416794Y-112205411D01*
X81416793Y-112205413D01*
X81389500Y-112307273D01*
X66640500Y-112307273D01*
X66640500Y-111807273D01*
X82389500Y-111807273D01*
X82389500Y-111912727D01*
X82416793Y-112014587D01*
X82416794Y-112014589D01*
X82416794Y-112014590D01*
X82443301Y-112060501D01*
X82469520Y-112105913D01*
X82544087Y-112180480D01*
X82635413Y-112233207D01*
X82737273Y-112260500D01*
X82737275Y-112260500D01*
X82842725Y-112260500D01*
X82842727Y-112260500D01*
X82944587Y-112233207D01*
X83035913Y-112180480D01*
X83110480Y-112105913D01*
X83163207Y-112014587D01*
X83190500Y-111912727D01*
X83190500Y-111807273D01*
X83163207Y-111705413D01*
X83156604Y-111693977D01*
X83110481Y-111614089D01*
X83110480Y-111614087D01*
X83035913Y-111539520D01*
X83000473Y-111519059D01*
X82944589Y-111486794D01*
X82944588Y-111486793D01*
X82944587Y-111486793D01*
X82842727Y-111459500D01*
X82737273Y-111459500D01*
X82635413Y-111486793D01*
X82635412Y-111486793D01*
X82635410Y-111486794D01*
X82635409Y-111486794D01*
X82544089Y-111539518D01*
X82469518Y-111614089D01*
X82416794Y-111705409D01*
X82416794Y-111705410D01*
X82416793Y-111705412D01*
X82416793Y-111705413D01*
X82389500Y-111807273D01*
X66640500Y-111807273D01*
X66640500Y-110246532D01*
X67249500Y-110246532D01*
X67249500Y-110453467D01*
X67289869Y-110656418D01*
X67369058Y-110847597D01*
X67484020Y-111019651D01*
X67484023Y-111019655D01*
X67630345Y-111165977D01*
X67802402Y-111280941D01*
X67993580Y-111360130D01*
X68196535Y-111400500D01*
X68196536Y-111400500D01*
X68403464Y-111400500D01*
X68403465Y-111400500D01*
X68606420Y-111360130D01*
X68734027Y-111307273D01*
X81389500Y-111307273D01*
X81389500Y-111412727D01*
X81396773Y-111439869D01*
X81416794Y-111514589D01*
X81416794Y-111514590D01*
X81443300Y-111560499D01*
X81469520Y-111605913D01*
X81544087Y-111680480D01*
X81635413Y-111733207D01*
X81737273Y-111760500D01*
X81737275Y-111760500D01*
X81842725Y-111760500D01*
X81842727Y-111760500D01*
X81944587Y-111733207D01*
X82035913Y-111680480D01*
X82110480Y-111605913D01*
X82163207Y-111514587D01*
X82190500Y-111412727D01*
X82190500Y-111307273D01*
X82163207Y-111205413D01*
X82156604Y-111193977D01*
X82110481Y-111114089D01*
X82110480Y-111114087D01*
X82035913Y-111039520D01*
X81992731Y-111014589D01*
X81944589Y-110986794D01*
X81944588Y-110986793D01*
X81944587Y-110986793D01*
X81842727Y-110959500D01*
X81737273Y-110959500D01*
X81635413Y-110986793D01*
X81635412Y-110986793D01*
X81635410Y-110986794D01*
X81635409Y-110986794D01*
X81544089Y-111039518D01*
X81469518Y-111114089D01*
X81416794Y-111205409D01*
X81416794Y-111205410D01*
X81416793Y-111205412D01*
X81416793Y-111205413D01*
X81389500Y-111307273D01*
X68734027Y-111307273D01*
X68797598Y-111280941D01*
X68969655Y-111165977D01*
X69115977Y-111019655D01*
X69230941Y-110847598D01*
X69310130Y-110656420D01*
X69350500Y-110453465D01*
X69350500Y-110246535D01*
X69310130Y-110043580D01*
X69230941Y-109852402D01*
X69200787Y-109807273D01*
X82389500Y-109807273D01*
X82389500Y-109912727D01*
X82416493Y-110013467D01*
X82416794Y-110014589D01*
X82416794Y-110014590D01*
X82469518Y-110105910D01*
X82469520Y-110105913D01*
X82544087Y-110180480D01*
X82635413Y-110233207D01*
X82737273Y-110260500D01*
X82737275Y-110260500D01*
X82790500Y-110260500D01*
X82848691Y-110279407D01*
X82884655Y-110328907D01*
X82889500Y-110359500D01*
X82889500Y-110412727D01*
X82902033Y-110459500D01*
X82916793Y-110514588D01*
X82943301Y-110560501D01*
X82956022Y-110620349D01*
X82943301Y-110659499D01*
X82916793Y-110705411D01*
X82915435Y-110710480D01*
X82889500Y-110807273D01*
X82889500Y-110912727D01*
X82916793Y-111014587D01*
X82916794Y-111014589D01*
X82916794Y-111014590D01*
X82943300Y-111060499D01*
X82969520Y-111105913D01*
X83044087Y-111180480D01*
X83135413Y-111233207D01*
X83237273Y-111260500D01*
X83237275Y-111260500D01*
X83342725Y-111260500D01*
X83342727Y-111260500D01*
X83444587Y-111233207D01*
X83490501Y-111206698D01*
X83550348Y-111193977D01*
X83589498Y-111206698D01*
X83635413Y-111233207D01*
X83737273Y-111260500D01*
X83737275Y-111260500D01*
X83790500Y-111260500D01*
X83848691Y-111279407D01*
X83884655Y-111328907D01*
X83889500Y-111359500D01*
X83889500Y-111412727D01*
X83896773Y-111439869D01*
X83916793Y-111514588D01*
X83943301Y-111560501D01*
X83956022Y-111620349D01*
X83943301Y-111659499D01*
X83916793Y-111705411D01*
X83902033Y-111760500D01*
X83889500Y-111807273D01*
X83889500Y-111912727D01*
X83916793Y-112014587D01*
X83916794Y-112014589D01*
X83916794Y-112014590D01*
X83943301Y-112060501D01*
X83969520Y-112105913D01*
X84044087Y-112180480D01*
X84135413Y-112233207D01*
X84237273Y-112260500D01*
X84237275Y-112260500D01*
X84290500Y-112260500D01*
X84305412Y-112265345D01*
X84321093Y-112265345D01*
X84333778Y-112274561D01*
X84348691Y-112279407D01*
X84357907Y-112292092D01*
X84370593Y-112301309D01*
X84375438Y-112316221D01*
X84384655Y-112328907D01*
X84389500Y-112359500D01*
X84389500Y-112360500D01*
X84370593Y-112418691D01*
X84321093Y-112454655D01*
X84290500Y-112459500D01*
X84237273Y-112459500D01*
X84135413Y-112486793D01*
X84135412Y-112486793D01*
X84135410Y-112486794D01*
X84135409Y-112486794D01*
X84044089Y-112539518D01*
X83969518Y-112614089D01*
X83916794Y-112705409D01*
X83916794Y-112705410D01*
X83916793Y-112705412D01*
X83916793Y-112705413D01*
X83900735Y-112765345D01*
X83889500Y-112807274D01*
X83889500Y-112860500D01*
X83870593Y-112918691D01*
X83821093Y-112954655D01*
X83790500Y-112959500D01*
X83737273Y-112959500D01*
X83635413Y-112986793D01*
X83635412Y-112986793D01*
X83635410Y-112986794D01*
X83635409Y-112986794D01*
X83544089Y-113039518D01*
X83469518Y-113114089D01*
X83416794Y-113205409D01*
X83416794Y-113205410D01*
X83416793Y-113205412D01*
X83416793Y-113205413D01*
X83389500Y-113307273D01*
X83389500Y-113412727D01*
X83403978Y-113466760D01*
X83416793Y-113514588D01*
X83443301Y-113560501D01*
X83456022Y-113620349D01*
X83443301Y-113659499D01*
X83416793Y-113705411D01*
X83402296Y-113759518D01*
X83389500Y-113807273D01*
X83389500Y-113912727D01*
X83396674Y-113939500D01*
X83416793Y-114014588D01*
X83443301Y-114060501D01*
X83456022Y-114120349D01*
X83443301Y-114159499D01*
X83416793Y-114205411D01*
X83408976Y-114234587D01*
X83389500Y-114307273D01*
X83389500Y-114412727D01*
X83416793Y-114514587D01*
X83416794Y-114514589D01*
X83416794Y-114514590D01*
X83468756Y-114604590D01*
X83469520Y-114605913D01*
X83544087Y-114680480D01*
X83635413Y-114733207D01*
X83737273Y-114760500D01*
X83737275Y-114760500D01*
X83842725Y-114760500D01*
X83842727Y-114760500D01*
X83944587Y-114733207D01*
X83990501Y-114706698D01*
X84050348Y-114693977D01*
X84089498Y-114706698D01*
X84135413Y-114733207D01*
X84237273Y-114760500D01*
X84237275Y-114760500D01*
X84342725Y-114760500D01*
X84342727Y-114760500D01*
X84444587Y-114733207D01*
X84535913Y-114680480D01*
X84610480Y-114605913D01*
X84663207Y-114514587D01*
X84690500Y-114412727D01*
X84690500Y-114307273D01*
X84663207Y-114205413D01*
X84662441Y-114204087D01*
X84611534Y-114115913D01*
X84610480Y-114114087D01*
X84535913Y-114039520D01*
X84510053Y-114024590D01*
X84444589Y-113986794D01*
X84444588Y-113986793D01*
X84444587Y-113986793D01*
X84342727Y-113959500D01*
X84289500Y-113959500D01*
X84231309Y-113940593D01*
X84195345Y-113891093D01*
X84190500Y-113860500D01*
X84190500Y-113807274D01*
X84177967Y-113760500D01*
X84163207Y-113705413D01*
X84136698Y-113659498D01*
X84123977Y-113599652D01*
X84136698Y-113560501D01*
X84163207Y-113514587D01*
X84190500Y-113412727D01*
X84190500Y-113359500D01*
X84209407Y-113301309D01*
X84258907Y-113265345D01*
X84289500Y-113260500D01*
X84342725Y-113260500D01*
X84342727Y-113260500D01*
X84444587Y-113233207D01*
X84535913Y-113180480D01*
X84610480Y-113105913D01*
X84663207Y-113014587D01*
X84690500Y-112912727D01*
X84690500Y-112859500D01*
X84695345Y-112844588D01*
X84695345Y-112828907D01*
X84704561Y-112816221D01*
X84709407Y-112801309D01*
X84722092Y-112792092D01*
X84731309Y-112779407D01*
X84746221Y-112774561D01*
X84758907Y-112765345D01*
X84789500Y-112760500D01*
X84790500Y-112760500D01*
X84848691Y-112779407D01*
X84884655Y-112828907D01*
X84889500Y-112859500D01*
X84889500Y-112912727D01*
X84902033Y-112959500D01*
X84916793Y-113014588D01*
X84943301Y-113060501D01*
X84956022Y-113120349D01*
X84943301Y-113159499D01*
X84916793Y-113205411D01*
X84906620Y-113243380D01*
X84889500Y-113307273D01*
X84889500Y-113412727D01*
X84903978Y-113466760D01*
X84916793Y-113514588D01*
X84943301Y-113560501D01*
X84956022Y-113620349D01*
X84943301Y-113659499D01*
X84916793Y-113705411D01*
X84902296Y-113759518D01*
X84889500Y-113807273D01*
X84889500Y-113912727D01*
X84896674Y-113939500D01*
X84916793Y-114014588D01*
X84943301Y-114060501D01*
X84956022Y-114120349D01*
X84943301Y-114159499D01*
X84916793Y-114205411D01*
X84908976Y-114234587D01*
X84889500Y-114307273D01*
X84889500Y-114412727D01*
X84916793Y-114514587D01*
X84916794Y-114514589D01*
X84916794Y-114514590D01*
X84968756Y-114604590D01*
X84969520Y-114605913D01*
X85044087Y-114680480D01*
X85135413Y-114733207D01*
X85237273Y-114760500D01*
X85237275Y-114760500D01*
X85290500Y-114760500D01*
X85348691Y-114779407D01*
X85384655Y-114828907D01*
X85389500Y-114859500D01*
X85389500Y-114912727D01*
X85406620Y-114976619D01*
X85416794Y-115014589D01*
X85416794Y-115014590D01*
X85443301Y-115060501D01*
X85469520Y-115105913D01*
X85544087Y-115180480D01*
X85635413Y-115233207D01*
X85737273Y-115260500D01*
X85737275Y-115260500D01*
X85790500Y-115260500D01*
X85848691Y-115279407D01*
X85884655Y-115328907D01*
X85889500Y-115359500D01*
X85889500Y-115412727D01*
X85916793Y-115514587D01*
X85916794Y-115514589D01*
X85916794Y-115514590D01*
X85967037Y-115601613D01*
X85969520Y-115605913D01*
X86044087Y-115680480D01*
X86135413Y-115733207D01*
X86237273Y-115760500D01*
X86237275Y-115760500D01*
X86290500Y-115760500D01*
X86348691Y-115779407D01*
X86384655Y-115828907D01*
X86389500Y-115859500D01*
X86389500Y-115912727D01*
X86415852Y-116011074D01*
X86416794Y-116014589D01*
X86416794Y-116014590D01*
X86452642Y-116076680D01*
X86469520Y-116105913D01*
X86544087Y-116180480D01*
X86635413Y-116233207D01*
X86737273Y-116260500D01*
X86737275Y-116260500D01*
X86842725Y-116260500D01*
X86842727Y-116260500D01*
X86944587Y-116233207D01*
X87035913Y-116180480D01*
X87110480Y-116105913D01*
X87163207Y-116014587D01*
X87164149Y-116011073D01*
X96379500Y-116011073D01*
X96379500Y-116116527D01*
X96406793Y-116218387D01*
X96406794Y-116218388D01*
X96406794Y-116218390D01*
X96459518Y-116309710D01*
X96459520Y-116309713D01*
X96534087Y-116384280D01*
X96625413Y-116437007D01*
X96727273Y-116464300D01*
X96727275Y-116464300D01*
X96832725Y-116464300D01*
X96832727Y-116464300D01*
X96934587Y-116437007D01*
X97025913Y-116384280D01*
X97100480Y-116309713D01*
X97153207Y-116218387D01*
X97153209Y-116218377D01*
X97153443Y-116217816D01*
X97153732Y-116217476D01*
X97156452Y-116212767D01*
X97157324Y-116213270D01*
X97193179Y-116171290D01*
X97244908Y-116156700D01*
X97292725Y-116156700D01*
X97292727Y-116156700D01*
X97394587Y-116129407D01*
X97485913Y-116076680D01*
X97560480Y-116002113D01*
X97613207Y-115910787D01*
X97640500Y-115808927D01*
X97640500Y-115703473D01*
X97613207Y-115601613D01*
X97613202Y-115601605D01*
X97562964Y-115514589D01*
X97560480Y-115510287D01*
X97485913Y-115435720D01*
X97446084Y-115412725D01*
X97394589Y-115382994D01*
X97394588Y-115382993D01*
X97394587Y-115382993D01*
X97292727Y-115355700D01*
X97187273Y-115355700D01*
X97085413Y-115382993D01*
X97085412Y-115382993D01*
X97085410Y-115382994D01*
X97085409Y-115382994D01*
X96994089Y-115435718D01*
X96919518Y-115510289D01*
X96866796Y-115601605D01*
X96866559Y-115602179D01*
X96866269Y-115602517D01*
X96863548Y-115607232D01*
X96862674Y-115606727D01*
X96826825Y-115648708D01*
X96775092Y-115663300D01*
X96727273Y-115663300D01*
X96625413Y-115690593D01*
X96625412Y-115690593D01*
X96625410Y-115690594D01*
X96625409Y-115690594D01*
X96534089Y-115743318D01*
X96459518Y-115817889D01*
X96406794Y-115909209D01*
X96406794Y-115909210D01*
X96406793Y-115909212D01*
X96406793Y-115909213D01*
X96379500Y-116011073D01*
X87164149Y-116011073D01*
X87190500Y-115912727D01*
X87190500Y-115807273D01*
X87163207Y-115705413D01*
X87110480Y-115614087D01*
X87035913Y-115539520D01*
X87017792Y-115529058D01*
X86944589Y-115486794D01*
X86944588Y-115486793D01*
X86944587Y-115486793D01*
X86842727Y-115459500D01*
X86789500Y-115459500D01*
X86731309Y-115440593D01*
X86695345Y-115391093D01*
X86690500Y-115360500D01*
X86690500Y-115307274D01*
X86683033Y-115279407D01*
X86663207Y-115205413D01*
X86651006Y-115184281D01*
X86610481Y-115114089D01*
X86610480Y-115114087D01*
X86535913Y-115039520D01*
X86492731Y-115014589D01*
X86444589Y-114986794D01*
X86444588Y-114986793D01*
X86444587Y-114986793D01*
X86342727Y-114959500D01*
X86289500Y-114959500D01*
X86274588Y-114954655D01*
X86258907Y-114954655D01*
X86246221Y-114945438D01*
X86231309Y-114940593D01*
X86222092Y-114927907D01*
X86209407Y-114918691D01*
X86204561Y-114903778D01*
X86195345Y-114891093D01*
X86190500Y-114860500D01*
X86190500Y-114807274D01*
X86190500Y-114807273D01*
X87389500Y-114807273D01*
X87389500Y-114912727D01*
X87406620Y-114976619D01*
X87416794Y-115014589D01*
X87416794Y-115014590D01*
X87443301Y-115060501D01*
X87469520Y-115105913D01*
X87544087Y-115180480D01*
X87635413Y-115233207D01*
X87737273Y-115260500D01*
X87737275Y-115260500D01*
X87842725Y-115260500D01*
X87842727Y-115260500D01*
X87944587Y-115233207D01*
X88035913Y-115180480D01*
X88110480Y-115105913D01*
X88163207Y-115014587D01*
X88190500Y-114912727D01*
X88190500Y-114811073D01*
X92459500Y-114811073D01*
X92459500Y-114916527D01*
X92485776Y-115014590D01*
X92486794Y-115018389D01*
X92486794Y-115018390D01*
X92511107Y-115060501D01*
X92539520Y-115109713D01*
X92614087Y-115184280D01*
X92705413Y-115237007D01*
X92807273Y-115264300D01*
X92807275Y-115264300D01*
X92912725Y-115264300D01*
X92912727Y-115264300D01*
X93014587Y-115237007D01*
X93105913Y-115184280D01*
X93180480Y-115109713D01*
X93233207Y-115018387D01*
X93260500Y-114916527D01*
X93260500Y-114886532D01*
X101109500Y-114886532D01*
X101109500Y-115093467D01*
X101149869Y-115296418D01*
X101229058Y-115487597D01*
X101344020Y-115659651D01*
X101344023Y-115659655D01*
X101490345Y-115805977D01*
X101662402Y-115920941D01*
X101853580Y-116000130D01*
X102056535Y-116040500D01*
X102056536Y-116040500D01*
X102263464Y-116040500D01*
X102263465Y-116040500D01*
X102466420Y-116000130D01*
X102657598Y-115920941D01*
X102829655Y-115805977D01*
X102975977Y-115659655D01*
X103090941Y-115487598D01*
X103170130Y-115296420D01*
X103210500Y-115093465D01*
X103210500Y-114886535D01*
X103210499Y-114886532D01*
X103649500Y-114886532D01*
X103649500Y-115093467D01*
X103689869Y-115296418D01*
X103769058Y-115487597D01*
X103884020Y-115659651D01*
X103884023Y-115659655D01*
X104030345Y-115805977D01*
X104202402Y-115920941D01*
X104393580Y-116000130D01*
X104596535Y-116040500D01*
X104596536Y-116040500D01*
X104803464Y-116040500D01*
X104803465Y-116040500D01*
X105006420Y-116000130D01*
X105197598Y-115920941D01*
X105369655Y-115805977D01*
X105515977Y-115659655D01*
X105630941Y-115487598D01*
X105710130Y-115296420D01*
X105750500Y-115093465D01*
X105750500Y-114886535D01*
X105710130Y-114683580D01*
X105630941Y-114492402D01*
X105515977Y-114320345D01*
X105369655Y-114174023D01*
X105369651Y-114174020D01*
X105197597Y-114059058D01*
X105006418Y-113979869D01*
X104803467Y-113939500D01*
X104803465Y-113939500D01*
X104596535Y-113939500D01*
X104596532Y-113939500D01*
X104393581Y-113979869D01*
X104202402Y-114059058D01*
X104030348Y-114174020D01*
X103884020Y-114320348D01*
X103769058Y-114492402D01*
X103689869Y-114683581D01*
X103649500Y-114886532D01*
X103210499Y-114886532D01*
X103170130Y-114683580D01*
X103090941Y-114492402D01*
X102975977Y-114320345D01*
X102829655Y-114174023D01*
X102829651Y-114174020D01*
X102657597Y-114059058D01*
X102466418Y-113979869D01*
X102263467Y-113939500D01*
X102263465Y-113939500D01*
X102056535Y-113939500D01*
X102056532Y-113939500D01*
X101853581Y-113979869D01*
X101662402Y-114059058D01*
X101490348Y-114174020D01*
X101344020Y-114320348D01*
X101229058Y-114492402D01*
X101149869Y-114683581D01*
X101109500Y-114886532D01*
X93260500Y-114886532D01*
X93260500Y-114811073D01*
X93233207Y-114709213D01*
X93231011Y-114705410D01*
X93180481Y-114617889D01*
X93180480Y-114617887D01*
X93105913Y-114543320D01*
X93099331Y-114539520D01*
X93014589Y-114490594D01*
X93014588Y-114490593D01*
X93014587Y-114490593D01*
X92912727Y-114463300D01*
X92807273Y-114463300D01*
X92705413Y-114490593D01*
X92705412Y-114490593D01*
X92705410Y-114490594D01*
X92705409Y-114490594D01*
X92614089Y-114543318D01*
X92539518Y-114617889D01*
X92486794Y-114709209D01*
X92486794Y-114709210D01*
X92486793Y-114709212D01*
X92486793Y-114709213D01*
X92459500Y-114811073D01*
X88190500Y-114811073D01*
X88190500Y-114807273D01*
X88163207Y-114705413D01*
X88157720Y-114695910D01*
X88110481Y-114614089D01*
X88110480Y-114614087D01*
X88035913Y-114539520D01*
X87992731Y-114514589D01*
X87944589Y-114486794D01*
X87944588Y-114486793D01*
X87944587Y-114486793D01*
X87842727Y-114459500D01*
X87737273Y-114459500D01*
X87635413Y-114486793D01*
X87635412Y-114486793D01*
X87635410Y-114486794D01*
X87635409Y-114486794D01*
X87544089Y-114539518D01*
X87469518Y-114614089D01*
X87416794Y-114705409D01*
X87416794Y-114705410D01*
X87416793Y-114705412D01*
X87416793Y-114705413D01*
X87389500Y-114807273D01*
X86190500Y-114807273D01*
X86163207Y-114705413D01*
X86157720Y-114695910D01*
X86110481Y-114614089D01*
X86110480Y-114614087D01*
X86035913Y-114539520D01*
X85992731Y-114514589D01*
X85944589Y-114486794D01*
X85944588Y-114486793D01*
X85944587Y-114486793D01*
X85842727Y-114459500D01*
X85789500Y-114459500D01*
X85774588Y-114454655D01*
X85758907Y-114454655D01*
X85746221Y-114445438D01*
X85731309Y-114440593D01*
X85722092Y-114427907D01*
X85709407Y-114418691D01*
X85704561Y-114403778D01*
X85695345Y-114391093D01*
X85690500Y-114360500D01*
X85690500Y-114359500D01*
X85709407Y-114301309D01*
X85758907Y-114265345D01*
X85789500Y-114260500D01*
X85842725Y-114260500D01*
X85842727Y-114260500D01*
X85944587Y-114233207D01*
X85990501Y-114206698D01*
X86050348Y-114193977D01*
X86089498Y-114206698D01*
X86135413Y-114233207D01*
X86237273Y-114260500D01*
X86237275Y-114260500D01*
X86342725Y-114260500D01*
X86342727Y-114260500D01*
X86444587Y-114233207D01*
X86490501Y-114206698D01*
X86550348Y-114193977D01*
X86589498Y-114206698D01*
X86635413Y-114233207D01*
X86737273Y-114260500D01*
X86737275Y-114260500D01*
X86842725Y-114260500D01*
X86842727Y-114260500D01*
X86944587Y-114233207D01*
X87035913Y-114180480D01*
X87110480Y-114105913D01*
X87163207Y-114014587D01*
X87190500Y-113912727D01*
X87190500Y-113817273D01*
X92803300Y-113817273D01*
X92803300Y-113922727D01*
X92830593Y-114024587D01*
X92830594Y-114024589D01*
X92830594Y-114024590D01*
X92882267Y-114114089D01*
X92883320Y-114115913D01*
X92957887Y-114190480D01*
X93049213Y-114243207D01*
X93151073Y-114270500D01*
X93151075Y-114270500D01*
X93256525Y-114270500D01*
X93256527Y-114270500D01*
X93358387Y-114243207D01*
X93449713Y-114190480D01*
X93524280Y-114115913D01*
X93577007Y-114024587D01*
X93579687Y-114014587D01*
X93585986Y-113991076D01*
X93619308Y-113939761D01*
X93655993Y-113921070D01*
X93698321Y-113909729D01*
X93698321Y-113909728D01*
X93698328Y-113909727D01*
X93789654Y-113857000D01*
X93864221Y-113782433D01*
X93901841Y-113717273D01*
X96363297Y-113717273D01*
X96363297Y-113822727D01*
X96390092Y-113922727D01*
X96390591Y-113924589D01*
X96390591Y-113924590D01*
X96442553Y-114014590D01*
X96443317Y-114015913D01*
X96517884Y-114090480D01*
X96609210Y-114143207D01*
X96711070Y-114170500D01*
X96711072Y-114170500D01*
X96816522Y-114170500D01*
X96816524Y-114170500D01*
X96918384Y-114143207D01*
X96952398Y-114123568D01*
X97012243Y-114110846D01*
X97032955Y-114115302D01*
X97042599Y-114118488D01*
X97085413Y-114143207D01*
X97187273Y-114170500D01*
X97200027Y-114170500D01*
X97215155Y-114175498D01*
X97227601Y-114184634D01*
X97242289Y-114189407D01*
X97253533Y-114203671D01*
X97264477Y-114211705D01*
X97267618Y-114221539D01*
X97273497Y-114228996D01*
X97273548Y-114228967D01*
X97273750Y-114229317D01*
X97275563Y-114231617D01*
X97276794Y-114234589D01*
X97311908Y-114295409D01*
X97329520Y-114325913D01*
X97404087Y-114400480D01*
X97495413Y-114453207D01*
X97527272Y-114461743D01*
X97578585Y-114495065D01*
X97597275Y-114531744D01*
X97600377Y-114543320D01*
X97616794Y-114604589D01*
X97616794Y-114604590D01*
X97662400Y-114683581D01*
X97669520Y-114695913D01*
X97744087Y-114770480D01*
X97835413Y-114823207D01*
X97937273Y-114850500D01*
X97937275Y-114850500D01*
X98042725Y-114850500D01*
X98042727Y-114850500D01*
X98144587Y-114823207D01*
X98235913Y-114770480D01*
X98310480Y-114695913D01*
X98363207Y-114604587D01*
X98390500Y-114502727D01*
X98390500Y-114397273D01*
X98363207Y-114295413D01*
X98348823Y-114270500D01*
X98326374Y-114231617D01*
X98310480Y-114204087D01*
X98235913Y-114129520D01*
X98225606Y-114123569D01*
X98144590Y-114076794D01*
X98144588Y-114076793D01*
X98112725Y-114068255D01*
X98061412Y-114034931D01*
X98042724Y-113998253D01*
X98023207Y-113925413D01*
X98022731Y-113924589D01*
X97970481Y-113834089D01*
X97970480Y-113834087D01*
X97895913Y-113759520D01*
X97850337Y-113733207D01*
X97804589Y-113706794D01*
X97804588Y-113706793D01*
X97804587Y-113706793D01*
X97723847Y-113685159D01*
X97702724Y-113679499D01*
X97696293Y-113678653D01*
X97696580Y-113676471D01*
X97647711Y-113660593D01*
X97616502Y-113621003D01*
X97616452Y-113621033D01*
X97616249Y-113620682D01*
X97614437Y-113618383D01*
X97613208Y-113615418D01*
X97613207Y-113615413D01*
X97560480Y-113524087D01*
X97485913Y-113449520D01*
X97478101Y-113445010D01*
X97394589Y-113396794D01*
X97394588Y-113396793D01*
X97394587Y-113396793D01*
X97292727Y-113369500D01*
X97187273Y-113369500D01*
X97119366Y-113387695D01*
X97085412Y-113396793D01*
X97051396Y-113416432D01*
X96991547Y-113429151D01*
X96952398Y-113416431D01*
X96918385Y-113396793D01*
X96884430Y-113387695D01*
X96816524Y-113369500D01*
X96711070Y-113369500D01*
X96609210Y-113396793D01*
X96609209Y-113396793D01*
X96609207Y-113396794D01*
X96609206Y-113396794D01*
X96517886Y-113449518D01*
X96443315Y-113524089D01*
X96390591Y-113615409D01*
X96390591Y-113615410D01*
X96390590Y-113615412D01*
X96390590Y-113615413D01*
X96363297Y-113717273D01*
X93901841Y-113717273D01*
X93916948Y-113691107D01*
X93919796Y-113680480D01*
X93937230Y-113615413D01*
X93944241Y-113589247D01*
X93944241Y-113483793D01*
X93916948Y-113381933D01*
X93916375Y-113380941D01*
X93864222Y-113290609D01*
X93864221Y-113290607D01*
X93789654Y-113216040D01*
X93771247Y-113205413D01*
X93698330Y-113163314D01*
X93698329Y-113163313D01*
X93698328Y-113163313D01*
X93596468Y-113136020D01*
X93491014Y-113136020D01*
X93389154Y-113163313D01*
X93389153Y-113163313D01*
X93389151Y-113163314D01*
X93389150Y-113163314D01*
X93297830Y-113216038D01*
X93223259Y-113290609D01*
X93170535Y-113381929D01*
X93170533Y-113381933D01*
X93161553Y-113415447D01*
X93128227Y-113466760D01*
X93091553Y-113485447D01*
X93049210Y-113496793D01*
X93049209Y-113496794D01*
X92957889Y-113549518D01*
X92883318Y-113624089D01*
X92830594Y-113715409D01*
X92830594Y-113715410D01*
X92830593Y-113715412D01*
X92830593Y-113715413D01*
X92803300Y-113817273D01*
X87190500Y-113817273D01*
X87190500Y-113807273D01*
X87163207Y-113705413D01*
X87154947Y-113691107D01*
X87114473Y-113621003D01*
X87110480Y-113614087D01*
X87035913Y-113539520D01*
X87009182Y-113524087D01*
X86944589Y-113486794D01*
X86944588Y-113486793D01*
X86944587Y-113486793D01*
X86842727Y-113459500D01*
X86737273Y-113459500D01*
X86695642Y-113470655D01*
X86635411Y-113486793D01*
X86589499Y-113513301D01*
X86529651Y-113526022D01*
X86490501Y-113513301D01*
X86444588Y-113486793D01*
X86384358Y-113470655D01*
X86342727Y-113459500D01*
X86237273Y-113459500D01*
X86195642Y-113470655D01*
X86135411Y-113486793D01*
X86089499Y-113513301D01*
X86029651Y-113526022D01*
X85990501Y-113513301D01*
X85944588Y-113486793D01*
X85884358Y-113470655D01*
X85842727Y-113459500D01*
X85789500Y-113459500D01*
X85731309Y-113440593D01*
X85695345Y-113391093D01*
X85690500Y-113360500D01*
X85690500Y-113307274D01*
X85679435Y-113265979D01*
X85663207Y-113205413D01*
X85636698Y-113159498D01*
X85623977Y-113099652D01*
X85636698Y-113060501D01*
X85663207Y-113014587D01*
X85690500Y-112912727D01*
X85690500Y-112859500D01*
X85707469Y-112807273D01*
X87389500Y-112807273D01*
X87389500Y-112912727D01*
X87402033Y-112959500D01*
X87416793Y-113014588D01*
X87443301Y-113060501D01*
X87456022Y-113120349D01*
X87443301Y-113159499D01*
X87416793Y-113205411D01*
X87406620Y-113243380D01*
X87389500Y-113307273D01*
X87389500Y-113412727D01*
X87416793Y-113514587D01*
X87416794Y-113514589D01*
X87416794Y-113514590D01*
X87459898Y-113589247D01*
X87469520Y-113605913D01*
X87544087Y-113680480D01*
X87635413Y-113733207D01*
X87737273Y-113760500D01*
X87737275Y-113760500D01*
X87842725Y-113760500D01*
X87842727Y-113760500D01*
X87944587Y-113733207D01*
X88035913Y-113680480D01*
X88110480Y-113605913D01*
X88163207Y-113514587D01*
X88190500Y-113412727D01*
X88190500Y-113307273D01*
X88163207Y-113205413D01*
X88136698Y-113159498D01*
X88123977Y-113099652D01*
X88136698Y-113060501D01*
X88163207Y-113014587D01*
X88190500Y-112912727D01*
X88190500Y-112807273D01*
X88163207Y-112705413D01*
X88156604Y-112693977D01*
X88110481Y-112614089D01*
X88110480Y-112614087D01*
X88035913Y-112539520D01*
X87992731Y-112514589D01*
X87944589Y-112486794D01*
X87944588Y-112486793D01*
X87944587Y-112486793D01*
X87842727Y-112459500D01*
X87737273Y-112459500D01*
X87635413Y-112486793D01*
X87635412Y-112486793D01*
X87635410Y-112486794D01*
X87635409Y-112486794D01*
X87544089Y-112539518D01*
X87469518Y-112614089D01*
X87416794Y-112705409D01*
X87416794Y-112705410D01*
X87416793Y-112705412D01*
X87416793Y-112705413D01*
X87389500Y-112807273D01*
X85707469Y-112807273D01*
X85709407Y-112801309D01*
X85758907Y-112765345D01*
X85789500Y-112760500D01*
X85842725Y-112760500D01*
X85842727Y-112760500D01*
X85944587Y-112733207D01*
X85990501Y-112706698D01*
X86050348Y-112693977D01*
X86089498Y-112706698D01*
X86135413Y-112733207D01*
X86237273Y-112760500D01*
X86237275Y-112760500D01*
X86342725Y-112760500D01*
X86342727Y-112760500D01*
X86444587Y-112733207D01*
X86490501Y-112706698D01*
X86550348Y-112693977D01*
X86589498Y-112706698D01*
X86635413Y-112733207D01*
X86737273Y-112760500D01*
X86737275Y-112760500D01*
X86842725Y-112760500D01*
X86842727Y-112760500D01*
X86944587Y-112733207D01*
X87035913Y-112680480D01*
X87110480Y-112605913D01*
X87163207Y-112514587D01*
X87190500Y-112412727D01*
X87190500Y-112346532D01*
X101109500Y-112346532D01*
X101109500Y-112553467D01*
X101149869Y-112756418D01*
X101229058Y-112947597D01*
X101340304Y-113114089D01*
X101344023Y-113119655D01*
X101490345Y-113265977D01*
X101662402Y-113380941D01*
X101853580Y-113460130D01*
X102056535Y-113500500D01*
X102056536Y-113500500D01*
X102263464Y-113500500D01*
X102263465Y-113500500D01*
X102466420Y-113460130D01*
X102657598Y-113380941D01*
X102829655Y-113265977D01*
X102975977Y-113119655D01*
X103090941Y-112947598D01*
X103170130Y-112756420D01*
X103210500Y-112553465D01*
X103210500Y-112346535D01*
X103210499Y-112346532D01*
X103649500Y-112346532D01*
X103649500Y-112553467D01*
X103689869Y-112756418D01*
X103769058Y-112947597D01*
X103880304Y-113114089D01*
X103884023Y-113119655D01*
X104030345Y-113265977D01*
X104202402Y-113380941D01*
X104393580Y-113460130D01*
X104596535Y-113500500D01*
X104596536Y-113500500D01*
X104803464Y-113500500D01*
X104803465Y-113500500D01*
X105006420Y-113460130D01*
X105197598Y-113380941D01*
X105369655Y-113265977D01*
X105515977Y-113119655D01*
X105630941Y-112947598D01*
X105710130Y-112756420D01*
X105750500Y-112553465D01*
X105750500Y-112346535D01*
X105710130Y-112143580D01*
X105630941Y-111952402D01*
X105515977Y-111780345D01*
X105369655Y-111634023D01*
X105369651Y-111634020D01*
X105197597Y-111519058D01*
X105006418Y-111439869D01*
X104803467Y-111399500D01*
X104803465Y-111399500D01*
X104596535Y-111399500D01*
X104596532Y-111399500D01*
X104393581Y-111439869D01*
X104202402Y-111519058D01*
X104030348Y-111634020D01*
X103884020Y-111780348D01*
X103769058Y-111952402D01*
X103689869Y-112143581D01*
X103649500Y-112346532D01*
X103210499Y-112346532D01*
X103170130Y-112143580D01*
X103090941Y-111952402D01*
X102975977Y-111780345D01*
X102829655Y-111634023D01*
X102829651Y-111634020D01*
X102657597Y-111519058D01*
X102466418Y-111439869D01*
X102263467Y-111399500D01*
X102263465Y-111399500D01*
X102056535Y-111399500D01*
X102056532Y-111399500D01*
X101853581Y-111439869D01*
X101662402Y-111519058D01*
X101490348Y-111634020D01*
X101344020Y-111780348D01*
X101229058Y-111952402D01*
X101149869Y-112143581D01*
X101109500Y-112346532D01*
X87190500Y-112346532D01*
X87190500Y-112307273D01*
X87163207Y-112205413D01*
X87110480Y-112114087D01*
X87035913Y-112039520D01*
X86992731Y-112014589D01*
X86944589Y-111986794D01*
X86944588Y-111986793D01*
X86944587Y-111986793D01*
X86842727Y-111959500D01*
X86737273Y-111959500D01*
X86686343Y-111973146D01*
X86635411Y-111986793D01*
X86589499Y-112013301D01*
X86529651Y-112026022D01*
X86490501Y-112013301D01*
X86444588Y-111986793D01*
X86406617Y-111976619D01*
X86342727Y-111959500D01*
X86289500Y-111959500D01*
X86231309Y-111940593D01*
X86195345Y-111891093D01*
X86190500Y-111860500D01*
X86190500Y-111807274D01*
X86190500Y-111807273D01*
X86163207Y-111705413D01*
X86136698Y-111659498D01*
X86123977Y-111599652D01*
X86136698Y-111560501D01*
X86163207Y-111514587D01*
X86190500Y-111412727D01*
X86190500Y-111307273D01*
X86389500Y-111307273D01*
X86389500Y-111412727D01*
X86396773Y-111439869D01*
X86416794Y-111514589D01*
X86416794Y-111514590D01*
X86443300Y-111560499D01*
X86469520Y-111605913D01*
X86544087Y-111680480D01*
X86635413Y-111733207D01*
X86737273Y-111760500D01*
X86737275Y-111760500D01*
X86842725Y-111760500D01*
X86842727Y-111760500D01*
X86944587Y-111733207D01*
X86990501Y-111706698D01*
X87050348Y-111693977D01*
X87089498Y-111706698D01*
X87135413Y-111733207D01*
X87237273Y-111760500D01*
X87237275Y-111760500D01*
X87342725Y-111760500D01*
X87342727Y-111760500D01*
X87444587Y-111733207D01*
X87535913Y-111680480D01*
X87610480Y-111605913D01*
X87663207Y-111514587D01*
X87690500Y-111412727D01*
X87690500Y-111359500D01*
X87709407Y-111301309D01*
X87758907Y-111265345D01*
X87789500Y-111260500D01*
X87842725Y-111260500D01*
X87842727Y-111260500D01*
X87944587Y-111233207D01*
X88035913Y-111180480D01*
X88110480Y-111105913D01*
X88163207Y-111014587D01*
X88190500Y-110912727D01*
X88190500Y-110807273D01*
X88163207Y-110705413D01*
X88110480Y-110614087D01*
X88035913Y-110539520D01*
X87992729Y-110514588D01*
X87944589Y-110486794D01*
X87944588Y-110486793D01*
X87944587Y-110486793D01*
X87842727Y-110459500D01*
X87737273Y-110459500D01*
X87635413Y-110486793D01*
X87635412Y-110486793D01*
X87635410Y-110486794D01*
X87635409Y-110486794D01*
X87544089Y-110539518D01*
X87469518Y-110614089D01*
X87416794Y-110705409D01*
X87416794Y-110705410D01*
X87416793Y-110705412D01*
X87416793Y-110705413D01*
X87393995Y-110790500D01*
X87389500Y-110807274D01*
X87389500Y-110860500D01*
X87370593Y-110918691D01*
X87321093Y-110954655D01*
X87290500Y-110959500D01*
X87237273Y-110959500D01*
X87186343Y-110973146D01*
X87135411Y-110986793D01*
X87089499Y-111013301D01*
X87029651Y-111026022D01*
X86990501Y-111013301D01*
X86944588Y-110986793D01*
X86906617Y-110976619D01*
X86842727Y-110959500D01*
X86737273Y-110959500D01*
X86635413Y-110986793D01*
X86635412Y-110986793D01*
X86635410Y-110986794D01*
X86635409Y-110986794D01*
X86544089Y-111039518D01*
X86469518Y-111114089D01*
X86416794Y-111205409D01*
X86416794Y-111205410D01*
X86416793Y-111205412D01*
X86416793Y-111205413D01*
X86389500Y-111307273D01*
X86190500Y-111307273D01*
X86163207Y-111205413D01*
X86156604Y-111193977D01*
X86110481Y-111114089D01*
X86110480Y-111114087D01*
X86035913Y-111039520D01*
X85992731Y-111014589D01*
X85944589Y-110986794D01*
X85944588Y-110986793D01*
X85944587Y-110986793D01*
X85842727Y-110959500D01*
X85737273Y-110959500D01*
X85635413Y-110986793D01*
X85635412Y-110986793D01*
X85635410Y-110986794D01*
X85635409Y-110986794D01*
X85544089Y-111039518D01*
X85469518Y-111114089D01*
X85416794Y-111205409D01*
X85416794Y-111205410D01*
X85416793Y-111205412D01*
X85416793Y-111205413D01*
X85389500Y-111307273D01*
X85389500Y-111412727D01*
X85396773Y-111439869D01*
X85416793Y-111514588D01*
X85443301Y-111560501D01*
X85456022Y-111620349D01*
X85443301Y-111659499D01*
X85416793Y-111705411D01*
X85402033Y-111760500D01*
X85389500Y-111807273D01*
X85389500Y-111912727D01*
X85396967Y-111940593D01*
X85416793Y-112014588D01*
X85443301Y-112060501D01*
X85456022Y-112120349D01*
X85443301Y-112159499D01*
X85416793Y-112205411D01*
X85389500Y-112307274D01*
X85389500Y-112360500D01*
X85384655Y-112375411D01*
X85384655Y-112391093D01*
X85375438Y-112403778D01*
X85370593Y-112418691D01*
X85357907Y-112427907D01*
X85348691Y-112440593D01*
X85333778Y-112445438D01*
X85321093Y-112454655D01*
X85290500Y-112459500D01*
X85289500Y-112459500D01*
X85231309Y-112440593D01*
X85195345Y-112391093D01*
X85190500Y-112360500D01*
X85190500Y-112307274D01*
X85183033Y-112279407D01*
X85163207Y-112205413D01*
X85110480Y-112114087D01*
X85035913Y-112039520D01*
X84992731Y-112014589D01*
X84944589Y-111986794D01*
X84944588Y-111986793D01*
X84944587Y-111986793D01*
X84842727Y-111959500D01*
X84789500Y-111959500D01*
X84731309Y-111940593D01*
X84695345Y-111891093D01*
X84690500Y-111860500D01*
X84690500Y-111807274D01*
X84690500Y-111807273D01*
X84663207Y-111705413D01*
X84636698Y-111659498D01*
X84623977Y-111599652D01*
X84636698Y-111560501D01*
X84663207Y-111514587D01*
X84690500Y-111412727D01*
X84690500Y-111307273D01*
X84663207Y-111205413D01*
X84636698Y-111159498D01*
X84623977Y-111099652D01*
X84636698Y-111060501D01*
X84663207Y-111014587D01*
X84690500Y-110912727D01*
X84690500Y-110807273D01*
X84663207Y-110705413D01*
X84636698Y-110659498D01*
X84623977Y-110599652D01*
X84636698Y-110560501D01*
X84663207Y-110514587D01*
X84690500Y-110412727D01*
X84690500Y-110359500D01*
X84697722Y-110337273D01*
X96129500Y-110337273D01*
X96129500Y-110442727D01*
X96156793Y-110544587D01*
X96156794Y-110544589D01*
X96156794Y-110544590D01*
X96196920Y-110614089D01*
X96209520Y-110635913D01*
X96284087Y-110710480D01*
X96375413Y-110763207D01*
X96477273Y-110790500D01*
X96477275Y-110790500D01*
X96582725Y-110790500D01*
X96582727Y-110790500D01*
X96684587Y-110763207D01*
X96775913Y-110710480D01*
X96850480Y-110635913D01*
X96903207Y-110544587D01*
X96930500Y-110442727D01*
X96930500Y-110337273D01*
X96903207Y-110235413D01*
X96903059Y-110235157D01*
X96850481Y-110144089D01*
X96850480Y-110144087D01*
X96775913Y-110069520D01*
X96730985Y-110043581D01*
X96684589Y-110016794D01*
X96684588Y-110016793D01*
X96684587Y-110016793D01*
X96582727Y-109989500D01*
X96477273Y-109989500D01*
X96375413Y-110016793D01*
X96375412Y-110016793D01*
X96375410Y-110016794D01*
X96375409Y-110016794D01*
X96284089Y-110069518D01*
X96209518Y-110144089D01*
X96156794Y-110235409D01*
X96156794Y-110235410D01*
X96156793Y-110235412D01*
X96156793Y-110235413D01*
X96129500Y-110337273D01*
X84697722Y-110337273D01*
X84709407Y-110301309D01*
X84758907Y-110265345D01*
X84789500Y-110260500D01*
X84842725Y-110260500D01*
X84842727Y-110260500D01*
X84944587Y-110233207D01*
X85035913Y-110180480D01*
X85110480Y-110105913D01*
X85163207Y-110014587D01*
X85190500Y-109912727D01*
X85190500Y-109807273D01*
X85889500Y-109807273D01*
X85889500Y-109912727D01*
X85916493Y-110013467D01*
X85916794Y-110014589D01*
X85916794Y-110014590D01*
X85969518Y-110105910D01*
X85969520Y-110105913D01*
X86044087Y-110180480D01*
X86135413Y-110233207D01*
X86237273Y-110260500D01*
X86237275Y-110260500D01*
X86342725Y-110260500D01*
X86342727Y-110260500D01*
X86444587Y-110233207D01*
X86535913Y-110180480D01*
X86610480Y-110105913D01*
X86663207Y-110014587D01*
X86690500Y-109912727D01*
X86690500Y-109807273D01*
X86690301Y-109806532D01*
X101109500Y-109806532D01*
X101109500Y-110013467D01*
X101149869Y-110216418D01*
X101229058Y-110407597D01*
X101344020Y-110579651D01*
X101344023Y-110579655D01*
X101490345Y-110725977D01*
X101662402Y-110840941D01*
X101853580Y-110920130D01*
X102056535Y-110960500D01*
X102056536Y-110960500D01*
X102263464Y-110960500D01*
X102263465Y-110960500D01*
X102466420Y-110920130D01*
X102657598Y-110840941D01*
X102829655Y-110725977D01*
X102975977Y-110579655D01*
X103090941Y-110407598D01*
X103170130Y-110216420D01*
X103210500Y-110013465D01*
X103210500Y-109806535D01*
X103210499Y-109806532D01*
X103649500Y-109806532D01*
X103649500Y-110013467D01*
X103689869Y-110216418D01*
X103769058Y-110407597D01*
X103884020Y-110579651D01*
X103884023Y-110579655D01*
X104030345Y-110725977D01*
X104202402Y-110840941D01*
X104393580Y-110920130D01*
X104596535Y-110960500D01*
X104596536Y-110960500D01*
X104803464Y-110960500D01*
X104803465Y-110960500D01*
X105006420Y-110920130D01*
X105197598Y-110840941D01*
X105369655Y-110725977D01*
X105515977Y-110579655D01*
X105630941Y-110407598D01*
X105710130Y-110216420D01*
X105750500Y-110013465D01*
X105750500Y-109806535D01*
X105710130Y-109603580D01*
X105630941Y-109412402D01*
X105515977Y-109240345D01*
X105369655Y-109094023D01*
X105197598Y-108979059D01*
X105197599Y-108979059D01*
X105197597Y-108979058D01*
X105006418Y-108899869D01*
X104803467Y-108859500D01*
X104803465Y-108859500D01*
X104596535Y-108859500D01*
X104596532Y-108859500D01*
X104393581Y-108899869D01*
X104202402Y-108979058D01*
X104030348Y-109094020D01*
X103884020Y-109240348D01*
X103769058Y-109412402D01*
X103689869Y-109603581D01*
X103649500Y-109806532D01*
X103210499Y-109806532D01*
X103170130Y-109603580D01*
X103090941Y-109412402D01*
X102975977Y-109240345D01*
X102829655Y-109094023D01*
X102657598Y-108979059D01*
X102657599Y-108979059D01*
X102657597Y-108979058D01*
X102466418Y-108899869D01*
X102263467Y-108859500D01*
X102263465Y-108859500D01*
X102056535Y-108859500D01*
X102056532Y-108859500D01*
X101853581Y-108899869D01*
X101662402Y-108979058D01*
X101490348Y-109094020D01*
X101344020Y-109240348D01*
X101229058Y-109412402D01*
X101149869Y-109603581D01*
X101109500Y-109806532D01*
X86690301Y-109806532D01*
X86663207Y-109705413D01*
X86610480Y-109614087D01*
X86535913Y-109539520D01*
X86490500Y-109513301D01*
X86444589Y-109486794D01*
X86444588Y-109486793D01*
X86444587Y-109486793D01*
X86342727Y-109459500D01*
X86237273Y-109459500D01*
X86135413Y-109486793D01*
X86135412Y-109486793D01*
X86135410Y-109486794D01*
X86135409Y-109486794D01*
X86044089Y-109539518D01*
X85969518Y-109614089D01*
X85916794Y-109705409D01*
X85916794Y-109705410D01*
X85916793Y-109705412D01*
X85916793Y-109705413D01*
X85889500Y-109807273D01*
X85190500Y-109807273D01*
X85163207Y-109705413D01*
X85110480Y-109614087D01*
X85035913Y-109539520D01*
X84990500Y-109513301D01*
X84944589Y-109486794D01*
X84944588Y-109486793D01*
X84944587Y-109486793D01*
X84842727Y-109459500D01*
X84737273Y-109459500D01*
X84686343Y-109473146D01*
X84635411Y-109486793D01*
X84589499Y-109513301D01*
X84529651Y-109526022D01*
X84490501Y-109513301D01*
X84444588Y-109486793D01*
X84410633Y-109477695D01*
X84342727Y-109459500D01*
X84237273Y-109459500D01*
X84135413Y-109486793D01*
X84135412Y-109486793D01*
X84135410Y-109486794D01*
X84135409Y-109486794D01*
X84044089Y-109539518D01*
X83969518Y-109614089D01*
X83916794Y-109705409D01*
X83916794Y-109705410D01*
X83916793Y-109705412D01*
X83916793Y-109705413D01*
X83889500Y-109807273D01*
X83889500Y-109912727D01*
X83896967Y-109940593D01*
X83916793Y-110014588D01*
X83943301Y-110060501D01*
X83956022Y-110120349D01*
X83943301Y-110159499D01*
X83916793Y-110205411D01*
X83889500Y-110307274D01*
X83889500Y-110360500D01*
X83884655Y-110375411D01*
X83884655Y-110391093D01*
X83875438Y-110403778D01*
X83870593Y-110418691D01*
X83857907Y-110427907D01*
X83848691Y-110440593D01*
X83833778Y-110445438D01*
X83821093Y-110454655D01*
X83790500Y-110459500D01*
X83789500Y-110459500D01*
X83731309Y-110440593D01*
X83695345Y-110391093D01*
X83690500Y-110360500D01*
X83690500Y-110307274D01*
X83683033Y-110279407D01*
X83663207Y-110205413D01*
X83610480Y-110114087D01*
X83535913Y-110039520D01*
X83496550Y-110016794D01*
X83444589Y-109986794D01*
X83444588Y-109986793D01*
X83444587Y-109986793D01*
X83342727Y-109959500D01*
X83289500Y-109959500D01*
X83231309Y-109940593D01*
X83195345Y-109891093D01*
X83190500Y-109860500D01*
X83190500Y-109807274D01*
X83190500Y-109807273D01*
X83163207Y-109705413D01*
X83110480Y-109614087D01*
X83035913Y-109539520D01*
X82990500Y-109513301D01*
X82944589Y-109486794D01*
X82944588Y-109486793D01*
X82944587Y-109486793D01*
X82842727Y-109459500D01*
X82737273Y-109459500D01*
X82635413Y-109486793D01*
X82635412Y-109486793D01*
X82635410Y-109486794D01*
X82635409Y-109486794D01*
X82544089Y-109539518D01*
X82469518Y-109614089D01*
X82416794Y-109705409D01*
X82416794Y-109705410D01*
X82416793Y-109705412D01*
X82416793Y-109705413D01*
X82389500Y-109807273D01*
X69200787Y-109807273D01*
X69115977Y-109680345D01*
X68969655Y-109534023D01*
X68957681Y-109526022D01*
X68797597Y-109419058D01*
X68606418Y-109339869D01*
X68403467Y-109299500D01*
X68403465Y-109299500D01*
X68196535Y-109299500D01*
X68196532Y-109299500D01*
X67993581Y-109339869D01*
X67802402Y-109419058D01*
X67630348Y-109534020D01*
X67484020Y-109680348D01*
X67369058Y-109852402D01*
X67289869Y-110043581D01*
X67249500Y-110246532D01*
X66640500Y-110246532D01*
X66640500Y-108947273D01*
X88659500Y-108947273D01*
X88659500Y-109052727D01*
X88686793Y-109154587D01*
X88686794Y-109154589D01*
X88686794Y-109154590D01*
X88736305Y-109240345D01*
X88739520Y-109245913D01*
X88814087Y-109320480D01*
X88905413Y-109373207D01*
X89007273Y-109400500D01*
X89007275Y-109400500D01*
X89112725Y-109400500D01*
X89112727Y-109400500D01*
X89214587Y-109373207D01*
X89305913Y-109320480D01*
X89380480Y-109245913D01*
X89433207Y-109154587D01*
X89460500Y-109052727D01*
X89460500Y-108947273D01*
X89433207Y-108845413D01*
X89380480Y-108754087D01*
X89305913Y-108679520D01*
X89214587Y-108626793D01*
X89112727Y-108599500D01*
X89007273Y-108599500D01*
X88905413Y-108626793D01*
X88905412Y-108626793D01*
X88905410Y-108626794D01*
X88905409Y-108626794D01*
X88814089Y-108679518D01*
X88739518Y-108754089D01*
X88686794Y-108845409D01*
X88686794Y-108845410D01*
X88686793Y-108845412D01*
X88686793Y-108845413D01*
X88659500Y-108947273D01*
X66640500Y-108947273D01*
X66640500Y-107706532D01*
X67249500Y-107706532D01*
X67249500Y-107913467D01*
X67289869Y-108116418D01*
X67369058Y-108307597D01*
X67444497Y-108420500D01*
X67484023Y-108479655D01*
X67630345Y-108625977D01*
X67802402Y-108740941D01*
X67993580Y-108820130D01*
X68196535Y-108860500D01*
X68196536Y-108860500D01*
X68403464Y-108860500D01*
X68403465Y-108860500D01*
X68606420Y-108820130D01*
X68797598Y-108740941D01*
X68969655Y-108625977D01*
X69068359Y-108527273D01*
X93609500Y-108527273D01*
X93609500Y-108632727D01*
X93636793Y-108734587D01*
X93636794Y-108734589D01*
X93636794Y-108734590D01*
X93640461Y-108740941D01*
X93689520Y-108825913D01*
X93764087Y-108900480D01*
X93855413Y-108953207D01*
X93957273Y-108980500D01*
X93957275Y-108980500D01*
X94062725Y-108980500D01*
X94062727Y-108980500D01*
X94164587Y-108953207D01*
X94255913Y-108900480D01*
X94330480Y-108825913D01*
X94383207Y-108734587D01*
X94410500Y-108632727D01*
X94410500Y-108527273D01*
X94383207Y-108425413D01*
X94380370Y-108420500D01*
X94330481Y-108334089D01*
X94330480Y-108334087D01*
X94255913Y-108259520D01*
X94164587Y-108206793D01*
X94062727Y-108179500D01*
X93957273Y-108179500D01*
X93855413Y-108206793D01*
X93855412Y-108206793D01*
X93855410Y-108206794D01*
X93855409Y-108206794D01*
X93764089Y-108259518D01*
X93689518Y-108334089D01*
X93636794Y-108425409D01*
X93636794Y-108425410D01*
X93636793Y-108425412D01*
X93636793Y-108425413D01*
X93609500Y-108527273D01*
X69068359Y-108527273D01*
X69115977Y-108479655D01*
X69230941Y-108307598D01*
X69310130Y-108116420D01*
X69350500Y-107913465D01*
X69350500Y-107706535D01*
X69310130Y-107503580D01*
X69267770Y-107401315D01*
X81175458Y-107401315D01*
X81175458Y-107506769D01*
X81196310Y-107584589D01*
X81202752Y-107608631D01*
X81202752Y-107608632D01*
X81241597Y-107675913D01*
X81255478Y-107699955D01*
X81330045Y-107774522D01*
X81421371Y-107827249D01*
X81523231Y-107854542D01*
X81523233Y-107854542D01*
X81628683Y-107854542D01*
X81628685Y-107854542D01*
X81730545Y-107827249D01*
X81821871Y-107774522D01*
X81879120Y-107717273D01*
X89259500Y-107717273D01*
X89259500Y-107822727D01*
X89286793Y-107924587D01*
X89286794Y-107924589D01*
X89286794Y-107924590D01*
X89339518Y-108015910D01*
X89339520Y-108015913D01*
X89414087Y-108090480D01*
X89505413Y-108143207D01*
X89607273Y-108170500D01*
X89607275Y-108170500D01*
X89712725Y-108170500D01*
X89712727Y-108170500D01*
X89814587Y-108143207D01*
X89905913Y-108090480D01*
X89980480Y-108015913D01*
X90033207Y-107924587D01*
X90060500Y-107822727D01*
X90060500Y-107822100D01*
X90060638Y-107821673D01*
X90061347Y-107816293D01*
X90062344Y-107816424D01*
X90079407Y-107763909D01*
X90128907Y-107727945D01*
X90190093Y-107727945D01*
X90221995Y-107747494D01*
X90222737Y-107746529D01*
X90227884Y-107750478D01*
X90227886Y-107750479D01*
X90227887Y-107750480D01*
X90319213Y-107803207D01*
X90421073Y-107830500D01*
X90421075Y-107830500D01*
X90526525Y-107830500D01*
X90526527Y-107830500D01*
X90628387Y-107803207D01*
X90719713Y-107750480D01*
X90794280Y-107675913D01*
X90847007Y-107584587D01*
X90874300Y-107482727D01*
X90874300Y-107377273D01*
X90847007Y-107275413D01*
X90841881Y-107266535D01*
X90841879Y-107266532D01*
X101109500Y-107266532D01*
X101109500Y-107473467D01*
X101149869Y-107676418D01*
X101229058Y-107867597D01*
X101328157Y-108015910D01*
X101344023Y-108039655D01*
X101490345Y-108185977D01*
X101662402Y-108300941D01*
X101853580Y-108380130D01*
X102056535Y-108420500D01*
X102056536Y-108420500D01*
X102263464Y-108420500D01*
X102263465Y-108420500D01*
X102466420Y-108380130D01*
X102657598Y-108300941D01*
X102829655Y-108185977D01*
X102975977Y-108039655D01*
X103090941Y-107867598D01*
X103170130Y-107676420D01*
X103210500Y-107473465D01*
X103210500Y-107266535D01*
X103210499Y-107266532D01*
X103649500Y-107266532D01*
X103649500Y-107473467D01*
X103689869Y-107676418D01*
X103769058Y-107867597D01*
X103868157Y-108015910D01*
X103884023Y-108039655D01*
X104030345Y-108185977D01*
X104202402Y-108300941D01*
X104393580Y-108380130D01*
X104596535Y-108420500D01*
X104596536Y-108420500D01*
X104803464Y-108420500D01*
X104803465Y-108420500D01*
X105006420Y-108380130D01*
X105197598Y-108300941D01*
X105369655Y-108185977D01*
X105515977Y-108039655D01*
X105630941Y-107867598D01*
X105710130Y-107676420D01*
X105750500Y-107473465D01*
X105750500Y-107266535D01*
X105710130Y-107063580D01*
X105630941Y-106872402D01*
X105515977Y-106700345D01*
X105369655Y-106554023D01*
X105197598Y-106439059D01*
X105197599Y-106439059D01*
X105197597Y-106439058D01*
X105006418Y-106359869D01*
X104803467Y-106319500D01*
X104803465Y-106319500D01*
X104596535Y-106319500D01*
X104596532Y-106319500D01*
X104393581Y-106359869D01*
X104202402Y-106439058D01*
X104030348Y-106554020D01*
X103884020Y-106700348D01*
X103769058Y-106872402D01*
X103689869Y-107063581D01*
X103649500Y-107266532D01*
X103210499Y-107266532D01*
X103170130Y-107063580D01*
X103090941Y-106872402D01*
X102975977Y-106700345D01*
X102829655Y-106554023D01*
X102657598Y-106439059D01*
X102657599Y-106439059D01*
X102657597Y-106439058D01*
X102466418Y-106359869D01*
X102263467Y-106319500D01*
X102263465Y-106319500D01*
X102056535Y-106319500D01*
X102056532Y-106319500D01*
X101853581Y-106359869D01*
X101662402Y-106439058D01*
X101490348Y-106554020D01*
X101344020Y-106700348D01*
X101229058Y-106872402D01*
X101149869Y-107063581D01*
X101109500Y-107266532D01*
X90841879Y-107266532D01*
X90794281Y-107184089D01*
X90794280Y-107184087D01*
X90719713Y-107109520D01*
X90640142Y-107063580D01*
X90628389Y-107056794D01*
X90628388Y-107056793D01*
X90628387Y-107056793D01*
X90526527Y-107029500D01*
X90421073Y-107029500D01*
X90319213Y-107056793D01*
X90319212Y-107056793D01*
X90319210Y-107056794D01*
X90319209Y-107056794D01*
X90227889Y-107109518D01*
X90153318Y-107184089D01*
X90100594Y-107275409D01*
X90100594Y-107275410D01*
X90073300Y-107377274D01*
X90073300Y-107377900D01*
X90073161Y-107378326D01*
X90072453Y-107383707D01*
X90071455Y-107383575D01*
X90054393Y-107436091D01*
X90004893Y-107472055D01*
X89943707Y-107472055D01*
X89911804Y-107452505D01*
X89911063Y-107453471D01*
X89905915Y-107449521D01*
X89814589Y-107396794D01*
X89814588Y-107396793D01*
X89814587Y-107396793D01*
X89712727Y-107369500D01*
X89607273Y-107369500D01*
X89505413Y-107396793D01*
X89505412Y-107396793D01*
X89505410Y-107396794D01*
X89505409Y-107396794D01*
X89414089Y-107449518D01*
X89339518Y-107524089D01*
X89286794Y-107615409D01*
X89286794Y-107615410D01*
X89286793Y-107615412D01*
X89286793Y-107615413D01*
X89259500Y-107717273D01*
X81879120Y-107717273D01*
X81896438Y-107699955D01*
X81949165Y-107608629D01*
X81976458Y-107506769D01*
X81976458Y-107401315D01*
X81949165Y-107299455D01*
X81935284Y-107275413D01*
X81896439Y-107208131D01*
X81896438Y-107208129D01*
X81821871Y-107133562D01*
X81780225Y-107109518D01*
X81730547Y-107080836D01*
X81730546Y-107080835D01*
X81730545Y-107080835D01*
X81628685Y-107053542D01*
X81523231Y-107053542D01*
X81421371Y-107080835D01*
X81421370Y-107080835D01*
X81421368Y-107080836D01*
X81421367Y-107080836D01*
X81330047Y-107133560D01*
X81255476Y-107208131D01*
X81202752Y-107299451D01*
X81202752Y-107299452D01*
X81202751Y-107299454D01*
X81202751Y-107299455D01*
X81175458Y-107401315D01*
X69267770Y-107401315D01*
X69230941Y-107312402D01*
X69115977Y-107140345D01*
X68969655Y-106994023D01*
X68797598Y-106879059D01*
X68797599Y-106879059D01*
X68797597Y-106879058D01*
X68606418Y-106799869D01*
X68403467Y-106759500D01*
X68403465Y-106759500D01*
X68196535Y-106759500D01*
X68196532Y-106759500D01*
X67993581Y-106799869D01*
X67802402Y-106879058D01*
X67630348Y-106994020D01*
X67484020Y-107140348D01*
X67369058Y-107312402D01*
X67289869Y-107503581D01*
X67249500Y-107706532D01*
X66640500Y-107706532D01*
X66640500Y-105166532D01*
X67249500Y-105166532D01*
X67249500Y-105373467D01*
X67289869Y-105576418D01*
X67369058Y-105767597D01*
X67444497Y-105880500D01*
X67484023Y-105939655D01*
X67630345Y-106085977D01*
X67802402Y-106200941D01*
X67993580Y-106280130D01*
X68196535Y-106320500D01*
X68196536Y-106320500D01*
X68403464Y-106320500D01*
X68403465Y-106320500D01*
X68606420Y-106280130D01*
X68797598Y-106200941D01*
X68969655Y-106085977D01*
X69115977Y-105939655D01*
X69230941Y-105767598D01*
X69310130Y-105576420D01*
X69350500Y-105373465D01*
X69350500Y-105166535D01*
X69310130Y-104963580D01*
X69230941Y-104772402D01*
X69200292Y-104726532D01*
X101109500Y-104726532D01*
X101109500Y-104933467D01*
X101149869Y-105136418D01*
X101229058Y-105327597D01*
X101259706Y-105373465D01*
X101344023Y-105499655D01*
X101490345Y-105645977D01*
X101662402Y-105760941D01*
X101853580Y-105840130D01*
X102056535Y-105880500D01*
X102056536Y-105880500D01*
X102263464Y-105880500D01*
X102263465Y-105880500D01*
X102466420Y-105840130D01*
X102657598Y-105760941D01*
X102829655Y-105645977D01*
X102975977Y-105499655D01*
X103090941Y-105327598D01*
X103170130Y-105136420D01*
X103210500Y-104933465D01*
X103210500Y-104726535D01*
X103210499Y-104726532D01*
X103649500Y-104726532D01*
X103649500Y-104933467D01*
X103689869Y-105136418D01*
X103769058Y-105327597D01*
X103799706Y-105373465D01*
X103884023Y-105499655D01*
X104030345Y-105645977D01*
X104202402Y-105760941D01*
X104393580Y-105840130D01*
X104596535Y-105880500D01*
X104596536Y-105880500D01*
X104803464Y-105880500D01*
X104803465Y-105880500D01*
X105006420Y-105840130D01*
X105197598Y-105760941D01*
X105369655Y-105645977D01*
X105515977Y-105499655D01*
X105630941Y-105327598D01*
X105710130Y-105136420D01*
X105750500Y-104933465D01*
X105750500Y-104726535D01*
X105710130Y-104523580D01*
X105630941Y-104332402D01*
X105515977Y-104160345D01*
X105369655Y-104014023D01*
X105197598Y-103899059D01*
X105197599Y-103899059D01*
X105197597Y-103899058D01*
X105006418Y-103819869D01*
X104803467Y-103779500D01*
X104803465Y-103779500D01*
X104596535Y-103779500D01*
X104596532Y-103779500D01*
X104393581Y-103819869D01*
X104202402Y-103899058D01*
X104030348Y-104014020D01*
X103884020Y-104160348D01*
X103769058Y-104332402D01*
X103689869Y-104523581D01*
X103649500Y-104726532D01*
X103210499Y-104726532D01*
X103170130Y-104523580D01*
X103090941Y-104332402D01*
X102975977Y-104160345D01*
X102829655Y-104014023D01*
X102657598Y-103899059D01*
X102657599Y-103899059D01*
X102657597Y-103899058D01*
X102466418Y-103819869D01*
X102263467Y-103779500D01*
X102263465Y-103779500D01*
X102056535Y-103779500D01*
X102056532Y-103779500D01*
X101853581Y-103819869D01*
X101662402Y-103899058D01*
X101490348Y-104014020D01*
X101344020Y-104160348D01*
X101229058Y-104332402D01*
X101149869Y-104523581D01*
X101109500Y-104726532D01*
X69200292Y-104726532D01*
X69115977Y-104600345D01*
X68969655Y-104454023D01*
X68797598Y-104339059D01*
X68797599Y-104339059D01*
X68797597Y-104339058D01*
X68606418Y-104259869D01*
X68403467Y-104219500D01*
X68403465Y-104219500D01*
X68196535Y-104219500D01*
X68196532Y-104219500D01*
X67993581Y-104259869D01*
X67802402Y-104339058D01*
X67630348Y-104454020D01*
X67484020Y-104600348D01*
X67369058Y-104772402D01*
X67289869Y-104963581D01*
X67249500Y-105166532D01*
X66640500Y-105166532D01*
X66640500Y-102626532D01*
X67249500Y-102626532D01*
X67249500Y-102833467D01*
X67289869Y-103036418D01*
X67369058Y-103227597D01*
X67444497Y-103340500D01*
X67484023Y-103399655D01*
X67630345Y-103545977D01*
X67802402Y-103660941D01*
X67993580Y-103740130D01*
X68196535Y-103780500D01*
X68196536Y-103780500D01*
X68403464Y-103780500D01*
X68403465Y-103780500D01*
X68606420Y-103740130D01*
X68797598Y-103660941D01*
X68969655Y-103545977D01*
X69115977Y-103399655D01*
X69230941Y-103227598D01*
X69310130Y-103036420D01*
X69350500Y-102833465D01*
X69350500Y-102777273D01*
X83718300Y-102777273D01*
X83718300Y-102882727D01*
X83738913Y-102959655D01*
X83745594Y-102984589D01*
X83745594Y-102984590D01*
X83798318Y-103075910D01*
X83798320Y-103075913D01*
X83872887Y-103150480D01*
X83964213Y-103203207D01*
X84066073Y-103230500D01*
X84066075Y-103230500D01*
X84171525Y-103230500D01*
X84171527Y-103230500D01*
X84273387Y-103203207D01*
X84364713Y-103150480D01*
X84439280Y-103075913D01*
X84492007Y-102984587D01*
X84519300Y-102882727D01*
X84519300Y-102777273D01*
X84492007Y-102675413D01*
X84439280Y-102584087D01*
X84439279Y-102584086D01*
X84439278Y-102584084D01*
X84435329Y-102578937D01*
X84436852Y-102577768D01*
X84413119Y-102531187D01*
X84422690Y-102470755D01*
X84465955Y-102427490D01*
X84510900Y-102416700D01*
X84522725Y-102416700D01*
X84522727Y-102416700D01*
X84624587Y-102389407D01*
X84715913Y-102336680D01*
X84790480Y-102262113D01*
X84834117Y-102186532D01*
X101109500Y-102186532D01*
X101109500Y-102393467D01*
X101149869Y-102596418D01*
X101229058Y-102787597D01*
X101344020Y-102959651D01*
X101344023Y-102959655D01*
X101490345Y-103105977D01*
X101662402Y-103220941D01*
X101853580Y-103300130D01*
X102056535Y-103340500D01*
X102056536Y-103340500D01*
X102263464Y-103340500D01*
X102263465Y-103340500D01*
X102466420Y-103300130D01*
X102657598Y-103220941D01*
X102829655Y-103105977D01*
X102975977Y-102959655D01*
X103090941Y-102787598D01*
X103170130Y-102596420D01*
X103210500Y-102393465D01*
X103210500Y-102186535D01*
X103210499Y-102186532D01*
X103649500Y-102186532D01*
X103649500Y-102393467D01*
X103689869Y-102596418D01*
X103769058Y-102787597D01*
X103884020Y-102959651D01*
X103884023Y-102959655D01*
X104030345Y-103105977D01*
X104202402Y-103220941D01*
X104393580Y-103300130D01*
X104596535Y-103340500D01*
X104596536Y-103340500D01*
X104803464Y-103340500D01*
X104803465Y-103340500D01*
X105006420Y-103300130D01*
X105197598Y-103220941D01*
X105369655Y-103105977D01*
X105515977Y-102959655D01*
X105630941Y-102787598D01*
X105710130Y-102596420D01*
X105750500Y-102393465D01*
X105750500Y-102186535D01*
X105710130Y-101983580D01*
X105630941Y-101792402D01*
X105515977Y-101620345D01*
X105369655Y-101474023D01*
X105197598Y-101359059D01*
X105197599Y-101359059D01*
X105197597Y-101359058D01*
X105006418Y-101279869D01*
X104803467Y-101239500D01*
X104803465Y-101239500D01*
X104596535Y-101239500D01*
X104596532Y-101239500D01*
X104393581Y-101279869D01*
X104202402Y-101359058D01*
X104030348Y-101474020D01*
X103884020Y-101620348D01*
X103769058Y-101792402D01*
X103689869Y-101983581D01*
X103649500Y-102186532D01*
X103210499Y-102186532D01*
X103170130Y-101983580D01*
X103090941Y-101792402D01*
X102975977Y-101620345D01*
X102829655Y-101474023D01*
X102657598Y-101359059D01*
X102657599Y-101359059D01*
X102657597Y-101359058D01*
X102466418Y-101279869D01*
X102263467Y-101239500D01*
X102263465Y-101239500D01*
X102056535Y-101239500D01*
X102056532Y-101239500D01*
X101853581Y-101279869D01*
X101662402Y-101359058D01*
X101490348Y-101474020D01*
X101344020Y-101620348D01*
X101229058Y-101792402D01*
X101149869Y-101983581D01*
X101109500Y-102186532D01*
X84834117Y-102186532D01*
X84843207Y-102170787D01*
X84870500Y-102068927D01*
X84870500Y-101963473D01*
X84843207Y-101861613D01*
X84790480Y-101770287D01*
X84715913Y-101695720D01*
X84624587Y-101642993D01*
X84522727Y-101615700D01*
X84417273Y-101615700D01*
X84315413Y-101642993D01*
X84315412Y-101642993D01*
X84315410Y-101642994D01*
X84315409Y-101642994D01*
X84224089Y-101695718D01*
X84149518Y-101770289D01*
X84096794Y-101861609D01*
X84096794Y-101861610D01*
X84096793Y-101861612D01*
X84096793Y-101861613D01*
X84069500Y-101963473D01*
X84069500Y-102068927D01*
X84096792Y-102170783D01*
X84096794Y-102170789D01*
X84096794Y-102170790D01*
X84149521Y-102262115D01*
X84153471Y-102267263D01*
X84151947Y-102268431D01*
X84175681Y-102315013D01*
X84166110Y-102375445D01*
X84122845Y-102418710D01*
X84077900Y-102429500D01*
X84066073Y-102429500D01*
X83964213Y-102456793D01*
X83964212Y-102456793D01*
X83964210Y-102456794D01*
X83964209Y-102456794D01*
X83872889Y-102509518D01*
X83798318Y-102584089D01*
X83745594Y-102675409D01*
X83745594Y-102675410D01*
X83745593Y-102675412D01*
X83745593Y-102675413D01*
X83718300Y-102777273D01*
X69350500Y-102777273D01*
X69350500Y-102626535D01*
X69310130Y-102423580D01*
X69230941Y-102232402D01*
X69115977Y-102060345D01*
X68969655Y-101914023D01*
X68969651Y-101914020D01*
X68797597Y-101799058D01*
X68606418Y-101719869D01*
X68403467Y-101679500D01*
X68403465Y-101679500D01*
X68196535Y-101679500D01*
X68196532Y-101679500D01*
X67993581Y-101719869D01*
X67802402Y-101799058D01*
X67630348Y-101914020D01*
X67484020Y-102060348D01*
X67369058Y-102232402D01*
X67289869Y-102423581D01*
X67249500Y-102626532D01*
X66640500Y-102626532D01*
X66640500Y-99320253D01*
X67249500Y-99320253D01*
X67249500Y-101059746D01*
X67249501Y-101059758D01*
X67261132Y-101118227D01*
X67261133Y-101118231D01*
X67305448Y-101184552D01*
X67371769Y-101228867D01*
X67416231Y-101237711D01*
X67430241Y-101240498D01*
X67430246Y-101240498D01*
X67430252Y-101240500D01*
X67430253Y-101240500D01*
X69169747Y-101240500D01*
X69169748Y-101240500D01*
X69228231Y-101228867D01*
X69294552Y-101184552D01*
X69338867Y-101118231D01*
X69350500Y-101059748D01*
X69350500Y-99844108D01*
X76489500Y-99844108D01*
X76489500Y-99975892D01*
X76495239Y-99997309D01*
X76523609Y-100103190D01*
X76589496Y-100217309D01*
X76589498Y-100217311D01*
X76589500Y-100217314D01*
X76682686Y-100310500D01*
X76682688Y-100310501D01*
X76682690Y-100310503D01*
X76796810Y-100376390D01*
X76796808Y-100376390D01*
X76796812Y-100376391D01*
X76796814Y-100376392D01*
X76924108Y-100410500D01*
X76924110Y-100410500D01*
X77055890Y-100410500D01*
X77055892Y-100410500D01*
X77183186Y-100376392D01*
X77183188Y-100376390D01*
X77183190Y-100376390D01*
X77297309Y-100310503D01*
X77297309Y-100310502D01*
X77297314Y-100310500D01*
X77390500Y-100217314D01*
X77405981Y-100190500D01*
X77456390Y-100103190D01*
X77456390Y-100103188D01*
X77456392Y-100103186D01*
X77490500Y-99975892D01*
X77490500Y-99844108D01*
X77456392Y-99716814D01*
X77456390Y-99716811D01*
X77456390Y-99716809D01*
X77439704Y-99687908D01*
X82829500Y-99687908D01*
X82829500Y-99819692D01*
X82838550Y-99853467D01*
X82863609Y-99946990D01*
X82929496Y-100061109D01*
X82929498Y-100061111D01*
X82929500Y-100061114D01*
X83022686Y-100154300D01*
X83022688Y-100154301D01*
X83022690Y-100154303D01*
X83136810Y-100220190D01*
X83136808Y-100220190D01*
X83136812Y-100220191D01*
X83136814Y-100220192D01*
X83264108Y-100254300D01*
X83264110Y-100254300D01*
X83395890Y-100254300D01*
X83395892Y-100254300D01*
X83523186Y-100220192D01*
X83523188Y-100220190D01*
X83523190Y-100220190D01*
X83637309Y-100154303D01*
X83637309Y-100154302D01*
X83637314Y-100154300D01*
X83730500Y-100061114D01*
X83796392Y-99946986D01*
X83830500Y-99819692D01*
X83830500Y-99687908D01*
X83813405Y-99624108D01*
X89989500Y-99624108D01*
X89989500Y-99755892D01*
X90015644Y-99853463D01*
X90023609Y-99883190D01*
X90089496Y-99997309D01*
X90089498Y-99997311D01*
X90089500Y-99997314D01*
X90182686Y-100090500D01*
X90182688Y-100090501D01*
X90182690Y-100090503D01*
X90296810Y-100156390D01*
X90296808Y-100156390D01*
X90296812Y-100156391D01*
X90296814Y-100156392D01*
X90424108Y-100190500D01*
X90424110Y-100190500D01*
X90555890Y-100190500D01*
X90555892Y-100190500D01*
X90683186Y-100156392D01*
X90683188Y-100156390D01*
X90683190Y-100156390D01*
X90797309Y-100090503D01*
X90797309Y-100090502D01*
X90797314Y-100090500D01*
X90890500Y-99997314D01*
X90956392Y-99883186D01*
X90990500Y-99755892D01*
X90990500Y-99646532D01*
X101109500Y-99646532D01*
X101109500Y-99853467D01*
X101149869Y-100056418D01*
X101229058Y-100247597D01*
X101337906Y-100410500D01*
X101344023Y-100419655D01*
X101490345Y-100565977D01*
X101662402Y-100680941D01*
X101853580Y-100760130D01*
X102056535Y-100800500D01*
X102056536Y-100800500D01*
X102263464Y-100800500D01*
X102263465Y-100800500D01*
X102466420Y-100760130D01*
X102657598Y-100680941D01*
X102829655Y-100565977D01*
X102975977Y-100419655D01*
X103090941Y-100247598D01*
X103170130Y-100056420D01*
X103210500Y-99853465D01*
X103210500Y-99646535D01*
X103210499Y-99646532D01*
X103649500Y-99646532D01*
X103649500Y-99853467D01*
X103689869Y-100056418D01*
X103769058Y-100247597D01*
X103877906Y-100410500D01*
X103884023Y-100419655D01*
X104030345Y-100565977D01*
X104202402Y-100680941D01*
X104393580Y-100760130D01*
X104596535Y-100800500D01*
X104596536Y-100800500D01*
X104803464Y-100800500D01*
X104803465Y-100800500D01*
X105006420Y-100760130D01*
X105197598Y-100680941D01*
X105369655Y-100565977D01*
X105515977Y-100419655D01*
X105630941Y-100247598D01*
X105710130Y-100056420D01*
X105750500Y-99853465D01*
X105750500Y-99646535D01*
X105710130Y-99443580D01*
X105630941Y-99252402D01*
X105515977Y-99080345D01*
X105369655Y-98934023D01*
X105369651Y-98934020D01*
X105197597Y-98819058D01*
X105006418Y-98739869D01*
X104803467Y-98699500D01*
X104803465Y-98699500D01*
X104596535Y-98699500D01*
X104596532Y-98699500D01*
X104393581Y-98739869D01*
X104202402Y-98819058D01*
X104030348Y-98934020D01*
X103884020Y-99080348D01*
X103769058Y-99252402D01*
X103689869Y-99443581D01*
X103649500Y-99646532D01*
X103210499Y-99646532D01*
X103170130Y-99443580D01*
X103090941Y-99252402D01*
X102975977Y-99080345D01*
X102829655Y-98934023D01*
X102829651Y-98934020D01*
X102657597Y-98819058D01*
X102466418Y-98739869D01*
X102263467Y-98699500D01*
X102263465Y-98699500D01*
X102056535Y-98699500D01*
X102056532Y-98699500D01*
X101853581Y-98739869D01*
X101662402Y-98819058D01*
X101490348Y-98934020D01*
X101344020Y-99080348D01*
X101229058Y-99252402D01*
X101149869Y-99443581D01*
X101109500Y-99646532D01*
X90990500Y-99646532D01*
X90990500Y-99624108D01*
X90956392Y-99496814D01*
X90956390Y-99496811D01*
X90956390Y-99496809D01*
X90890503Y-99382690D01*
X90890501Y-99382688D01*
X90890500Y-99382686D01*
X90797314Y-99289500D01*
X90797311Y-99289498D01*
X90797309Y-99289496D01*
X90683189Y-99223609D01*
X90683191Y-99223609D01*
X90633799Y-99210375D01*
X90555892Y-99189500D01*
X90424108Y-99189500D01*
X90346200Y-99210375D01*
X90296809Y-99223609D01*
X90182690Y-99289496D01*
X90089496Y-99382690D01*
X90023609Y-99496809D01*
X90023608Y-99496814D01*
X89989500Y-99624108D01*
X83813405Y-99624108D01*
X83796392Y-99560614D01*
X83796389Y-99560609D01*
X83730503Y-99446490D01*
X83730501Y-99446488D01*
X83730500Y-99446486D01*
X83637314Y-99353300D01*
X83637311Y-99353298D01*
X83637309Y-99353296D01*
X83523189Y-99287409D01*
X83523191Y-99287409D01*
X83473799Y-99274175D01*
X83395892Y-99253300D01*
X83264108Y-99253300D01*
X83186200Y-99274175D01*
X83136809Y-99287409D01*
X83022690Y-99353296D01*
X82929496Y-99446490D01*
X82863609Y-99560609D01*
X82863608Y-99560614D01*
X82829500Y-99687908D01*
X77439704Y-99687908D01*
X77390503Y-99602690D01*
X77390501Y-99602688D01*
X77390500Y-99602686D01*
X77297314Y-99509500D01*
X77297311Y-99509498D01*
X77297309Y-99509496D01*
X77183189Y-99443609D01*
X77183191Y-99443609D01*
X77133799Y-99430375D01*
X77055892Y-99409500D01*
X76924108Y-99409500D01*
X76846200Y-99430375D01*
X76796809Y-99443609D01*
X76682690Y-99509496D01*
X76589496Y-99602690D01*
X76523609Y-99716809D01*
X76523608Y-99716814D01*
X76489500Y-99844108D01*
X69350500Y-99844108D01*
X69350500Y-99320252D01*
X69338867Y-99261769D01*
X69294552Y-99195448D01*
X69294548Y-99195445D01*
X69228233Y-99151134D01*
X69228231Y-99151133D01*
X69228228Y-99151132D01*
X69228227Y-99151132D01*
X69169758Y-99139501D01*
X69169748Y-99139500D01*
X67430252Y-99139500D01*
X67430251Y-99139500D01*
X67430241Y-99139501D01*
X67371772Y-99151132D01*
X67371766Y-99151134D01*
X67305451Y-99195445D01*
X67305445Y-99195451D01*
X67261134Y-99261766D01*
X67261132Y-99261772D01*
X67249501Y-99320241D01*
X67249500Y-99320253D01*
X66640500Y-99320253D01*
X66640500Y-98527273D01*
X71089500Y-98527273D01*
X71089500Y-98632727D01*
X71116793Y-98734587D01*
X71116794Y-98734589D01*
X71116794Y-98734590D01*
X71150636Y-98793205D01*
X71169520Y-98825913D01*
X71244087Y-98900480D01*
X71335413Y-98953207D01*
X71437273Y-98980500D01*
X71437275Y-98980500D01*
X71542725Y-98980500D01*
X71542727Y-98980500D01*
X71644587Y-98953207D01*
X71735913Y-98900480D01*
X71810480Y-98825913D01*
X71863207Y-98734587D01*
X71890500Y-98632727D01*
X71890500Y-98527273D01*
X71868216Y-98444108D01*
X80169500Y-98444108D01*
X80169500Y-98575892D01*
X80191317Y-98657314D01*
X80203609Y-98703190D01*
X80269496Y-98817309D01*
X80269498Y-98817311D01*
X80269500Y-98817314D01*
X80362686Y-98910500D01*
X80362688Y-98910501D01*
X80362690Y-98910503D01*
X80476810Y-98976390D01*
X80476808Y-98976390D01*
X80476812Y-98976391D01*
X80476814Y-98976392D01*
X80604108Y-99010500D01*
X80604110Y-99010500D01*
X80735890Y-99010500D01*
X80735892Y-99010500D01*
X80863186Y-98976392D01*
X80863188Y-98976390D01*
X80863190Y-98976390D01*
X80977309Y-98910503D01*
X80977309Y-98910502D01*
X80977314Y-98910500D01*
X81070500Y-98817314D01*
X81071032Y-98816392D01*
X81136390Y-98703190D01*
X81136390Y-98703188D01*
X81136392Y-98703186D01*
X81170500Y-98575892D01*
X81170500Y-98444108D01*
X81149912Y-98367273D01*
X84069500Y-98367273D01*
X84069500Y-98472727D01*
X84096793Y-98574587D01*
X84096794Y-98574589D01*
X84096794Y-98574590D01*
X84130360Y-98632727D01*
X84149520Y-98665913D01*
X84224087Y-98740480D01*
X84315413Y-98793207D01*
X84417273Y-98820500D01*
X84417275Y-98820500D01*
X84522725Y-98820500D01*
X84522727Y-98820500D01*
X84624587Y-98793207D01*
X84715913Y-98740480D01*
X84790480Y-98665913D01*
X84843207Y-98574587D01*
X84870500Y-98472727D01*
X84870500Y-98367273D01*
X84848216Y-98284108D01*
X87309500Y-98284108D01*
X87309500Y-98415892D01*
X87324728Y-98472725D01*
X87343609Y-98543190D01*
X87409496Y-98657309D01*
X87409498Y-98657311D01*
X87409500Y-98657314D01*
X87502686Y-98750500D01*
X87502688Y-98750501D01*
X87502690Y-98750503D01*
X87616810Y-98816390D01*
X87616808Y-98816390D01*
X87616812Y-98816391D01*
X87616814Y-98816392D01*
X87744108Y-98850500D01*
X87744110Y-98850500D01*
X87875890Y-98850500D01*
X87875892Y-98850500D01*
X88003186Y-98816392D01*
X88003188Y-98816390D01*
X88003190Y-98816390D01*
X88117309Y-98750503D01*
X88117309Y-98750502D01*
X88117314Y-98750500D01*
X88210500Y-98657314D01*
X88210503Y-98657309D01*
X88276390Y-98543190D01*
X88276390Y-98543188D01*
X88276392Y-98543186D01*
X88310500Y-98415892D01*
X88310500Y-98284108D01*
X88276392Y-98156814D01*
X88276390Y-98156811D01*
X88276390Y-98156809D01*
X88236155Y-98087122D01*
X88236153Y-98087119D01*
X88211321Y-98044108D01*
X91109500Y-98044108D01*
X91109500Y-98175892D01*
X91133486Y-98265409D01*
X91143609Y-98303190D01*
X91209496Y-98417309D01*
X91209498Y-98417311D01*
X91209500Y-98417314D01*
X91302686Y-98510500D01*
X91302688Y-98510501D01*
X91302690Y-98510503D01*
X91416810Y-98576390D01*
X91416808Y-98576390D01*
X91416812Y-98576391D01*
X91416814Y-98576392D01*
X91544108Y-98610500D01*
X91544110Y-98610500D01*
X91675890Y-98610500D01*
X91675892Y-98610500D01*
X91803186Y-98576392D01*
X91803188Y-98576390D01*
X91803190Y-98576390D01*
X91917309Y-98510503D01*
X91917309Y-98510502D01*
X91917314Y-98510500D01*
X92010500Y-98417314D01*
X92039391Y-98367274D01*
X92041219Y-98364108D01*
X97699500Y-98364108D01*
X97699500Y-98495892D01*
X97720586Y-98574587D01*
X97733609Y-98623190D01*
X97799496Y-98737309D01*
X97799498Y-98737311D01*
X97799500Y-98737314D01*
X97892686Y-98830500D01*
X97892688Y-98830501D01*
X97892690Y-98830503D01*
X98006810Y-98896390D01*
X98006808Y-98896390D01*
X98006812Y-98896391D01*
X98006814Y-98896392D01*
X98134108Y-98930500D01*
X98134110Y-98930500D01*
X98265890Y-98930500D01*
X98265892Y-98930500D01*
X98393186Y-98896392D01*
X98393188Y-98896390D01*
X98393190Y-98896390D01*
X98507309Y-98830503D01*
X98507309Y-98830502D01*
X98507314Y-98830500D01*
X98600500Y-98737314D01*
X98602073Y-98734589D01*
X98666390Y-98623190D01*
X98666390Y-98623188D01*
X98666392Y-98623186D01*
X98700500Y-98495892D01*
X98700500Y-98364108D01*
X98666392Y-98236814D01*
X98666390Y-98236811D01*
X98666390Y-98236809D01*
X98600503Y-98122690D01*
X98600501Y-98122688D01*
X98600500Y-98122686D01*
X98507314Y-98029500D01*
X98507311Y-98029498D01*
X98507309Y-98029496D01*
X98393189Y-97963609D01*
X98393191Y-97963609D01*
X98340519Y-97949496D01*
X98265892Y-97929500D01*
X98134108Y-97929500D01*
X98059481Y-97949496D01*
X98006809Y-97963609D01*
X97892690Y-98029496D01*
X97799496Y-98122690D01*
X97733609Y-98236809D01*
X97727261Y-98260500D01*
X97699500Y-98364108D01*
X92041219Y-98364108D01*
X92073545Y-98308119D01*
X92075822Y-98304171D01*
X92076392Y-98303186D01*
X92110500Y-98175892D01*
X92110500Y-98044108D01*
X92076392Y-97916814D01*
X92076390Y-97916811D01*
X92076390Y-97916809D01*
X92010503Y-97802690D01*
X92010501Y-97802688D01*
X92010500Y-97802686D01*
X91917314Y-97709500D01*
X91917311Y-97709498D01*
X91917309Y-97709496D01*
X91803189Y-97643609D01*
X91803191Y-97643609D01*
X91753799Y-97630375D01*
X91675892Y-97609500D01*
X91544108Y-97609500D01*
X91466200Y-97630375D01*
X91416809Y-97643609D01*
X91302690Y-97709496D01*
X91209496Y-97802690D01*
X91143609Y-97916809D01*
X91143608Y-97916814D01*
X91109500Y-98044108D01*
X88211321Y-98044108D01*
X88210500Y-98042686D01*
X88117314Y-97949500D01*
X88117311Y-97949498D01*
X88117309Y-97949496D01*
X88003189Y-97883609D01*
X88003191Y-97883609D01*
X87953799Y-97870375D01*
X87875892Y-97849500D01*
X87744108Y-97849500D01*
X87666200Y-97870375D01*
X87616809Y-97883609D01*
X87502690Y-97949496D01*
X87409496Y-98042690D01*
X87343609Y-98156809D01*
X87338496Y-98175892D01*
X87309500Y-98284108D01*
X84848216Y-98284108D01*
X84843207Y-98265413D01*
X84840370Y-98260500D01*
X84790481Y-98174089D01*
X84790480Y-98174087D01*
X84715913Y-98099520D01*
X84624587Y-98046793D01*
X84522727Y-98019500D01*
X84417273Y-98019500D01*
X84315413Y-98046793D01*
X84315412Y-98046793D01*
X84315410Y-98046794D01*
X84315409Y-98046794D01*
X84224089Y-98099518D01*
X84149518Y-98174089D01*
X84096794Y-98265409D01*
X84096794Y-98265410D01*
X84096793Y-98265412D01*
X84096793Y-98265413D01*
X84069500Y-98367273D01*
X81149912Y-98367273D01*
X81136392Y-98316814D01*
X81136390Y-98316811D01*
X81136390Y-98316809D01*
X81070503Y-98202690D01*
X81070501Y-98202688D01*
X81070500Y-98202686D01*
X80977314Y-98109500D01*
X80977311Y-98109498D01*
X80977309Y-98109496D01*
X80863189Y-98043609D01*
X80863191Y-98043609D01*
X80797393Y-98025979D01*
X80735892Y-98009500D01*
X80604108Y-98009500D01*
X80542607Y-98025979D01*
X80476809Y-98043609D01*
X80362690Y-98109496D01*
X80269496Y-98202690D01*
X80203609Y-98316809D01*
X80203608Y-98316814D01*
X80169500Y-98444108D01*
X71868216Y-98444108D01*
X71863207Y-98425413D01*
X71829640Y-98367274D01*
X71810481Y-98334089D01*
X71810480Y-98334087D01*
X71735913Y-98259520D01*
X71696576Y-98236809D01*
X71644589Y-98206794D01*
X71644588Y-98206793D01*
X71644587Y-98206793D01*
X71542727Y-98179500D01*
X71437273Y-98179500D01*
X71335413Y-98206793D01*
X71335412Y-98206793D01*
X71335410Y-98206794D01*
X71335409Y-98206794D01*
X71244089Y-98259518D01*
X71169518Y-98334089D01*
X71116794Y-98425409D01*
X71116794Y-98425410D01*
X71116793Y-98425412D01*
X71116793Y-98425413D01*
X71089500Y-98527273D01*
X66640500Y-98527273D01*
X66640500Y-97106532D01*
X101109500Y-97106532D01*
X101109500Y-97313467D01*
X101149869Y-97516418D01*
X101229058Y-97707597D01*
X101229059Y-97707598D01*
X101344023Y-97879655D01*
X101490345Y-98025977D01*
X101662402Y-98140941D01*
X101853580Y-98220130D01*
X102056535Y-98260500D01*
X102056536Y-98260500D01*
X102263464Y-98260500D01*
X102263465Y-98260500D01*
X102466420Y-98220130D01*
X102657598Y-98140941D01*
X102829655Y-98025977D01*
X102975977Y-97879655D01*
X103090941Y-97707598D01*
X103170130Y-97516420D01*
X103210500Y-97313465D01*
X103210500Y-97106535D01*
X103210499Y-97106532D01*
X103649500Y-97106532D01*
X103649500Y-97313467D01*
X103689869Y-97516418D01*
X103769058Y-97707597D01*
X103769059Y-97707598D01*
X103884023Y-97879655D01*
X104030345Y-98025977D01*
X104202402Y-98140941D01*
X104393580Y-98220130D01*
X104596535Y-98260500D01*
X104596536Y-98260500D01*
X104803464Y-98260500D01*
X104803465Y-98260500D01*
X105006420Y-98220130D01*
X105197598Y-98140941D01*
X105369655Y-98025977D01*
X105515977Y-97879655D01*
X105630941Y-97707598D01*
X105710130Y-97516420D01*
X105750500Y-97313465D01*
X105750500Y-97106535D01*
X105710130Y-96903580D01*
X105630941Y-96712402D01*
X105515977Y-96540345D01*
X105369655Y-96394023D01*
X105197598Y-96279059D01*
X105197599Y-96279059D01*
X105197597Y-96279058D01*
X105006418Y-96199869D01*
X104803467Y-96159500D01*
X104803465Y-96159500D01*
X104596535Y-96159500D01*
X104596532Y-96159500D01*
X104393581Y-96199869D01*
X104202402Y-96279058D01*
X104030348Y-96394020D01*
X103884020Y-96540348D01*
X103769058Y-96712402D01*
X103689869Y-96903581D01*
X103649500Y-97106532D01*
X103210499Y-97106532D01*
X103170130Y-96903580D01*
X103090941Y-96712402D01*
X102975977Y-96540345D01*
X102829655Y-96394023D01*
X102657598Y-96279059D01*
X102657599Y-96279059D01*
X102657597Y-96279058D01*
X102466418Y-96199869D01*
X102263467Y-96159500D01*
X102263465Y-96159500D01*
X102056535Y-96159500D01*
X102056532Y-96159500D01*
X101853581Y-96199869D01*
X101662402Y-96279058D01*
X101490348Y-96394020D01*
X101344020Y-96540348D01*
X101229058Y-96712402D01*
X101149869Y-96903581D01*
X101109500Y-97106532D01*
X66640500Y-97106532D01*
X66640500Y-94644108D01*
X70939500Y-94644108D01*
X70939500Y-94775892D01*
X70969579Y-94888151D01*
X70973609Y-94903190D01*
X71039496Y-95017309D01*
X71039498Y-95017311D01*
X71039500Y-95017314D01*
X71132686Y-95110500D01*
X71132688Y-95110501D01*
X71132690Y-95110503D01*
X71246810Y-95176390D01*
X71246808Y-95176390D01*
X71246812Y-95176391D01*
X71246814Y-95176392D01*
X71374108Y-95210500D01*
X71374110Y-95210500D01*
X71505890Y-95210500D01*
X71505892Y-95210500D01*
X71633186Y-95176392D01*
X71633188Y-95176390D01*
X71633190Y-95176390D01*
X71747309Y-95110503D01*
X71747309Y-95110502D01*
X71747314Y-95110500D01*
X71840500Y-95017314D01*
X71864110Y-94976420D01*
X71906390Y-94903190D01*
X71906390Y-94903188D01*
X71906392Y-94903186D01*
X71940500Y-94775892D01*
X71940500Y-94644108D01*
X71919714Y-94566532D01*
X101109500Y-94566532D01*
X101109500Y-94773467D01*
X101149869Y-94976418D01*
X101229058Y-95167597D01*
X101234935Y-95176392D01*
X101344023Y-95339655D01*
X101490345Y-95485977D01*
X101662402Y-95600941D01*
X101853580Y-95680130D01*
X102056535Y-95720500D01*
X102056536Y-95720500D01*
X102263464Y-95720500D01*
X102263465Y-95720500D01*
X102466420Y-95680130D01*
X102657598Y-95600941D01*
X102829655Y-95485977D01*
X102975977Y-95339655D01*
X103090941Y-95167598D01*
X103170130Y-94976420D01*
X103210500Y-94773465D01*
X103210500Y-94566535D01*
X103170130Y-94363580D01*
X103090941Y-94172402D01*
X102975977Y-94000345D01*
X102829655Y-93854023D01*
X102657598Y-93739059D01*
X102657599Y-93739059D01*
X102657597Y-93739058D01*
X102466418Y-93659869D01*
X102263467Y-93619500D01*
X102263465Y-93619500D01*
X102056535Y-93619500D01*
X102056532Y-93619500D01*
X101853581Y-93659869D01*
X101662402Y-93739058D01*
X101490348Y-93854020D01*
X101344020Y-94000348D01*
X101229058Y-94172402D01*
X101149869Y-94363581D01*
X101109500Y-94566532D01*
X71919714Y-94566532D01*
X71906392Y-94516814D01*
X71906389Y-94516809D01*
X71840503Y-94402690D01*
X71840501Y-94402688D01*
X71840500Y-94402686D01*
X71747314Y-94309500D01*
X71747311Y-94309498D01*
X71747309Y-94309496D01*
X71633189Y-94243609D01*
X71633191Y-94243609D01*
X71583799Y-94230375D01*
X71505892Y-94209500D01*
X71374108Y-94209500D01*
X71296200Y-94230375D01*
X71246809Y-94243609D01*
X71132690Y-94309496D01*
X71039496Y-94402690D01*
X70973609Y-94516809D01*
X70973608Y-94516814D01*
X70939500Y-94644108D01*
X66640500Y-94644108D01*
X66640500Y-91637273D01*
X86579500Y-91637273D01*
X86579500Y-91742727D01*
X86601165Y-91823581D01*
X86606794Y-91844589D01*
X86606794Y-91844590D01*
X86637419Y-91897633D01*
X86659520Y-91935913D01*
X86734087Y-92010480D01*
X86825413Y-92063207D01*
X86927273Y-92090500D01*
X86927275Y-92090500D01*
X87032725Y-92090500D01*
X87032727Y-92090500D01*
X87134587Y-92063207D01*
X87198110Y-92026532D01*
X101109500Y-92026532D01*
X101109500Y-92233467D01*
X101149869Y-92436418D01*
X101229058Y-92627597D01*
X101344020Y-92799651D01*
X101344023Y-92799655D01*
X101490345Y-92945977D01*
X101662402Y-93060941D01*
X101853580Y-93140130D01*
X102056535Y-93180500D01*
X102056536Y-93180500D01*
X102263464Y-93180500D01*
X102263465Y-93180500D01*
X102466420Y-93140130D01*
X102657598Y-93060941D01*
X102829655Y-92945977D01*
X102975977Y-92799655D01*
X103090941Y-92627598D01*
X103170130Y-92436420D01*
X103179762Y-92387996D01*
X103209656Y-92334613D01*
X103265221Y-92308996D01*
X103325231Y-92320932D01*
X103366764Y-92365861D01*
X103374640Y-92391822D01*
X103383241Y-92446122D01*
X103448904Y-92648215D01*
X103545376Y-92837553D01*
X103545380Y-92837559D01*
X103584728Y-92891716D01*
X103584729Y-92891716D01*
X104217037Y-92259407D01*
X104234075Y-92322993D01*
X104299901Y-92437007D01*
X104392993Y-92530099D01*
X104507007Y-92595925D01*
X104570589Y-92612962D01*
X103938282Y-93245269D01*
X103938282Y-93245270D01*
X103992440Y-93284619D01*
X103992446Y-93284623D01*
X104181784Y-93381095D01*
X104383878Y-93446759D01*
X104438176Y-93455359D01*
X104492692Y-93483136D01*
X104520470Y-93537653D01*
X104510899Y-93598085D01*
X104467634Y-93641350D01*
X104442003Y-93650238D01*
X104393581Y-93659869D01*
X104202402Y-93739058D01*
X104030348Y-93854020D01*
X103884020Y-94000348D01*
X103769058Y-94172402D01*
X103689869Y-94363581D01*
X103649500Y-94566532D01*
X103649500Y-94773467D01*
X103689869Y-94976418D01*
X103769058Y-95167597D01*
X103774935Y-95176392D01*
X103884023Y-95339655D01*
X104030345Y-95485977D01*
X104202402Y-95600941D01*
X104393580Y-95680130D01*
X104596535Y-95720500D01*
X104596536Y-95720500D01*
X104803464Y-95720500D01*
X104803465Y-95720500D01*
X105006420Y-95680130D01*
X105197598Y-95600941D01*
X105369655Y-95485977D01*
X105515977Y-95339655D01*
X105630941Y-95167598D01*
X105710130Y-94976420D01*
X105750500Y-94773465D01*
X105750500Y-94566535D01*
X105710130Y-94363580D01*
X105630941Y-94172402D01*
X105515977Y-94000345D01*
X105369655Y-93854023D01*
X105197598Y-93739059D01*
X105197599Y-93739059D01*
X105197597Y-93739058D01*
X105006418Y-93659869D01*
X104957996Y-93650238D01*
X104904612Y-93620341D01*
X104878996Y-93564776D01*
X104890933Y-93504766D01*
X104935863Y-93463234D01*
X104961823Y-93455359D01*
X105016121Y-93446759D01*
X105218215Y-93381095D01*
X105407556Y-93284620D01*
X105461716Y-93245270D01*
X104829408Y-92612962D01*
X104892993Y-92595925D01*
X105007007Y-92530099D01*
X105100099Y-92437007D01*
X105165925Y-92322993D01*
X105182962Y-92259408D01*
X105815270Y-92891716D01*
X105854620Y-92837556D01*
X105951095Y-92648215D01*
X106016759Y-92446121D01*
X106050000Y-92236250D01*
X106050000Y-92023749D01*
X106016759Y-91813878D01*
X105951095Y-91611784D01*
X105854623Y-91422446D01*
X105854619Y-91422440D01*
X105815270Y-91368282D01*
X105815269Y-91368282D01*
X105182962Y-92000589D01*
X105165925Y-91937007D01*
X105100099Y-91822993D01*
X105007007Y-91729901D01*
X104892993Y-91664075D01*
X104829407Y-91647037D01*
X105461716Y-91014729D01*
X105461716Y-91014728D01*
X105407559Y-90975380D01*
X105407553Y-90975376D01*
X105218215Y-90878904D01*
X105016122Y-90813241D01*
X104961822Y-90804640D01*
X104907306Y-90776862D01*
X104879529Y-90722345D01*
X104889101Y-90661913D01*
X104932366Y-90618649D01*
X104957993Y-90609762D01*
X105006420Y-90600130D01*
X105197598Y-90520941D01*
X105369655Y-90405977D01*
X105515977Y-90259655D01*
X105630941Y-90087598D01*
X105710130Y-89896420D01*
X105750500Y-89693465D01*
X105750500Y-89486535D01*
X105710130Y-89283580D01*
X105630941Y-89092402D01*
X105515977Y-88920345D01*
X105369655Y-88774023D01*
X105197598Y-88659059D01*
X105197599Y-88659059D01*
X105197597Y-88659058D01*
X105006418Y-88579869D01*
X104803467Y-88539500D01*
X104803465Y-88539500D01*
X104596535Y-88539500D01*
X104596532Y-88539500D01*
X104393581Y-88579869D01*
X104202402Y-88659058D01*
X104030348Y-88774020D01*
X103884020Y-88920348D01*
X103769058Y-89092402D01*
X103689869Y-89283581D01*
X103649500Y-89486532D01*
X103649500Y-89693467D01*
X103689869Y-89896418D01*
X103769058Y-90087597D01*
X103769059Y-90087598D01*
X103884023Y-90259655D01*
X104030345Y-90405977D01*
X104202402Y-90520941D01*
X104393580Y-90600130D01*
X104442003Y-90609762D01*
X104495386Y-90639657D01*
X104521003Y-90695221D01*
X104509067Y-90755231D01*
X104464138Y-90796765D01*
X104438177Y-90804640D01*
X104383877Y-90813241D01*
X104181784Y-90878904D01*
X103992446Y-90975376D01*
X103992442Y-90975378D01*
X103938282Y-91014728D01*
X104570591Y-91647037D01*
X104507007Y-91664075D01*
X104392993Y-91729901D01*
X104299901Y-91822993D01*
X104234075Y-91937007D01*
X104217037Y-92000591D01*
X103584728Y-91368282D01*
X103545378Y-91422442D01*
X103545376Y-91422446D01*
X103448904Y-91611784D01*
X103383241Y-91813877D01*
X103374640Y-91868177D01*
X103346862Y-91922694D01*
X103292345Y-91950470D01*
X103231913Y-91940898D01*
X103188649Y-91897633D01*
X103179762Y-91872006D01*
X103170130Y-91823580D01*
X103090941Y-91632402D01*
X102975977Y-91460345D01*
X102829655Y-91314023D01*
X102829651Y-91314020D01*
X102657597Y-91199058D01*
X102466418Y-91119869D01*
X102263467Y-91079500D01*
X102263465Y-91079500D01*
X102056535Y-91079500D01*
X102056532Y-91079500D01*
X101853581Y-91119869D01*
X101662402Y-91199058D01*
X101490348Y-91314020D01*
X101344020Y-91460348D01*
X101229058Y-91632402D01*
X101149869Y-91823581D01*
X101109500Y-92026532D01*
X87198110Y-92026532D01*
X87225913Y-92010480D01*
X87300480Y-91935913D01*
X87353207Y-91844587D01*
X87380500Y-91742727D01*
X87380500Y-91637273D01*
X87353207Y-91535413D01*
X87344585Y-91520480D01*
X87309868Y-91460348D01*
X87300480Y-91444087D01*
X87225913Y-91369520D01*
X87200053Y-91354590D01*
X87134589Y-91316794D01*
X87134588Y-91316793D01*
X87134587Y-91316793D01*
X87032727Y-91289500D01*
X86927273Y-91289500D01*
X86825413Y-91316793D01*
X86825412Y-91316793D01*
X86825410Y-91316794D01*
X86825409Y-91316794D01*
X86734089Y-91369518D01*
X86659518Y-91444089D01*
X86606794Y-91535409D01*
X86606794Y-91535410D01*
X86606793Y-91535412D01*
X86606793Y-91535413D01*
X86579500Y-91637273D01*
X66640500Y-91637273D01*
X66640500Y-91147273D01*
X71059500Y-91147273D01*
X71059500Y-91252727D01*
X71076667Y-91316794D01*
X71086794Y-91354589D01*
X71086794Y-91354590D01*
X71138467Y-91444089D01*
X71139520Y-91445913D01*
X71214087Y-91520480D01*
X71305413Y-91573207D01*
X71407273Y-91600500D01*
X71407275Y-91600500D01*
X71512725Y-91600500D01*
X71512727Y-91600500D01*
X71614587Y-91573207D01*
X71705913Y-91520480D01*
X71780480Y-91445913D01*
X71833207Y-91354587D01*
X71860500Y-91252727D01*
X71860500Y-91147273D01*
X71833207Y-91045413D01*
X71780480Y-90954087D01*
X71705913Y-90879520D01*
X71704846Y-90878904D01*
X71614589Y-90826794D01*
X71614588Y-90826793D01*
X71614587Y-90826793D01*
X71512727Y-90799500D01*
X71407273Y-90799500D01*
X71305413Y-90826793D01*
X71305412Y-90826793D01*
X71305410Y-90826794D01*
X71305409Y-90826794D01*
X71214089Y-90879518D01*
X71139518Y-90954089D01*
X71086794Y-91045409D01*
X71086794Y-91045410D01*
X71086793Y-91045412D01*
X71086793Y-91045413D01*
X71059500Y-91147273D01*
X66640500Y-91147273D01*
X66640500Y-87314108D01*
X67309500Y-87314108D01*
X67309500Y-87445892D01*
X67328265Y-87515925D01*
X67343609Y-87573190D01*
X67409496Y-87687309D01*
X67409498Y-87687311D01*
X67409500Y-87687314D01*
X67502686Y-87780500D01*
X67502688Y-87780501D01*
X67502690Y-87780503D01*
X67616810Y-87846390D01*
X67616808Y-87846390D01*
X67616812Y-87846391D01*
X67616814Y-87846392D01*
X67744108Y-87880500D01*
X67744110Y-87880500D01*
X67875890Y-87880500D01*
X67875892Y-87880500D01*
X68003186Y-87846392D01*
X68003188Y-87846390D01*
X68003190Y-87846390D01*
X68117309Y-87780503D01*
X68117309Y-87780502D01*
X68117314Y-87780500D01*
X68210500Y-87687314D01*
X68276392Y-87573186D01*
X68310500Y-87445892D01*
X68310500Y-87314108D01*
X68276392Y-87186814D01*
X68276390Y-87186811D01*
X68276390Y-87186809D01*
X68210503Y-87072690D01*
X68210501Y-87072688D01*
X68210500Y-87072686D01*
X68117314Y-86979500D01*
X68117311Y-86979498D01*
X68117309Y-86979496D01*
X68055393Y-86943749D01*
X100810000Y-86943749D01*
X100810000Y-87156250D01*
X100843240Y-87366121D01*
X100908904Y-87568215D01*
X101005376Y-87757553D01*
X101005380Y-87757559D01*
X101044728Y-87811716D01*
X101044729Y-87811716D01*
X101677037Y-87179407D01*
X101694075Y-87242993D01*
X101759901Y-87357007D01*
X101852993Y-87450099D01*
X101967007Y-87515925D01*
X102030589Y-87532962D01*
X101398282Y-88165269D01*
X101398282Y-88165270D01*
X101452440Y-88204619D01*
X101452446Y-88204623D01*
X101641784Y-88301095D01*
X101843878Y-88366759D01*
X101898176Y-88375359D01*
X101952692Y-88403136D01*
X101980470Y-88457653D01*
X101970899Y-88518085D01*
X101927634Y-88561350D01*
X101902003Y-88570238D01*
X101853581Y-88579869D01*
X101662402Y-88659058D01*
X101490348Y-88774020D01*
X101344020Y-88920348D01*
X101229058Y-89092402D01*
X101149869Y-89283581D01*
X101109500Y-89486532D01*
X101109500Y-89693467D01*
X101149869Y-89896418D01*
X101229058Y-90087597D01*
X101229059Y-90087598D01*
X101344023Y-90259655D01*
X101490345Y-90405977D01*
X101662402Y-90520941D01*
X101853580Y-90600130D01*
X102056535Y-90640500D01*
X102056536Y-90640500D01*
X102263464Y-90640500D01*
X102263465Y-90640500D01*
X102466420Y-90600130D01*
X102657598Y-90520941D01*
X102829655Y-90405977D01*
X102975977Y-90259655D01*
X103090941Y-90087598D01*
X103170130Y-89896420D01*
X103210500Y-89693465D01*
X103210500Y-89486535D01*
X103170130Y-89283580D01*
X103090941Y-89092402D01*
X102975977Y-88920345D01*
X102829655Y-88774023D01*
X102657598Y-88659059D01*
X102657599Y-88659059D01*
X102657597Y-88659058D01*
X102466418Y-88579869D01*
X102417996Y-88570238D01*
X102364612Y-88540341D01*
X102338996Y-88484776D01*
X102350933Y-88424766D01*
X102395863Y-88383234D01*
X102421823Y-88375359D01*
X102476121Y-88366759D01*
X102678215Y-88301095D01*
X102867556Y-88204620D01*
X102921716Y-88165270D01*
X102289408Y-87532962D01*
X102352993Y-87515925D01*
X102467007Y-87450099D01*
X102560099Y-87357007D01*
X102625925Y-87242993D01*
X102642962Y-87179408D01*
X103275270Y-87811716D01*
X103314620Y-87757556D01*
X103411095Y-87568215D01*
X103476759Y-87366121D01*
X103485359Y-87311823D01*
X103513136Y-87257307D01*
X103567653Y-87229529D01*
X103628085Y-87239100D01*
X103671349Y-87282365D01*
X103680238Y-87307996D01*
X103689869Y-87356418D01*
X103769058Y-87547597D01*
X103884020Y-87719651D01*
X103884023Y-87719655D01*
X104030345Y-87865977D01*
X104202402Y-87980941D01*
X104393580Y-88060130D01*
X104596535Y-88100500D01*
X104596536Y-88100500D01*
X104803464Y-88100500D01*
X104803465Y-88100500D01*
X105006420Y-88060130D01*
X105197598Y-87980941D01*
X105369655Y-87865977D01*
X105515977Y-87719655D01*
X105630941Y-87547598D01*
X105710130Y-87356420D01*
X105750500Y-87153465D01*
X105750500Y-86946535D01*
X105710130Y-86743580D01*
X105630941Y-86552402D01*
X105515977Y-86380345D01*
X105369655Y-86234023D01*
X105197598Y-86119059D01*
X105197599Y-86119059D01*
X105197597Y-86119058D01*
X105006418Y-86039869D01*
X104803467Y-85999500D01*
X104803465Y-85999500D01*
X104596535Y-85999500D01*
X104596532Y-85999500D01*
X104393581Y-86039869D01*
X104202402Y-86119058D01*
X104030348Y-86234020D01*
X103884020Y-86380348D01*
X103769058Y-86552402D01*
X103689869Y-86743581D01*
X103680238Y-86792003D01*
X103650341Y-86845387D01*
X103594776Y-86871003D01*
X103534766Y-86859066D01*
X103493234Y-86814136D01*
X103485359Y-86788176D01*
X103476759Y-86733878D01*
X103411095Y-86531784D01*
X103314623Y-86342446D01*
X103314619Y-86342440D01*
X103275270Y-86288282D01*
X103275269Y-86288282D01*
X102642962Y-86920589D01*
X102625925Y-86857007D01*
X102560099Y-86742993D01*
X102467007Y-86649901D01*
X102352993Y-86584075D01*
X102289407Y-86567037D01*
X102921716Y-85934729D01*
X102921716Y-85934728D01*
X102867559Y-85895380D01*
X102867553Y-85895376D01*
X102678215Y-85798904D01*
X102476122Y-85733241D01*
X102421822Y-85724640D01*
X102367306Y-85696862D01*
X102339529Y-85642345D01*
X102349101Y-85581913D01*
X102392366Y-85538649D01*
X102417993Y-85529762D01*
X102466420Y-85520130D01*
X102657598Y-85440941D01*
X102829655Y-85325977D01*
X102975977Y-85179655D01*
X103090941Y-85007598D01*
X103170130Y-84816420D01*
X103210500Y-84613465D01*
X103210500Y-84406535D01*
X103170130Y-84203580D01*
X103090941Y-84012402D01*
X102975977Y-83840345D01*
X102829655Y-83694023D01*
X102829651Y-83694020D01*
X102657597Y-83579058D01*
X102466418Y-83499869D01*
X102263467Y-83459500D01*
X102263465Y-83459500D01*
X102056535Y-83459500D01*
X102056532Y-83459500D01*
X101853581Y-83499869D01*
X101662402Y-83579058D01*
X101490348Y-83694020D01*
X101344020Y-83840348D01*
X101229058Y-84012402D01*
X101149869Y-84203581D01*
X101109500Y-84406532D01*
X101109500Y-84613467D01*
X101149869Y-84816418D01*
X101229058Y-85007597D01*
X101229059Y-85007598D01*
X101344023Y-85179655D01*
X101490345Y-85325977D01*
X101662402Y-85440941D01*
X101853580Y-85520130D01*
X101902003Y-85529762D01*
X101955386Y-85559657D01*
X101981003Y-85615221D01*
X101969067Y-85675231D01*
X101924138Y-85716765D01*
X101898177Y-85724640D01*
X101843877Y-85733241D01*
X101641784Y-85798904D01*
X101452446Y-85895376D01*
X101452442Y-85895378D01*
X101398282Y-85934728D01*
X102030591Y-86567037D01*
X101967007Y-86584075D01*
X101852993Y-86649901D01*
X101759901Y-86742993D01*
X101694075Y-86857007D01*
X101677037Y-86920591D01*
X101044728Y-86288282D01*
X101005378Y-86342442D01*
X101005376Y-86342446D01*
X100908904Y-86531784D01*
X100843240Y-86733878D01*
X100810000Y-86943749D01*
X68055393Y-86943749D01*
X68003189Y-86913609D01*
X68003191Y-86913609D01*
X67953799Y-86900375D01*
X67875892Y-86879500D01*
X67744108Y-86879500D01*
X67666200Y-86900375D01*
X67616809Y-86913609D01*
X67502690Y-86979496D01*
X67409496Y-87072690D01*
X67343609Y-87186809D01*
X67343608Y-87186814D01*
X67309500Y-87314108D01*
X66640500Y-87314108D01*
X66640500Y-85317273D01*
X85209500Y-85317273D01*
X85209500Y-85422727D01*
X85235599Y-85520130D01*
X85236794Y-85524589D01*
X85236794Y-85524590D01*
X85257527Y-85560500D01*
X85289520Y-85615913D01*
X85364087Y-85690480D01*
X85455413Y-85743207D01*
X85557273Y-85770500D01*
X85557275Y-85770500D01*
X85662725Y-85770500D01*
X85662727Y-85770500D01*
X85764587Y-85743207D01*
X85855913Y-85690480D01*
X85930480Y-85615913D01*
X85983207Y-85524587D01*
X86010500Y-85422727D01*
X86010500Y-85317273D01*
X85983207Y-85215413D01*
X85930480Y-85124087D01*
X85855913Y-85049520D01*
X85764587Y-84996793D01*
X85662727Y-84969500D01*
X85557273Y-84969500D01*
X85455413Y-84996793D01*
X85455412Y-84996793D01*
X85455410Y-84996794D01*
X85455409Y-84996794D01*
X85364089Y-85049518D01*
X85289518Y-85124089D01*
X85236794Y-85215409D01*
X85236794Y-85215410D01*
X85236793Y-85215412D01*
X85236793Y-85215413D01*
X85209500Y-85317273D01*
X66640500Y-85317273D01*
X66640500Y-83184108D01*
X74404500Y-83184108D01*
X74404500Y-83315892D01*
X74412237Y-83344766D01*
X74438609Y-83443190D01*
X74504496Y-83557309D01*
X74504498Y-83557311D01*
X74504500Y-83557314D01*
X74597686Y-83650500D01*
X74597688Y-83650501D01*
X74597690Y-83650503D01*
X74711810Y-83716390D01*
X74711808Y-83716390D01*
X74711812Y-83716391D01*
X74711814Y-83716392D01*
X74839108Y-83750500D01*
X74839110Y-83750500D01*
X74970890Y-83750500D01*
X74970892Y-83750500D01*
X75098186Y-83716392D01*
X75098188Y-83716390D01*
X75098190Y-83716390D01*
X75212309Y-83650503D01*
X75212309Y-83650502D01*
X75212314Y-83650500D01*
X75305500Y-83557314D01*
X75305503Y-83557309D01*
X75371390Y-83443190D01*
X75371390Y-83443188D01*
X75371392Y-83443186D01*
X75405500Y-83315892D01*
X75405500Y-83184108D01*
X75371392Y-83056814D01*
X75371390Y-83056811D01*
X75371390Y-83056809D01*
X75305503Y-82942690D01*
X75305501Y-82942688D01*
X75305500Y-82942686D01*
X75212314Y-82849500D01*
X75212311Y-82849498D01*
X75212309Y-82849496D01*
X75098189Y-82783609D01*
X75098191Y-82783609D01*
X75048799Y-82770375D01*
X74970892Y-82749500D01*
X74839108Y-82749500D01*
X74761200Y-82770375D01*
X74711809Y-82783609D01*
X74597690Y-82849496D01*
X74504496Y-82942690D01*
X74438609Y-83056809D01*
X74430983Y-83085270D01*
X74404500Y-83184108D01*
X66640500Y-83184108D01*
X66640500Y-81364108D01*
X84509500Y-81364108D01*
X84509500Y-81495892D01*
X84530211Y-81573186D01*
X84543609Y-81623190D01*
X84609496Y-81737309D01*
X84609498Y-81737311D01*
X84609500Y-81737314D01*
X84702686Y-81830500D01*
X84702688Y-81830501D01*
X84702690Y-81830503D01*
X84816810Y-81896390D01*
X84816808Y-81896390D01*
X84816812Y-81896391D01*
X84816814Y-81896392D01*
X84944108Y-81930500D01*
X84944110Y-81930500D01*
X85075890Y-81930500D01*
X85075892Y-81930500D01*
X85203186Y-81896392D01*
X85203188Y-81896390D01*
X85203190Y-81896390D01*
X85317309Y-81830503D01*
X85317309Y-81830502D01*
X85317314Y-81830500D01*
X85410500Y-81737314D01*
X85439368Y-81687314D01*
X85476390Y-81623190D01*
X85476390Y-81623188D01*
X85476392Y-81623186D01*
X85510500Y-81495892D01*
X85510500Y-81364108D01*
X85497103Y-81314108D01*
X87049500Y-81314108D01*
X87049500Y-81445892D01*
X87065090Y-81504075D01*
X87083609Y-81573190D01*
X87149496Y-81687309D01*
X87149498Y-81687311D01*
X87149500Y-81687314D01*
X87242686Y-81780500D01*
X87242688Y-81780501D01*
X87242690Y-81780503D01*
X87356810Y-81846390D01*
X87356808Y-81846390D01*
X87356812Y-81846391D01*
X87356814Y-81846392D01*
X87484108Y-81880500D01*
X87484110Y-81880500D01*
X87615890Y-81880500D01*
X87615892Y-81880500D01*
X87668022Y-81866532D01*
X101109500Y-81866532D01*
X101109500Y-82073467D01*
X101149869Y-82276418D01*
X101229058Y-82467597D01*
X101344020Y-82639651D01*
X101344023Y-82639655D01*
X101490345Y-82785977D01*
X101662402Y-82900941D01*
X101853580Y-82980130D01*
X102056535Y-83020500D01*
X102056536Y-83020500D01*
X102263464Y-83020500D01*
X102263465Y-83020500D01*
X102466420Y-82980130D01*
X102657598Y-82900941D01*
X102829655Y-82785977D01*
X102975977Y-82639655D01*
X103090941Y-82467598D01*
X103170130Y-82276420D01*
X103179762Y-82227996D01*
X103209656Y-82174613D01*
X103265221Y-82148996D01*
X103325231Y-82160932D01*
X103366764Y-82205861D01*
X103374640Y-82231822D01*
X103383241Y-82286122D01*
X103448904Y-82488215D01*
X103545376Y-82677553D01*
X103545380Y-82677559D01*
X103584728Y-82731716D01*
X103584729Y-82731716D01*
X104217037Y-82099407D01*
X104234075Y-82162993D01*
X104299901Y-82277007D01*
X104392993Y-82370099D01*
X104507007Y-82435925D01*
X104570589Y-82452962D01*
X103938282Y-83085269D01*
X103938282Y-83085270D01*
X103992440Y-83124619D01*
X103992446Y-83124623D01*
X104181784Y-83221095D01*
X104383878Y-83286759D01*
X104438176Y-83295359D01*
X104492692Y-83323136D01*
X104520470Y-83377653D01*
X104510899Y-83438085D01*
X104467634Y-83481350D01*
X104442003Y-83490238D01*
X104393581Y-83499869D01*
X104202402Y-83579058D01*
X104030348Y-83694020D01*
X103884020Y-83840348D01*
X103769058Y-84012402D01*
X103689869Y-84203581D01*
X103649500Y-84406532D01*
X103649500Y-84613467D01*
X103689869Y-84816418D01*
X103769058Y-85007597D01*
X103769059Y-85007598D01*
X103884023Y-85179655D01*
X104030345Y-85325977D01*
X104202402Y-85440941D01*
X104393580Y-85520130D01*
X104596535Y-85560500D01*
X104596536Y-85560500D01*
X104803464Y-85560500D01*
X104803465Y-85560500D01*
X105006420Y-85520130D01*
X105197598Y-85440941D01*
X105369655Y-85325977D01*
X105515977Y-85179655D01*
X105630941Y-85007598D01*
X105710130Y-84816420D01*
X105750500Y-84613465D01*
X105750500Y-84406535D01*
X105710130Y-84203580D01*
X105630941Y-84012402D01*
X105515977Y-83840345D01*
X105369655Y-83694023D01*
X105369651Y-83694020D01*
X105197597Y-83579058D01*
X105006418Y-83499869D01*
X104957996Y-83490238D01*
X104904612Y-83460341D01*
X104878996Y-83404776D01*
X104890933Y-83344766D01*
X104935863Y-83303234D01*
X104961823Y-83295359D01*
X105016121Y-83286759D01*
X105218215Y-83221095D01*
X105407556Y-83124620D01*
X105461716Y-83085270D01*
X104829408Y-82452962D01*
X104892993Y-82435925D01*
X105007007Y-82370099D01*
X105100099Y-82277007D01*
X105165925Y-82162993D01*
X105182962Y-82099408D01*
X105815270Y-82731716D01*
X105854620Y-82677556D01*
X105951095Y-82488215D01*
X106016759Y-82286121D01*
X106050000Y-82076250D01*
X106050000Y-81863749D01*
X106016759Y-81653878D01*
X105951095Y-81451784D01*
X105854623Y-81262446D01*
X105854619Y-81262440D01*
X105815270Y-81208282D01*
X105815269Y-81208282D01*
X105182962Y-81840589D01*
X105165925Y-81777007D01*
X105100099Y-81662993D01*
X105007007Y-81569901D01*
X104892993Y-81504075D01*
X104829407Y-81487037D01*
X105461716Y-80854729D01*
X105461716Y-80854728D01*
X105407559Y-80815380D01*
X105407553Y-80815376D01*
X105218215Y-80718904D01*
X105016122Y-80653241D01*
X104961822Y-80644640D01*
X104907306Y-80616862D01*
X104879529Y-80562345D01*
X104889101Y-80501913D01*
X104932366Y-80458649D01*
X104957993Y-80449762D01*
X105006420Y-80440130D01*
X105197598Y-80360941D01*
X105369655Y-80245977D01*
X105515977Y-80099655D01*
X105630941Y-79927598D01*
X105710130Y-79736420D01*
X105750500Y-79533465D01*
X105750500Y-79326535D01*
X105710130Y-79123580D01*
X105630941Y-78932402D01*
X105515977Y-78760345D01*
X105369655Y-78614023D01*
X105369651Y-78614020D01*
X105197597Y-78499058D01*
X105006418Y-78419869D01*
X104803467Y-78379500D01*
X104803465Y-78379500D01*
X104596535Y-78379500D01*
X104596532Y-78379500D01*
X104393581Y-78419869D01*
X104202402Y-78499058D01*
X104030348Y-78614020D01*
X103884020Y-78760348D01*
X103769058Y-78932402D01*
X103689869Y-79123581D01*
X103649500Y-79326532D01*
X103649500Y-79533467D01*
X103689869Y-79736418D01*
X103769058Y-79927597D01*
X103880317Y-80094109D01*
X103884023Y-80099655D01*
X104030345Y-80245977D01*
X104202402Y-80360941D01*
X104393580Y-80440130D01*
X104442003Y-80449762D01*
X104495386Y-80479657D01*
X104521003Y-80535221D01*
X104509067Y-80595231D01*
X104464138Y-80636765D01*
X104438177Y-80644640D01*
X104383877Y-80653241D01*
X104181784Y-80718904D01*
X103992446Y-80815376D01*
X103992442Y-80815378D01*
X103938282Y-80854728D01*
X104570591Y-81487037D01*
X104507007Y-81504075D01*
X104392993Y-81569901D01*
X104299901Y-81662993D01*
X104234075Y-81777007D01*
X104217037Y-81840591D01*
X103584728Y-81208282D01*
X103545378Y-81262442D01*
X103545376Y-81262446D01*
X103448904Y-81451784D01*
X103383241Y-81653877D01*
X103374640Y-81708177D01*
X103346862Y-81762694D01*
X103292345Y-81790470D01*
X103231913Y-81780898D01*
X103188649Y-81737633D01*
X103179762Y-81712006D01*
X103170130Y-81663580D01*
X103090941Y-81472402D01*
X102975977Y-81300345D01*
X102829655Y-81154023D01*
X102809388Y-81140481D01*
X102657597Y-81039058D01*
X102466418Y-80959869D01*
X102263467Y-80919500D01*
X102263465Y-80919500D01*
X102056535Y-80919500D01*
X102056532Y-80919500D01*
X101853581Y-80959869D01*
X101662402Y-81039058D01*
X101490348Y-81154020D01*
X101344020Y-81300348D01*
X101229058Y-81472402D01*
X101149869Y-81663581D01*
X101109500Y-81866532D01*
X87668022Y-81866532D01*
X87743186Y-81846392D01*
X87743188Y-81846390D01*
X87743190Y-81846390D01*
X87857309Y-81780503D01*
X87857309Y-81780502D01*
X87857314Y-81780500D01*
X87950500Y-81687314D01*
X87964542Y-81662993D01*
X88016390Y-81573190D01*
X88016390Y-81573188D01*
X88016392Y-81573186D01*
X88050500Y-81445892D01*
X88050500Y-81314108D01*
X88016392Y-81186814D01*
X88016390Y-81186811D01*
X88016390Y-81186809D01*
X87950503Y-81072690D01*
X87950501Y-81072688D01*
X87950500Y-81072686D01*
X87857314Y-80979500D01*
X87857311Y-80979498D01*
X87857309Y-80979496D01*
X87743189Y-80913609D01*
X87743191Y-80913609D01*
X87693799Y-80900375D01*
X87615892Y-80879500D01*
X87484108Y-80879500D01*
X87406200Y-80900375D01*
X87356809Y-80913609D01*
X87242690Y-80979496D01*
X87149496Y-81072690D01*
X87083609Y-81186809D01*
X87074582Y-81220500D01*
X87049500Y-81314108D01*
X85497103Y-81314108D01*
X85476392Y-81236814D01*
X85476390Y-81236811D01*
X85476390Y-81236809D01*
X85410503Y-81122690D01*
X85410501Y-81122688D01*
X85410500Y-81122686D01*
X85317314Y-81029500D01*
X85317311Y-81029498D01*
X85317309Y-81029496D01*
X85203189Y-80963609D01*
X85203191Y-80963609D01*
X85153799Y-80950375D01*
X85075892Y-80929500D01*
X84944108Y-80929500D01*
X84866200Y-80950375D01*
X84816809Y-80963609D01*
X84702690Y-81029496D01*
X84609496Y-81122690D01*
X84543609Y-81236809D01*
X84536741Y-81262442D01*
X84509500Y-81364108D01*
X66640500Y-81364108D01*
X66640500Y-80094108D01*
X68439500Y-80094108D01*
X68439500Y-80225892D01*
X68454728Y-80282725D01*
X68473609Y-80353190D01*
X68539496Y-80467309D01*
X68539498Y-80467311D01*
X68539500Y-80467314D01*
X68632686Y-80560500D01*
X68632688Y-80560501D01*
X68632690Y-80560503D01*
X68746810Y-80626390D01*
X68746808Y-80626390D01*
X68746812Y-80626391D01*
X68746814Y-80626392D01*
X68874108Y-80660500D01*
X68874110Y-80660500D01*
X69005890Y-80660500D01*
X69005892Y-80660500D01*
X69133186Y-80626392D01*
X69133188Y-80626390D01*
X69133190Y-80626390D01*
X69247309Y-80560503D01*
X69247309Y-80560502D01*
X69247314Y-80560500D01*
X69340500Y-80467314D01*
X69353257Y-80445218D01*
X69406390Y-80353190D01*
X69406390Y-80353188D01*
X69406392Y-80353186D01*
X69440500Y-80225892D01*
X69440500Y-80217273D01*
X85569500Y-80217273D01*
X85569500Y-80322727D01*
X85596793Y-80424587D01*
X85596794Y-80424589D01*
X85596794Y-80424590D01*
X85641437Y-80501913D01*
X85649520Y-80515913D01*
X85724087Y-80590480D01*
X85815413Y-80643207D01*
X85917273Y-80670500D01*
X85917275Y-80670500D01*
X86022726Y-80670500D01*
X86022727Y-80670500D01*
X86034874Y-80667245D01*
X86095974Y-80670444D01*
X86143526Y-80708947D01*
X86159500Y-80762870D01*
X86159500Y-80767273D01*
X86159500Y-80872727D01*
X86186793Y-80974587D01*
X86186794Y-80974589D01*
X86186794Y-80974590D01*
X86239518Y-81065910D01*
X86239520Y-81065913D01*
X86314087Y-81140480D01*
X86405413Y-81193207D01*
X86507273Y-81220500D01*
X86507275Y-81220500D01*
X86612725Y-81220500D01*
X86612727Y-81220500D01*
X86714587Y-81193207D01*
X86805913Y-81140480D01*
X86880480Y-81065913D01*
X86933207Y-80974587D01*
X86960500Y-80872727D01*
X86960500Y-80767273D01*
X86933207Y-80665413D01*
X86930370Y-80660500D01*
X86880479Y-80574086D01*
X86866561Y-80560167D01*
X86838784Y-80505649D01*
X86848358Y-80445218D01*
X86850814Y-80440692D01*
X86883207Y-80384587D01*
X86910500Y-80282727D01*
X86910500Y-80177273D01*
X86883207Y-80075413D01*
X86830480Y-79984087D01*
X86755913Y-79909520D01*
X86733869Y-79896793D01*
X86664589Y-79856794D01*
X86664588Y-79856793D01*
X86664587Y-79856793D01*
X86562727Y-79829500D01*
X86457273Y-79829500D01*
X86355413Y-79856793D01*
X86355412Y-79856793D01*
X86355410Y-79856794D01*
X86355409Y-79856794D01*
X86258468Y-79912764D01*
X86257464Y-79911025D01*
X86208425Y-79928372D01*
X86156369Y-79915142D01*
X86124588Y-79896793D01*
X86090633Y-79887695D01*
X86022727Y-79869500D01*
X85917273Y-79869500D01*
X85815413Y-79896793D01*
X85815412Y-79896793D01*
X85815410Y-79896794D01*
X85815409Y-79896794D01*
X85724089Y-79949518D01*
X85649518Y-80024089D01*
X85596794Y-80115409D01*
X85596794Y-80115410D01*
X85596793Y-80115412D01*
X85596793Y-80115413D01*
X85569500Y-80217273D01*
X69440500Y-80217273D01*
X69440500Y-80094108D01*
X69406392Y-79966814D01*
X69406390Y-79966811D01*
X69406390Y-79966809D01*
X69340503Y-79852690D01*
X69340501Y-79852688D01*
X69340500Y-79852686D01*
X69247314Y-79759500D01*
X69247311Y-79759498D01*
X69247309Y-79759496D01*
X69133189Y-79693609D01*
X69133191Y-79693609D01*
X69083799Y-79680375D01*
X69005892Y-79659500D01*
X68874108Y-79659500D01*
X68796200Y-79680375D01*
X68746809Y-79693609D01*
X68632690Y-79759496D01*
X68539496Y-79852690D01*
X68473609Y-79966809D01*
X68473608Y-79966814D01*
X68439500Y-80094108D01*
X66640500Y-80094108D01*
X66640500Y-77264108D01*
X74329500Y-77264108D01*
X74329500Y-77395892D01*
X74355143Y-77491593D01*
X74363609Y-77523190D01*
X74429496Y-77637309D01*
X74429498Y-77637311D01*
X74429500Y-77637314D01*
X74522686Y-77730500D01*
X74522688Y-77730501D01*
X74522690Y-77730503D01*
X74636810Y-77796390D01*
X74636808Y-77796390D01*
X74636812Y-77796391D01*
X74636814Y-77796392D01*
X74764108Y-77830500D01*
X74764110Y-77830500D01*
X74895890Y-77830500D01*
X74895892Y-77830500D01*
X75023186Y-77796392D01*
X75023188Y-77796390D01*
X75023190Y-77796390D01*
X75137309Y-77730503D01*
X75137309Y-77730502D01*
X75137314Y-77730500D01*
X75230500Y-77637314D01*
X75275137Y-77560001D01*
X75296390Y-77523190D01*
X75296390Y-77523188D01*
X75296392Y-77523186D01*
X75330500Y-77395892D01*
X75330500Y-77264108D01*
X75303008Y-77161506D01*
X81130000Y-77161506D01*
X81130000Y-77309999D01*
X81130001Y-77310000D01*
X81830000Y-77310000D01*
X81830000Y-77810000D01*
X81130001Y-77810000D01*
X81130000Y-77810001D01*
X81130000Y-77958493D01*
X81168429Y-78151688D01*
X81168429Y-78151690D01*
X81243808Y-78333673D01*
X81243814Y-78333685D01*
X81353249Y-78497462D01*
X81353252Y-78497466D01*
X81492533Y-78636747D01*
X81492537Y-78636750D01*
X81656314Y-78746185D01*
X81656326Y-78746191D01*
X81838310Y-78821570D01*
X81979968Y-78849748D01*
X82033352Y-78879645D01*
X82056280Y-78921222D01*
X82074905Y-78990729D01*
X82074906Y-78990732D01*
X82089438Y-79025818D01*
X82141657Y-79116263D01*
X82164768Y-79146381D01*
X82164771Y-79146384D01*
X82164775Y-79146389D01*
X82238611Y-79220225D01*
X82238615Y-79220228D01*
X82238618Y-79220231D01*
X82268736Y-79243342D01*
X82268740Y-79243344D01*
X82268745Y-79243348D01*
X82359177Y-79295559D01*
X82359178Y-79295559D01*
X82359181Y-79295561D01*
X82394263Y-79310092D01*
X82394266Y-79310092D01*
X82394269Y-79310094D01*
X82495132Y-79337120D01*
X82532790Y-79342078D01*
X82532791Y-79342078D01*
X82637209Y-79342078D01*
X82637210Y-79342078D01*
X82674868Y-79337120D01*
X82775731Y-79310094D01*
X82810823Y-79295559D01*
X82901255Y-79243348D01*
X82931389Y-79220225D01*
X83005225Y-79146389D01*
X83016786Y-79131322D01*
X83028342Y-79116263D01*
X83028342Y-79116262D01*
X83028348Y-79116255D01*
X83080559Y-79025823D01*
X83095094Y-78990731D01*
X83096254Y-78986399D01*
X83129570Y-78935083D01*
X83186688Y-78913148D01*
X83204294Y-78916172D01*
X83210000Y-78912359D01*
X83210000Y-78400001D01*
X83710000Y-78400001D01*
X83710000Y-78912360D01*
X83838941Y-78858951D01*
X83969969Y-78771400D01*
X83969973Y-78771397D01*
X84081397Y-78659973D01*
X84081400Y-78659969D01*
X84168947Y-78528949D01*
X84168951Y-78528940D01*
X84222361Y-78400000D01*
X83710001Y-78400000D01*
X83710000Y-78400001D01*
X83210000Y-78400001D01*
X83210000Y-78249000D01*
X83228907Y-78190809D01*
X83260000Y-78168218D01*
X83260000Y-78189782D01*
X83290448Y-78263291D01*
X83346709Y-78319552D01*
X83420218Y-78350000D01*
X83499782Y-78350000D01*
X83573291Y-78319552D01*
X83629552Y-78263291D01*
X83660000Y-78189782D01*
X83660000Y-78110218D01*
X83629552Y-78036709D01*
X83573291Y-77980448D01*
X83499782Y-77950000D01*
X83475920Y-77950000D01*
X83478907Y-77940809D01*
X83491592Y-77931592D01*
X83500809Y-77918907D01*
X83515721Y-77914061D01*
X83528407Y-77904845D01*
X83559000Y-77900000D01*
X83611895Y-77900000D01*
X83661392Y-77913261D01*
X83666814Y-77916392D01*
X83794108Y-77950500D01*
X83794110Y-77950500D01*
X83925890Y-77950500D01*
X83925892Y-77950500D01*
X84053186Y-77916392D01*
X84058607Y-77913261D01*
X84108105Y-77900000D01*
X84222361Y-77900000D01*
X84230993Y-77887081D01*
X84238187Y-77881408D01*
X84242219Y-77873181D01*
X84261716Y-77862859D01*
X84279042Y-77849200D01*
X84288197Y-77848840D01*
X84296294Y-77844554D01*
X84314618Y-77847802D01*
X84340180Y-77846798D01*
X84356869Y-77853179D01*
X84359889Y-77854659D01*
X84466814Y-77916392D01*
X84508892Y-77927666D01*
X84517530Y-77931899D01*
X84532924Y-77946819D01*
X84550907Y-77958497D01*
X84554422Y-77967655D01*
X84561466Y-77974482D01*
X84565150Y-77995601D01*
X84572834Y-78015618D01*
X84571258Y-78030613D01*
X84571981Y-78034757D01*
X84570506Y-78037766D01*
X84569597Y-78046422D01*
X84559500Y-78084105D01*
X84559500Y-78084108D01*
X84559500Y-78215892D01*
X84587275Y-78319552D01*
X84593609Y-78343190D01*
X84659496Y-78457309D01*
X84659498Y-78457311D01*
X84659500Y-78457314D01*
X84752686Y-78550500D01*
X84752688Y-78550501D01*
X84752690Y-78550503D01*
X84866810Y-78616390D01*
X84866808Y-78616390D01*
X84866812Y-78616391D01*
X84866814Y-78616392D01*
X84994108Y-78650500D01*
X84994110Y-78650500D01*
X85125890Y-78650500D01*
X85125892Y-78650500D01*
X85253186Y-78616392D01*
X85253188Y-78616390D01*
X85253190Y-78616390D01*
X85367309Y-78550503D01*
X85367309Y-78550502D01*
X85367314Y-78550500D01*
X85389998Y-78527815D01*
X85444513Y-78500040D01*
X85504945Y-78509611D01*
X85530000Y-78527814D01*
X85552686Y-78550500D01*
X85552688Y-78550501D01*
X85552690Y-78550503D01*
X85666810Y-78616390D01*
X85666808Y-78616390D01*
X85666812Y-78616391D01*
X85666814Y-78616392D01*
X85794108Y-78650500D01*
X85794110Y-78650500D01*
X85925890Y-78650500D01*
X85925892Y-78650500D01*
X86053186Y-78616392D01*
X86053188Y-78616390D01*
X86053190Y-78616390D01*
X86167309Y-78550503D01*
X86167309Y-78550502D01*
X86167314Y-78550500D01*
X86189998Y-78527815D01*
X86244513Y-78500040D01*
X86304945Y-78509611D01*
X86330000Y-78527814D01*
X86352686Y-78550500D01*
X86352688Y-78550501D01*
X86352690Y-78550503D01*
X86466810Y-78616390D01*
X86466808Y-78616390D01*
X86466812Y-78616391D01*
X86466814Y-78616392D01*
X86594108Y-78650500D01*
X86594110Y-78650500D01*
X86725890Y-78650500D01*
X86725892Y-78650500D01*
X86853186Y-78616392D01*
X86853188Y-78616390D01*
X86853190Y-78616390D01*
X86967309Y-78550503D01*
X86967309Y-78550502D01*
X86967314Y-78550500D01*
X86989998Y-78527815D01*
X87044513Y-78500040D01*
X87104945Y-78509611D01*
X87130000Y-78527814D01*
X87152686Y-78550500D01*
X87152688Y-78550501D01*
X87152690Y-78550503D01*
X87266810Y-78616390D01*
X87266808Y-78616390D01*
X87266812Y-78616391D01*
X87266814Y-78616392D01*
X87394108Y-78650500D01*
X87394110Y-78650500D01*
X87525890Y-78650500D01*
X87525892Y-78650500D01*
X87653186Y-78616392D01*
X87653188Y-78616390D01*
X87653190Y-78616390D01*
X87767309Y-78550503D01*
X87767309Y-78550502D01*
X87767314Y-78550500D01*
X87860500Y-78457314D01*
X87893590Y-78400000D01*
X88297639Y-78400000D01*
X88351048Y-78528940D01*
X88351052Y-78528949D01*
X88438599Y-78659969D01*
X88438602Y-78659973D01*
X88550026Y-78771397D01*
X88550030Y-78771400D01*
X88681058Y-78858951D01*
X88809999Y-78912360D01*
X88810000Y-78912359D01*
X88810000Y-78400001D01*
X88809999Y-78400000D01*
X88297639Y-78400000D01*
X87893590Y-78400000D01*
X87926389Y-78343191D01*
X87926390Y-78343191D01*
X87926390Y-78343188D01*
X87926392Y-78343186D01*
X87960500Y-78215892D01*
X87960500Y-78084108D01*
X87950402Y-78046421D01*
X87953604Y-77985323D01*
X87992110Y-77937773D01*
X88002469Y-77931899D01*
X88011105Y-77927667D01*
X88053186Y-77916392D01*
X88160115Y-77854655D01*
X88163130Y-77853179D01*
X88190246Y-77849317D01*
X88217038Y-77843623D01*
X88220237Y-77845047D01*
X88223705Y-77844554D01*
X88247910Y-77857368D01*
X88272933Y-77868509D01*
X88276297Y-77872395D01*
X88277780Y-77873181D01*
X88278828Y-77875320D01*
X88289006Y-77887080D01*
X88297639Y-77900000D01*
X88411895Y-77900000D01*
X88461392Y-77913261D01*
X88466814Y-77916392D01*
X88594108Y-77950500D01*
X88594110Y-77950500D01*
X88725890Y-77950500D01*
X88725892Y-77950500D01*
X88853186Y-77916392D01*
X88858607Y-77913261D01*
X88908105Y-77900000D01*
X88961000Y-77900000D01*
X89019191Y-77918907D01*
X89041781Y-77950000D01*
X89020218Y-77950000D01*
X88946709Y-77980448D01*
X88890448Y-78036709D01*
X88860000Y-78110218D01*
X88860000Y-78189782D01*
X88890448Y-78263291D01*
X88946709Y-78319552D01*
X89020218Y-78350000D01*
X89099782Y-78350000D01*
X89173291Y-78319552D01*
X89229552Y-78263291D01*
X89260000Y-78189782D01*
X89260000Y-78165920D01*
X89269191Y-78168907D01*
X89305155Y-78218407D01*
X89310000Y-78249000D01*
X89310000Y-78912359D01*
X89318879Y-78918292D01*
X89351226Y-78915747D01*
X89403395Y-78947716D01*
X89423742Y-78986389D01*
X89424905Y-78990729D01*
X89424907Y-78990734D01*
X89439438Y-79025818D01*
X89491657Y-79116263D01*
X89514768Y-79146381D01*
X89514771Y-79146384D01*
X89514775Y-79146389D01*
X89588611Y-79220225D01*
X89588615Y-79220228D01*
X89588618Y-79220231D01*
X89618736Y-79243342D01*
X89618740Y-79243344D01*
X89618745Y-79243348D01*
X89709177Y-79295559D01*
X89709178Y-79295559D01*
X89709181Y-79295561D01*
X89744263Y-79310092D01*
X89744266Y-79310092D01*
X89744269Y-79310094D01*
X89845132Y-79337120D01*
X89882790Y-79342078D01*
X89882791Y-79342078D01*
X89987209Y-79342078D01*
X89987210Y-79342078D01*
X90024868Y-79337120D01*
X90064383Y-79326532D01*
X101109500Y-79326532D01*
X101109500Y-79533467D01*
X101149869Y-79736418D01*
X101229058Y-79927597D01*
X101340317Y-80094109D01*
X101344023Y-80099655D01*
X101490345Y-80245977D01*
X101662402Y-80360941D01*
X101853580Y-80440130D01*
X102056535Y-80480500D01*
X102056536Y-80480500D01*
X102263464Y-80480500D01*
X102263465Y-80480500D01*
X102466420Y-80440130D01*
X102657598Y-80360941D01*
X102829655Y-80245977D01*
X102975977Y-80099655D01*
X103090941Y-79927598D01*
X103170130Y-79736420D01*
X103210500Y-79533465D01*
X103210500Y-79326535D01*
X103170130Y-79123580D01*
X103090941Y-78932402D01*
X102975977Y-78760345D01*
X102829655Y-78614023D01*
X102829651Y-78614020D01*
X102657597Y-78499058D01*
X102466418Y-78419869D01*
X102263467Y-78379500D01*
X102263465Y-78379500D01*
X102056535Y-78379500D01*
X102056532Y-78379500D01*
X101853581Y-78419869D01*
X101662402Y-78499058D01*
X101490348Y-78614020D01*
X101344020Y-78760348D01*
X101229058Y-78932402D01*
X101149869Y-79123581D01*
X101109500Y-79326532D01*
X90064383Y-79326532D01*
X90125731Y-79310094D01*
X90160823Y-79295559D01*
X90251255Y-79243348D01*
X90251263Y-79243342D01*
X90251539Y-79243131D01*
X90251540Y-79243130D01*
X90265046Y-79232765D01*
X90281389Y-79220225D01*
X90355225Y-79146389D01*
X90366786Y-79131322D01*
X90378342Y-79116263D01*
X90378342Y-79116262D01*
X90378348Y-79116255D01*
X90430559Y-79025823D01*
X90445094Y-78990731D01*
X90463718Y-78921221D01*
X90497042Y-78869909D01*
X90540031Y-78849748D01*
X90681688Y-78821570D01*
X90681690Y-78821570D01*
X90863673Y-78746191D01*
X90863685Y-78746185D01*
X91027462Y-78636750D01*
X91027466Y-78636747D01*
X91166747Y-78497466D01*
X91166750Y-78497462D01*
X91276185Y-78333685D01*
X91276191Y-78333673D01*
X91351570Y-78151690D01*
X91351570Y-78151688D01*
X91389999Y-77958493D01*
X91390000Y-77958490D01*
X91390000Y-77810001D01*
X91389999Y-77810000D01*
X90690000Y-77810000D01*
X90690000Y-77310000D01*
X91389999Y-77310000D01*
X91390000Y-77309999D01*
X91390000Y-77161509D01*
X91389999Y-77161506D01*
X91351570Y-76968311D01*
X91351570Y-76968309D01*
X91276191Y-76786326D01*
X91276185Y-76786314D01*
X91166750Y-76622537D01*
X91166747Y-76622533D01*
X91027466Y-76483252D01*
X91027462Y-76483249D01*
X90863685Y-76373814D01*
X90863673Y-76373808D01*
X90681691Y-76298429D01*
X90640000Y-76290136D01*
X90640000Y-77093511D01*
X90630060Y-77076295D01*
X90574205Y-77020440D01*
X90505796Y-76980944D01*
X90429496Y-76960500D01*
X90350504Y-76960500D01*
X90274204Y-76980944D01*
X90205795Y-77020440D01*
X90149940Y-77076295D01*
X90140000Y-77093511D01*
X90140000Y-76290136D01*
X90098308Y-76298429D01*
X89916326Y-76373808D01*
X89916314Y-76373814D01*
X89752537Y-76483249D01*
X89752533Y-76483252D01*
X89613252Y-76622533D01*
X89613249Y-76622537D01*
X89503814Y-76786314D01*
X89503808Y-76786326D01*
X89428429Y-76968309D01*
X89428429Y-76968311D01*
X89390000Y-77161506D01*
X89390000Y-77279335D01*
X89382261Y-77303151D01*
X89377377Y-77327708D01*
X89372954Y-77331795D01*
X89371093Y-77337526D01*
X89350832Y-77352246D01*
X89332448Y-77369241D01*
X89326466Y-77369948D01*
X89321593Y-77373490D01*
X89271687Y-77376433D01*
X89212448Y-77364650D01*
X89159063Y-77334754D01*
X89136135Y-77293177D01*
X89126392Y-77256814D01*
X89126389Y-77256808D01*
X89060503Y-77142690D01*
X89060501Y-77142688D01*
X89060500Y-77142686D01*
X88967314Y-77049500D01*
X88967311Y-77049498D01*
X88967309Y-77049496D01*
X88853189Y-76983609D01*
X88853191Y-76983609D01*
X88796089Y-76968309D01*
X88725892Y-76949500D01*
X88594108Y-76949500D01*
X88523911Y-76968309D01*
X88466809Y-76983609D01*
X88352690Y-77049496D01*
X88352684Y-77049501D01*
X88330002Y-77072183D01*
X88275485Y-77099959D01*
X88215053Y-77090387D01*
X88189998Y-77072183D01*
X88167315Y-77049501D01*
X88167309Y-77049496D01*
X88053189Y-76983609D01*
X88053191Y-76983609D01*
X87996089Y-76968309D01*
X87925892Y-76949500D01*
X87794108Y-76949500D01*
X87723911Y-76968309D01*
X87666809Y-76983609D01*
X87552690Y-77049496D01*
X87552684Y-77049501D01*
X87530002Y-77072183D01*
X87475485Y-77099959D01*
X87415053Y-77090387D01*
X87389998Y-77072183D01*
X87367315Y-77049501D01*
X87367309Y-77049496D01*
X87253189Y-76983609D01*
X87253191Y-76983609D01*
X87196089Y-76968309D01*
X87125892Y-76949500D01*
X86994108Y-76949500D01*
X86923911Y-76968309D01*
X86866809Y-76983609D01*
X86752690Y-77049496D01*
X86659496Y-77142690D01*
X86593609Y-77256809D01*
X86583865Y-77293175D01*
X86559500Y-77384108D01*
X86559500Y-77515892D01*
X86564252Y-77533629D01*
X86569597Y-77553576D01*
X86566394Y-77614678D01*
X86527888Y-77662227D01*
X86499594Y-77674824D01*
X86466814Y-77683607D01*
X86466810Y-77683609D01*
X86352690Y-77749496D01*
X86352684Y-77749501D01*
X86330002Y-77772183D01*
X86275485Y-77799959D01*
X86215053Y-77790387D01*
X86189998Y-77772183D01*
X86167315Y-77749501D01*
X86167309Y-77749496D01*
X86053189Y-77683609D01*
X86053190Y-77683609D01*
X86046702Y-77681870D01*
X86020405Y-77674824D01*
X85969091Y-77641500D01*
X85947165Y-77584379D01*
X85950403Y-77553574D01*
X85953747Y-77541093D01*
X85960500Y-77515892D01*
X85960500Y-77384108D01*
X85926392Y-77256814D01*
X85926390Y-77256811D01*
X85926390Y-77256809D01*
X85860503Y-77142690D01*
X85860501Y-77142688D01*
X85860500Y-77142686D01*
X85767314Y-77049500D01*
X85767311Y-77049498D01*
X85767309Y-77049496D01*
X85653189Y-76983609D01*
X85653191Y-76983609D01*
X85596089Y-76968309D01*
X85525892Y-76949500D01*
X85394108Y-76949500D01*
X85323911Y-76968309D01*
X85266809Y-76983609D01*
X85152690Y-77049496D01*
X85152684Y-77049501D01*
X85130002Y-77072183D01*
X85075485Y-77099959D01*
X85015053Y-77090387D01*
X84989998Y-77072183D01*
X84967315Y-77049501D01*
X84967309Y-77049496D01*
X84853189Y-76983609D01*
X84853191Y-76983609D01*
X84796089Y-76968309D01*
X84725892Y-76949500D01*
X84594108Y-76949500D01*
X84523911Y-76968309D01*
X84466809Y-76983609D01*
X84352690Y-77049496D01*
X84352684Y-77049501D01*
X84330002Y-77072183D01*
X84275485Y-77099959D01*
X84215053Y-77090387D01*
X84189998Y-77072183D01*
X84167315Y-77049501D01*
X84167309Y-77049496D01*
X84053189Y-76983609D01*
X84053191Y-76983609D01*
X83996089Y-76968309D01*
X83925892Y-76949500D01*
X83794108Y-76949500D01*
X83723911Y-76968309D01*
X83666809Y-76983609D01*
X83552690Y-77049496D01*
X83459496Y-77142690D01*
X83393609Y-77256810D01*
X83393608Y-77256811D01*
X83383863Y-77293178D01*
X83370899Y-77313139D01*
X83360935Y-77334753D01*
X83354533Y-77338337D01*
X83350537Y-77344492D01*
X83307551Y-77364650D01*
X83248314Y-77376433D01*
X83187553Y-77369241D01*
X83142623Y-77327709D01*
X83130000Y-77279335D01*
X83130000Y-77161509D01*
X83129999Y-77161506D01*
X83091570Y-76968311D01*
X83091570Y-76968309D01*
X83016191Y-76786326D01*
X83016185Y-76786314D01*
X82906750Y-76622537D01*
X82906747Y-76622533D01*
X82767466Y-76483252D01*
X82767462Y-76483249D01*
X82603685Y-76373814D01*
X82603673Y-76373808D01*
X82421691Y-76298429D01*
X82380000Y-76290136D01*
X82380000Y-77093511D01*
X82370060Y-77076295D01*
X82314205Y-77020440D01*
X82245796Y-76980944D01*
X82169496Y-76960500D01*
X82090504Y-76960500D01*
X82014204Y-76980944D01*
X81945795Y-77020440D01*
X81889940Y-77076295D01*
X81880000Y-77093511D01*
X81880000Y-76290136D01*
X81838308Y-76298429D01*
X81656326Y-76373808D01*
X81656314Y-76373814D01*
X81492537Y-76483249D01*
X81492533Y-76483252D01*
X81353252Y-76622533D01*
X81353249Y-76622537D01*
X81243814Y-76786314D01*
X81243808Y-76786326D01*
X81168429Y-76968309D01*
X81168429Y-76968311D01*
X81130000Y-77161506D01*
X75303008Y-77161506D01*
X75296392Y-77136814D01*
X75296390Y-77136811D01*
X75296390Y-77136809D01*
X75230503Y-77022690D01*
X75230501Y-77022688D01*
X75230500Y-77022686D01*
X75137314Y-76929500D01*
X75137311Y-76929498D01*
X75137309Y-76929496D01*
X75023189Y-76863609D01*
X75023191Y-76863609D01*
X74973799Y-76850375D01*
X74895892Y-76829500D01*
X74764108Y-76829500D01*
X74686200Y-76850375D01*
X74636809Y-76863609D01*
X74522690Y-76929496D01*
X74429496Y-77022690D01*
X74363609Y-77136809D01*
X74361494Y-77144704D01*
X74329500Y-77264108D01*
X66640500Y-77264108D01*
X66640500Y-76390077D01*
X77125974Y-76390077D01*
X77125974Y-76390078D01*
X77231234Y-76433678D01*
X77376128Y-76462499D01*
X77376132Y-76462500D01*
X77523868Y-76462500D01*
X77523871Y-76462499D01*
X77668764Y-76433678D01*
X77668770Y-76433676D01*
X77774023Y-76390077D01*
X78305974Y-76390077D01*
X78305974Y-76390078D01*
X78411234Y-76433678D01*
X78556128Y-76462499D01*
X78556132Y-76462500D01*
X78703868Y-76462500D01*
X78703871Y-76462499D01*
X78848764Y-76433678D01*
X78848770Y-76433676D01*
X78954023Y-76390077D01*
X78629999Y-76066053D01*
X78305974Y-76390077D01*
X77774023Y-76390077D01*
X77449999Y-76066053D01*
X77125974Y-76390077D01*
X66640500Y-76390077D01*
X66640500Y-75638628D01*
X76700000Y-75638628D01*
X76700000Y-75786371D01*
X76728822Y-75931266D01*
X76728822Y-75931268D01*
X76772420Y-76036524D01*
X77096446Y-75712499D01*
X77076556Y-75692609D01*
X77350000Y-75692609D01*
X77350000Y-75732391D01*
X77365224Y-75769145D01*
X77393355Y-75797276D01*
X77430109Y-75812500D01*
X77469891Y-75812500D01*
X77506645Y-75797276D01*
X77534776Y-75769145D01*
X77550000Y-75732391D01*
X77550000Y-75712500D01*
X77803553Y-75712500D01*
X78039999Y-75948945D01*
X78276446Y-75712499D01*
X78256556Y-75692609D01*
X78530000Y-75692609D01*
X78530000Y-75732391D01*
X78545224Y-75769145D01*
X78573355Y-75797276D01*
X78610109Y-75812500D01*
X78649891Y-75812500D01*
X78686645Y-75797276D01*
X78714776Y-75769145D01*
X78730000Y-75732391D01*
X78730000Y-75712499D01*
X78983553Y-75712499D01*
X79307577Y-76036523D01*
X79314317Y-76020253D01*
X101109500Y-76020253D01*
X101109500Y-77759746D01*
X101109501Y-77759758D01*
X101121132Y-77818227D01*
X101121134Y-77818233D01*
X101157850Y-77873181D01*
X101165448Y-77884552D01*
X101231769Y-77928867D01*
X101276231Y-77937711D01*
X101290241Y-77940498D01*
X101290246Y-77940498D01*
X101290252Y-77940500D01*
X101290253Y-77940500D01*
X103029747Y-77940500D01*
X103029748Y-77940500D01*
X103088231Y-77928867D01*
X103154552Y-77884552D01*
X103198867Y-77818231D01*
X103210500Y-77759748D01*
X103210500Y-76786532D01*
X103649500Y-76786532D01*
X103649500Y-76993467D01*
X103689869Y-77196418D01*
X103769058Y-77387597D01*
X103854783Y-77515894D01*
X103884023Y-77559655D01*
X104030345Y-77705977D01*
X104202402Y-77820941D01*
X104393580Y-77900130D01*
X104596535Y-77940500D01*
X104596536Y-77940500D01*
X104803464Y-77940500D01*
X104803465Y-77940500D01*
X105006420Y-77900130D01*
X105197598Y-77820941D01*
X105369655Y-77705977D01*
X105515977Y-77559655D01*
X105630941Y-77387598D01*
X105710130Y-77196420D01*
X105750500Y-76993465D01*
X105750500Y-76786535D01*
X105710130Y-76583580D01*
X105630941Y-76392402D01*
X105515977Y-76220345D01*
X105369655Y-76074023D01*
X105357727Y-76066053D01*
X105197597Y-75959058D01*
X105006418Y-75879869D01*
X104803467Y-75839500D01*
X104803465Y-75839500D01*
X104596535Y-75839500D01*
X104596532Y-75839500D01*
X104393581Y-75879869D01*
X104202402Y-75959058D01*
X104030348Y-76074020D01*
X103884020Y-76220348D01*
X103769058Y-76392402D01*
X103689869Y-76583581D01*
X103649500Y-76786532D01*
X103210500Y-76786532D01*
X103210500Y-76020252D01*
X103198867Y-75961769D01*
X103154552Y-75895448D01*
X103154548Y-75895445D01*
X103088233Y-75851134D01*
X103088231Y-75851133D01*
X103088228Y-75851132D01*
X103088227Y-75851132D01*
X103029758Y-75839501D01*
X103029748Y-75839500D01*
X101290252Y-75839500D01*
X101290251Y-75839500D01*
X101290241Y-75839501D01*
X101231772Y-75851132D01*
X101231766Y-75851134D01*
X101165451Y-75895445D01*
X101165445Y-75895451D01*
X101121134Y-75961766D01*
X101121132Y-75961772D01*
X101109501Y-76020241D01*
X101109500Y-76020253D01*
X79314317Y-76020253D01*
X79332026Y-75977502D01*
X79332026Y-75977501D01*
X79351177Y-75931266D01*
X79351178Y-75931264D01*
X79379999Y-75786371D01*
X79380000Y-75786367D01*
X79380000Y-75638632D01*
X79379999Y-75638628D01*
X79351178Y-75493734D01*
X79307578Y-75388474D01*
X79307577Y-75388474D01*
X78983553Y-75712499D01*
X78730000Y-75712499D01*
X78730000Y-75692609D01*
X78714776Y-75655855D01*
X78686645Y-75627724D01*
X78649891Y-75612500D01*
X78610109Y-75612500D01*
X78573355Y-75627724D01*
X78545224Y-75655855D01*
X78530000Y-75692609D01*
X78256556Y-75692609D01*
X78040000Y-75476053D01*
X77803553Y-75712500D01*
X77550000Y-75712500D01*
X77550000Y-75692609D01*
X77534776Y-75655855D01*
X77506645Y-75627724D01*
X77469891Y-75612500D01*
X77430109Y-75612500D01*
X77393355Y-75627724D01*
X77365224Y-75655855D01*
X77350000Y-75692609D01*
X77076556Y-75692609D01*
X76772421Y-75388474D01*
X76772420Y-75388474D01*
X76728822Y-75493731D01*
X76728822Y-75493733D01*
X76700000Y-75638628D01*
X66640500Y-75638628D01*
X66640500Y-75122500D01*
X77213553Y-75122500D01*
X77449999Y-75358945D01*
X77686445Y-75122500D01*
X78393553Y-75122500D01*
X78629999Y-75358945D01*
X78866446Y-75122499D01*
X78630000Y-74886053D01*
X78393553Y-75122500D01*
X77686445Y-75122500D01*
X77686446Y-75122499D01*
X77450000Y-74886053D01*
X77213553Y-75122500D01*
X66640500Y-75122500D01*
X66640500Y-74458628D01*
X76700000Y-74458628D01*
X76700000Y-74606371D01*
X76728822Y-74751266D01*
X76728822Y-74751268D01*
X76772420Y-74856524D01*
X77096446Y-74532499D01*
X77076556Y-74512609D01*
X77350000Y-74512609D01*
X77350000Y-74552391D01*
X77365224Y-74589145D01*
X77393355Y-74617276D01*
X77430109Y-74632500D01*
X77469891Y-74632500D01*
X77506645Y-74617276D01*
X77534776Y-74589145D01*
X77550000Y-74552391D01*
X77550000Y-74532500D01*
X77803553Y-74532500D01*
X78039999Y-74768945D01*
X78276446Y-74532499D01*
X78256556Y-74512609D01*
X78530000Y-74512609D01*
X78530000Y-74552391D01*
X78545224Y-74589145D01*
X78573355Y-74617276D01*
X78610109Y-74632500D01*
X78649891Y-74632500D01*
X78686645Y-74617276D01*
X78714776Y-74589145D01*
X78730000Y-74552391D01*
X78730000Y-74532499D01*
X78983553Y-74532499D01*
X79307577Y-74856523D01*
X79351176Y-74751270D01*
X79351178Y-74751264D01*
X79379999Y-74606371D01*
X79380000Y-74606367D01*
X79380000Y-74458632D01*
X79379999Y-74458628D01*
X79351178Y-74313734D01*
X79307578Y-74208474D01*
X79307577Y-74208474D01*
X78983553Y-74532499D01*
X78730000Y-74532499D01*
X78730000Y-74512609D01*
X78714776Y-74475855D01*
X78686645Y-74447724D01*
X78649891Y-74432500D01*
X78610109Y-74432500D01*
X78573355Y-74447724D01*
X78545224Y-74475855D01*
X78530000Y-74512609D01*
X78256556Y-74512609D01*
X78040000Y-74296053D01*
X77803553Y-74532500D01*
X77550000Y-74532500D01*
X77550000Y-74512609D01*
X77534776Y-74475855D01*
X77506645Y-74447724D01*
X77469891Y-74432500D01*
X77430109Y-74432500D01*
X77393355Y-74447724D01*
X77365224Y-74475855D01*
X77350000Y-74512609D01*
X77076556Y-74512609D01*
X76772421Y-74208474D01*
X76772420Y-74208474D01*
X76728822Y-74313731D01*
X76728822Y-74313733D01*
X76700000Y-74458628D01*
X66640500Y-74458628D01*
X66640500Y-73854920D01*
X77125974Y-73854920D01*
X77125974Y-73854921D01*
X77449999Y-74178945D01*
X77774024Y-73854920D01*
X78305974Y-73854920D01*
X78305974Y-73854921D01*
X78629999Y-74178945D01*
X78954024Y-73854920D01*
X78848767Y-73811322D01*
X78703871Y-73782500D01*
X78556128Y-73782500D01*
X78411233Y-73811322D01*
X78411231Y-73811322D01*
X78305974Y-73854920D01*
X77774024Y-73854920D01*
X77668767Y-73811322D01*
X77523871Y-73782500D01*
X77376128Y-73782500D01*
X77231233Y-73811322D01*
X77231231Y-73811322D01*
X77125974Y-73854920D01*
X66640500Y-73854920D01*
X66640500Y-72751506D01*
X80770000Y-72751506D01*
X80770000Y-72899999D01*
X80770001Y-72900000D01*
X81470000Y-72900000D01*
X81470000Y-73400000D01*
X80770001Y-73400000D01*
X80770000Y-73400001D01*
X80770000Y-73548493D01*
X80808429Y-73741688D01*
X80808429Y-73741690D01*
X80883808Y-73923673D01*
X80883814Y-73923685D01*
X80993249Y-74087462D01*
X80993252Y-74087466D01*
X81132533Y-74226747D01*
X81132537Y-74226750D01*
X81296314Y-74336185D01*
X81296326Y-74336191D01*
X81478304Y-74411568D01*
X81478315Y-74411571D01*
X81520000Y-74419862D01*
X81520000Y-73616988D01*
X81529940Y-73634205D01*
X81585795Y-73690060D01*
X81654204Y-73729556D01*
X81730504Y-73750000D01*
X81809496Y-73750000D01*
X81885796Y-73729556D01*
X81954205Y-73690060D01*
X82010060Y-73634205D01*
X82020000Y-73616988D01*
X82020000Y-74419861D01*
X82061684Y-74411571D01*
X82061695Y-74411568D01*
X82243673Y-74336191D01*
X82243685Y-74336185D01*
X82407462Y-74226750D01*
X82407466Y-74226747D01*
X82546747Y-74087466D01*
X82546750Y-74087462D01*
X82656185Y-73923685D01*
X82656191Y-73923673D01*
X82731570Y-73741690D01*
X82731570Y-73741688D01*
X82769999Y-73548493D01*
X82770000Y-73548490D01*
X82770000Y-73400001D01*
X82769999Y-73400000D01*
X82070000Y-73400000D01*
X82070000Y-72900000D01*
X82769999Y-72900000D01*
X82770000Y-72899999D01*
X82770000Y-72751509D01*
X82769999Y-72751506D01*
X89750000Y-72751506D01*
X89750000Y-72899999D01*
X89750001Y-72900000D01*
X90450000Y-72900000D01*
X90450000Y-73400000D01*
X89750001Y-73400000D01*
X89750000Y-73400001D01*
X89750000Y-73548493D01*
X89788429Y-73741688D01*
X89788429Y-73741690D01*
X89863808Y-73923673D01*
X89863814Y-73923685D01*
X89973249Y-74087462D01*
X89973252Y-74087466D01*
X90112533Y-74226747D01*
X90112537Y-74226750D01*
X90276314Y-74336185D01*
X90276326Y-74336191D01*
X90458304Y-74411568D01*
X90458315Y-74411571D01*
X90500000Y-74419862D01*
X90500000Y-73616988D01*
X90509940Y-73634205D01*
X90565795Y-73690060D01*
X90634204Y-73729556D01*
X90710504Y-73750000D01*
X90789496Y-73750000D01*
X90865796Y-73729556D01*
X90934205Y-73690060D01*
X90990060Y-73634205D01*
X91000000Y-73616988D01*
X91000000Y-74419861D01*
X91041684Y-74411571D01*
X91041695Y-74411568D01*
X91223673Y-74336191D01*
X91223685Y-74336185D01*
X91387462Y-74226750D01*
X91387466Y-74226747D01*
X91526747Y-74087466D01*
X91526750Y-74087462D01*
X91636185Y-73923685D01*
X91636191Y-73923673D01*
X91711570Y-73741690D01*
X91711570Y-73741688D01*
X91749999Y-73548493D01*
X91750000Y-73548490D01*
X91750000Y-73400001D01*
X91749999Y-73400000D01*
X91050000Y-73400000D01*
X91050000Y-73187824D01*
X95164999Y-73187824D01*
X95171401Y-73247370D01*
X95171403Y-73247381D01*
X95221646Y-73382088D01*
X95221647Y-73382090D01*
X95307807Y-73497184D01*
X95307815Y-73497192D01*
X95422909Y-73583352D01*
X95422911Y-73583353D01*
X95557618Y-73633596D01*
X95557629Y-73633598D01*
X95617176Y-73640000D01*
X96264999Y-73640000D01*
X96265000Y-73639999D01*
X96265000Y-72723012D01*
X96322007Y-72755925D01*
X96449174Y-72790000D01*
X96580826Y-72790000D01*
X96707993Y-72755925D01*
X96765000Y-72723012D01*
X96765000Y-73639999D01*
X96765001Y-73640000D01*
X97412824Y-73640000D01*
X97472370Y-73633598D01*
X97472381Y-73633596D01*
X97607088Y-73583353D01*
X97607090Y-73583352D01*
X97722184Y-73497192D01*
X97722192Y-73497184D01*
X97808352Y-73382090D01*
X97808353Y-73382088D01*
X97858596Y-73247381D01*
X97858598Y-73247370D01*
X97865000Y-73187824D01*
X97865000Y-72659881D01*
X97883907Y-72601690D01*
X97933407Y-72565726D01*
X97994593Y-72565726D01*
X98044093Y-72601690D01*
X98055464Y-72621995D01*
X98124058Y-72787597D01*
X98124059Y-72787598D01*
X98239023Y-72959655D01*
X98385345Y-73105977D01*
X98557402Y-73220941D01*
X98748580Y-73300130D01*
X98951535Y-73340500D01*
X98951536Y-73340500D01*
X99158464Y-73340500D01*
X99158465Y-73340500D01*
X99361420Y-73300130D01*
X99552598Y-73220941D01*
X99724655Y-73105977D01*
X99870977Y-72959655D01*
X99985941Y-72787598D01*
X100065130Y-72596420D01*
X100105500Y-72393465D01*
X100105500Y-72186535D01*
X100065130Y-71983580D01*
X99985941Y-71792402D01*
X99870977Y-71620345D01*
X99724655Y-71474023D01*
X99552598Y-71359059D01*
X99552599Y-71359059D01*
X99552597Y-71359058D01*
X99361418Y-71279869D01*
X99158467Y-71239500D01*
X99158465Y-71239500D01*
X98951535Y-71239500D01*
X98951532Y-71239500D01*
X98748581Y-71279869D01*
X98557402Y-71359058D01*
X98385348Y-71474020D01*
X98239020Y-71620348D01*
X98124058Y-71792402D01*
X98055464Y-71958004D01*
X98015727Y-72004529D01*
X97956232Y-72018813D01*
X97899705Y-71995398D01*
X97867735Y-71943229D01*
X97865000Y-71920118D01*
X97865000Y-71392175D01*
X97858598Y-71332629D01*
X97858596Y-71332618D01*
X97808353Y-71197911D01*
X97808352Y-71197909D01*
X97722192Y-71082815D01*
X97722184Y-71082807D01*
X97607090Y-70996647D01*
X97607088Y-70996646D01*
X97472381Y-70946403D01*
X97472370Y-70946401D01*
X97412824Y-70940000D01*
X96765001Y-70940000D01*
X96765000Y-70940001D01*
X96765000Y-71856988D01*
X96707993Y-71824075D01*
X96580826Y-71790000D01*
X96449174Y-71790000D01*
X96322007Y-71824075D01*
X96265000Y-71856988D01*
X96265000Y-70940001D01*
X96264999Y-70940000D01*
X95617176Y-70940000D01*
X95557629Y-70946401D01*
X95557618Y-70946403D01*
X95422911Y-70996646D01*
X95422909Y-70996647D01*
X95307815Y-71082807D01*
X95307807Y-71082815D01*
X95221647Y-71197909D01*
X95221646Y-71197911D01*
X95171403Y-71332618D01*
X95171401Y-71332629D01*
X95165000Y-71392175D01*
X95165000Y-72039999D01*
X95165001Y-72040000D01*
X96081988Y-72040000D01*
X96049075Y-72097007D01*
X96015000Y-72224174D01*
X96015000Y-72355826D01*
X96049075Y-72482993D01*
X96081988Y-72540000D01*
X95165001Y-72540000D01*
X95165000Y-72540001D01*
X95165000Y-73187824D01*
X95164999Y-73187824D01*
X91050000Y-73187824D01*
X91050000Y-72900000D01*
X91749999Y-72900000D01*
X91750000Y-72899999D01*
X91750000Y-72751509D01*
X91749999Y-72751506D01*
X91711571Y-72558312D01*
X91702693Y-72536879D01*
X91702692Y-72536877D01*
X91636191Y-72376326D01*
X91636185Y-72376314D01*
X91526750Y-72212537D01*
X91526747Y-72212533D01*
X91387466Y-72073252D01*
X91387462Y-72073249D01*
X91223685Y-71963814D01*
X91223673Y-71963808D01*
X91041691Y-71888429D01*
X91000000Y-71880136D01*
X91000000Y-72683011D01*
X90990060Y-72665795D01*
X90934205Y-72609940D01*
X90865796Y-72570444D01*
X90789496Y-72550000D01*
X90710504Y-72550000D01*
X90634204Y-72570444D01*
X90565795Y-72609940D01*
X90509940Y-72665795D01*
X90500000Y-72683011D01*
X90500000Y-71880136D01*
X90458308Y-71888429D01*
X90276326Y-71963808D01*
X90276314Y-71963814D01*
X90112537Y-72073249D01*
X90112533Y-72073252D01*
X89973252Y-72212533D01*
X89973249Y-72212537D01*
X89863814Y-72376314D01*
X89863808Y-72376326D01*
X89788429Y-72558309D01*
X89788429Y-72558311D01*
X89750000Y-72751506D01*
X82769999Y-72751506D01*
X82731570Y-72558311D01*
X82731570Y-72558309D01*
X82656191Y-72376326D01*
X82656185Y-72376314D01*
X82546750Y-72212537D01*
X82546747Y-72212533D01*
X82407466Y-72073252D01*
X82407462Y-72073249D01*
X82243685Y-71963814D01*
X82243673Y-71963808D01*
X82061691Y-71888429D01*
X82020000Y-71880136D01*
X82020000Y-72683011D01*
X82010060Y-72665795D01*
X81954205Y-72609940D01*
X81885796Y-72570444D01*
X81809496Y-72550000D01*
X81730504Y-72550000D01*
X81654204Y-72570444D01*
X81585795Y-72609940D01*
X81529940Y-72665795D01*
X81520000Y-72683011D01*
X81520000Y-71880136D01*
X81478308Y-71888429D01*
X81296326Y-71963808D01*
X81296314Y-71963814D01*
X81132537Y-72073249D01*
X81132533Y-72073252D01*
X80993252Y-72212533D01*
X80993249Y-72212537D01*
X80883814Y-72376314D01*
X80883808Y-72376326D01*
X80808429Y-72558309D01*
X80808429Y-72558311D01*
X80770000Y-72751506D01*
X66640500Y-72751506D01*
X66640500Y-70739500D01*
X66659407Y-70681309D01*
X66708907Y-70645345D01*
X66739500Y-70640500D01*
X106260500Y-70640500D01*
X106318691Y-70659407D01*
G37*
%TD.AperFunction*%
%TD*%
M02*
