%TF.GenerationSoftware,KiCad,Pcbnew,9.0.4*%
%TF.CreationDate,2025-09-28T18:54:50+03:00*%
%TF.ProjectId,Asius2,41736975-7332-42e6-9b69-6361645f7063,rev?*%
%TF.SameCoordinates,Original*%
%TF.FileFunction,Soldermask,Top*%
%TF.FilePolarity,Negative*%
%FSLAX46Y46*%
G04 Gerber Fmt 4.6, Leading zero omitted, Abs format (unit mm)*
G04 Created by KiCad (PCBNEW 9.0.4) date 2025-09-28 18:54:50*
%MOMM*%
%LPD*%
G01*
G04 APERTURE LIST*
G04 Aperture macros list*
%AMRoundRect*
0 Rectangle with rounded corners*
0 $1 Rounding radius*
0 $2 $3 $4 $5 $6 $7 $8 $9 X,Y pos of 4 corners*
0 Add a 4 corners polygon primitive as box body*
4,1,4,$2,$3,$4,$5,$6,$7,$8,$9,$2,$3,0*
0 Add four circle primitives for the rounded corners*
1,1,$1+$1,$2,$3*
1,1,$1+$1,$4,$5*
1,1,$1+$1,$6,$7*
1,1,$1+$1,$8,$9*
0 Add four rect primitives between the rounded corners*
20,1,$1+$1,$2,$3,$4,$5,0*
20,1,$1+$1,$4,$5,$6,$7,0*
20,1,$1+$1,$6,$7,$8,$9,0*
20,1,$1+$1,$8,$9,$2,$3,0*%
%AMFreePoly0*
4,1,23,0.500000,-0.750000,0.000000,-0.750000,0.000000,-0.745722,-0.065263,-0.745722,-0.191342,-0.711940,-0.304381,-0.646677,-0.396677,-0.554381,-0.461940,-0.441342,-0.495722,-0.315263,-0.495722,-0.250000,-0.500000,-0.250000,-0.500000,0.250000,-0.495722,0.250000,-0.495722,0.315263,-0.461940,0.441342,-0.396677,0.554381,-0.304381,0.646677,-0.191342,0.711940,-0.065263,0.745722,0.000000,0.745722,
0.000000,0.750000,0.500000,0.750000,0.500000,-0.750000,0.500000,-0.750000,$1*%
%AMFreePoly1*
4,1,23,0.000000,0.745722,0.065263,0.745722,0.191342,0.711940,0.304381,0.646677,0.396677,0.554381,0.461940,0.441342,0.495722,0.315263,0.495722,0.250000,0.500000,0.250000,0.500000,-0.250000,0.495722,-0.250000,0.495722,-0.315263,0.461940,-0.441342,0.396677,-0.554381,0.304381,-0.646677,0.191342,-0.711940,0.065263,-0.745722,0.000000,-0.745722,0.000000,-0.750000,-0.500000,-0.750000,
-0.500000,0.750000,0.000000,0.750000,0.000000,0.745722,0.000000,0.745722,$1*%
G04 Aperture macros list end*
%ADD10C,0.010000*%
%ADD11RoundRect,0.250000X0.475000X-0.250000X0.475000X0.250000X-0.475000X0.250000X-0.475000X-0.250000X0*%
%ADD12RoundRect,0.250000X0.550000X-1.500000X0.550000X1.500000X-0.550000X1.500000X-0.550000X-1.500000X0*%
%ADD13R,1.000000X1.500000*%
%ADD14RoundRect,0.200000X-0.200000X-0.275000X0.200000X-0.275000X0.200000X0.275000X-0.200000X0.275000X0*%
%ADD15RoundRect,0.225000X-0.225000X-0.250000X0.225000X-0.250000X0.225000X0.250000X-0.225000X0.250000X0*%
%ADD16C,0.350000*%
%ADD17R,0.300000X0.900000*%
%ADD18C,0.600000*%
%ADD19O,1.000000X1.600000*%
%ADD20RoundRect,0.140000X-0.140000X-0.170000X0.140000X-0.170000X0.140000X0.170000X-0.140000X0.170000X0*%
%ADD21RoundRect,0.140000X-0.170000X0.140000X-0.170000X-0.140000X0.170000X-0.140000X0.170000X0.140000X0*%
%ADD22RoundRect,0.150000X0.150000X-0.825000X0.150000X0.825000X-0.150000X0.825000X-0.150000X-0.825000X0*%
%ADD23RoundRect,0.200000X-0.275000X0.200000X-0.275000X-0.200000X0.275000X-0.200000X0.275000X0.200000X0*%
%ADD24RoundRect,0.200000X0.275000X-0.200000X0.275000X0.200000X-0.275000X0.200000X-0.275000X-0.200000X0*%
%ADD25RoundRect,0.225000X0.250000X-0.225000X0.250000X0.225000X-0.250000X0.225000X-0.250000X-0.225000X0*%
%ADD26R,1.700000X1.700000*%
%ADD27C,1.700000*%
%ADD28RoundRect,0.375000X0.625000X0.375000X-0.625000X0.375000X-0.625000X-0.375000X0.625000X-0.375000X0*%
%ADD29RoundRect,0.500000X0.500000X1.400000X-0.500000X1.400000X-0.500000X-1.400000X0.500000X-1.400000X0*%
%ADD30RoundRect,0.250000X0.250000X-0.475000X0.250000X0.475000X-0.250000X0.475000X-0.250000X-0.475000X0*%
%ADD31RoundRect,0.200000X0.200000X0.275000X-0.200000X0.275000X-0.200000X-0.275000X0.200000X-0.275000X0*%
%ADD32FreePoly0,180.000000*%
%ADD33FreePoly1,180.000000*%
%ADD34RoundRect,0.225000X0.225000X0.250000X-0.225000X0.250000X-0.225000X-0.250000X0.225000X-0.250000X0*%
%ADD35RoundRect,0.225000X-0.250000X0.225000X-0.250000X-0.225000X0.250000X-0.225000X0.250000X0.225000X0*%
%ADD36RoundRect,0.140000X0.170000X-0.140000X0.170000X0.140000X-0.170000X0.140000X-0.170000X-0.140000X0*%
%ADD37RoundRect,0.250000X-0.450000X-0.350000X0.450000X-0.350000X0.450000X0.350000X-0.450000X0.350000X0*%
G04 APERTURE END LIST*
D10*
%TO.C,U6*%
X99865000Y-71885000D02*
X99155000Y-71885000D01*
X99155000Y-71435000D01*
X99865000Y-71435000D01*
X99865000Y-71885000D01*
G36*
X99865000Y-71885000D02*
G01*
X99155000Y-71885000D01*
X99155000Y-71435000D01*
X99865000Y-71435000D01*
X99865000Y-71885000D01*
G37*
X99865000Y-72385000D02*
X99155000Y-72385000D01*
X99155000Y-71935000D01*
X99865000Y-71935000D01*
X99865000Y-72385000D01*
G36*
X99865000Y-72385000D02*
G01*
X99155000Y-72385000D01*
X99155000Y-71935000D01*
X99865000Y-71935000D01*
X99865000Y-72385000D01*
G37*
X99865000Y-72885000D02*
X99155000Y-72885000D01*
X99155000Y-72435000D01*
X99865000Y-72435000D01*
X99865000Y-72885000D01*
G36*
X99865000Y-72885000D02*
G01*
X99155000Y-72885000D01*
X99155000Y-72435000D01*
X99865000Y-72435000D01*
X99865000Y-72885000D01*
G37*
X99865000Y-73385000D02*
X99155000Y-73385000D01*
X99155000Y-72935000D01*
X99865000Y-72935000D01*
X99865000Y-73385000D01*
G36*
X99865000Y-73385000D02*
G01*
X99155000Y-73385000D01*
X99155000Y-72935000D01*
X99865000Y-72935000D01*
X99865000Y-73385000D01*
G37*
X100395000Y-73680000D02*
X99945000Y-73680000D01*
X99945000Y-72970000D01*
X100395000Y-72970000D01*
X100395000Y-73680000D01*
G36*
X100395000Y-73680000D02*
G01*
X99945000Y-73680000D01*
X99945000Y-72970000D01*
X100395000Y-72970000D01*
X100395000Y-73680000D01*
G37*
X100395000Y-71850000D02*
X99945000Y-71850000D01*
X99945000Y-71140000D01*
X100395000Y-71140000D01*
X100395000Y-71850000D01*
G36*
X100395000Y-71850000D02*
G01*
X99945000Y-71850000D01*
X99945000Y-71140000D01*
X100395000Y-71140000D01*
X100395000Y-71850000D01*
G37*
X100895000Y-73680000D02*
X100445000Y-73680000D01*
X100445000Y-72970000D01*
X100895000Y-72970000D01*
X100895000Y-73680000D01*
G36*
X100895000Y-73680000D02*
G01*
X100445000Y-73680000D01*
X100445000Y-72970000D01*
X100895000Y-72970000D01*
X100895000Y-73680000D01*
G37*
X100895000Y-71850000D02*
X100445000Y-71850000D01*
X100445000Y-71140000D01*
X100895000Y-71140000D01*
X100895000Y-71850000D01*
G36*
X100895000Y-71850000D02*
G01*
X100445000Y-71850000D01*
X100445000Y-71140000D01*
X100895000Y-71140000D01*
X100895000Y-71850000D01*
G37*
X101395000Y-73680000D02*
X100945000Y-73680000D01*
X100945000Y-72970000D01*
X101395000Y-72970000D01*
X101395000Y-73680000D01*
G36*
X101395000Y-73680000D02*
G01*
X100945000Y-73680000D01*
X100945000Y-72970000D01*
X101395000Y-72970000D01*
X101395000Y-73680000D01*
G37*
X101395000Y-71850000D02*
X100945000Y-71850000D01*
X100945000Y-71140000D01*
X101395000Y-71140000D01*
X101395000Y-71850000D01*
G36*
X101395000Y-71850000D02*
G01*
X100945000Y-71850000D01*
X100945000Y-71140000D01*
X101395000Y-71140000D01*
X101395000Y-71850000D01*
G37*
X102185000Y-71885000D02*
X101475000Y-71885000D01*
X101475000Y-71435000D01*
X102185000Y-71435000D01*
X102185000Y-71885000D01*
G36*
X102185000Y-71885000D02*
G01*
X101475000Y-71885000D01*
X101475000Y-71435000D01*
X102185000Y-71435000D01*
X102185000Y-71885000D01*
G37*
X102185000Y-72385000D02*
X101475000Y-72385000D01*
X101475000Y-71935000D01*
X102185000Y-71935000D01*
X102185000Y-72385000D01*
G36*
X102185000Y-72385000D02*
G01*
X101475000Y-72385000D01*
X101475000Y-71935000D01*
X102185000Y-71935000D01*
X102185000Y-72385000D01*
G37*
X102185000Y-72885000D02*
X101475000Y-72885000D01*
X101475000Y-72435000D01*
X102185000Y-72435000D01*
X102185000Y-72885000D01*
G36*
X102185000Y-72885000D02*
G01*
X101475000Y-72885000D01*
X101475000Y-72435000D01*
X102185000Y-72435000D01*
X102185000Y-72885000D01*
G37*
X102185000Y-73385000D02*
X101475000Y-73385000D01*
X101475000Y-72935000D01*
X102185000Y-72935000D01*
X102185000Y-73385000D01*
G36*
X102185000Y-73385000D02*
G01*
X101475000Y-73385000D01*
X101475000Y-72935000D01*
X102185000Y-72935000D01*
X102185000Y-73385000D01*
G37*
%TO.C,JP1*%
G36*
X71765000Y-80270000D02*
G01*
X71465000Y-80270000D01*
X71465000Y-78770000D01*
X71765000Y-78770000D01*
X71765000Y-80270000D01*
G37*
%TD*%
D11*
%TO.C,C41*%
X104800000Y-74250000D03*
X104800000Y-72350000D03*
%TD*%
D12*
%TO.C,C40*%
X96500000Y-83190000D03*
X96500000Y-77590000D03*
%TD*%
D13*
%TO.C,D1*%
X98720000Y-123830000D03*
X97320000Y-123830000D03*
X97320000Y-120330000D03*
X98720000Y-120330000D03*
%TD*%
D14*
%TO.C,R11*%
X97085000Y-73090000D03*
X95435000Y-73090000D03*
%TD*%
D15*
%TO.C,C2*%
X69200000Y-79010000D03*
X67650000Y-79010000D03*
%TD*%
D16*
%TO.C,U7*%
X81790000Y-109860000D03*
X82290000Y-109860000D03*
X82790000Y-109860000D03*
X83290000Y-109860000D03*
X83790000Y-109860000D03*
X84290000Y-109860000D03*
X84790000Y-109860000D03*
X85290000Y-109860000D03*
X85790000Y-109860000D03*
X86290000Y-109860000D03*
X86790000Y-109860000D03*
X87290000Y-109860000D03*
X87790000Y-109860000D03*
X81790000Y-110360000D03*
X82290000Y-110360000D03*
X82790000Y-110360000D03*
X83290000Y-110360000D03*
X83790000Y-110360000D03*
X84290000Y-110360000D03*
X84790000Y-110360000D03*
X85290000Y-110360000D03*
X85790000Y-110360000D03*
X86290000Y-110360000D03*
X86790000Y-110360000D03*
X87290000Y-110360000D03*
X87790000Y-110360000D03*
X81790000Y-110860000D03*
X82290000Y-110860000D03*
X82790000Y-110860000D03*
X83290000Y-110860000D03*
X83790000Y-110860000D03*
X84290000Y-110860000D03*
X84790000Y-110860000D03*
X85290000Y-110860000D03*
X85790000Y-110860000D03*
X86290000Y-110860000D03*
X86790000Y-110860000D03*
X87290000Y-110860000D03*
X87790000Y-110860000D03*
X81790000Y-111360000D03*
X82290000Y-111360000D03*
X82790000Y-111360000D03*
X83290000Y-111360000D03*
X83790000Y-111360000D03*
X84290000Y-111360000D03*
X84790000Y-111360000D03*
X85290000Y-111360000D03*
X85790000Y-111360000D03*
X86290000Y-111360000D03*
X86790000Y-111360000D03*
X87290000Y-111360000D03*
X87790000Y-111360000D03*
X81790000Y-111860000D03*
X82290000Y-111860000D03*
X82790000Y-111860000D03*
X83290000Y-111860000D03*
X83790000Y-111860000D03*
X84290000Y-111860000D03*
X84790000Y-111860000D03*
X85290000Y-111860000D03*
X85790000Y-111860000D03*
X86290000Y-111860000D03*
X86790000Y-111860000D03*
X87290000Y-111860000D03*
X87790000Y-111860000D03*
X81790000Y-112360000D03*
X82290000Y-112360000D03*
X82790000Y-112360000D03*
X83290000Y-112360000D03*
X83790000Y-112360000D03*
X84290000Y-112360000D03*
X84790000Y-112360000D03*
X85290000Y-112360000D03*
X85790000Y-112360000D03*
X86290000Y-112360000D03*
X86790000Y-112360000D03*
X87290000Y-112360000D03*
X87790000Y-112360000D03*
X81790000Y-112860000D03*
X82290000Y-112860000D03*
X82790000Y-112860000D03*
X83290000Y-112860000D03*
X83790000Y-112860000D03*
X84290000Y-112860000D03*
X84790000Y-112860000D03*
X85290000Y-112860000D03*
X85790000Y-112860000D03*
X86290000Y-112860000D03*
X86790000Y-112860000D03*
X87290000Y-112860000D03*
X87790000Y-112860000D03*
X81790000Y-113360000D03*
X82290000Y-113360000D03*
X82790000Y-113360000D03*
X83290000Y-113360000D03*
X83790000Y-113360000D03*
X84290000Y-113360000D03*
X84790000Y-113360000D03*
X85290000Y-113360000D03*
X85790000Y-113360000D03*
X86290000Y-113360000D03*
X86790000Y-113360000D03*
X87290000Y-113360000D03*
X87790000Y-113360000D03*
X81790000Y-113860000D03*
X82290000Y-113860000D03*
X82790000Y-113860000D03*
X83290000Y-113860000D03*
X83790000Y-113860000D03*
X84290000Y-113860000D03*
X84790000Y-113860000D03*
X85290000Y-113860000D03*
X85790000Y-113860000D03*
X86290000Y-113860000D03*
X86790000Y-113860000D03*
X87290000Y-113860000D03*
X87790000Y-113860000D03*
X81790000Y-114360000D03*
X82290000Y-114360000D03*
X82790000Y-114360000D03*
X83290000Y-114360000D03*
X83790000Y-114360000D03*
X84290000Y-114360000D03*
X84790000Y-114360000D03*
X85290000Y-114360000D03*
X85790000Y-114360000D03*
X86290000Y-114360000D03*
X86790000Y-114360000D03*
X87290000Y-114360000D03*
X87790000Y-114360000D03*
X81790000Y-114860000D03*
X82290000Y-114860000D03*
X82790000Y-114860000D03*
X83290000Y-114860000D03*
X83790000Y-114860000D03*
X84290000Y-114860000D03*
X84790000Y-114860000D03*
X85290000Y-114860000D03*
X85790000Y-114860000D03*
X86290000Y-114860000D03*
X86790000Y-114860000D03*
X87290000Y-114860000D03*
X87790000Y-114860000D03*
X81790000Y-115360000D03*
X82290000Y-115360000D03*
X82790000Y-115360000D03*
X83290000Y-115360000D03*
X83790000Y-115360000D03*
X84290000Y-115360000D03*
X84790000Y-115360000D03*
X85290000Y-115360000D03*
X85790000Y-115360000D03*
X86290000Y-115360000D03*
X86790000Y-115360000D03*
X87290000Y-115360000D03*
X87790000Y-115360000D03*
X81790000Y-115860000D03*
X82290000Y-115860000D03*
X82790000Y-115860000D03*
X83290000Y-115860000D03*
X83790000Y-115860000D03*
X84290000Y-115860000D03*
X84790000Y-115860000D03*
X85290000Y-115860000D03*
X85790000Y-115860000D03*
X86290000Y-115860000D03*
X86790000Y-115860000D03*
X87290000Y-115860000D03*
X87790000Y-115860000D03*
%TD*%
D17*
%TO.C,USBC1*%
X89010500Y-79360000D03*
X88510000Y-79360000D03*
X88010000Y-79360000D03*
X87510000Y-79360000D03*
X87010000Y-79360000D03*
X86510000Y-79360000D03*
X86010000Y-79360000D03*
X85510000Y-79360000D03*
X85010000Y-79360000D03*
X84510000Y-79360000D03*
X84010000Y-79360000D03*
X83510000Y-79360000D03*
D18*
X83460000Y-78150000D03*
X83860000Y-77450000D03*
X84660000Y-77450000D03*
X85060000Y-78150000D03*
X85460000Y-77450000D03*
X85860000Y-78150000D03*
X86660000Y-78150000D03*
X87060000Y-77450000D03*
X87460000Y-78150000D03*
X87860000Y-77450000D03*
X88660000Y-77450000D03*
X89060000Y-78150000D03*
D19*
X90390000Y-77560000D03*
X82130000Y-77560000D03*
X90750000Y-73150000D03*
X81770000Y-73150000D03*
%TD*%
D15*
%TO.C,C18*%
X91570000Y-111380000D03*
X90020000Y-111380000D03*
%TD*%
D20*
%TO.C,C12*%
X100330000Y-74440000D03*
X101290000Y-74440000D03*
%TD*%
D21*
%TO.C,C11*%
X102970000Y-73200000D03*
X102970000Y-74160000D03*
%TD*%
%TO.C,C10*%
X97030000Y-98060000D03*
X97030000Y-99020000D03*
%TD*%
%TO.C,C9*%
X76930000Y-98560000D03*
X76930000Y-99520000D03*
%TD*%
%TO.C,C6*%
X83200000Y-98430000D03*
X83200000Y-99390000D03*
%TD*%
%TO.C,C5*%
X90345000Y-98335000D03*
X90345000Y-99295000D03*
%TD*%
D22*
%TO.C,U2*%
X87800000Y-96650000D03*
X89070000Y-96650000D03*
X90340000Y-96650000D03*
X91610000Y-96650000D03*
X91610000Y-91700000D03*
X90340000Y-91700000D03*
X89070000Y-91700000D03*
X87800000Y-91700000D03*
%TD*%
D23*
%TO.C,R9*%
X96660000Y-89510000D03*
X96660000Y-87860000D03*
%TD*%
D22*
%TO.C,U5*%
X94505000Y-96385000D03*
X95775000Y-96385000D03*
X97045000Y-96385000D03*
X98315000Y-96385000D03*
X98315000Y-91435000D03*
X97045000Y-91435000D03*
X95775000Y-91435000D03*
X94505000Y-91435000D03*
%TD*%
D24*
%TO.C,R6*%
X81330000Y-89940000D03*
X81330000Y-88290000D03*
%TD*%
D23*
%TO.C,R7*%
X76570000Y-88375000D03*
X76570000Y-90025000D03*
%TD*%
D24*
%TO.C,R8*%
X75070000Y-90050000D03*
X75070000Y-88400000D03*
%TD*%
D23*
%TO.C,R5*%
X82830000Y-89915000D03*
X82830000Y-88265000D03*
%TD*%
D24*
%TO.C,R10*%
X95160000Y-87860000D03*
X95160000Y-89510000D03*
%TD*%
D25*
%TO.C,C8*%
X98160000Y-87935000D03*
X98160000Y-89485000D03*
%TD*%
%TO.C,C7*%
X78070000Y-89975000D03*
X78070000Y-88425000D03*
%TD*%
%TO.C,C4*%
X84330000Y-89865000D03*
X84330000Y-88315000D03*
%TD*%
%TO.C,C3*%
X91405000Y-88200000D03*
X91405000Y-89750000D03*
%TD*%
D24*
%TO.C,R4*%
X88405000Y-89800000D03*
X88405000Y-88150000D03*
%TD*%
D23*
%TO.C,R3*%
X89905000Y-88150000D03*
X89905000Y-89800000D03*
%TD*%
D22*
%TO.C,U3*%
X80675000Y-96765000D03*
X81945000Y-96765000D03*
X83215000Y-96765000D03*
X84485000Y-96765000D03*
X84485000Y-91815000D03*
X83215000Y-91815000D03*
X81945000Y-91815000D03*
X80675000Y-91815000D03*
%TD*%
D23*
%TO.C,R15*%
X95630000Y-124295000D03*
X95630000Y-122645000D03*
%TD*%
D14*
%TO.C,R12*%
X97065000Y-71570000D03*
X95415000Y-71570000D03*
%TD*%
D23*
%TO.C,R14*%
X95590000Y-119665000D03*
X95590000Y-121315000D03*
%TD*%
D14*
%TO.C,R13*%
X99005000Y-118350000D03*
X97355000Y-118350000D03*
%TD*%
D23*
%TO.C,R2*%
X87200000Y-84670000D03*
X87200000Y-83020000D03*
%TD*%
D26*
%TO.C,J2*%
X102160000Y-76890000D03*
D27*
X104700000Y-76890000D03*
X102160000Y-79430000D03*
X104700000Y-79430000D03*
X102160000Y-81970000D03*
X104700000Y-81970000D03*
X102160000Y-84510000D03*
X104700000Y-84510000D03*
X102160000Y-87050000D03*
X104700000Y-87050000D03*
X102160000Y-89590000D03*
X104700000Y-89590000D03*
X102160000Y-92130000D03*
X104700000Y-92130000D03*
X102160000Y-94670000D03*
X104700000Y-94670000D03*
X102160000Y-97210000D03*
X104700000Y-97210000D03*
X102160000Y-99750000D03*
X104700000Y-99750000D03*
X102160000Y-102290000D03*
X104700000Y-102290000D03*
X102160000Y-104830000D03*
X104700000Y-104830000D03*
X102160000Y-107370000D03*
X104700000Y-107370000D03*
X102160000Y-109910000D03*
X104700000Y-109910000D03*
X102160000Y-112450000D03*
X104700000Y-112450000D03*
X102160000Y-114990000D03*
X104700000Y-114990000D03*
X102160000Y-117530000D03*
X104700000Y-117530000D03*
X102160000Y-120070000D03*
X104700000Y-120070000D03*
X102160000Y-122610000D03*
X104700000Y-122610000D03*
X102160000Y-125150000D03*
X104700000Y-125150000D03*
%TD*%
D28*
%TO.C,U1*%
X74530000Y-76940000D03*
X74530000Y-74640000D03*
D29*
X68230000Y-74640000D03*
D28*
X74530000Y-72340000D03*
%TD*%
D30*
%TO.C,SW2*%
X67850000Y-97175000D03*
X67850000Y-92025000D03*
X69550000Y-97175000D03*
X69550000Y-92025000D03*
%TD*%
%TO.C,SW1*%
X67830000Y-90025000D03*
X67830000Y-84875000D03*
X69530000Y-90025000D03*
X69530000Y-84875000D03*
%TD*%
D31*
%TO.C,R1*%
X80815000Y-71370000D03*
X79165000Y-71370000D03*
%TD*%
D32*
%TO.C,JP1*%
X72265000Y-79520000D03*
D33*
X70965000Y-79520000D03*
%TD*%
D26*
%TO.C,J6*%
X68300000Y-100190000D03*
D27*
X68300000Y-102730000D03*
X68300000Y-105270000D03*
X68300000Y-107810000D03*
X68300000Y-110350000D03*
%TD*%
D26*
%TO.C,J5*%
X83410000Y-128720000D03*
D27*
X80870000Y-128720000D03*
X78330000Y-128720000D03*
X75790000Y-128720000D03*
X73250000Y-128720000D03*
X70710000Y-128720000D03*
X68170000Y-128720000D03*
%TD*%
D26*
%TO.C,J4*%
X68250000Y-113920000D03*
D27*
X68250000Y-116460000D03*
X68250000Y-119000000D03*
%TD*%
D26*
%TO.C,J3*%
X86960000Y-128700000D03*
D27*
X89500000Y-128700000D03*
X92040000Y-128700000D03*
X94580000Y-128700000D03*
X97120000Y-128700000D03*
X99660000Y-128700000D03*
X102200000Y-128700000D03*
X104740000Y-128700000D03*
%TD*%
D26*
%TO.C,J1*%
X68250000Y-122560000D03*
D27*
X68250000Y-125100000D03*
%TD*%
D34*
%TO.C,C1*%
X78165000Y-72990000D03*
X76615000Y-72990000D03*
%TD*%
D25*
%TO.C,C13*%
X79530000Y-111205000D03*
X79530000Y-112755000D03*
%TD*%
D35*
%TO.C,C14*%
X79540000Y-115710000D03*
X79540000Y-114160000D03*
%TD*%
D36*
%TO.C,C15*%
X72710000Y-96770000D03*
X72710000Y-97730000D03*
%TD*%
D25*
%TO.C,C17*%
X83290000Y-106055000D03*
X83290000Y-107605000D03*
%TD*%
D35*
%TO.C,C19*%
X86290000Y-119675000D03*
X86290000Y-118125000D03*
%TD*%
D24*
%TO.C,R16*%
X71450000Y-88395000D03*
X71450000Y-90045000D03*
%TD*%
D23*
%TO.C,R17*%
X71480000Y-97490000D03*
X71480000Y-95840000D03*
%TD*%
D37*
%TO.C,Y1*%
X75560000Y-112730000D03*
X77760000Y-112730000D03*
X77760000Y-114430000D03*
X75560000Y-114430000D03*
%TD*%
D22*
%TO.C,U4*%
X74415000Y-96875000D03*
X75685000Y-96875000D03*
X76955000Y-96875000D03*
X78225000Y-96875000D03*
X78225000Y-91925000D03*
X76955000Y-91925000D03*
X75685000Y-91925000D03*
X74415000Y-91925000D03*
%TD*%
M02*
