%TF.GenerationSoftware,KiCad,Pcbnew,9.0.4*%
%TF.CreationDate,2025-09-28T18:54:50+03:00*%
%TF.ProjectId,Asius2,41736975-7332-42e6-9b69-6361645f7063,rev?*%
%TF.SameCoordinates,Original*%
%TF.FileFunction,Copper,L3,Inr*%
%TF.FilePolarity,Positive*%
%FSLAX46Y46*%
G04 Gerber Fmt 4.6, Leading zero omitted, Abs format (unit mm)*
G04 Created by KiCad (PCBNEW 9.0.4) date 2025-09-28 18:54:50*
%MOMM*%
%LPD*%
G01*
G04 APERTURE LIST*
%TA.AperFunction,ComponentPad*%
%ADD10C,0.600000*%
%TD*%
%TA.AperFunction,ComponentPad*%
%ADD11O,1.000000X1.600000*%
%TD*%
%TA.AperFunction,ComponentPad*%
%ADD12R,1.700000X1.700000*%
%TD*%
%TA.AperFunction,ComponentPad*%
%ADD13C,1.700000*%
%TD*%
%TA.AperFunction,ViaPad*%
%ADD14C,0.600000*%
%TD*%
%TA.AperFunction,ViaPad*%
%ADD15C,0.400000*%
%TD*%
%TA.AperFunction,Conductor*%
%ADD16C,0.100000*%
%TD*%
G04 APERTURE END LIST*
D10*
%TO.N,GND*%
%TO.C,USBC1*%
X83460000Y-78150000D03*
%TO.N,/CAN3_H*%
X83860000Y-77450000D03*
%TO.N,/CAN3_L*%
X84660000Y-77450000D03*
%TO.N,+5V*%
X85060000Y-78150000D03*
%TO.N,Net-(USBC1-CC2)*%
X85460000Y-77450000D03*
%TO.N,/USB_DP*%
X85860000Y-78150000D03*
%TO.N,/USB_DM*%
X86660000Y-78150000D03*
%TO.N,/SBU2*%
X87060000Y-77450000D03*
%TO.N,+5V*%
X87460000Y-78150000D03*
%TO.N,/CAN4_L*%
X87860000Y-77450000D03*
%TO.N,/CAN4_H*%
X88660000Y-77450000D03*
%TO.N,GND*%
X89060000Y-78150000D03*
D11*
X90390000Y-77560000D03*
X82130000Y-77560000D03*
X90750000Y-73150000D03*
X81770000Y-73150000D03*
%TD*%
D12*
%TO.N,unconnected-(J2-Pin_1-Pad1)*%
%TO.C,J2*%
X102160000Y-76890000D03*
D13*
%TO.N,+5V*%
X104700000Y-76890000D03*
%TO.N,/IMU_SDA*%
X102160000Y-79430000D03*
%TO.N,+5V*%
X104700000Y-79430000D03*
%TO.N,/IMU_SCL*%
X102160000Y-81970000D03*
%TO.N,GND*%
X104700000Y-81970000D03*
%TO.N,unconnected-(J2-Pin_7-Pad7)*%
X102160000Y-84510000D03*
%TO.N,/UART_RX*%
X104700000Y-84510000D03*
%TO.N,GND*%
X102160000Y-87050000D03*
%TO.N,/UART_TX*%
X104700000Y-87050000D03*
%TO.N,unconnected-(J2-Pin_11-Pad11)*%
X102160000Y-89590000D03*
%TO.N,unconnected-(J2-Pin_12-Pad12)*%
X104700000Y-89590000D03*
%TO.N,unconnected-(J2-Pin_13-Pad13)*%
X102160000Y-92130000D03*
%TO.N,GND*%
X104700000Y-92130000D03*
%TO.N,unconnected-(J2-Pin_15-Pad15)*%
X102160000Y-94670000D03*
%TO.N,unconnected-(J2-Pin_16-Pad16)*%
X104700000Y-94670000D03*
%TO.N,unconnected-(J2-Pin_17-Pad17)*%
X102160000Y-97210000D03*
%TO.N,unconnected-(J2-Pin_18-Pad18)*%
X104700000Y-97210000D03*
%TO.N,/SPI_MOSI*%
X102160000Y-99750000D03*
%TO.N,unconnected-(J2-Pin_20-Pad20)*%
X104700000Y-99750000D03*
%TO.N,/SPI_MISO*%
X102160000Y-102290000D03*
%TO.N,unconnected-(J2-Pin_22-Pad22)*%
X104700000Y-102290000D03*
%TO.N,/SPI_SCK*%
X102160000Y-104830000D03*
%TO.N,/SPI_NSS*%
X104700000Y-104830000D03*
%TO.N,unconnected-(J2-Pin_25-Pad25)*%
X102160000Y-107370000D03*
%TO.N,unconnected-(J2-Pin_26-Pad26)*%
X104700000Y-107370000D03*
%TO.N,unconnected-(J2-Pin_27-Pad27)*%
X102160000Y-109910000D03*
%TO.N,unconnected-(J2-Pin_28-Pad28)*%
X104700000Y-109910000D03*
%TO.N,unconnected-(J2-Pin_29-Pad29)*%
X102160000Y-112450000D03*
%TO.N,unconnected-(J2-Pin_30-Pad30)*%
X104700000Y-112450000D03*
%TO.N,unconnected-(J2-Pin_31-Pad31)*%
X102160000Y-114990000D03*
%TO.N,unconnected-(J2-Pin_32-Pad32)*%
X104700000Y-114990000D03*
%TO.N,unconnected-(J2-Pin_33-Pad33)*%
X102160000Y-117530000D03*
%TO.N,unconnected-(J2-Pin_34-Pad34)*%
X104700000Y-117530000D03*
%TO.N,unconnected-(J2-Pin_35-Pad35)*%
X102160000Y-120070000D03*
%TO.N,unconnected-(J2-Pin_36-Pad36)*%
X104700000Y-120070000D03*
%TO.N,unconnected-(J2-Pin_37-Pad37)*%
X102160000Y-122610000D03*
%TO.N,unconnected-(J2-Pin_38-Pad38)*%
X104700000Y-122610000D03*
%TO.N,unconnected-(J2-Pin_39-Pad39)*%
X102160000Y-125150000D03*
%TO.N,unconnected-(J2-Pin_40-Pad40)*%
X104700000Y-125150000D03*
%TD*%
D12*
%TO.N,/SWDIO*%
%TO.C,J6*%
X68300000Y-100190000D03*
D13*
%TO.N,/SWCLK*%
X68300000Y-102730000D03*
%TO.N,/JTDI*%
X68300000Y-105270000D03*
%TO.N,/TRACESWO*%
X68300000Y-107810000D03*
%TO.N,/NJTRST*%
X68300000Y-110350000D03*
%TD*%
D12*
%TO.N,/AUDIO_SAI4_SCK_B*%
%TO.C,J5*%
X83410000Y-128720000D03*
D13*
%TO.N,/AUDIO_SAI4_FS_B*%
X80870000Y-128720000D03*
%TO.N,/AUDIO_SAI4_SD_A*%
X78330000Y-128720000D03*
%TO.N,/AUDIO_SAI4_SD_B*%
X75790000Y-128720000D03*
%TO.N,/AUDIO_DFSDM1_DATIN3*%
X73250000Y-128720000D03*
%TO.N,/AUDIO_DFSDM1_CKOUT*%
X70710000Y-128720000D03*
%TO.N,/AUDIO_SAI4_MCLK_B*%
X68170000Y-128720000D03*
%TD*%
D12*
%TO.N,/FAN_ENABLE*%
%TO.C,J4*%
X68250000Y-113920000D03*
D13*
%TO.N,/FAN_TACHOMETER*%
X68250000Y-116460000D03*
%TO.N,/FAN_SETUP*%
X68250000Y-119000000D03*
%TD*%
D12*
%TO.N,/BOOTKICK*%
%TO.C,J3*%
X86960000Y-128700000D03*
D13*
%TO.N,/SOM_GPIO*%
X89500000Y-128700000D03*
%TO.N,/VOLT_S*%
X92040000Y-128700000D03*
%TO.N,/VBAT_EN*%
X94580000Y-128700000D03*
%TO.N,/SBU1_RELAY*%
X97120000Y-128700000D03*
%TO.N,/SBU2_RELAY*%
X99660000Y-128700000D03*
%TO.N,/PWR_READOUT1*%
X102200000Y-128700000D03*
%TO.N,/PWR_READOUT2*%
X104740000Y-128700000D03*
%TD*%
D12*
%TO.N,GND*%
%TO.C,J1*%
X68250000Y-122560000D03*
D13*
%TO.N,+3.3V*%
X68250000Y-125100000D03*
%TD*%
D14*
%TO.N,+5V*%
X103740000Y-75170000D03*
%TO.N,GND*%
X96480000Y-75210000D03*
%TO.N,+5V*%
X96510000Y-80690000D03*
%TO.N,GND*%
X104810000Y-73130000D03*
D15*
%TO.N,/SBU1_RELAY*%
X93543741Y-113536520D03*
%TO.N,/CAN1_T*%
X84118800Y-102830000D03*
%TO.N,/CAN2_R*%
X84470000Y-98420000D03*
X84470000Y-102016200D03*
%TO.N,/LED_RED*%
X97370000Y-117440000D03*
%TO.N,/LED_GREEN*%
X95590000Y-117080000D03*
%TO.N,/LED_BLUE*%
X94336200Y-122610000D03*
%TO.N,/CAN3_E*%
X96780000Y-116063800D03*
%TO.N,/CAN3_T*%
X97240000Y-115756200D03*
%TO.N,/CAN3_E*%
X96763797Y-113770000D03*
%TO.N,/CAN3_T*%
X97240000Y-113770000D03*
%TO.N,/CAN3_R*%
X97650000Y-114080000D03*
%TO.N,/CAN2_E*%
X97990000Y-114450000D03*
%TO.N,/SWDIO*%
X96530000Y-110390000D03*
%TO.N,/FAN_SETUP*%
X92860000Y-114863800D03*
D14*
%TO.N,+3.3V*%
X98690000Y-122540000D03*
D15*
%TO.N,/SBU1*%
X85610000Y-85370000D03*
D14*
%TO.N,+3.3V*%
X94080000Y-72210000D03*
%TO.N,GND*%
X71460000Y-87280000D03*
X72720000Y-96000000D03*
%TO.N,+3.3V*%
X71440000Y-94710000D03*
%TO.N,GND*%
X85250000Y-106990000D03*
X82210000Y-106906200D03*
X78410000Y-111200000D03*
X76650000Y-113590000D03*
X78286805Y-115816200D03*
X82310000Y-117960000D03*
X87250000Y-119030000D03*
X90770000Y-113250000D03*
X91376369Y-110829834D03*
D15*
%TO.N,/JTDI*%
X87116200Y-109000000D03*
D14*
%TO.N,+3.3V*%
X102990000Y-72460000D03*
X99570000Y-74420000D03*
%TO.N,GND*%
X100240000Y-72190000D03*
X102090000Y-74370000D03*
X76480000Y-76910000D03*
D15*
%TO.N,/AUDIO_SAI4_SD_A*%
X93203800Y-113870000D03*
%TO.N,/NJTRST*%
X81575958Y-107454042D03*
%TO.N,/AUDIO_DFSDM1_CKOUT*%
X85780000Y-124740000D03*
%TO.N,/CAN1_E*%
X86980000Y-91690000D03*
%TO.N,/SBU2*%
X81010000Y-125350000D03*
X85220594Y-125363800D03*
%TO.N,Net-(U7-NRST)*%
X71490000Y-98580000D03*
%TO.N,Net-(U7-BOOT0)*%
X71460000Y-91200000D03*
%TO.N,/UART_TX*%
X90473800Y-107430000D03*
%TO.N,/UART_RX*%
X89660000Y-107770000D03*
%TO.N,/VBAT_EN*%
X94010000Y-108580000D03*
%TO.N,/USB_DM*%
X85970000Y-80270000D03*
X86560000Y-80820000D03*
%TO.N,/USB_DP*%
X86510000Y-80230000D03*
%TO.N,/LED_BLUE*%
X86790000Y-112360000D03*
%TO.N,GND*%
X84790000Y-115360000D03*
%TO.N,+3.3V*%
X83290000Y-110860000D03*
%TO.N,GND*%
X82290000Y-115360000D03*
X85290000Y-111360000D03*
X82290000Y-111360000D03*
%TO.N,+3.3V*%
X84790000Y-115860000D03*
X81790000Y-115360000D03*
%TO.N,/CAN2_T*%
X84290000Y-110860000D03*
%TO.N,+3.3V*%
X82290000Y-114860000D03*
X87290000Y-111360000D03*
%TO.N,Net-(U7-NRST)*%
X84290000Y-112860000D03*
%TO.N,/LED_RED*%
X85790000Y-112360000D03*
%TO.N,/FAN_ENABLE*%
X85790000Y-111360000D03*
%TO.N,Net-(U7-BOOT0)*%
X84290000Y-111860000D03*
%TO.N,+3.3V*%
X82790000Y-111860000D03*
X82790000Y-109860000D03*
%TO.N,GND*%
X87290000Y-110860000D03*
X87290000Y-114860000D03*
X82290000Y-112860000D03*
X86790000Y-115360000D03*
%TO.N,+3.3V*%
X86290000Y-115360000D03*
%TO.N,GND*%
X82790000Y-113860000D03*
X87290000Y-113360000D03*
X85790000Y-110360000D03*
%TO.N,+3.3V*%
X84790000Y-109860000D03*
X87790000Y-112860000D03*
X81790000Y-114860000D03*
X81790000Y-112860000D03*
X84290000Y-109860000D03*
X86290000Y-109860000D03*
X81790000Y-111360000D03*
%TO.N,GND*%
X82290000Y-111860000D03*
X82790000Y-110360000D03*
%TO.N,/SPI_MISO*%
X85290000Y-114360000D03*
%TO.N,GND*%
X84790000Y-110360000D03*
%TO.N,+3.3V*%
X87790000Y-114860000D03*
X83290000Y-110360000D03*
%TO.N,/TRACESWO*%
X84790000Y-112360000D03*
%TO.N,/PWR_READOUT2*%
X83790000Y-114360000D03*
%TO.N,+3.3V*%
X87790000Y-110860000D03*
X87790000Y-113360000D03*
X83290000Y-115860000D03*
%TO.N,/SWDIO*%
X86790000Y-111360000D03*
%TO.N,/SBU1*%
X84290000Y-114360000D03*
%TO.N,/CAN1_R*%
X83790000Y-110860000D03*
%TO.N,/NJTRST*%
X84290000Y-110360000D03*
%TO.N,/SOM_GPIO*%
X83790000Y-113360000D03*
%TO.N,/BOOTKICK*%
X83790000Y-113860000D03*
%TO.N,/AUDIO_SAI4_SD_A*%
X86290000Y-113860000D03*
%TO.N,GND*%
X86290000Y-110360000D03*
X83290000Y-115360000D03*
%TO.N,/LED_GREEN*%
X86290000Y-112360000D03*
%TO.N,/CAN3_R*%
X86790000Y-113860000D03*
%TO.N,/CAN1_E*%
X84290000Y-111360000D03*
%TO.N,/FAN_TACHOMETER*%
X85790000Y-111860000D03*
%TO.N,/UART_TX*%
X85290000Y-112860000D03*
%TO.N,/AUDIO_DFSDM1_CKOUT*%
X85290000Y-113860000D03*
%TO.N,+3.3V*%
X86790000Y-115860000D03*
%TO.N,/SPI_MOSI*%
X85790000Y-113860000D03*
%TO.N,/UART_RX*%
X85290000Y-113360000D03*
%TO.N,/CAN2_E*%
X85790000Y-114860000D03*
%TO.N,+3.3V*%
X81790000Y-112360000D03*
D14*
%TO.N,/CAN2_T*%
X80670000Y-98510000D03*
%TO.N,/CAN1_T*%
X87810000Y-98350000D03*
%TO.N,+3.3V*%
X76190000Y-98270000D03*
%TO.N,GND*%
X75960000Y-98970000D03*
%TO.N,+3.3V*%
X82490000Y-98160000D03*
%TO.N,GND*%
X82230000Y-98870000D03*
%TO.N,+3.3V*%
X96320000Y-97810000D03*
%TO.N,GND*%
X96125000Y-98555000D03*
%TO.N,+3.3V*%
X89620000Y-98020000D03*
%TO.N,GND*%
X89070000Y-98700000D03*
%TO.N,+5V*%
X87550000Y-81380000D03*
X76630000Y-74050000D03*
X85010000Y-81430000D03*
%TO.N,GND*%
X91370000Y-87150000D03*
X98080000Y-86700000D03*
X84110000Y-87280000D03*
X78070000Y-87310000D03*
X67840000Y-94490000D03*
%TO.N,+3.3V*%
X67810000Y-87380000D03*
%TO.N,GND*%
X87040000Y-85790000D03*
X79060000Y-72460000D03*
X67660000Y-80220000D03*
%TO.N,+3.3V*%
X73690000Y-79520000D03*
%TO.N,/CAN1_R*%
X91610000Y-98110000D03*
%TD*%
D16*
%TO.N,/LED_RED*%
X97370000Y-117440000D02*
X99650000Y-117440000D01*
X99000000Y-111780000D02*
X86370000Y-111780000D01*
X99650000Y-117440000D02*
X100030000Y-117060000D01*
X100030000Y-117060000D02*
X100030000Y-112810000D01*
X100030000Y-112810000D02*
X99000000Y-111780000D01*
X86370000Y-111780000D02*
X85790000Y-112360000D01*
%TO.N,/LED_GREEN*%
X99852800Y-116747200D02*
X99520000Y-117080000D01*
X86617200Y-112032800D02*
X98952800Y-112032800D01*
X86290000Y-112360000D02*
X86617200Y-112032800D01*
X99852800Y-112932800D02*
X99852800Y-116747200D01*
X98952800Y-112032800D02*
X99852800Y-112932800D01*
X99520000Y-117080000D02*
X95590000Y-117080000D01*
%TO.N,/CAN3_R*%
X97650000Y-114080000D02*
X97532800Y-114197200D01*
X97532800Y-114197200D02*
X87127200Y-114197200D01*
X87127200Y-114197200D02*
X86790000Y-113860000D01*
%TO.N,/CAN2_E*%
X85790000Y-114860000D02*
X86142800Y-114507200D01*
X86142800Y-114507200D02*
X97932800Y-114507200D01*
X97932800Y-114507200D02*
X97990000Y-114450000D01*
%TO.N,Net-(U7-BOOT0)*%
X71460000Y-91200000D02*
X71450000Y-91190000D01*
X72120000Y-107670000D02*
X72745000Y-108295000D01*
X79995000Y-108295000D02*
X83560000Y-111860000D01*
X71450000Y-91180000D02*
X72120000Y-91850000D01*
X71450000Y-91190000D02*
X71450000Y-91180000D01*
X72120000Y-91850000D02*
X72120000Y-107670000D01*
X72745000Y-108295000D02*
X79995000Y-108295000D01*
X83560000Y-111860000D02*
X84290000Y-111860000D01*
%TO.N,/CAN1_E*%
X86980000Y-96220000D02*
X86400000Y-96800000D01*
X86400000Y-96800000D02*
X80970000Y-96800000D01*
X80970000Y-96800000D02*
X79802800Y-97967200D01*
X79802800Y-97967200D02*
X79802800Y-107835531D01*
X86980000Y-91610000D02*
X86980000Y-96220000D01*
X79802800Y-107835531D02*
X83327269Y-111360000D01*
X83327269Y-111360000D02*
X84290000Y-111360000D01*
%TO.N,/AUDIO_DFSDM1_CKOUT*%
X84980000Y-114170000D02*
X85290000Y-113860000D01*
X85780000Y-124740000D02*
X85780000Y-115312731D01*
X85780000Y-115312731D02*
X84962800Y-114495531D01*
X84962800Y-114495531D02*
X84962800Y-114184400D01*
X84977200Y-114170000D02*
X84980000Y-114170000D01*
X84962800Y-114184400D02*
X84977200Y-114170000D01*
%TO.N,/SWDIO*%
X86790000Y-111360000D02*
X86790000Y-110897268D01*
X86790000Y-110897268D02*
X87283634Y-110403634D01*
X96516366Y-110403634D02*
X96530000Y-110390000D01*
X87283634Y-110403634D02*
X96516366Y-110403634D01*
%TO.N,/AUDIO_SAI4_SD_A*%
X86290000Y-113860000D02*
X86617200Y-113532800D01*
X86617200Y-113532800D02*
X87000069Y-113532800D01*
X87350069Y-113882800D02*
X93191000Y-113882800D01*
X87000069Y-113532800D02*
X87350069Y-113882800D01*
X93191000Y-113882800D02*
X93203800Y-113870000D01*
%TO.N,/SBU1*%
X84290000Y-114360000D02*
X84290000Y-113322731D01*
X72500000Y-85370000D02*
X85610000Y-85370000D01*
X84290000Y-113322731D02*
X83903634Y-112936366D01*
X83903634Y-112936366D02*
X82903635Y-112936366D01*
X71461366Y-109391366D02*
X70810000Y-108740000D01*
X82903635Y-112936366D02*
X79358634Y-109391366D01*
X79358634Y-109391366D02*
X71461366Y-109391366D01*
X70810000Y-108740000D02*
X70810000Y-87060000D01*
X70810000Y-87060000D02*
X72500000Y-85370000D01*
%TO.N,Net-(U7-NRST)*%
X84290000Y-112860000D02*
X84260000Y-112860000D01*
X84260000Y-112860000D02*
X80040000Y-108640000D01*
X80040000Y-108640000D02*
X71890000Y-108640000D01*
X71890000Y-108640000D02*
X71490000Y-108240000D01*
X71490000Y-108240000D02*
X71490000Y-98580000D01*
%TO.N,/SPI_MISO*%
X85290000Y-114360000D02*
X85400000Y-114250000D01*
%TO.N,/CAN1_R*%
X91580000Y-98080000D02*
X91580000Y-97840000D01*
X90910000Y-97170000D02*
X80980000Y-97170000D01*
X80242800Y-106832800D02*
X83655001Y-110245001D01*
X91580000Y-97840000D02*
X90910000Y-97170000D01*
X91610000Y-98110000D02*
X91580000Y-98080000D01*
X80980000Y-97170000D02*
X80242800Y-97907200D01*
X83655001Y-110455001D02*
X83810000Y-110610000D01*
X83810000Y-110610000D02*
X83810000Y-110840000D01*
X80242800Y-97907200D02*
X80242800Y-106832800D01*
X83655001Y-110245001D02*
X83655001Y-110455001D01*
X83810000Y-110840000D02*
X83790000Y-110860000D01*
%TO.N,/LED_BLUE*%
X86810000Y-112340000D02*
X86790000Y-112360000D01*
%TO.N,/PWR_READOUT2*%
X83790000Y-114360000D02*
X83790000Y-126150000D01*
X83790000Y-126150000D02*
X84760000Y-127120000D01*
X84760000Y-127120000D02*
X103160000Y-127120000D01*
X103160000Y-127120000D02*
X104740000Y-128700000D01*
%TO.N,/BOOTKICK*%
X83790000Y-113860000D02*
X82962800Y-114687200D01*
X82962800Y-114687200D02*
X82962800Y-125752800D01*
X82962800Y-125752800D02*
X85910000Y-128700000D01*
X85910000Y-128700000D02*
X86960000Y-128700000D01*
%TO.N,/SOM_GPIO*%
X82785600Y-114364400D02*
X82785600Y-125935600D01*
X88400000Y-129800000D02*
X89500000Y-128700000D01*
X82785600Y-125935600D02*
X85367800Y-128517800D01*
X85840000Y-129800000D02*
X88400000Y-129800000D01*
X85367800Y-128517800D02*
X85367800Y-129327800D01*
X85367800Y-129327800D02*
X85840000Y-129800000D01*
X83790000Y-113360000D02*
X82785600Y-114364400D01*
%TO.N,/TRACESWO*%
X84700000Y-112450000D02*
X84790000Y-112360000D01*
%TO.N,/NJTRST*%
X81575958Y-107504042D02*
X81575958Y-107454042D01*
X81505000Y-107575000D02*
X81575958Y-107504042D01*
X84290000Y-110360000D02*
X81505000Y-107575000D01*
%TO.N,/UART_RX*%
X85290000Y-113360000D02*
X85617200Y-113032800D01*
X85617200Y-113032800D02*
X85617200Y-112649931D01*
X85427200Y-108512800D02*
X86170000Y-107770000D01*
X85350000Y-112382731D02*
X85350000Y-111920000D01*
X85123635Y-111063635D02*
X85427200Y-110760069D01*
X85617200Y-112649931D02*
X85350000Y-112382731D01*
X85350000Y-111920000D02*
X84962800Y-111532800D01*
X84962800Y-111532800D02*
X84962800Y-111224469D01*
X84962800Y-111224469D02*
X85123635Y-111063635D01*
X85427200Y-110760069D02*
X85427200Y-108512800D01*
X86170000Y-107770000D02*
X89660000Y-107770000D01*
%TO.N,/UART_TX*%
X85290000Y-112860000D02*
X85155001Y-112725001D01*
X85155001Y-112725001D02*
X85155001Y-112255001D01*
X85250000Y-110370000D02*
X85250000Y-108260000D01*
X85155001Y-112255001D02*
X84740000Y-111840000D01*
X85250000Y-108260000D02*
X86090000Y-107420000D01*
X84740000Y-111840000D02*
X84740000Y-110880000D01*
X84740000Y-110880000D02*
X85250000Y-110370000D01*
X86090000Y-107420000D02*
X90463800Y-107420000D01*
X90463800Y-107420000D02*
X90473800Y-107430000D01*
%TO.N,/CAN2_T*%
X84290000Y-110860000D02*
X83987200Y-110557200D01*
X83962800Y-110302800D02*
X83832201Y-110172201D01*
X83950599Y-110500000D02*
X83958331Y-110500000D01*
X83832201Y-110172201D02*
X83832201Y-110171602D01*
X83987200Y-110536602D02*
X83950599Y-110500000D01*
X83962800Y-110495531D02*
X83962800Y-110302800D01*
X83958331Y-110500000D02*
X83962800Y-110495531D01*
X83987200Y-110557200D02*
X83987200Y-110536602D01*
X83832201Y-110171602D02*
X80670000Y-107009402D01*
X80670000Y-107009402D02*
X80670000Y-98510000D01*
%TO.N,/NJTRST*%
X81390000Y-107460000D02*
X81380000Y-107460000D01*
X81505000Y-107575000D02*
X81390000Y-107460000D01*
%TO.N,/LED_BLUE*%
X99560000Y-116270000D02*
X99560000Y-113060000D01*
X99240000Y-116590000D02*
X99560000Y-116270000D01*
X94940000Y-116610000D02*
X99240000Y-116610000D01*
X98860000Y-112360000D02*
X86790000Y-112360000D01*
X99560000Y-113060000D02*
X98860000Y-112360000D01*
X94330000Y-117220000D02*
X94940000Y-116610000D01*
X94330000Y-122603800D02*
X94330000Y-117220000D01*
X99240000Y-116610000D02*
X99240000Y-116590000D01*
X94336200Y-122610000D02*
X94330000Y-122603800D01*
%TD*%
M02*
