%TF.GenerationSoftware,KiCad,Pcbnew,9.0.4*%
%TF.CreationDate,2025-09-28T18:54:50+03:00*%
%TF.ProjectId,Asius2,41736975-7332-42e6-9b69-6361645f7063,rev?*%
%TF.SameCoordinates,Original*%
%TF.FileFunction,Copper,L4,Inr*%
%TF.FilePolarity,Positive*%
%FSLAX46Y46*%
G04 Gerber Fmt 4.6, Leading zero omitted, Abs format (unit mm)*
G04 Created by KiCad (PCBNEW 9.0.4) date 2025-09-28 18:54:50*
%MOMM*%
%LPD*%
G01*
G04 APERTURE LIST*
%TA.AperFunction,ComponentPad*%
%ADD10C,0.600000*%
%TD*%
%TA.AperFunction,ComponentPad*%
%ADD11O,1.000000X1.600000*%
%TD*%
%TA.AperFunction,ComponentPad*%
%ADD12R,1.700000X1.700000*%
%TD*%
%TA.AperFunction,ComponentPad*%
%ADD13C,1.700000*%
%TD*%
%TA.AperFunction,ViaPad*%
%ADD14C,0.600000*%
%TD*%
%TA.AperFunction,ViaPad*%
%ADD15C,0.400000*%
%TD*%
G04 APERTURE END LIST*
D10*
%TO.N,GND*%
%TO.C,USBC1*%
X83460000Y-78150000D03*
%TO.N,/CAN3_H*%
X83860000Y-77450000D03*
%TO.N,/CAN3_L*%
X84660000Y-77450000D03*
%TO.N,+5V*%
X85060000Y-78150000D03*
%TO.N,Net-(USBC1-CC2)*%
X85460000Y-77450000D03*
%TO.N,/USB_DP*%
X85860000Y-78150000D03*
%TO.N,/USB_DM*%
X86660000Y-78150000D03*
%TO.N,/SBU2*%
X87060000Y-77450000D03*
%TO.N,+5V*%
X87460000Y-78150000D03*
%TO.N,/CAN4_L*%
X87860000Y-77450000D03*
%TO.N,/CAN4_H*%
X88660000Y-77450000D03*
%TO.N,GND*%
X89060000Y-78150000D03*
D11*
X90390000Y-77560000D03*
X82130000Y-77560000D03*
X90750000Y-73150000D03*
X81770000Y-73150000D03*
%TD*%
D12*
%TO.N,unconnected-(J2-Pin_1-Pad1)*%
%TO.C,J2*%
X102160000Y-76890000D03*
D13*
%TO.N,+5V*%
X104700000Y-76890000D03*
%TO.N,/IMU_SDA*%
X102160000Y-79430000D03*
%TO.N,+5V*%
X104700000Y-79430000D03*
%TO.N,/IMU_SCL*%
X102160000Y-81970000D03*
%TO.N,GND*%
X104700000Y-81970000D03*
%TO.N,unconnected-(J2-Pin_7-Pad7)*%
X102160000Y-84510000D03*
%TO.N,/UART_RX*%
X104700000Y-84510000D03*
%TO.N,GND*%
X102160000Y-87050000D03*
%TO.N,/UART_TX*%
X104700000Y-87050000D03*
%TO.N,unconnected-(J2-Pin_11-Pad11)*%
X102160000Y-89590000D03*
%TO.N,unconnected-(J2-Pin_12-Pad12)*%
X104700000Y-89590000D03*
%TO.N,unconnected-(J2-Pin_13-Pad13)*%
X102160000Y-92130000D03*
%TO.N,GND*%
X104700000Y-92130000D03*
%TO.N,unconnected-(J2-Pin_15-Pad15)*%
X102160000Y-94670000D03*
%TO.N,unconnected-(J2-Pin_16-Pad16)*%
X104700000Y-94670000D03*
%TO.N,unconnected-(J2-Pin_17-Pad17)*%
X102160000Y-97210000D03*
%TO.N,unconnected-(J2-Pin_18-Pad18)*%
X104700000Y-97210000D03*
%TO.N,/SPI_MOSI*%
X102160000Y-99750000D03*
%TO.N,unconnected-(J2-Pin_20-Pad20)*%
X104700000Y-99750000D03*
%TO.N,/SPI_MISO*%
X102160000Y-102290000D03*
%TO.N,unconnected-(J2-Pin_22-Pad22)*%
X104700000Y-102290000D03*
%TO.N,/SPI_SCK*%
X102160000Y-104830000D03*
%TO.N,/SPI_NSS*%
X104700000Y-104830000D03*
%TO.N,unconnected-(J2-Pin_25-Pad25)*%
X102160000Y-107370000D03*
%TO.N,unconnected-(J2-Pin_26-Pad26)*%
X104700000Y-107370000D03*
%TO.N,unconnected-(J2-Pin_27-Pad27)*%
X102160000Y-109910000D03*
%TO.N,unconnected-(J2-Pin_28-Pad28)*%
X104700000Y-109910000D03*
%TO.N,unconnected-(J2-Pin_29-Pad29)*%
X102160000Y-112450000D03*
%TO.N,unconnected-(J2-Pin_30-Pad30)*%
X104700000Y-112450000D03*
%TO.N,unconnected-(J2-Pin_31-Pad31)*%
X102160000Y-114990000D03*
%TO.N,unconnected-(J2-Pin_32-Pad32)*%
X104700000Y-114990000D03*
%TO.N,unconnected-(J2-Pin_33-Pad33)*%
X102160000Y-117530000D03*
%TO.N,unconnected-(J2-Pin_34-Pad34)*%
X104700000Y-117530000D03*
%TO.N,unconnected-(J2-Pin_35-Pad35)*%
X102160000Y-120070000D03*
%TO.N,unconnected-(J2-Pin_36-Pad36)*%
X104700000Y-120070000D03*
%TO.N,unconnected-(J2-Pin_37-Pad37)*%
X102160000Y-122610000D03*
%TO.N,unconnected-(J2-Pin_38-Pad38)*%
X104700000Y-122610000D03*
%TO.N,unconnected-(J2-Pin_39-Pad39)*%
X102160000Y-125150000D03*
%TO.N,unconnected-(J2-Pin_40-Pad40)*%
X104700000Y-125150000D03*
%TD*%
D12*
%TO.N,/SWDIO*%
%TO.C,J6*%
X68300000Y-100190000D03*
D13*
%TO.N,/SWCLK*%
X68300000Y-102730000D03*
%TO.N,/JTDI*%
X68300000Y-105270000D03*
%TO.N,/TRACESWO*%
X68300000Y-107810000D03*
%TO.N,/NJTRST*%
X68300000Y-110350000D03*
%TD*%
D12*
%TO.N,/AUDIO_SAI4_SCK_B*%
%TO.C,J5*%
X83410000Y-128720000D03*
D13*
%TO.N,/AUDIO_SAI4_FS_B*%
X80870000Y-128720000D03*
%TO.N,/AUDIO_SAI4_SD_A*%
X78330000Y-128720000D03*
%TO.N,/AUDIO_SAI4_SD_B*%
X75790000Y-128720000D03*
%TO.N,/AUDIO_DFSDM1_DATIN3*%
X73250000Y-128720000D03*
%TO.N,/AUDIO_DFSDM1_CKOUT*%
X70710000Y-128720000D03*
%TO.N,/AUDIO_SAI4_MCLK_B*%
X68170000Y-128720000D03*
%TD*%
D12*
%TO.N,/FAN_ENABLE*%
%TO.C,J4*%
X68250000Y-113920000D03*
D13*
%TO.N,/FAN_TACHOMETER*%
X68250000Y-116460000D03*
%TO.N,/FAN_SETUP*%
X68250000Y-119000000D03*
%TD*%
D12*
%TO.N,/BOOTKICK*%
%TO.C,J3*%
X86960000Y-128700000D03*
D13*
%TO.N,/SOM_GPIO*%
X89500000Y-128700000D03*
%TO.N,/VOLT_S*%
X92040000Y-128700000D03*
%TO.N,/VBAT_EN*%
X94580000Y-128700000D03*
%TO.N,/SBU1_RELAY*%
X97120000Y-128700000D03*
%TO.N,/SBU2_RELAY*%
X99660000Y-128700000D03*
%TO.N,/PWR_READOUT1*%
X102200000Y-128700000D03*
%TO.N,/PWR_READOUT2*%
X104740000Y-128700000D03*
%TD*%
D12*
%TO.N,GND*%
%TO.C,J1*%
X68250000Y-122560000D03*
D13*
%TO.N,+3.3V*%
X68250000Y-125100000D03*
%TD*%
D14*
%TO.N,+5V*%
X103740000Y-75170000D03*
%TO.N,GND*%
X96480000Y-75210000D03*
%TO.N,+5V*%
X96510000Y-80690000D03*
%TO.N,GND*%
X104810000Y-73130000D03*
D15*
%TO.N,/SBU1_RELAY*%
X93543741Y-113536520D03*
%TO.N,/CAN1_T*%
X84118800Y-102830000D03*
%TO.N,/CAN2_R*%
X84470000Y-98420000D03*
X84470000Y-102016200D03*
%TO.N,/LED_RED*%
X97370000Y-117440000D03*
%TO.N,/LED_GREEN*%
X95590000Y-117080000D03*
%TO.N,/LED_BLUE*%
X94336200Y-122610000D03*
%TO.N,/CAN3_E*%
X96780000Y-116063800D03*
%TO.N,/CAN3_T*%
X97240000Y-115756200D03*
%TO.N,/CAN3_E*%
X96763797Y-113770000D03*
%TO.N,/CAN3_T*%
X97240000Y-113770000D03*
%TO.N,/CAN3_R*%
X97650000Y-114080000D03*
%TO.N,/CAN2_E*%
X97990000Y-114450000D03*
%TO.N,/SWDIO*%
X96530000Y-110390000D03*
%TO.N,/FAN_SETUP*%
X92860000Y-114863800D03*
D14*
%TO.N,+3.3V*%
X98690000Y-122540000D03*
D15*
%TO.N,/SBU1*%
X85610000Y-85370000D03*
D14*
%TO.N,+3.3V*%
X94080000Y-72210000D03*
%TO.N,GND*%
X71460000Y-87280000D03*
X72720000Y-96000000D03*
%TO.N,+3.3V*%
X71440000Y-94710000D03*
%TO.N,GND*%
X85250000Y-106990000D03*
X82210000Y-106906200D03*
X78410000Y-111200000D03*
X76650000Y-113590000D03*
X78286805Y-115816200D03*
X82310000Y-117960000D03*
X87250000Y-119030000D03*
X90770000Y-113250000D03*
X91376369Y-110829834D03*
D15*
%TO.N,/JTDI*%
X87116200Y-109000000D03*
D14*
%TO.N,+3.3V*%
X102990000Y-72460000D03*
X99570000Y-74420000D03*
%TO.N,GND*%
X100240000Y-72190000D03*
X102090000Y-74370000D03*
X76480000Y-76910000D03*
D15*
%TO.N,/AUDIO_SAI4_SD_A*%
X93203800Y-113870000D03*
%TO.N,/NJTRST*%
X81575958Y-107454042D03*
%TO.N,/AUDIO_DFSDM1_CKOUT*%
X85780000Y-124740000D03*
%TO.N,/CAN1_E*%
X86980000Y-91690000D03*
%TO.N,/SBU2*%
X81010000Y-125350000D03*
X85220594Y-125363800D03*
%TO.N,Net-(U7-NRST)*%
X71490000Y-98580000D03*
%TO.N,Net-(U7-BOOT0)*%
X71460000Y-91200000D03*
%TO.N,/UART_TX*%
X90473800Y-107430000D03*
%TO.N,/UART_RX*%
X89660000Y-107770000D03*
%TO.N,/VBAT_EN*%
X94010000Y-108580000D03*
%TO.N,/USB_DM*%
X85970000Y-80270000D03*
X86560000Y-80820000D03*
%TO.N,/USB_DP*%
X86510000Y-80230000D03*
%TO.N,/LED_BLUE*%
X86790000Y-112360000D03*
%TO.N,GND*%
X84790000Y-115360000D03*
%TO.N,+3.3V*%
X83290000Y-110860000D03*
%TO.N,GND*%
X82290000Y-115360000D03*
X85290000Y-111360000D03*
X82290000Y-111360000D03*
%TO.N,+3.3V*%
X84790000Y-115860000D03*
X81790000Y-115360000D03*
%TO.N,/CAN2_T*%
X84290000Y-110860000D03*
%TO.N,+3.3V*%
X82290000Y-114860000D03*
X87290000Y-111360000D03*
%TO.N,Net-(U7-NRST)*%
X84290000Y-112860000D03*
%TO.N,/LED_RED*%
X85790000Y-112360000D03*
%TO.N,/FAN_ENABLE*%
X85790000Y-111360000D03*
%TO.N,Net-(U7-BOOT0)*%
X84290000Y-111860000D03*
%TO.N,+3.3V*%
X82790000Y-111860000D03*
X82790000Y-109860000D03*
%TO.N,GND*%
X87290000Y-110860000D03*
X87290000Y-114860000D03*
X82290000Y-112860000D03*
X86790000Y-115360000D03*
%TO.N,+3.3V*%
X86290000Y-115360000D03*
%TO.N,GND*%
X82790000Y-113860000D03*
X87290000Y-113360000D03*
X85790000Y-110360000D03*
%TO.N,+3.3V*%
X84790000Y-109860000D03*
X87790000Y-112860000D03*
X81790000Y-114860000D03*
X81790000Y-112860000D03*
X84290000Y-109860000D03*
X86290000Y-109860000D03*
X81790000Y-111360000D03*
%TO.N,GND*%
X82290000Y-111860000D03*
X82790000Y-110360000D03*
%TO.N,/SPI_MISO*%
X85290000Y-114360000D03*
%TO.N,GND*%
X84790000Y-110360000D03*
%TO.N,+3.3V*%
X87790000Y-114860000D03*
X83290000Y-110360000D03*
%TO.N,/TRACESWO*%
X84790000Y-112360000D03*
%TO.N,/PWR_READOUT2*%
X83790000Y-114360000D03*
%TO.N,+3.3V*%
X87790000Y-110860000D03*
X87790000Y-113360000D03*
X83290000Y-115860000D03*
%TO.N,/SWDIO*%
X86790000Y-111360000D03*
%TO.N,/SBU1*%
X84290000Y-114360000D03*
%TO.N,/CAN1_R*%
X83790000Y-110860000D03*
%TO.N,/NJTRST*%
X84290000Y-110360000D03*
%TO.N,/SOM_GPIO*%
X83790000Y-113360000D03*
%TO.N,/BOOTKICK*%
X83790000Y-113860000D03*
%TO.N,/AUDIO_SAI4_SD_A*%
X86290000Y-113860000D03*
%TO.N,GND*%
X86290000Y-110360000D03*
X83290000Y-115360000D03*
%TO.N,/LED_GREEN*%
X86290000Y-112360000D03*
%TO.N,/CAN3_R*%
X86790000Y-113860000D03*
%TO.N,/CAN1_E*%
X84290000Y-111360000D03*
%TO.N,/FAN_TACHOMETER*%
X85790000Y-111860000D03*
%TO.N,/UART_TX*%
X85290000Y-112860000D03*
%TO.N,/AUDIO_DFSDM1_CKOUT*%
X85290000Y-113860000D03*
%TO.N,+3.3V*%
X86790000Y-115860000D03*
%TO.N,/SPI_MOSI*%
X85790000Y-113860000D03*
%TO.N,/UART_RX*%
X85290000Y-113360000D03*
%TO.N,/CAN2_E*%
X85790000Y-114860000D03*
%TO.N,+3.3V*%
X81790000Y-112360000D03*
D14*
%TO.N,/CAN2_T*%
X80670000Y-98510000D03*
%TO.N,/CAN1_T*%
X87810000Y-98350000D03*
%TO.N,+3.3V*%
X76190000Y-98270000D03*
%TO.N,GND*%
X75960000Y-98970000D03*
%TO.N,+3.3V*%
X82490000Y-98160000D03*
%TO.N,GND*%
X82230000Y-98870000D03*
%TO.N,+3.3V*%
X96320000Y-97810000D03*
%TO.N,GND*%
X96125000Y-98555000D03*
%TO.N,+3.3V*%
X89620000Y-98020000D03*
%TO.N,GND*%
X89070000Y-98700000D03*
%TO.N,+5V*%
X87550000Y-81380000D03*
X76630000Y-74050000D03*
X85010000Y-81430000D03*
%TO.N,GND*%
X91370000Y-87150000D03*
X98080000Y-86700000D03*
X84110000Y-87280000D03*
X78070000Y-87310000D03*
X67840000Y-94490000D03*
%TO.N,+3.3V*%
X67810000Y-87380000D03*
%TO.N,GND*%
X87040000Y-85790000D03*
X79060000Y-72460000D03*
X67660000Y-80220000D03*
%TO.N,+3.3V*%
X73690000Y-79520000D03*
%TO.N,/CAN1_R*%
X91610000Y-98110000D03*
%TD*%
%TA.AperFunction,Conductor*%
%TO.N,+3.3V*%
G36*
X106318691Y-70659407D02*
G01*
X106354655Y-70708907D01*
X106359500Y-70739500D01*
X106359500Y-130260500D01*
X106340593Y-130318691D01*
X106291093Y-130354655D01*
X106260500Y-130359500D01*
X66739500Y-130359500D01*
X66681309Y-130340593D01*
X66645345Y-130291093D01*
X66640500Y-130260500D01*
X66640500Y-128616532D01*
X67119500Y-128616532D01*
X67119500Y-128823467D01*
X67159869Y-129026418D01*
X67239058Y-129217597D01*
X67354020Y-129389651D01*
X67354023Y-129389655D01*
X67500345Y-129535977D01*
X67672402Y-129650941D01*
X67863580Y-129730130D01*
X68066535Y-129770500D01*
X68066536Y-129770500D01*
X68273464Y-129770500D01*
X68273465Y-129770500D01*
X68476420Y-129730130D01*
X68667598Y-129650941D01*
X68839655Y-129535977D01*
X68985977Y-129389655D01*
X69100941Y-129217598D01*
X69180130Y-129026420D01*
X69220500Y-128823465D01*
X69220500Y-128616535D01*
X69220499Y-128616532D01*
X69659500Y-128616532D01*
X69659500Y-128823467D01*
X69699869Y-129026418D01*
X69779058Y-129217597D01*
X69894020Y-129389651D01*
X69894023Y-129389655D01*
X70040345Y-129535977D01*
X70212402Y-129650941D01*
X70403580Y-129730130D01*
X70606535Y-129770500D01*
X70606536Y-129770500D01*
X70813464Y-129770500D01*
X70813465Y-129770500D01*
X71016420Y-129730130D01*
X71207598Y-129650941D01*
X71379655Y-129535977D01*
X71525977Y-129389655D01*
X71640941Y-129217598D01*
X71720130Y-129026420D01*
X71760500Y-128823465D01*
X71760500Y-128616535D01*
X71760499Y-128616532D01*
X72199500Y-128616532D01*
X72199500Y-128823467D01*
X72239869Y-129026418D01*
X72319058Y-129217597D01*
X72434020Y-129389651D01*
X72434023Y-129389655D01*
X72580345Y-129535977D01*
X72752402Y-129650941D01*
X72943580Y-129730130D01*
X73146535Y-129770500D01*
X73146536Y-129770500D01*
X73353464Y-129770500D01*
X73353465Y-129770500D01*
X73556420Y-129730130D01*
X73747598Y-129650941D01*
X73919655Y-129535977D01*
X74065977Y-129389655D01*
X74180941Y-129217598D01*
X74260130Y-129026420D01*
X74300500Y-128823465D01*
X74300500Y-128616535D01*
X74300499Y-128616532D01*
X74739500Y-128616532D01*
X74739500Y-128823467D01*
X74779869Y-129026418D01*
X74859058Y-129217597D01*
X74974020Y-129389651D01*
X74974023Y-129389655D01*
X75120345Y-129535977D01*
X75292402Y-129650941D01*
X75483580Y-129730130D01*
X75686535Y-129770500D01*
X75686536Y-129770500D01*
X75893464Y-129770500D01*
X75893465Y-129770500D01*
X76096420Y-129730130D01*
X76287598Y-129650941D01*
X76459655Y-129535977D01*
X76605977Y-129389655D01*
X76720941Y-129217598D01*
X76800130Y-129026420D01*
X76840500Y-128823465D01*
X76840500Y-128616535D01*
X76840499Y-128616532D01*
X77279500Y-128616532D01*
X77279500Y-128823467D01*
X77319869Y-129026418D01*
X77399058Y-129217597D01*
X77514020Y-129389651D01*
X77514023Y-129389655D01*
X77660345Y-129535977D01*
X77832402Y-129650941D01*
X78023580Y-129730130D01*
X78226535Y-129770500D01*
X78226536Y-129770500D01*
X78433464Y-129770500D01*
X78433465Y-129770500D01*
X78636420Y-129730130D01*
X78827598Y-129650941D01*
X78999655Y-129535977D01*
X79145977Y-129389655D01*
X79260941Y-129217598D01*
X79340130Y-129026420D01*
X79380500Y-128823465D01*
X79380500Y-128616535D01*
X79380499Y-128616532D01*
X79819500Y-128616532D01*
X79819500Y-128823467D01*
X79859869Y-129026418D01*
X79939058Y-129217597D01*
X80054020Y-129389651D01*
X80054023Y-129389655D01*
X80200345Y-129535977D01*
X80372402Y-129650941D01*
X80563580Y-129730130D01*
X80766535Y-129770500D01*
X80766536Y-129770500D01*
X80973464Y-129770500D01*
X80973465Y-129770500D01*
X81176420Y-129730130D01*
X81367598Y-129650941D01*
X81539655Y-129535977D01*
X81685977Y-129389655D01*
X81800941Y-129217598D01*
X81880130Y-129026420D01*
X81920500Y-128823465D01*
X81920500Y-128616535D01*
X81880130Y-128413580D01*
X81800941Y-128222402D01*
X81685977Y-128050345D01*
X81539655Y-127904023D01*
X81509723Y-127884023D01*
X81459182Y-127850253D01*
X82359500Y-127850253D01*
X82359500Y-129589746D01*
X82359501Y-129589758D01*
X82371132Y-129648227D01*
X82371134Y-129648233D01*
X82412493Y-129710130D01*
X82415448Y-129714552D01*
X82481769Y-129758867D01*
X82526231Y-129767711D01*
X82540241Y-129770498D01*
X82540246Y-129770498D01*
X82540252Y-129770500D01*
X82540253Y-129770500D01*
X84279747Y-129770500D01*
X84279748Y-129770500D01*
X84338231Y-129758867D01*
X84404552Y-129714552D01*
X84448867Y-129648231D01*
X84460500Y-129589748D01*
X84460500Y-127850252D01*
X84460499Y-127850250D01*
X84460499Y-127850244D01*
X84459399Y-127844715D01*
X84459396Y-127844703D01*
X84456522Y-127830253D01*
X85909500Y-127830253D01*
X85909500Y-129569746D01*
X85909501Y-129569758D01*
X85921132Y-129628227D01*
X85921134Y-129628233D01*
X85965445Y-129694548D01*
X85965448Y-129694552D01*
X86031769Y-129738867D01*
X86076231Y-129747711D01*
X86090241Y-129750498D01*
X86090246Y-129750498D01*
X86090252Y-129750500D01*
X86090253Y-129750500D01*
X87829747Y-129750500D01*
X87829748Y-129750500D01*
X87888231Y-129738867D01*
X87954552Y-129694552D01*
X87998867Y-129628231D01*
X88010500Y-129569748D01*
X88010500Y-128596532D01*
X88449500Y-128596532D01*
X88449500Y-128803467D01*
X88489869Y-129006418D01*
X88569058Y-129197597D01*
X88582422Y-129217598D01*
X88684023Y-129369655D01*
X88830345Y-129515977D01*
X89002402Y-129630941D01*
X89193580Y-129710130D01*
X89396535Y-129750500D01*
X89396536Y-129750500D01*
X89603464Y-129750500D01*
X89603465Y-129750500D01*
X89806420Y-129710130D01*
X89997598Y-129630941D01*
X90169655Y-129515977D01*
X90315977Y-129369655D01*
X90430941Y-129197598D01*
X90510130Y-129006420D01*
X90550500Y-128803465D01*
X90550500Y-128596535D01*
X90550499Y-128596532D01*
X90989500Y-128596532D01*
X90989500Y-128803467D01*
X91029869Y-129006418D01*
X91109058Y-129197597D01*
X91122422Y-129217598D01*
X91224023Y-129369655D01*
X91370345Y-129515977D01*
X91542402Y-129630941D01*
X91733580Y-129710130D01*
X91936535Y-129750500D01*
X91936536Y-129750500D01*
X92143464Y-129750500D01*
X92143465Y-129750500D01*
X92346420Y-129710130D01*
X92537598Y-129630941D01*
X92709655Y-129515977D01*
X92855977Y-129369655D01*
X92970941Y-129197598D01*
X93050130Y-129006420D01*
X93090500Y-128803465D01*
X93090500Y-128596535D01*
X93090499Y-128596532D01*
X93529500Y-128596532D01*
X93529500Y-128803467D01*
X93569869Y-129006418D01*
X93649058Y-129197597D01*
X93662422Y-129217598D01*
X93764023Y-129369655D01*
X93910345Y-129515977D01*
X94082402Y-129630941D01*
X94273580Y-129710130D01*
X94476535Y-129750500D01*
X94476536Y-129750500D01*
X94683464Y-129750500D01*
X94683465Y-129750500D01*
X94886420Y-129710130D01*
X95077598Y-129630941D01*
X95249655Y-129515977D01*
X95395977Y-129369655D01*
X95510941Y-129197598D01*
X95590130Y-129006420D01*
X95630500Y-128803465D01*
X95630500Y-128596535D01*
X95630499Y-128596532D01*
X96069500Y-128596532D01*
X96069500Y-128803467D01*
X96109869Y-129006418D01*
X96189058Y-129197597D01*
X96202422Y-129217598D01*
X96304023Y-129369655D01*
X96450345Y-129515977D01*
X96622402Y-129630941D01*
X96813580Y-129710130D01*
X97016535Y-129750500D01*
X97016536Y-129750500D01*
X97223464Y-129750500D01*
X97223465Y-129750500D01*
X97426420Y-129710130D01*
X97617598Y-129630941D01*
X97789655Y-129515977D01*
X97935977Y-129369655D01*
X98050941Y-129197598D01*
X98130130Y-129006420D01*
X98170500Y-128803465D01*
X98170500Y-128596535D01*
X98170499Y-128596532D01*
X98609500Y-128596532D01*
X98609500Y-128803467D01*
X98649869Y-129006418D01*
X98729058Y-129197597D01*
X98742422Y-129217598D01*
X98844023Y-129369655D01*
X98990345Y-129515977D01*
X99162402Y-129630941D01*
X99353580Y-129710130D01*
X99556535Y-129750500D01*
X99556536Y-129750500D01*
X99763464Y-129750500D01*
X99763465Y-129750500D01*
X99966420Y-129710130D01*
X100157598Y-129630941D01*
X100329655Y-129515977D01*
X100475977Y-129369655D01*
X100590941Y-129197598D01*
X100670130Y-129006420D01*
X100710500Y-128803465D01*
X100710500Y-128596535D01*
X100710499Y-128596532D01*
X101149500Y-128596532D01*
X101149500Y-128803467D01*
X101189869Y-129006418D01*
X101269058Y-129197597D01*
X101282422Y-129217598D01*
X101384023Y-129369655D01*
X101530345Y-129515977D01*
X101702402Y-129630941D01*
X101893580Y-129710130D01*
X102096535Y-129750500D01*
X102096536Y-129750500D01*
X102303464Y-129750500D01*
X102303465Y-129750500D01*
X102506420Y-129710130D01*
X102697598Y-129630941D01*
X102869655Y-129515977D01*
X103015977Y-129369655D01*
X103130941Y-129197598D01*
X103210130Y-129006420D01*
X103250500Y-128803465D01*
X103250500Y-128596535D01*
X103250499Y-128596532D01*
X103689500Y-128596532D01*
X103689500Y-128803467D01*
X103729869Y-129006418D01*
X103809058Y-129197597D01*
X103822422Y-129217598D01*
X103924023Y-129369655D01*
X104070345Y-129515977D01*
X104242402Y-129630941D01*
X104433580Y-129710130D01*
X104636535Y-129750500D01*
X104636536Y-129750500D01*
X104843464Y-129750500D01*
X104843465Y-129750500D01*
X105046420Y-129710130D01*
X105237598Y-129630941D01*
X105409655Y-129515977D01*
X105555977Y-129369655D01*
X105670941Y-129197598D01*
X105750130Y-129006420D01*
X105790500Y-128803465D01*
X105790500Y-128596535D01*
X105750130Y-128393580D01*
X105670941Y-128202402D01*
X105555977Y-128030345D01*
X105409655Y-127884023D01*
X105409651Y-127884020D01*
X105237597Y-127769058D01*
X105046418Y-127689869D01*
X104843467Y-127649500D01*
X104843465Y-127649500D01*
X104636535Y-127649500D01*
X104636532Y-127649500D01*
X104433581Y-127689869D01*
X104242402Y-127769058D01*
X104070348Y-127884020D01*
X103924020Y-128030348D01*
X103809058Y-128202402D01*
X103729869Y-128393581D01*
X103689500Y-128596532D01*
X103250499Y-128596532D01*
X103210130Y-128393580D01*
X103130941Y-128202402D01*
X103015977Y-128030345D01*
X102869655Y-127884023D01*
X102869651Y-127884020D01*
X102697597Y-127769058D01*
X102506418Y-127689869D01*
X102303467Y-127649500D01*
X102303465Y-127649500D01*
X102096535Y-127649500D01*
X102096532Y-127649500D01*
X101893581Y-127689869D01*
X101702402Y-127769058D01*
X101530348Y-127884020D01*
X101384020Y-128030348D01*
X101269058Y-128202402D01*
X101189869Y-128393581D01*
X101149500Y-128596532D01*
X100710499Y-128596532D01*
X100670130Y-128393580D01*
X100590941Y-128202402D01*
X100475977Y-128030345D01*
X100329655Y-127884023D01*
X100329651Y-127884020D01*
X100157597Y-127769058D01*
X99966418Y-127689869D01*
X99763467Y-127649500D01*
X99763465Y-127649500D01*
X99556535Y-127649500D01*
X99556532Y-127649500D01*
X99353581Y-127689869D01*
X99162402Y-127769058D01*
X98990348Y-127884020D01*
X98844020Y-128030348D01*
X98729058Y-128202402D01*
X98649869Y-128393581D01*
X98609500Y-128596532D01*
X98170499Y-128596532D01*
X98130130Y-128393580D01*
X98050941Y-128202402D01*
X97935977Y-128030345D01*
X97789655Y-127884023D01*
X97789651Y-127884020D01*
X97617597Y-127769058D01*
X97426418Y-127689869D01*
X97223467Y-127649500D01*
X97223465Y-127649500D01*
X97016535Y-127649500D01*
X97016532Y-127649500D01*
X96813581Y-127689869D01*
X96622402Y-127769058D01*
X96450348Y-127884020D01*
X96304020Y-128030348D01*
X96189058Y-128202402D01*
X96109869Y-128393581D01*
X96069500Y-128596532D01*
X95630499Y-128596532D01*
X95590130Y-128393580D01*
X95510941Y-128202402D01*
X95395977Y-128030345D01*
X95249655Y-127884023D01*
X95249651Y-127884020D01*
X95077597Y-127769058D01*
X94886418Y-127689869D01*
X94683467Y-127649500D01*
X94683465Y-127649500D01*
X94476535Y-127649500D01*
X94476532Y-127649500D01*
X94273581Y-127689869D01*
X94082402Y-127769058D01*
X93910348Y-127884020D01*
X93764020Y-128030348D01*
X93649058Y-128202402D01*
X93569869Y-128393581D01*
X93529500Y-128596532D01*
X93090499Y-128596532D01*
X93050130Y-128393580D01*
X92970941Y-128202402D01*
X92855977Y-128030345D01*
X92709655Y-127884023D01*
X92709651Y-127884020D01*
X92537597Y-127769058D01*
X92346418Y-127689869D01*
X92143467Y-127649500D01*
X92143465Y-127649500D01*
X91936535Y-127649500D01*
X91936532Y-127649500D01*
X91733581Y-127689869D01*
X91542402Y-127769058D01*
X91370348Y-127884020D01*
X91224020Y-128030348D01*
X91109058Y-128202402D01*
X91029869Y-128393581D01*
X90989500Y-128596532D01*
X90550499Y-128596532D01*
X90510130Y-128393580D01*
X90430941Y-128202402D01*
X90315977Y-128030345D01*
X90169655Y-127884023D01*
X90169651Y-127884020D01*
X89997597Y-127769058D01*
X89806418Y-127689869D01*
X89603467Y-127649500D01*
X89603465Y-127649500D01*
X89396535Y-127649500D01*
X89396532Y-127649500D01*
X89193581Y-127689869D01*
X89002402Y-127769058D01*
X88830348Y-127884020D01*
X88684020Y-128030348D01*
X88569058Y-128202402D01*
X88489869Y-128393581D01*
X88449500Y-128596532D01*
X88010500Y-128596532D01*
X88010500Y-127830252D01*
X87998867Y-127771769D01*
X87954552Y-127705448D01*
X87954548Y-127705445D01*
X87888233Y-127661134D01*
X87888231Y-127661133D01*
X87888228Y-127661132D01*
X87888227Y-127661132D01*
X87829758Y-127649501D01*
X87829748Y-127649500D01*
X86090252Y-127649500D01*
X86090251Y-127649500D01*
X86090241Y-127649501D01*
X86031772Y-127661132D01*
X86031766Y-127661134D01*
X85965451Y-127705445D01*
X85965445Y-127705451D01*
X85921134Y-127771766D01*
X85921132Y-127771772D01*
X85909501Y-127830241D01*
X85909500Y-127830253D01*
X84456522Y-127830253D01*
X84448867Y-127791769D01*
X84404552Y-127725448D01*
X84404548Y-127725445D01*
X84338233Y-127681134D01*
X84338231Y-127681133D01*
X84338228Y-127681132D01*
X84338227Y-127681132D01*
X84279758Y-127669501D01*
X84279748Y-127669500D01*
X82540252Y-127669500D01*
X82540251Y-127669500D01*
X82540241Y-127669501D01*
X82481772Y-127681132D01*
X82481766Y-127681134D01*
X82415451Y-127725445D01*
X82415445Y-127725451D01*
X82371134Y-127791766D01*
X82371132Y-127791772D01*
X82359501Y-127850241D01*
X82359500Y-127850253D01*
X81459182Y-127850253D01*
X81367597Y-127789058D01*
X81176418Y-127709869D01*
X80973467Y-127669500D01*
X80973465Y-127669500D01*
X80766535Y-127669500D01*
X80766532Y-127669500D01*
X80563581Y-127709869D01*
X80372402Y-127789058D01*
X80200348Y-127904020D01*
X80054020Y-128050348D01*
X79939058Y-128222402D01*
X79859869Y-128413581D01*
X79819500Y-128616532D01*
X79380499Y-128616532D01*
X79340130Y-128413580D01*
X79260941Y-128222402D01*
X79145977Y-128050345D01*
X78999655Y-127904023D01*
X78969723Y-127884023D01*
X78827597Y-127789058D01*
X78636418Y-127709869D01*
X78433467Y-127669500D01*
X78433465Y-127669500D01*
X78226535Y-127669500D01*
X78226532Y-127669500D01*
X78023581Y-127709869D01*
X77832402Y-127789058D01*
X77660348Y-127904020D01*
X77514020Y-128050348D01*
X77399058Y-128222402D01*
X77319869Y-128413581D01*
X77279500Y-128616532D01*
X76840499Y-128616532D01*
X76800130Y-128413580D01*
X76720941Y-128222402D01*
X76605977Y-128050345D01*
X76459655Y-127904023D01*
X76429723Y-127884023D01*
X76287597Y-127789058D01*
X76096418Y-127709869D01*
X75893467Y-127669500D01*
X75893465Y-127669500D01*
X75686535Y-127669500D01*
X75686532Y-127669500D01*
X75483581Y-127709869D01*
X75292402Y-127789058D01*
X75120348Y-127904020D01*
X74974020Y-128050348D01*
X74859058Y-128222402D01*
X74779869Y-128413581D01*
X74739500Y-128616532D01*
X74300499Y-128616532D01*
X74260130Y-128413580D01*
X74180941Y-128222402D01*
X74065977Y-128050345D01*
X73919655Y-127904023D01*
X73889723Y-127884023D01*
X73747597Y-127789058D01*
X73556418Y-127709869D01*
X73353467Y-127669500D01*
X73353465Y-127669500D01*
X73146535Y-127669500D01*
X73146532Y-127669500D01*
X72943581Y-127709869D01*
X72752402Y-127789058D01*
X72580348Y-127904020D01*
X72434020Y-128050348D01*
X72319058Y-128222402D01*
X72239869Y-128413581D01*
X72199500Y-128616532D01*
X71760499Y-128616532D01*
X71720130Y-128413580D01*
X71640941Y-128222402D01*
X71525977Y-128050345D01*
X71379655Y-127904023D01*
X71349723Y-127884023D01*
X71207597Y-127789058D01*
X71016418Y-127709869D01*
X70813467Y-127669500D01*
X70813465Y-127669500D01*
X70606535Y-127669500D01*
X70606532Y-127669500D01*
X70403581Y-127709869D01*
X70212402Y-127789058D01*
X70040348Y-127904020D01*
X69894020Y-128050348D01*
X69779058Y-128222402D01*
X69699869Y-128413581D01*
X69659500Y-128616532D01*
X69220499Y-128616532D01*
X69180130Y-128413580D01*
X69100941Y-128222402D01*
X68985977Y-128050345D01*
X68839655Y-127904023D01*
X68809723Y-127884023D01*
X68667597Y-127789058D01*
X68476418Y-127709869D01*
X68273467Y-127669500D01*
X68273465Y-127669500D01*
X68066535Y-127669500D01*
X68066532Y-127669500D01*
X67863581Y-127709869D01*
X67672402Y-127789058D01*
X67500348Y-127904020D01*
X67354020Y-128050348D01*
X67239058Y-128222402D01*
X67159869Y-128413581D01*
X67119500Y-128616532D01*
X66640500Y-128616532D01*
X66640500Y-124993749D01*
X66900000Y-124993749D01*
X66900000Y-125206250D01*
X66933240Y-125416121D01*
X66998904Y-125618215D01*
X67095376Y-125807553D01*
X67095380Y-125807559D01*
X67134728Y-125861716D01*
X67134729Y-125861716D01*
X67767037Y-125229407D01*
X67784075Y-125292993D01*
X67849901Y-125407007D01*
X67942993Y-125500099D01*
X68057007Y-125565925D01*
X68120589Y-125582962D01*
X67488282Y-126215269D01*
X67488282Y-126215270D01*
X67542440Y-126254619D01*
X67542446Y-126254623D01*
X67731784Y-126351095D01*
X67933878Y-126416759D01*
X68143750Y-126450000D01*
X68356250Y-126450000D01*
X68566121Y-126416759D01*
X68768215Y-126351095D01*
X68957556Y-126254620D01*
X69011716Y-126215270D01*
X68379408Y-125582962D01*
X68442993Y-125565925D01*
X68557007Y-125500099D01*
X68650099Y-125407007D01*
X68715925Y-125292993D01*
X68732962Y-125229408D01*
X69365270Y-125861716D01*
X69404620Y-125807556D01*
X69501095Y-125618215D01*
X69566759Y-125416121D01*
X69585583Y-125297273D01*
X80609500Y-125297273D01*
X80609500Y-125402727D01*
X80636793Y-125504587D01*
X80636794Y-125504589D01*
X80636794Y-125504590D01*
X80672206Y-125565925D01*
X80689520Y-125595913D01*
X80764087Y-125670480D01*
X80855413Y-125723207D01*
X80957273Y-125750500D01*
X80957275Y-125750500D01*
X81062725Y-125750500D01*
X81062727Y-125750500D01*
X81164587Y-125723207D01*
X81255913Y-125670480D01*
X81330480Y-125595913D01*
X81383207Y-125504587D01*
X81410500Y-125402727D01*
X81410500Y-125311073D01*
X84820094Y-125311073D01*
X84820094Y-125416527D01*
X84847387Y-125518387D01*
X84847388Y-125518389D01*
X84847388Y-125518390D01*
X84894506Y-125600000D01*
X84900114Y-125609713D01*
X84974681Y-125684280D01*
X85066007Y-125737007D01*
X85167867Y-125764300D01*
X85167869Y-125764300D01*
X85273319Y-125764300D01*
X85273321Y-125764300D01*
X85375181Y-125737007D01*
X85466507Y-125684280D01*
X85541074Y-125609713D01*
X85593801Y-125518387D01*
X85621094Y-125416527D01*
X85621094Y-125311073D01*
X85608021Y-125262283D01*
X85611222Y-125201183D01*
X85649727Y-125153633D01*
X85708827Y-125137797D01*
X85720834Y-125139699D01*
X85720841Y-125139653D01*
X85727272Y-125140499D01*
X85727273Y-125140500D01*
X85727274Y-125140500D01*
X85832725Y-125140500D01*
X85832727Y-125140500D01*
X85934587Y-125113207D01*
X86025913Y-125060480D01*
X86039861Y-125046532D01*
X101109500Y-125046532D01*
X101109500Y-125253467D01*
X101149869Y-125456418D01*
X101229058Y-125647597D01*
X101344020Y-125819651D01*
X101344023Y-125819655D01*
X101490345Y-125965977D01*
X101662402Y-126080941D01*
X101853580Y-126160130D01*
X102056535Y-126200500D01*
X102056536Y-126200500D01*
X102263464Y-126200500D01*
X102263465Y-126200500D01*
X102466420Y-126160130D01*
X102657598Y-126080941D01*
X102829655Y-125965977D01*
X102975977Y-125819655D01*
X103090941Y-125647598D01*
X103170130Y-125456420D01*
X103210500Y-125253465D01*
X103210500Y-125046535D01*
X103210499Y-125046532D01*
X103649500Y-125046532D01*
X103649500Y-125253467D01*
X103689869Y-125456418D01*
X103769058Y-125647597D01*
X103884020Y-125819651D01*
X103884023Y-125819655D01*
X104030345Y-125965977D01*
X104202402Y-126080941D01*
X104393580Y-126160130D01*
X104596535Y-126200500D01*
X104596536Y-126200500D01*
X104803464Y-126200500D01*
X104803465Y-126200500D01*
X105006420Y-126160130D01*
X105197598Y-126080941D01*
X105369655Y-125965977D01*
X105515977Y-125819655D01*
X105630941Y-125647598D01*
X105710130Y-125456420D01*
X105750500Y-125253465D01*
X105750500Y-125046535D01*
X105710130Y-124843580D01*
X105630941Y-124652402D01*
X105515977Y-124480345D01*
X105369655Y-124334023D01*
X105197598Y-124219059D01*
X105197599Y-124219059D01*
X105197597Y-124219058D01*
X105006418Y-124139869D01*
X104803467Y-124099500D01*
X104803465Y-124099500D01*
X104596535Y-124099500D01*
X104596532Y-124099500D01*
X104393581Y-124139869D01*
X104202402Y-124219058D01*
X104030348Y-124334020D01*
X103884020Y-124480348D01*
X103769058Y-124652402D01*
X103689869Y-124843581D01*
X103649500Y-125046532D01*
X103210499Y-125046532D01*
X103170130Y-124843580D01*
X103090941Y-124652402D01*
X102975977Y-124480345D01*
X102829655Y-124334023D01*
X102657598Y-124219059D01*
X102657599Y-124219059D01*
X102657597Y-124219058D01*
X102466418Y-124139869D01*
X102263467Y-124099500D01*
X102263465Y-124099500D01*
X102056535Y-124099500D01*
X102056532Y-124099500D01*
X101853581Y-124139869D01*
X101662402Y-124219058D01*
X101490348Y-124334020D01*
X101344020Y-124480348D01*
X101229058Y-124652402D01*
X101149869Y-124843581D01*
X101109500Y-125046532D01*
X86039861Y-125046532D01*
X86100480Y-124985913D01*
X86153207Y-124894587D01*
X86180500Y-124792727D01*
X86180500Y-124687273D01*
X86153207Y-124585413D01*
X86100480Y-124494087D01*
X86025913Y-124419520D01*
X85979019Y-124392446D01*
X85934589Y-124366794D01*
X85934588Y-124366793D01*
X85934587Y-124366793D01*
X85832727Y-124339500D01*
X85727273Y-124339500D01*
X85625413Y-124366793D01*
X85625412Y-124366793D01*
X85625410Y-124366794D01*
X85625409Y-124366794D01*
X85534089Y-124419518D01*
X85459518Y-124494089D01*
X85406794Y-124585409D01*
X85406794Y-124585410D01*
X85406793Y-124585412D01*
X85406793Y-124585413D01*
X85379500Y-124687273D01*
X85379500Y-124792727D01*
X85392573Y-124841515D01*
X85389370Y-124902617D01*
X85350865Y-124950167D01*
X85291764Y-124966002D01*
X85279759Y-124964100D01*
X85279753Y-124964147D01*
X85273321Y-124963300D01*
X85167867Y-124963300D01*
X85066007Y-124990593D01*
X85066006Y-124990593D01*
X85066004Y-124990594D01*
X85066003Y-124990594D01*
X84974683Y-125043318D01*
X84900112Y-125117889D01*
X84847388Y-125209209D01*
X84847388Y-125209210D01*
X84847387Y-125209212D01*
X84847387Y-125209213D01*
X84820094Y-125311073D01*
X81410500Y-125311073D01*
X81410500Y-125297273D01*
X81383207Y-125195413D01*
X81330480Y-125104087D01*
X81255913Y-125029520D01*
X81188489Y-124990593D01*
X81164589Y-124976794D01*
X81164588Y-124976793D01*
X81164587Y-124976793D01*
X81062727Y-124949500D01*
X80957273Y-124949500D01*
X80855413Y-124976793D01*
X80855412Y-124976793D01*
X80855410Y-124976794D01*
X80855409Y-124976794D01*
X80764089Y-125029518D01*
X80689518Y-125104089D01*
X80636794Y-125195409D01*
X80636794Y-125195410D01*
X80636793Y-125195412D01*
X80636793Y-125195413D01*
X80609500Y-125297273D01*
X69585583Y-125297273D01*
X69589064Y-125275297D01*
X69600000Y-125206250D01*
X69600000Y-124993749D01*
X69566759Y-124783878D01*
X69501095Y-124581784D01*
X69404623Y-124392446D01*
X69404619Y-124392440D01*
X69365270Y-124338282D01*
X69365269Y-124338282D01*
X68732962Y-124970589D01*
X68715925Y-124907007D01*
X68650099Y-124792993D01*
X68557007Y-124699901D01*
X68442993Y-124634075D01*
X68379407Y-124617037D01*
X69011716Y-123984729D01*
X69011716Y-123984728D01*
X68957559Y-123945380D01*
X68957553Y-123945376D01*
X68768215Y-123848904D01*
X68628951Y-123803655D01*
X68579451Y-123767691D01*
X68560544Y-123709500D01*
X68579451Y-123651309D01*
X68628951Y-123615345D01*
X68659544Y-123610500D01*
X69119747Y-123610500D01*
X69119748Y-123610500D01*
X69178231Y-123598867D01*
X69244552Y-123554552D01*
X69288867Y-123488231D01*
X69300500Y-123429748D01*
X69300500Y-122557273D01*
X93935700Y-122557273D01*
X93935700Y-122662727D01*
X93949296Y-122713467D01*
X93962994Y-122764589D01*
X93962994Y-122764590D01*
X94015718Y-122855910D01*
X94015720Y-122855913D01*
X94090287Y-122930480D01*
X94181613Y-122983207D01*
X94283473Y-123010500D01*
X94283475Y-123010500D01*
X94388925Y-123010500D01*
X94388927Y-123010500D01*
X94490787Y-122983207D01*
X94582113Y-122930480D01*
X94656680Y-122855913D01*
X94709407Y-122764587D01*
X94736700Y-122662727D01*
X94736700Y-122557273D01*
X94723104Y-122506532D01*
X101109500Y-122506532D01*
X101109500Y-122713467D01*
X101149869Y-122916418D01*
X101229058Y-123107597D01*
X101229059Y-123107598D01*
X101344023Y-123279655D01*
X101490345Y-123425977D01*
X101662402Y-123540941D01*
X101853580Y-123620130D01*
X102056535Y-123660500D01*
X102056536Y-123660500D01*
X102263464Y-123660500D01*
X102263465Y-123660500D01*
X102466420Y-123620130D01*
X102657598Y-123540941D01*
X102829655Y-123425977D01*
X102975977Y-123279655D01*
X103090941Y-123107598D01*
X103170130Y-122916420D01*
X103210500Y-122713465D01*
X103210500Y-122506535D01*
X103210499Y-122506532D01*
X103649500Y-122506532D01*
X103649500Y-122713467D01*
X103689869Y-122916418D01*
X103769058Y-123107597D01*
X103769059Y-123107598D01*
X103884023Y-123279655D01*
X104030345Y-123425977D01*
X104202402Y-123540941D01*
X104393580Y-123620130D01*
X104596535Y-123660500D01*
X104596536Y-123660500D01*
X104803464Y-123660500D01*
X104803465Y-123660500D01*
X105006420Y-123620130D01*
X105197598Y-123540941D01*
X105369655Y-123425977D01*
X105515977Y-123279655D01*
X105630941Y-123107598D01*
X105710130Y-122916420D01*
X105750500Y-122713465D01*
X105750500Y-122506535D01*
X105710130Y-122303580D01*
X105630941Y-122112402D01*
X105515977Y-121940345D01*
X105369655Y-121794023D01*
X105369651Y-121794020D01*
X105197597Y-121679058D01*
X105006418Y-121599869D01*
X104803467Y-121559500D01*
X104803465Y-121559500D01*
X104596535Y-121559500D01*
X104596532Y-121559500D01*
X104393581Y-121599869D01*
X104202402Y-121679058D01*
X104030348Y-121794020D01*
X103884020Y-121940348D01*
X103769058Y-122112402D01*
X103689869Y-122303581D01*
X103649500Y-122506532D01*
X103210499Y-122506532D01*
X103170130Y-122303580D01*
X103090941Y-122112402D01*
X102975977Y-121940345D01*
X102829655Y-121794023D01*
X102829651Y-121794020D01*
X102657597Y-121679058D01*
X102466418Y-121599869D01*
X102263467Y-121559500D01*
X102263465Y-121559500D01*
X102056535Y-121559500D01*
X102056532Y-121559500D01*
X101853581Y-121599869D01*
X101662402Y-121679058D01*
X101490348Y-121794020D01*
X101344020Y-121940348D01*
X101229058Y-122112402D01*
X101149869Y-122303581D01*
X101109500Y-122506532D01*
X94723104Y-122506532D01*
X94709407Y-122455413D01*
X94656680Y-122364087D01*
X94582113Y-122289520D01*
X94490787Y-122236793D01*
X94388927Y-122209500D01*
X94283473Y-122209500D01*
X94181613Y-122236793D01*
X94181612Y-122236793D01*
X94181610Y-122236794D01*
X94181609Y-122236794D01*
X94090289Y-122289518D01*
X94015718Y-122364089D01*
X93962994Y-122455409D01*
X93962994Y-122455410D01*
X93962994Y-122455411D01*
X93962993Y-122455413D01*
X93935700Y-122557273D01*
X69300500Y-122557273D01*
X69300500Y-121690252D01*
X69288867Y-121631769D01*
X69244552Y-121565448D01*
X69244548Y-121565445D01*
X69178233Y-121521134D01*
X69178231Y-121521133D01*
X69178228Y-121521132D01*
X69178227Y-121521132D01*
X69119758Y-121509501D01*
X69119748Y-121509500D01*
X67380252Y-121509500D01*
X67380251Y-121509500D01*
X67380241Y-121509501D01*
X67321772Y-121521132D01*
X67321766Y-121521134D01*
X67255451Y-121565445D01*
X67255445Y-121565451D01*
X67211134Y-121631766D01*
X67211132Y-121631772D01*
X67199501Y-121690241D01*
X67199500Y-121690253D01*
X67199500Y-123429746D01*
X67199501Y-123429758D01*
X67211132Y-123488227D01*
X67211133Y-123488231D01*
X67255448Y-123554552D01*
X67321769Y-123598867D01*
X67366231Y-123607711D01*
X67380241Y-123610498D01*
X67380246Y-123610498D01*
X67380252Y-123610500D01*
X67380253Y-123610500D01*
X67840456Y-123610500D01*
X67898647Y-123629407D01*
X67934611Y-123678907D01*
X67934611Y-123740093D01*
X67898647Y-123789593D01*
X67871049Y-123803655D01*
X67731784Y-123848904D01*
X67542446Y-123945376D01*
X67542442Y-123945378D01*
X67488282Y-123984728D01*
X68120591Y-124617037D01*
X68057007Y-124634075D01*
X67942993Y-124699901D01*
X67849901Y-124792993D01*
X67784075Y-124907007D01*
X67767037Y-124970591D01*
X67134728Y-124338282D01*
X67095378Y-124392442D01*
X67095376Y-124392446D01*
X66998904Y-124581784D01*
X66933240Y-124783878D01*
X66900000Y-124993749D01*
X66640500Y-124993749D01*
X66640500Y-118896532D01*
X67199500Y-118896532D01*
X67199500Y-119103467D01*
X67239869Y-119306418D01*
X67319058Y-119497597D01*
X67319059Y-119497598D01*
X67434023Y-119669655D01*
X67580345Y-119815977D01*
X67752402Y-119930941D01*
X67943580Y-120010130D01*
X68146535Y-120050500D01*
X68146536Y-120050500D01*
X68353464Y-120050500D01*
X68353465Y-120050500D01*
X68556420Y-120010130D01*
X68661674Y-119966532D01*
X101109500Y-119966532D01*
X101109500Y-120173467D01*
X101149869Y-120376418D01*
X101229058Y-120567597D01*
X101229059Y-120567598D01*
X101344023Y-120739655D01*
X101490345Y-120885977D01*
X101662402Y-121000941D01*
X101853580Y-121080130D01*
X102056535Y-121120500D01*
X102056536Y-121120500D01*
X102263464Y-121120500D01*
X102263465Y-121120500D01*
X102466420Y-121080130D01*
X102657598Y-121000941D01*
X102829655Y-120885977D01*
X102975977Y-120739655D01*
X103090941Y-120567598D01*
X103170130Y-120376420D01*
X103210500Y-120173465D01*
X103210500Y-119966535D01*
X103210499Y-119966532D01*
X103649500Y-119966532D01*
X103649500Y-120173467D01*
X103689869Y-120376418D01*
X103769058Y-120567597D01*
X103769059Y-120567598D01*
X103884023Y-120739655D01*
X104030345Y-120885977D01*
X104202402Y-121000941D01*
X104393580Y-121080130D01*
X104596535Y-121120500D01*
X104596536Y-121120500D01*
X104803464Y-121120500D01*
X104803465Y-121120500D01*
X105006420Y-121080130D01*
X105197598Y-121000941D01*
X105369655Y-120885977D01*
X105515977Y-120739655D01*
X105630941Y-120567598D01*
X105710130Y-120376420D01*
X105750500Y-120173465D01*
X105750500Y-119966535D01*
X105710130Y-119763580D01*
X105630941Y-119572402D01*
X105515977Y-119400345D01*
X105369655Y-119254023D01*
X105197598Y-119139059D01*
X105197599Y-119139059D01*
X105197597Y-119139058D01*
X105006418Y-119059869D01*
X104803467Y-119019500D01*
X104803465Y-119019500D01*
X104596535Y-119019500D01*
X104596532Y-119019500D01*
X104393581Y-119059869D01*
X104202402Y-119139058D01*
X104030348Y-119254020D01*
X103884020Y-119400348D01*
X103769058Y-119572402D01*
X103689869Y-119763581D01*
X103649500Y-119966532D01*
X103210499Y-119966532D01*
X103170130Y-119763580D01*
X103090941Y-119572402D01*
X102975977Y-119400345D01*
X102829655Y-119254023D01*
X102657598Y-119139059D01*
X102657599Y-119139059D01*
X102657597Y-119139058D01*
X102466418Y-119059869D01*
X102263467Y-119019500D01*
X102263465Y-119019500D01*
X102056535Y-119019500D01*
X102056532Y-119019500D01*
X101853581Y-119059869D01*
X101662402Y-119139058D01*
X101490348Y-119254020D01*
X101344020Y-119400348D01*
X101229058Y-119572402D01*
X101149869Y-119763581D01*
X101109500Y-119966532D01*
X68661674Y-119966532D01*
X68747598Y-119930941D01*
X68919655Y-119815977D01*
X69065977Y-119669655D01*
X69180941Y-119497598D01*
X69260130Y-119306420D01*
X69300500Y-119103465D01*
X69300500Y-118964108D01*
X86749500Y-118964108D01*
X86749500Y-119095892D01*
X86779579Y-119208151D01*
X86783609Y-119223190D01*
X86849496Y-119337309D01*
X86849498Y-119337311D01*
X86849500Y-119337314D01*
X86942686Y-119430500D01*
X86942688Y-119430501D01*
X86942690Y-119430503D01*
X87056810Y-119496390D01*
X87056808Y-119496390D01*
X87056812Y-119496391D01*
X87056814Y-119496392D01*
X87184108Y-119530500D01*
X87184110Y-119530500D01*
X87315890Y-119530500D01*
X87315892Y-119530500D01*
X87443186Y-119496392D01*
X87443188Y-119496390D01*
X87443190Y-119496390D01*
X87557309Y-119430503D01*
X87557309Y-119430502D01*
X87557314Y-119430500D01*
X87650500Y-119337314D01*
X87716392Y-119223186D01*
X87750500Y-119095892D01*
X87750500Y-118964108D01*
X87716392Y-118836814D01*
X87716390Y-118836811D01*
X87716390Y-118836809D01*
X87650503Y-118722690D01*
X87650501Y-118722688D01*
X87650500Y-118722686D01*
X87557314Y-118629500D01*
X87557311Y-118629498D01*
X87557309Y-118629496D01*
X87443189Y-118563609D01*
X87443191Y-118563609D01*
X87393799Y-118550375D01*
X87315892Y-118529500D01*
X87184108Y-118529500D01*
X87106200Y-118550375D01*
X87056809Y-118563609D01*
X86942690Y-118629496D01*
X86849496Y-118722690D01*
X86783609Y-118836809D01*
X86783608Y-118836814D01*
X86749500Y-118964108D01*
X69300500Y-118964108D01*
X69300500Y-118896535D01*
X69260130Y-118693580D01*
X69180941Y-118502402D01*
X69065977Y-118330345D01*
X68919655Y-118184023D01*
X68747598Y-118069059D01*
X68747599Y-118069059D01*
X68747597Y-118069058D01*
X68556418Y-117989869D01*
X68536715Y-117985950D01*
X68473373Y-117973351D01*
X68353467Y-117949500D01*
X68353465Y-117949500D01*
X68146535Y-117949500D01*
X68146532Y-117949500D01*
X67943581Y-117989869D01*
X67752402Y-118069058D01*
X67580348Y-118184020D01*
X67434020Y-118330348D01*
X67319058Y-118502402D01*
X67239869Y-118693581D01*
X67199500Y-118896532D01*
X66640500Y-118896532D01*
X66640500Y-117894108D01*
X81809500Y-117894108D01*
X81809500Y-118025892D01*
X81839579Y-118138151D01*
X81843609Y-118153190D01*
X81909496Y-118267309D01*
X81909498Y-118267311D01*
X81909500Y-118267314D01*
X82002686Y-118360500D01*
X82002688Y-118360501D01*
X82002690Y-118360503D01*
X82116810Y-118426390D01*
X82116808Y-118426390D01*
X82116812Y-118426391D01*
X82116814Y-118426392D01*
X82244108Y-118460500D01*
X82244110Y-118460500D01*
X82375890Y-118460500D01*
X82375892Y-118460500D01*
X82503186Y-118426392D01*
X82503188Y-118426390D01*
X82503190Y-118426390D01*
X82617309Y-118360503D01*
X82617309Y-118360502D01*
X82617314Y-118360500D01*
X82710500Y-118267314D01*
X82749563Y-118199655D01*
X82776390Y-118153190D01*
X82776390Y-118153188D01*
X82776392Y-118153186D01*
X82810500Y-118025892D01*
X82810500Y-117894108D01*
X82776392Y-117766814D01*
X82776390Y-117766811D01*
X82776390Y-117766809D01*
X82710503Y-117652690D01*
X82710501Y-117652688D01*
X82710500Y-117652686D01*
X82617314Y-117559500D01*
X82617311Y-117559498D01*
X82617309Y-117559496D01*
X82503189Y-117493609D01*
X82503191Y-117493609D01*
X82453799Y-117480375D01*
X82375892Y-117459500D01*
X82244108Y-117459500D01*
X82166200Y-117480375D01*
X82116809Y-117493609D01*
X82002690Y-117559496D01*
X81909496Y-117652690D01*
X81843609Y-117766809D01*
X81843608Y-117766814D01*
X81809500Y-117894108D01*
X66640500Y-117894108D01*
X66640500Y-116356532D01*
X67199500Y-116356532D01*
X67199500Y-116563467D01*
X67239869Y-116766418D01*
X67319058Y-116957597D01*
X67427251Y-117119520D01*
X67434023Y-117129655D01*
X67580345Y-117275977D01*
X67752402Y-117390941D01*
X67943580Y-117470130D01*
X68146535Y-117510500D01*
X68146536Y-117510500D01*
X68353464Y-117510500D01*
X68353465Y-117510500D01*
X68556420Y-117470130D01*
X68747598Y-117390941D01*
X68919655Y-117275977D01*
X69065977Y-117129655D01*
X69134386Y-117027273D01*
X95189500Y-117027273D01*
X95189500Y-117132727D01*
X95205942Y-117194089D01*
X95216794Y-117234589D01*
X95216794Y-117234590D01*
X95246137Y-117285413D01*
X95269520Y-117325913D01*
X95344087Y-117400480D01*
X95435413Y-117453207D01*
X95537273Y-117480500D01*
X95537275Y-117480500D01*
X95642725Y-117480500D01*
X95642727Y-117480500D01*
X95744587Y-117453207D01*
X95835913Y-117400480D01*
X95849120Y-117387273D01*
X96969500Y-117387273D01*
X96969500Y-117492727D01*
X96987392Y-117559500D01*
X96996794Y-117594589D01*
X96996794Y-117594590D01*
X97049518Y-117685910D01*
X97049520Y-117685913D01*
X97124087Y-117760480D01*
X97215413Y-117813207D01*
X97317273Y-117840500D01*
X97317275Y-117840500D01*
X97422725Y-117840500D01*
X97422727Y-117840500D01*
X97524587Y-117813207D01*
X97615913Y-117760480D01*
X97690480Y-117685913D01*
X97743207Y-117594587D01*
X97770500Y-117492727D01*
X97770500Y-117426532D01*
X101109500Y-117426532D01*
X101109500Y-117633467D01*
X101149869Y-117836418D01*
X101229058Y-118027597D01*
X101312976Y-118153190D01*
X101344023Y-118199655D01*
X101490345Y-118345977D01*
X101662402Y-118460941D01*
X101853580Y-118540130D01*
X102056535Y-118580500D01*
X102056536Y-118580500D01*
X102263464Y-118580500D01*
X102263465Y-118580500D01*
X102466420Y-118540130D01*
X102657598Y-118460941D01*
X102829655Y-118345977D01*
X102975977Y-118199655D01*
X103090941Y-118027598D01*
X103170130Y-117836420D01*
X103210500Y-117633465D01*
X103210500Y-117426535D01*
X103210499Y-117426532D01*
X103649500Y-117426532D01*
X103649500Y-117633467D01*
X103689869Y-117836418D01*
X103769058Y-118027597D01*
X103852976Y-118153190D01*
X103884023Y-118199655D01*
X104030345Y-118345977D01*
X104202402Y-118460941D01*
X104393580Y-118540130D01*
X104596535Y-118580500D01*
X104596536Y-118580500D01*
X104803464Y-118580500D01*
X104803465Y-118580500D01*
X105006420Y-118540130D01*
X105197598Y-118460941D01*
X105369655Y-118345977D01*
X105515977Y-118199655D01*
X105630941Y-118027598D01*
X105710130Y-117836420D01*
X105750500Y-117633465D01*
X105750500Y-117426535D01*
X105710130Y-117223580D01*
X105630941Y-117032402D01*
X105515977Y-116860345D01*
X105369655Y-116714023D01*
X105358836Y-116706794D01*
X105197597Y-116599058D01*
X105006418Y-116519869D01*
X104803467Y-116479500D01*
X104803465Y-116479500D01*
X104596535Y-116479500D01*
X104596532Y-116479500D01*
X104393581Y-116519869D01*
X104202402Y-116599058D01*
X104030348Y-116714020D01*
X103884020Y-116860348D01*
X103769058Y-117032402D01*
X103689869Y-117223581D01*
X103649500Y-117426532D01*
X103210499Y-117426532D01*
X103170130Y-117223580D01*
X103090941Y-117032402D01*
X102975977Y-116860345D01*
X102829655Y-116714023D01*
X102818836Y-116706794D01*
X102657597Y-116599058D01*
X102466418Y-116519869D01*
X102263467Y-116479500D01*
X102263465Y-116479500D01*
X102056535Y-116479500D01*
X102056532Y-116479500D01*
X101853581Y-116519869D01*
X101662402Y-116599058D01*
X101490348Y-116714020D01*
X101344020Y-116860348D01*
X101229058Y-117032402D01*
X101149869Y-117223581D01*
X101109500Y-117426532D01*
X97770500Y-117426532D01*
X97770500Y-117387273D01*
X97743207Y-117285413D01*
X97737760Y-117275979D01*
X97690481Y-117194089D01*
X97690480Y-117194087D01*
X97615913Y-117119520D01*
X97524587Y-117066793D01*
X97422727Y-117039500D01*
X97317273Y-117039500D01*
X97215413Y-117066793D01*
X97215412Y-117066793D01*
X97215410Y-117066794D01*
X97215409Y-117066794D01*
X97124089Y-117119518D01*
X97049518Y-117194089D01*
X96996794Y-117285409D01*
X96996794Y-117285410D01*
X96996793Y-117285412D01*
X96996793Y-117285413D01*
X96969500Y-117387273D01*
X95849120Y-117387273D01*
X95910480Y-117325913D01*
X95963207Y-117234587D01*
X95990500Y-117132727D01*
X95990500Y-117027273D01*
X95963207Y-116925413D01*
X95910480Y-116834087D01*
X95835913Y-116759520D01*
X95744587Y-116706793D01*
X95642727Y-116679500D01*
X95537273Y-116679500D01*
X95435413Y-116706793D01*
X95435412Y-116706793D01*
X95435410Y-116706794D01*
X95435409Y-116706794D01*
X95344089Y-116759518D01*
X95269518Y-116834089D01*
X95216794Y-116925409D01*
X95216794Y-116925410D01*
X95216793Y-116925412D01*
X95216793Y-116925413D01*
X95189500Y-117027273D01*
X69134386Y-117027273D01*
X69180941Y-116957598D01*
X69260130Y-116766420D01*
X69300500Y-116563465D01*
X69300500Y-116356535D01*
X69260130Y-116153580D01*
X69180941Y-115962402D01*
X69146453Y-115910787D01*
X69071640Y-115798820D01*
X69071639Y-115798819D01*
X69065980Y-115790349D01*
X69065979Y-115790348D01*
X69065977Y-115790345D01*
X69025940Y-115750308D01*
X77786305Y-115750308D01*
X77786305Y-115882092D01*
X77807824Y-115962402D01*
X77820414Y-116009390D01*
X77886301Y-116123509D01*
X77886303Y-116123511D01*
X77886305Y-116123514D01*
X77979491Y-116216700D01*
X77979493Y-116216701D01*
X77979495Y-116216703D01*
X78093615Y-116282590D01*
X78093613Y-116282590D01*
X78093617Y-116282591D01*
X78093619Y-116282592D01*
X78220913Y-116316700D01*
X78220915Y-116316700D01*
X78352695Y-116316700D01*
X78352697Y-116316700D01*
X78479991Y-116282592D01*
X78479993Y-116282590D01*
X78479995Y-116282590D01*
X78594114Y-116216703D01*
X78594114Y-116216702D01*
X78594119Y-116216700D01*
X78687305Y-116123514D01*
X78714345Y-116076680D01*
X78752223Y-116011073D01*
X96379500Y-116011073D01*
X96379500Y-116116527D01*
X96406793Y-116218387D01*
X96406794Y-116218388D01*
X96406794Y-116218390D01*
X96459518Y-116309710D01*
X96459520Y-116309713D01*
X96534087Y-116384280D01*
X96625413Y-116437007D01*
X96727273Y-116464300D01*
X96727275Y-116464300D01*
X96832725Y-116464300D01*
X96832727Y-116464300D01*
X96934587Y-116437007D01*
X97025913Y-116384280D01*
X97100480Y-116309713D01*
X97153207Y-116218387D01*
X97153209Y-116218377D01*
X97153443Y-116217816D01*
X97153732Y-116217476D01*
X97156452Y-116212767D01*
X97157324Y-116213270D01*
X97193179Y-116171290D01*
X97244908Y-116156700D01*
X97292725Y-116156700D01*
X97292727Y-116156700D01*
X97394587Y-116129407D01*
X97485913Y-116076680D01*
X97560480Y-116002113D01*
X97613207Y-115910787D01*
X97640500Y-115808927D01*
X97640500Y-115703473D01*
X97613207Y-115601613D01*
X97613202Y-115601605D01*
X97562964Y-115514589D01*
X97560480Y-115510287D01*
X97485913Y-115435720D01*
X97451237Y-115415700D01*
X97394589Y-115382994D01*
X97394588Y-115382993D01*
X97394587Y-115382993D01*
X97292727Y-115355700D01*
X97187273Y-115355700D01*
X97085413Y-115382993D01*
X97085412Y-115382993D01*
X97085410Y-115382994D01*
X97085409Y-115382994D01*
X96994089Y-115435718D01*
X96919518Y-115510289D01*
X96866796Y-115601605D01*
X96866559Y-115602179D01*
X96866269Y-115602517D01*
X96863548Y-115607232D01*
X96862674Y-115606727D01*
X96826825Y-115648708D01*
X96775092Y-115663300D01*
X96727273Y-115663300D01*
X96625413Y-115690593D01*
X96625412Y-115690593D01*
X96625410Y-115690594D01*
X96625409Y-115690594D01*
X96534089Y-115743318D01*
X96459518Y-115817889D01*
X96406794Y-115909209D01*
X96406794Y-115909210D01*
X96406793Y-115909212D01*
X96406793Y-115909213D01*
X96379500Y-116011073D01*
X78752223Y-116011073D01*
X78753195Y-116009390D01*
X78753195Y-116009388D01*
X78753197Y-116009386D01*
X78787305Y-115882092D01*
X78787305Y-115750308D01*
X78753197Y-115623014D01*
X78753195Y-115623011D01*
X78753195Y-115623009D01*
X78687308Y-115508890D01*
X78687306Y-115508888D01*
X78687305Y-115508886D01*
X78594119Y-115415700D01*
X78543578Y-115386520D01*
X78543577Y-115386518D01*
X78479994Y-115349809D01*
X78479996Y-115349809D01*
X78430604Y-115336575D01*
X78352697Y-115315700D01*
X78220913Y-115315700D01*
X78143005Y-115336575D01*
X78093614Y-115349809D01*
X77979495Y-115415696D01*
X77886301Y-115508890D01*
X77820414Y-115623009D01*
X77808444Y-115667684D01*
X77786305Y-115750308D01*
X69025940Y-115750308D01*
X68919655Y-115644023D01*
X68888213Y-115623014D01*
X68747597Y-115529058D01*
X68556418Y-115449869D01*
X68353467Y-115409500D01*
X68353465Y-115409500D01*
X68146535Y-115409500D01*
X68146532Y-115409500D01*
X67943581Y-115449869D01*
X67752402Y-115529058D01*
X67580348Y-115644020D01*
X67434020Y-115790348D01*
X67319058Y-115962402D01*
X67239869Y-116153581D01*
X67199500Y-116356532D01*
X66640500Y-116356532D01*
X66640500Y-115307273D01*
X81889500Y-115307273D01*
X81889500Y-115412727D01*
X81916793Y-115514587D01*
X81916794Y-115514589D01*
X81916794Y-115514590D01*
X81967037Y-115601613D01*
X81969520Y-115605913D01*
X82044087Y-115680480D01*
X82135413Y-115733207D01*
X82237273Y-115760500D01*
X82237275Y-115760500D01*
X82342725Y-115760500D01*
X82342727Y-115760500D01*
X82444587Y-115733207D01*
X82535913Y-115680480D01*
X82610480Y-115605913D01*
X82663207Y-115514587D01*
X82690500Y-115412727D01*
X82690500Y-115307273D01*
X82889500Y-115307273D01*
X82889500Y-115412727D01*
X82916793Y-115514587D01*
X82916794Y-115514589D01*
X82916794Y-115514590D01*
X82967037Y-115601613D01*
X82969520Y-115605913D01*
X83044087Y-115680480D01*
X83135413Y-115733207D01*
X83237273Y-115760500D01*
X83237275Y-115760500D01*
X83342725Y-115760500D01*
X83342727Y-115760500D01*
X83444587Y-115733207D01*
X83535913Y-115680480D01*
X83610480Y-115605913D01*
X83663207Y-115514587D01*
X83690500Y-115412727D01*
X83690500Y-115307273D01*
X84389500Y-115307273D01*
X84389500Y-115412727D01*
X84416793Y-115514587D01*
X84416794Y-115514589D01*
X84416794Y-115514590D01*
X84467037Y-115601613D01*
X84469520Y-115605913D01*
X84544087Y-115680480D01*
X84635413Y-115733207D01*
X84737273Y-115760500D01*
X84737275Y-115760500D01*
X84842725Y-115760500D01*
X84842727Y-115760500D01*
X84944587Y-115733207D01*
X85035913Y-115680480D01*
X85110480Y-115605913D01*
X85163207Y-115514587D01*
X85190500Y-115412727D01*
X85190500Y-115307273D01*
X86389500Y-115307273D01*
X86389500Y-115412727D01*
X86416793Y-115514587D01*
X86416794Y-115514589D01*
X86416794Y-115514590D01*
X86467037Y-115601613D01*
X86469520Y-115605913D01*
X86544087Y-115680480D01*
X86635413Y-115733207D01*
X86737273Y-115760500D01*
X86737275Y-115760500D01*
X86842725Y-115760500D01*
X86842727Y-115760500D01*
X86944587Y-115733207D01*
X87035913Y-115680480D01*
X87110480Y-115605913D01*
X87163207Y-115514587D01*
X87190500Y-115412727D01*
X87190500Y-115359500D01*
X87209407Y-115301309D01*
X87258907Y-115265345D01*
X87289500Y-115260500D01*
X87342725Y-115260500D01*
X87342727Y-115260500D01*
X87444587Y-115233207D01*
X87535913Y-115180480D01*
X87610480Y-115105913D01*
X87663207Y-115014587D01*
X87690500Y-114912727D01*
X87690500Y-114811073D01*
X92459500Y-114811073D01*
X92459500Y-114916527D01*
X92485776Y-115014590D01*
X92486794Y-115018389D01*
X92486794Y-115018390D01*
X92530138Y-115093463D01*
X92539520Y-115109713D01*
X92614087Y-115184280D01*
X92705413Y-115237007D01*
X92807273Y-115264300D01*
X92807275Y-115264300D01*
X92912725Y-115264300D01*
X92912727Y-115264300D01*
X93014587Y-115237007D01*
X93105913Y-115184280D01*
X93180480Y-115109713D01*
X93233207Y-115018387D01*
X93260500Y-114916527D01*
X93260500Y-114886532D01*
X101109500Y-114886532D01*
X101109500Y-115093467D01*
X101149869Y-115296418D01*
X101229058Y-115487597D01*
X101344020Y-115659651D01*
X101344023Y-115659655D01*
X101490345Y-115805977D01*
X101662402Y-115920941D01*
X101853580Y-116000130D01*
X102056535Y-116040500D01*
X102056536Y-116040500D01*
X102263464Y-116040500D01*
X102263465Y-116040500D01*
X102466420Y-116000130D01*
X102657598Y-115920941D01*
X102829655Y-115805977D01*
X102975977Y-115659655D01*
X103090941Y-115487598D01*
X103170130Y-115296420D01*
X103210500Y-115093465D01*
X103210500Y-114886535D01*
X103210499Y-114886532D01*
X103649500Y-114886532D01*
X103649500Y-115093467D01*
X103689869Y-115296418D01*
X103769058Y-115487597D01*
X103884020Y-115659651D01*
X103884023Y-115659655D01*
X104030345Y-115805977D01*
X104202402Y-115920941D01*
X104393580Y-116000130D01*
X104596535Y-116040500D01*
X104596536Y-116040500D01*
X104803464Y-116040500D01*
X104803465Y-116040500D01*
X105006420Y-116000130D01*
X105197598Y-115920941D01*
X105369655Y-115805977D01*
X105515977Y-115659655D01*
X105630941Y-115487598D01*
X105710130Y-115296420D01*
X105750500Y-115093465D01*
X105750500Y-114886535D01*
X105710130Y-114683580D01*
X105630941Y-114492402D01*
X105515977Y-114320345D01*
X105369655Y-114174023D01*
X105369651Y-114174020D01*
X105197597Y-114059058D01*
X105006418Y-113979869D01*
X104803467Y-113939500D01*
X104803465Y-113939500D01*
X104596535Y-113939500D01*
X104596532Y-113939500D01*
X104393581Y-113979869D01*
X104202402Y-114059058D01*
X104030348Y-114174020D01*
X103884020Y-114320348D01*
X103769058Y-114492402D01*
X103689869Y-114683581D01*
X103649500Y-114886532D01*
X103210499Y-114886532D01*
X103170130Y-114683580D01*
X103090941Y-114492402D01*
X102975977Y-114320345D01*
X102829655Y-114174023D01*
X102829651Y-114174020D01*
X102657597Y-114059058D01*
X102466418Y-113979869D01*
X102263467Y-113939500D01*
X102263465Y-113939500D01*
X102056535Y-113939500D01*
X102056532Y-113939500D01*
X101853581Y-113979869D01*
X101662402Y-114059058D01*
X101490348Y-114174020D01*
X101344020Y-114320348D01*
X101229058Y-114492402D01*
X101149869Y-114683581D01*
X101109500Y-114886532D01*
X93260500Y-114886532D01*
X93260500Y-114811073D01*
X93233207Y-114709213D01*
X93231011Y-114705410D01*
X93180481Y-114617889D01*
X93180480Y-114617887D01*
X93105913Y-114543320D01*
X93099331Y-114539520D01*
X93014589Y-114490594D01*
X93014588Y-114490593D01*
X93014587Y-114490593D01*
X92912727Y-114463300D01*
X92807273Y-114463300D01*
X92705413Y-114490593D01*
X92705412Y-114490593D01*
X92705410Y-114490594D01*
X92705409Y-114490594D01*
X92614089Y-114543318D01*
X92539518Y-114617889D01*
X92486794Y-114709209D01*
X92486794Y-114709210D01*
X92486793Y-114709212D01*
X92486793Y-114709213D01*
X92459500Y-114811073D01*
X87690500Y-114811073D01*
X87690500Y-114807273D01*
X87663207Y-114705413D01*
X87657720Y-114695910D01*
X87610481Y-114614089D01*
X87610480Y-114614087D01*
X87535913Y-114539520D01*
X87492731Y-114514589D01*
X87444589Y-114486794D01*
X87444588Y-114486793D01*
X87444587Y-114486793D01*
X87342727Y-114459500D01*
X87237273Y-114459500D01*
X87135413Y-114486793D01*
X87135412Y-114486793D01*
X87135410Y-114486794D01*
X87135409Y-114486794D01*
X87044089Y-114539518D01*
X86969518Y-114614089D01*
X86916794Y-114705409D01*
X86916794Y-114705410D01*
X86916793Y-114705412D01*
X86916793Y-114705413D01*
X86892539Y-114795934D01*
X86889500Y-114807274D01*
X86889500Y-114860500D01*
X86870593Y-114918691D01*
X86821093Y-114954655D01*
X86790500Y-114959500D01*
X86737273Y-114959500D01*
X86635413Y-114986793D01*
X86635412Y-114986793D01*
X86635410Y-114986794D01*
X86635409Y-114986794D01*
X86544089Y-115039518D01*
X86469518Y-115114089D01*
X86416794Y-115205409D01*
X86416794Y-115205410D01*
X86416793Y-115205412D01*
X86416793Y-115205413D01*
X86389500Y-115307273D01*
X85190500Y-115307273D01*
X85163207Y-115205413D01*
X85151006Y-115184281D01*
X85110481Y-115114089D01*
X85110480Y-115114087D01*
X85035913Y-115039520D01*
X84992731Y-115014589D01*
X84944589Y-114986794D01*
X84944588Y-114986793D01*
X84944587Y-114986793D01*
X84842727Y-114959500D01*
X84737273Y-114959500D01*
X84635413Y-114986793D01*
X84635412Y-114986793D01*
X84635410Y-114986794D01*
X84635409Y-114986794D01*
X84544089Y-115039518D01*
X84469518Y-115114089D01*
X84416794Y-115205409D01*
X84416794Y-115205410D01*
X84416793Y-115205412D01*
X84416793Y-115205413D01*
X84389500Y-115307273D01*
X83690500Y-115307273D01*
X83663207Y-115205413D01*
X83651006Y-115184281D01*
X83610481Y-115114089D01*
X83610480Y-115114087D01*
X83535913Y-115039520D01*
X83492731Y-115014589D01*
X83444589Y-114986794D01*
X83444588Y-114986793D01*
X83444587Y-114986793D01*
X83342727Y-114959500D01*
X83237273Y-114959500D01*
X83135413Y-114986793D01*
X83135412Y-114986793D01*
X83135410Y-114986794D01*
X83135409Y-114986794D01*
X83044089Y-115039518D01*
X82969518Y-115114089D01*
X82916794Y-115205409D01*
X82916794Y-115205410D01*
X82916793Y-115205412D01*
X82916793Y-115205413D01*
X82889500Y-115307273D01*
X82690500Y-115307273D01*
X82663207Y-115205413D01*
X82651006Y-115184281D01*
X82610481Y-115114089D01*
X82610480Y-115114087D01*
X82535913Y-115039520D01*
X82492731Y-115014589D01*
X82444589Y-114986794D01*
X82444588Y-114986793D01*
X82444587Y-114986793D01*
X82342727Y-114959500D01*
X82237273Y-114959500D01*
X82135413Y-114986793D01*
X82135412Y-114986793D01*
X82135410Y-114986794D01*
X82135409Y-114986794D01*
X82044089Y-115039518D01*
X81969518Y-115114089D01*
X81916794Y-115205409D01*
X81916794Y-115205410D01*
X81916793Y-115205412D01*
X81916793Y-115205413D01*
X81889500Y-115307273D01*
X66640500Y-115307273D01*
X66640500Y-113050253D01*
X67199500Y-113050253D01*
X67199500Y-114789746D01*
X67199501Y-114789758D01*
X67211132Y-114848227D01*
X67211134Y-114848233D01*
X67255445Y-114914548D01*
X67255448Y-114914552D01*
X67321769Y-114958867D01*
X67366231Y-114967711D01*
X67380241Y-114970498D01*
X67380246Y-114970498D01*
X67380252Y-114970500D01*
X67380253Y-114970500D01*
X69119747Y-114970500D01*
X69119748Y-114970500D01*
X69178231Y-114958867D01*
X69244552Y-114914552D01*
X69288867Y-114848231D01*
X69300500Y-114789748D01*
X69300500Y-113524108D01*
X76149500Y-113524108D01*
X76149500Y-113655892D01*
X76165710Y-113716390D01*
X76183609Y-113783190D01*
X76249496Y-113897309D01*
X76249498Y-113897311D01*
X76249500Y-113897314D01*
X76342686Y-113990500D01*
X76342688Y-113990501D01*
X76342690Y-113990503D01*
X76456810Y-114056390D01*
X76456808Y-114056390D01*
X76456812Y-114056391D01*
X76456814Y-114056392D01*
X76584108Y-114090500D01*
X76584110Y-114090500D01*
X76715890Y-114090500D01*
X76715892Y-114090500D01*
X76843186Y-114056392D01*
X76843188Y-114056390D01*
X76843190Y-114056390D01*
X76957309Y-113990503D01*
X76957309Y-113990502D01*
X76957314Y-113990500D01*
X77050500Y-113897314D01*
X77102485Y-113807273D01*
X82389500Y-113807273D01*
X82389500Y-113912727D01*
X82412416Y-113998251D01*
X82416794Y-114014589D01*
X82416794Y-114014590D01*
X82460610Y-114090481D01*
X82469520Y-114105913D01*
X82544087Y-114180480D01*
X82635413Y-114233207D01*
X82737273Y-114260500D01*
X82737275Y-114260500D01*
X82842725Y-114260500D01*
X82842727Y-114260500D01*
X82944587Y-114233207D01*
X83035913Y-114180480D01*
X83110480Y-114105913D01*
X83163207Y-114014587D01*
X83190500Y-113912727D01*
X83190500Y-113807273D01*
X83163207Y-113705413D01*
X83154947Y-113691107D01*
X83114473Y-113621003D01*
X83110480Y-113614087D01*
X83035913Y-113539520D01*
X83009220Y-113524109D01*
X82944589Y-113486794D01*
X82944588Y-113486793D01*
X82944587Y-113486793D01*
X82842727Y-113459500D01*
X82737273Y-113459500D01*
X82635413Y-113486793D01*
X82635412Y-113486793D01*
X82635410Y-113486794D01*
X82635409Y-113486794D01*
X82544089Y-113539518D01*
X82469518Y-113614089D01*
X82416794Y-113705409D01*
X82416794Y-113705410D01*
X82416793Y-113705412D01*
X82416793Y-113705413D01*
X82389500Y-113807273D01*
X77102485Y-113807273D01*
X77116392Y-113783186D01*
X77150500Y-113655892D01*
X77150500Y-113524108D01*
X77116392Y-113396814D01*
X77116390Y-113396811D01*
X77116390Y-113396809D01*
X77050503Y-113282690D01*
X77050501Y-113282688D01*
X77050500Y-113282686D01*
X76957314Y-113189500D01*
X76957311Y-113189498D01*
X76957309Y-113189496D01*
X76843189Y-113123609D01*
X76843191Y-113123609D01*
X76792400Y-113110000D01*
X76715892Y-113089500D01*
X76584108Y-113089500D01*
X76507600Y-113110000D01*
X76456809Y-113123609D01*
X76342690Y-113189496D01*
X76249496Y-113282690D01*
X76183609Y-113396809D01*
X76171183Y-113443186D01*
X76149500Y-113524108D01*
X69300500Y-113524108D01*
X69300500Y-113050252D01*
X69288867Y-112991769D01*
X69244552Y-112925448D01*
X69178231Y-112881133D01*
X69178227Y-112881132D01*
X69119758Y-112869501D01*
X69119748Y-112869500D01*
X67380252Y-112869500D01*
X67380251Y-112869500D01*
X67380241Y-112869501D01*
X67321772Y-112881132D01*
X67321766Y-112881134D01*
X67255451Y-112925445D01*
X67255445Y-112925451D01*
X67211134Y-112991766D01*
X67211132Y-112991772D01*
X67199501Y-113050241D01*
X67199500Y-113050253D01*
X66640500Y-113050253D01*
X66640500Y-112807273D01*
X81889500Y-112807273D01*
X81889500Y-112912727D01*
X81910679Y-112991769D01*
X81916794Y-113014589D01*
X81916794Y-113014590D01*
X81943300Y-113060499D01*
X81969520Y-113105913D01*
X82044087Y-113180480D01*
X82135413Y-113233207D01*
X82237273Y-113260500D01*
X82237275Y-113260500D01*
X82342725Y-113260500D01*
X82342727Y-113260500D01*
X82444587Y-113233207D01*
X82535913Y-113180480D01*
X82610480Y-113105913D01*
X82663207Y-113014587D01*
X82690500Y-112912727D01*
X82690500Y-112807273D01*
X82663207Y-112705413D01*
X82656604Y-112693977D01*
X82610481Y-112614089D01*
X82610480Y-112614087D01*
X82535913Y-112539520D01*
X82492731Y-112514589D01*
X82444589Y-112486794D01*
X82444588Y-112486793D01*
X82444587Y-112486793D01*
X82342727Y-112459500D01*
X82237273Y-112459500D01*
X82135413Y-112486793D01*
X82135412Y-112486793D01*
X82135410Y-112486794D01*
X82135409Y-112486794D01*
X82044089Y-112539518D01*
X81969518Y-112614089D01*
X81916794Y-112705409D01*
X81916794Y-112705410D01*
X81916793Y-112705412D01*
X81916793Y-112705413D01*
X81889500Y-112807273D01*
X66640500Y-112807273D01*
X66640500Y-110246532D01*
X67249500Y-110246532D01*
X67249500Y-110453467D01*
X67289869Y-110656418D01*
X67369058Y-110847597D01*
X67484020Y-111019651D01*
X67484023Y-111019655D01*
X67630345Y-111165977D01*
X67802402Y-111280941D01*
X67993580Y-111360130D01*
X68196535Y-111400500D01*
X68196536Y-111400500D01*
X68403464Y-111400500D01*
X68403465Y-111400500D01*
X68606420Y-111360130D01*
X68797598Y-111280941D01*
X68969655Y-111165977D01*
X69001524Y-111134108D01*
X77909500Y-111134108D01*
X77909500Y-111265892D01*
X77926385Y-111328907D01*
X77943609Y-111393190D01*
X78009496Y-111507309D01*
X78009498Y-111507311D01*
X78009500Y-111507314D01*
X78102686Y-111600500D01*
X78102688Y-111600501D01*
X78102690Y-111600503D01*
X78216810Y-111666390D01*
X78216808Y-111666390D01*
X78216812Y-111666391D01*
X78216814Y-111666392D01*
X78344108Y-111700500D01*
X78344110Y-111700500D01*
X78475890Y-111700500D01*
X78475892Y-111700500D01*
X78603186Y-111666392D01*
X78603188Y-111666390D01*
X78603190Y-111666390D01*
X78717309Y-111600503D01*
X78717309Y-111600502D01*
X78717314Y-111600500D01*
X78810500Y-111507314D01*
X78849439Y-111439870D01*
X78876390Y-111393190D01*
X78876390Y-111393188D01*
X78876392Y-111393186D01*
X78899412Y-111307273D01*
X81889500Y-111307273D01*
X81889500Y-111412727D01*
X81896773Y-111439869D01*
X81916793Y-111514588D01*
X81943301Y-111560501D01*
X81956022Y-111620349D01*
X81943301Y-111659499D01*
X81916793Y-111705411D01*
X81906620Y-111743380D01*
X81889500Y-111807273D01*
X81889500Y-111912727D01*
X81916793Y-112014587D01*
X81916794Y-112014589D01*
X81916794Y-112014590D01*
X81943301Y-112060501D01*
X81969520Y-112105913D01*
X82044087Y-112180480D01*
X82135413Y-112233207D01*
X82237273Y-112260500D01*
X82237275Y-112260500D01*
X82342725Y-112260500D01*
X82342727Y-112260500D01*
X82444587Y-112233207D01*
X82535913Y-112180480D01*
X82610480Y-112105913D01*
X82663207Y-112014587D01*
X82690500Y-111912727D01*
X82690500Y-111807273D01*
X82663207Y-111705413D01*
X82636698Y-111659498D01*
X82623977Y-111599652D01*
X82636698Y-111560501D01*
X82663207Y-111514587D01*
X82690500Y-111412727D01*
X82690500Y-111307273D01*
X82663207Y-111205413D01*
X82610480Y-111114087D01*
X82535913Y-111039520D01*
X82507334Y-111023020D01*
X82444589Y-110986794D01*
X82444588Y-110986793D01*
X82444587Y-110986793D01*
X82342727Y-110959500D01*
X82237273Y-110959500D01*
X82135413Y-110986793D01*
X82135412Y-110986793D01*
X82135410Y-110986794D01*
X82135409Y-110986794D01*
X82044089Y-111039518D01*
X81969518Y-111114089D01*
X81916794Y-111205409D01*
X81916794Y-111205410D01*
X81916793Y-111205412D01*
X81916793Y-111205413D01*
X81889500Y-111307273D01*
X78899412Y-111307273D01*
X78910500Y-111265892D01*
X78910500Y-111134108D01*
X78876392Y-111006814D01*
X78876390Y-111006811D01*
X78876390Y-111006809D01*
X78810503Y-110892690D01*
X78810501Y-110892688D01*
X78810500Y-110892686D01*
X78725087Y-110807273D01*
X83389500Y-110807273D01*
X83389500Y-110912727D01*
X83416793Y-111014587D01*
X83416794Y-111014589D01*
X83416794Y-111014590D01*
X83441635Y-111057615D01*
X83469520Y-111105913D01*
X83544087Y-111180480D01*
X83635413Y-111233207D01*
X83737273Y-111260500D01*
X83737275Y-111260500D01*
X83790500Y-111260500D01*
X83848691Y-111279407D01*
X83884655Y-111328907D01*
X83889500Y-111359500D01*
X83889500Y-111412727D01*
X83896773Y-111439869D01*
X83916793Y-111514588D01*
X83943301Y-111560501D01*
X83956022Y-111620349D01*
X83943301Y-111659499D01*
X83916793Y-111705411D01*
X83906620Y-111743380D01*
X83889500Y-111807273D01*
X83889500Y-111912727D01*
X83916793Y-112014587D01*
X83916794Y-112014589D01*
X83916794Y-112014590D01*
X83943301Y-112060501D01*
X83969520Y-112105913D01*
X84044087Y-112180480D01*
X84135413Y-112233207D01*
X84237273Y-112260500D01*
X84237275Y-112260500D01*
X84290500Y-112260500D01*
X84305412Y-112265345D01*
X84321093Y-112265345D01*
X84333778Y-112274561D01*
X84348691Y-112279407D01*
X84357907Y-112292092D01*
X84370593Y-112301309D01*
X84375438Y-112316221D01*
X84384655Y-112328907D01*
X84389500Y-112359500D01*
X84389500Y-112360500D01*
X84370593Y-112418691D01*
X84321093Y-112454655D01*
X84290500Y-112459500D01*
X84237273Y-112459500D01*
X84135413Y-112486793D01*
X84135412Y-112486793D01*
X84135410Y-112486794D01*
X84135409Y-112486794D01*
X84044089Y-112539518D01*
X83969518Y-112614089D01*
X83916794Y-112705409D01*
X83916794Y-112705410D01*
X83916793Y-112705412D01*
X83916793Y-112705413D01*
X83900735Y-112765345D01*
X83889500Y-112807274D01*
X83889500Y-112860500D01*
X83870593Y-112918691D01*
X83821093Y-112954655D01*
X83790500Y-112959500D01*
X83737273Y-112959500D01*
X83635413Y-112986793D01*
X83635412Y-112986793D01*
X83635410Y-112986794D01*
X83635409Y-112986794D01*
X83544089Y-113039518D01*
X83469518Y-113114089D01*
X83416794Y-113205409D01*
X83416794Y-113205410D01*
X83416793Y-113205412D01*
X83416793Y-113205413D01*
X83389500Y-113307273D01*
X83389500Y-113412727D01*
X83403978Y-113466760D01*
X83416793Y-113514588D01*
X83443301Y-113560501D01*
X83456022Y-113620349D01*
X83443301Y-113659499D01*
X83416793Y-113705411D01*
X83406620Y-113743380D01*
X83389500Y-113807273D01*
X83389500Y-113912727D01*
X83396674Y-113939500D01*
X83416793Y-114014588D01*
X83443301Y-114060501D01*
X83456022Y-114120349D01*
X83443301Y-114159499D01*
X83416793Y-114205411D01*
X83408976Y-114234587D01*
X83389500Y-114307273D01*
X83389500Y-114412727D01*
X83416793Y-114514587D01*
X83416794Y-114514589D01*
X83416794Y-114514590D01*
X83468756Y-114604590D01*
X83469520Y-114605913D01*
X83544087Y-114680480D01*
X83635413Y-114733207D01*
X83737273Y-114760500D01*
X83737275Y-114760500D01*
X83842725Y-114760500D01*
X83842727Y-114760500D01*
X83944587Y-114733207D01*
X83990501Y-114706698D01*
X84050348Y-114693977D01*
X84089498Y-114706698D01*
X84135413Y-114733207D01*
X84237273Y-114760500D01*
X84237275Y-114760500D01*
X84342725Y-114760500D01*
X84342727Y-114760500D01*
X84444587Y-114733207D01*
X84535913Y-114680480D01*
X84610480Y-114605913D01*
X84663207Y-114514587D01*
X84690500Y-114412727D01*
X84690500Y-114307273D01*
X84663207Y-114205413D01*
X84662441Y-114204087D01*
X84611534Y-114115913D01*
X84610480Y-114114087D01*
X84535913Y-114039520D01*
X84510053Y-114024590D01*
X84444589Y-113986794D01*
X84444588Y-113986793D01*
X84444587Y-113986793D01*
X84342727Y-113959500D01*
X84289500Y-113959500D01*
X84231309Y-113940593D01*
X84195345Y-113891093D01*
X84190500Y-113860500D01*
X84190500Y-113807274D01*
X84184047Y-113783190D01*
X84163207Y-113705413D01*
X84136698Y-113659498D01*
X84123977Y-113599652D01*
X84136698Y-113560501D01*
X84163207Y-113514587D01*
X84190500Y-113412727D01*
X84190500Y-113359500D01*
X84209407Y-113301309D01*
X84258907Y-113265345D01*
X84289500Y-113260500D01*
X84342725Y-113260500D01*
X84342727Y-113260500D01*
X84444587Y-113233207D01*
X84535913Y-113180480D01*
X84610480Y-113105913D01*
X84663207Y-113014587D01*
X84690500Y-112912727D01*
X84690500Y-112859500D01*
X84695345Y-112844588D01*
X84695345Y-112828907D01*
X84704561Y-112816221D01*
X84709407Y-112801309D01*
X84722092Y-112792092D01*
X84731309Y-112779407D01*
X84746221Y-112774561D01*
X84758907Y-112765345D01*
X84789500Y-112760500D01*
X84790500Y-112760500D01*
X84848691Y-112779407D01*
X84884655Y-112828907D01*
X84889500Y-112859500D01*
X84889500Y-112912727D01*
X84902033Y-112959500D01*
X84916793Y-113014588D01*
X84943301Y-113060501D01*
X84956022Y-113120349D01*
X84943301Y-113159499D01*
X84916793Y-113205411D01*
X84906620Y-113243380D01*
X84889500Y-113307273D01*
X84889500Y-113412727D01*
X84903978Y-113466760D01*
X84916793Y-113514588D01*
X84943301Y-113560501D01*
X84956022Y-113620349D01*
X84943301Y-113659499D01*
X84916793Y-113705411D01*
X84906620Y-113743380D01*
X84889500Y-113807273D01*
X84889500Y-113912727D01*
X84896674Y-113939500D01*
X84916793Y-114014588D01*
X84943301Y-114060501D01*
X84956022Y-114120349D01*
X84943301Y-114159499D01*
X84916793Y-114205411D01*
X84908976Y-114234587D01*
X84889500Y-114307273D01*
X84889500Y-114412727D01*
X84916793Y-114514587D01*
X84916794Y-114514589D01*
X84916794Y-114514590D01*
X84968756Y-114604590D01*
X84969520Y-114605913D01*
X85044087Y-114680480D01*
X85135413Y-114733207D01*
X85237273Y-114760500D01*
X85237275Y-114760500D01*
X85290500Y-114760500D01*
X85348691Y-114779407D01*
X85384655Y-114828907D01*
X85389500Y-114859500D01*
X85389500Y-114912727D01*
X85406620Y-114976619D01*
X85416794Y-115014589D01*
X85416794Y-115014590D01*
X85462332Y-115093463D01*
X85469520Y-115105913D01*
X85544087Y-115180480D01*
X85635413Y-115233207D01*
X85737273Y-115260500D01*
X85737275Y-115260500D01*
X85842725Y-115260500D01*
X85842727Y-115260500D01*
X85944587Y-115233207D01*
X86035913Y-115180480D01*
X86110480Y-115105913D01*
X86163207Y-115014587D01*
X86190500Y-114912727D01*
X86190500Y-114807273D01*
X86163207Y-114705413D01*
X86157720Y-114695910D01*
X86110481Y-114614089D01*
X86110480Y-114614087D01*
X86035913Y-114539520D01*
X85992731Y-114514589D01*
X85944589Y-114486794D01*
X85944588Y-114486793D01*
X85944587Y-114486793D01*
X85842727Y-114459500D01*
X85789500Y-114459500D01*
X85774588Y-114454655D01*
X85758907Y-114454655D01*
X85746221Y-114445438D01*
X85731309Y-114440593D01*
X85722092Y-114427907D01*
X85709407Y-114418691D01*
X85704561Y-114403778D01*
X85695345Y-114391093D01*
X85690500Y-114360500D01*
X85690500Y-114359500D01*
X85709407Y-114301309D01*
X85758907Y-114265345D01*
X85789500Y-114260500D01*
X85842725Y-114260500D01*
X85842727Y-114260500D01*
X85944587Y-114233207D01*
X85990501Y-114206698D01*
X86050348Y-114193977D01*
X86089498Y-114206698D01*
X86135413Y-114233207D01*
X86237273Y-114260500D01*
X86237275Y-114260500D01*
X86342725Y-114260500D01*
X86342727Y-114260500D01*
X86444587Y-114233207D01*
X86490501Y-114206698D01*
X86550348Y-114193977D01*
X86589498Y-114206698D01*
X86635413Y-114233207D01*
X86737273Y-114260500D01*
X86737275Y-114260500D01*
X86842725Y-114260500D01*
X86842727Y-114260500D01*
X86944587Y-114233207D01*
X87035913Y-114180480D01*
X87110480Y-114105913D01*
X87163207Y-114014587D01*
X87190500Y-113912727D01*
X87190500Y-113859500D01*
X87204220Y-113817273D01*
X92803300Y-113817273D01*
X92803300Y-113922727D01*
X92830593Y-114024587D01*
X92830594Y-114024589D01*
X92830594Y-114024590D01*
X92882267Y-114114089D01*
X92883320Y-114115913D01*
X92957887Y-114190480D01*
X93049213Y-114243207D01*
X93151073Y-114270500D01*
X93151075Y-114270500D01*
X93256525Y-114270500D01*
X93256527Y-114270500D01*
X93358387Y-114243207D01*
X93449713Y-114190480D01*
X93524280Y-114115913D01*
X93577007Y-114024587D01*
X93579687Y-114014587D01*
X93585986Y-113991076D01*
X93619308Y-113939761D01*
X93655993Y-113921070D01*
X93698321Y-113909729D01*
X93698321Y-113909728D01*
X93698328Y-113909727D01*
X93789654Y-113857000D01*
X93864221Y-113782433D01*
X93901841Y-113717273D01*
X96363297Y-113717273D01*
X96363297Y-113822727D01*
X96390092Y-113922727D01*
X96390591Y-113924589D01*
X96390591Y-113924590D01*
X96442553Y-114014590D01*
X96443317Y-114015913D01*
X96517884Y-114090480D01*
X96609210Y-114143207D01*
X96711070Y-114170500D01*
X96711072Y-114170500D01*
X96816522Y-114170500D01*
X96816524Y-114170500D01*
X96918384Y-114143207D01*
X96952398Y-114123568D01*
X97012243Y-114110846D01*
X97032955Y-114115302D01*
X97042599Y-114118488D01*
X97085413Y-114143207D01*
X97187273Y-114170500D01*
X97200027Y-114170500D01*
X97215155Y-114175498D01*
X97227601Y-114184634D01*
X97242289Y-114189407D01*
X97253533Y-114203671D01*
X97264477Y-114211705D01*
X97267618Y-114221539D01*
X97273497Y-114228996D01*
X97273548Y-114228967D01*
X97273750Y-114229317D01*
X97275563Y-114231617D01*
X97276794Y-114234589D01*
X97311908Y-114295409D01*
X97329520Y-114325913D01*
X97404087Y-114400480D01*
X97495413Y-114453207D01*
X97527272Y-114461743D01*
X97578585Y-114495065D01*
X97597275Y-114531744D01*
X97600377Y-114543320D01*
X97616794Y-114604589D01*
X97616794Y-114604590D01*
X97662400Y-114683581D01*
X97669520Y-114695913D01*
X97744087Y-114770480D01*
X97835413Y-114823207D01*
X97937273Y-114850500D01*
X97937275Y-114850500D01*
X98042725Y-114850500D01*
X98042727Y-114850500D01*
X98144587Y-114823207D01*
X98235913Y-114770480D01*
X98310480Y-114695913D01*
X98363207Y-114604587D01*
X98390500Y-114502727D01*
X98390500Y-114397273D01*
X98363207Y-114295413D01*
X98348823Y-114270500D01*
X98326374Y-114231617D01*
X98310480Y-114204087D01*
X98235913Y-114129520D01*
X98225606Y-114123569D01*
X98144590Y-114076794D01*
X98144588Y-114076793D01*
X98112725Y-114068255D01*
X98061412Y-114034931D01*
X98042724Y-113998253D01*
X98023207Y-113925413D01*
X98022731Y-113924589D01*
X97970481Y-113834089D01*
X97970480Y-113834087D01*
X97895913Y-113759520D01*
X97850337Y-113733207D01*
X97804589Y-113706794D01*
X97804588Y-113706793D01*
X97804587Y-113706793D01*
X97723847Y-113685159D01*
X97702724Y-113679499D01*
X97696293Y-113678653D01*
X97696580Y-113676471D01*
X97647711Y-113660593D01*
X97616502Y-113621003D01*
X97616452Y-113621033D01*
X97616249Y-113620682D01*
X97614437Y-113618383D01*
X97613208Y-113615418D01*
X97613207Y-113615413D01*
X97560480Y-113524087D01*
X97485913Y-113449520D01*
X97478101Y-113445010D01*
X97394589Y-113396794D01*
X97394588Y-113396793D01*
X97394587Y-113396793D01*
X97292727Y-113369500D01*
X97187273Y-113369500D01*
X97119366Y-113387695D01*
X97085412Y-113396793D01*
X97051396Y-113416432D01*
X96991547Y-113429151D01*
X96952398Y-113416431D01*
X96918385Y-113396793D01*
X96884430Y-113387695D01*
X96816524Y-113369500D01*
X96711070Y-113369500D01*
X96609210Y-113396793D01*
X96609209Y-113396793D01*
X96609207Y-113396794D01*
X96609206Y-113396794D01*
X96517886Y-113449518D01*
X96443315Y-113524089D01*
X96390591Y-113615409D01*
X96390591Y-113615410D01*
X96390590Y-113615412D01*
X96390590Y-113615413D01*
X96363297Y-113717273D01*
X93901841Y-113717273D01*
X93916948Y-113691107D01*
X93919796Y-113680480D01*
X93937230Y-113615413D01*
X93944241Y-113589247D01*
X93944241Y-113483793D01*
X93916948Y-113381933D01*
X93916375Y-113380941D01*
X93864222Y-113290609D01*
X93864221Y-113290607D01*
X93789654Y-113216040D01*
X93771247Y-113205413D01*
X93698330Y-113163314D01*
X93698329Y-113163313D01*
X93698328Y-113163313D01*
X93596468Y-113136020D01*
X93491014Y-113136020D01*
X93389154Y-113163313D01*
X93389153Y-113163313D01*
X93389151Y-113163314D01*
X93389150Y-113163314D01*
X93297830Y-113216038D01*
X93223259Y-113290609D01*
X93170535Y-113381929D01*
X93170533Y-113381933D01*
X93161553Y-113415447D01*
X93128227Y-113466760D01*
X93091553Y-113485447D01*
X93049210Y-113496793D01*
X93049209Y-113496794D01*
X92957889Y-113549518D01*
X92883318Y-113624089D01*
X92830594Y-113715409D01*
X92830594Y-113715410D01*
X92830593Y-113715412D01*
X92830593Y-113715413D01*
X92803300Y-113817273D01*
X87204220Y-113817273D01*
X87209407Y-113801309D01*
X87258907Y-113765345D01*
X87289500Y-113760500D01*
X87342725Y-113760500D01*
X87342727Y-113760500D01*
X87444587Y-113733207D01*
X87535913Y-113680480D01*
X87610480Y-113605913D01*
X87663207Y-113514587D01*
X87690500Y-113412727D01*
X87690500Y-113307273D01*
X87663207Y-113205413D01*
X87654017Y-113189496D01*
X87650906Y-113184108D01*
X90269500Y-113184108D01*
X90269500Y-113315892D01*
X90291183Y-113396814D01*
X90303609Y-113443190D01*
X90369496Y-113557309D01*
X90369498Y-113557311D01*
X90369500Y-113557314D01*
X90462686Y-113650500D01*
X90462688Y-113650501D01*
X90462690Y-113650503D01*
X90576810Y-113716390D01*
X90576808Y-113716390D01*
X90576812Y-113716391D01*
X90576814Y-113716392D01*
X90704108Y-113750500D01*
X90704110Y-113750500D01*
X90835890Y-113750500D01*
X90835892Y-113750500D01*
X90963186Y-113716392D01*
X90963188Y-113716390D01*
X90963190Y-113716390D01*
X91077309Y-113650503D01*
X91077309Y-113650502D01*
X91077314Y-113650500D01*
X91170500Y-113557314D01*
X91178414Y-113543607D01*
X91236390Y-113443190D01*
X91236390Y-113443188D01*
X91236392Y-113443186D01*
X91270500Y-113315892D01*
X91270500Y-113184108D01*
X91236392Y-113056814D01*
X91236390Y-113056811D01*
X91236390Y-113056809D01*
X91170503Y-112942690D01*
X91170501Y-112942688D01*
X91170500Y-112942686D01*
X91077314Y-112849500D01*
X91077311Y-112849498D01*
X91077309Y-112849496D01*
X90963189Y-112783609D01*
X90963191Y-112783609D01*
X90913799Y-112770375D01*
X90835892Y-112749500D01*
X90704108Y-112749500D01*
X90626200Y-112770375D01*
X90576809Y-112783609D01*
X90462690Y-112849496D01*
X90369496Y-112942690D01*
X90303609Y-113056809D01*
X90284539Y-113127978D01*
X90269500Y-113184108D01*
X87650906Y-113184108D01*
X87623143Y-113136020D01*
X87610480Y-113114087D01*
X87535913Y-113039520D01*
X87492731Y-113014589D01*
X87444589Y-112986794D01*
X87444588Y-112986793D01*
X87444587Y-112986793D01*
X87342727Y-112959500D01*
X87237273Y-112959500D01*
X87135413Y-112986793D01*
X87135412Y-112986793D01*
X87135410Y-112986794D01*
X87135409Y-112986794D01*
X87044089Y-113039518D01*
X86969518Y-113114089D01*
X86916794Y-113205409D01*
X86916794Y-113205410D01*
X86916793Y-113205412D01*
X86916793Y-113205413D01*
X86900735Y-113265345D01*
X86889500Y-113307274D01*
X86889500Y-113360500D01*
X86870593Y-113418691D01*
X86821093Y-113454655D01*
X86790500Y-113459500D01*
X86737273Y-113459500D01*
X86695642Y-113470655D01*
X86635411Y-113486793D01*
X86589499Y-113513301D01*
X86529651Y-113526022D01*
X86490501Y-113513301D01*
X86444588Y-113486793D01*
X86384358Y-113470655D01*
X86342727Y-113459500D01*
X86237273Y-113459500D01*
X86195642Y-113470655D01*
X86135411Y-113486793D01*
X86089499Y-113513301D01*
X86029651Y-113526022D01*
X85990501Y-113513301D01*
X85944588Y-113486793D01*
X85884358Y-113470655D01*
X85842727Y-113459500D01*
X85789500Y-113459500D01*
X85731309Y-113440593D01*
X85695345Y-113391093D01*
X85690500Y-113360500D01*
X85690500Y-113307274D01*
X85679435Y-113265979D01*
X85663207Y-113205413D01*
X85636698Y-113159498D01*
X85623977Y-113099652D01*
X85636698Y-113060501D01*
X85663207Y-113014587D01*
X85690500Y-112912727D01*
X85690500Y-112859500D01*
X85709407Y-112801309D01*
X85758907Y-112765345D01*
X85789500Y-112760500D01*
X85842725Y-112760500D01*
X85842727Y-112760500D01*
X85944587Y-112733207D01*
X85990501Y-112706698D01*
X86050348Y-112693977D01*
X86089498Y-112706698D01*
X86135413Y-112733207D01*
X86237273Y-112760500D01*
X86237275Y-112760500D01*
X86342725Y-112760500D01*
X86342727Y-112760500D01*
X86444587Y-112733207D01*
X86490501Y-112706698D01*
X86550348Y-112693977D01*
X86589498Y-112706698D01*
X86635413Y-112733207D01*
X86737273Y-112760500D01*
X86737275Y-112760500D01*
X86842725Y-112760500D01*
X86842727Y-112760500D01*
X86944587Y-112733207D01*
X87035913Y-112680480D01*
X87110480Y-112605913D01*
X87163207Y-112514587D01*
X87190500Y-112412727D01*
X87190500Y-112346532D01*
X101109500Y-112346532D01*
X101109500Y-112553467D01*
X101149869Y-112756418D01*
X101229058Y-112947597D01*
X101340304Y-113114089D01*
X101344023Y-113119655D01*
X101490345Y-113265977D01*
X101662402Y-113380941D01*
X101853580Y-113460130D01*
X102056535Y-113500500D01*
X102056536Y-113500500D01*
X102263464Y-113500500D01*
X102263465Y-113500500D01*
X102466420Y-113460130D01*
X102657598Y-113380941D01*
X102829655Y-113265977D01*
X102975977Y-113119655D01*
X103090941Y-112947598D01*
X103170130Y-112756420D01*
X103210500Y-112553465D01*
X103210500Y-112346535D01*
X103210499Y-112346532D01*
X103649500Y-112346532D01*
X103649500Y-112553467D01*
X103689869Y-112756418D01*
X103769058Y-112947597D01*
X103880304Y-113114089D01*
X103884023Y-113119655D01*
X104030345Y-113265977D01*
X104202402Y-113380941D01*
X104393580Y-113460130D01*
X104596535Y-113500500D01*
X104596536Y-113500500D01*
X104803464Y-113500500D01*
X104803465Y-113500500D01*
X105006420Y-113460130D01*
X105197598Y-113380941D01*
X105369655Y-113265977D01*
X105515977Y-113119655D01*
X105630941Y-112947598D01*
X105710130Y-112756420D01*
X105750500Y-112553465D01*
X105750500Y-112346535D01*
X105710130Y-112143580D01*
X105630941Y-111952402D01*
X105515977Y-111780345D01*
X105369655Y-111634023D01*
X105369651Y-111634020D01*
X105197597Y-111519058D01*
X105006418Y-111439869D01*
X104803467Y-111399500D01*
X104803465Y-111399500D01*
X104596535Y-111399500D01*
X104596532Y-111399500D01*
X104393581Y-111439869D01*
X104202402Y-111519058D01*
X104030348Y-111634020D01*
X103884020Y-111780348D01*
X103769058Y-111952402D01*
X103689869Y-112143581D01*
X103649500Y-112346532D01*
X103210499Y-112346532D01*
X103170130Y-112143580D01*
X103090941Y-111952402D01*
X102975977Y-111780345D01*
X102829655Y-111634023D01*
X102829651Y-111634020D01*
X102657597Y-111519058D01*
X102466418Y-111439869D01*
X102263467Y-111399500D01*
X102263465Y-111399500D01*
X102056535Y-111399500D01*
X102056532Y-111399500D01*
X101853581Y-111439869D01*
X101662402Y-111519058D01*
X101490348Y-111634020D01*
X101344020Y-111780348D01*
X101229058Y-111952402D01*
X101149869Y-112143581D01*
X101109500Y-112346532D01*
X87190500Y-112346532D01*
X87190500Y-112307273D01*
X87163207Y-112205413D01*
X87110480Y-112114087D01*
X87035913Y-112039520D01*
X86992731Y-112014589D01*
X86944589Y-111986794D01*
X86944588Y-111986793D01*
X86944587Y-111986793D01*
X86842727Y-111959500D01*
X86737273Y-111959500D01*
X86686343Y-111973146D01*
X86635411Y-111986793D01*
X86589499Y-112013301D01*
X86529651Y-112026022D01*
X86490501Y-112013301D01*
X86444588Y-111986793D01*
X86406617Y-111976619D01*
X86342727Y-111959500D01*
X86289500Y-111959500D01*
X86231309Y-111940593D01*
X86195345Y-111891093D01*
X86190500Y-111860500D01*
X86190500Y-111807274D01*
X86190500Y-111807273D01*
X86163207Y-111705413D01*
X86136698Y-111659498D01*
X86123977Y-111599652D01*
X86136698Y-111560501D01*
X86163207Y-111514587D01*
X86190500Y-111412727D01*
X86190500Y-111307273D01*
X86389500Y-111307273D01*
X86389500Y-111412727D01*
X86416793Y-111514587D01*
X86416794Y-111514589D01*
X86416794Y-111514590D01*
X86469518Y-111605910D01*
X86469520Y-111605913D01*
X86544087Y-111680480D01*
X86635413Y-111733207D01*
X86737273Y-111760500D01*
X86737275Y-111760500D01*
X86842725Y-111760500D01*
X86842727Y-111760500D01*
X86944587Y-111733207D01*
X87035913Y-111680480D01*
X87110480Y-111605913D01*
X87163207Y-111514587D01*
X87190500Y-111412727D01*
X87190500Y-111359500D01*
X87209407Y-111301309D01*
X87258907Y-111265345D01*
X87289500Y-111260500D01*
X87342725Y-111260500D01*
X87342727Y-111260500D01*
X87444587Y-111233207D01*
X87535913Y-111180480D01*
X87610480Y-111105913D01*
X87663207Y-111014587D01*
X87690500Y-110912727D01*
X87690500Y-110807273D01*
X87678890Y-110763942D01*
X90875869Y-110763942D01*
X90875869Y-110895726D01*
X90882408Y-110920130D01*
X90909978Y-111023024D01*
X90975865Y-111137143D01*
X90975867Y-111137145D01*
X90975869Y-111137148D01*
X91069055Y-111230334D01*
X91069057Y-111230335D01*
X91069059Y-111230337D01*
X91183179Y-111296224D01*
X91183177Y-111296224D01*
X91183181Y-111296225D01*
X91183183Y-111296226D01*
X91310477Y-111330334D01*
X91310479Y-111330334D01*
X91442259Y-111330334D01*
X91442261Y-111330334D01*
X91569555Y-111296226D01*
X91569557Y-111296224D01*
X91569559Y-111296224D01*
X91683678Y-111230337D01*
X91683678Y-111230336D01*
X91683683Y-111230334D01*
X91776869Y-111137148D01*
X91794904Y-111105910D01*
X91842759Y-111023024D01*
X91842759Y-111023022D01*
X91842761Y-111023020D01*
X91876869Y-110895726D01*
X91876869Y-110763942D01*
X91842761Y-110636648D01*
X91842759Y-110636645D01*
X91842759Y-110636643D01*
X91776872Y-110522524D01*
X91776870Y-110522522D01*
X91776869Y-110522520D01*
X91683683Y-110429334D01*
X91683680Y-110429332D01*
X91683678Y-110429330D01*
X91661490Y-110416520D01*
X91569558Y-110363443D01*
X91569560Y-110363443D01*
X91520168Y-110350209D01*
X91471890Y-110337273D01*
X96129500Y-110337273D01*
X96129500Y-110442727D01*
X96156793Y-110544587D01*
X96156794Y-110544589D01*
X96156794Y-110544590D01*
X96196920Y-110614089D01*
X96209520Y-110635913D01*
X96284087Y-110710480D01*
X96375413Y-110763207D01*
X96477273Y-110790500D01*
X96477275Y-110790500D01*
X96582725Y-110790500D01*
X96582727Y-110790500D01*
X96684587Y-110763207D01*
X96775913Y-110710480D01*
X96850480Y-110635913D01*
X96903207Y-110544587D01*
X96930500Y-110442727D01*
X96930500Y-110337273D01*
X96903207Y-110235413D01*
X96892241Y-110216420D01*
X96850481Y-110144089D01*
X96850480Y-110144087D01*
X96775913Y-110069520D01*
X96731030Y-110043607D01*
X96684589Y-110016794D01*
X96684588Y-110016793D01*
X96684587Y-110016793D01*
X96582727Y-109989500D01*
X96477273Y-109989500D01*
X96375413Y-110016793D01*
X96375412Y-110016793D01*
X96375410Y-110016794D01*
X96375409Y-110016794D01*
X96284089Y-110069518D01*
X96209518Y-110144089D01*
X96156794Y-110235409D01*
X96156794Y-110235410D01*
X96156793Y-110235412D01*
X96156793Y-110235413D01*
X96129500Y-110337273D01*
X91471890Y-110337273D01*
X91442261Y-110329334D01*
X91310477Y-110329334D01*
X91232569Y-110350209D01*
X91183178Y-110363443D01*
X91069059Y-110429330D01*
X90975865Y-110522524D01*
X90909978Y-110636643D01*
X90904679Y-110656420D01*
X90875869Y-110763942D01*
X87678890Y-110763942D01*
X87663207Y-110705413D01*
X87656604Y-110693977D01*
X87610481Y-110614089D01*
X87610480Y-110614087D01*
X87535913Y-110539520D01*
X87492731Y-110514589D01*
X87444589Y-110486794D01*
X87444588Y-110486793D01*
X87444587Y-110486793D01*
X87342727Y-110459500D01*
X87237273Y-110459500D01*
X87135413Y-110486793D01*
X87135412Y-110486793D01*
X87135410Y-110486794D01*
X87135409Y-110486794D01*
X87044089Y-110539518D01*
X86969518Y-110614089D01*
X86916794Y-110705409D01*
X86916794Y-110705410D01*
X86916793Y-110705412D01*
X86916793Y-110705413D01*
X86893995Y-110790500D01*
X86889500Y-110807274D01*
X86889500Y-110860500D01*
X86870593Y-110918691D01*
X86821093Y-110954655D01*
X86790500Y-110959500D01*
X86737273Y-110959500D01*
X86635413Y-110986793D01*
X86635412Y-110986793D01*
X86635410Y-110986794D01*
X86635409Y-110986794D01*
X86544089Y-111039518D01*
X86469518Y-111114089D01*
X86416794Y-111205409D01*
X86416794Y-111205410D01*
X86416793Y-111205412D01*
X86416793Y-111205413D01*
X86389500Y-111307273D01*
X86190500Y-111307273D01*
X86163207Y-111205413D01*
X86110480Y-111114087D01*
X86035913Y-111039520D01*
X86007334Y-111023020D01*
X85944589Y-110986794D01*
X85944588Y-110986793D01*
X85944587Y-110986793D01*
X85842727Y-110959500D01*
X85737273Y-110959500D01*
X85686343Y-110973146D01*
X85635411Y-110986793D01*
X85589499Y-111013301D01*
X85529651Y-111026022D01*
X85490501Y-111013301D01*
X85444588Y-110986793D01*
X85406617Y-110976619D01*
X85342727Y-110959500D01*
X85237273Y-110959500D01*
X85135413Y-110986793D01*
X85135412Y-110986793D01*
X85135410Y-110986794D01*
X85135409Y-110986794D01*
X85044089Y-111039518D01*
X84969518Y-111114089D01*
X84916794Y-111205409D01*
X84916794Y-111205410D01*
X84916793Y-111205412D01*
X84916793Y-111205413D01*
X84889500Y-111307273D01*
X84889500Y-111412727D01*
X84916793Y-111514587D01*
X84916794Y-111514589D01*
X84916794Y-111514590D01*
X84969518Y-111605910D01*
X84969520Y-111605913D01*
X85044087Y-111680480D01*
X85135413Y-111733207D01*
X85237273Y-111760500D01*
X85237275Y-111760500D01*
X85290500Y-111760500D01*
X85348691Y-111779407D01*
X85384655Y-111828907D01*
X85389500Y-111859500D01*
X85389500Y-111912727D01*
X85396967Y-111940593D01*
X85416793Y-112014588D01*
X85443301Y-112060501D01*
X85456022Y-112120349D01*
X85443301Y-112159499D01*
X85416793Y-112205411D01*
X85389500Y-112307274D01*
X85389500Y-112360500D01*
X85384655Y-112375411D01*
X85384655Y-112391093D01*
X85375438Y-112403778D01*
X85370593Y-112418691D01*
X85357907Y-112427907D01*
X85348691Y-112440593D01*
X85333778Y-112445438D01*
X85321093Y-112454655D01*
X85290500Y-112459500D01*
X85289500Y-112459500D01*
X85231309Y-112440593D01*
X85195345Y-112391093D01*
X85190500Y-112360500D01*
X85190500Y-112307274D01*
X85183033Y-112279407D01*
X85163207Y-112205413D01*
X85110480Y-112114087D01*
X85035913Y-112039520D01*
X84992731Y-112014589D01*
X84944589Y-111986794D01*
X84944588Y-111986793D01*
X84944587Y-111986793D01*
X84842727Y-111959500D01*
X84789500Y-111959500D01*
X84731309Y-111940593D01*
X84695345Y-111891093D01*
X84690500Y-111860500D01*
X84690500Y-111807274D01*
X84690500Y-111807273D01*
X84663207Y-111705413D01*
X84636698Y-111659498D01*
X84623977Y-111599652D01*
X84636698Y-111560501D01*
X84663207Y-111514587D01*
X84690500Y-111412727D01*
X84690500Y-111307273D01*
X84663207Y-111205413D01*
X84636698Y-111159498D01*
X84623977Y-111099652D01*
X84636698Y-111060501D01*
X84663207Y-111014587D01*
X84690500Y-110912727D01*
X84690500Y-110859500D01*
X84709407Y-110801309D01*
X84758907Y-110765345D01*
X84789500Y-110760500D01*
X84842725Y-110760500D01*
X84842727Y-110760500D01*
X84944587Y-110733207D01*
X85035913Y-110680480D01*
X85110480Y-110605913D01*
X85163207Y-110514587D01*
X85190500Y-110412727D01*
X85190500Y-110307273D01*
X85389500Y-110307273D01*
X85389500Y-110412727D01*
X85402033Y-110459500D01*
X85416794Y-110514589D01*
X85416794Y-110514590D01*
X85454360Y-110579655D01*
X85469520Y-110605913D01*
X85544087Y-110680480D01*
X85635413Y-110733207D01*
X85737273Y-110760500D01*
X85737275Y-110760500D01*
X85842725Y-110760500D01*
X85842727Y-110760500D01*
X85944587Y-110733207D01*
X85990501Y-110706698D01*
X86050348Y-110693977D01*
X86089498Y-110706698D01*
X86135413Y-110733207D01*
X86237273Y-110760500D01*
X86237275Y-110760500D01*
X86342725Y-110760500D01*
X86342727Y-110760500D01*
X86444587Y-110733207D01*
X86535913Y-110680480D01*
X86610480Y-110605913D01*
X86663207Y-110514587D01*
X86690500Y-110412727D01*
X86690500Y-110307273D01*
X86663207Y-110205413D01*
X86610480Y-110114087D01*
X86535913Y-110039520D01*
X86496550Y-110016794D01*
X86444589Y-109986794D01*
X86444588Y-109986793D01*
X86444587Y-109986793D01*
X86342727Y-109959500D01*
X86237273Y-109959500D01*
X86186343Y-109973146D01*
X86135411Y-109986793D01*
X86089499Y-110013301D01*
X86029651Y-110026022D01*
X85990501Y-110013301D01*
X85944588Y-109986793D01*
X85910633Y-109977695D01*
X85842727Y-109959500D01*
X85737273Y-109959500D01*
X85635413Y-109986793D01*
X85635412Y-109986793D01*
X85635410Y-109986794D01*
X85635409Y-109986794D01*
X85544089Y-110039518D01*
X85469518Y-110114089D01*
X85416794Y-110205409D01*
X85416794Y-110205410D01*
X85416793Y-110205412D01*
X85416793Y-110205413D01*
X85389500Y-110307273D01*
X85190500Y-110307273D01*
X85163207Y-110205413D01*
X85110480Y-110114087D01*
X85035913Y-110039520D01*
X84996550Y-110016794D01*
X84944589Y-109986794D01*
X84944588Y-109986793D01*
X84944587Y-109986793D01*
X84842727Y-109959500D01*
X84737273Y-109959500D01*
X84686343Y-109973146D01*
X84635411Y-109986793D01*
X84589499Y-110013301D01*
X84529651Y-110026022D01*
X84490501Y-110013301D01*
X84444588Y-109986793D01*
X84410633Y-109977695D01*
X84342727Y-109959500D01*
X84237273Y-109959500D01*
X84135413Y-109986793D01*
X84135412Y-109986793D01*
X84135410Y-109986794D01*
X84135409Y-109986794D01*
X84044089Y-110039518D01*
X83969518Y-110114089D01*
X83916794Y-110205409D01*
X83916794Y-110205410D01*
X83916793Y-110205412D01*
X83916793Y-110205413D01*
X83905776Y-110246532D01*
X83889500Y-110307274D01*
X83889500Y-110360500D01*
X83870593Y-110418691D01*
X83821093Y-110454655D01*
X83790500Y-110459500D01*
X83737273Y-110459500D01*
X83635413Y-110486793D01*
X83635412Y-110486793D01*
X83635410Y-110486794D01*
X83635409Y-110486794D01*
X83544089Y-110539518D01*
X83469518Y-110614089D01*
X83416794Y-110705409D01*
X83416794Y-110705410D01*
X83416793Y-110705412D01*
X83416793Y-110705413D01*
X83389500Y-110807273D01*
X78725087Y-110807273D01*
X78717314Y-110799500D01*
X78717311Y-110799498D01*
X78717309Y-110799496D01*
X78603189Y-110733609D01*
X78603191Y-110733609D01*
X78553799Y-110720375D01*
X78475892Y-110699500D01*
X78344108Y-110699500D01*
X78266200Y-110720375D01*
X78216809Y-110733609D01*
X78102690Y-110799496D01*
X78009496Y-110892690D01*
X77943609Y-111006809D01*
X77933749Y-111043607D01*
X77909500Y-111134108D01*
X69001524Y-111134108D01*
X69115977Y-111019655D01*
X69230941Y-110847598D01*
X69310130Y-110656420D01*
X69350500Y-110453465D01*
X69350500Y-110307273D01*
X82389500Y-110307273D01*
X82389500Y-110412727D01*
X82402033Y-110459500D01*
X82416794Y-110514589D01*
X82416794Y-110514590D01*
X82454360Y-110579655D01*
X82469520Y-110605913D01*
X82544087Y-110680480D01*
X82635413Y-110733207D01*
X82737273Y-110760500D01*
X82737275Y-110760500D01*
X82842725Y-110760500D01*
X82842727Y-110760500D01*
X82944587Y-110733207D01*
X83035913Y-110680480D01*
X83110480Y-110605913D01*
X83163207Y-110514587D01*
X83190500Y-110412727D01*
X83190500Y-110307273D01*
X83163207Y-110205413D01*
X83110480Y-110114087D01*
X83035913Y-110039520D01*
X82996550Y-110016794D01*
X82944589Y-109986794D01*
X82944588Y-109986793D01*
X82944587Y-109986793D01*
X82842727Y-109959500D01*
X82737273Y-109959500D01*
X82635413Y-109986793D01*
X82635412Y-109986793D01*
X82635410Y-109986794D01*
X82635409Y-109986794D01*
X82544089Y-110039518D01*
X82469518Y-110114089D01*
X82416794Y-110205409D01*
X82416794Y-110205410D01*
X82416793Y-110205412D01*
X82416793Y-110205413D01*
X82389500Y-110307273D01*
X69350500Y-110307273D01*
X69350500Y-110246535D01*
X69310130Y-110043580D01*
X69230941Y-109852402D01*
X69200292Y-109806532D01*
X101109500Y-109806532D01*
X101109500Y-110013467D01*
X101149869Y-110216418D01*
X101229058Y-110407597D01*
X101320593Y-110544590D01*
X101344023Y-110579655D01*
X101490345Y-110725977D01*
X101662402Y-110840941D01*
X101853580Y-110920130D01*
X102056535Y-110960500D01*
X102056536Y-110960500D01*
X102263464Y-110960500D01*
X102263465Y-110960500D01*
X102466420Y-110920130D01*
X102657598Y-110840941D01*
X102829655Y-110725977D01*
X102975977Y-110579655D01*
X103090941Y-110407598D01*
X103170130Y-110216420D01*
X103210500Y-110013465D01*
X103210500Y-109806535D01*
X103210499Y-109806532D01*
X103649500Y-109806532D01*
X103649500Y-110013467D01*
X103689869Y-110216418D01*
X103769058Y-110407597D01*
X103860593Y-110544590D01*
X103884023Y-110579655D01*
X104030345Y-110725977D01*
X104202402Y-110840941D01*
X104393580Y-110920130D01*
X104596535Y-110960500D01*
X104596536Y-110960500D01*
X104803464Y-110960500D01*
X104803465Y-110960500D01*
X105006420Y-110920130D01*
X105197598Y-110840941D01*
X105369655Y-110725977D01*
X105515977Y-110579655D01*
X105630941Y-110407598D01*
X105710130Y-110216420D01*
X105750500Y-110013465D01*
X105750500Y-109806535D01*
X105710130Y-109603580D01*
X105630941Y-109412402D01*
X105515977Y-109240345D01*
X105369655Y-109094023D01*
X105197598Y-108979059D01*
X105197599Y-108979059D01*
X105197597Y-108979058D01*
X105006418Y-108899869D01*
X104803467Y-108859500D01*
X104803465Y-108859500D01*
X104596535Y-108859500D01*
X104596532Y-108859500D01*
X104393581Y-108899869D01*
X104202402Y-108979058D01*
X104030348Y-109094020D01*
X103884020Y-109240348D01*
X103769058Y-109412402D01*
X103689869Y-109603581D01*
X103649500Y-109806532D01*
X103210499Y-109806532D01*
X103170130Y-109603580D01*
X103090941Y-109412402D01*
X102975977Y-109240345D01*
X102829655Y-109094023D01*
X102657598Y-108979059D01*
X102657599Y-108979059D01*
X102657597Y-108979058D01*
X102466418Y-108899869D01*
X102263467Y-108859500D01*
X102263465Y-108859500D01*
X102056535Y-108859500D01*
X102056532Y-108859500D01*
X101853581Y-108899869D01*
X101662402Y-108979058D01*
X101490348Y-109094020D01*
X101344020Y-109240348D01*
X101229058Y-109412402D01*
X101149869Y-109603581D01*
X101109500Y-109806532D01*
X69200292Y-109806532D01*
X69115977Y-109680345D01*
X68969655Y-109534023D01*
X68797598Y-109419059D01*
X68797599Y-109419059D01*
X68797597Y-109419058D01*
X68606418Y-109339869D01*
X68403467Y-109299500D01*
X68403465Y-109299500D01*
X68196535Y-109299500D01*
X68196532Y-109299500D01*
X67993581Y-109339869D01*
X67802402Y-109419058D01*
X67630348Y-109534020D01*
X67484020Y-109680348D01*
X67369058Y-109852402D01*
X67289869Y-110043581D01*
X67249500Y-110246532D01*
X66640500Y-110246532D01*
X66640500Y-108947273D01*
X86715700Y-108947273D01*
X86715700Y-109052727D01*
X86742993Y-109154587D01*
X86742994Y-109154589D01*
X86742994Y-109154590D01*
X86792505Y-109240345D01*
X86795720Y-109245913D01*
X86870287Y-109320480D01*
X86961613Y-109373207D01*
X87063473Y-109400500D01*
X87063475Y-109400500D01*
X87168925Y-109400500D01*
X87168927Y-109400500D01*
X87270787Y-109373207D01*
X87362113Y-109320480D01*
X87436680Y-109245913D01*
X87489407Y-109154587D01*
X87516700Y-109052727D01*
X87516700Y-108947273D01*
X87489407Y-108845413D01*
X87436680Y-108754087D01*
X87362113Y-108679520D01*
X87270787Y-108626793D01*
X87168927Y-108599500D01*
X87063473Y-108599500D01*
X86961613Y-108626793D01*
X86961612Y-108626793D01*
X86961610Y-108626794D01*
X86961609Y-108626794D01*
X86870289Y-108679518D01*
X86795718Y-108754089D01*
X86742994Y-108845409D01*
X86742994Y-108845410D01*
X86742993Y-108845412D01*
X86742993Y-108845413D01*
X86715700Y-108947273D01*
X66640500Y-108947273D01*
X66640500Y-107706532D01*
X67249500Y-107706532D01*
X67249500Y-107913467D01*
X67289869Y-108116418D01*
X67369058Y-108307597D01*
X67444497Y-108420500D01*
X67484023Y-108479655D01*
X67630345Y-108625977D01*
X67802402Y-108740941D01*
X67993580Y-108820130D01*
X68196535Y-108860500D01*
X68196536Y-108860500D01*
X68403464Y-108860500D01*
X68403465Y-108860500D01*
X68606420Y-108820130D01*
X68797598Y-108740941D01*
X68969655Y-108625977D01*
X69068359Y-108527273D01*
X93609500Y-108527273D01*
X93609500Y-108632727D01*
X93636793Y-108734587D01*
X93636794Y-108734589D01*
X93636794Y-108734590D01*
X93640461Y-108740941D01*
X93689520Y-108825913D01*
X93764087Y-108900480D01*
X93855413Y-108953207D01*
X93957273Y-108980500D01*
X93957275Y-108980500D01*
X94062725Y-108980500D01*
X94062727Y-108980500D01*
X94164587Y-108953207D01*
X94255913Y-108900480D01*
X94330480Y-108825913D01*
X94383207Y-108734587D01*
X94410500Y-108632727D01*
X94410500Y-108527273D01*
X94383207Y-108425413D01*
X94380370Y-108420500D01*
X94330481Y-108334089D01*
X94330480Y-108334087D01*
X94255913Y-108259520D01*
X94164587Y-108206793D01*
X94062727Y-108179500D01*
X93957273Y-108179500D01*
X93855413Y-108206793D01*
X93855412Y-108206793D01*
X93855410Y-108206794D01*
X93855409Y-108206794D01*
X93764089Y-108259518D01*
X93689518Y-108334089D01*
X93636794Y-108425409D01*
X93636794Y-108425410D01*
X93636793Y-108425412D01*
X93636793Y-108425413D01*
X93609500Y-108527273D01*
X69068359Y-108527273D01*
X69115977Y-108479655D01*
X69230941Y-108307598D01*
X69310130Y-108116420D01*
X69350500Y-107913465D01*
X69350500Y-107706535D01*
X69310130Y-107503580D01*
X69267770Y-107401315D01*
X81175458Y-107401315D01*
X81175458Y-107506769D01*
X81196310Y-107584589D01*
X81202752Y-107608631D01*
X81202752Y-107608632D01*
X81241597Y-107675913D01*
X81255478Y-107699955D01*
X81330045Y-107774522D01*
X81421371Y-107827249D01*
X81523231Y-107854542D01*
X81523233Y-107854542D01*
X81628683Y-107854542D01*
X81628685Y-107854542D01*
X81730545Y-107827249D01*
X81821871Y-107774522D01*
X81879120Y-107717273D01*
X89259500Y-107717273D01*
X89259500Y-107822727D01*
X89286793Y-107924587D01*
X89286794Y-107924589D01*
X89286794Y-107924590D01*
X89339518Y-108015910D01*
X89339520Y-108015913D01*
X89414087Y-108090480D01*
X89505413Y-108143207D01*
X89607273Y-108170500D01*
X89607275Y-108170500D01*
X89712725Y-108170500D01*
X89712727Y-108170500D01*
X89814587Y-108143207D01*
X89905913Y-108090480D01*
X89980480Y-108015913D01*
X90033207Y-107924587D01*
X90060500Y-107822727D01*
X90060500Y-107822100D01*
X90060638Y-107821673D01*
X90061347Y-107816293D01*
X90062344Y-107816424D01*
X90079407Y-107763909D01*
X90128907Y-107727945D01*
X90190093Y-107727945D01*
X90221995Y-107747494D01*
X90222737Y-107746529D01*
X90227884Y-107750478D01*
X90227886Y-107750479D01*
X90227887Y-107750480D01*
X90319213Y-107803207D01*
X90421073Y-107830500D01*
X90421075Y-107830500D01*
X90526525Y-107830500D01*
X90526527Y-107830500D01*
X90628387Y-107803207D01*
X90719713Y-107750480D01*
X90794280Y-107675913D01*
X90847007Y-107584587D01*
X90874300Y-107482727D01*
X90874300Y-107377273D01*
X90847007Y-107275413D01*
X90841881Y-107266535D01*
X90841879Y-107266532D01*
X101109500Y-107266532D01*
X101109500Y-107473467D01*
X101149869Y-107676418D01*
X101229058Y-107867597D01*
X101328157Y-108015910D01*
X101344023Y-108039655D01*
X101490345Y-108185977D01*
X101662402Y-108300941D01*
X101853580Y-108380130D01*
X102056535Y-108420500D01*
X102056536Y-108420500D01*
X102263464Y-108420500D01*
X102263465Y-108420500D01*
X102466420Y-108380130D01*
X102657598Y-108300941D01*
X102829655Y-108185977D01*
X102975977Y-108039655D01*
X103090941Y-107867598D01*
X103170130Y-107676420D01*
X103210500Y-107473465D01*
X103210500Y-107266535D01*
X103210499Y-107266532D01*
X103649500Y-107266532D01*
X103649500Y-107473467D01*
X103689869Y-107676418D01*
X103769058Y-107867597D01*
X103868157Y-108015910D01*
X103884023Y-108039655D01*
X104030345Y-108185977D01*
X104202402Y-108300941D01*
X104393580Y-108380130D01*
X104596535Y-108420500D01*
X104596536Y-108420500D01*
X104803464Y-108420500D01*
X104803465Y-108420500D01*
X105006420Y-108380130D01*
X105197598Y-108300941D01*
X105369655Y-108185977D01*
X105515977Y-108039655D01*
X105630941Y-107867598D01*
X105710130Y-107676420D01*
X105750500Y-107473465D01*
X105750500Y-107266535D01*
X105710130Y-107063580D01*
X105630941Y-106872402D01*
X105515977Y-106700345D01*
X105369655Y-106554023D01*
X105324137Y-106523609D01*
X105197597Y-106439058D01*
X105006418Y-106359869D01*
X104803467Y-106319500D01*
X104803465Y-106319500D01*
X104596535Y-106319500D01*
X104596532Y-106319500D01*
X104393581Y-106359869D01*
X104202402Y-106439058D01*
X104030348Y-106554020D01*
X103884020Y-106700348D01*
X103769058Y-106872402D01*
X103689869Y-107063581D01*
X103649500Y-107266532D01*
X103210499Y-107266532D01*
X103170130Y-107063580D01*
X103090941Y-106872402D01*
X102975977Y-106700345D01*
X102829655Y-106554023D01*
X102784137Y-106523609D01*
X102657597Y-106439058D01*
X102466418Y-106359869D01*
X102263467Y-106319500D01*
X102263465Y-106319500D01*
X102056535Y-106319500D01*
X102056532Y-106319500D01*
X101853581Y-106359869D01*
X101662402Y-106439058D01*
X101490348Y-106554020D01*
X101344020Y-106700348D01*
X101229058Y-106872402D01*
X101149869Y-107063581D01*
X101109500Y-107266532D01*
X90841879Y-107266532D01*
X90794281Y-107184089D01*
X90794280Y-107184087D01*
X90719713Y-107109520D01*
X90702167Y-107099390D01*
X90628389Y-107056794D01*
X90628388Y-107056793D01*
X90628387Y-107056793D01*
X90526527Y-107029500D01*
X90421073Y-107029500D01*
X90319213Y-107056793D01*
X90319212Y-107056793D01*
X90319210Y-107056794D01*
X90319209Y-107056794D01*
X90227889Y-107109518D01*
X90153318Y-107184089D01*
X90100594Y-107275409D01*
X90100594Y-107275410D01*
X90100594Y-107275411D01*
X90100593Y-107275413D01*
X90074555Y-107372592D01*
X90073300Y-107377274D01*
X90073300Y-107377900D01*
X90073161Y-107378326D01*
X90072453Y-107383707D01*
X90071455Y-107383575D01*
X90054393Y-107436091D01*
X90004893Y-107472055D01*
X89943707Y-107472055D01*
X89911804Y-107452505D01*
X89911063Y-107453471D01*
X89905915Y-107449521D01*
X89814589Y-107396794D01*
X89814588Y-107396793D01*
X89814587Y-107396793D01*
X89712727Y-107369500D01*
X89607273Y-107369500D01*
X89505413Y-107396793D01*
X89505412Y-107396793D01*
X89505410Y-107396794D01*
X89505409Y-107396794D01*
X89414089Y-107449518D01*
X89339518Y-107524089D01*
X89286794Y-107615409D01*
X89286794Y-107615410D01*
X89286793Y-107615412D01*
X89286793Y-107615413D01*
X89259500Y-107717273D01*
X81879120Y-107717273D01*
X81896438Y-107699955D01*
X81949165Y-107608629D01*
X81976458Y-107506769D01*
X81976458Y-107490797D01*
X81995365Y-107432606D01*
X82044865Y-107396642D01*
X82101080Y-107395171D01*
X82144108Y-107406700D01*
X82144109Y-107406700D01*
X82275890Y-107406700D01*
X82275892Y-107406700D01*
X82403186Y-107372592D01*
X82403188Y-107372590D01*
X82403190Y-107372590D01*
X82517309Y-107306703D01*
X82517309Y-107306702D01*
X82517314Y-107306700D01*
X82610500Y-107213514D01*
X82652744Y-107140345D01*
X82676390Y-107099390D01*
X82676390Y-107099388D01*
X82676392Y-107099386D01*
X82710500Y-106972092D01*
X82710500Y-106924108D01*
X84749500Y-106924108D01*
X84749500Y-107055892D01*
X84772129Y-107140345D01*
X84783609Y-107183190D01*
X84849496Y-107297309D01*
X84849498Y-107297311D01*
X84849500Y-107297314D01*
X84942686Y-107390500D01*
X84942688Y-107390501D01*
X84942690Y-107390503D01*
X85056810Y-107456390D01*
X85056808Y-107456390D01*
X85056812Y-107456391D01*
X85056814Y-107456392D01*
X85184108Y-107490500D01*
X85184110Y-107490500D01*
X85315890Y-107490500D01*
X85315892Y-107490500D01*
X85443186Y-107456392D01*
X85443188Y-107456390D01*
X85443190Y-107456390D01*
X85557309Y-107390503D01*
X85557309Y-107390502D01*
X85557314Y-107390500D01*
X85650500Y-107297314D01*
X85716392Y-107183186D01*
X85750500Y-107055892D01*
X85750500Y-106924108D01*
X85716392Y-106796814D01*
X85716390Y-106796811D01*
X85716390Y-106796809D01*
X85650503Y-106682690D01*
X85650501Y-106682688D01*
X85650500Y-106682686D01*
X85557314Y-106589500D01*
X85557311Y-106589498D01*
X85557309Y-106589496D01*
X85443189Y-106523609D01*
X85443191Y-106523609D01*
X85393799Y-106510375D01*
X85315892Y-106489500D01*
X85184108Y-106489500D01*
X85106200Y-106510375D01*
X85056809Y-106523609D01*
X84942690Y-106589496D01*
X84849496Y-106682690D01*
X84783609Y-106796809D01*
X84783608Y-106796814D01*
X84749500Y-106924108D01*
X82710500Y-106924108D01*
X82710500Y-106840308D01*
X82676392Y-106713014D01*
X82676390Y-106713011D01*
X82676390Y-106713009D01*
X82610503Y-106598890D01*
X82610501Y-106598888D01*
X82610500Y-106598886D01*
X82517314Y-106505700D01*
X82517311Y-106505698D01*
X82517309Y-106505696D01*
X82403189Y-106439809D01*
X82403191Y-106439809D01*
X82353799Y-106426575D01*
X82275892Y-106405700D01*
X82144108Y-106405700D01*
X82066200Y-106426575D01*
X82016809Y-106439809D01*
X81902690Y-106505696D01*
X81809496Y-106598890D01*
X81743609Y-106713009D01*
X81743608Y-106713014D01*
X81720336Y-106799869D01*
X81709500Y-106840309D01*
X81709500Y-106954542D01*
X81690593Y-107012733D01*
X81641093Y-107048697D01*
X81610500Y-107053542D01*
X81523231Y-107053542D01*
X81421371Y-107080835D01*
X81421370Y-107080835D01*
X81421368Y-107080836D01*
X81421367Y-107080836D01*
X81330047Y-107133560D01*
X81255476Y-107208131D01*
X81202752Y-107299451D01*
X81202752Y-107299452D01*
X81202751Y-107299454D01*
X81202751Y-107299455D01*
X81175458Y-107401315D01*
X69267770Y-107401315D01*
X69230941Y-107312402D01*
X69115977Y-107140345D01*
X68969655Y-106994023D01*
X68936830Y-106972090D01*
X68797597Y-106879058D01*
X68606418Y-106799869D01*
X68403467Y-106759500D01*
X68403465Y-106759500D01*
X68196535Y-106759500D01*
X68196532Y-106759500D01*
X67993581Y-106799869D01*
X67802402Y-106879058D01*
X67630348Y-106994020D01*
X67484020Y-107140348D01*
X67369058Y-107312402D01*
X67289869Y-107503581D01*
X67249500Y-107706532D01*
X66640500Y-107706532D01*
X66640500Y-105166532D01*
X67249500Y-105166532D01*
X67249500Y-105373467D01*
X67289869Y-105576418D01*
X67369058Y-105767597D01*
X67444497Y-105880500D01*
X67484023Y-105939655D01*
X67630345Y-106085977D01*
X67802402Y-106200941D01*
X67993580Y-106280130D01*
X68196535Y-106320500D01*
X68196536Y-106320500D01*
X68403464Y-106320500D01*
X68403465Y-106320500D01*
X68606420Y-106280130D01*
X68797598Y-106200941D01*
X68969655Y-106085977D01*
X69115977Y-105939655D01*
X69230941Y-105767598D01*
X69310130Y-105576420D01*
X69350500Y-105373465D01*
X69350500Y-105166535D01*
X69310130Y-104963580D01*
X69230941Y-104772402D01*
X69200292Y-104726532D01*
X101109500Y-104726532D01*
X101109500Y-104933467D01*
X101149869Y-105136418D01*
X101229058Y-105327597D01*
X101259706Y-105373465D01*
X101344023Y-105499655D01*
X101490345Y-105645977D01*
X101662402Y-105760941D01*
X101853580Y-105840130D01*
X102056535Y-105880500D01*
X102056536Y-105880500D01*
X102263464Y-105880500D01*
X102263465Y-105880500D01*
X102466420Y-105840130D01*
X102657598Y-105760941D01*
X102829655Y-105645977D01*
X102975977Y-105499655D01*
X103090941Y-105327598D01*
X103170130Y-105136420D01*
X103210500Y-104933465D01*
X103210500Y-104726535D01*
X103210499Y-104726532D01*
X103649500Y-104726532D01*
X103649500Y-104933467D01*
X103689869Y-105136418D01*
X103769058Y-105327597D01*
X103799706Y-105373465D01*
X103884023Y-105499655D01*
X104030345Y-105645977D01*
X104202402Y-105760941D01*
X104393580Y-105840130D01*
X104596535Y-105880500D01*
X104596536Y-105880500D01*
X104803464Y-105880500D01*
X104803465Y-105880500D01*
X105006420Y-105840130D01*
X105197598Y-105760941D01*
X105369655Y-105645977D01*
X105515977Y-105499655D01*
X105630941Y-105327598D01*
X105710130Y-105136420D01*
X105750500Y-104933465D01*
X105750500Y-104726535D01*
X105710130Y-104523580D01*
X105630941Y-104332402D01*
X105515977Y-104160345D01*
X105369655Y-104014023D01*
X105197598Y-103899059D01*
X105197599Y-103899059D01*
X105197597Y-103899058D01*
X105006418Y-103819869D01*
X104803467Y-103779500D01*
X104803465Y-103779500D01*
X104596535Y-103779500D01*
X104596532Y-103779500D01*
X104393581Y-103819869D01*
X104202402Y-103899058D01*
X104030348Y-104014020D01*
X103884020Y-104160348D01*
X103769058Y-104332402D01*
X103689869Y-104523581D01*
X103649500Y-104726532D01*
X103210499Y-104726532D01*
X103170130Y-104523580D01*
X103090941Y-104332402D01*
X102975977Y-104160345D01*
X102829655Y-104014023D01*
X102657598Y-103899059D01*
X102657599Y-103899059D01*
X102657597Y-103899058D01*
X102466418Y-103819869D01*
X102263467Y-103779500D01*
X102263465Y-103779500D01*
X102056535Y-103779500D01*
X102056532Y-103779500D01*
X101853581Y-103819869D01*
X101662402Y-103899058D01*
X101490348Y-104014020D01*
X101344020Y-104160348D01*
X101229058Y-104332402D01*
X101149869Y-104523581D01*
X101109500Y-104726532D01*
X69200292Y-104726532D01*
X69115977Y-104600345D01*
X68969655Y-104454023D01*
X68797598Y-104339059D01*
X68797599Y-104339059D01*
X68797597Y-104339058D01*
X68606418Y-104259869D01*
X68403467Y-104219500D01*
X68403465Y-104219500D01*
X68196535Y-104219500D01*
X68196532Y-104219500D01*
X67993581Y-104259869D01*
X67802402Y-104339058D01*
X67630348Y-104454020D01*
X67484020Y-104600348D01*
X67369058Y-104772402D01*
X67289869Y-104963581D01*
X67249500Y-105166532D01*
X66640500Y-105166532D01*
X66640500Y-102626532D01*
X67249500Y-102626532D01*
X67249500Y-102833467D01*
X67289869Y-103036418D01*
X67369058Y-103227597D01*
X67444497Y-103340500D01*
X67484023Y-103399655D01*
X67630345Y-103545977D01*
X67802402Y-103660941D01*
X67993580Y-103740130D01*
X68196535Y-103780500D01*
X68196536Y-103780500D01*
X68403464Y-103780500D01*
X68403465Y-103780500D01*
X68606420Y-103740130D01*
X68797598Y-103660941D01*
X68969655Y-103545977D01*
X69115977Y-103399655D01*
X69230941Y-103227598D01*
X69310130Y-103036420D01*
X69350500Y-102833465D01*
X69350500Y-102777273D01*
X83718300Y-102777273D01*
X83718300Y-102882727D01*
X83738913Y-102959655D01*
X83745594Y-102984589D01*
X83745594Y-102984590D01*
X83798318Y-103075910D01*
X83798320Y-103075913D01*
X83872887Y-103150480D01*
X83964213Y-103203207D01*
X84066073Y-103230500D01*
X84066075Y-103230500D01*
X84171525Y-103230500D01*
X84171527Y-103230500D01*
X84273387Y-103203207D01*
X84364713Y-103150480D01*
X84439280Y-103075913D01*
X84492007Y-102984587D01*
X84519300Y-102882727D01*
X84519300Y-102777273D01*
X84492007Y-102675413D01*
X84439280Y-102584087D01*
X84439279Y-102584086D01*
X84439278Y-102584084D01*
X84435329Y-102578937D01*
X84436852Y-102577768D01*
X84413119Y-102531187D01*
X84422690Y-102470755D01*
X84465955Y-102427490D01*
X84510900Y-102416700D01*
X84522725Y-102416700D01*
X84522727Y-102416700D01*
X84624587Y-102389407D01*
X84715913Y-102336680D01*
X84790480Y-102262113D01*
X84834117Y-102186532D01*
X101109500Y-102186532D01*
X101109500Y-102393467D01*
X101149869Y-102596418D01*
X101229058Y-102787597D01*
X101344020Y-102959651D01*
X101344023Y-102959655D01*
X101490345Y-103105977D01*
X101662402Y-103220941D01*
X101853580Y-103300130D01*
X102056535Y-103340500D01*
X102056536Y-103340500D01*
X102263464Y-103340500D01*
X102263465Y-103340500D01*
X102466420Y-103300130D01*
X102657598Y-103220941D01*
X102829655Y-103105977D01*
X102975977Y-102959655D01*
X103090941Y-102787598D01*
X103170130Y-102596420D01*
X103210500Y-102393465D01*
X103210500Y-102186535D01*
X103210499Y-102186532D01*
X103649500Y-102186532D01*
X103649500Y-102393467D01*
X103689869Y-102596418D01*
X103769058Y-102787597D01*
X103884020Y-102959651D01*
X103884023Y-102959655D01*
X104030345Y-103105977D01*
X104202402Y-103220941D01*
X104393580Y-103300130D01*
X104596535Y-103340500D01*
X104596536Y-103340500D01*
X104803464Y-103340500D01*
X104803465Y-103340500D01*
X105006420Y-103300130D01*
X105197598Y-103220941D01*
X105369655Y-103105977D01*
X105515977Y-102959655D01*
X105630941Y-102787598D01*
X105710130Y-102596420D01*
X105750500Y-102393465D01*
X105750500Y-102186535D01*
X105710130Y-101983580D01*
X105630941Y-101792402D01*
X105515977Y-101620345D01*
X105369655Y-101474023D01*
X105197598Y-101359059D01*
X105197599Y-101359059D01*
X105197597Y-101359058D01*
X105006418Y-101279869D01*
X104803467Y-101239500D01*
X104803465Y-101239500D01*
X104596535Y-101239500D01*
X104596532Y-101239500D01*
X104393581Y-101279869D01*
X104202402Y-101359058D01*
X104030348Y-101474020D01*
X103884020Y-101620348D01*
X103769058Y-101792402D01*
X103689869Y-101983581D01*
X103649500Y-102186532D01*
X103210499Y-102186532D01*
X103170130Y-101983580D01*
X103090941Y-101792402D01*
X102975977Y-101620345D01*
X102829655Y-101474023D01*
X102657598Y-101359059D01*
X102657599Y-101359059D01*
X102657597Y-101359058D01*
X102466418Y-101279869D01*
X102263467Y-101239500D01*
X102263465Y-101239500D01*
X102056535Y-101239500D01*
X102056532Y-101239500D01*
X101853581Y-101279869D01*
X101662402Y-101359058D01*
X101490348Y-101474020D01*
X101344020Y-101620348D01*
X101229058Y-101792402D01*
X101149869Y-101983581D01*
X101109500Y-102186532D01*
X84834117Y-102186532D01*
X84843207Y-102170787D01*
X84870500Y-102068927D01*
X84870500Y-101963473D01*
X84843207Y-101861613D01*
X84790480Y-101770287D01*
X84715913Y-101695720D01*
X84624587Y-101642993D01*
X84522727Y-101615700D01*
X84417273Y-101615700D01*
X84315413Y-101642993D01*
X84315412Y-101642993D01*
X84315410Y-101642994D01*
X84315409Y-101642994D01*
X84224089Y-101695718D01*
X84149518Y-101770289D01*
X84096794Y-101861609D01*
X84096794Y-101861610D01*
X84096793Y-101861612D01*
X84096793Y-101861613D01*
X84069500Y-101963473D01*
X84069500Y-102068927D01*
X84096792Y-102170783D01*
X84096794Y-102170789D01*
X84096794Y-102170790D01*
X84149521Y-102262115D01*
X84153471Y-102267263D01*
X84151947Y-102268431D01*
X84175681Y-102315013D01*
X84166110Y-102375445D01*
X84122845Y-102418710D01*
X84077900Y-102429500D01*
X84066073Y-102429500D01*
X83964213Y-102456793D01*
X83964212Y-102456793D01*
X83964210Y-102456794D01*
X83964209Y-102456794D01*
X83872889Y-102509518D01*
X83798318Y-102584089D01*
X83745594Y-102675409D01*
X83745594Y-102675410D01*
X83745593Y-102675412D01*
X83745593Y-102675413D01*
X83718300Y-102777273D01*
X69350500Y-102777273D01*
X69350500Y-102626535D01*
X69310130Y-102423580D01*
X69230941Y-102232402D01*
X69115977Y-102060345D01*
X68969655Y-101914023D01*
X68969651Y-101914020D01*
X68797597Y-101799058D01*
X68606418Y-101719869D01*
X68403467Y-101679500D01*
X68403465Y-101679500D01*
X68196535Y-101679500D01*
X68196532Y-101679500D01*
X67993581Y-101719869D01*
X67802402Y-101799058D01*
X67630348Y-101914020D01*
X67484020Y-102060348D01*
X67369058Y-102232402D01*
X67289869Y-102423581D01*
X67249500Y-102626532D01*
X66640500Y-102626532D01*
X66640500Y-99320253D01*
X67249500Y-99320253D01*
X67249500Y-101059746D01*
X67249501Y-101059758D01*
X67261132Y-101118227D01*
X67261133Y-101118231D01*
X67305448Y-101184552D01*
X67371769Y-101228867D01*
X67416231Y-101237711D01*
X67430241Y-101240498D01*
X67430246Y-101240498D01*
X67430252Y-101240500D01*
X67430253Y-101240500D01*
X69169747Y-101240500D01*
X69169748Y-101240500D01*
X69228231Y-101228867D01*
X69294552Y-101184552D01*
X69338867Y-101118231D01*
X69350500Y-101059748D01*
X69350500Y-99646532D01*
X101109500Y-99646532D01*
X101109500Y-99853467D01*
X101149869Y-100056418D01*
X101229058Y-100247597D01*
X101229059Y-100247598D01*
X101344023Y-100419655D01*
X101490345Y-100565977D01*
X101662402Y-100680941D01*
X101853580Y-100760130D01*
X102056535Y-100800500D01*
X102056536Y-100800500D01*
X102263464Y-100800500D01*
X102263465Y-100800500D01*
X102466420Y-100760130D01*
X102657598Y-100680941D01*
X102829655Y-100565977D01*
X102975977Y-100419655D01*
X103090941Y-100247598D01*
X103170130Y-100056420D01*
X103210500Y-99853465D01*
X103210500Y-99646535D01*
X103210499Y-99646532D01*
X103649500Y-99646532D01*
X103649500Y-99853467D01*
X103689869Y-100056418D01*
X103769058Y-100247597D01*
X103769059Y-100247598D01*
X103884023Y-100419655D01*
X104030345Y-100565977D01*
X104202402Y-100680941D01*
X104393580Y-100760130D01*
X104596535Y-100800500D01*
X104596536Y-100800500D01*
X104803464Y-100800500D01*
X104803465Y-100800500D01*
X105006420Y-100760130D01*
X105197598Y-100680941D01*
X105369655Y-100565977D01*
X105515977Y-100419655D01*
X105630941Y-100247598D01*
X105710130Y-100056420D01*
X105750500Y-99853465D01*
X105750500Y-99646535D01*
X105710130Y-99443580D01*
X105630941Y-99252402D01*
X105515977Y-99080345D01*
X105369655Y-98934023D01*
X105334455Y-98910503D01*
X105197597Y-98819058D01*
X105006418Y-98739869D01*
X104803467Y-98699500D01*
X104803465Y-98699500D01*
X104596535Y-98699500D01*
X104596532Y-98699500D01*
X104393581Y-98739869D01*
X104202402Y-98819058D01*
X104030348Y-98934020D01*
X103884020Y-99080348D01*
X103769058Y-99252402D01*
X103689869Y-99443581D01*
X103649500Y-99646532D01*
X103210499Y-99646532D01*
X103170130Y-99443580D01*
X103090941Y-99252402D01*
X102975977Y-99080345D01*
X102829655Y-98934023D01*
X102794455Y-98910503D01*
X102657597Y-98819058D01*
X102466418Y-98739869D01*
X102263467Y-98699500D01*
X102263465Y-98699500D01*
X102056535Y-98699500D01*
X102056532Y-98699500D01*
X101853581Y-98739869D01*
X101662402Y-98819058D01*
X101490348Y-98934020D01*
X101344020Y-99080348D01*
X101229058Y-99252402D01*
X101149869Y-99443581D01*
X101109500Y-99646532D01*
X69350500Y-99646532D01*
X69350500Y-99320252D01*
X69338867Y-99261769D01*
X69294552Y-99195448D01*
X69267406Y-99177309D01*
X69228233Y-99151134D01*
X69228231Y-99151133D01*
X69228228Y-99151132D01*
X69228227Y-99151132D01*
X69169758Y-99139501D01*
X69169748Y-99139500D01*
X67430252Y-99139500D01*
X67430251Y-99139500D01*
X67430241Y-99139501D01*
X67371772Y-99151132D01*
X67371766Y-99151134D01*
X67305451Y-99195445D01*
X67305445Y-99195451D01*
X67261134Y-99261766D01*
X67261132Y-99261772D01*
X67249501Y-99320241D01*
X67249500Y-99320253D01*
X66640500Y-99320253D01*
X66640500Y-98527273D01*
X71089500Y-98527273D01*
X71089500Y-98632727D01*
X71116793Y-98734587D01*
X71116794Y-98734589D01*
X71116794Y-98734590D01*
X71150636Y-98793205D01*
X71169520Y-98825913D01*
X71244087Y-98900480D01*
X71335413Y-98953207D01*
X71437273Y-98980500D01*
X71437275Y-98980500D01*
X71542725Y-98980500D01*
X71542727Y-98980500D01*
X71644587Y-98953207D01*
X71729629Y-98904108D01*
X75459500Y-98904108D01*
X75459500Y-99035892D01*
X75487261Y-99139500D01*
X75493609Y-99163190D01*
X75559496Y-99277309D01*
X75559498Y-99277311D01*
X75559500Y-99277314D01*
X75652686Y-99370500D01*
X75652688Y-99370501D01*
X75652690Y-99370503D01*
X75766810Y-99436390D01*
X75766808Y-99436390D01*
X75766812Y-99436391D01*
X75766814Y-99436392D01*
X75894108Y-99470500D01*
X75894110Y-99470500D01*
X76025890Y-99470500D01*
X76025892Y-99470500D01*
X76153186Y-99436392D01*
X76153188Y-99436390D01*
X76153190Y-99436390D01*
X76267309Y-99370503D01*
X76267309Y-99370502D01*
X76267314Y-99370500D01*
X76360500Y-99277314D01*
X76407764Y-99195451D01*
X76426390Y-99163190D01*
X76426390Y-99163188D01*
X76426392Y-99163186D01*
X76460500Y-99035892D01*
X76460500Y-98904108D01*
X76426392Y-98776814D01*
X76426390Y-98776811D01*
X76426390Y-98776809D01*
X76360503Y-98662690D01*
X76360501Y-98662688D01*
X76360500Y-98662686D01*
X76267314Y-98569500D01*
X76267311Y-98569498D01*
X76267309Y-98569496D01*
X76187390Y-98523355D01*
X76153189Y-98503609D01*
X76153191Y-98503609D01*
X76099071Y-98489108D01*
X76025892Y-98469500D01*
X75894108Y-98469500D01*
X75820929Y-98489108D01*
X75766809Y-98503609D01*
X75652690Y-98569496D01*
X75559496Y-98662690D01*
X75493609Y-98776809D01*
X75481902Y-98820500D01*
X75459500Y-98904108D01*
X71729629Y-98904108D01*
X71735913Y-98900480D01*
X71810480Y-98825913D01*
X71863207Y-98734587D01*
X71890500Y-98632727D01*
X71890500Y-98527273D01*
X71868216Y-98444108D01*
X80169500Y-98444108D01*
X80169500Y-98575892D01*
X80191317Y-98657314D01*
X80203609Y-98703190D01*
X80269496Y-98817309D01*
X80269498Y-98817311D01*
X80269500Y-98817314D01*
X80362686Y-98910500D01*
X80362688Y-98910501D01*
X80362690Y-98910503D01*
X80476810Y-98976390D01*
X80476808Y-98976390D01*
X80476812Y-98976391D01*
X80476814Y-98976392D01*
X80604108Y-99010500D01*
X80604110Y-99010500D01*
X80735890Y-99010500D01*
X80735892Y-99010500D01*
X80863186Y-98976392D01*
X80863188Y-98976390D01*
X80863190Y-98976390D01*
X80977309Y-98910503D01*
X80977309Y-98910502D01*
X80977314Y-98910500D01*
X81070500Y-98817314D01*
X81071032Y-98816392D01*
X81078124Y-98804108D01*
X81729500Y-98804108D01*
X81729500Y-98935892D01*
X81756294Y-99035890D01*
X81763609Y-99063190D01*
X81829496Y-99177309D01*
X81829498Y-99177311D01*
X81829500Y-99177314D01*
X81922686Y-99270500D01*
X81922688Y-99270501D01*
X81922690Y-99270503D01*
X82036810Y-99336390D01*
X82036808Y-99336390D01*
X82036812Y-99336391D01*
X82036814Y-99336392D01*
X82164108Y-99370500D01*
X82164110Y-99370500D01*
X82295890Y-99370500D01*
X82295892Y-99370500D01*
X82423186Y-99336392D01*
X82423188Y-99336390D01*
X82423190Y-99336390D01*
X82537309Y-99270503D01*
X82537309Y-99270502D01*
X82537314Y-99270500D01*
X82630500Y-99177314D01*
X82645616Y-99151132D01*
X82696390Y-99063190D01*
X82696390Y-99063188D01*
X82696392Y-99063186D01*
X82730500Y-98935892D01*
X82730500Y-98804108D01*
X82696392Y-98676814D01*
X82696390Y-98676811D01*
X82696390Y-98676809D01*
X82630503Y-98562690D01*
X82630501Y-98562688D01*
X82630500Y-98562686D01*
X82537314Y-98469500D01*
X82537311Y-98469498D01*
X82537309Y-98469496D01*
X82497513Y-98446520D01*
X82423189Y-98403609D01*
X82423191Y-98403609D01*
X82373799Y-98390375D01*
X82295892Y-98369500D01*
X82164108Y-98369500D01*
X82086200Y-98390375D01*
X82036809Y-98403609D01*
X81922690Y-98469496D01*
X81829496Y-98562690D01*
X81763609Y-98676809D01*
X81748128Y-98734587D01*
X81729500Y-98804108D01*
X81078124Y-98804108D01*
X81110446Y-98748126D01*
X81110450Y-98748119D01*
X81118263Y-98734587D01*
X81136392Y-98703186D01*
X81170500Y-98575892D01*
X81170500Y-98444108D01*
X81149912Y-98367273D01*
X84069500Y-98367273D01*
X84069500Y-98472727D01*
X84095429Y-98569496D01*
X84096794Y-98574589D01*
X84096794Y-98574590D01*
X84130360Y-98632727D01*
X84149520Y-98665913D01*
X84224087Y-98740480D01*
X84315413Y-98793207D01*
X84417273Y-98820500D01*
X84417275Y-98820500D01*
X84522725Y-98820500D01*
X84522727Y-98820500D01*
X84624587Y-98793207D01*
X84715913Y-98740480D01*
X84790480Y-98665913D01*
X84843207Y-98574587D01*
X84870500Y-98472727D01*
X84870500Y-98367273D01*
X84848216Y-98284108D01*
X87309500Y-98284108D01*
X87309500Y-98415892D01*
X87333861Y-98506809D01*
X87343609Y-98543190D01*
X87409496Y-98657309D01*
X87409498Y-98657311D01*
X87409500Y-98657314D01*
X87502686Y-98750500D01*
X87502688Y-98750501D01*
X87502690Y-98750503D01*
X87616810Y-98816390D01*
X87616808Y-98816390D01*
X87616812Y-98816391D01*
X87616814Y-98816392D01*
X87744108Y-98850500D01*
X87744110Y-98850500D01*
X87875890Y-98850500D01*
X87875892Y-98850500D01*
X88003186Y-98816392D01*
X88003188Y-98816390D01*
X88003190Y-98816390D01*
X88117309Y-98750503D01*
X88117309Y-98750502D01*
X88117314Y-98750500D01*
X88210500Y-98657314D01*
X88210503Y-98657309D01*
X88223898Y-98634108D01*
X88569500Y-98634108D01*
X88569500Y-98765892D01*
X88595335Y-98862309D01*
X88603609Y-98893190D01*
X88669496Y-99007309D01*
X88669498Y-99007311D01*
X88669500Y-99007314D01*
X88762686Y-99100500D01*
X88762688Y-99100501D01*
X88762690Y-99100503D01*
X88876810Y-99166390D01*
X88876808Y-99166390D01*
X88876812Y-99166391D01*
X88876814Y-99166392D01*
X89004108Y-99200500D01*
X89004110Y-99200500D01*
X89135890Y-99200500D01*
X89135892Y-99200500D01*
X89263186Y-99166392D01*
X89263188Y-99166390D01*
X89263190Y-99166390D01*
X89377309Y-99100503D01*
X89377309Y-99100502D01*
X89377314Y-99100500D01*
X89470500Y-99007314D01*
X89512815Y-98934023D01*
X89536390Y-98893190D01*
X89536390Y-98893188D01*
X89536392Y-98893186D01*
X89570500Y-98765892D01*
X89570500Y-98634108D01*
X89536392Y-98506814D01*
X89536390Y-98506811D01*
X89536390Y-98506809D01*
X89470503Y-98392690D01*
X89470501Y-98392688D01*
X89470500Y-98392686D01*
X89377314Y-98299500D01*
X89377311Y-98299498D01*
X89377309Y-98299496D01*
X89263189Y-98233609D01*
X89263191Y-98233609D01*
X89212885Y-98220130D01*
X89135892Y-98199500D01*
X89004108Y-98199500D01*
X88927115Y-98220130D01*
X88876809Y-98233609D01*
X88762690Y-98299496D01*
X88669496Y-98392690D01*
X88603609Y-98506809D01*
X88599176Y-98523355D01*
X88569500Y-98634108D01*
X88223898Y-98634108D01*
X88256224Y-98578119D01*
X88276390Y-98543190D01*
X88276390Y-98543188D01*
X88276392Y-98543186D01*
X88310500Y-98415892D01*
X88310500Y-98284108D01*
X88276392Y-98156814D01*
X88276390Y-98156811D01*
X88276390Y-98156809D01*
X88236155Y-98087122D01*
X88236153Y-98087119D01*
X88211321Y-98044108D01*
X91109500Y-98044108D01*
X91109500Y-98175892D01*
X91133486Y-98265409D01*
X91143609Y-98303190D01*
X91209496Y-98417309D01*
X91209498Y-98417311D01*
X91209500Y-98417314D01*
X91302686Y-98510500D01*
X91302688Y-98510501D01*
X91302690Y-98510503D01*
X91416810Y-98576390D01*
X91416808Y-98576390D01*
X91416812Y-98576391D01*
X91416814Y-98576392D01*
X91544108Y-98610500D01*
X91544110Y-98610500D01*
X91675890Y-98610500D01*
X91675892Y-98610500D01*
X91803186Y-98576392D01*
X91803188Y-98576390D01*
X91803190Y-98576390D01*
X91917309Y-98510503D01*
X91917309Y-98510502D01*
X91917314Y-98510500D01*
X91938706Y-98489108D01*
X95624500Y-98489108D01*
X95624500Y-98620892D01*
X95654579Y-98733151D01*
X95658609Y-98748190D01*
X95724496Y-98862309D01*
X95724498Y-98862311D01*
X95724500Y-98862314D01*
X95817686Y-98955500D01*
X95817688Y-98955501D01*
X95817690Y-98955503D01*
X95931810Y-99021390D01*
X95931808Y-99021390D01*
X95931812Y-99021391D01*
X95931814Y-99021392D01*
X96059108Y-99055500D01*
X96059110Y-99055500D01*
X96190890Y-99055500D01*
X96190892Y-99055500D01*
X96318186Y-99021392D01*
X96318188Y-99021390D01*
X96318190Y-99021390D01*
X96432309Y-98955503D01*
X96432309Y-98955502D01*
X96432314Y-98955500D01*
X96525500Y-98862314D01*
X96546518Y-98825910D01*
X96591390Y-98748190D01*
X96591390Y-98748188D01*
X96591392Y-98748186D01*
X96625500Y-98620892D01*
X96625500Y-98489108D01*
X96591392Y-98361814D01*
X96591390Y-98361811D01*
X96591390Y-98361809D01*
X96525503Y-98247690D01*
X96525501Y-98247688D01*
X96525500Y-98247686D01*
X96432314Y-98154500D01*
X96432311Y-98154498D01*
X96432309Y-98154496D01*
X96318189Y-98088609D01*
X96318191Y-98088609D01*
X96268799Y-98075375D01*
X96190892Y-98054500D01*
X96059108Y-98054500D01*
X95981200Y-98075375D01*
X95931809Y-98088609D01*
X95817690Y-98154496D01*
X95724496Y-98247690D01*
X95658609Y-98361809D01*
X95644118Y-98415892D01*
X95624500Y-98489108D01*
X91938706Y-98489108D01*
X92010500Y-98417314D01*
X92024719Y-98392686D01*
X92076390Y-98303190D01*
X92076390Y-98303188D01*
X92076392Y-98303186D01*
X92110500Y-98175892D01*
X92110500Y-98044108D01*
X92076392Y-97916814D01*
X92076390Y-97916811D01*
X92076390Y-97916809D01*
X92010503Y-97802690D01*
X92010501Y-97802688D01*
X92010500Y-97802686D01*
X91917314Y-97709500D01*
X91917311Y-97709498D01*
X91917309Y-97709496D01*
X91803189Y-97643609D01*
X91803191Y-97643609D01*
X91753799Y-97630375D01*
X91675892Y-97609500D01*
X91544108Y-97609500D01*
X91466200Y-97630375D01*
X91416809Y-97643609D01*
X91302690Y-97709496D01*
X91209496Y-97802690D01*
X91143609Y-97916809D01*
X91143608Y-97916814D01*
X91109500Y-98044108D01*
X88211321Y-98044108D01*
X88210500Y-98042686D01*
X88117314Y-97949500D01*
X88117311Y-97949498D01*
X88117309Y-97949496D01*
X88003189Y-97883609D01*
X88003191Y-97883609D01*
X87953799Y-97870375D01*
X87875892Y-97849500D01*
X87744108Y-97849500D01*
X87666200Y-97870375D01*
X87616809Y-97883609D01*
X87502690Y-97949496D01*
X87409496Y-98042690D01*
X87343609Y-98156809D01*
X87338496Y-98175892D01*
X87309500Y-98284108D01*
X84848216Y-98284108D01*
X84843207Y-98265413D01*
X84840370Y-98260500D01*
X84790481Y-98174089D01*
X84790480Y-98174087D01*
X84715913Y-98099520D01*
X84624587Y-98046793D01*
X84522727Y-98019500D01*
X84417273Y-98019500D01*
X84315413Y-98046793D01*
X84315412Y-98046793D01*
X84315410Y-98046794D01*
X84315409Y-98046794D01*
X84224089Y-98099518D01*
X84149518Y-98174089D01*
X84096794Y-98265409D01*
X84096794Y-98265410D01*
X84096793Y-98265412D01*
X84096793Y-98265413D01*
X84069500Y-98367273D01*
X81149912Y-98367273D01*
X81136392Y-98316814D01*
X81136390Y-98316811D01*
X81136390Y-98316809D01*
X81070503Y-98202690D01*
X81070501Y-98202688D01*
X81070500Y-98202686D01*
X80977314Y-98109500D01*
X80977311Y-98109498D01*
X80977309Y-98109496D01*
X80863189Y-98043609D01*
X80863191Y-98043609D01*
X80797393Y-98025979D01*
X80735892Y-98009500D01*
X80604108Y-98009500D01*
X80542607Y-98025979D01*
X80476809Y-98043609D01*
X80362690Y-98109496D01*
X80269496Y-98202690D01*
X80203609Y-98316809D01*
X80203608Y-98316814D01*
X80169500Y-98444108D01*
X71868216Y-98444108D01*
X71863207Y-98425413D01*
X71850618Y-98403609D01*
X71810481Y-98334089D01*
X71810480Y-98334087D01*
X71735913Y-98259520D01*
X71667687Y-98220130D01*
X71644589Y-98206794D01*
X71644588Y-98206793D01*
X71644587Y-98206793D01*
X71542727Y-98179500D01*
X71437273Y-98179500D01*
X71335413Y-98206793D01*
X71335412Y-98206793D01*
X71335410Y-98206794D01*
X71335409Y-98206794D01*
X71244089Y-98259518D01*
X71169518Y-98334089D01*
X71116794Y-98425409D01*
X71116794Y-98425410D01*
X71116793Y-98425412D01*
X71116793Y-98425413D01*
X71089500Y-98527273D01*
X66640500Y-98527273D01*
X66640500Y-97106532D01*
X101109500Y-97106532D01*
X101109500Y-97313467D01*
X101149869Y-97516418D01*
X101229058Y-97707597D01*
X101229059Y-97707598D01*
X101344023Y-97879655D01*
X101490345Y-98025977D01*
X101662402Y-98140941D01*
X101853580Y-98220130D01*
X102056535Y-98260500D01*
X102056536Y-98260500D01*
X102263464Y-98260500D01*
X102263465Y-98260500D01*
X102466420Y-98220130D01*
X102657598Y-98140941D01*
X102829655Y-98025977D01*
X102975977Y-97879655D01*
X103090941Y-97707598D01*
X103170130Y-97516420D01*
X103210500Y-97313465D01*
X103210500Y-97106535D01*
X103210499Y-97106532D01*
X103649500Y-97106532D01*
X103649500Y-97313467D01*
X103689869Y-97516418D01*
X103769058Y-97707597D01*
X103769059Y-97707598D01*
X103884023Y-97879655D01*
X104030345Y-98025977D01*
X104202402Y-98140941D01*
X104393580Y-98220130D01*
X104596535Y-98260500D01*
X104596536Y-98260500D01*
X104803464Y-98260500D01*
X104803465Y-98260500D01*
X105006420Y-98220130D01*
X105197598Y-98140941D01*
X105369655Y-98025977D01*
X105515977Y-97879655D01*
X105630941Y-97707598D01*
X105710130Y-97516420D01*
X105750500Y-97313465D01*
X105750500Y-97106535D01*
X105710130Y-96903580D01*
X105630941Y-96712402D01*
X105515977Y-96540345D01*
X105369655Y-96394023D01*
X105239885Y-96307314D01*
X105197597Y-96279058D01*
X105006418Y-96199869D01*
X104803467Y-96159500D01*
X104803465Y-96159500D01*
X104596535Y-96159500D01*
X104596532Y-96159500D01*
X104393581Y-96199869D01*
X104202402Y-96279058D01*
X104030348Y-96394020D01*
X103884020Y-96540348D01*
X103769058Y-96712402D01*
X103689869Y-96903581D01*
X103649500Y-97106532D01*
X103210499Y-97106532D01*
X103170130Y-96903580D01*
X103090941Y-96712402D01*
X102975977Y-96540345D01*
X102829655Y-96394023D01*
X102699885Y-96307314D01*
X102657597Y-96279058D01*
X102466418Y-96199869D01*
X102263467Y-96159500D01*
X102263465Y-96159500D01*
X102056535Y-96159500D01*
X102056532Y-96159500D01*
X101853581Y-96199869D01*
X101662402Y-96279058D01*
X101490348Y-96394020D01*
X101344020Y-96540348D01*
X101229058Y-96712402D01*
X101149869Y-96903581D01*
X101109500Y-97106532D01*
X66640500Y-97106532D01*
X66640500Y-95934108D01*
X72219500Y-95934108D01*
X72219500Y-96065892D01*
X72244582Y-96159500D01*
X72253609Y-96193190D01*
X72319496Y-96307309D01*
X72319498Y-96307311D01*
X72319500Y-96307314D01*
X72412686Y-96400500D01*
X72412688Y-96400501D01*
X72412690Y-96400503D01*
X72526810Y-96466390D01*
X72526808Y-96466390D01*
X72526812Y-96466391D01*
X72526814Y-96466392D01*
X72654108Y-96500500D01*
X72654110Y-96500500D01*
X72785890Y-96500500D01*
X72785892Y-96500500D01*
X72913186Y-96466392D01*
X72913188Y-96466390D01*
X72913190Y-96466390D01*
X73027309Y-96400503D01*
X73027309Y-96400502D01*
X73027314Y-96400500D01*
X73120500Y-96307314D01*
X73186392Y-96193186D01*
X73220500Y-96065892D01*
X73220500Y-95934108D01*
X73186392Y-95806814D01*
X73186390Y-95806811D01*
X73186390Y-95806809D01*
X73120503Y-95692690D01*
X73120501Y-95692688D01*
X73120500Y-95692686D01*
X73027314Y-95599500D01*
X73027311Y-95599498D01*
X73027309Y-95599496D01*
X72913189Y-95533609D01*
X72913191Y-95533609D01*
X72863799Y-95520375D01*
X72785892Y-95499500D01*
X72654108Y-95499500D01*
X72576200Y-95520375D01*
X72526809Y-95533609D01*
X72412690Y-95599496D01*
X72319496Y-95692690D01*
X72253609Y-95806809D01*
X72253608Y-95806814D01*
X72219500Y-95934108D01*
X66640500Y-95934108D01*
X66640500Y-94424108D01*
X67339500Y-94424108D01*
X67339500Y-94555892D01*
X67369579Y-94668151D01*
X67373609Y-94683190D01*
X67439496Y-94797309D01*
X67439498Y-94797311D01*
X67439500Y-94797314D01*
X67532686Y-94890500D01*
X67532688Y-94890501D01*
X67532690Y-94890503D01*
X67646810Y-94956390D01*
X67646808Y-94956390D01*
X67646812Y-94956391D01*
X67646814Y-94956392D01*
X67774108Y-94990500D01*
X67774110Y-94990500D01*
X67905890Y-94990500D01*
X67905892Y-94990500D01*
X68033186Y-94956392D01*
X68033188Y-94956390D01*
X68033190Y-94956390D01*
X68147309Y-94890503D01*
X68147309Y-94890502D01*
X68147314Y-94890500D01*
X68240500Y-94797314D01*
X68254269Y-94773465D01*
X68306390Y-94683190D01*
X68306390Y-94683188D01*
X68306392Y-94683186D01*
X68337649Y-94566532D01*
X101109500Y-94566532D01*
X101109500Y-94773467D01*
X101149869Y-94976418D01*
X101229058Y-95167597D01*
X101229059Y-95167598D01*
X101344023Y-95339655D01*
X101490345Y-95485977D01*
X101662402Y-95600941D01*
X101853580Y-95680130D01*
X102056535Y-95720500D01*
X102056536Y-95720500D01*
X102263464Y-95720500D01*
X102263465Y-95720500D01*
X102466420Y-95680130D01*
X102657598Y-95600941D01*
X102829655Y-95485977D01*
X102975977Y-95339655D01*
X103090941Y-95167598D01*
X103170130Y-94976420D01*
X103210500Y-94773465D01*
X103210500Y-94566535D01*
X103210499Y-94566532D01*
X103649500Y-94566532D01*
X103649500Y-94773467D01*
X103689869Y-94976418D01*
X103769058Y-95167597D01*
X103769059Y-95167598D01*
X103884023Y-95339655D01*
X104030345Y-95485977D01*
X104202402Y-95600941D01*
X104393580Y-95680130D01*
X104596535Y-95720500D01*
X104596536Y-95720500D01*
X104803464Y-95720500D01*
X104803465Y-95720500D01*
X105006420Y-95680130D01*
X105197598Y-95600941D01*
X105369655Y-95485977D01*
X105515977Y-95339655D01*
X105630941Y-95167598D01*
X105710130Y-94976420D01*
X105750500Y-94773465D01*
X105750500Y-94566535D01*
X105710130Y-94363580D01*
X105630941Y-94172402D01*
X105515977Y-94000345D01*
X105369655Y-93854023D01*
X105197598Y-93739059D01*
X105197599Y-93739059D01*
X105197597Y-93739058D01*
X105006418Y-93659869D01*
X104803467Y-93619500D01*
X104803465Y-93619500D01*
X104596535Y-93619500D01*
X104596532Y-93619500D01*
X104393581Y-93659869D01*
X104202402Y-93739058D01*
X104030348Y-93854020D01*
X103884020Y-94000348D01*
X103769058Y-94172402D01*
X103689869Y-94363581D01*
X103649500Y-94566532D01*
X103210499Y-94566532D01*
X103170130Y-94363580D01*
X103090941Y-94172402D01*
X102975977Y-94000345D01*
X102829655Y-93854023D01*
X102657598Y-93739059D01*
X102657599Y-93739059D01*
X102657597Y-93739058D01*
X102466418Y-93659869D01*
X102263467Y-93619500D01*
X102263465Y-93619500D01*
X102056535Y-93619500D01*
X102056532Y-93619500D01*
X101853581Y-93659869D01*
X101662402Y-93739058D01*
X101490348Y-93854020D01*
X101344020Y-94000348D01*
X101229058Y-94172402D01*
X101149869Y-94363581D01*
X101109500Y-94566532D01*
X68337649Y-94566532D01*
X68340500Y-94555892D01*
X68340500Y-94424108D01*
X68306392Y-94296814D01*
X68306390Y-94296811D01*
X68306390Y-94296809D01*
X68240503Y-94182690D01*
X68240501Y-94182688D01*
X68240500Y-94182686D01*
X68147314Y-94089500D01*
X68147311Y-94089498D01*
X68147309Y-94089496D01*
X68033189Y-94023609D01*
X68033191Y-94023609D01*
X67983799Y-94010375D01*
X67905892Y-93989500D01*
X67774108Y-93989500D01*
X67696200Y-94010375D01*
X67646809Y-94023609D01*
X67532690Y-94089496D01*
X67439496Y-94182690D01*
X67373609Y-94296809D01*
X67373608Y-94296814D01*
X67339500Y-94424108D01*
X66640500Y-94424108D01*
X66640500Y-91637273D01*
X86579500Y-91637273D01*
X86579500Y-91742727D01*
X86601165Y-91823581D01*
X86606794Y-91844589D01*
X86606794Y-91844590D01*
X86659518Y-91935910D01*
X86659520Y-91935913D01*
X86734087Y-92010480D01*
X86825413Y-92063207D01*
X86927273Y-92090500D01*
X86927275Y-92090500D01*
X87032725Y-92090500D01*
X87032727Y-92090500D01*
X87134587Y-92063207D01*
X87198110Y-92026532D01*
X101109500Y-92026532D01*
X101109500Y-92233467D01*
X101149869Y-92436418D01*
X101229058Y-92627597D01*
X101229059Y-92627598D01*
X101344023Y-92799655D01*
X101490345Y-92945977D01*
X101662402Y-93060941D01*
X101853580Y-93140130D01*
X102056535Y-93180500D01*
X102056536Y-93180500D01*
X102263464Y-93180500D01*
X102263465Y-93180500D01*
X102466420Y-93140130D01*
X102657598Y-93060941D01*
X102829655Y-92945977D01*
X102975977Y-92799655D01*
X103090941Y-92627598D01*
X103170130Y-92436420D01*
X103210500Y-92233465D01*
X103210500Y-92026535D01*
X103210499Y-92026532D01*
X103649500Y-92026532D01*
X103649500Y-92233467D01*
X103689869Y-92436418D01*
X103769058Y-92627597D01*
X103769059Y-92627598D01*
X103884023Y-92799655D01*
X104030345Y-92945977D01*
X104202402Y-93060941D01*
X104393580Y-93140130D01*
X104596535Y-93180500D01*
X104596536Y-93180500D01*
X104803464Y-93180500D01*
X104803465Y-93180500D01*
X105006420Y-93140130D01*
X105197598Y-93060941D01*
X105369655Y-92945977D01*
X105515977Y-92799655D01*
X105630941Y-92627598D01*
X105710130Y-92436420D01*
X105750500Y-92233465D01*
X105750500Y-92026535D01*
X105710130Y-91823580D01*
X105630941Y-91632402D01*
X105515977Y-91460345D01*
X105369655Y-91314023D01*
X105369651Y-91314020D01*
X105197597Y-91199058D01*
X105006418Y-91119869D01*
X104803467Y-91079500D01*
X104803465Y-91079500D01*
X104596535Y-91079500D01*
X104596532Y-91079500D01*
X104393581Y-91119869D01*
X104202402Y-91199058D01*
X104030348Y-91314020D01*
X103884020Y-91460348D01*
X103769058Y-91632402D01*
X103689869Y-91823581D01*
X103649500Y-92026532D01*
X103210499Y-92026532D01*
X103170130Y-91823580D01*
X103090941Y-91632402D01*
X102975977Y-91460345D01*
X102829655Y-91314023D01*
X102829651Y-91314020D01*
X102657597Y-91199058D01*
X102466418Y-91119869D01*
X102263467Y-91079500D01*
X102263465Y-91079500D01*
X102056535Y-91079500D01*
X102056532Y-91079500D01*
X101853581Y-91119869D01*
X101662402Y-91199058D01*
X101490348Y-91314020D01*
X101344020Y-91460348D01*
X101229058Y-91632402D01*
X101149869Y-91823581D01*
X101109500Y-92026532D01*
X87198110Y-92026532D01*
X87225913Y-92010480D01*
X87300480Y-91935913D01*
X87353207Y-91844587D01*
X87380500Y-91742727D01*
X87380500Y-91637273D01*
X87353207Y-91535413D01*
X87344585Y-91520480D01*
X87309868Y-91460348D01*
X87300480Y-91444087D01*
X87225913Y-91369520D01*
X87200053Y-91354590D01*
X87134589Y-91316794D01*
X87134588Y-91316793D01*
X87134587Y-91316793D01*
X87032727Y-91289500D01*
X86927273Y-91289500D01*
X86825413Y-91316793D01*
X86825412Y-91316793D01*
X86825410Y-91316794D01*
X86825409Y-91316794D01*
X86734089Y-91369518D01*
X86659518Y-91444089D01*
X86606794Y-91535409D01*
X86606794Y-91535410D01*
X86606793Y-91535412D01*
X86606793Y-91535413D01*
X86579500Y-91637273D01*
X66640500Y-91637273D01*
X66640500Y-91147273D01*
X71059500Y-91147273D01*
X71059500Y-91252727D01*
X71076667Y-91316794D01*
X71086794Y-91354589D01*
X71086794Y-91354590D01*
X71138467Y-91444089D01*
X71139520Y-91445913D01*
X71214087Y-91520480D01*
X71305413Y-91573207D01*
X71407273Y-91600500D01*
X71407275Y-91600500D01*
X71512725Y-91600500D01*
X71512727Y-91600500D01*
X71614587Y-91573207D01*
X71705913Y-91520480D01*
X71780480Y-91445913D01*
X71833207Y-91354587D01*
X71860500Y-91252727D01*
X71860500Y-91147273D01*
X71833207Y-91045413D01*
X71780480Y-90954087D01*
X71705913Y-90879520D01*
X71614587Y-90826793D01*
X71512727Y-90799500D01*
X71407273Y-90799500D01*
X71305413Y-90826793D01*
X71305412Y-90826793D01*
X71305410Y-90826794D01*
X71305409Y-90826794D01*
X71214089Y-90879518D01*
X71139518Y-90954089D01*
X71086794Y-91045409D01*
X71086794Y-91045410D01*
X71086793Y-91045412D01*
X71086793Y-91045413D01*
X71059500Y-91147273D01*
X66640500Y-91147273D01*
X66640500Y-89486532D01*
X101109500Y-89486532D01*
X101109500Y-89693467D01*
X101149869Y-89896418D01*
X101229058Y-90087597D01*
X101229059Y-90087598D01*
X101344023Y-90259655D01*
X101490345Y-90405977D01*
X101662402Y-90520941D01*
X101853580Y-90600130D01*
X102056535Y-90640500D01*
X102056536Y-90640500D01*
X102263464Y-90640500D01*
X102263465Y-90640500D01*
X102466420Y-90600130D01*
X102657598Y-90520941D01*
X102829655Y-90405977D01*
X102975977Y-90259655D01*
X103090941Y-90087598D01*
X103170130Y-89896420D01*
X103210500Y-89693465D01*
X103210500Y-89486535D01*
X103210499Y-89486532D01*
X103649500Y-89486532D01*
X103649500Y-89693467D01*
X103689869Y-89896418D01*
X103769058Y-90087597D01*
X103769059Y-90087598D01*
X103884023Y-90259655D01*
X104030345Y-90405977D01*
X104202402Y-90520941D01*
X104393580Y-90600130D01*
X104596535Y-90640500D01*
X104596536Y-90640500D01*
X104803464Y-90640500D01*
X104803465Y-90640500D01*
X105006420Y-90600130D01*
X105197598Y-90520941D01*
X105369655Y-90405977D01*
X105515977Y-90259655D01*
X105630941Y-90087598D01*
X105710130Y-89896420D01*
X105750500Y-89693465D01*
X105750500Y-89486535D01*
X105710130Y-89283580D01*
X105630941Y-89092402D01*
X105515977Y-88920345D01*
X105369655Y-88774023D01*
X105197598Y-88659059D01*
X105197599Y-88659059D01*
X105197597Y-88659058D01*
X105006418Y-88579869D01*
X104803467Y-88539500D01*
X104803465Y-88539500D01*
X104596535Y-88539500D01*
X104596532Y-88539500D01*
X104393581Y-88579869D01*
X104202402Y-88659058D01*
X104030348Y-88774020D01*
X103884020Y-88920348D01*
X103769058Y-89092402D01*
X103689869Y-89283581D01*
X103649500Y-89486532D01*
X103210499Y-89486532D01*
X103170130Y-89283580D01*
X103090941Y-89092402D01*
X102975977Y-88920345D01*
X102829655Y-88774023D01*
X102657598Y-88659059D01*
X102657599Y-88659059D01*
X102657597Y-88659058D01*
X102466418Y-88579869D01*
X102263467Y-88539500D01*
X102263465Y-88539500D01*
X102056535Y-88539500D01*
X102056532Y-88539500D01*
X101853581Y-88579869D01*
X101662402Y-88659058D01*
X101490348Y-88774020D01*
X101344020Y-88920348D01*
X101229058Y-89092402D01*
X101149869Y-89283581D01*
X101109500Y-89486532D01*
X66640500Y-89486532D01*
X66640500Y-87214108D01*
X70959500Y-87214108D01*
X70959500Y-87345892D01*
X70989354Y-87457309D01*
X70993609Y-87473190D01*
X71059496Y-87587309D01*
X71059498Y-87587311D01*
X71059500Y-87587314D01*
X71152686Y-87680500D01*
X71152688Y-87680501D01*
X71152690Y-87680503D01*
X71266810Y-87746390D01*
X71266808Y-87746390D01*
X71266812Y-87746391D01*
X71266814Y-87746392D01*
X71394108Y-87780500D01*
X71394110Y-87780500D01*
X71525890Y-87780500D01*
X71525892Y-87780500D01*
X71653186Y-87746392D01*
X71653188Y-87746390D01*
X71653190Y-87746390D01*
X71767309Y-87680503D01*
X71767309Y-87680502D01*
X71767314Y-87680500D01*
X71860500Y-87587314D01*
X71909069Y-87503190D01*
X71926390Y-87473190D01*
X71926390Y-87473188D01*
X71926392Y-87473186D01*
X71960500Y-87345892D01*
X71960500Y-87244108D01*
X77569500Y-87244108D01*
X77569500Y-87375892D01*
X77591317Y-87457314D01*
X77603609Y-87503190D01*
X77669496Y-87617309D01*
X77669498Y-87617311D01*
X77669500Y-87617314D01*
X77762686Y-87710500D01*
X77762688Y-87710501D01*
X77762690Y-87710503D01*
X77876810Y-87776390D01*
X77876808Y-87776390D01*
X77876812Y-87776391D01*
X77876814Y-87776392D01*
X78004108Y-87810500D01*
X78004110Y-87810500D01*
X78135890Y-87810500D01*
X78135892Y-87810500D01*
X78263186Y-87776392D01*
X78263188Y-87776390D01*
X78263190Y-87776390D01*
X78377309Y-87710503D01*
X78377309Y-87710502D01*
X78377314Y-87710500D01*
X78470500Y-87617314D01*
X78471032Y-87616392D01*
X78536390Y-87503190D01*
X78536390Y-87503188D01*
X78536392Y-87503186D01*
X78570500Y-87375892D01*
X78570500Y-87244108D01*
X78562462Y-87214108D01*
X83609500Y-87214108D01*
X83609500Y-87345892D01*
X83639354Y-87457309D01*
X83643609Y-87473190D01*
X83709496Y-87587309D01*
X83709498Y-87587311D01*
X83709500Y-87587314D01*
X83802686Y-87680500D01*
X83802688Y-87680501D01*
X83802690Y-87680503D01*
X83916810Y-87746390D01*
X83916808Y-87746390D01*
X83916812Y-87746391D01*
X83916814Y-87746392D01*
X84044108Y-87780500D01*
X84044110Y-87780500D01*
X84175890Y-87780500D01*
X84175892Y-87780500D01*
X84303186Y-87746392D01*
X84303188Y-87746390D01*
X84303190Y-87746390D01*
X84417309Y-87680503D01*
X84417309Y-87680502D01*
X84417314Y-87680500D01*
X84510500Y-87587314D01*
X84559069Y-87503190D01*
X84576390Y-87473190D01*
X84576390Y-87473188D01*
X84576392Y-87473186D01*
X84610500Y-87345892D01*
X84610500Y-87214108D01*
X84576392Y-87086814D01*
X84576389Y-87086809D01*
X84574830Y-87084108D01*
X90869500Y-87084108D01*
X90869500Y-87215892D01*
X90877061Y-87244109D01*
X90903609Y-87343190D01*
X90969496Y-87457309D01*
X90969498Y-87457311D01*
X90969500Y-87457314D01*
X91062686Y-87550500D01*
X91062688Y-87550501D01*
X91062690Y-87550503D01*
X91176810Y-87616390D01*
X91176808Y-87616390D01*
X91176812Y-87616391D01*
X91176814Y-87616392D01*
X91304108Y-87650500D01*
X91304110Y-87650500D01*
X91435890Y-87650500D01*
X91435892Y-87650500D01*
X91563186Y-87616392D01*
X91563188Y-87616390D01*
X91563190Y-87616390D01*
X91677309Y-87550503D01*
X91677309Y-87550502D01*
X91677314Y-87550500D01*
X91770500Y-87457314D01*
X91817509Y-87375892D01*
X91836390Y-87343190D01*
X91836390Y-87343188D01*
X91836392Y-87343186D01*
X91870500Y-87215892D01*
X91870500Y-87084108D01*
X91836392Y-86956814D01*
X91836390Y-86956811D01*
X91836390Y-86956809D01*
X91770503Y-86842690D01*
X91770501Y-86842688D01*
X91770500Y-86842686D01*
X91677314Y-86749500D01*
X91677311Y-86749498D01*
X91677309Y-86749496D01*
X91614714Y-86713356D01*
X91614711Y-86713356D01*
X91563187Y-86683608D01*
X91520754Y-86672238D01*
X91435892Y-86649500D01*
X91304108Y-86649500D01*
X91226200Y-86670375D01*
X91176809Y-86683609D01*
X91062690Y-86749496D01*
X90969496Y-86842690D01*
X90903609Y-86956809D01*
X90903608Y-86956814D01*
X90869500Y-87084108D01*
X84574830Y-87084108D01*
X84510503Y-86972690D01*
X84510501Y-86972688D01*
X84510500Y-86972686D01*
X84417314Y-86879500D01*
X84417311Y-86879498D01*
X84417309Y-86879496D01*
X84303189Y-86813609D01*
X84303191Y-86813609D01*
X84253799Y-86800375D01*
X84175892Y-86779500D01*
X84044108Y-86779500D01*
X83966200Y-86800375D01*
X83916809Y-86813609D01*
X83802690Y-86879496D01*
X83709496Y-86972690D01*
X83643609Y-87086809D01*
X83625750Y-87153463D01*
X83609500Y-87214108D01*
X78562462Y-87214108D01*
X78536392Y-87116814D01*
X78536390Y-87116811D01*
X78536390Y-87116809D01*
X78470503Y-87002690D01*
X78470501Y-87002688D01*
X78470500Y-87002686D01*
X78377314Y-86909500D01*
X78377311Y-86909498D01*
X78377309Y-86909496D01*
X78263189Y-86843609D01*
X78263191Y-86843609D01*
X78213799Y-86830375D01*
X78135892Y-86809500D01*
X78004108Y-86809500D01*
X77926200Y-86830375D01*
X77876809Y-86843609D01*
X77762690Y-86909496D01*
X77669496Y-87002690D01*
X77603609Y-87116809D01*
X77603608Y-87116814D01*
X77569500Y-87244108D01*
X71960500Y-87244108D01*
X71960500Y-87214108D01*
X71926392Y-87086814D01*
X71926390Y-87086810D01*
X71926390Y-87086809D01*
X71860503Y-86972690D01*
X71860501Y-86972688D01*
X71860500Y-86972686D01*
X71767314Y-86879500D01*
X71767311Y-86879498D01*
X71767309Y-86879496D01*
X71653189Y-86813609D01*
X71653191Y-86813609D01*
X71603799Y-86800375D01*
X71525892Y-86779500D01*
X71394108Y-86779500D01*
X71316200Y-86800375D01*
X71266809Y-86813609D01*
X71152690Y-86879496D01*
X71059496Y-86972690D01*
X70993609Y-87086809D01*
X70975750Y-87153463D01*
X70959500Y-87214108D01*
X66640500Y-87214108D01*
X66640500Y-86634108D01*
X97579500Y-86634108D01*
X97579500Y-86765892D01*
X97592286Y-86813609D01*
X97613609Y-86893190D01*
X97679496Y-87007309D01*
X97679498Y-87007311D01*
X97679500Y-87007314D01*
X97772686Y-87100500D01*
X97772688Y-87100501D01*
X97772690Y-87100503D01*
X97886810Y-87166390D01*
X97886808Y-87166390D01*
X97886812Y-87166391D01*
X97886814Y-87166392D01*
X98014108Y-87200500D01*
X98014110Y-87200500D01*
X98145890Y-87200500D01*
X98145892Y-87200500D01*
X98273186Y-87166392D01*
X98273188Y-87166390D01*
X98273190Y-87166390D01*
X98387309Y-87100503D01*
X98387309Y-87100502D01*
X98387314Y-87100500D01*
X98480500Y-87007314D01*
X98509659Y-86956809D01*
X98515593Y-86946532D01*
X101109500Y-86946532D01*
X101109500Y-87153467D01*
X101149869Y-87356418D01*
X101229058Y-87547597D01*
X101337906Y-87710500D01*
X101344023Y-87719655D01*
X101490345Y-87865977D01*
X101662402Y-87980941D01*
X101853580Y-88060130D01*
X102056535Y-88100500D01*
X102056536Y-88100500D01*
X102263464Y-88100500D01*
X102263465Y-88100500D01*
X102466420Y-88060130D01*
X102657598Y-87980941D01*
X102829655Y-87865977D01*
X102975977Y-87719655D01*
X103090941Y-87547598D01*
X103170130Y-87356420D01*
X103210500Y-87153465D01*
X103210500Y-86946535D01*
X103210499Y-86946532D01*
X103649500Y-86946532D01*
X103649500Y-87153467D01*
X103689869Y-87356418D01*
X103769058Y-87547597D01*
X103877906Y-87710500D01*
X103884023Y-87719655D01*
X104030345Y-87865977D01*
X104202402Y-87980941D01*
X104393580Y-88060130D01*
X104596535Y-88100500D01*
X104596536Y-88100500D01*
X104803464Y-88100500D01*
X104803465Y-88100500D01*
X105006420Y-88060130D01*
X105197598Y-87980941D01*
X105369655Y-87865977D01*
X105515977Y-87719655D01*
X105630941Y-87547598D01*
X105710130Y-87356420D01*
X105750500Y-87153465D01*
X105750500Y-86946535D01*
X105710130Y-86743580D01*
X105630941Y-86552402D01*
X105515977Y-86380345D01*
X105369655Y-86234023D01*
X105369651Y-86234020D01*
X105197597Y-86119058D01*
X105006418Y-86039869D01*
X104803467Y-85999500D01*
X104803465Y-85999500D01*
X104596535Y-85999500D01*
X104596532Y-85999500D01*
X104393581Y-86039869D01*
X104202402Y-86119058D01*
X104030348Y-86234020D01*
X103884020Y-86380348D01*
X103769058Y-86552402D01*
X103689869Y-86743581D01*
X103649500Y-86946532D01*
X103210499Y-86946532D01*
X103170130Y-86743580D01*
X103090941Y-86552402D01*
X102975977Y-86380345D01*
X102829655Y-86234023D01*
X102829651Y-86234020D01*
X102657597Y-86119058D01*
X102466418Y-86039869D01*
X102263467Y-85999500D01*
X102263465Y-85999500D01*
X102056535Y-85999500D01*
X102056532Y-85999500D01*
X101853581Y-86039869D01*
X101662402Y-86119058D01*
X101490348Y-86234020D01*
X101344020Y-86380348D01*
X101229058Y-86552402D01*
X101149869Y-86743581D01*
X101109500Y-86946532D01*
X98515593Y-86946532D01*
X98546390Y-86893190D01*
X98546390Y-86893188D01*
X98546392Y-86893186D01*
X98580500Y-86765892D01*
X98580500Y-86634108D01*
X98546392Y-86506814D01*
X98546390Y-86506811D01*
X98546390Y-86506809D01*
X98480503Y-86392690D01*
X98480501Y-86392688D01*
X98480500Y-86392686D01*
X98387314Y-86299500D01*
X98387311Y-86299498D01*
X98387309Y-86299496D01*
X98273189Y-86233609D01*
X98273191Y-86233609D01*
X98223799Y-86220375D01*
X98145892Y-86199500D01*
X98014108Y-86199500D01*
X97936200Y-86220375D01*
X97886809Y-86233609D01*
X97772690Y-86299496D01*
X97679496Y-86392690D01*
X97613609Y-86506809D01*
X97613608Y-86506814D01*
X97579500Y-86634108D01*
X66640500Y-86634108D01*
X66640500Y-85317273D01*
X85209500Y-85317273D01*
X85209500Y-85422727D01*
X85225566Y-85482686D01*
X85236794Y-85524589D01*
X85236794Y-85524590D01*
X85257527Y-85560500D01*
X85289520Y-85615913D01*
X85364087Y-85690480D01*
X85455413Y-85743207D01*
X85557273Y-85770500D01*
X85557275Y-85770500D01*
X85662725Y-85770500D01*
X85662727Y-85770500D01*
X85764587Y-85743207D01*
X85797667Y-85724108D01*
X86539500Y-85724108D01*
X86539500Y-85855892D01*
X86569579Y-85968151D01*
X86573609Y-85983190D01*
X86639496Y-86097309D01*
X86639498Y-86097311D01*
X86639500Y-86097314D01*
X86732686Y-86190500D01*
X86732688Y-86190501D01*
X86732690Y-86190503D01*
X86846810Y-86256390D01*
X86846808Y-86256390D01*
X86846812Y-86256391D01*
X86846814Y-86256392D01*
X86974108Y-86290500D01*
X86974110Y-86290500D01*
X87105890Y-86290500D01*
X87105892Y-86290500D01*
X87233186Y-86256392D01*
X87233188Y-86256390D01*
X87233190Y-86256390D01*
X87347309Y-86190503D01*
X87347309Y-86190502D01*
X87347314Y-86190500D01*
X87440500Y-86097314D01*
X87440503Y-86097309D01*
X87506390Y-85983190D01*
X87506390Y-85983188D01*
X87506392Y-85983186D01*
X87540500Y-85855892D01*
X87540500Y-85724108D01*
X87506392Y-85596814D01*
X87506390Y-85596811D01*
X87506390Y-85596809D01*
X87440503Y-85482690D01*
X87440501Y-85482688D01*
X87440500Y-85482686D01*
X87347314Y-85389500D01*
X87347311Y-85389498D01*
X87347309Y-85389496D01*
X87233189Y-85323609D01*
X87233191Y-85323609D01*
X87183799Y-85310375D01*
X87105892Y-85289500D01*
X86974108Y-85289500D01*
X86896200Y-85310375D01*
X86846809Y-85323609D01*
X86732690Y-85389496D01*
X86639496Y-85482690D01*
X86573609Y-85596809D01*
X86573608Y-85596814D01*
X86539500Y-85724108D01*
X85797667Y-85724108D01*
X85855913Y-85690480D01*
X85930480Y-85615913D01*
X85983207Y-85524587D01*
X86010500Y-85422727D01*
X86010500Y-85317273D01*
X85983207Y-85215413D01*
X85930480Y-85124087D01*
X85855913Y-85049520D01*
X85764587Y-84996793D01*
X85662727Y-84969500D01*
X85557273Y-84969500D01*
X85455413Y-84996793D01*
X85455412Y-84996793D01*
X85455410Y-84996794D01*
X85455409Y-84996794D01*
X85364089Y-85049518D01*
X85289518Y-85124089D01*
X85236794Y-85215409D01*
X85236794Y-85215410D01*
X85236793Y-85215412D01*
X85236793Y-85215413D01*
X85209500Y-85317273D01*
X66640500Y-85317273D01*
X66640500Y-84406532D01*
X101109500Y-84406532D01*
X101109500Y-84613467D01*
X101149869Y-84816418D01*
X101229058Y-85007597D01*
X101229059Y-85007598D01*
X101344023Y-85179655D01*
X101490345Y-85325977D01*
X101662402Y-85440941D01*
X101853580Y-85520130D01*
X102056535Y-85560500D01*
X102056536Y-85560500D01*
X102263464Y-85560500D01*
X102263465Y-85560500D01*
X102466420Y-85520130D01*
X102657598Y-85440941D01*
X102829655Y-85325977D01*
X102975977Y-85179655D01*
X103090941Y-85007598D01*
X103170130Y-84816420D01*
X103210500Y-84613465D01*
X103210500Y-84406535D01*
X103210499Y-84406532D01*
X103649500Y-84406532D01*
X103649500Y-84613467D01*
X103689869Y-84816418D01*
X103769058Y-85007597D01*
X103769059Y-85007598D01*
X103884023Y-85179655D01*
X104030345Y-85325977D01*
X104202402Y-85440941D01*
X104393580Y-85520130D01*
X104596535Y-85560500D01*
X104596536Y-85560500D01*
X104803464Y-85560500D01*
X104803465Y-85560500D01*
X105006420Y-85520130D01*
X105197598Y-85440941D01*
X105369655Y-85325977D01*
X105515977Y-85179655D01*
X105630941Y-85007598D01*
X105710130Y-84816420D01*
X105750500Y-84613465D01*
X105750500Y-84406535D01*
X105710130Y-84203580D01*
X105630941Y-84012402D01*
X105515977Y-83840345D01*
X105369655Y-83694023D01*
X105197598Y-83579059D01*
X105197599Y-83579059D01*
X105197597Y-83579058D01*
X105006418Y-83499869D01*
X104803467Y-83459500D01*
X104803465Y-83459500D01*
X104596535Y-83459500D01*
X104596532Y-83459500D01*
X104393581Y-83499869D01*
X104202402Y-83579058D01*
X104030348Y-83694020D01*
X103884020Y-83840348D01*
X103769058Y-84012402D01*
X103689869Y-84203581D01*
X103649500Y-84406532D01*
X103210499Y-84406532D01*
X103170130Y-84203580D01*
X103090941Y-84012402D01*
X102975977Y-83840345D01*
X102829655Y-83694023D01*
X102657598Y-83579059D01*
X102657599Y-83579059D01*
X102657597Y-83579058D01*
X102466418Y-83499869D01*
X102263467Y-83459500D01*
X102263465Y-83459500D01*
X102056535Y-83459500D01*
X102056532Y-83459500D01*
X101853581Y-83499869D01*
X101662402Y-83579058D01*
X101490348Y-83694020D01*
X101344020Y-83840348D01*
X101229058Y-84012402D01*
X101149869Y-84203581D01*
X101109500Y-84406532D01*
X66640500Y-84406532D01*
X66640500Y-81364108D01*
X84509500Y-81364108D01*
X84509500Y-81495892D01*
X84530211Y-81573186D01*
X84543609Y-81623190D01*
X84609496Y-81737309D01*
X84609498Y-81737311D01*
X84609500Y-81737314D01*
X84702686Y-81830500D01*
X84702688Y-81830501D01*
X84702690Y-81830503D01*
X84816810Y-81896390D01*
X84816808Y-81896390D01*
X84816812Y-81896391D01*
X84816814Y-81896392D01*
X84944108Y-81930500D01*
X84944110Y-81930500D01*
X85075890Y-81930500D01*
X85075892Y-81930500D01*
X85203186Y-81896392D01*
X85203188Y-81896390D01*
X85203190Y-81896390D01*
X85317309Y-81830503D01*
X85317309Y-81830502D01*
X85317314Y-81830500D01*
X85410500Y-81737314D01*
X85439368Y-81687314D01*
X85476390Y-81623190D01*
X85476390Y-81623188D01*
X85476392Y-81623186D01*
X85510500Y-81495892D01*
X85510500Y-81364108D01*
X85497103Y-81314108D01*
X87049500Y-81314108D01*
X87049500Y-81445892D01*
X87079579Y-81558151D01*
X87083609Y-81573190D01*
X87149496Y-81687309D01*
X87149498Y-81687311D01*
X87149500Y-81687314D01*
X87242686Y-81780500D01*
X87242688Y-81780501D01*
X87242690Y-81780503D01*
X87356810Y-81846390D01*
X87356808Y-81846390D01*
X87356812Y-81846391D01*
X87356814Y-81846392D01*
X87484108Y-81880500D01*
X87484110Y-81880500D01*
X87615890Y-81880500D01*
X87615892Y-81880500D01*
X87668022Y-81866532D01*
X101109500Y-81866532D01*
X101109500Y-82073467D01*
X101149869Y-82276418D01*
X101229058Y-82467597D01*
X101229059Y-82467598D01*
X101344023Y-82639655D01*
X101490345Y-82785977D01*
X101662402Y-82900941D01*
X101853580Y-82980130D01*
X102056535Y-83020500D01*
X102056536Y-83020500D01*
X102263464Y-83020500D01*
X102263465Y-83020500D01*
X102466420Y-82980130D01*
X102657598Y-82900941D01*
X102829655Y-82785977D01*
X102975977Y-82639655D01*
X103090941Y-82467598D01*
X103170130Y-82276420D01*
X103210500Y-82073465D01*
X103210500Y-81866535D01*
X103210499Y-81866532D01*
X103649500Y-81866532D01*
X103649500Y-82073467D01*
X103689869Y-82276418D01*
X103769058Y-82467597D01*
X103769059Y-82467598D01*
X103884023Y-82639655D01*
X104030345Y-82785977D01*
X104202402Y-82900941D01*
X104393580Y-82980130D01*
X104596535Y-83020500D01*
X104596536Y-83020500D01*
X104803464Y-83020500D01*
X104803465Y-83020500D01*
X105006420Y-82980130D01*
X105197598Y-82900941D01*
X105369655Y-82785977D01*
X105515977Y-82639655D01*
X105630941Y-82467598D01*
X105710130Y-82276420D01*
X105750500Y-82073465D01*
X105750500Y-81866535D01*
X105710130Y-81663580D01*
X105630941Y-81472402D01*
X105515977Y-81300345D01*
X105369655Y-81154023D01*
X105349388Y-81140481D01*
X105197597Y-81039058D01*
X105006418Y-80959869D01*
X104803467Y-80919500D01*
X104803465Y-80919500D01*
X104596535Y-80919500D01*
X104596532Y-80919500D01*
X104393581Y-80959869D01*
X104202402Y-81039058D01*
X104030348Y-81154020D01*
X103884020Y-81300348D01*
X103769058Y-81472402D01*
X103689869Y-81663581D01*
X103649500Y-81866532D01*
X103210499Y-81866532D01*
X103170130Y-81663580D01*
X103090941Y-81472402D01*
X102975977Y-81300345D01*
X102829655Y-81154023D01*
X102809388Y-81140481D01*
X102657597Y-81039058D01*
X102466418Y-80959869D01*
X102263467Y-80919500D01*
X102263465Y-80919500D01*
X102056535Y-80919500D01*
X102056532Y-80919500D01*
X101853581Y-80959869D01*
X101662402Y-81039058D01*
X101490348Y-81154020D01*
X101344020Y-81300348D01*
X101229058Y-81472402D01*
X101149869Y-81663581D01*
X101109500Y-81866532D01*
X87668022Y-81866532D01*
X87743186Y-81846392D01*
X87743188Y-81846390D01*
X87743190Y-81846390D01*
X87857309Y-81780503D01*
X87857309Y-81780502D01*
X87857314Y-81780500D01*
X87950500Y-81687314D01*
X87987522Y-81623190D01*
X88016390Y-81573190D01*
X88016390Y-81573188D01*
X88016392Y-81573186D01*
X88050500Y-81445892D01*
X88050500Y-81314108D01*
X88016392Y-81186814D01*
X88016390Y-81186811D01*
X88016390Y-81186809D01*
X87950503Y-81072690D01*
X87950501Y-81072688D01*
X87950500Y-81072686D01*
X87857314Y-80979500D01*
X87857311Y-80979498D01*
X87857309Y-80979496D01*
X87743189Y-80913609D01*
X87743191Y-80913609D01*
X87693799Y-80900375D01*
X87615892Y-80879500D01*
X87484108Y-80879500D01*
X87406200Y-80900375D01*
X87356809Y-80913609D01*
X87242690Y-80979496D01*
X87149496Y-81072690D01*
X87083609Y-81186809D01*
X87074582Y-81220500D01*
X87049500Y-81314108D01*
X85497103Y-81314108D01*
X85476392Y-81236814D01*
X85476390Y-81236811D01*
X85476390Y-81236809D01*
X85410503Y-81122690D01*
X85410501Y-81122688D01*
X85410500Y-81122686D01*
X85317314Y-81029500D01*
X85317311Y-81029498D01*
X85317309Y-81029496D01*
X85203189Y-80963609D01*
X85203191Y-80963609D01*
X85153799Y-80950375D01*
X85075892Y-80929500D01*
X84944108Y-80929500D01*
X84866200Y-80950375D01*
X84816809Y-80963609D01*
X84702690Y-81029496D01*
X84609496Y-81122690D01*
X84543609Y-81236809D01*
X84543608Y-81236814D01*
X84509500Y-81364108D01*
X66640500Y-81364108D01*
X66640500Y-80154108D01*
X67159500Y-80154108D01*
X67159500Y-80285892D01*
X67169370Y-80322727D01*
X67193609Y-80413190D01*
X67259496Y-80527309D01*
X67259498Y-80527311D01*
X67259500Y-80527314D01*
X67352686Y-80620500D01*
X67352688Y-80620501D01*
X67352690Y-80620503D01*
X67466810Y-80686390D01*
X67466808Y-80686390D01*
X67466812Y-80686391D01*
X67466814Y-80686392D01*
X67594108Y-80720500D01*
X67594110Y-80720500D01*
X67725890Y-80720500D01*
X67725892Y-80720500D01*
X67853186Y-80686392D01*
X67853188Y-80686390D01*
X67853190Y-80686390D01*
X67967309Y-80620503D01*
X67967309Y-80620502D01*
X67967314Y-80620500D01*
X68060500Y-80527314D01*
X68062281Y-80524229D01*
X68126390Y-80413190D01*
X68126390Y-80413188D01*
X68126392Y-80413186D01*
X68160500Y-80285892D01*
X68160500Y-80217273D01*
X85569500Y-80217273D01*
X85569500Y-80322727D01*
X85596793Y-80424587D01*
X85596794Y-80424589D01*
X85596794Y-80424590D01*
X85643594Y-80505649D01*
X85649520Y-80515913D01*
X85724087Y-80590480D01*
X85815413Y-80643207D01*
X85917273Y-80670500D01*
X85917275Y-80670500D01*
X86022726Y-80670500D01*
X86022727Y-80670500D01*
X86034874Y-80667245D01*
X86095974Y-80670444D01*
X86143526Y-80708947D01*
X86159500Y-80762870D01*
X86159500Y-80767273D01*
X86159500Y-80872727D01*
X86186793Y-80974587D01*
X86186794Y-80974589D01*
X86186794Y-80974590D01*
X86239518Y-81065910D01*
X86239520Y-81065913D01*
X86314087Y-81140480D01*
X86405413Y-81193207D01*
X86507273Y-81220500D01*
X86507275Y-81220500D01*
X86612725Y-81220500D01*
X86612727Y-81220500D01*
X86714587Y-81193207D01*
X86805913Y-81140480D01*
X86880480Y-81065913D01*
X86933207Y-80974587D01*
X86960500Y-80872727D01*
X86960500Y-80767273D01*
X86933207Y-80665413D01*
X86909360Y-80624108D01*
X96009500Y-80624108D01*
X96009500Y-80755892D01*
X96011370Y-80762870D01*
X96043609Y-80883190D01*
X96109496Y-80997309D01*
X96109498Y-80997311D01*
X96109500Y-80997314D01*
X96202686Y-81090500D01*
X96202688Y-81090501D01*
X96202690Y-81090503D01*
X96316810Y-81156390D01*
X96316808Y-81156390D01*
X96316812Y-81156391D01*
X96316814Y-81156392D01*
X96444108Y-81190500D01*
X96444110Y-81190500D01*
X96575890Y-81190500D01*
X96575892Y-81190500D01*
X96703186Y-81156392D01*
X96703188Y-81156390D01*
X96703190Y-81156390D01*
X96817309Y-81090503D01*
X96817309Y-81090502D01*
X96817314Y-81090500D01*
X96910500Y-80997314D01*
X96923620Y-80974589D01*
X96976390Y-80883190D01*
X96976390Y-80883188D01*
X96976392Y-80883186D01*
X97010500Y-80755892D01*
X97010500Y-80624108D01*
X96976392Y-80496814D01*
X96976390Y-80496811D01*
X96976390Y-80496809D01*
X96910503Y-80382690D01*
X96910501Y-80382688D01*
X96910500Y-80382686D01*
X96817314Y-80289500D01*
X96817311Y-80289498D01*
X96817309Y-80289496D01*
X96703189Y-80223609D01*
X96703191Y-80223609D01*
X96653799Y-80210375D01*
X96575892Y-80189500D01*
X96444108Y-80189500D01*
X96366200Y-80210375D01*
X96316809Y-80223609D01*
X96202690Y-80289496D01*
X96109496Y-80382690D01*
X96043609Y-80496809D01*
X96030323Y-80546393D01*
X96009500Y-80624108D01*
X86909360Y-80624108D01*
X86880480Y-80574087D01*
X86859321Y-80552928D01*
X86853714Y-80544355D01*
X86848250Y-80524229D01*
X86838784Y-80505649D01*
X86840414Y-80495359D01*
X86837685Y-80485306D01*
X86845095Y-80465812D01*
X86848358Y-80445218D01*
X86850814Y-80440692D01*
X86883207Y-80384587D01*
X86910500Y-80282727D01*
X86910500Y-80177273D01*
X86883207Y-80075413D01*
X86830480Y-79984087D01*
X86755913Y-79909520D01*
X86733869Y-79896793D01*
X86664589Y-79856794D01*
X86664588Y-79856793D01*
X86664587Y-79856793D01*
X86562727Y-79829500D01*
X86457273Y-79829500D01*
X86355413Y-79856793D01*
X86355412Y-79856793D01*
X86355410Y-79856794D01*
X86355409Y-79856794D01*
X86258468Y-79912764D01*
X86257464Y-79911025D01*
X86208425Y-79928372D01*
X86156369Y-79915142D01*
X86124588Y-79896793D01*
X86090633Y-79887695D01*
X86022727Y-79869500D01*
X85917273Y-79869500D01*
X85815413Y-79896793D01*
X85815412Y-79896793D01*
X85815410Y-79896794D01*
X85815409Y-79896794D01*
X85724089Y-79949518D01*
X85649518Y-80024089D01*
X85596794Y-80115409D01*
X85596794Y-80115410D01*
X85596793Y-80115412D01*
X85596793Y-80115413D01*
X85569500Y-80217273D01*
X68160500Y-80217273D01*
X68160500Y-80154108D01*
X68126392Y-80026814D01*
X68126390Y-80026811D01*
X68126390Y-80026809D01*
X68060503Y-79912690D01*
X68060501Y-79912688D01*
X68060500Y-79912686D01*
X67967314Y-79819500D01*
X67967311Y-79819498D01*
X67967309Y-79819496D01*
X67853189Y-79753609D01*
X67853191Y-79753609D01*
X67789031Y-79736418D01*
X67725892Y-79719500D01*
X67594108Y-79719500D01*
X67530969Y-79736418D01*
X67466809Y-79753609D01*
X67352690Y-79819496D01*
X67259496Y-79912690D01*
X67193609Y-80026809D01*
X67193608Y-80026814D01*
X67159500Y-80154108D01*
X66640500Y-80154108D01*
X66640500Y-76844108D01*
X75979500Y-76844108D01*
X75979500Y-76975892D01*
X75999222Y-77049496D01*
X76013609Y-77103190D01*
X76079496Y-77217309D01*
X76079498Y-77217311D01*
X76079500Y-77217314D01*
X76172686Y-77310500D01*
X76172688Y-77310501D01*
X76172690Y-77310503D01*
X76286810Y-77376390D01*
X76286808Y-77376390D01*
X76286812Y-77376391D01*
X76286814Y-77376392D01*
X76414108Y-77410500D01*
X76414110Y-77410500D01*
X76545890Y-77410500D01*
X76545892Y-77410500D01*
X76673186Y-77376392D01*
X76673188Y-77376390D01*
X76673190Y-77376390D01*
X76787309Y-77310503D01*
X76787309Y-77310502D01*
X76787314Y-77310500D01*
X76880500Y-77217314D01*
X76895690Y-77191004D01*
X81429500Y-77191004D01*
X81429500Y-77928995D01*
X81456420Y-78064327D01*
X81456420Y-78064329D01*
X81509222Y-78191806D01*
X81509228Y-78191817D01*
X81585885Y-78306541D01*
X81683458Y-78404114D01*
X81798182Y-78480771D01*
X81798193Y-78480777D01*
X81805359Y-78483745D01*
X81925672Y-78533580D01*
X81982939Y-78544971D01*
X82036323Y-78574868D01*
X82061939Y-78630433D01*
X82059252Y-78667691D01*
X82047879Y-78710135D01*
X82042923Y-78747784D01*
X82042922Y-78747790D01*
X82042922Y-78852210D01*
X82047880Y-78889868D01*
X82059277Y-78932402D01*
X82074907Y-78990736D01*
X82089438Y-79025818D01*
X82141657Y-79116263D01*
X82164768Y-79146381D01*
X82164771Y-79146384D01*
X82164775Y-79146389D01*
X82238611Y-79220225D01*
X82238615Y-79220228D01*
X82238618Y-79220231D01*
X82268736Y-79243342D01*
X82268740Y-79243344D01*
X82268745Y-79243348D01*
X82359177Y-79295559D01*
X82359178Y-79295559D01*
X82359181Y-79295561D01*
X82394263Y-79310092D01*
X82394266Y-79310092D01*
X82394269Y-79310094D01*
X82495132Y-79337120D01*
X82532790Y-79342078D01*
X82532791Y-79342078D01*
X82637209Y-79342078D01*
X82637210Y-79342078D01*
X82674868Y-79337120D01*
X82775731Y-79310094D01*
X82810823Y-79295559D01*
X82901255Y-79243348D01*
X82931389Y-79220225D01*
X83005225Y-79146389D01*
X83016786Y-79131322D01*
X83028342Y-79116263D01*
X83028342Y-79116262D01*
X83028348Y-79116255D01*
X83080559Y-79025823D01*
X83095094Y-78990731D01*
X83122120Y-78889868D01*
X83127078Y-78852210D01*
X83127078Y-78747790D01*
X83123064Y-78717303D01*
X83134213Y-78657144D01*
X83178595Y-78615027D01*
X83239257Y-78607040D01*
X83260425Y-78614850D01*
X83260816Y-78613908D01*
X83266808Y-78616390D01*
X83266812Y-78616391D01*
X83266814Y-78616392D01*
X83394108Y-78650500D01*
X83394110Y-78650500D01*
X83525890Y-78650500D01*
X83525892Y-78650500D01*
X83653186Y-78616392D01*
X83653188Y-78616390D01*
X83653190Y-78616390D01*
X83767309Y-78550503D01*
X83767309Y-78550502D01*
X83767314Y-78550500D01*
X83860500Y-78457314D01*
X83862638Y-78453611D01*
X83926390Y-78343190D01*
X83926390Y-78343188D01*
X83926392Y-78343186D01*
X83960500Y-78215892D01*
X83960500Y-78084108D01*
X83950402Y-78046421D01*
X83953604Y-77985323D01*
X83992110Y-77937773D01*
X84020403Y-77925175D01*
X84053186Y-77916392D01*
X84167314Y-77850500D01*
X84189998Y-77827815D01*
X84244513Y-77800040D01*
X84304945Y-77809611D01*
X84330000Y-77827814D01*
X84352686Y-77850500D01*
X84352688Y-77850501D01*
X84352690Y-77850503D01*
X84466810Y-77916390D01*
X84466811Y-77916390D01*
X84466814Y-77916392D01*
X84499593Y-77925175D01*
X84550907Y-77958497D01*
X84572834Y-78015618D01*
X84569597Y-78046422D01*
X84559500Y-78084105D01*
X84559500Y-78084108D01*
X84559500Y-78215892D01*
X84583789Y-78306541D01*
X84593609Y-78343190D01*
X84659496Y-78457309D01*
X84659498Y-78457311D01*
X84659500Y-78457314D01*
X84752686Y-78550500D01*
X84752688Y-78550501D01*
X84752690Y-78550503D01*
X84866810Y-78616390D01*
X84866808Y-78616390D01*
X84866812Y-78616391D01*
X84866814Y-78616392D01*
X84994108Y-78650500D01*
X84994110Y-78650500D01*
X85125890Y-78650500D01*
X85125892Y-78650500D01*
X85253186Y-78616392D01*
X85253188Y-78616390D01*
X85253190Y-78616390D01*
X85367309Y-78550503D01*
X85367309Y-78550502D01*
X85367314Y-78550500D01*
X85389998Y-78527815D01*
X85444513Y-78500040D01*
X85504945Y-78509611D01*
X85530000Y-78527814D01*
X85552686Y-78550500D01*
X85552688Y-78550501D01*
X85552690Y-78550503D01*
X85666810Y-78616390D01*
X85666808Y-78616390D01*
X85666812Y-78616391D01*
X85666814Y-78616392D01*
X85794108Y-78650500D01*
X85794110Y-78650500D01*
X85925890Y-78650500D01*
X85925892Y-78650500D01*
X86053186Y-78616392D01*
X86053188Y-78616390D01*
X86053190Y-78616390D01*
X86167309Y-78550503D01*
X86167309Y-78550502D01*
X86167314Y-78550500D01*
X86189998Y-78527815D01*
X86244513Y-78500040D01*
X86304945Y-78509611D01*
X86330000Y-78527814D01*
X86352686Y-78550500D01*
X86352688Y-78550501D01*
X86352690Y-78550503D01*
X86466810Y-78616390D01*
X86466808Y-78616390D01*
X86466812Y-78616391D01*
X86466814Y-78616392D01*
X86594108Y-78650500D01*
X86594110Y-78650500D01*
X86725890Y-78650500D01*
X86725892Y-78650500D01*
X86853186Y-78616392D01*
X86853188Y-78616390D01*
X86853190Y-78616390D01*
X86967309Y-78550503D01*
X86967309Y-78550502D01*
X86967314Y-78550500D01*
X86989998Y-78527815D01*
X87044513Y-78500040D01*
X87104945Y-78509611D01*
X87130000Y-78527814D01*
X87152686Y-78550500D01*
X87152688Y-78550501D01*
X87152690Y-78550503D01*
X87266810Y-78616390D01*
X87266808Y-78616390D01*
X87266812Y-78616391D01*
X87266814Y-78616392D01*
X87394108Y-78650500D01*
X87394110Y-78650500D01*
X87525890Y-78650500D01*
X87525892Y-78650500D01*
X87653186Y-78616392D01*
X87653188Y-78616390D01*
X87653190Y-78616390D01*
X87767309Y-78550503D01*
X87767309Y-78550502D01*
X87767314Y-78550500D01*
X87860500Y-78457314D01*
X87862638Y-78453611D01*
X87926390Y-78343190D01*
X87926390Y-78343188D01*
X87926392Y-78343186D01*
X87960500Y-78215892D01*
X87960500Y-78084108D01*
X87950402Y-78046421D01*
X87953604Y-77985323D01*
X87992110Y-77937773D01*
X88020403Y-77925175D01*
X88053186Y-77916392D01*
X88167314Y-77850500D01*
X88189998Y-77827815D01*
X88244513Y-77800040D01*
X88304945Y-77809611D01*
X88330000Y-77827814D01*
X88352686Y-77850500D01*
X88352688Y-77850501D01*
X88352690Y-77850503D01*
X88466810Y-77916390D01*
X88466811Y-77916390D01*
X88466814Y-77916392D01*
X88499593Y-77925175D01*
X88550907Y-77958497D01*
X88572834Y-78015618D01*
X88569597Y-78046422D01*
X88559500Y-78084105D01*
X88559500Y-78084108D01*
X88559500Y-78215892D01*
X88583789Y-78306541D01*
X88593609Y-78343190D01*
X88659496Y-78457309D01*
X88659498Y-78457311D01*
X88659500Y-78457314D01*
X88752686Y-78550500D01*
X88752688Y-78550501D01*
X88752690Y-78550503D01*
X88866810Y-78616390D01*
X88866808Y-78616390D01*
X88866812Y-78616391D01*
X88866814Y-78616392D01*
X88994108Y-78650500D01*
X88994110Y-78650500D01*
X89125890Y-78650500D01*
X89125892Y-78650500D01*
X89253186Y-78616392D01*
X89253188Y-78616390D01*
X89253191Y-78616390D01*
X89259184Y-78613908D01*
X89260189Y-78616334D01*
X89309094Y-78605921D01*
X89364999Y-78630786D01*
X89395611Y-78683763D01*
X89396935Y-78717302D01*
X89392922Y-78747784D01*
X89392922Y-78747789D01*
X89392922Y-78747790D01*
X89392922Y-78852210D01*
X89397880Y-78889868D01*
X89409277Y-78932402D01*
X89424907Y-78990736D01*
X89439438Y-79025818D01*
X89491657Y-79116263D01*
X89514768Y-79146381D01*
X89514771Y-79146384D01*
X89514775Y-79146389D01*
X89588611Y-79220225D01*
X89588615Y-79220228D01*
X89588618Y-79220231D01*
X89618736Y-79243342D01*
X89618740Y-79243344D01*
X89618745Y-79243348D01*
X89709177Y-79295559D01*
X89709178Y-79295559D01*
X89709181Y-79295561D01*
X89744263Y-79310092D01*
X89744266Y-79310092D01*
X89744269Y-79310094D01*
X89845132Y-79337120D01*
X89882790Y-79342078D01*
X89882791Y-79342078D01*
X89987209Y-79342078D01*
X89987210Y-79342078D01*
X90024868Y-79337120D01*
X90064383Y-79326532D01*
X101109500Y-79326532D01*
X101109500Y-79533467D01*
X101149869Y-79736418D01*
X101229058Y-79927597D01*
X101327822Y-80075409D01*
X101344023Y-80099655D01*
X101490345Y-80245977D01*
X101662402Y-80360941D01*
X101853580Y-80440130D01*
X102056535Y-80480500D01*
X102056536Y-80480500D01*
X102263464Y-80480500D01*
X102263465Y-80480500D01*
X102466420Y-80440130D01*
X102657598Y-80360941D01*
X102829655Y-80245977D01*
X102975977Y-80099655D01*
X103090941Y-79927598D01*
X103170130Y-79736420D01*
X103210500Y-79533465D01*
X103210500Y-79326535D01*
X103210499Y-79326532D01*
X103649500Y-79326532D01*
X103649500Y-79533467D01*
X103689869Y-79736418D01*
X103769058Y-79927597D01*
X103867822Y-80075409D01*
X103884023Y-80099655D01*
X104030345Y-80245977D01*
X104202402Y-80360941D01*
X104393580Y-80440130D01*
X104596535Y-80480500D01*
X104596536Y-80480500D01*
X104803464Y-80480500D01*
X104803465Y-80480500D01*
X105006420Y-80440130D01*
X105197598Y-80360941D01*
X105369655Y-80245977D01*
X105515977Y-80099655D01*
X105630941Y-79927598D01*
X105710130Y-79736420D01*
X105750500Y-79533465D01*
X105750500Y-79326535D01*
X105710130Y-79123580D01*
X105630941Y-78932402D01*
X105515977Y-78760345D01*
X105369655Y-78614023D01*
X105369483Y-78613908D01*
X105197597Y-78499058D01*
X105006418Y-78419869D01*
X104803467Y-78379500D01*
X104803465Y-78379500D01*
X104596535Y-78379500D01*
X104596532Y-78379500D01*
X104393581Y-78419869D01*
X104202402Y-78499058D01*
X104030348Y-78614020D01*
X103884020Y-78760348D01*
X103769058Y-78932402D01*
X103689869Y-79123581D01*
X103649500Y-79326532D01*
X103210499Y-79326532D01*
X103170130Y-79123580D01*
X103090941Y-78932402D01*
X102975977Y-78760345D01*
X102829655Y-78614023D01*
X102829483Y-78613908D01*
X102657597Y-78499058D01*
X102466418Y-78419869D01*
X102263467Y-78379500D01*
X102263465Y-78379500D01*
X102056535Y-78379500D01*
X102056532Y-78379500D01*
X101853581Y-78419869D01*
X101662402Y-78499058D01*
X101490348Y-78614020D01*
X101344020Y-78760348D01*
X101229058Y-78932402D01*
X101149869Y-79123581D01*
X101109500Y-79326532D01*
X90064383Y-79326532D01*
X90125731Y-79310094D01*
X90160823Y-79295559D01*
X90251255Y-79243348D01*
X90251263Y-79243342D01*
X90251539Y-79243131D01*
X90251540Y-79243130D01*
X90265046Y-79232765D01*
X90281389Y-79220225D01*
X90355225Y-79146389D01*
X90366786Y-79131322D01*
X90378342Y-79116263D01*
X90378342Y-79116262D01*
X90378348Y-79116255D01*
X90430559Y-79025823D01*
X90445094Y-78990731D01*
X90472120Y-78889868D01*
X90477078Y-78852210D01*
X90477078Y-78747790D01*
X90472120Y-78710132D01*
X90460748Y-78667691D01*
X90463949Y-78606592D01*
X90502454Y-78559041D01*
X90537058Y-78544971D01*
X90594328Y-78533580D01*
X90721811Y-78480775D01*
X90836542Y-78404114D01*
X90934114Y-78306542D01*
X91010775Y-78191811D01*
X91063580Y-78064328D01*
X91090500Y-77928993D01*
X91090500Y-77191007D01*
X91063580Y-77055672D01*
X91030533Y-76975890D01*
X91010777Y-76928193D01*
X91010771Y-76928182D01*
X90934114Y-76813458D01*
X90836541Y-76715885D01*
X90721817Y-76639228D01*
X90721806Y-76639222D01*
X90594328Y-76586420D01*
X90458995Y-76559500D01*
X90458993Y-76559500D01*
X90321007Y-76559500D01*
X90321004Y-76559500D01*
X90185672Y-76586420D01*
X90185670Y-76586420D01*
X90058193Y-76639222D01*
X90058182Y-76639228D01*
X89943458Y-76715885D01*
X89845885Y-76813458D01*
X89769228Y-76928182D01*
X89769222Y-76928193D01*
X89716420Y-77055670D01*
X89716420Y-77055672D01*
X89689500Y-77191004D01*
X89689500Y-77869851D01*
X89670593Y-77928042D01*
X89621093Y-77964006D01*
X89559907Y-77964006D01*
X89510407Y-77928042D01*
X89504764Y-77919352D01*
X89460501Y-77842688D01*
X89460500Y-77842686D01*
X89367314Y-77749500D01*
X89367311Y-77749498D01*
X89367309Y-77749496D01*
X89253189Y-77683609D01*
X89253190Y-77683609D01*
X89246702Y-77681870D01*
X89220405Y-77674824D01*
X89169091Y-77641500D01*
X89147165Y-77584379D01*
X89150403Y-77553574D01*
X89160499Y-77515894D01*
X89160500Y-77515891D01*
X89160500Y-77384109D01*
X89160500Y-77384108D01*
X89126392Y-77256814D01*
X89126390Y-77256811D01*
X89126390Y-77256809D01*
X89060503Y-77142690D01*
X89060501Y-77142688D01*
X89060500Y-77142686D01*
X88967314Y-77049500D01*
X88967311Y-77049498D01*
X88967309Y-77049496D01*
X88853189Y-76983609D01*
X88853191Y-76983609D01*
X88803799Y-76970375D01*
X88725892Y-76949500D01*
X88594108Y-76949500D01*
X88516200Y-76970375D01*
X88466809Y-76983609D01*
X88352690Y-77049496D01*
X88352684Y-77049501D01*
X88330002Y-77072183D01*
X88275485Y-77099959D01*
X88215053Y-77090387D01*
X88189998Y-77072183D01*
X88167315Y-77049501D01*
X88167309Y-77049496D01*
X88053189Y-76983609D01*
X88053191Y-76983609D01*
X88003799Y-76970375D01*
X87925892Y-76949500D01*
X87794108Y-76949500D01*
X87716200Y-76970375D01*
X87666809Y-76983609D01*
X87552690Y-77049496D01*
X87552684Y-77049501D01*
X87530002Y-77072183D01*
X87475485Y-77099959D01*
X87415053Y-77090387D01*
X87389998Y-77072183D01*
X87367315Y-77049501D01*
X87367309Y-77049496D01*
X87253189Y-76983609D01*
X87253191Y-76983609D01*
X87203799Y-76970375D01*
X87125892Y-76949500D01*
X86994108Y-76949500D01*
X86916200Y-76970375D01*
X86866809Y-76983609D01*
X86752690Y-77049496D01*
X86659496Y-77142690D01*
X86593609Y-77256809D01*
X86593608Y-77256814D01*
X86561568Y-77376392D01*
X86559500Y-77384109D01*
X86559500Y-77515891D01*
X86569597Y-77553576D01*
X86566394Y-77614678D01*
X86527888Y-77662227D01*
X86499594Y-77674824D01*
X86466814Y-77683607D01*
X86466810Y-77683609D01*
X86352690Y-77749496D01*
X86352684Y-77749501D01*
X86330002Y-77772183D01*
X86275485Y-77799959D01*
X86215053Y-77790387D01*
X86189998Y-77772183D01*
X86167315Y-77749501D01*
X86167309Y-77749496D01*
X86053189Y-77683609D01*
X86053190Y-77683609D01*
X86046702Y-77681870D01*
X86020405Y-77674824D01*
X85969091Y-77641500D01*
X85947165Y-77584379D01*
X85950403Y-77553574D01*
X85960499Y-77515894D01*
X85960500Y-77515891D01*
X85960500Y-77384109D01*
X85960500Y-77384108D01*
X85926392Y-77256814D01*
X85926390Y-77256811D01*
X85926390Y-77256809D01*
X85860503Y-77142690D01*
X85860501Y-77142688D01*
X85860500Y-77142686D01*
X85767314Y-77049500D01*
X85767311Y-77049498D01*
X85767309Y-77049496D01*
X85653189Y-76983609D01*
X85653191Y-76983609D01*
X85603799Y-76970375D01*
X85525892Y-76949500D01*
X85394108Y-76949500D01*
X85316200Y-76970375D01*
X85266809Y-76983609D01*
X85152690Y-77049496D01*
X85152684Y-77049501D01*
X85130002Y-77072183D01*
X85075485Y-77099959D01*
X85015053Y-77090387D01*
X84989998Y-77072183D01*
X84967315Y-77049501D01*
X84967309Y-77049496D01*
X84853189Y-76983609D01*
X84853191Y-76983609D01*
X84803799Y-76970375D01*
X84725892Y-76949500D01*
X84594108Y-76949500D01*
X84516200Y-76970375D01*
X84466809Y-76983609D01*
X84352690Y-77049496D01*
X84352684Y-77049501D01*
X84330002Y-77072183D01*
X84275485Y-77099959D01*
X84215053Y-77090387D01*
X84189998Y-77072183D01*
X84167315Y-77049501D01*
X84167309Y-77049496D01*
X84053189Y-76983609D01*
X84053191Y-76983609D01*
X84003799Y-76970375D01*
X83925892Y-76949500D01*
X83794108Y-76949500D01*
X83716200Y-76970375D01*
X83666809Y-76983609D01*
X83552690Y-77049496D01*
X83459496Y-77142690D01*
X83393609Y-77256809D01*
X83393608Y-77256814D01*
X83361568Y-77376392D01*
X83359500Y-77384109D01*
X83359500Y-77515891D01*
X83369597Y-77553576D01*
X83366394Y-77614678D01*
X83327888Y-77662227D01*
X83299594Y-77674824D01*
X83266814Y-77683607D01*
X83266810Y-77683609D01*
X83152690Y-77749496D01*
X83059498Y-77842688D01*
X83015236Y-77919352D01*
X82969766Y-77960292D01*
X82908916Y-77966687D01*
X82855928Y-77936094D01*
X82831042Y-77880199D01*
X82830500Y-77869851D01*
X82830500Y-77191008D01*
X82830499Y-77191004D01*
X82803580Y-77055672D01*
X82770533Y-76975890D01*
X82750777Y-76928193D01*
X82750771Y-76928182D01*
X82674114Y-76813458D01*
X82576541Y-76715885D01*
X82461817Y-76639228D01*
X82461806Y-76639222D01*
X82334328Y-76586420D01*
X82198995Y-76559500D01*
X82198993Y-76559500D01*
X82061007Y-76559500D01*
X82061004Y-76559500D01*
X81925672Y-76586420D01*
X81925670Y-76586420D01*
X81798193Y-76639222D01*
X81798182Y-76639228D01*
X81683458Y-76715885D01*
X81585885Y-76813458D01*
X81509228Y-76928182D01*
X81509222Y-76928193D01*
X81456420Y-77055670D01*
X81456420Y-77055672D01*
X81429500Y-77191004D01*
X76895690Y-77191004D01*
X76946392Y-77103186D01*
X76980500Y-76975892D01*
X76980500Y-76844108D01*
X76946392Y-76716814D01*
X76946390Y-76716811D01*
X76946390Y-76716809D01*
X76880503Y-76602690D01*
X76880501Y-76602688D01*
X76880500Y-76602686D01*
X76787314Y-76509500D01*
X76787311Y-76509498D01*
X76787309Y-76509496D01*
X76673189Y-76443609D01*
X76673191Y-76443609D01*
X76623799Y-76430375D01*
X76545892Y-76409500D01*
X76414108Y-76409500D01*
X76336200Y-76430375D01*
X76286809Y-76443609D01*
X76172690Y-76509496D01*
X76079496Y-76602690D01*
X76013609Y-76716809D01*
X76013608Y-76716814D01*
X75979500Y-76844108D01*
X66640500Y-76844108D01*
X66640500Y-76020253D01*
X101109500Y-76020253D01*
X101109500Y-77759746D01*
X101109501Y-77759758D01*
X101121132Y-77818227D01*
X101121134Y-77818233D01*
X101155625Y-77869851D01*
X101165448Y-77884552D01*
X101231769Y-77928867D01*
X101268102Y-77936094D01*
X101290241Y-77940498D01*
X101290246Y-77940498D01*
X101290252Y-77940500D01*
X101290253Y-77940500D01*
X103029747Y-77940500D01*
X103029748Y-77940500D01*
X103088231Y-77928867D01*
X103154552Y-77884552D01*
X103198867Y-77818231D01*
X103210500Y-77759748D01*
X103210500Y-76786532D01*
X103649500Y-76786532D01*
X103649500Y-76993467D01*
X103689869Y-77196418D01*
X103769058Y-77387597D01*
X103854783Y-77515894D01*
X103884023Y-77559655D01*
X104030345Y-77705977D01*
X104202402Y-77820941D01*
X104393580Y-77900130D01*
X104596535Y-77940500D01*
X104596536Y-77940500D01*
X104803464Y-77940500D01*
X104803465Y-77940500D01*
X105006420Y-77900130D01*
X105197598Y-77820941D01*
X105369655Y-77705977D01*
X105515977Y-77559655D01*
X105630941Y-77387598D01*
X105710130Y-77196420D01*
X105750500Y-76993465D01*
X105750500Y-76786535D01*
X105710130Y-76583580D01*
X105630941Y-76392402D01*
X105515977Y-76220345D01*
X105369655Y-76074023D01*
X105289182Y-76020253D01*
X105197597Y-75959058D01*
X105006418Y-75879869D01*
X104803467Y-75839500D01*
X104803465Y-75839500D01*
X104596535Y-75839500D01*
X104596532Y-75839500D01*
X104393581Y-75879869D01*
X104202402Y-75959058D01*
X104030348Y-76074020D01*
X103884020Y-76220348D01*
X103769058Y-76392402D01*
X103689869Y-76583581D01*
X103649500Y-76786532D01*
X103210500Y-76786532D01*
X103210500Y-76020252D01*
X103198867Y-75961769D01*
X103154552Y-75895448D01*
X103154548Y-75895445D01*
X103088233Y-75851134D01*
X103088231Y-75851133D01*
X103088228Y-75851132D01*
X103088227Y-75851132D01*
X103029758Y-75839501D01*
X103029748Y-75839500D01*
X101290252Y-75839500D01*
X101290251Y-75839500D01*
X101290241Y-75839501D01*
X101231772Y-75851132D01*
X101231766Y-75851134D01*
X101165451Y-75895445D01*
X101165445Y-75895451D01*
X101121134Y-75961766D01*
X101121132Y-75961772D01*
X101109501Y-76020241D01*
X101109500Y-76020253D01*
X66640500Y-76020253D01*
X66640500Y-75144108D01*
X95979500Y-75144108D01*
X95979500Y-75275892D01*
X96002890Y-75363186D01*
X96013609Y-75403190D01*
X96079496Y-75517309D01*
X96079498Y-75517311D01*
X96079500Y-75517314D01*
X96172686Y-75610500D01*
X96172688Y-75610501D01*
X96172690Y-75610503D01*
X96286810Y-75676390D01*
X96286808Y-75676390D01*
X96286812Y-75676391D01*
X96286814Y-75676392D01*
X96414108Y-75710500D01*
X96414110Y-75710500D01*
X96545890Y-75710500D01*
X96545892Y-75710500D01*
X96673186Y-75676392D01*
X96673188Y-75676390D01*
X96673190Y-75676390D01*
X96787309Y-75610503D01*
X96787309Y-75610502D01*
X96787314Y-75610500D01*
X96880500Y-75517314D01*
X96946392Y-75403186D01*
X96980500Y-75275892D01*
X96980500Y-75144108D01*
X96969782Y-75104108D01*
X103239500Y-75104108D01*
X103239500Y-75235892D01*
X103250218Y-75275892D01*
X103273609Y-75363190D01*
X103339496Y-75477309D01*
X103339498Y-75477311D01*
X103339500Y-75477314D01*
X103432686Y-75570500D01*
X103432688Y-75570501D01*
X103432690Y-75570503D01*
X103546810Y-75636390D01*
X103546808Y-75636390D01*
X103546812Y-75636391D01*
X103546814Y-75636392D01*
X103674108Y-75670500D01*
X103674110Y-75670500D01*
X103805890Y-75670500D01*
X103805892Y-75670500D01*
X103933186Y-75636392D01*
X103933188Y-75636390D01*
X103933190Y-75636390D01*
X104047309Y-75570503D01*
X104047309Y-75570502D01*
X104047314Y-75570500D01*
X104140500Y-75477314D01*
X104206392Y-75363186D01*
X104240500Y-75235892D01*
X104240500Y-75104108D01*
X104206392Y-74976814D01*
X104206390Y-74976811D01*
X104206390Y-74976809D01*
X104140503Y-74862690D01*
X104140501Y-74862688D01*
X104140500Y-74862686D01*
X104047314Y-74769500D01*
X104047311Y-74769498D01*
X104047309Y-74769496D01*
X103933189Y-74703609D01*
X103933191Y-74703609D01*
X103883799Y-74690375D01*
X103805892Y-74669500D01*
X103674108Y-74669500D01*
X103596200Y-74690375D01*
X103546809Y-74703609D01*
X103432690Y-74769496D01*
X103339496Y-74862690D01*
X103273609Y-74976809D01*
X103273608Y-74976814D01*
X103239500Y-75104108D01*
X96969782Y-75104108D01*
X96946392Y-75016814D01*
X96946390Y-75016811D01*
X96946390Y-75016809D01*
X96880503Y-74902690D01*
X96880501Y-74902688D01*
X96880500Y-74902686D01*
X96787314Y-74809500D01*
X96787311Y-74809498D01*
X96787309Y-74809496D01*
X96673189Y-74743609D01*
X96673191Y-74743609D01*
X96623799Y-74730375D01*
X96545892Y-74709500D01*
X96414108Y-74709500D01*
X96336200Y-74730375D01*
X96286809Y-74743609D01*
X96172690Y-74809496D01*
X96079496Y-74902690D01*
X96013609Y-75016809D01*
X96013608Y-75016814D01*
X95979500Y-75144108D01*
X66640500Y-75144108D01*
X66640500Y-73984108D01*
X76129500Y-73984108D01*
X76129500Y-74115892D01*
X76131560Y-74123579D01*
X76163609Y-74243190D01*
X76229496Y-74357309D01*
X76229498Y-74357311D01*
X76229500Y-74357314D01*
X76322686Y-74450500D01*
X76322688Y-74450501D01*
X76322690Y-74450503D01*
X76436810Y-74516390D01*
X76436808Y-74516390D01*
X76436812Y-74516391D01*
X76436814Y-74516392D01*
X76564108Y-74550500D01*
X76564110Y-74550500D01*
X76695890Y-74550500D01*
X76695892Y-74550500D01*
X76823186Y-74516392D01*
X76823188Y-74516390D01*
X76823190Y-74516390D01*
X76937309Y-74450503D01*
X76937309Y-74450502D01*
X76937314Y-74450500D01*
X77030500Y-74357314D01*
X77030503Y-74357309D01*
X77061219Y-74304108D01*
X101589500Y-74304108D01*
X101589500Y-74435892D01*
X101593415Y-74450503D01*
X101623609Y-74563190D01*
X101689496Y-74677309D01*
X101689498Y-74677311D01*
X101689500Y-74677314D01*
X101782686Y-74770500D01*
X101782688Y-74770501D01*
X101782690Y-74770503D01*
X101896810Y-74836390D01*
X101896808Y-74836390D01*
X101896812Y-74836391D01*
X101896814Y-74836392D01*
X102024108Y-74870500D01*
X102024110Y-74870500D01*
X102155890Y-74870500D01*
X102155892Y-74870500D01*
X102283186Y-74836392D01*
X102283188Y-74836390D01*
X102283190Y-74836390D01*
X102397309Y-74770503D01*
X102397309Y-74770502D01*
X102397314Y-74770500D01*
X102490500Y-74677314D01*
X102490503Y-74677309D01*
X102556390Y-74563190D01*
X102556390Y-74563188D01*
X102556392Y-74563186D01*
X102590500Y-74435892D01*
X102590500Y-74304108D01*
X102556392Y-74176814D01*
X102556390Y-74176811D01*
X102556390Y-74176809D01*
X102490503Y-74062690D01*
X102490501Y-74062688D01*
X102490500Y-74062686D01*
X102397314Y-73969500D01*
X102397311Y-73969498D01*
X102397309Y-73969496D01*
X102283189Y-73903609D01*
X102283191Y-73903609D01*
X102233799Y-73890375D01*
X102155892Y-73869500D01*
X102024108Y-73869500D01*
X101946200Y-73890375D01*
X101896809Y-73903609D01*
X101782690Y-73969496D01*
X101689496Y-74062690D01*
X101623609Y-74176809D01*
X101623608Y-74176814D01*
X101589500Y-74304108D01*
X77061219Y-74304108D01*
X77093545Y-74248119D01*
X77095822Y-74244171D01*
X77096392Y-74243186D01*
X77130500Y-74115892D01*
X77130500Y-73984108D01*
X77096392Y-73856814D01*
X77096390Y-73856811D01*
X77096390Y-73856809D01*
X77030503Y-73742690D01*
X77030501Y-73742688D01*
X77030500Y-73742686D01*
X76937314Y-73649500D01*
X76937311Y-73649498D01*
X76937309Y-73649496D01*
X76823189Y-73583609D01*
X76823191Y-73583609D01*
X76773799Y-73570375D01*
X76695892Y-73549500D01*
X76564108Y-73549500D01*
X76486200Y-73570375D01*
X76436809Y-73583609D01*
X76322690Y-73649496D01*
X76229496Y-73742690D01*
X76163609Y-73856809D01*
X76163608Y-73856814D01*
X76129500Y-73984108D01*
X66640500Y-73984108D01*
X66640500Y-72394108D01*
X78559500Y-72394108D01*
X78559500Y-72525892D01*
X78587261Y-72629500D01*
X78593609Y-72653190D01*
X78659496Y-72767309D01*
X78659498Y-72767311D01*
X78659500Y-72767314D01*
X78752686Y-72860500D01*
X78752688Y-72860501D01*
X78752690Y-72860503D01*
X78866810Y-72926390D01*
X78866808Y-72926390D01*
X78866812Y-72926391D01*
X78866814Y-72926392D01*
X78994108Y-72960500D01*
X78994110Y-72960500D01*
X79125890Y-72960500D01*
X79125892Y-72960500D01*
X79253186Y-72926392D01*
X79253188Y-72926390D01*
X79253190Y-72926390D01*
X79367309Y-72860503D01*
X79367309Y-72860502D01*
X79367314Y-72860500D01*
X79446810Y-72781004D01*
X81069500Y-72781004D01*
X81069500Y-73518995D01*
X81096420Y-73654327D01*
X81096420Y-73654329D01*
X81149222Y-73781806D01*
X81149228Y-73781817D01*
X81225885Y-73896541D01*
X81323458Y-73994114D01*
X81438182Y-74070771D01*
X81438193Y-74070777D01*
X81485283Y-74090282D01*
X81565672Y-74123580D01*
X81701007Y-74150500D01*
X81701008Y-74150500D01*
X81838992Y-74150500D01*
X81838993Y-74150500D01*
X81974328Y-74123580D01*
X82101811Y-74070775D01*
X82216542Y-73994114D01*
X82314114Y-73896542D01*
X82390775Y-73781811D01*
X82443580Y-73654328D01*
X82470500Y-73518993D01*
X82470500Y-72781007D01*
X82470499Y-72781004D01*
X90049500Y-72781004D01*
X90049500Y-73518995D01*
X90076420Y-73654327D01*
X90076420Y-73654329D01*
X90129222Y-73781806D01*
X90129228Y-73781817D01*
X90205885Y-73896541D01*
X90303458Y-73994114D01*
X90418182Y-74070771D01*
X90418193Y-74070777D01*
X90465283Y-74090282D01*
X90545672Y-74123580D01*
X90681007Y-74150500D01*
X90681008Y-74150500D01*
X90818992Y-74150500D01*
X90818993Y-74150500D01*
X90954328Y-74123580D01*
X91081811Y-74070775D01*
X91196542Y-73994114D01*
X91294114Y-73896542D01*
X91370775Y-73781811D01*
X91423580Y-73654328D01*
X91450500Y-73518993D01*
X91450500Y-73064108D01*
X104309500Y-73064108D01*
X104309500Y-73195892D01*
X104339579Y-73308151D01*
X104343609Y-73323190D01*
X104409496Y-73437309D01*
X104409498Y-73437311D01*
X104409500Y-73437314D01*
X104502686Y-73530500D01*
X104502688Y-73530501D01*
X104502690Y-73530503D01*
X104616810Y-73596390D01*
X104616808Y-73596390D01*
X104616812Y-73596391D01*
X104616814Y-73596392D01*
X104744108Y-73630500D01*
X104744110Y-73630500D01*
X104875890Y-73630500D01*
X104875892Y-73630500D01*
X105003186Y-73596392D01*
X105003188Y-73596390D01*
X105003190Y-73596390D01*
X105117309Y-73530503D01*
X105117309Y-73530502D01*
X105117314Y-73530500D01*
X105210500Y-73437314D01*
X105276392Y-73323186D01*
X105310500Y-73195892D01*
X105310500Y-73064108D01*
X105276392Y-72936814D01*
X105276390Y-72936811D01*
X105276390Y-72936809D01*
X105210503Y-72822690D01*
X105210501Y-72822688D01*
X105210500Y-72822686D01*
X105117314Y-72729500D01*
X105117311Y-72729498D01*
X105117309Y-72729496D01*
X105003189Y-72663609D01*
X105003191Y-72663609D01*
X104936247Y-72645672D01*
X104875892Y-72629500D01*
X104744108Y-72629500D01*
X104683753Y-72645672D01*
X104616809Y-72663609D01*
X104502690Y-72729496D01*
X104409496Y-72822690D01*
X104343609Y-72936809D01*
X104343608Y-72936814D01*
X104309500Y-73064108D01*
X91450500Y-73064108D01*
X91450500Y-72781007D01*
X91423580Y-72645672D01*
X91370775Y-72518189D01*
X91370774Y-72518187D01*
X91370771Y-72518182D01*
X91294114Y-72403458D01*
X91196541Y-72305885D01*
X91081817Y-72229228D01*
X91081806Y-72229222D01*
X91033184Y-72209083D01*
X90954328Y-72176420D01*
X90818995Y-72149500D01*
X90818993Y-72149500D01*
X90681007Y-72149500D01*
X90681004Y-72149500D01*
X90545672Y-72176420D01*
X90545670Y-72176420D01*
X90418193Y-72229222D01*
X90418182Y-72229228D01*
X90303458Y-72305885D01*
X90205885Y-72403458D01*
X90129228Y-72518182D01*
X90129222Y-72518193D01*
X90076420Y-72645670D01*
X90076420Y-72645672D01*
X90049500Y-72781004D01*
X82470499Y-72781004D01*
X82443580Y-72645672D01*
X82390775Y-72518189D01*
X82390774Y-72518187D01*
X82390771Y-72518182D01*
X82314114Y-72403458D01*
X82216541Y-72305885D01*
X82101817Y-72229228D01*
X82101806Y-72229222D01*
X81974328Y-72176420D01*
X81838995Y-72149500D01*
X81838993Y-72149500D01*
X81701007Y-72149500D01*
X81701004Y-72149500D01*
X81565672Y-72176420D01*
X81565670Y-72176420D01*
X81438193Y-72229222D01*
X81438182Y-72229228D01*
X81323458Y-72305885D01*
X81225885Y-72403458D01*
X81149228Y-72518182D01*
X81149222Y-72518193D01*
X81096420Y-72645670D01*
X81096420Y-72645672D01*
X81069500Y-72781004D01*
X79446810Y-72781004D01*
X79460500Y-72767314D01*
X79520375Y-72663609D01*
X79526390Y-72653190D01*
X79526390Y-72653188D01*
X79526392Y-72653186D01*
X79560500Y-72525892D01*
X79560500Y-72394108D01*
X79526392Y-72266814D01*
X79526390Y-72266811D01*
X79526390Y-72266809D01*
X79460503Y-72152690D01*
X79460501Y-72152688D01*
X79460500Y-72152686D01*
X79431922Y-72124108D01*
X99739500Y-72124108D01*
X99739500Y-72255892D01*
X99752896Y-72305886D01*
X99773609Y-72383190D01*
X99839496Y-72497309D01*
X99839498Y-72497311D01*
X99839500Y-72497314D01*
X99932686Y-72590500D01*
X99932688Y-72590501D01*
X99932690Y-72590503D01*
X100046810Y-72656390D01*
X100046808Y-72656390D01*
X100046812Y-72656391D01*
X100046814Y-72656392D01*
X100174108Y-72690500D01*
X100174110Y-72690500D01*
X100305890Y-72690500D01*
X100305892Y-72690500D01*
X100433186Y-72656392D01*
X100433188Y-72656390D01*
X100433190Y-72656390D01*
X100547309Y-72590503D01*
X100547309Y-72590502D01*
X100547314Y-72590500D01*
X100640500Y-72497314D01*
X100706392Y-72383186D01*
X100740500Y-72255892D01*
X100740500Y-72124108D01*
X100706392Y-71996814D01*
X100706390Y-71996811D01*
X100706390Y-71996809D01*
X100640503Y-71882690D01*
X100640501Y-71882688D01*
X100640500Y-71882686D01*
X100547314Y-71789500D01*
X100547311Y-71789498D01*
X100547309Y-71789496D01*
X100433189Y-71723609D01*
X100433191Y-71723609D01*
X100383799Y-71710375D01*
X100305892Y-71689500D01*
X100174108Y-71689500D01*
X100096200Y-71710375D01*
X100046809Y-71723609D01*
X99932690Y-71789496D01*
X99839496Y-71882690D01*
X99773609Y-71996809D01*
X99773608Y-71996814D01*
X99739500Y-72124108D01*
X79431922Y-72124108D01*
X79367314Y-72059500D01*
X79367311Y-72059498D01*
X79367309Y-72059496D01*
X79253189Y-71993609D01*
X79253191Y-71993609D01*
X79203799Y-71980375D01*
X79125892Y-71959500D01*
X78994108Y-71959500D01*
X78916200Y-71980375D01*
X78866809Y-71993609D01*
X78752690Y-72059496D01*
X78659496Y-72152690D01*
X78593609Y-72266809D01*
X78593608Y-72266814D01*
X78559500Y-72394108D01*
X66640500Y-72394108D01*
X66640500Y-70739500D01*
X66659407Y-70681309D01*
X66708907Y-70645345D01*
X66739500Y-70640500D01*
X106260500Y-70640500D01*
X106318691Y-70659407D01*
G37*
%TD.AperFunction*%
%TD*%
M02*
