%TF.GenerationSoftware,KiCad,Pcbnew,9.0.4*%
%TF.CreationDate,2025-09-29T16:36:38+03:00*%
%TF.ProjectId,Asius2,41736975-7332-42e6-9b69-6361645f7063,rev?*%
%TF.SameCoordinates,Original*%
%TF.FileFunction,Legend,Top*%
%TF.FilePolarity,Positive*%
%FSLAX46Y46*%
G04 Gerber Fmt 4.6, Leading zero omitted, Abs format (unit mm)*
G04 Created by KiCad (PCBNEW 9.0.4) date 2025-09-29 16:36:38*
%MOMM*%
%LPD*%
G01*
G04 APERTURE LIST*
%ADD10C,0.150000*%
%ADD11C,0.120000*%
%ADD12C,0.254000*%
%ADD13C,0.127000*%
%ADD14C,0.200000*%
G04 APERTURE END LIST*
D10*
X73289580Y-94512857D02*
X73337200Y-94560476D01*
X73337200Y-94560476D02*
X73384819Y-94703333D01*
X73384819Y-94703333D02*
X73384819Y-94798571D01*
X73384819Y-94798571D02*
X73337200Y-94941428D01*
X73337200Y-94941428D02*
X73241961Y-95036666D01*
X73241961Y-95036666D02*
X73146723Y-95084285D01*
X73146723Y-95084285D02*
X72956247Y-95131904D01*
X72956247Y-95131904D02*
X72813390Y-95131904D01*
X72813390Y-95131904D02*
X72622914Y-95084285D01*
X72622914Y-95084285D02*
X72527676Y-95036666D01*
X72527676Y-95036666D02*
X72432438Y-94941428D01*
X72432438Y-94941428D02*
X72384819Y-94798571D01*
X72384819Y-94798571D02*
X72384819Y-94703333D01*
X72384819Y-94703333D02*
X72432438Y-94560476D01*
X72432438Y-94560476D02*
X72480057Y-94512857D01*
X73384819Y-93560476D02*
X73384819Y-94131904D01*
X73384819Y-93846190D02*
X72384819Y-93846190D01*
X72384819Y-93846190D02*
X72527676Y-93941428D01*
X72527676Y-93941428D02*
X72622914Y-94036666D01*
X72622914Y-94036666D02*
X72670533Y-94131904D01*
X72384819Y-92655714D02*
X72384819Y-93131904D01*
X72384819Y-93131904D02*
X72861009Y-93179523D01*
X72861009Y-93179523D02*
X72813390Y-93131904D01*
X72813390Y-93131904D02*
X72765771Y-93036666D01*
X72765771Y-93036666D02*
X72765771Y-92798571D01*
X72765771Y-92798571D02*
X72813390Y-92703333D01*
X72813390Y-92703333D02*
X72861009Y-92655714D01*
X72861009Y-92655714D02*
X72956247Y-92608095D01*
X72956247Y-92608095D02*
X73194342Y-92608095D01*
X73194342Y-92608095D02*
X73289580Y-92655714D01*
X73289580Y-92655714D02*
X73337200Y-92703333D01*
X73337200Y-92703333D02*
X73384819Y-92798571D01*
X73384819Y-92798571D02*
X73384819Y-93036666D01*
X73384819Y-93036666D02*
X73337200Y-93131904D01*
X73337200Y-93131904D02*
X73289580Y-93179523D01*
X96417142Y-75069580D02*
X96369523Y-75117200D01*
X96369523Y-75117200D02*
X96226666Y-75164819D01*
X96226666Y-75164819D02*
X96131428Y-75164819D01*
X96131428Y-75164819D02*
X95988571Y-75117200D01*
X95988571Y-75117200D02*
X95893333Y-75021961D01*
X95893333Y-75021961D02*
X95845714Y-74926723D01*
X95845714Y-74926723D02*
X95798095Y-74736247D01*
X95798095Y-74736247D02*
X95798095Y-74593390D01*
X95798095Y-74593390D02*
X95845714Y-74402914D01*
X95845714Y-74402914D02*
X95893333Y-74307676D01*
X95893333Y-74307676D02*
X95988571Y-74212438D01*
X95988571Y-74212438D02*
X96131428Y-74164819D01*
X96131428Y-74164819D02*
X96226666Y-74164819D01*
X96226666Y-74164819D02*
X96369523Y-74212438D01*
X96369523Y-74212438D02*
X96417142Y-74260057D01*
X97369523Y-75164819D02*
X96798095Y-75164819D01*
X97083809Y-75164819D02*
X97083809Y-74164819D01*
X97083809Y-74164819D02*
X96988571Y-74307676D01*
X96988571Y-74307676D02*
X96893333Y-74402914D01*
X96893333Y-74402914D02*
X96798095Y-74450533D01*
X97750476Y-74260057D02*
X97798095Y-74212438D01*
X97798095Y-74212438D02*
X97893333Y-74164819D01*
X97893333Y-74164819D02*
X98131428Y-74164819D01*
X98131428Y-74164819D02*
X98226666Y-74212438D01*
X98226666Y-74212438D02*
X98274285Y-74260057D01*
X98274285Y-74260057D02*
X98321904Y-74355295D01*
X98321904Y-74355295D02*
X98321904Y-74450533D01*
X98321904Y-74450533D02*
X98274285Y-74593390D01*
X98274285Y-74593390D02*
X97702857Y-75164819D01*
X97702857Y-75164819D02*
X98321904Y-75164819D01*
X100657142Y-74919580D02*
X100609523Y-74967200D01*
X100609523Y-74967200D02*
X100466666Y-75014819D01*
X100466666Y-75014819D02*
X100371428Y-75014819D01*
X100371428Y-75014819D02*
X100228571Y-74967200D01*
X100228571Y-74967200D02*
X100133333Y-74871961D01*
X100133333Y-74871961D02*
X100085714Y-74776723D01*
X100085714Y-74776723D02*
X100038095Y-74586247D01*
X100038095Y-74586247D02*
X100038095Y-74443390D01*
X100038095Y-74443390D02*
X100085714Y-74252914D01*
X100085714Y-74252914D02*
X100133333Y-74157676D01*
X100133333Y-74157676D02*
X100228571Y-74062438D01*
X100228571Y-74062438D02*
X100371428Y-74014819D01*
X100371428Y-74014819D02*
X100466666Y-74014819D01*
X100466666Y-74014819D02*
X100609523Y-74062438D01*
X100609523Y-74062438D02*
X100657142Y-74110057D01*
X101609523Y-75014819D02*
X101038095Y-75014819D01*
X101323809Y-75014819D02*
X101323809Y-74014819D01*
X101323809Y-74014819D02*
X101228571Y-74157676D01*
X101228571Y-74157676D02*
X101133333Y-74252914D01*
X101133333Y-74252914D02*
X101038095Y-74300533D01*
X102561904Y-75014819D02*
X101990476Y-75014819D01*
X102276190Y-75014819D02*
X102276190Y-74014819D01*
X102276190Y-74014819D02*
X102180952Y-74157676D01*
X102180952Y-74157676D02*
X102085714Y-74252914D01*
X102085714Y-74252914D02*
X101990476Y-74300533D01*
X95747142Y-100449580D02*
X95699523Y-100497200D01*
X95699523Y-100497200D02*
X95556666Y-100544819D01*
X95556666Y-100544819D02*
X95461428Y-100544819D01*
X95461428Y-100544819D02*
X95318571Y-100497200D01*
X95318571Y-100497200D02*
X95223333Y-100401961D01*
X95223333Y-100401961D02*
X95175714Y-100306723D01*
X95175714Y-100306723D02*
X95128095Y-100116247D01*
X95128095Y-100116247D02*
X95128095Y-99973390D01*
X95128095Y-99973390D02*
X95175714Y-99782914D01*
X95175714Y-99782914D02*
X95223333Y-99687676D01*
X95223333Y-99687676D02*
X95318571Y-99592438D01*
X95318571Y-99592438D02*
X95461428Y-99544819D01*
X95461428Y-99544819D02*
X95556666Y-99544819D01*
X95556666Y-99544819D02*
X95699523Y-99592438D01*
X95699523Y-99592438D02*
X95747142Y-99640057D01*
X96699523Y-100544819D02*
X96128095Y-100544819D01*
X96413809Y-100544819D02*
X96413809Y-99544819D01*
X96413809Y-99544819D02*
X96318571Y-99687676D01*
X96318571Y-99687676D02*
X96223333Y-99782914D01*
X96223333Y-99782914D02*
X96128095Y-99830533D01*
X97318571Y-99544819D02*
X97413809Y-99544819D01*
X97413809Y-99544819D02*
X97509047Y-99592438D01*
X97509047Y-99592438D02*
X97556666Y-99640057D01*
X97556666Y-99640057D02*
X97604285Y-99735295D01*
X97604285Y-99735295D02*
X97651904Y-99925771D01*
X97651904Y-99925771D02*
X97651904Y-100163866D01*
X97651904Y-100163866D02*
X97604285Y-100354342D01*
X97604285Y-100354342D02*
X97556666Y-100449580D01*
X97556666Y-100449580D02*
X97509047Y-100497200D01*
X97509047Y-100497200D02*
X97413809Y-100544819D01*
X97413809Y-100544819D02*
X97318571Y-100544819D01*
X97318571Y-100544819D02*
X97223333Y-100497200D01*
X97223333Y-100497200D02*
X97175714Y-100449580D01*
X97175714Y-100449580D02*
X97128095Y-100354342D01*
X97128095Y-100354342D02*
X97080476Y-100163866D01*
X97080476Y-100163866D02*
X97080476Y-99925771D01*
X97080476Y-99925771D02*
X97128095Y-99735295D01*
X97128095Y-99735295D02*
X97175714Y-99640057D01*
X97175714Y-99640057D02*
X97223333Y-99592438D01*
X97223333Y-99592438D02*
X97318571Y-99544819D01*
X76108333Y-100619580D02*
X76060714Y-100667200D01*
X76060714Y-100667200D02*
X75917857Y-100714819D01*
X75917857Y-100714819D02*
X75822619Y-100714819D01*
X75822619Y-100714819D02*
X75679762Y-100667200D01*
X75679762Y-100667200D02*
X75584524Y-100571961D01*
X75584524Y-100571961D02*
X75536905Y-100476723D01*
X75536905Y-100476723D02*
X75489286Y-100286247D01*
X75489286Y-100286247D02*
X75489286Y-100143390D01*
X75489286Y-100143390D02*
X75536905Y-99952914D01*
X75536905Y-99952914D02*
X75584524Y-99857676D01*
X75584524Y-99857676D02*
X75679762Y-99762438D01*
X75679762Y-99762438D02*
X75822619Y-99714819D01*
X75822619Y-99714819D02*
X75917857Y-99714819D01*
X75917857Y-99714819D02*
X76060714Y-99762438D01*
X76060714Y-99762438D02*
X76108333Y-99810057D01*
X76584524Y-100714819D02*
X76775000Y-100714819D01*
X76775000Y-100714819D02*
X76870238Y-100667200D01*
X76870238Y-100667200D02*
X76917857Y-100619580D01*
X76917857Y-100619580D02*
X77013095Y-100476723D01*
X77013095Y-100476723D02*
X77060714Y-100286247D01*
X77060714Y-100286247D02*
X77060714Y-99905295D01*
X77060714Y-99905295D02*
X77013095Y-99810057D01*
X77013095Y-99810057D02*
X76965476Y-99762438D01*
X76965476Y-99762438D02*
X76870238Y-99714819D01*
X76870238Y-99714819D02*
X76679762Y-99714819D01*
X76679762Y-99714819D02*
X76584524Y-99762438D01*
X76584524Y-99762438D02*
X76536905Y-99810057D01*
X76536905Y-99810057D02*
X76489286Y-99905295D01*
X76489286Y-99905295D02*
X76489286Y-100143390D01*
X76489286Y-100143390D02*
X76536905Y-100238628D01*
X76536905Y-100238628D02*
X76584524Y-100286247D01*
X76584524Y-100286247D02*
X76679762Y-100333866D01*
X76679762Y-100333866D02*
X76870238Y-100333866D01*
X76870238Y-100333866D02*
X76965476Y-100286247D01*
X76965476Y-100286247D02*
X77013095Y-100238628D01*
X77013095Y-100238628D02*
X77060714Y-100143390D01*
X82403333Y-100509580D02*
X82355714Y-100557200D01*
X82355714Y-100557200D02*
X82212857Y-100604819D01*
X82212857Y-100604819D02*
X82117619Y-100604819D01*
X82117619Y-100604819D02*
X81974762Y-100557200D01*
X81974762Y-100557200D02*
X81879524Y-100461961D01*
X81879524Y-100461961D02*
X81831905Y-100366723D01*
X81831905Y-100366723D02*
X81784286Y-100176247D01*
X81784286Y-100176247D02*
X81784286Y-100033390D01*
X81784286Y-100033390D02*
X81831905Y-99842914D01*
X81831905Y-99842914D02*
X81879524Y-99747676D01*
X81879524Y-99747676D02*
X81974762Y-99652438D01*
X81974762Y-99652438D02*
X82117619Y-99604819D01*
X82117619Y-99604819D02*
X82212857Y-99604819D01*
X82212857Y-99604819D02*
X82355714Y-99652438D01*
X82355714Y-99652438D02*
X82403333Y-99700057D01*
X83260476Y-99604819D02*
X83070000Y-99604819D01*
X83070000Y-99604819D02*
X82974762Y-99652438D01*
X82974762Y-99652438D02*
X82927143Y-99700057D01*
X82927143Y-99700057D02*
X82831905Y-99842914D01*
X82831905Y-99842914D02*
X82784286Y-100033390D01*
X82784286Y-100033390D02*
X82784286Y-100414342D01*
X82784286Y-100414342D02*
X82831905Y-100509580D01*
X82831905Y-100509580D02*
X82879524Y-100557200D01*
X82879524Y-100557200D02*
X82974762Y-100604819D01*
X82974762Y-100604819D02*
X83165238Y-100604819D01*
X83165238Y-100604819D02*
X83260476Y-100557200D01*
X83260476Y-100557200D02*
X83308095Y-100509580D01*
X83308095Y-100509580D02*
X83355714Y-100414342D01*
X83355714Y-100414342D02*
X83355714Y-100176247D01*
X83355714Y-100176247D02*
X83308095Y-100081009D01*
X83308095Y-100081009D02*
X83260476Y-100033390D01*
X83260476Y-100033390D02*
X83165238Y-99985771D01*
X83165238Y-99985771D02*
X82974762Y-99985771D01*
X82974762Y-99985771D02*
X82879524Y-100033390D01*
X82879524Y-100033390D02*
X82831905Y-100081009D01*
X82831905Y-100081009D02*
X82784286Y-100176247D01*
X89483333Y-100459580D02*
X89435714Y-100507200D01*
X89435714Y-100507200D02*
X89292857Y-100554819D01*
X89292857Y-100554819D02*
X89197619Y-100554819D01*
X89197619Y-100554819D02*
X89054762Y-100507200D01*
X89054762Y-100507200D02*
X88959524Y-100411961D01*
X88959524Y-100411961D02*
X88911905Y-100316723D01*
X88911905Y-100316723D02*
X88864286Y-100126247D01*
X88864286Y-100126247D02*
X88864286Y-99983390D01*
X88864286Y-99983390D02*
X88911905Y-99792914D01*
X88911905Y-99792914D02*
X88959524Y-99697676D01*
X88959524Y-99697676D02*
X89054762Y-99602438D01*
X89054762Y-99602438D02*
X89197619Y-99554819D01*
X89197619Y-99554819D02*
X89292857Y-99554819D01*
X89292857Y-99554819D02*
X89435714Y-99602438D01*
X89435714Y-99602438D02*
X89483333Y-99650057D01*
X90388095Y-99554819D02*
X89911905Y-99554819D01*
X89911905Y-99554819D02*
X89864286Y-100031009D01*
X89864286Y-100031009D02*
X89911905Y-99983390D01*
X89911905Y-99983390D02*
X90007143Y-99935771D01*
X90007143Y-99935771D02*
X90245238Y-99935771D01*
X90245238Y-99935771D02*
X90340476Y-99983390D01*
X90340476Y-99983390D02*
X90388095Y-100031009D01*
X90388095Y-100031009D02*
X90435714Y-100126247D01*
X90435714Y-100126247D02*
X90435714Y-100364342D01*
X90435714Y-100364342D02*
X90388095Y-100459580D01*
X90388095Y-100459580D02*
X90340476Y-100507200D01*
X90340476Y-100507200D02*
X90245238Y-100554819D01*
X90245238Y-100554819D02*
X90007143Y-100554819D01*
X90007143Y-100554819D02*
X89911905Y-100507200D01*
X89911905Y-100507200D02*
X89864286Y-100459580D01*
X84031905Y-72674819D02*
X84031905Y-73484342D01*
X84031905Y-73484342D02*
X84079524Y-73579580D01*
X84079524Y-73579580D02*
X84127143Y-73627200D01*
X84127143Y-73627200D02*
X84222381Y-73674819D01*
X84222381Y-73674819D02*
X84412857Y-73674819D01*
X84412857Y-73674819D02*
X84508095Y-73627200D01*
X84508095Y-73627200D02*
X84555714Y-73579580D01*
X84555714Y-73579580D02*
X84603333Y-73484342D01*
X84603333Y-73484342D02*
X84603333Y-72674819D01*
X85031905Y-73627200D02*
X85174762Y-73674819D01*
X85174762Y-73674819D02*
X85412857Y-73674819D01*
X85412857Y-73674819D02*
X85508095Y-73627200D01*
X85508095Y-73627200D02*
X85555714Y-73579580D01*
X85555714Y-73579580D02*
X85603333Y-73484342D01*
X85603333Y-73484342D02*
X85603333Y-73389104D01*
X85603333Y-73389104D02*
X85555714Y-73293866D01*
X85555714Y-73293866D02*
X85508095Y-73246247D01*
X85508095Y-73246247D02*
X85412857Y-73198628D01*
X85412857Y-73198628D02*
X85222381Y-73151009D01*
X85222381Y-73151009D02*
X85127143Y-73103390D01*
X85127143Y-73103390D02*
X85079524Y-73055771D01*
X85079524Y-73055771D02*
X85031905Y-72960533D01*
X85031905Y-72960533D02*
X85031905Y-72865295D01*
X85031905Y-72865295D02*
X85079524Y-72770057D01*
X85079524Y-72770057D02*
X85127143Y-72722438D01*
X85127143Y-72722438D02*
X85222381Y-72674819D01*
X85222381Y-72674819D02*
X85460476Y-72674819D01*
X85460476Y-72674819D02*
X85603333Y-72722438D01*
X86365238Y-73151009D02*
X86508095Y-73198628D01*
X86508095Y-73198628D02*
X86555714Y-73246247D01*
X86555714Y-73246247D02*
X86603333Y-73341485D01*
X86603333Y-73341485D02*
X86603333Y-73484342D01*
X86603333Y-73484342D02*
X86555714Y-73579580D01*
X86555714Y-73579580D02*
X86508095Y-73627200D01*
X86508095Y-73627200D02*
X86412857Y-73674819D01*
X86412857Y-73674819D02*
X86031905Y-73674819D01*
X86031905Y-73674819D02*
X86031905Y-72674819D01*
X86031905Y-72674819D02*
X86365238Y-72674819D01*
X86365238Y-72674819D02*
X86460476Y-72722438D01*
X86460476Y-72722438D02*
X86508095Y-72770057D01*
X86508095Y-72770057D02*
X86555714Y-72865295D01*
X86555714Y-72865295D02*
X86555714Y-72960533D01*
X86555714Y-72960533D02*
X86508095Y-73055771D01*
X86508095Y-73055771D02*
X86460476Y-73103390D01*
X86460476Y-73103390D02*
X86365238Y-73151009D01*
X86365238Y-73151009D02*
X86031905Y-73151009D01*
X87603333Y-73579580D02*
X87555714Y-73627200D01*
X87555714Y-73627200D02*
X87412857Y-73674819D01*
X87412857Y-73674819D02*
X87317619Y-73674819D01*
X87317619Y-73674819D02*
X87174762Y-73627200D01*
X87174762Y-73627200D02*
X87079524Y-73531961D01*
X87079524Y-73531961D02*
X87031905Y-73436723D01*
X87031905Y-73436723D02*
X86984286Y-73246247D01*
X86984286Y-73246247D02*
X86984286Y-73103390D01*
X86984286Y-73103390D02*
X87031905Y-72912914D01*
X87031905Y-72912914D02*
X87079524Y-72817676D01*
X87079524Y-72817676D02*
X87174762Y-72722438D01*
X87174762Y-72722438D02*
X87317619Y-72674819D01*
X87317619Y-72674819D02*
X87412857Y-72674819D01*
X87412857Y-72674819D02*
X87555714Y-72722438D01*
X87555714Y-72722438D02*
X87603333Y-72770057D01*
X88555714Y-73674819D02*
X87984286Y-73674819D01*
X88270000Y-73674819D02*
X88270000Y-72674819D01*
X88270000Y-72674819D02*
X88174762Y-72817676D01*
X88174762Y-72817676D02*
X88079524Y-72912914D01*
X88079524Y-72912914D02*
X87984286Y-72960533D01*
X83329819Y-86906666D02*
X82853628Y-87239999D01*
X83329819Y-87478094D02*
X82329819Y-87478094D01*
X82329819Y-87478094D02*
X82329819Y-87097142D01*
X82329819Y-87097142D02*
X82377438Y-87001904D01*
X82377438Y-87001904D02*
X82425057Y-86954285D01*
X82425057Y-86954285D02*
X82520295Y-86906666D01*
X82520295Y-86906666D02*
X82663152Y-86906666D01*
X82663152Y-86906666D02*
X82758390Y-86954285D01*
X82758390Y-86954285D02*
X82806009Y-87001904D01*
X82806009Y-87001904D02*
X82853628Y-87097142D01*
X82853628Y-87097142D02*
X82853628Y-87478094D01*
X82329819Y-86001904D02*
X82329819Y-86478094D01*
X82329819Y-86478094D02*
X82806009Y-86525713D01*
X82806009Y-86525713D02*
X82758390Y-86478094D01*
X82758390Y-86478094D02*
X82710771Y-86382856D01*
X82710771Y-86382856D02*
X82710771Y-86144761D01*
X82710771Y-86144761D02*
X82758390Y-86049523D01*
X82758390Y-86049523D02*
X82806009Y-86001904D01*
X82806009Y-86001904D02*
X82901247Y-85954285D01*
X82901247Y-85954285D02*
X83139342Y-85954285D01*
X83139342Y-85954285D02*
X83234580Y-86001904D01*
X83234580Y-86001904D02*
X83282200Y-86049523D01*
X83282200Y-86049523D02*
X83329819Y-86144761D01*
X83329819Y-86144761D02*
X83329819Y-86382856D01*
X83329819Y-86382856D02*
X83282200Y-86478094D01*
X83282200Y-86478094D02*
X83234580Y-86525713D01*
X99356666Y-104574819D02*
X99356666Y-105289104D01*
X99356666Y-105289104D02*
X99309047Y-105431961D01*
X99309047Y-105431961D02*
X99213809Y-105527200D01*
X99213809Y-105527200D02*
X99070952Y-105574819D01*
X99070952Y-105574819D02*
X98975714Y-105574819D01*
X99785238Y-104670057D02*
X99832857Y-104622438D01*
X99832857Y-104622438D02*
X99928095Y-104574819D01*
X99928095Y-104574819D02*
X100166190Y-104574819D01*
X100166190Y-104574819D02*
X100261428Y-104622438D01*
X100261428Y-104622438D02*
X100309047Y-104670057D01*
X100309047Y-104670057D02*
X100356666Y-104765295D01*
X100356666Y-104765295D02*
X100356666Y-104860533D01*
X100356666Y-104860533D02*
X100309047Y-105003390D01*
X100309047Y-105003390D02*
X99737619Y-105574819D01*
X99737619Y-105574819D02*
X100356666Y-105574819D01*
X85708095Y-97984819D02*
X85708095Y-98794342D01*
X85708095Y-98794342D02*
X85755714Y-98889580D01*
X85755714Y-98889580D02*
X85803333Y-98937200D01*
X85803333Y-98937200D02*
X85898571Y-98984819D01*
X85898571Y-98984819D02*
X86089047Y-98984819D01*
X86089047Y-98984819D02*
X86184285Y-98937200D01*
X86184285Y-98937200D02*
X86231904Y-98889580D01*
X86231904Y-98889580D02*
X86279523Y-98794342D01*
X86279523Y-98794342D02*
X86279523Y-97984819D01*
X86708095Y-98080057D02*
X86755714Y-98032438D01*
X86755714Y-98032438D02*
X86850952Y-97984819D01*
X86850952Y-97984819D02*
X87089047Y-97984819D01*
X87089047Y-97984819D02*
X87184285Y-98032438D01*
X87184285Y-98032438D02*
X87231904Y-98080057D01*
X87231904Y-98080057D02*
X87279523Y-98175295D01*
X87279523Y-98175295D02*
X87279523Y-98270533D01*
X87279523Y-98270533D02*
X87231904Y-98413390D01*
X87231904Y-98413390D02*
X86660476Y-98984819D01*
X86660476Y-98984819D02*
X87279523Y-98984819D01*
X75246666Y-130684819D02*
X75246666Y-131399104D01*
X75246666Y-131399104D02*
X75199047Y-131541961D01*
X75199047Y-131541961D02*
X75103809Y-131637200D01*
X75103809Y-131637200D02*
X74960952Y-131684819D01*
X74960952Y-131684819D02*
X74865714Y-131684819D01*
X76199047Y-130684819D02*
X75722857Y-130684819D01*
X75722857Y-130684819D02*
X75675238Y-131161009D01*
X75675238Y-131161009D02*
X75722857Y-131113390D01*
X75722857Y-131113390D02*
X75818095Y-131065771D01*
X75818095Y-131065771D02*
X76056190Y-131065771D01*
X76056190Y-131065771D02*
X76151428Y-131113390D01*
X76151428Y-131113390D02*
X76199047Y-131161009D01*
X76199047Y-131161009D02*
X76246666Y-131256247D01*
X76246666Y-131256247D02*
X76246666Y-131494342D01*
X76246666Y-131494342D02*
X76199047Y-131589580D01*
X76199047Y-131589580D02*
X76151428Y-131637200D01*
X76151428Y-131637200D02*
X76056190Y-131684819D01*
X76056190Y-131684819D02*
X75818095Y-131684819D01*
X75818095Y-131684819D02*
X75722857Y-131637200D01*
X75722857Y-131637200D02*
X75675238Y-131589580D01*
X97159819Y-86451666D02*
X96683628Y-86784999D01*
X97159819Y-87023094D02*
X96159819Y-87023094D01*
X96159819Y-87023094D02*
X96159819Y-86642142D01*
X96159819Y-86642142D02*
X96207438Y-86546904D01*
X96207438Y-86546904D02*
X96255057Y-86499285D01*
X96255057Y-86499285D02*
X96350295Y-86451666D01*
X96350295Y-86451666D02*
X96493152Y-86451666D01*
X96493152Y-86451666D02*
X96588390Y-86499285D01*
X96588390Y-86499285D02*
X96636009Y-86546904D01*
X96636009Y-86546904D02*
X96683628Y-86642142D01*
X96683628Y-86642142D02*
X96683628Y-87023094D01*
X97159819Y-85975475D02*
X97159819Y-85784999D01*
X97159819Y-85784999D02*
X97112200Y-85689761D01*
X97112200Y-85689761D02*
X97064580Y-85642142D01*
X97064580Y-85642142D02*
X96921723Y-85546904D01*
X96921723Y-85546904D02*
X96731247Y-85499285D01*
X96731247Y-85499285D02*
X96350295Y-85499285D01*
X96350295Y-85499285D02*
X96255057Y-85546904D01*
X96255057Y-85546904D02*
X96207438Y-85594523D01*
X96207438Y-85594523D02*
X96159819Y-85689761D01*
X96159819Y-85689761D02*
X96159819Y-85880237D01*
X96159819Y-85880237D02*
X96207438Y-85975475D01*
X96207438Y-85975475D02*
X96255057Y-86023094D01*
X96255057Y-86023094D02*
X96350295Y-86070713D01*
X96350295Y-86070713D02*
X96588390Y-86070713D01*
X96588390Y-86070713D02*
X96683628Y-86023094D01*
X96683628Y-86023094D02*
X96731247Y-85975475D01*
X96731247Y-85975475D02*
X96778866Y-85880237D01*
X96778866Y-85880237D02*
X96778866Y-85689761D01*
X96778866Y-85689761D02*
X96731247Y-85594523D01*
X96731247Y-85594523D02*
X96683628Y-85546904D01*
X96683628Y-85546904D02*
X96588390Y-85499285D01*
X68273333Y-80839580D02*
X68225714Y-80887200D01*
X68225714Y-80887200D02*
X68082857Y-80934819D01*
X68082857Y-80934819D02*
X67987619Y-80934819D01*
X67987619Y-80934819D02*
X67844762Y-80887200D01*
X67844762Y-80887200D02*
X67749524Y-80791961D01*
X67749524Y-80791961D02*
X67701905Y-80696723D01*
X67701905Y-80696723D02*
X67654286Y-80506247D01*
X67654286Y-80506247D02*
X67654286Y-80363390D01*
X67654286Y-80363390D02*
X67701905Y-80172914D01*
X67701905Y-80172914D02*
X67749524Y-80077676D01*
X67749524Y-80077676D02*
X67844762Y-79982438D01*
X67844762Y-79982438D02*
X67987619Y-79934819D01*
X67987619Y-79934819D02*
X68082857Y-79934819D01*
X68082857Y-79934819D02*
X68225714Y-79982438D01*
X68225714Y-79982438D02*
X68273333Y-80030057D01*
X68654286Y-80030057D02*
X68701905Y-79982438D01*
X68701905Y-79982438D02*
X68797143Y-79934819D01*
X68797143Y-79934819D02*
X69035238Y-79934819D01*
X69035238Y-79934819D02*
X69130476Y-79982438D01*
X69130476Y-79982438D02*
X69178095Y-80030057D01*
X69178095Y-80030057D02*
X69225714Y-80125295D01*
X69225714Y-80125295D02*
X69225714Y-80220533D01*
X69225714Y-80220533D02*
X69178095Y-80363390D01*
X69178095Y-80363390D02*
X68606667Y-80934819D01*
X68606667Y-80934819D02*
X69225714Y-80934819D01*
X93787142Y-87014819D02*
X93453809Y-86538628D01*
X93215714Y-87014819D02*
X93215714Y-86014819D01*
X93215714Y-86014819D02*
X93596666Y-86014819D01*
X93596666Y-86014819D02*
X93691904Y-86062438D01*
X93691904Y-86062438D02*
X93739523Y-86110057D01*
X93739523Y-86110057D02*
X93787142Y-86205295D01*
X93787142Y-86205295D02*
X93787142Y-86348152D01*
X93787142Y-86348152D02*
X93739523Y-86443390D01*
X93739523Y-86443390D02*
X93691904Y-86491009D01*
X93691904Y-86491009D02*
X93596666Y-86538628D01*
X93596666Y-86538628D02*
X93215714Y-86538628D01*
X94739523Y-87014819D02*
X94168095Y-87014819D01*
X94453809Y-87014819D02*
X94453809Y-86014819D01*
X94453809Y-86014819D02*
X94358571Y-86157676D01*
X94358571Y-86157676D02*
X94263333Y-86252914D01*
X94263333Y-86252914D02*
X94168095Y-86300533D01*
X95358571Y-86014819D02*
X95453809Y-86014819D01*
X95453809Y-86014819D02*
X95549047Y-86062438D01*
X95549047Y-86062438D02*
X95596666Y-86110057D01*
X95596666Y-86110057D02*
X95644285Y-86205295D01*
X95644285Y-86205295D02*
X95691904Y-86395771D01*
X95691904Y-86395771D02*
X95691904Y-86633866D01*
X95691904Y-86633866D02*
X95644285Y-86824342D01*
X95644285Y-86824342D02*
X95596666Y-86919580D01*
X95596666Y-86919580D02*
X95549047Y-86967200D01*
X95549047Y-86967200D02*
X95453809Y-87014819D01*
X95453809Y-87014819D02*
X95358571Y-87014819D01*
X95358571Y-87014819D02*
X95263333Y-86967200D01*
X95263333Y-86967200D02*
X95215714Y-86919580D01*
X95215714Y-86919580D02*
X95168095Y-86824342D01*
X95168095Y-86824342D02*
X95120476Y-86633866D01*
X95120476Y-86633866D02*
X95120476Y-86395771D01*
X95120476Y-86395771D02*
X95168095Y-86205295D01*
X95168095Y-86205295D02*
X95215714Y-86110057D01*
X95215714Y-86110057D02*
X95263333Y-86062438D01*
X95263333Y-86062438D02*
X95358571Y-86014819D01*
X84028095Y-107814819D02*
X84028095Y-108624342D01*
X84028095Y-108624342D02*
X84075714Y-108719580D01*
X84075714Y-108719580D02*
X84123333Y-108767200D01*
X84123333Y-108767200D02*
X84218571Y-108814819D01*
X84218571Y-108814819D02*
X84409047Y-108814819D01*
X84409047Y-108814819D02*
X84504285Y-108767200D01*
X84504285Y-108767200D02*
X84551904Y-108719580D01*
X84551904Y-108719580D02*
X84599523Y-108624342D01*
X84599523Y-108624342D02*
X84599523Y-107814819D01*
X84980476Y-107814819D02*
X85647142Y-107814819D01*
X85647142Y-107814819D02*
X85218571Y-108814819D01*
X76077142Y-111539580D02*
X76029523Y-111587200D01*
X76029523Y-111587200D02*
X75886666Y-111634819D01*
X75886666Y-111634819D02*
X75791428Y-111634819D01*
X75791428Y-111634819D02*
X75648571Y-111587200D01*
X75648571Y-111587200D02*
X75553333Y-111491961D01*
X75553333Y-111491961D02*
X75505714Y-111396723D01*
X75505714Y-111396723D02*
X75458095Y-111206247D01*
X75458095Y-111206247D02*
X75458095Y-111063390D01*
X75458095Y-111063390D02*
X75505714Y-110872914D01*
X75505714Y-110872914D02*
X75553333Y-110777676D01*
X75553333Y-110777676D02*
X75648571Y-110682438D01*
X75648571Y-110682438D02*
X75791428Y-110634819D01*
X75791428Y-110634819D02*
X75886666Y-110634819D01*
X75886666Y-110634819D02*
X76029523Y-110682438D01*
X76029523Y-110682438D02*
X76077142Y-110730057D01*
X77029523Y-111634819D02*
X76458095Y-111634819D01*
X76743809Y-111634819D02*
X76743809Y-110634819D01*
X76743809Y-110634819D02*
X76648571Y-110777676D01*
X76648571Y-110777676D02*
X76553333Y-110872914D01*
X76553333Y-110872914D02*
X76458095Y-110920533D01*
X77362857Y-110634819D02*
X77981904Y-110634819D01*
X77981904Y-110634819D02*
X77648571Y-111015771D01*
X77648571Y-111015771D02*
X77791428Y-111015771D01*
X77791428Y-111015771D02*
X77886666Y-111063390D01*
X77886666Y-111063390D02*
X77934285Y-111111009D01*
X77934285Y-111111009D02*
X77981904Y-111206247D01*
X77981904Y-111206247D02*
X77981904Y-111444342D01*
X77981904Y-111444342D02*
X77934285Y-111539580D01*
X77934285Y-111539580D02*
X77886666Y-111587200D01*
X77886666Y-111587200D02*
X77791428Y-111634819D01*
X77791428Y-111634819D02*
X77505714Y-111634819D01*
X77505714Y-111634819D02*
X77410476Y-111587200D01*
X77410476Y-111587200D02*
X77362857Y-111539580D01*
X79779580Y-118542857D02*
X79827200Y-118590476D01*
X79827200Y-118590476D02*
X79874819Y-118733333D01*
X79874819Y-118733333D02*
X79874819Y-118828571D01*
X79874819Y-118828571D02*
X79827200Y-118971428D01*
X79827200Y-118971428D02*
X79731961Y-119066666D01*
X79731961Y-119066666D02*
X79636723Y-119114285D01*
X79636723Y-119114285D02*
X79446247Y-119161904D01*
X79446247Y-119161904D02*
X79303390Y-119161904D01*
X79303390Y-119161904D02*
X79112914Y-119114285D01*
X79112914Y-119114285D02*
X79017676Y-119066666D01*
X79017676Y-119066666D02*
X78922438Y-118971428D01*
X78922438Y-118971428D02*
X78874819Y-118828571D01*
X78874819Y-118828571D02*
X78874819Y-118733333D01*
X78874819Y-118733333D02*
X78922438Y-118590476D01*
X78922438Y-118590476D02*
X78970057Y-118542857D01*
X79874819Y-117590476D02*
X79874819Y-118161904D01*
X79874819Y-117876190D02*
X78874819Y-117876190D01*
X78874819Y-117876190D02*
X79017676Y-117971428D01*
X79017676Y-117971428D02*
X79112914Y-118066666D01*
X79112914Y-118066666D02*
X79160533Y-118161904D01*
X79208152Y-116733333D02*
X79874819Y-116733333D01*
X78827200Y-116971428D02*
X79541485Y-117209523D01*
X79541485Y-117209523D02*
X79541485Y-116590476D01*
X78648095Y-98224819D02*
X78648095Y-99034342D01*
X78648095Y-99034342D02*
X78695714Y-99129580D01*
X78695714Y-99129580D02*
X78743333Y-99177200D01*
X78743333Y-99177200D02*
X78838571Y-99224819D01*
X78838571Y-99224819D02*
X79029047Y-99224819D01*
X79029047Y-99224819D02*
X79124285Y-99177200D01*
X79124285Y-99177200D02*
X79171904Y-99129580D01*
X79171904Y-99129580D02*
X79219523Y-99034342D01*
X79219523Y-99034342D02*
X79219523Y-98224819D01*
X79600476Y-98224819D02*
X80219523Y-98224819D01*
X80219523Y-98224819D02*
X79886190Y-98605771D01*
X79886190Y-98605771D02*
X80029047Y-98605771D01*
X80029047Y-98605771D02*
X80124285Y-98653390D01*
X80124285Y-98653390D02*
X80171904Y-98701009D01*
X80171904Y-98701009D02*
X80219523Y-98796247D01*
X80219523Y-98796247D02*
X80219523Y-99034342D01*
X80219523Y-99034342D02*
X80171904Y-99129580D01*
X80171904Y-99129580D02*
X80124285Y-99177200D01*
X80124285Y-99177200D02*
X80029047Y-99224819D01*
X80029047Y-99224819D02*
X79743333Y-99224819D01*
X79743333Y-99224819D02*
X79648095Y-99177200D01*
X79648095Y-99177200D02*
X79600476Y-99129580D01*
X92717142Y-71984819D02*
X92383809Y-71508628D01*
X92145714Y-71984819D02*
X92145714Y-70984819D01*
X92145714Y-70984819D02*
X92526666Y-70984819D01*
X92526666Y-70984819D02*
X92621904Y-71032438D01*
X92621904Y-71032438D02*
X92669523Y-71080057D01*
X92669523Y-71080057D02*
X92717142Y-71175295D01*
X92717142Y-71175295D02*
X92717142Y-71318152D01*
X92717142Y-71318152D02*
X92669523Y-71413390D01*
X92669523Y-71413390D02*
X92621904Y-71461009D01*
X92621904Y-71461009D02*
X92526666Y-71508628D01*
X92526666Y-71508628D02*
X92145714Y-71508628D01*
X93669523Y-71984819D02*
X93098095Y-71984819D01*
X93383809Y-71984819D02*
X93383809Y-70984819D01*
X93383809Y-70984819D02*
X93288571Y-71127676D01*
X93288571Y-71127676D02*
X93193333Y-71222914D01*
X93193333Y-71222914D02*
X93098095Y-71270533D01*
X94050476Y-71080057D02*
X94098095Y-71032438D01*
X94098095Y-71032438D02*
X94193333Y-70984819D01*
X94193333Y-70984819D02*
X94431428Y-70984819D01*
X94431428Y-70984819D02*
X94526666Y-71032438D01*
X94526666Y-71032438D02*
X94574285Y-71080057D01*
X94574285Y-71080057D02*
X94621904Y-71175295D01*
X94621904Y-71175295D02*
X94621904Y-71270533D01*
X94621904Y-71270533D02*
X94574285Y-71413390D01*
X94574285Y-71413390D02*
X94002857Y-71984819D01*
X94002857Y-71984819D02*
X94621904Y-71984819D01*
X92887142Y-120204819D02*
X92553809Y-119728628D01*
X92315714Y-120204819D02*
X92315714Y-119204819D01*
X92315714Y-119204819D02*
X92696666Y-119204819D01*
X92696666Y-119204819D02*
X92791904Y-119252438D01*
X92791904Y-119252438D02*
X92839523Y-119300057D01*
X92839523Y-119300057D02*
X92887142Y-119395295D01*
X92887142Y-119395295D02*
X92887142Y-119538152D01*
X92887142Y-119538152D02*
X92839523Y-119633390D01*
X92839523Y-119633390D02*
X92791904Y-119681009D01*
X92791904Y-119681009D02*
X92696666Y-119728628D01*
X92696666Y-119728628D02*
X92315714Y-119728628D01*
X93839523Y-120204819D02*
X93268095Y-120204819D01*
X93553809Y-120204819D02*
X93553809Y-119204819D01*
X93553809Y-119204819D02*
X93458571Y-119347676D01*
X93458571Y-119347676D02*
X93363333Y-119442914D01*
X93363333Y-119442914D02*
X93268095Y-119490533D01*
X94696666Y-119538152D02*
X94696666Y-120204819D01*
X94458571Y-119157200D02*
X94220476Y-119871485D01*
X94220476Y-119871485D02*
X94839523Y-119871485D01*
X88859819Y-86766666D02*
X88383628Y-87099999D01*
X88859819Y-87338094D02*
X87859819Y-87338094D01*
X87859819Y-87338094D02*
X87859819Y-86957142D01*
X87859819Y-86957142D02*
X87907438Y-86861904D01*
X87907438Y-86861904D02*
X87955057Y-86814285D01*
X87955057Y-86814285D02*
X88050295Y-86766666D01*
X88050295Y-86766666D02*
X88193152Y-86766666D01*
X88193152Y-86766666D02*
X88288390Y-86814285D01*
X88288390Y-86814285D02*
X88336009Y-86861904D01*
X88336009Y-86861904D02*
X88383628Y-86957142D01*
X88383628Y-86957142D02*
X88383628Y-87338094D01*
X88193152Y-85909523D02*
X88859819Y-85909523D01*
X87812200Y-86147618D02*
X88526485Y-86385713D01*
X88526485Y-86385713D02*
X88526485Y-85766666D01*
X70816666Y-80964819D02*
X70816666Y-81679104D01*
X70816666Y-81679104D02*
X70769047Y-81821961D01*
X70769047Y-81821961D02*
X70673809Y-81917200D01*
X70673809Y-81917200D02*
X70530952Y-81964819D01*
X70530952Y-81964819D02*
X70435714Y-81964819D01*
X71292857Y-81964819D02*
X71292857Y-80964819D01*
X71292857Y-80964819D02*
X71673809Y-80964819D01*
X71673809Y-80964819D02*
X71769047Y-81012438D01*
X71769047Y-81012438D02*
X71816666Y-81060057D01*
X71816666Y-81060057D02*
X71864285Y-81155295D01*
X71864285Y-81155295D02*
X71864285Y-81298152D01*
X71864285Y-81298152D02*
X71816666Y-81393390D01*
X71816666Y-81393390D02*
X71769047Y-81441009D01*
X71769047Y-81441009D02*
X71673809Y-81488628D01*
X71673809Y-81488628D02*
X71292857Y-81488628D01*
X72816666Y-81964819D02*
X72245238Y-81964819D01*
X72530952Y-81964819D02*
X72530952Y-80964819D01*
X72530952Y-80964819D02*
X72435714Y-81107676D01*
X72435714Y-81107676D02*
X72340476Y-81202914D01*
X72340476Y-81202914D02*
X72245238Y-81250533D01*
X97912295Y-73099523D02*
X98559914Y-73099523D01*
X98559914Y-73099523D02*
X98636104Y-73061428D01*
X98636104Y-73061428D02*
X98674200Y-73023333D01*
X98674200Y-73023333D02*
X98712295Y-72947142D01*
X98712295Y-72947142D02*
X98712295Y-72794761D01*
X98712295Y-72794761D02*
X98674200Y-72718571D01*
X98674200Y-72718571D02*
X98636104Y-72680476D01*
X98636104Y-72680476D02*
X98559914Y-72642380D01*
X98559914Y-72642380D02*
X97912295Y-72642380D01*
X97912295Y-71918571D02*
X97912295Y-72070952D01*
X97912295Y-72070952D02*
X97950390Y-72147143D01*
X97950390Y-72147143D02*
X97988485Y-72185238D01*
X97988485Y-72185238D02*
X98102771Y-72261428D01*
X98102771Y-72261428D02*
X98255152Y-72299524D01*
X98255152Y-72299524D02*
X98559914Y-72299524D01*
X98559914Y-72299524D02*
X98636104Y-72261428D01*
X98636104Y-72261428D02*
X98674200Y-72223333D01*
X98674200Y-72223333D02*
X98712295Y-72147143D01*
X98712295Y-72147143D02*
X98712295Y-71994762D01*
X98712295Y-71994762D02*
X98674200Y-71918571D01*
X98674200Y-71918571D02*
X98636104Y-71880476D01*
X98636104Y-71880476D02*
X98559914Y-71842381D01*
X98559914Y-71842381D02*
X98369438Y-71842381D01*
X98369438Y-71842381D02*
X98293247Y-71880476D01*
X98293247Y-71880476D02*
X98255152Y-71918571D01*
X98255152Y-71918571D02*
X98217057Y-71994762D01*
X98217057Y-71994762D02*
X98217057Y-72147143D01*
X98217057Y-72147143D02*
X98255152Y-72223333D01*
X98255152Y-72223333D02*
X98293247Y-72261428D01*
X98293247Y-72261428D02*
X98369438Y-72299524D01*
X92469580Y-81372857D02*
X92517200Y-81420476D01*
X92517200Y-81420476D02*
X92564819Y-81563333D01*
X92564819Y-81563333D02*
X92564819Y-81658571D01*
X92564819Y-81658571D02*
X92517200Y-81801428D01*
X92517200Y-81801428D02*
X92421961Y-81896666D01*
X92421961Y-81896666D02*
X92326723Y-81944285D01*
X92326723Y-81944285D02*
X92136247Y-81991904D01*
X92136247Y-81991904D02*
X91993390Y-81991904D01*
X91993390Y-81991904D02*
X91802914Y-81944285D01*
X91802914Y-81944285D02*
X91707676Y-81896666D01*
X91707676Y-81896666D02*
X91612438Y-81801428D01*
X91612438Y-81801428D02*
X91564819Y-81658571D01*
X91564819Y-81658571D02*
X91564819Y-81563333D01*
X91564819Y-81563333D02*
X91612438Y-81420476D01*
X91612438Y-81420476D02*
X91660057Y-81372857D01*
X91898152Y-80515714D02*
X92564819Y-80515714D01*
X91517200Y-80753809D02*
X92231485Y-80991904D01*
X92231485Y-80991904D02*
X92231485Y-80372857D01*
X91564819Y-79801428D02*
X91564819Y-79706190D01*
X91564819Y-79706190D02*
X91612438Y-79610952D01*
X91612438Y-79610952D02*
X91660057Y-79563333D01*
X91660057Y-79563333D02*
X91755295Y-79515714D01*
X91755295Y-79515714D02*
X91945771Y-79468095D01*
X91945771Y-79468095D02*
X92183866Y-79468095D01*
X92183866Y-79468095D02*
X92374342Y-79515714D01*
X92374342Y-79515714D02*
X92469580Y-79563333D01*
X92469580Y-79563333D02*
X92517200Y-79610952D01*
X92517200Y-79610952D02*
X92564819Y-79706190D01*
X92564819Y-79706190D02*
X92564819Y-79801428D01*
X92564819Y-79801428D02*
X92517200Y-79896666D01*
X92517200Y-79896666D02*
X92469580Y-79944285D01*
X92469580Y-79944285D02*
X92374342Y-79991904D01*
X92374342Y-79991904D02*
X92183866Y-80039523D01*
X92183866Y-80039523D02*
X91945771Y-80039523D01*
X91945771Y-80039523D02*
X91755295Y-79991904D01*
X91755295Y-79991904D02*
X91660057Y-79944285D01*
X91660057Y-79944285D02*
X91612438Y-79896666D01*
X91612438Y-79896666D02*
X91564819Y-79801428D01*
X91814580Y-86766666D02*
X91862200Y-86814285D01*
X91862200Y-86814285D02*
X91909819Y-86957142D01*
X91909819Y-86957142D02*
X91909819Y-87052380D01*
X91909819Y-87052380D02*
X91862200Y-87195237D01*
X91862200Y-87195237D02*
X91766961Y-87290475D01*
X91766961Y-87290475D02*
X91671723Y-87338094D01*
X91671723Y-87338094D02*
X91481247Y-87385713D01*
X91481247Y-87385713D02*
X91338390Y-87385713D01*
X91338390Y-87385713D02*
X91147914Y-87338094D01*
X91147914Y-87338094D02*
X91052676Y-87290475D01*
X91052676Y-87290475D02*
X90957438Y-87195237D01*
X90957438Y-87195237D02*
X90909819Y-87052380D01*
X90909819Y-87052380D02*
X90909819Y-86957142D01*
X90909819Y-86957142D02*
X90957438Y-86814285D01*
X90957438Y-86814285D02*
X91005057Y-86766666D01*
X90909819Y-86433332D02*
X90909819Y-85814285D01*
X90909819Y-85814285D02*
X91290771Y-86147618D01*
X91290771Y-86147618D02*
X91290771Y-86004761D01*
X91290771Y-86004761D02*
X91338390Y-85909523D01*
X91338390Y-85909523D02*
X91386009Y-85861904D01*
X91386009Y-85861904D02*
X91481247Y-85814285D01*
X91481247Y-85814285D02*
X91719342Y-85814285D01*
X91719342Y-85814285D02*
X91814580Y-85861904D01*
X91814580Y-85861904D02*
X91862200Y-85909523D01*
X91862200Y-85909523D02*
X91909819Y-86004761D01*
X91909819Y-86004761D02*
X91909819Y-86290475D01*
X91909819Y-86290475D02*
X91862200Y-86385713D01*
X91862200Y-86385713D02*
X91814580Y-86433332D01*
X88079580Y-119542857D02*
X88127200Y-119590476D01*
X88127200Y-119590476D02*
X88174819Y-119733333D01*
X88174819Y-119733333D02*
X88174819Y-119828571D01*
X88174819Y-119828571D02*
X88127200Y-119971428D01*
X88127200Y-119971428D02*
X88031961Y-120066666D01*
X88031961Y-120066666D02*
X87936723Y-120114285D01*
X87936723Y-120114285D02*
X87746247Y-120161904D01*
X87746247Y-120161904D02*
X87603390Y-120161904D01*
X87603390Y-120161904D02*
X87412914Y-120114285D01*
X87412914Y-120114285D02*
X87317676Y-120066666D01*
X87317676Y-120066666D02*
X87222438Y-119971428D01*
X87222438Y-119971428D02*
X87174819Y-119828571D01*
X87174819Y-119828571D02*
X87174819Y-119733333D01*
X87174819Y-119733333D02*
X87222438Y-119590476D01*
X87222438Y-119590476D02*
X87270057Y-119542857D01*
X88174819Y-118590476D02*
X88174819Y-119161904D01*
X88174819Y-118876190D02*
X87174819Y-118876190D01*
X87174819Y-118876190D02*
X87317676Y-118971428D01*
X87317676Y-118971428D02*
X87412914Y-119066666D01*
X87412914Y-119066666D02*
X87460533Y-119161904D01*
X88174819Y-118114285D02*
X88174819Y-117923809D01*
X88174819Y-117923809D02*
X88127200Y-117828571D01*
X88127200Y-117828571D02*
X88079580Y-117780952D01*
X88079580Y-117780952D02*
X87936723Y-117685714D01*
X87936723Y-117685714D02*
X87746247Y-117638095D01*
X87746247Y-117638095D02*
X87365295Y-117638095D01*
X87365295Y-117638095D02*
X87270057Y-117685714D01*
X87270057Y-117685714D02*
X87222438Y-117733333D01*
X87222438Y-117733333D02*
X87174819Y-117828571D01*
X87174819Y-117828571D02*
X87174819Y-118019047D01*
X87174819Y-118019047D02*
X87222438Y-118114285D01*
X87222438Y-118114285D02*
X87270057Y-118161904D01*
X87270057Y-118161904D02*
X87365295Y-118209523D01*
X87365295Y-118209523D02*
X87603390Y-118209523D01*
X87603390Y-118209523D02*
X87698628Y-118161904D01*
X87698628Y-118161904D02*
X87746247Y-118114285D01*
X87746247Y-118114285D02*
X87793866Y-118019047D01*
X87793866Y-118019047D02*
X87793866Y-117828571D01*
X87793866Y-117828571D02*
X87746247Y-117733333D01*
X87746247Y-117733333D02*
X87698628Y-117685714D01*
X87698628Y-117685714D02*
X87603390Y-117638095D01*
X97281905Y-126044819D02*
X97281905Y-125044819D01*
X97281905Y-125044819D02*
X97520000Y-125044819D01*
X97520000Y-125044819D02*
X97662857Y-125092438D01*
X97662857Y-125092438D02*
X97758095Y-125187676D01*
X97758095Y-125187676D02*
X97805714Y-125282914D01*
X97805714Y-125282914D02*
X97853333Y-125473390D01*
X97853333Y-125473390D02*
X97853333Y-125616247D01*
X97853333Y-125616247D02*
X97805714Y-125806723D01*
X97805714Y-125806723D02*
X97758095Y-125901961D01*
X97758095Y-125901961D02*
X97662857Y-125997200D01*
X97662857Y-125997200D02*
X97520000Y-126044819D01*
X97520000Y-126044819D02*
X97281905Y-126044819D01*
X98805714Y-126044819D02*
X98234286Y-126044819D01*
X98520000Y-126044819D02*
X98520000Y-125044819D01*
X98520000Y-125044819D02*
X98424762Y-125187676D01*
X98424762Y-125187676D02*
X98329524Y-125282914D01*
X98329524Y-125282914D02*
X98234286Y-125330533D01*
X71036666Y-123234819D02*
X71036666Y-123949104D01*
X71036666Y-123949104D02*
X70989047Y-124091961D01*
X70989047Y-124091961D02*
X70893809Y-124187200D01*
X70893809Y-124187200D02*
X70750952Y-124234819D01*
X70750952Y-124234819D02*
X70655714Y-124234819D01*
X72036666Y-124234819D02*
X71465238Y-124234819D01*
X71750952Y-124234819D02*
X71750952Y-123234819D01*
X71750952Y-123234819D02*
X71655714Y-123377676D01*
X71655714Y-123377676D02*
X71560476Y-123472914D01*
X71560476Y-123472914D02*
X71465238Y-123520533D01*
X92867142Y-123234819D02*
X92533809Y-122758628D01*
X92295714Y-123234819D02*
X92295714Y-122234819D01*
X92295714Y-122234819D02*
X92676666Y-122234819D01*
X92676666Y-122234819D02*
X92771904Y-122282438D01*
X92771904Y-122282438D02*
X92819523Y-122330057D01*
X92819523Y-122330057D02*
X92867142Y-122425295D01*
X92867142Y-122425295D02*
X92867142Y-122568152D01*
X92867142Y-122568152D02*
X92819523Y-122663390D01*
X92819523Y-122663390D02*
X92771904Y-122711009D01*
X92771904Y-122711009D02*
X92676666Y-122758628D01*
X92676666Y-122758628D02*
X92295714Y-122758628D01*
X93819523Y-123234819D02*
X93248095Y-123234819D01*
X93533809Y-123234819D02*
X93533809Y-122234819D01*
X93533809Y-122234819D02*
X93438571Y-122377676D01*
X93438571Y-122377676D02*
X93343333Y-122472914D01*
X93343333Y-122472914D02*
X93248095Y-122520533D01*
X94724285Y-122234819D02*
X94248095Y-122234819D01*
X94248095Y-122234819D02*
X94200476Y-122711009D01*
X94200476Y-122711009D02*
X94248095Y-122663390D01*
X94248095Y-122663390D02*
X94343333Y-122615771D01*
X94343333Y-122615771D02*
X94581428Y-122615771D01*
X94581428Y-122615771D02*
X94676666Y-122663390D01*
X94676666Y-122663390D02*
X94724285Y-122711009D01*
X94724285Y-122711009D02*
X94771904Y-122806247D01*
X94771904Y-122806247D02*
X94771904Y-123044342D01*
X94771904Y-123044342D02*
X94724285Y-123139580D01*
X94724285Y-123139580D02*
X94676666Y-123187200D01*
X94676666Y-123187200D02*
X94581428Y-123234819D01*
X94581428Y-123234819D02*
X94343333Y-123234819D01*
X94343333Y-123234819D02*
X94248095Y-123187200D01*
X94248095Y-123187200D02*
X94200476Y-123139580D01*
X70846666Y-104694819D02*
X70846666Y-105409104D01*
X70846666Y-105409104D02*
X70799047Y-105551961D01*
X70799047Y-105551961D02*
X70703809Y-105647200D01*
X70703809Y-105647200D02*
X70560952Y-105694819D01*
X70560952Y-105694819D02*
X70465714Y-105694819D01*
X71751428Y-104694819D02*
X71560952Y-104694819D01*
X71560952Y-104694819D02*
X71465714Y-104742438D01*
X71465714Y-104742438D02*
X71418095Y-104790057D01*
X71418095Y-104790057D02*
X71322857Y-104932914D01*
X71322857Y-104932914D02*
X71275238Y-105123390D01*
X71275238Y-105123390D02*
X71275238Y-105504342D01*
X71275238Y-105504342D02*
X71322857Y-105599580D01*
X71322857Y-105599580D02*
X71370476Y-105647200D01*
X71370476Y-105647200D02*
X71465714Y-105694819D01*
X71465714Y-105694819D02*
X71656190Y-105694819D01*
X71656190Y-105694819D02*
X71751428Y-105647200D01*
X71751428Y-105647200D02*
X71799047Y-105599580D01*
X71799047Y-105599580D02*
X71846666Y-105504342D01*
X71846666Y-105504342D02*
X71846666Y-105266247D01*
X71846666Y-105266247D02*
X71799047Y-105171009D01*
X71799047Y-105171009D02*
X71751428Y-105123390D01*
X71751428Y-105123390D02*
X71656190Y-105075771D01*
X71656190Y-105075771D02*
X71465714Y-105075771D01*
X71465714Y-105075771D02*
X71370476Y-105123390D01*
X71370476Y-105123390D02*
X71322857Y-105171009D01*
X71322857Y-105171009D02*
X71275238Y-105266247D01*
X104367142Y-71619580D02*
X104319523Y-71667200D01*
X104319523Y-71667200D02*
X104176666Y-71714819D01*
X104176666Y-71714819D02*
X104081428Y-71714819D01*
X104081428Y-71714819D02*
X103938571Y-71667200D01*
X103938571Y-71667200D02*
X103843333Y-71571961D01*
X103843333Y-71571961D02*
X103795714Y-71476723D01*
X103795714Y-71476723D02*
X103748095Y-71286247D01*
X103748095Y-71286247D02*
X103748095Y-71143390D01*
X103748095Y-71143390D02*
X103795714Y-70952914D01*
X103795714Y-70952914D02*
X103843333Y-70857676D01*
X103843333Y-70857676D02*
X103938571Y-70762438D01*
X103938571Y-70762438D02*
X104081428Y-70714819D01*
X104081428Y-70714819D02*
X104176666Y-70714819D01*
X104176666Y-70714819D02*
X104319523Y-70762438D01*
X104319523Y-70762438D02*
X104367142Y-70810057D01*
X105224285Y-71048152D02*
X105224285Y-71714819D01*
X104986190Y-70667200D02*
X104748095Y-71381485D01*
X104748095Y-71381485D02*
X105367142Y-71381485D01*
X106271904Y-71714819D02*
X105700476Y-71714819D01*
X105986190Y-71714819D02*
X105986190Y-70714819D01*
X105986190Y-70714819D02*
X105890952Y-70857676D01*
X105890952Y-70857676D02*
X105795714Y-70952914D01*
X105795714Y-70952914D02*
X105700476Y-71000533D01*
X70716666Y-115994819D02*
X70716666Y-116709104D01*
X70716666Y-116709104D02*
X70669047Y-116851961D01*
X70669047Y-116851961D02*
X70573809Y-116947200D01*
X70573809Y-116947200D02*
X70430952Y-116994819D01*
X70430952Y-116994819D02*
X70335714Y-116994819D01*
X71621428Y-116328152D02*
X71621428Y-116994819D01*
X71383333Y-115947200D02*
X71145238Y-116661485D01*
X71145238Y-116661485D02*
X71764285Y-116661485D01*
X90359819Y-86766666D02*
X89883628Y-87099999D01*
X90359819Y-87338094D02*
X89359819Y-87338094D01*
X89359819Y-87338094D02*
X89359819Y-86957142D01*
X89359819Y-86957142D02*
X89407438Y-86861904D01*
X89407438Y-86861904D02*
X89455057Y-86814285D01*
X89455057Y-86814285D02*
X89550295Y-86766666D01*
X89550295Y-86766666D02*
X89693152Y-86766666D01*
X89693152Y-86766666D02*
X89788390Y-86814285D01*
X89788390Y-86814285D02*
X89836009Y-86861904D01*
X89836009Y-86861904D02*
X89883628Y-86957142D01*
X89883628Y-86957142D02*
X89883628Y-87338094D01*
X89359819Y-86433332D02*
X89359819Y-85814285D01*
X89359819Y-85814285D02*
X89740771Y-86147618D01*
X89740771Y-86147618D02*
X89740771Y-86004761D01*
X89740771Y-86004761D02*
X89788390Y-85909523D01*
X89788390Y-85909523D02*
X89836009Y-85861904D01*
X89836009Y-85861904D02*
X89931247Y-85814285D01*
X89931247Y-85814285D02*
X90169342Y-85814285D01*
X90169342Y-85814285D02*
X90264580Y-85861904D01*
X90264580Y-85861904D02*
X90312200Y-85909523D01*
X90312200Y-85909523D02*
X90359819Y-86004761D01*
X90359819Y-86004761D02*
X90359819Y-86290475D01*
X90359819Y-86290475D02*
X90312200Y-86385713D01*
X90312200Y-86385713D02*
X90264580Y-86433332D01*
X73243809Y-113628628D02*
X73243809Y-114104819D01*
X72910476Y-113104819D02*
X73243809Y-113628628D01*
X73243809Y-113628628D02*
X73577142Y-113104819D01*
X74434285Y-114104819D02*
X73862857Y-114104819D01*
X74148571Y-114104819D02*
X74148571Y-113104819D01*
X74148571Y-113104819D02*
X74053333Y-113247676D01*
X74053333Y-113247676D02*
X73958095Y-113342914D01*
X73958095Y-113342914D02*
X73862857Y-113390533D01*
X67216667Y-83657200D02*
X67359524Y-83704819D01*
X67359524Y-83704819D02*
X67597619Y-83704819D01*
X67597619Y-83704819D02*
X67692857Y-83657200D01*
X67692857Y-83657200D02*
X67740476Y-83609580D01*
X67740476Y-83609580D02*
X67788095Y-83514342D01*
X67788095Y-83514342D02*
X67788095Y-83419104D01*
X67788095Y-83419104D02*
X67740476Y-83323866D01*
X67740476Y-83323866D02*
X67692857Y-83276247D01*
X67692857Y-83276247D02*
X67597619Y-83228628D01*
X67597619Y-83228628D02*
X67407143Y-83181009D01*
X67407143Y-83181009D02*
X67311905Y-83133390D01*
X67311905Y-83133390D02*
X67264286Y-83085771D01*
X67264286Y-83085771D02*
X67216667Y-82990533D01*
X67216667Y-82990533D02*
X67216667Y-82895295D01*
X67216667Y-82895295D02*
X67264286Y-82800057D01*
X67264286Y-82800057D02*
X67311905Y-82752438D01*
X67311905Y-82752438D02*
X67407143Y-82704819D01*
X67407143Y-82704819D02*
X67645238Y-82704819D01*
X67645238Y-82704819D02*
X67788095Y-82752438D01*
X68121429Y-82704819D02*
X68359524Y-83704819D01*
X68359524Y-83704819D02*
X68550000Y-82990533D01*
X68550000Y-82990533D02*
X68740476Y-83704819D01*
X68740476Y-83704819D02*
X68978572Y-82704819D01*
X69883333Y-83704819D02*
X69311905Y-83704819D01*
X69597619Y-83704819D02*
X69597619Y-82704819D01*
X69597619Y-82704819D02*
X69502381Y-82847676D01*
X69502381Y-82847676D02*
X69407143Y-82942914D01*
X69407143Y-82942914D02*
X69311905Y-82990533D01*
X81784819Y-86906666D02*
X81308628Y-87239999D01*
X81784819Y-87478094D02*
X80784819Y-87478094D01*
X80784819Y-87478094D02*
X80784819Y-87097142D01*
X80784819Y-87097142D02*
X80832438Y-87001904D01*
X80832438Y-87001904D02*
X80880057Y-86954285D01*
X80880057Y-86954285D02*
X80975295Y-86906666D01*
X80975295Y-86906666D02*
X81118152Y-86906666D01*
X81118152Y-86906666D02*
X81213390Y-86954285D01*
X81213390Y-86954285D02*
X81261009Y-87001904D01*
X81261009Y-87001904D02*
X81308628Y-87097142D01*
X81308628Y-87097142D02*
X81308628Y-87478094D01*
X80784819Y-86049523D02*
X80784819Y-86239999D01*
X80784819Y-86239999D02*
X80832438Y-86335237D01*
X80832438Y-86335237D02*
X80880057Y-86382856D01*
X80880057Y-86382856D02*
X81022914Y-86478094D01*
X81022914Y-86478094D02*
X81213390Y-86525713D01*
X81213390Y-86525713D02*
X81594342Y-86525713D01*
X81594342Y-86525713D02*
X81689580Y-86478094D01*
X81689580Y-86478094D02*
X81737200Y-86430475D01*
X81737200Y-86430475D02*
X81784819Y-86335237D01*
X81784819Y-86335237D02*
X81784819Y-86144761D01*
X81784819Y-86144761D02*
X81737200Y-86049523D01*
X81737200Y-86049523D02*
X81689580Y-86001904D01*
X81689580Y-86001904D02*
X81594342Y-85954285D01*
X81594342Y-85954285D02*
X81356247Y-85954285D01*
X81356247Y-85954285D02*
X81261009Y-86001904D01*
X81261009Y-86001904D02*
X81213390Y-86049523D01*
X81213390Y-86049523D02*
X81165771Y-86144761D01*
X81165771Y-86144761D02*
X81165771Y-86335237D01*
X81165771Y-86335237D02*
X81213390Y-86430475D01*
X81213390Y-86430475D02*
X81261009Y-86478094D01*
X81261009Y-86478094D02*
X81356247Y-86525713D01*
X88933333Y-84299819D02*
X88600000Y-83823628D01*
X88361905Y-84299819D02*
X88361905Y-83299819D01*
X88361905Y-83299819D02*
X88742857Y-83299819D01*
X88742857Y-83299819D02*
X88838095Y-83347438D01*
X88838095Y-83347438D02*
X88885714Y-83395057D01*
X88885714Y-83395057D02*
X88933333Y-83490295D01*
X88933333Y-83490295D02*
X88933333Y-83633152D01*
X88933333Y-83633152D02*
X88885714Y-83728390D01*
X88885714Y-83728390D02*
X88838095Y-83776009D01*
X88838095Y-83776009D02*
X88742857Y-83823628D01*
X88742857Y-83823628D02*
X88361905Y-83823628D01*
X89314286Y-83395057D02*
X89361905Y-83347438D01*
X89361905Y-83347438D02*
X89457143Y-83299819D01*
X89457143Y-83299819D02*
X89695238Y-83299819D01*
X89695238Y-83299819D02*
X89790476Y-83347438D01*
X89790476Y-83347438D02*
X89838095Y-83395057D01*
X89838095Y-83395057D02*
X89885714Y-83490295D01*
X89885714Y-83490295D02*
X89885714Y-83585533D01*
X89885714Y-83585533D02*
X89838095Y-83728390D01*
X89838095Y-83728390D02*
X89266667Y-84299819D01*
X89266667Y-84299819D02*
X89885714Y-84299819D01*
X77223333Y-74779580D02*
X77175714Y-74827200D01*
X77175714Y-74827200D02*
X77032857Y-74874819D01*
X77032857Y-74874819D02*
X76937619Y-74874819D01*
X76937619Y-74874819D02*
X76794762Y-74827200D01*
X76794762Y-74827200D02*
X76699524Y-74731961D01*
X76699524Y-74731961D02*
X76651905Y-74636723D01*
X76651905Y-74636723D02*
X76604286Y-74446247D01*
X76604286Y-74446247D02*
X76604286Y-74303390D01*
X76604286Y-74303390D02*
X76651905Y-74112914D01*
X76651905Y-74112914D02*
X76699524Y-74017676D01*
X76699524Y-74017676D02*
X76794762Y-73922438D01*
X76794762Y-73922438D02*
X76937619Y-73874819D01*
X76937619Y-73874819D02*
X77032857Y-73874819D01*
X77032857Y-73874819D02*
X77175714Y-73922438D01*
X77175714Y-73922438D02*
X77223333Y-73970057D01*
X78175714Y-74874819D02*
X77604286Y-74874819D01*
X77890000Y-74874819D02*
X77890000Y-73874819D01*
X77890000Y-73874819D02*
X77794762Y-74017676D01*
X77794762Y-74017676D02*
X77699524Y-74112914D01*
X77699524Y-74112914D02*
X77604286Y-74160533D01*
X75519819Y-87066666D02*
X75043628Y-87399999D01*
X75519819Y-87638094D02*
X74519819Y-87638094D01*
X74519819Y-87638094D02*
X74519819Y-87257142D01*
X74519819Y-87257142D02*
X74567438Y-87161904D01*
X74567438Y-87161904D02*
X74615057Y-87114285D01*
X74615057Y-87114285D02*
X74710295Y-87066666D01*
X74710295Y-87066666D02*
X74853152Y-87066666D01*
X74853152Y-87066666D02*
X74948390Y-87114285D01*
X74948390Y-87114285D02*
X74996009Y-87161904D01*
X74996009Y-87161904D02*
X75043628Y-87257142D01*
X75043628Y-87257142D02*
X75043628Y-87638094D01*
X74948390Y-86495237D02*
X74900771Y-86590475D01*
X74900771Y-86590475D02*
X74853152Y-86638094D01*
X74853152Y-86638094D02*
X74757914Y-86685713D01*
X74757914Y-86685713D02*
X74710295Y-86685713D01*
X74710295Y-86685713D02*
X74615057Y-86638094D01*
X74615057Y-86638094D02*
X74567438Y-86590475D01*
X74567438Y-86590475D02*
X74519819Y-86495237D01*
X74519819Y-86495237D02*
X74519819Y-86304761D01*
X74519819Y-86304761D02*
X74567438Y-86209523D01*
X74567438Y-86209523D02*
X74615057Y-86161904D01*
X74615057Y-86161904D02*
X74710295Y-86114285D01*
X74710295Y-86114285D02*
X74757914Y-86114285D01*
X74757914Y-86114285D02*
X74853152Y-86161904D01*
X74853152Y-86161904D02*
X74900771Y-86209523D01*
X74900771Y-86209523D02*
X74948390Y-86304761D01*
X74948390Y-86304761D02*
X74948390Y-86495237D01*
X74948390Y-86495237D02*
X74996009Y-86590475D01*
X74996009Y-86590475D02*
X75043628Y-86638094D01*
X75043628Y-86638094D02*
X75138866Y-86685713D01*
X75138866Y-86685713D02*
X75329342Y-86685713D01*
X75329342Y-86685713D02*
X75424580Y-86638094D01*
X75424580Y-86638094D02*
X75472200Y-86590475D01*
X75472200Y-86590475D02*
X75519819Y-86495237D01*
X75519819Y-86495237D02*
X75519819Y-86304761D01*
X75519819Y-86304761D02*
X75472200Y-86209523D01*
X75472200Y-86209523D02*
X75424580Y-86161904D01*
X75424580Y-86161904D02*
X75329342Y-86114285D01*
X75329342Y-86114285D02*
X75138866Y-86114285D01*
X75138866Y-86114285D02*
X75043628Y-86161904D01*
X75043628Y-86161904D02*
X74996009Y-86209523D01*
X74996009Y-86209523D02*
X74948390Y-86304761D01*
X92767142Y-73614819D02*
X92433809Y-73138628D01*
X92195714Y-73614819D02*
X92195714Y-72614819D01*
X92195714Y-72614819D02*
X92576666Y-72614819D01*
X92576666Y-72614819D02*
X92671904Y-72662438D01*
X92671904Y-72662438D02*
X92719523Y-72710057D01*
X92719523Y-72710057D02*
X92767142Y-72805295D01*
X92767142Y-72805295D02*
X92767142Y-72948152D01*
X92767142Y-72948152D02*
X92719523Y-73043390D01*
X92719523Y-73043390D02*
X92671904Y-73091009D01*
X92671904Y-73091009D02*
X92576666Y-73138628D01*
X92576666Y-73138628D02*
X92195714Y-73138628D01*
X93719523Y-73614819D02*
X93148095Y-73614819D01*
X93433809Y-73614819D02*
X93433809Y-72614819D01*
X93433809Y-72614819D02*
X93338571Y-72757676D01*
X93338571Y-72757676D02*
X93243333Y-72852914D01*
X93243333Y-72852914D02*
X93148095Y-72900533D01*
X94671904Y-73614819D02*
X94100476Y-73614819D01*
X94386190Y-73614819D02*
X94386190Y-72614819D01*
X94386190Y-72614819D02*
X94290952Y-72757676D01*
X94290952Y-72757676D02*
X94195714Y-72852914D01*
X94195714Y-72852914D02*
X94100476Y-72900533D01*
X77273333Y-71824819D02*
X76940000Y-71348628D01*
X76701905Y-71824819D02*
X76701905Y-70824819D01*
X76701905Y-70824819D02*
X77082857Y-70824819D01*
X77082857Y-70824819D02*
X77178095Y-70872438D01*
X77178095Y-70872438D02*
X77225714Y-70920057D01*
X77225714Y-70920057D02*
X77273333Y-71015295D01*
X77273333Y-71015295D02*
X77273333Y-71158152D01*
X77273333Y-71158152D02*
X77225714Y-71253390D01*
X77225714Y-71253390D02*
X77178095Y-71301009D01*
X77178095Y-71301009D02*
X77082857Y-71348628D01*
X77082857Y-71348628D02*
X76701905Y-71348628D01*
X78225714Y-71824819D02*
X77654286Y-71824819D01*
X77940000Y-71824819D02*
X77940000Y-70824819D01*
X77940000Y-70824819D02*
X77844762Y-70967676D01*
X77844762Y-70967676D02*
X77749524Y-71062914D01*
X77749524Y-71062914D02*
X77654286Y-71110533D01*
X77019819Y-87016666D02*
X76543628Y-87349999D01*
X77019819Y-87588094D02*
X76019819Y-87588094D01*
X76019819Y-87588094D02*
X76019819Y-87207142D01*
X76019819Y-87207142D02*
X76067438Y-87111904D01*
X76067438Y-87111904D02*
X76115057Y-87064285D01*
X76115057Y-87064285D02*
X76210295Y-87016666D01*
X76210295Y-87016666D02*
X76353152Y-87016666D01*
X76353152Y-87016666D02*
X76448390Y-87064285D01*
X76448390Y-87064285D02*
X76496009Y-87111904D01*
X76496009Y-87111904D02*
X76543628Y-87207142D01*
X76543628Y-87207142D02*
X76543628Y-87588094D01*
X76019819Y-86683332D02*
X76019819Y-86016666D01*
X76019819Y-86016666D02*
X77019819Y-86445237D01*
X94916666Y-125674819D02*
X94916666Y-126389104D01*
X94916666Y-126389104D02*
X94869047Y-126531961D01*
X94869047Y-126531961D02*
X94773809Y-126627200D01*
X94773809Y-126627200D02*
X94630952Y-126674819D01*
X94630952Y-126674819D02*
X94535714Y-126674819D01*
X95297619Y-125674819D02*
X95916666Y-125674819D01*
X95916666Y-125674819D02*
X95583333Y-126055771D01*
X95583333Y-126055771D02*
X95726190Y-126055771D01*
X95726190Y-126055771D02*
X95821428Y-126103390D01*
X95821428Y-126103390D02*
X95869047Y-126151009D01*
X95869047Y-126151009D02*
X95916666Y-126246247D01*
X95916666Y-126246247D02*
X95916666Y-126484342D01*
X95916666Y-126484342D02*
X95869047Y-126579580D01*
X95869047Y-126579580D02*
X95821428Y-126627200D01*
X95821428Y-126627200D02*
X95726190Y-126674819D01*
X95726190Y-126674819D02*
X95440476Y-126674819D01*
X95440476Y-126674819D02*
X95345238Y-126627200D01*
X95345238Y-126627200D02*
X95297619Y-126579580D01*
X94607142Y-118754819D02*
X94273809Y-118278628D01*
X94035714Y-118754819D02*
X94035714Y-117754819D01*
X94035714Y-117754819D02*
X94416666Y-117754819D01*
X94416666Y-117754819D02*
X94511904Y-117802438D01*
X94511904Y-117802438D02*
X94559523Y-117850057D01*
X94559523Y-117850057D02*
X94607142Y-117945295D01*
X94607142Y-117945295D02*
X94607142Y-118088152D01*
X94607142Y-118088152D02*
X94559523Y-118183390D01*
X94559523Y-118183390D02*
X94511904Y-118231009D01*
X94511904Y-118231009D02*
X94416666Y-118278628D01*
X94416666Y-118278628D02*
X94035714Y-118278628D01*
X95559523Y-118754819D02*
X94988095Y-118754819D01*
X95273809Y-118754819D02*
X95273809Y-117754819D01*
X95273809Y-117754819D02*
X95178571Y-117897676D01*
X95178571Y-117897676D02*
X95083333Y-117992914D01*
X95083333Y-117992914D02*
X94988095Y-118040533D01*
X95892857Y-117754819D02*
X96511904Y-117754819D01*
X96511904Y-117754819D02*
X96178571Y-118135771D01*
X96178571Y-118135771D02*
X96321428Y-118135771D01*
X96321428Y-118135771D02*
X96416666Y-118183390D01*
X96416666Y-118183390D02*
X96464285Y-118231009D01*
X96464285Y-118231009D02*
X96511904Y-118326247D01*
X96511904Y-118326247D02*
X96511904Y-118564342D01*
X96511904Y-118564342D02*
X96464285Y-118659580D01*
X96464285Y-118659580D02*
X96416666Y-118707200D01*
X96416666Y-118707200D02*
X96321428Y-118754819D01*
X96321428Y-118754819D02*
X96035714Y-118754819D01*
X96035714Y-118754819D02*
X95940476Y-118707200D01*
X95940476Y-118707200D02*
X95892857Y-118659580D01*
X90152142Y-110309580D02*
X90104523Y-110357200D01*
X90104523Y-110357200D02*
X89961666Y-110404819D01*
X89961666Y-110404819D02*
X89866428Y-110404819D01*
X89866428Y-110404819D02*
X89723571Y-110357200D01*
X89723571Y-110357200D02*
X89628333Y-110261961D01*
X89628333Y-110261961D02*
X89580714Y-110166723D01*
X89580714Y-110166723D02*
X89533095Y-109976247D01*
X89533095Y-109976247D02*
X89533095Y-109833390D01*
X89533095Y-109833390D02*
X89580714Y-109642914D01*
X89580714Y-109642914D02*
X89628333Y-109547676D01*
X89628333Y-109547676D02*
X89723571Y-109452438D01*
X89723571Y-109452438D02*
X89866428Y-109404819D01*
X89866428Y-109404819D02*
X89961666Y-109404819D01*
X89961666Y-109404819D02*
X90104523Y-109452438D01*
X90104523Y-109452438D02*
X90152142Y-109500057D01*
X91104523Y-110404819D02*
X90533095Y-110404819D01*
X90818809Y-110404819D02*
X90818809Y-109404819D01*
X90818809Y-109404819D02*
X90723571Y-109547676D01*
X90723571Y-109547676D02*
X90628333Y-109642914D01*
X90628333Y-109642914D02*
X90533095Y-109690533D01*
X91675952Y-109833390D02*
X91580714Y-109785771D01*
X91580714Y-109785771D02*
X91533095Y-109738152D01*
X91533095Y-109738152D02*
X91485476Y-109642914D01*
X91485476Y-109642914D02*
X91485476Y-109595295D01*
X91485476Y-109595295D02*
X91533095Y-109500057D01*
X91533095Y-109500057D02*
X91580714Y-109452438D01*
X91580714Y-109452438D02*
X91675952Y-109404819D01*
X91675952Y-109404819D02*
X91866428Y-109404819D01*
X91866428Y-109404819D02*
X91961666Y-109452438D01*
X91961666Y-109452438D02*
X92009285Y-109500057D01*
X92009285Y-109500057D02*
X92056904Y-109595295D01*
X92056904Y-109595295D02*
X92056904Y-109642914D01*
X92056904Y-109642914D02*
X92009285Y-109738152D01*
X92009285Y-109738152D02*
X91961666Y-109785771D01*
X91961666Y-109785771D02*
X91866428Y-109833390D01*
X91866428Y-109833390D02*
X91675952Y-109833390D01*
X91675952Y-109833390D02*
X91580714Y-109881009D01*
X91580714Y-109881009D02*
X91533095Y-109928628D01*
X91533095Y-109928628D02*
X91485476Y-110023866D01*
X91485476Y-110023866D02*
X91485476Y-110214342D01*
X91485476Y-110214342D02*
X91533095Y-110309580D01*
X91533095Y-110309580D02*
X91580714Y-110357200D01*
X91580714Y-110357200D02*
X91675952Y-110404819D01*
X91675952Y-110404819D02*
X91866428Y-110404819D01*
X91866428Y-110404819D02*
X91961666Y-110357200D01*
X91961666Y-110357200D02*
X92009285Y-110309580D01*
X92009285Y-110309580D02*
X92056904Y-110214342D01*
X92056904Y-110214342D02*
X92056904Y-110023866D01*
X92056904Y-110023866D02*
X92009285Y-109928628D01*
X92009285Y-109928628D02*
X91961666Y-109881009D01*
X91961666Y-109881009D02*
X91866428Y-109833390D01*
X92598095Y-97814819D02*
X92598095Y-98624342D01*
X92598095Y-98624342D02*
X92645714Y-98719580D01*
X92645714Y-98719580D02*
X92693333Y-98767200D01*
X92693333Y-98767200D02*
X92788571Y-98814819D01*
X92788571Y-98814819D02*
X92979047Y-98814819D01*
X92979047Y-98814819D02*
X93074285Y-98767200D01*
X93074285Y-98767200D02*
X93121904Y-98719580D01*
X93121904Y-98719580D02*
X93169523Y-98624342D01*
X93169523Y-98624342D02*
X93169523Y-97814819D01*
X94121904Y-97814819D02*
X93645714Y-97814819D01*
X93645714Y-97814819D02*
X93598095Y-98291009D01*
X93598095Y-98291009D02*
X93645714Y-98243390D01*
X93645714Y-98243390D02*
X93740952Y-98195771D01*
X93740952Y-98195771D02*
X93979047Y-98195771D01*
X93979047Y-98195771D02*
X94074285Y-98243390D01*
X94074285Y-98243390D02*
X94121904Y-98291009D01*
X94121904Y-98291009D02*
X94169523Y-98386247D01*
X94169523Y-98386247D02*
X94169523Y-98624342D01*
X94169523Y-98624342D02*
X94121904Y-98719580D01*
X94121904Y-98719580D02*
X94074285Y-98767200D01*
X94074285Y-98767200D02*
X93979047Y-98814819D01*
X93979047Y-98814819D02*
X93740952Y-98814819D01*
X93740952Y-98814819D02*
X93645714Y-98767200D01*
X93645714Y-98767200D02*
X93598095Y-98719580D01*
X78474580Y-86966666D02*
X78522200Y-87014285D01*
X78522200Y-87014285D02*
X78569819Y-87157142D01*
X78569819Y-87157142D02*
X78569819Y-87252380D01*
X78569819Y-87252380D02*
X78522200Y-87395237D01*
X78522200Y-87395237D02*
X78426961Y-87490475D01*
X78426961Y-87490475D02*
X78331723Y-87538094D01*
X78331723Y-87538094D02*
X78141247Y-87585713D01*
X78141247Y-87585713D02*
X77998390Y-87585713D01*
X77998390Y-87585713D02*
X77807914Y-87538094D01*
X77807914Y-87538094D02*
X77712676Y-87490475D01*
X77712676Y-87490475D02*
X77617438Y-87395237D01*
X77617438Y-87395237D02*
X77569819Y-87252380D01*
X77569819Y-87252380D02*
X77569819Y-87157142D01*
X77569819Y-87157142D02*
X77617438Y-87014285D01*
X77617438Y-87014285D02*
X77665057Y-86966666D01*
X77569819Y-86633332D02*
X77569819Y-85966666D01*
X77569819Y-85966666D02*
X78569819Y-86395237D01*
X76108095Y-76244819D02*
X76108095Y-77054342D01*
X76108095Y-77054342D02*
X76155714Y-77149580D01*
X76155714Y-77149580D02*
X76203333Y-77197200D01*
X76203333Y-77197200D02*
X76298571Y-77244819D01*
X76298571Y-77244819D02*
X76489047Y-77244819D01*
X76489047Y-77244819D02*
X76584285Y-77197200D01*
X76584285Y-77197200D02*
X76631904Y-77149580D01*
X76631904Y-77149580D02*
X76679523Y-77054342D01*
X76679523Y-77054342D02*
X76679523Y-76244819D01*
X77679523Y-77244819D02*
X77108095Y-77244819D01*
X77393809Y-77244819D02*
X77393809Y-76244819D01*
X77393809Y-76244819D02*
X77298571Y-76387676D01*
X77298571Y-76387676D02*
X77203333Y-76482914D01*
X77203333Y-76482914D02*
X77108095Y-76530533D01*
X98514580Y-86501666D02*
X98562200Y-86549285D01*
X98562200Y-86549285D02*
X98609819Y-86692142D01*
X98609819Y-86692142D02*
X98609819Y-86787380D01*
X98609819Y-86787380D02*
X98562200Y-86930237D01*
X98562200Y-86930237D02*
X98466961Y-87025475D01*
X98466961Y-87025475D02*
X98371723Y-87073094D01*
X98371723Y-87073094D02*
X98181247Y-87120713D01*
X98181247Y-87120713D02*
X98038390Y-87120713D01*
X98038390Y-87120713D02*
X97847914Y-87073094D01*
X97847914Y-87073094D02*
X97752676Y-87025475D01*
X97752676Y-87025475D02*
X97657438Y-86930237D01*
X97657438Y-86930237D02*
X97609819Y-86787380D01*
X97609819Y-86787380D02*
X97609819Y-86692142D01*
X97609819Y-86692142D02*
X97657438Y-86549285D01*
X97657438Y-86549285D02*
X97705057Y-86501666D01*
X98038390Y-85930237D02*
X97990771Y-86025475D01*
X97990771Y-86025475D02*
X97943152Y-86073094D01*
X97943152Y-86073094D02*
X97847914Y-86120713D01*
X97847914Y-86120713D02*
X97800295Y-86120713D01*
X97800295Y-86120713D02*
X97705057Y-86073094D01*
X97705057Y-86073094D02*
X97657438Y-86025475D01*
X97657438Y-86025475D02*
X97609819Y-85930237D01*
X97609819Y-85930237D02*
X97609819Y-85739761D01*
X97609819Y-85739761D02*
X97657438Y-85644523D01*
X97657438Y-85644523D02*
X97705057Y-85596904D01*
X97705057Y-85596904D02*
X97800295Y-85549285D01*
X97800295Y-85549285D02*
X97847914Y-85549285D01*
X97847914Y-85549285D02*
X97943152Y-85596904D01*
X97943152Y-85596904D02*
X97990771Y-85644523D01*
X97990771Y-85644523D02*
X98038390Y-85739761D01*
X98038390Y-85739761D02*
X98038390Y-85930237D01*
X98038390Y-85930237D02*
X98086009Y-86025475D01*
X98086009Y-86025475D02*
X98133628Y-86073094D01*
X98133628Y-86073094D02*
X98228866Y-86120713D01*
X98228866Y-86120713D02*
X98419342Y-86120713D01*
X98419342Y-86120713D02*
X98514580Y-86073094D01*
X98514580Y-86073094D02*
X98562200Y-86025475D01*
X98562200Y-86025475D02*
X98609819Y-85930237D01*
X98609819Y-85930237D02*
X98609819Y-85739761D01*
X98609819Y-85739761D02*
X98562200Y-85644523D01*
X98562200Y-85644523D02*
X98514580Y-85596904D01*
X98514580Y-85596904D02*
X98419342Y-85549285D01*
X98419342Y-85549285D02*
X98228866Y-85549285D01*
X98228866Y-85549285D02*
X98133628Y-85596904D01*
X98133628Y-85596904D02*
X98086009Y-85644523D01*
X98086009Y-85644523D02*
X98038390Y-85739761D01*
X73098095Y-98364819D02*
X73098095Y-99174342D01*
X73098095Y-99174342D02*
X73145714Y-99269580D01*
X73145714Y-99269580D02*
X73193333Y-99317200D01*
X73193333Y-99317200D02*
X73288571Y-99364819D01*
X73288571Y-99364819D02*
X73479047Y-99364819D01*
X73479047Y-99364819D02*
X73574285Y-99317200D01*
X73574285Y-99317200D02*
X73621904Y-99269580D01*
X73621904Y-99269580D02*
X73669523Y-99174342D01*
X73669523Y-99174342D02*
X73669523Y-98364819D01*
X74574285Y-98698152D02*
X74574285Y-99364819D01*
X74336190Y-98317200D02*
X74098095Y-99031485D01*
X74098095Y-99031485D02*
X74717142Y-99031485D01*
X82219580Y-107472857D02*
X82267200Y-107520476D01*
X82267200Y-107520476D02*
X82314819Y-107663333D01*
X82314819Y-107663333D02*
X82314819Y-107758571D01*
X82314819Y-107758571D02*
X82267200Y-107901428D01*
X82267200Y-107901428D02*
X82171961Y-107996666D01*
X82171961Y-107996666D02*
X82076723Y-108044285D01*
X82076723Y-108044285D02*
X81886247Y-108091904D01*
X81886247Y-108091904D02*
X81743390Y-108091904D01*
X81743390Y-108091904D02*
X81552914Y-108044285D01*
X81552914Y-108044285D02*
X81457676Y-107996666D01*
X81457676Y-107996666D02*
X81362438Y-107901428D01*
X81362438Y-107901428D02*
X81314819Y-107758571D01*
X81314819Y-107758571D02*
X81314819Y-107663333D01*
X81314819Y-107663333D02*
X81362438Y-107520476D01*
X81362438Y-107520476D02*
X81410057Y-107472857D01*
X82314819Y-106520476D02*
X82314819Y-107091904D01*
X82314819Y-106806190D02*
X81314819Y-106806190D01*
X81314819Y-106806190D02*
X81457676Y-106901428D01*
X81457676Y-106901428D02*
X81552914Y-106996666D01*
X81552914Y-106996666D02*
X81600533Y-107091904D01*
X81314819Y-106187142D02*
X81314819Y-105520476D01*
X81314819Y-105520476D02*
X82314819Y-105949047D01*
X71964819Y-94532857D02*
X71488628Y-94866190D01*
X71964819Y-95104285D02*
X70964819Y-95104285D01*
X70964819Y-95104285D02*
X70964819Y-94723333D01*
X70964819Y-94723333D02*
X71012438Y-94628095D01*
X71012438Y-94628095D02*
X71060057Y-94580476D01*
X71060057Y-94580476D02*
X71155295Y-94532857D01*
X71155295Y-94532857D02*
X71298152Y-94532857D01*
X71298152Y-94532857D02*
X71393390Y-94580476D01*
X71393390Y-94580476D02*
X71441009Y-94628095D01*
X71441009Y-94628095D02*
X71488628Y-94723333D01*
X71488628Y-94723333D02*
X71488628Y-95104285D01*
X71964819Y-93580476D02*
X71964819Y-94151904D01*
X71964819Y-93866190D02*
X70964819Y-93866190D01*
X70964819Y-93866190D02*
X71107676Y-93961428D01*
X71107676Y-93961428D02*
X71202914Y-94056666D01*
X71202914Y-94056666D02*
X71250533Y-94151904D01*
X70964819Y-93247142D02*
X70964819Y-92580476D01*
X70964819Y-92580476D02*
X71964819Y-93009047D01*
X70876667Y-92287200D02*
X71019524Y-92334819D01*
X71019524Y-92334819D02*
X71257619Y-92334819D01*
X71257619Y-92334819D02*
X71352857Y-92287200D01*
X71352857Y-92287200D02*
X71400476Y-92239580D01*
X71400476Y-92239580D02*
X71448095Y-92144342D01*
X71448095Y-92144342D02*
X71448095Y-92049104D01*
X71448095Y-92049104D02*
X71400476Y-91953866D01*
X71400476Y-91953866D02*
X71352857Y-91906247D01*
X71352857Y-91906247D02*
X71257619Y-91858628D01*
X71257619Y-91858628D02*
X71067143Y-91811009D01*
X71067143Y-91811009D02*
X70971905Y-91763390D01*
X70971905Y-91763390D02*
X70924286Y-91715771D01*
X70924286Y-91715771D02*
X70876667Y-91620533D01*
X70876667Y-91620533D02*
X70876667Y-91525295D01*
X70876667Y-91525295D02*
X70924286Y-91430057D01*
X70924286Y-91430057D02*
X70971905Y-91382438D01*
X70971905Y-91382438D02*
X71067143Y-91334819D01*
X71067143Y-91334819D02*
X71305238Y-91334819D01*
X71305238Y-91334819D02*
X71448095Y-91382438D01*
X71781429Y-91334819D02*
X72019524Y-92334819D01*
X72019524Y-92334819D02*
X72210000Y-91620533D01*
X72210000Y-91620533D02*
X72400476Y-92334819D01*
X72400476Y-92334819D02*
X72638572Y-91334819D01*
X72971905Y-91430057D02*
X73019524Y-91382438D01*
X73019524Y-91382438D02*
X73114762Y-91334819D01*
X73114762Y-91334819D02*
X73352857Y-91334819D01*
X73352857Y-91334819D02*
X73448095Y-91382438D01*
X73448095Y-91382438D02*
X73495714Y-91430057D01*
X73495714Y-91430057D02*
X73543333Y-91525295D01*
X73543333Y-91525295D02*
X73543333Y-91620533D01*
X73543333Y-91620533D02*
X73495714Y-91763390D01*
X73495714Y-91763390D02*
X72924286Y-92334819D01*
X72924286Y-92334819D02*
X73543333Y-92334819D01*
X84684580Y-86906666D02*
X84732200Y-86954285D01*
X84732200Y-86954285D02*
X84779819Y-87097142D01*
X84779819Y-87097142D02*
X84779819Y-87192380D01*
X84779819Y-87192380D02*
X84732200Y-87335237D01*
X84732200Y-87335237D02*
X84636961Y-87430475D01*
X84636961Y-87430475D02*
X84541723Y-87478094D01*
X84541723Y-87478094D02*
X84351247Y-87525713D01*
X84351247Y-87525713D02*
X84208390Y-87525713D01*
X84208390Y-87525713D02*
X84017914Y-87478094D01*
X84017914Y-87478094D02*
X83922676Y-87430475D01*
X83922676Y-87430475D02*
X83827438Y-87335237D01*
X83827438Y-87335237D02*
X83779819Y-87192380D01*
X83779819Y-87192380D02*
X83779819Y-87097142D01*
X83779819Y-87097142D02*
X83827438Y-86954285D01*
X83827438Y-86954285D02*
X83875057Y-86906666D01*
X84113152Y-86049523D02*
X84779819Y-86049523D01*
X83732200Y-86287618D02*
X84446485Y-86525713D01*
X84446485Y-86525713D02*
X84446485Y-85906666D01*
X71904819Y-87012857D02*
X71428628Y-87346190D01*
X71904819Y-87584285D02*
X70904819Y-87584285D01*
X70904819Y-87584285D02*
X70904819Y-87203333D01*
X70904819Y-87203333D02*
X70952438Y-87108095D01*
X70952438Y-87108095D02*
X71000057Y-87060476D01*
X71000057Y-87060476D02*
X71095295Y-87012857D01*
X71095295Y-87012857D02*
X71238152Y-87012857D01*
X71238152Y-87012857D02*
X71333390Y-87060476D01*
X71333390Y-87060476D02*
X71381009Y-87108095D01*
X71381009Y-87108095D02*
X71428628Y-87203333D01*
X71428628Y-87203333D02*
X71428628Y-87584285D01*
X71904819Y-86060476D02*
X71904819Y-86631904D01*
X71904819Y-86346190D02*
X70904819Y-86346190D01*
X70904819Y-86346190D02*
X71047676Y-86441428D01*
X71047676Y-86441428D02*
X71142914Y-86536666D01*
X71142914Y-86536666D02*
X71190533Y-86631904D01*
X70904819Y-85203333D02*
X70904819Y-85393809D01*
X70904819Y-85393809D02*
X70952438Y-85489047D01*
X70952438Y-85489047D02*
X71000057Y-85536666D01*
X71000057Y-85536666D02*
X71142914Y-85631904D01*
X71142914Y-85631904D02*
X71333390Y-85679523D01*
X71333390Y-85679523D02*
X71714342Y-85679523D01*
X71714342Y-85679523D02*
X71809580Y-85631904D01*
X71809580Y-85631904D02*
X71857200Y-85584285D01*
X71857200Y-85584285D02*
X71904819Y-85489047D01*
X71904819Y-85489047D02*
X71904819Y-85298571D01*
X71904819Y-85298571D02*
X71857200Y-85203333D01*
X71857200Y-85203333D02*
X71809580Y-85155714D01*
X71809580Y-85155714D02*
X71714342Y-85108095D01*
X71714342Y-85108095D02*
X71476247Y-85108095D01*
X71476247Y-85108095D02*
X71381009Y-85155714D01*
X71381009Y-85155714D02*
X71333390Y-85203333D01*
X71333390Y-85203333D02*
X71285771Y-85298571D01*
X71285771Y-85298571D02*
X71285771Y-85489047D01*
X71285771Y-85489047D02*
X71333390Y-85584285D01*
X71333390Y-85584285D02*
X71381009Y-85631904D01*
X71381009Y-85631904D02*
X71476247Y-85679523D01*
D11*
%TO.C,C15*%
X72380000Y-96880580D02*
X72380000Y-96599420D01*
X73400000Y-96880580D02*
X73400000Y-96599420D01*
%TO.C,C12*%
X99690000Y-75329420D02*
X99690000Y-75610580D01*
X98670000Y-75329420D02*
X98670000Y-75610580D01*
%TO.C,C11*%
X103750000Y-73279420D02*
X103750000Y-73560580D01*
X102730000Y-73279420D02*
X102730000Y-73560580D01*
%TO.C,C10*%
X96520580Y-98890000D02*
X96239420Y-98890000D01*
X96520580Y-97870000D02*
X96239420Y-97870000D01*
%TO.C,C9*%
X76415580Y-99340000D02*
X76134420Y-99340000D01*
X76415580Y-98320000D02*
X76134420Y-98320000D01*
%TO.C,C6*%
X82710580Y-99230000D02*
X82429420Y-99230000D01*
X82710580Y-98210000D02*
X82429420Y-98210000D01*
%TO.C,C5*%
X89790580Y-99180000D02*
X89509420Y-99180000D01*
X89790580Y-98160000D02*
X89509420Y-98160000D01*
D12*
%TO.C,USBC1*%
X81335000Y-78033000D02*
X81419500Y-78033000D01*
X81335000Y-80535000D02*
X81335000Y-78033000D01*
X81335000Y-80535000D02*
X91185000Y-80535000D01*
X81760000Y-70633000D02*
X81760000Y-72119000D01*
X81760000Y-70633000D02*
X90760000Y-70633000D01*
X81760000Y-74181000D02*
X81760000Y-76629500D01*
X90760000Y-70633000D02*
X90760000Y-72119000D01*
X90760000Y-74181000D02*
X90760000Y-76630000D01*
X91185000Y-78033000D02*
X91100000Y-78033000D01*
X91185000Y-80535000D02*
X91185000Y-78033000D01*
D11*
%TO.C,R5*%
X82307500Y-88852742D02*
X82307500Y-89327258D01*
X83352500Y-88852742D02*
X83352500Y-89327258D01*
%TO.C,J2*%
X100780000Y-75510000D02*
X102160000Y-75510000D01*
X100780000Y-76890000D02*
X100780000Y-75510000D01*
X100780000Y-78160000D02*
X100780000Y-126530000D01*
X100780000Y-78160000D02*
X103430000Y-78160000D01*
X100780000Y-126530000D02*
X106080000Y-126530000D01*
X103430000Y-75510000D02*
X106080000Y-75510000D01*
X103430000Y-78160000D02*
X103430000Y-75510000D01*
X106080000Y-75510000D02*
X106080000Y-126530000D01*
%TO.C,U2*%
X87145000Y-94175000D02*
X87145000Y-92225000D01*
X87145000Y-94175000D02*
X87145000Y-96125000D01*
X92265000Y-94175000D02*
X92265000Y-92225000D01*
X92265000Y-94175000D02*
X92265000Y-96125000D01*
X87240000Y-96875000D02*
X86910000Y-97115000D01*
X86910000Y-96635000D01*
X87240000Y-96875000D01*
G36*
X87240000Y-96875000D02*
G01*
X86910000Y-97115000D01*
X86910000Y-96635000D01*
X87240000Y-96875000D01*
G37*
%TO.C,J5*%
X66790000Y-127340000D02*
X66790000Y-130100000D01*
X82140000Y-127340000D02*
X66790000Y-127340000D01*
X82140000Y-127340000D02*
X82140000Y-130100000D01*
X82140000Y-130100000D02*
X66790000Y-130100000D01*
X83410000Y-127340000D02*
X84790000Y-127340000D01*
X84790000Y-127340000D02*
X84790000Y-128720000D01*
%TO.C,R9*%
X96137500Y-88447742D02*
X96137500Y-88922258D01*
X97182500Y-88447742D02*
X97182500Y-88922258D01*
%TO.C,C2*%
X68284420Y-78500000D02*
X68565580Y-78500000D01*
X68284420Y-79520000D02*
X68565580Y-79520000D01*
%TO.C,R10*%
X94637500Y-88922258D02*
X94637500Y-88447742D01*
X95682500Y-88922258D02*
X95682500Y-88447742D01*
%TO.C,U7*%
X81180000Y-116470000D02*
X81180000Y-110250000D01*
X82180000Y-109250000D02*
X88400000Y-109250000D01*
X88400000Y-109250000D02*
X88400000Y-116470000D01*
X88400000Y-116470000D02*
X81180000Y-116470000D01*
X81180000Y-109250000D02*
X80680000Y-109250000D01*
X81180000Y-108750000D01*
X81180000Y-109250000D01*
G36*
X81180000Y-109250000D02*
G01*
X80680000Y-109250000D01*
X81180000Y-108750000D01*
X81180000Y-109250000D01*
G37*
%TO.C,C13*%
X79020000Y-112120580D02*
X79020000Y-111839420D01*
X80040000Y-112120580D02*
X80040000Y-111839420D01*
%TO.C,C14*%
X79030000Y-114794420D02*
X79030000Y-115075580D01*
X80050000Y-114794420D02*
X80050000Y-115075580D01*
%TO.C,U3*%
X80020000Y-94290000D02*
X80020000Y-92340000D01*
X80020000Y-94290000D02*
X80020000Y-96240000D01*
X85140000Y-94290000D02*
X85140000Y-92340000D01*
X85140000Y-94290000D02*
X85140000Y-96240000D01*
X80115000Y-96990000D02*
X79785000Y-97230000D01*
X79785000Y-96750000D01*
X80115000Y-96990000D01*
G36*
X80115000Y-96990000D02*
G01*
X79785000Y-97230000D01*
X79785000Y-96750000D01*
X80115000Y-96990000D01*
G37*
%TO.C,R12*%
X96002742Y-71047500D02*
X96477258Y-71047500D01*
X96002742Y-72092500D02*
X96477258Y-72092500D01*
%TO.C,R14*%
X95067500Y-120252742D02*
X95067500Y-120727258D01*
X96112500Y-120252742D02*
X96112500Y-120727258D01*
%TO.C,R4*%
X87882500Y-89212258D02*
X87882500Y-88737742D01*
X88927500Y-89212258D02*
X88927500Y-88737742D01*
%TO.C,JP1*%
X70215000Y-79820000D02*
X70215000Y-79220000D01*
X70915000Y-78520000D02*
X72315000Y-78520000D01*
X72315000Y-80520000D02*
X70915000Y-80520000D01*
X73015000Y-79220000D02*
X73015000Y-79820000D01*
X70215000Y-79220000D02*
G75*
G02*
X70915000Y-78520000I700000J0D01*
G01*
X70915000Y-80520000D02*
G75*
G02*
X70215000Y-79820000I0J700000D01*
G01*
X72315000Y-78520000D02*
G75*
G02*
X73015000Y-79220000I1J-699999D01*
G01*
X73015000Y-79820000D02*
G75*
G02*
X72315000Y-80520000I-699999J-1D01*
G01*
D13*
%TO.C,U6*%
X99120000Y-73710000D02*
X99680000Y-73710000D01*
X99680000Y-71110000D02*
X99120000Y-71110000D01*
X101660000Y-71110000D02*
X102220000Y-71110000D01*
X101660000Y-73710000D02*
X102220000Y-73710000D01*
D14*
X98680000Y-71415000D02*
G75*
G02*
X98480000Y-71415000I-100000J0D01*
G01*
X98480000Y-71415000D02*
G75*
G02*
X98680000Y-71415000I100000J0D01*
G01*
D11*
%TO.C,C40*%
X93050000Y-77320000D02*
X95400000Y-77320000D01*
X93050000Y-83075563D02*
X93050000Y-77320000D01*
X94114437Y-84140000D02*
X93050000Y-83075563D01*
X94114437Y-84140000D02*
X95400000Y-84140000D01*
X94218750Y-84773750D02*
X95006250Y-84773750D01*
X94612500Y-85167500D02*
X94612500Y-84380000D01*
X98805563Y-84140000D02*
X97520000Y-84140000D01*
X98805563Y-84140000D02*
X99870000Y-83075563D01*
X99870000Y-77320000D02*
X97520000Y-77320000D01*
X99870000Y-83075563D02*
X99870000Y-77320000D01*
%TO.C,C3*%
X90895000Y-89115580D02*
X90895000Y-88834420D01*
X91915000Y-89115580D02*
X91915000Y-88834420D01*
%TO.C,C19*%
X85780000Y-118759420D02*
X85780000Y-119040580D01*
X86800000Y-118759420D02*
X86800000Y-119040580D01*
D10*
%TO.C,D1*%
X96520000Y-124780000D02*
X96520000Y-119380000D01*
X98520000Y-119280000D02*
X99520000Y-119280000D01*
X99520000Y-124780000D02*
X99520000Y-119280000D01*
D11*
%TO.C,J1*%
X66870000Y-121180000D02*
X68250000Y-121180000D01*
X66870000Y-122560000D02*
X66870000Y-121180000D01*
X66870000Y-123830000D02*
X66870000Y-126480000D01*
X66870000Y-123830000D02*
X69630000Y-123830000D01*
X66870000Y-126480000D02*
X69630000Y-126480000D01*
X69630000Y-123830000D02*
X69630000Y-126480000D01*
%TO.C,R15*%
X95107500Y-123232742D02*
X95107500Y-123707258D01*
X96152500Y-123232742D02*
X96152500Y-123707258D01*
%TO.C,J6*%
X66920000Y-98810000D02*
X68300000Y-98810000D01*
X66920000Y-100190000D02*
X66920000Y-98810000D01*
X66920000Y-101460000D02*
X66920000Y-111730000D01*
X66920000Y-101460000D02*
X69680000Y-101460000D01*
X66920000Y-111730000D02*
X69680000Y-111730000D01*
X69680000Y-101460000D02*
X69680000Y-111730000D01*
%TO.C,C41*%
X104415000Y-73651252D02*
X104415000Y-73128748D01*
X105885000Y-73651252D02*
X105885000Y-73128748D01*
%TO.C,J4*%
X66870000Y-112540000D02*
X68250000Y-112540000D01*
X66870000Y-113920000D02*
X66870000Y-112540000D01*
X66870000Y-115190000D02*
X66870000Y-120380000D01*
X66870000Y-115190000D02*
X69630000Y-115190000D01*
X66870000Y-120380000D02*
X69630000Y-120380000D01*
X69630000Y-115190000D02*
X69630000Y-120380000D01*
%TO.C,R3*%
X89382500Y-88737742D02*
X89382500Y-89212258D01*
X90427500Y-88737742D02*
X90427500Y-89212258D01*
%TO.C,Y1*%
X74600000Y-111870000D02*
X74600000Y-115290000D01*
X74600000Y-115290000D02*
X78720000Y-115290000D01*
%TO.C,SW1*%
X66820000Y-84990000D02*
X66820000Y-89910000D01*
X66820000Y-84990000D02*
X67070000Y-84990000D01*
X66820000Y-89910000D02*
X67070000Y-89910000D01*
X70290000Y-84990000D02*
X70540000Y-84990000D01*
X70290000Y-89910000D02*
X70540000Y-89910000D01*
X70540000Y-89910000D02*
X70540000Y-84990000D01*
%TO.C,R6*%
X80807500Y-89352258D02*
X80807500Y-88877742D01*
X81852500Y-89352258D02*
X81852500Y-88877742D01*
%TO.C,R2*%
X86677500Y-83607742D02*
X86677500Y-84082258D01*
X87722500Y-83607742D02*
X87722500Y-84082258D01*
%TO.C,C1*%
X77530580Y-72480000D02*
X77249420Y-72480000D01*
X77530580Y-73500000D02*
X77249420Y-73500000D01*
%TO.C,R8*%
X74547500Y-89462258D02*
X74547500Y-88987742D01*
X75592500Y-89462258D02*
X75592500Y-88987742D01*
%TO.C,R11*%
X96022742Y-72567500D02*
X96497258Y-72567500D01*
X96022742Y-73612500D02*
X96497258Y-73612500D01*
%TO.C,R1*%
X80227258Y-70847500D02*
X79752742Y-70847500D01*
X80227258Y-71892500D02*
X79752742Y-71892500D01*
%TO.C,R7*%
X76047500Y-88962742D02*
X76047500Y-89437258D01*
X77092500Y-88962742D02*
X77092500Y-89437258D01*
%TO.C,J3*%
X85580000Y-130080000D02*
X85580000Y-128700000D01*
X86960000Y-130080000D02*
X85580000Y-130080000D01*
X88230000Y-127320000D02*
X106120000Y-127320000D01*
X88230000Y-130080000D02*
X88230000Y-127320000D01*
X88230000Y-130080000D02*
X106120000Y-130080000D01*
X106120000Y-130080000D02*
X106120000Y-127320000D01*
%TO.C,R13*%
X97942742Y-117827500D02*
X98417258Y-117827500D01*
X97942742Y-118872500D02*
X98417258Y-118872500D01*
%TO.C,C18*%
X90654420Y-110870000D02*
X90935580Y-110870000D01*
X90654420Y-111890000D02*
X90935580Y-111890000D01*
%TO.C,U5*%
X93850000Y-93910000D02*
X93850000Y-91960000D01*
X93850000Y-93910000D02*
X93850000Y-95860000D01*
X98970000Y-93910000D02*
X98970000Y-91960000D01*
X98970000Y-93910000D02*
X98970000Y-95860000D01*
X93945000Y-96610000D02*
X93615000Y-96850000D01*
X93615000Y-96370000D01*
X93945000Y-96610000D01*
G36*
X93945000Y-96610000D02*
G01*
X93615000Y-96850000D01*
X93615000Y-96370000D01*
X93945000Y-96610000D01*
G37*
%TO.C,C7*%
X77560000Y-89340580D02*
X77560000Y-89059420D01*
X78580000Y-89340580D02*
X78580000Y-89059420D01*
%TO.C,U1*%
X69470000Y-71230000D02*
X69470000Y-72490000D01*
X69470000Y-78050000D02*
X69470000Y-76790000D01*
X73230000Y-71230000D02*
X69470000Y-71230000D01*
X73230000Y-78050000D02*
X69470000Y-78050000D01*
X74750000Y-78280000D02*
X74270000Y-78280000D01*
X74510000Y-77950000D01*
X74750000Y-78280000D01*
G36*
X74750000Y-78280000D02*
G01*
X74270000Y-78280000D01*
X74510000Y-77950000D01*
X74750000Y-78280000D01*
G37*
%TO.C,C8*%
X97650000Y-88850580D02*
X97650000Y-88569420D01*
X98670000Y-88850580D02*
X98670000Y-88569420D01*
%TO.C,U4*%
X73760000Y-94400000D02*
X73760000Y-92450000D01*
X73760000Y-94400000D02*
X73760000Y-96350000D01*
X78880000Y-94400000D02*
X78880000Y-92450000D01*
X78880000Y-94400000D02*
X78880000Y-96350000D01*
X73855000Y-97100000D02*
X73525000Y-97340000D01*
X73525000Y-96860000D01*
X73855000Y-97100000D01*
G36*
X73855000Y-97100000D02*
G01*
X73525000Y-97340000D01*
X73525000Y-96860000D01*
X73855000Y-97100000D01*
G37*
%TO.C,C17*%
X82780000Y-106970580D02*
X82780000Y-106689420D01*
X83800000Y-106970580D02*
X83800000Y-106689420D01*
%TO.C,R17*%
X70907500Y-96497742D02*
X70907500Y-96972258D01*
X71952500Y-96497742D02*
X71952500Y-96972258D01*
%TO.C,SW2*%
X66840000Y-92140000D02*
X66840000Y-97060000D01*
X66840000Y-92140000D02*
X67090000Y-92140000D01*
X66840000Y-97060000D02*
X67090000Y-97060000D01*
X70310000Y-92140000D02*
X70560000Y-92140000D01*
X70310000Y-97060000D02*
X70560000Y-97060000D01*
X70560000Y-97060000D02*
X70560000Y-92140000D01*
%TO.C,C4*%
X83820000Y-89230580D02*
X83820000Y-88949420D01*
X84840000Y-89230580D02*
X84840000Y-88949420D01*
%TO.C,R16*%
X70927500Y-89457258D02*
X70927500Y-88982742D01*
X71972500Y-89457258D02*
X71972500Y-88982742D01*
%TD*%
M02*
