%TF.GenerationSoftware,KiCad,Pcbnew,9.0.4*%
%TF.CreationDate,2025-09-29T22:44:47+03:00*%
%TF.ProjectId,Asius2,41736975-7332-42e6-9b69-6361645f7063,rev?*%
%TF.SameCoordinates,Original*%
%TF.FileFunction,Profile,NP*%
%FSLAX46Y46*%
G04 Gerber Fmt 4.6, Leading zero omitted, Abs format (unit mm)*
G04 Created by KiCad (PCBNEW 9.0.4) date 2025-09-29 22:44:47*
%MOMM*%
%LPD*%
G01*
G04 APERTURE LIST*
%TA.AperFunction,Profile*%
%ADD10C,0.050000*%
%TD*%
%TA.AperFunction,Profile*%
%ADD11C,0.000000*%
%TD*%
G04 APERTURE END LIST*
D10*
X66500000Y-70500000D02*
X106500000Y-70500000D01*
X106500000Y-130500000D01*
X66500000Y-130500000D01*
X66500000Y-70500000D01*
D11*
%TA.AperFunction,Profile*%
%TO.C,USBC1*%
G36*
X82738073Y-78430448D02*
G01*
X82828505Y-78482659D01*
X82902341Y-78556495D01*
X82954552Y-78646927D01*
X82981578Y-78747790D01*
X82981578Y-78852210D01*
X82954552Y-78953073D01*
X82902341Y-79043505D01*
X82828505Y-79117341D01*
X82738073Y-79169552D01*
X82637210Y-79196578D01*
X82532790Y-79196578D01*
X82431927Y-79169552D01*
X82341495Y-79117341D01*
X82267659Y-79043505D01*
X82215448Y-78953073D01*
X82188422Y-78852210D01*
X82188422Y-78747790D01*
X82215448Y-78646927D01*
X82267659Y-78556495D01*
X82341495Y-78482659D01*
X82431927Y-78430448D01*
X82532790Y-78403422D01*
X82637210Y-78403422D01*
X82738073Y-78430448D01*
G37*
%TD.AperFunction*%
%TA.AperFunction,Profile*%
G36*
X90088073Y-78430448D02*
G01*
X90178505Y-78482659D01*
X90252341Y-78556495D01*
X90304552Y-78646927D01*
X90331578Y-78747790D01*
X90331578Y-78852210D01*
X90304552Y-78953073D01*
X90252341Y-79043505D01*
X90178505Y-79117341D01*
X90088073Y-79169552D01*
X89987210Y-79196578D01*
X89882790Y-79196578D01*
X89781927Y-79169552D01*
X89691495Y-79117341D01*
X89617659Y-79043505D01*
X89565448Y-78953073D01*
X89538422Y-78852210D01*
X89538422Y-78747790D01*
X89565448Y-78646927D01*
X89617659Y-78556495D01*
X89691495Y-78482659D01*
X89781927Y-78430448D01*
X89882790Y-78403422D01*
X89987210Y-78403422D01*
X90088073Y-78430448D01*
G37*
%TD.AperFunction*%
%TD*%
M02*
