%TF.GenerationSoftware,KiCad,Pcbnew,9.0.4*%
%TF.CreationDate,2025-09-29T22:44:47+03:00*%
%TF.ProjectId,Asius2,41736975-7332-42e6-9b69-6361645f7063,rev?*%
%TF.SameCoordinates,Original*%
%TF.FileFunction,Paste,Bot*%
%TF.FilePolarity,Positive*%
%FSLAX46Y46*%
G04 Gerber Fmt 4.6, Leading zero omitted, Abs format (unit mm)*
G04 Created by KiCad (PCBNEW 9.0.4) date 2025-09-29 22:44:47*
%MOMM*%
%LPD*%
G01*
G04 APERTURE LIST*
G04 Aperture macros list*
%AMRoundRect*
0 Rectangle with rounded corners*
0 $1 Rounding radius*
0 $2 $3 $4 $5 $6 $7 $8 $9 X,Y pos of 4 corners*
0 Add a 4 corners polygon primitive as box body*
4,1,4,$2,$3,$4,$5,$6,$7,$8,$9,$2,$3,0*
0 Add four circle primitives for the rounded corners*
1,1,$1+$1,$2,$3*
1,1,$1+$1,$4,$5*
1,1,$1+$1,$6,$7*
1,1,$1+$1,$8,$9*
0 Add four rect primitives between the rounded corners*
20,1,$1+$1,$2,$3,$4,$5,0*
20,1,$1+$1,$4,$5,$6,$7,0*
20,1,$1+$1,$6,$7,$8,$9,0*
20,1,$1+$1,$8,$9,$2,$3,0*%
G04 Aperture macros list end*
%ADD10RoundRect,0.225000X0.225000X0.250000X-0.225000X0.250000X-0.225000X-0.250000X0.225000X-0.250000X0*%
%ADD11RoundRect,0.225000X-0.250000X0.225000X-0.250000X-0.225000X0.250000X-0.225000X0.250000X0.225000X0*%
%ADD12RoundRect,0.225000X-0.225000X-0.250000X0.225000X-0.250000X0.225000X0.250000X-0.225000X0.250000X0*%
%ADD13RoundRect,0.225000X0.250000X-0.225000X0.250000X0.225000X-0.250000X0.225000X-0.250000X-0.225000X0*%
G04 APERTURE END LIST*
D10*
%TO.C,C39*%
X78895000Y-111970000D03*
X80445000Y-111970000D03*
%TD*%
%TO.C,C30*%
X78915000Y-118030000D03*
X80465000Y-118030000D03*
%TD*%
D11*
%TO.C,C31*%
X83250000Y-118815000D03*
X83250000Y-117265000D03*
%TD*%
%TO.C,C32*%
X84760000Y-118810000D03*
X84760000Y-117260000D03*
%TD*%
%TO.C,C38*%
X86270000Y-117255000D03*
X86270000Y-118805000D03*
%TD*%
D12*
%TO.C,C37*%
X89205000Y-111380000D03*
X90755000Y-111380000D03*
%TD*%
D13*
%TO.C,C36*%
X83710000Y-108435000D03*
X83710000Y-106885000D03*
%TD*%
D10*
%TO.C,C35*%
X80475000Y-116500000D03*
X78925000Y-116500000D03*
%TD*%
D12*
%TO.C,C34*%
X89205000Y-112840000D03*
X90755000Y-112840000D03*
%TD*%
D11*
%TO.C,C33*%
X87750000Y-117255000D03*
X87750000Y-118805000D03*
%TD*%
D12*
%TO.C,C29*%
X89205000Y-115780000D03*
X90755000Y-115780000D03*
%TD*%
%TO.C,C28*%
X89215000Y-114300000D03*
X90765000Y-114300000D03*
%TD*%
D10*
%TO.C,C27*%
X80445000Y-113470000D03*
X78895000Y-113470000D03*
%TD*%
%TO.C,C26*%
X80450000Y-110500000D03*
X78900000Y-110500000D03*
%TD*%
D12*
%TO.C,C25*%
X89195000Y-109900000D03*
X90745000Y-109900000D03*
%TD*%
D13*
%TO.C,C24*%
X88090000Y-108430000D03*
X88090000Y-106880000D03*
%TD*%
%TO.C,C23*%
X86630000Y-108430000D03*
X86630000Y-106880000D03*
%TD*%
%TO.C,C22*%
X85170000Y-108430000D03*
X85170000Y-106880000D03*
%TD*%
%TO.C,C21*%
X82250000Y-108425000D03*
X82250000Y-106875000D03*
%TD*%
D10*
%TO.C,C20*%
X80450000Y-109030000D03*
X78900000Y-109030000D03*
%TD*%
%TO.C,C16*%
X80465000Y-114970000D03*
X78915000Y-114970000D03*
%TD*%
M02*
