%TF.GenerationSoftware,KiCad,Pcbnew,9.0.4*%
%TF.CreationDate,2025-09-29T16:36:38+03:00*%
%TF.ProjectId,Asius2,41736975-7332-42e6-9b69-6361645f7063,rev?*%
%TF.SameCoordinates,Original*%
%TF.FileFunction,Legend,Bot*%
%TF.FilePolarity,Positive*%
%FSLAX46Y46*%
G04 Gerber Fmt 4.6, Leading zero omitted, Abs format (unit mm)*
G04 Created by KiCad (PCBNEW 9.0.4) date 2025-09-29 16:36:38*
%MOMM*%
%LPD*%
G01*
G04 APERTURE LIST*
%ADD10C,0.150000*%
%ADD11C,0.120000*%
G04 APERTURE END LIST*
D10*
X77402857Y-112309580D02*
X77450476Y-112357200D01*
X77450476Y-112357200D02*
X77593333Y-112404819D01*
X77593333Y-112404819D02*
X77688571Y-112404819D01*
X77688571Y-112404819D02*
X77831428Y-112357200D01*
X77831428Y-112357200D02*
X77926666Y-112261961D01*
X77926666Y-112261961D02*
X77974285Y-112166723D01*
X77974285Y-112166723D02*
X78021904Y-111976247D01*
X78021904Y-111976247D02*
X78021904Y-111833390D01*
X78021904Y-111833390D02*
X77974285Y-111642914D01*
X77974285Y-111642914D02*
X77926666Y-111547676D01*
X77926666Y-111547676D02*
X77831428Y-111452438D01*
X77831428Y-111452438D02*
X77688571Y-111404819D01*
X77688571Y-111404819D02*
X77593333Y-111404819D01*
X77593333Y-111404819D02*
X77450476Y-111452438D01*
X77450476Y-111452438D02*
X77402857Y-111500057D01*
X77069523Y-111404819D02*
X76450476Y-111404819D01*
X76450476Y-111404819D02*
X76783809Y-111785771D01*
X76783809Y-111785771D02*
X76640952Y-111785771D01*
X76640952Y-111785771D02*
X76545714Y-111833390D01*
X76545714Y-111833390D02*
X76498095Y-111881009D01*
X76498095Y-111881009D02*
X76450476Y-111976247D01*
X76450476Y-111976247D02*
X76450476Y-112214342D01*
X76450476Y-112214342D02*
X76498095Y-112309580D01*
X76498095Y-112309580D02*
X76545714Y-112357200D01*
X76545714Y-112357200D02*
X76640952Y-112404819D01*
X76640952Y-112404819D02*
X76926666Y-112404819D01*
X76926666Y-112404819D02*
X77021904Y-112357200D01*
X77021904Y-112357200D02*
X77069523Y-112309580D01*
X75974285Y-112404819D02*
X75783809Y-112404819D01*
X75783809Y-112404819D02*
X75688571Y-112357200D01*
X75688571Y-112357200D02*
X75640952Y-112309580D01*
X75640952Y-112309580D02*
X75545714Y-112166723D01*
X75545714Y-112166723D02*
X75498095Y-111976247D01*
X75498095Y-111976247D02*
X75498095Y-111595295D01*
X75498095Y-111595295D02*
X75545714Y-111500057D01*
X75545714Y-111500057D02*
X75593333Y-111452438D01*
X75593333Y-111452438D02*
X75688571Y-111404819D01*
X75688571Y-111404819D02*
X75879047Y-111404819D01*
X75879047Y-111404819D02*
X75974285Y-111452438D01*
X75974285Y-111452438D02*
X76021904Y-111500057D01*
X76021904Y-111500057D02*
X76069523Y-111595295D01*
X76069523Y-111595295D02*
X76069523Y-111833390D01*
X76069523Y-111833390D02*
X76021904Y-111928628D01*
X76021904Y-111928628D02*
X75974285Y-111976247D01*
X75974285Y-111976247D02*
X75879047Y-112023866D01*
X75879047Y-112023866D02*
X75688571Y-112023866D01*
X75688571Y-112023866D02*
X75593333Y-111976247D01*
X75593333Y-111976247D02*
X75545714Y-111928628D01*
X75545714Y-111928628D02*
X75498095Y-111833390D01*
X77432857Y-118399580D02*
X77480476Y-118447200D01*
X77480476Y-118447200D02*
X77623333Y-118494819D01*
X77623333Y-118494819D02*
X77718571Y-118494819D01*
X77718571Y-118494819D02*
X77861428Y-118447200D01*
X77861428Y-118447200D02*
X77956666Y-118351961D01*
X77956666Y-118351961D02*
X78004285Y-118256723D01*
X78004285Y-118256723D02*
X78051904Y-118066247D01*
X78051904Y-118066247D02*
X78051904Y-117923390D01*
X78051904Y-117923390D02*
X78004285Y-117732914D01*
X78004285Y-117732914D02*
X77956666Y-117637676D01*
X77956666Y-117637676D02*
X77861428Y-117542438D01*
X77861428Y-117542438D02*
X77718571Y-117494819D01*
X77718571Y-117494819D02*
X77623333Y-117494819D01*
X77623333Y-117494819D02*
X77480476Y-117542438D01*
X77480476Y-117542438D02*
X77432857Y-117590057D01*
X77099523Y-117494819D02*
X76480476Y-117494819D01*
X76480476Y-117494819D02*
X76813809Y-117875771D01*
X76813809Y-117875771D02*
X76670952Y-117875771D01*
X76670952Y-117875771D02*
X76575714Y-117923390D01*
X76575714Y-117923390D02*
X76528095Y-117971009D01*
X76528095Y-117971009D02*
X76480476Y-118066247D01*
X76480476Y-118066247D02*
X76480476Y-118304342D01*
X76480476Y-118304342D02*
X76528095Y-118399580D01*
X76528095Y-118399580D02*
X76575714Y-118447200D01*
X76575714Y-118447200D02*
X76670952Y-118494819D01*
X76670952Y-118494819D02*
X76956666Y-118494819D01*
X76956666Y-118494819D02*
X77051904Y-118447200D01*
X77051904Y-118447200D02*
X77099523Y-118399580D01*
X75861428Y-117494819D02*
X75766190Y-117494819D01*
X75766190Y-117494819D02*
X75670952Y-117542438D01*
X75670952Y-117542438D02*
X75623333Y-117590057D01*
X75623333Y-117590057D02*
X75575714Y-117685295D01*
X75575714Y-117685295D02*
X75528095Y-117875771D01*
X75528095Y-117875771D02*
X75528095Y-118113866D01*
X75528095Y-118113866D02*
X75575714Y-118304342D01*
X75575714Y-118304342D02*
X75623333Y-118399580D01*
X75623333Y-118399580D02*
X75670952Y-118447200D01*
X75670952Y-118447200D02*
X75766190Y-118494819D01*
X75766190Y-118494819D02*
X75861428Y-118494819D01*
X75861428Y-118494819D02*
X75956666Y-118447200D01*
X75956666Y-118447200D02*
X76004285Y-118399580D01*
X76004285Y-118399580D02*
X76051904Y-118304342D01*
X76051904Y-118304342D02*
X76099523Y-118113866D01*
X76099523Y-118113866D02*
X76099523Y-117875771D01*
X76099523Y-117875771D02*
X76051904Y-117685295D01*
X76051904Y-117685295D02*
X76004285Y-117590057D01*
X76004285Y-117590057D02*
X75956666Y-117542438D01*
X75956666Y-117542438D02*
X75861428Y-117494819D01*
X83639580Y-120297142D02*
X83687200Y-120249523D01*
X83687200Y-120249523D02*
X83734819Y-120106666D01*
X83734819Y-120106666D02*
X83734819Y-120011428D01*
X83734819Y-120011428D02*
X83687200Y-119868571D01*
X83687200Y-119868571D02*
X83591961Y-119773333D01*
X83591961Y-119773333D02*
X83496723Y-119725714D01*
X83496723Y-119725714D02*
X83306247Y-119678095D01*
X83306247Y-119678095D02*
X83163390Y-119678095D01*
X83163390Y-119678095D02*
X82972914Y-119725714D01*
X82972914Y-119725714D02*
X82877676Y-119773333D01*
X82877676Y-119773333D02*
X82782438Y-119868571D01*
X82782438Y-119868571D02*
X82734819Y-120011428D01*
X82734819Y-120011428D02*
X82734819Y-120106666D01*
X82734819Y-120106666D02*
X82782438Y-120249523D01*
X82782438Y-120249523D02*
X82830057Y-120297142D01*
X82734819Y-120630476D02*
X82734819Y-121249523D01*
X82734819Y-121249523D02*
X83115771Y-120916190D01*
X83115771Y-120916190D02*
X83115771Y-121059047D01*
X83115771Y-121059047D02*
X83163390Y-121154285D01*
X83163390Y-121154285D02*
X83211009Y-121201904D01*
X83211009Y-121201904D02*
X83306247Y-121249523D01*
X83306247Y-121249523D02*
X83544342Y-121249523D01*
X83544342Y-121249523D02*
X83639580Y-121201904D01*
X83639580Y-121201904D02*
X83687200Y-121154285D01*
X83687200Y-121154285D02*
X83734819Y-121059047D01*
X83734819Y-121059047D02*
X83734819Y-120773333D01*
X83734819Y-120773333D02*
X83687200Y-120678095D01*
X83687200Y-120678095D02*
X83639580Y-120630476D01*
X83734819Y-122201904D02*
X83734819Y-121630476D01*
X83734819Y-121916190D02*
X82734819Y-121916190D01*
X82734819Y-121916190D02*
X82877676Y-121820952D01*
X82877676Y-121820952D02*
X82972914Y-121725714D01*
X82972914Y-121725714D02*
X83020533Y-121630476D01*
X85189580Y-120307142D02*
X85237200Y-120259523D01*
X85237200Y-120259523D02*
X85284819Y-120116666D01*
X85284819Y-120116666D02*
X85284819Y-120021428D01*
X85284819Y-120021428D02*
X85237200Y-119878571D01*
X85237200Y-119878571D02*
X85141961Y-119783333D01*
X85141961Y-119783333D02*
X85046723Y-119735714D01*
X85046723Y-119735714D02*
X84856247Y-119688095D01*
X84856247Y-119688095D02*
X84713390Y-119688095D01*
X84713390Y-119688095D02*
X84522914Y-119735714D01*
X84522914Y-119735714D02*
X84427676Y-119783333D01*
X84427676Y-119783333D02*
X84332438Y-119878571D01*
X84332438Y-119878571D02*
X84284819Y-120021428D01*
X84284819Y-120021428D02*
X84284819Y-120116666D01*
X84284819Y-120116666D02*
X84332438Y-120259523D01*
X84332438Y-120259523D02*
X84380057Y-120307142D01*
X84284819Y-120640476D02*
X84284819Y-121259523D01*
X84284819Y-121259523D02*
X84665771Y-120926190D01*
X84665771Y-120926190D02*
X84665771Y-121069047D01*
X84665771Y-121069047D02*
X84713390Y-121164285D01*
X84713390Y-121164285D02*
X84761009Y-121211904D01*
X84761009Y-121211904D02*
X84856247Y-121259523D01*
X84856247Y-121259523D02*
X85094342Y-121259523D01*
X85094342Y-121259523D02*
X85189580Y-121211904D01*
X85189580Y-121211904D02*
X85237200Y-121164285D01*
X85237200Y-121164285D02*
X85284819Y-121069047D01*
X85284819Y-121069047D02*
X85284819Y-120783333D01*
X85284819Y-120783333D02*
X85237200Y-120688095D01*
X85237200Y-120688095D02*
X85189580Y-120640476D01*
X84380057Y-121640476D02*
X84332438Y-121688095D01*
X84332438Y-121688095D02*
X84284819Y-121783333D01*
X84284819Y-121783333D02*
X84284819Y-122021428D01*
X84284819Y-122021428D02*
X84332438Y-122116666D01*
X84332438Y-122116666D02*
X84380057Y-122164285D01*
X84380057Y-122164285D02*
X84475295Y-122211904D01*
X84475295Y-122211904D02*
X84570533Y-122211904D01*
X84570533Y-122211904D02*
X84713390Y-122164285D01*
X84713390Y-122164285D02*
X85284819Y-121592857D01*
X85284819Y-121592857D02*
X85284819Y-122211904D01*
X86749580Y-120287142D02*
X86797200Y-120239523D01*
X86797200Y-120239523D02*
X86844819Y-120096666D01*
X86844819Y-120096666D02*
X86844819Y-120001428D01*
X86844819Y-120001428D02*
X86797200Y-119858571D01*
X86797200Y-119858571D02*
X86701961Y-119763333D01*
X86701961Y-119763333D02*
X86606723Y-119715714D01*
X86606723Y-119715714D02*
X86416247Y-119668095D01*
X86416247Y-119668095D02*
X86273390Y-119668095D01*
X86273390Y-119668095D02*
X86082914Y-119715714D01*
X86082914Y-119715714D02*
X85987676Y-119763333D01*
X85987676Y-119763333D02*
X85892438Y-119858571D01*
X85892438Y-119858571D02*
X85844819Y-120001428D01*
X85844819Y-120001428D02*
X85844819Y-120096666D01*
X85844819Y-120096666D02*
X85892438Y-120239523D01*
X85892438Y-120239523D02*
X85940057Y-120287142D01*
X85844819Y-120620476D02*
X85844819Y-121239523D01*
X85844819Y-121239523D02*
X86225771Y-120906190D01*
X86225771Y-120906190D02*
X86225771Y-121049047D01*
X86225771Y-121049047D02*
X86273390Y-121144285D01*
X86273390Y-121144285D02*
X86321009Y-121191904D01*
X86321009Y-121191904D02*
X86416247Y-121239523D01*
X86416247Y-121239523D02*
X86654342Y-121239523D01*
X86654342Y-121239523D02*
X86749580Y-121191904D01*
X86749580Y-121191904D02*
X86797200Y-121144285D01*
X86797200Y-121144285D02*
X86844819Y-121049047D01*
X86844819Y-121049047D02*
X86844819Y-120763333D01*
X86844819Y-120763333D02*
X86797200Y-120668095D01*
X86797200Y-120668095D02*
X86749580Y-120620476D01*
X86273390Y-121810952D02*
X86225771Y-121715714D01*
X86225771Y-121715714D02*
X86178152Y-121668095D01*
X86178152Y-121668095D02*
X86082914Y-121620476D01*
X86082914Y-121620476D02*
X86035295Y-121620476D01*
X86035295Y-121620476D02*
X85940057Y-121668095D01*
X85940057Y-121668095D02*
X85892438Y-121715714D01*
X85892438Y-121715714D02*
X85844819Y-121810952D01*
X85844819Y-121810952D02*
X85844819Y-122001428D01*
X85844819Y-122001428D02*
X85892438Y-122096666D01*
X85892438Y-122096666D02*
X85940057Y-122144285D01*
X85940057Y-122144285D02*
X86035295Y-122191904D01*
X86035295Y-122191904D02*
X86082914Y-122191904D01*
X86082914Y-122191904D02*
X86178152Y-122144285D01*
X86178152Y-122144285D02*
X86225771Y-122096666D01*
X86225771Y-122096666D02*
X86273390Y-122001428D01*
X86273390Y-122001428D02*
X86273390Y-121810952D01*
X86273390Y-121810952D02*
X86321009Y-121715714D01*
X86321009Y-121715714D02*
X86368628Y-121668095D01*
X86368628Y-121668095D02*
X86463866Y-121620476D01*
X86463866Y-121620476D02*
X86654342Y-121620476D01*
X86654342Y-121620476D02*
X86749580Y-121668095D01*
X86749580Y-121668095D02*
X86797200Y-121715714D01*
X86797200Y-121715714D02*
X86844819Y-121810952D01*
X86844819Y-121810952D02*
X86844819Y-122001428D01*
X86844819Y-122001428D02*
X86797200Y-122096666D01*
X86797200Y-122096666D02*
X86749580Y-122144285D01*
X86749580Y-122144285D02*
X86654342Y-122191904D01*
X86654342Y-122191904D02*
X86463866Y-122191904D01*
X86463866Y-122191904D02*
X86368628Y-122144285D01*
X86368628Y-122144285D02*
X86321009Y-122096666D01*
X86321009Y-122096666D02*
X86273390Y-122001428D01*
X93552857Y-111799580D02*
X93600476Y-111847200D01*
X93600476Y-111847200D02*
X93743333Y-111894819D01*
X93743333Y-111894819D02*
X93838571Y-111894819D01*
X93838571Y-111894819D02*
X93981428Y-111847200D01*
X93981428Y-111847200D02*
X94076666Y-111751961D01*
X94076666Y-111751961D02*
X94124285Y-111656723D01*
X94124285Y-111656723D02*
X94171904Y-111466247D01*
X94171904Y-111466247D02*
X94171904Y-111323390D01*
X94171904Y-111323390D02*
X94124285Y-111132914D01*
X94124285Y-111132914D02*
X94076666Y-111037676D01*
X94076666Y-111037676D02*
X93981428Y-110942438D01*
X93981428Y-110942438D02*
X93838571Y-110894819D01*
X93838571Y-110894819D02*
X93743333Y-110894819D01*
X93743333Y-110894819D02*
X93600476Y-110942438D01*
X93600476Y-110942438D02*
X93552857Y-110990057D01*
X93219523Y-110894819D02*
X92600476Y-110894819D01*
X92600476Y-110894819D02*
X92933809Y-111275771D01*
X92933809Y-111275771D02*
X92790952Y-111275771D01*
X92790952Y-111275771D02*
X92695714Y-111323390D01*
X92695714Y-111323390D02*
X92648095Y-111371009D01*
X92648095Y-111371009D02*
X92600476Y-111466247D01*
X92600476Y-111466247D02*
X92600476Y-111704342D01*
X92600476Y-111704342D02*
X92648095Y-111799580D01*
X92648095Y-111799580D02*
X92695714Y-111847200D01*
X92695714Y-111847200D02*
X92790952Y-111894819D01*
X92790952Y-111894819D02*
X93076666Y-111894819D01*
X93076666Y-111894819D02*
X93171904Y-111847200D01*
X93171904Y-111847200D02*
X93219523Y-111799580D01*
X92267142Y-110894819D02*
X91600476Y-110894819D01*
X91600476Y-110894819D02*
X92029047Y-111894819D01*
X84119580Y-104097142D02*
X84167200Y-104049523D01*
X84167200Y-104049523D02*
X84214819Y-103906666D01*
X84214819Y-103906666D02*
X84214819Y-103811428D01*
X84214819Y-103811428D02*
X84167200Y-103668571D01*
X84167200Y-103668571D02*
X84071961Y-103573333D01*
X84071961Y-103573333D02*
X83976723Y-103525714D01*
X83976723Y-103525714D02*
X83786247Y-103478095D01*
X83786247Y-103478095D02*
X83643390Y-103478095D01*
X83643390Y-103478095D02*
X83452914Y-103525714D01*
X83452914Y-103525714D02*
X83357676Y-103573333D01*
X83357676Y-103573333D02*
X83262438Y-103668571D01*
X83262438Y-103668571D02*
X83214819Y-103811428D01*
X83214819Y-103811428D02*
X83214819Y-103906666D01*
X83214819Y-103906666D02*
X83262438Y-104049523D01*
X83262438Y-104049523D02*
X83310057Y-104097142D01*
X83214819Y-104430476D02*
X83214819Y-105049523D01*
X83214819Y-105049523D02*
X83595771Y-104716190D01*
X83595771Y-104716190D02*
X83595771Y-104859047D01*
X83595771Y-104859047D02*
X83643390Y-104954285D01*
X83643390Y-104954285D02*
X83691009Y-105001904D01*
X83691009Y-105001904D02*
X83786247Y-105049523D01*
X83786247Y-105049523D02*
X84024342Y-105049523D01*
X84024342Y-105049523D02*
X84119580Y-105001904D01*
X84119580Y-105001904D02*
X84167200Y-104954285D01*
X84167200Y-104954285D02*
X84214819Y-104859047D01*
X84214819Y-104859047D02*
X84214819Y-104573333D01*
X84214819Y-104573333D02*
X84167200Y-104478095D01*
X84167200Y-104478095D02*
X84119580Y-104430476D01*
X83214819Y-105906666D02*
X83214819Y-105716190D01*
X83214819Y-105716190D02*
X83262438Y-105620952D01*
X83262438Y-105620952D02*
X83310057Y-105573333D01*
X83310057Y-105573333D02*
X83452914Y-105478095D01*
X83452914Y-105478095D02*
X83643390Y-105430476D01*
X83643390Y-105430476D02*
X84024342Y-105430476D01*
X84024342Y-105430476D02*
X84119580Y-105478095D01*
X84119580Y-105478095D02*
X84167200Y-105525714D01*
X84167200Y-105525714D02*
X84214819Y-105620952D01*
X84214819Y-105620952D02*
X84214819Y-105811428D01*
X84214819Y-105811428D02*
X84167200Y-105906666D01*
X84167200Y-105906666D02*
X84119580Y-105954285D01*
X84119580Y-105954285D02*
X84024342Y-106001904D01*
X84024342Y-106001904D02*
X83786247Y-106001904D01*
X83786247Y-106001904D02*
X83691009Y-105954285D01*
X83691009Y-105954285D02*
X83643390Y-105906666D01*
X83643390Y-105906666D02*
X83595771Y-105811428D01*
X83595771Y-105811428D02*
X83595771Y-105620952D01*
X83595771Y-105620952D02*
X83643390Y-105525714D01*
X83643390Y-105525714D02*
X83691009Y-105478095D01*
X83691009Y-105478095D02*
X83786247Y-105430476D01*
X77462857Y-116899580D02*
X77510476Y-116947200D01*
X77510476Y-116947200D02*
X77653333Y-116994819D01*
X77653333Y-116994819D02*
X77748571Y-116994819D01*
X77748571Y-116994819D02*
X77891428Y-116947200D01*
X77891428Y-116947200D02*
X77986666Y-116851961D01*
X77986666Y-116851961D02*
X78034285Y-116756723D01*
X78034285Y-116756723D02*
X78081904Y-116566247D01*
X78081904Y-116566247D02*
X78081904Y-116423390D01*
X78081904Y-116423390D02*
X78034285Y-116232914D01*
X78034285Y-116232914D02*
X77986666Y-116137676D01*
X77986666Y-116137676D02*
X77891428Y-116042438D01*
X77891428Y-116042438D02*
X77748571Y-115994819D01*
X77748571Y-115994819D02*
X77653333Y-115994819D01*
X77653333Y-115994819D02*
X77510476Y-116042438D01*
X77510476Y-116042438D02*
X77462857Y-116090057D01*
X77129523Y-115994819D02*
X76510476Y-115994819D01*
X76510476Y-115994819D02*
X76843809Y-116375771D01*
X76843809Y-116375771D02*
X76700952Y-116375771D01*
X76700952Y-116375771D02*
X76605714Y-116423390D01*
X76605714Y-116423390D02*
X76558095Y-116471009D01*
X76558095Y-116471009D02*
X76510476Y-116566247D01*
X76510476Y-116566247D02*
X76510476Y-116804342D01*
X76510476Y-116804342D02*
X76558095Y-116899580D01*
X76558095Y-116899580D02*
X76605714Y-116947200D01*
X76605714Y-116947200D02*
X76700952Y-116994819D01*
X76700952Y-116994819D02*
X76986666Y-116994819D01*
X76986666Y-116994819D02*
X77081904Y-116947200D01*
X77081904Y-116947200D02*
X77129523Y-116899580D01*
X75605714Y-115994819D02*
X76081904Y-115994819D01*
X76081904Y-115994819D02*
X76129523Y-116471009D01*
X76129523Y-116471009D02*
X76081904Y-116423390D01*
X76081904Y-116423390D02*
X75986666Y-116375771D01*
X75986666Y-116375771D02*
X75748571Y-116375771D01*
X75748571Y-116375771D02*
X75653333Y-116423390D01*
X75653333Y-116423390D02*
X75605714Y-116471009D01*
X75605714Y-116471009D02*
X75558095Y-116566247D01*
X75558095Y-116566247D02*
X75558095Y-116804342D01*
X75558095Y-116804342D02*
X75605714Y-116899580D01*
X75605714Y-116899580D02*
X75653333Y-116947200D01*
X75653333Y-116947200D02*
X75748571Y-116994819D01*
X75748571Y-116994819D02*
X75986666Y-116994819D01*
X75986666Y-116994819D02*
X76081904Y-116947200D01*
X76081904Y-116947200D02*
X76129523Y-116899580D01*
X93562857Y-113289580D02*
X93610476Y-113337200D01*
X93610476Y-113337200D02*
X93753333Y-113384819D01*
X93753333Y-113384819D02*
X93848571Y-113384819D01*
X93848571Y-113384819D02*
X93991428Y-113337200D01*
X93991428Y-113337200D02*
X94086666Y-113241961D01*
X94086666Y-113241961D02*
X94134285Y-113146723D01*
X94134285Y-113146723D02*
X94181904Y-112956247D01*
X94181904Y-112956247D02*
X94181904Y-112813390D01*
X94181904Y-112813390D02*
X94134285Y-112622914D01*
X94134285Y-112622914D02*
X94086666Y-112527676D01*
X94086666Y-112527676D02*
X93991428Y-112432438D01*
X93991428Y-112432438D02*
X93848571Y-112384819D01*
X93848571Y-112384819D02*
X93753333Y-112384819D01*
X93753333Y-112384819D02*
X93610476Y-112432438D01*
X93610476Y-112432438D02*
X93562857Y-112480057D01*
X93229523Y-112384819D02*
X92610476Y-112384819D01*
X92610476Y-112384819D02*
X92943809Y-112765771D01*
X92943809Y-112765771D02*
X92800952Y-112765771D01*
X92800952Y-112765771D02*
X92705714Y-112813390D01*
X92705714Y-112813390D02*
X92658095Y-112861009D01*
X92658095Y-112861009D02*
X92610476Y-112956247D01*
X92610476Y-112956247D02*
X92610476Y-113194342D01*
X92610476Y-113194342D02*
X92658095Y-113289580D01*
X92658095Y-113289580D02*
X92705714Y-113337200D01*
X92705714Y-113337200D02*
X92800952Y-113384819D01*
X92800952Y-113384819D02*
X93086666Y-113384819D01*
X93086666Y-113384819D02*
X93181904Y-113337200D01*
X93181904Y-113337200D02*
X93229523Y-113289580D01*
X91753333Y-112718152D02*
X91753333Y-113384819D01*
X91991428Y-112337200D02*
X92229523Y-113051485D01*
X92229523Y-113051485D02*
X91610476Y-113051485D01*
X88219580Y-120327142D02*
X88267200Y-120279523D01*
X88267200Y-120279523D02*
X88314819Y-120136666D01*
X88314819Y-120136666D02*
X88314819Y-120041428D01*
X88314819Y-120041428D02*
X88267200Y-119898571D01*
X88267200Y-119898571D02*
X88171961Y-119803333D01*
X88171961Y-119803333D02*
X88076723Y-119755714D01*
X88076723Y-119755714D02*
X87886247Y-119708095D01*
X87886247Y-119708095D02*
X87743390Y-119708095D01*
X87743390Y-119708095D02*
X87552914Y-119755714D01*
X87552914Y-119755714D02*
X87457676Y-119803333D01*
X87457676Y-119803333D02*
X87362438Y-119898571D01*
X87362438Y-119898571D02*
X87314819Y-120041428D01*
X87314819Y-120041428D02*
X87314819Y-120136666D01*
X87314819Y-120136666D02*
X87362438Y-120279523D01*
X87362438Y-120279523D02*
X87410057Y-120327142D01*
X87314819Y-120660476D02*
X87314819Y-121279523D01*
X87314819Y-121279523D02*
X87695771Y-120946190D01*
X87695771Y-120946190D02*
X87695771Y-121089047D01*
X87695771Y-121089047D02*
X87743390Y-121184285D01*
X87743390Y-121184285D02*
X87791009Y-121231904D01*
X87791009Y-121231904D02*
X87886247Y-121279523D01*
X87886247Y-121279523D02*
X88124342Y-121279523D01*
X88124342Y-121279523D02*
X88219580Y-121231904D01*
X88219580Y-121231904D02*
X88267200Y-121184285D01*
X88267200Y-121184285D02*
X88314819Y-121089047D01*
X88314819Y-121089047D02*
X88314819Y-120803333D01*
X88314819Y-120803333D02*
X88267200Y-120708095D01*
X88267200Y-120708095D02*
X88219580Y-120660476D01*
X87314819Y-121612857D02*
X87314819Y-122231904D01*
X87314819Y-122231904D02*
X87695771Y-121898571D01*
X87695771Y-121898571D02*
X87695771Y-122041428D01*
X87695771Y-122041428D02*
X87743390Y-122136666D01*
X87743390Y-122136666D02*
X87791009Y-122184285D01*
X87791009Y-122184285D02*
X87886247Y-122231904D01*
X87886247Y-122231904D02*
X88124342Y-122231904D01*
X88124342Y-122231904D02*
X88219580Y-122184285D01*
X88219580Y-122184285D02*
X88267200Y-122136666D01*
X88267200Y-122136666D02*
X88314819Y-122041428D01*
X88314819Y-122041428D02*
X88314819Y-121755714D01*
X88314819Y-121755714D02*
X88267200Y-121660476D01*
X88267200Y-121660476D02*
X88219580Y-121612857D01*
X93592857Y-116169580D02*
X93640476Y-116217200D01*
X93640476Y-116217200D02*
X93783333Y-116264819D01*
X93783333Y-116264819D02*
X93878571Y-116264819D01*
X93878571Y-116264819D02*
X94021428Y-116217200D01*
X94021428Y-116217200D02*
X94116666Y-116121961D01*
X94116666Y-116121961D02*
X94164285Y-116026723D01*
X94164285Y-116026723D02*
X94211904Y-115836247D01*
X94211904Y-115836247D02*
X94211904Y-115693390D01*
X94211904Y-115693390D02*
X94164285Y-115502914D01*
X94164285Y-115502914D02*
X94116666Y-115407676D01*
X94116666Y-115407676D02*
X94021428Y-115312438D01*
X94021428Y-115312438D02*
X93878571Y-115264819D01*
X93878571Y-115264819D02*
X93783333Y-115264819D01*
X93783333Y-115264819D02*
X93640476Y-115312438D01*
X93640476Y-115312438D02*
X93592857Y-115360057D01*
X93211904Y-115360057D02*
X93164285Y-115312438D01*
X93164285Y-115312438D02*
X93069047Y-115264819D01*
X93069047Y-115264819D02*
X92830952Y-115264819D01*
X92830952Y-115264819D02*
X92735714Y-115312438D01*
X92735714Y-115312438D02*
X92688095Y-115360057D01*
X92688095Y-115360057D02*
X92640476Y-115455295D01*
X92640476Y-115455295D02*
X92640476Y-115550533D01*
X92640476Y-115550533D02*
X92688095Y-115693390D01*
X92688095Y-115693390D02*
X93259523Y-116264819D01*
X93259523Y-116264819D02*
X92640476Y-116264819D01*
X92164285Y-116264819D02*
X91973809Y-116264819D01*
X91973809Y-116264819D02*
X91878571Y-116217200D01*
X91878571Y-116217200D02*
X91830952Y-116169580D01*
X91830952Y-116169580D02*
X91735714Y-116026723D01*
X91735714Y-116026723D02*
X91688095Y-115836247D01*
X91688095Y-115836247D02*
X91688095Y-115455295D01*
X91688095Y-115455295D02*
X91735714Y-115360057D01*
X91735714Y-115360057D02*
X91783333Y-115312438D01*
X91783333Y-115312438D02*
X91878571Y-115264819D01*
X91878571Y-115264819D02*
X92069047Y-115264819D01*
X92069047Y-115264819D02*
X92164285Y-115312438D01*
X92164285Y-115312438D02*
X92211904Y-115360057D01*
X92211904Y-115360057D02*
X92259523Y-115455295D01*
X92259523Y-115455295D02*
X92259523Y-115693390D01*
X92259523Y-115693390D02*
X92211904Y-115788628D01*
X92211904Y-115788628D02*
X92164285Y-115836247D01*
X92164285Y-115836247D02*
X92069047Y-115883866D01*
X92069047Y-115883866D02*
X91878571Y-115883866D01*
X91878571Y-115883866D02*
X91783333Y-115836247D01*
X91783333Y-115836247D02*
X91735714Y-115788628D01*
X91735714Y-115788628D02*
X91688095Y-115693390D01*
X93532857Y-114699580D02*
X93580476Y-114747200D01*
X93580476Y-114747200D02*
X93723333Y-114794819D01*
X93723333Y-114794819D02*
X93818571Y-114794819D01*
X93818571Y-114794819D02*
X93961428Y-114747200D01*
X93961428Y-114747200D02*
X94056666Y-114651961D01*
X94056666Y-114651961D02*
X94104285Y-114556723D01*
X94104285Y-114556723D02*
X94151904Y-114366247D01*
X94151904Y-114366247D02*
X94151904Y-114223390D01*
X94151904Y-114223390D02*
X94104285Y-114032914D01*
X94104285Y-114032914D02*
X94056666Y-113937676D01*
X94056666Y-113937676D02*
X93961428Y-113842438D01*
X93961428Y-113842438D02*
X93818571Y-113794819D01*
X93818571Y-113794819D02*
X93723333Y-113794819D01*
X93723333Y-113794819D02*
X93580476Y-113842438D01*
X93580476Y-113842438D02*
X93532857Y-113890057D01*
X93151904Y-113890057D02*
X93104285Y-113842438D01*
X93104285Y-113842438D02*
X93009047Y-113794819D01*
X93009047Y-113794819D02*
X92770952Y-113794819D01*
X92770952Y-113794819D02*
X92675714Y-113842438D01*
X92675714Y-113842438D02*
X92628095Y-113890057D01*
X92628095Y-113890057D02*
X92580476Y-113985295D01*
X92580476Y-113985295D02*
X92580476Y-114080533D01*
X92580476Y-114080533D02*
X92628095Y-114223390D01*
X92628095Y-114223390D02*
X93199523Y-114794819D01*
X93199523Y-114794819D02*
X92580476Y-114794819D01*
X92009047Y-114223390D02*
X92104285Y-114175771D01*
X92104285Y-114175771D02*
X92151904Y-114128152D01*
X92151904Y-114128152D02*
X92199523Y-114032914D01*
X92199523Y-114032914D02*
X92199523Y-113985295D01*
X92199523Y-113985295D02*
X92151904Y-113890057D01*
X92151904Y-113890057D02*
X92104285Y-113842438D01*
X92104285Y-113842438D02*
X92009047Y-113794819D01*
X92009047Y-113794819D02*
X91818571Y-113794819D01*
X91818571Y-113794819D02*
X91723333Y-113842438D01*
X91723333Y-113842438D02*
X91675714Y-113890057D01*
X91675714Y-113890057D02*
X91628095Y-113985295D01*
X91628095Y-113985295D02*
X91628095Y-114032914D01*
X91628095Y-114032914D02*
X91675714Y-114128152D01*
X91675714Y-114128152D02*
X91723333Y-114175771D01*
X91723333Y-114175771D02*
X91818571Y-114223390D01*
X91818571Y-114223390D02*
X92009047Y-114223390D01*
X92009047Y-114223390D02*
X92104285Y-114271009D01*
X92104285Y-114271009D02*
X92151904Y-114318628D01*
X92151904Y-114318628D02*
X92199523Y-114413866D01*
X92199523Y-114413866D02*
X92199523Y-114604342D01*
X92199523Y-114604342D02*
X92151904Y-114699580D01*
X92151904Y-114699580D02*
X92104285Y-114747200D01*
X92104285Y-114747200D02*
X92009047Y-114794819D01*
X92009047Y-114794819D02*
X91818571Y-114794819D01*
X91818571Y-114794819D02*
X91723333Y-114747200D01*
X91723333Y-114747200D02*
X91675714Y-114699580D01*
X91675714Y-114699580D02*
X91628095Y-114604342D01*
X91628095Y-114604342D02*
X91628095Y-114413866D01*
X91628095Y-114413866D02*
X91675714Y-114318628D01*
X91675714Y-114318628D02*
X91723333Y-114271009D01*
X91723333Y-114271009D02*
X91818571Y-114223390D01*
X77402857Y-113899580D02*
X77450476Y-113947200D01*
X77450476Y-113947200D02*
X77593333Y-113994819D01*
X77593333Y-113994819D02*
X77688571Y-113994819D01*
X77688571Y-113994819D02*
X77831428Y-113947200D01*
X77831428Y-113947200D02*
X77926666Y-113851961D01*
X77926666Y-113851961D02*
X77974285Y-113756723D01*
X77974285Y-113756723D02*
X78021904Y-113566247D01*
X78021904Y-113566247D02*
X78021904Y-113423390D01*
X78021904Y-113423390D02*
X77974285Y-113232914D01*
X77974285Y-113232914D02*
X77926666Y-113137676D01*
X77926666Y-113137676D02*
X77831428Y-113042438D01*
X77831428Y-113042438D02*
X77688571Y-112994819D01*
X77688571Y-112994819D02*
X77593333Y-112994819D01*
X77593333Y-112994819D02*
X77450476Y-113042438D01*
X77450476Y-113042438D02*
X77402857Y-113090057D01*
X77021904Y-113090057D02*
X76974285Y-113042438D01*
X76974285Y-113042438D02*
X76879047Y-112994819D01*
X76879047Y-112994819D02*
X76640952Y-112994819D01*
X76640952Y-112994819D02*
X76545714Y-113042438D01*
X76545714Y-113042438D02*
X76498095Y-113090057D01*
X76498095Y-113090057D02*
X76450476Y-113185295D01*
X76450476Y-113185295D02*
X76450476Y-113280533D01*
X76450476Y-113280533D02*
X76498095Y-113423390D01*
X76498095Y-113423390D02*
X77069523Y-113994819D01*
X77069523Y-113994819D02*
X76450476Y-113994819D01*
X76117142Y-112994819D02*
X75450476Y-112994819D01*
X75450476Y-112994819D02*
X75879047Y-113994819D01*
X77422857Y-110839580D02*
X77470476Y-110887200D01*
X77470476Y-110887200D02*
X77613333Y-110934819D01*
X77613333Y-110934819D02*
X77708571Y-110934819D01*
X77708571Y-110934819D02*
X77851428Y-110887200D01*
X77851428Y-110887200D02*
X77946666Y-110791961D01*
X77946666Y-110791961D02*
X77994285Y-110696723D01*
X77994285Y-110696723D02*
X78041904Y-110506247D01*
X78041904Y-110506247D02*
X78041904Y-110363390D01*
X78041904Y-110363390D02*
X77994285Y-110172914D01*
X77994285Y-110172914D02*
X77946666Y-110077676D01*
X77946666Y-110077676D02*
X77851428Y-109982438D01*
X77851428Y-109982438D02*
X77708571Y-109934819D01*
X77708571Y-109934819D02*
X77613333Y-109934819D01*
X77613333Y-109934819D02*
X77470476Y-109982438D01*
X77470476Y-109982438D02*
X77422857Y-110030057D01*
X77041904Y-110030057D02*
X76994285Y-109982438D01*
X76994285Y-109982438D02*
X76899047Y-109934819D01*
X76899047Y-109934819D02*
X76660952Y-109934819D01*
X76660952Y-109934819D02*
X76565714Y-109982438D01*
X76565714Y-109982438D02*
X76518095Y-110030057D01*
X76518095Y-110030057D02*
X76470476Y-110125295D01*
X76470476Y-110125295D02*
X76470476Y-110220533D01*
X76470476Y-110220533D02*
X76518095Y-110363390D01*
X76518095Y-110363390D02*
X77089523Y-110934819D01*
X77089523Y-110934819D02*
X76470476Y-110934819D01*
X75613333Y-109934819D02*
X75803809Y-109934819D01*
X75803809Y-109934819D02*
X75899047Y-109982438D01*
X75899047Y-109982438D02*
X75946666Y-110030057D01*
X75946666Y-110030057D02*
X76041904Y-110172914D01*
X76041904Y-110172914D02*
X76089523Y-110363390D01*
X76089523Y-110363390D02*
X76089523Y-110744342D01*
X76089523Y-110744342D02*
X76041904Y-110839580D01*
X76041904Y-110839580D02*
X75994285Y-110887200D01*
X75994285Y-110887200D02*
X75899047Y-110934819D01*
X75899047Y-110934819D02*
X75708571Y-110934819D01*
X75708571Y-110934819D02*
X75613333Y-110887200D01*
X75613333Y-110887200D02*
X75565714Y-110839580D01*
X75565714Y-110839580D02*
X75518095Y-110744342D01*
X75518095Y-110744342D02*
X75518095Y-110506247D01*
X75518095Y-110506247D02*
X75565714Y-110411009D01*
X75565714Y-110411009D02*
X75613333Y-110363390D01*
X75613333Y-110363390D02*
X75708571Y-110315771D01*
X75708571Y-110315771D02*
X75899047Y-110315771D01*
X75899047Y-110315771D02*
X75994285Y-110363390D01*
X75994285Y-110363390D02*
X76041904Y-110411009D01*
X76041904Y-110411009D02*
X76089523Y-110506247D01*
X93592857Y-110359580D02*
X93640476Y-110407200D01*
X93640476Y-110407200D02*
X93783333Y-110454819D01*
X93783333Y-110454819D02*
X93878571Y-110454819D01*
X93878571Y-110454819D02*
X94021428Y-110407200D01*
X94021428Y-110407200D02*
X94116666Y-110311961D01*
X94116666Y-110311961D02*
X94164285Y-110216723D01*
X94164285Y-110216723D02*
X94211904Y-110026247D01*
X94211904Y-110026247D02*
X94211904Y-109883390D01*
X94211904Y-109883390D02*
X94164285Y-109692914D01*
X94164285Y-109692914D02*
X94116666Y-109597676D01*
X94116666Y-109597676D02*
X94021428Y-109502438D01*
X94021428Y-109502438D02*
X93878571Y-109454819D01*
X93878571Y-109454819D02*
X93783333Y-109454819D01*
X93783333Y-109454819D02*
X93640476Y-109502438D01*
X93640476Y-109502438D02*
X93592857Y-109550057D01*
X93211904Y-109550057D02*
X93164285Y-109502438D01*
X93164285Y-109502438D02*
X93069047Y-109454819D01*
X93069047Y-109454819D02*
X92830952Y-109454819D01*
X92830952Y-109454819D02*
X92735714Y-109502438D01*
X92735714Y-109502438D02*
X92688095Y-109550057D01*
X92688095Y-109550057D02*
X92640476Y-109645295D01*
X92640476Y-109645295D02*
X92640476Y-109740533D01*
X92640476Y-109740533D02*
X92688095Y-109883390D01*
X92688095Y-109883390D02*
X93259523Y-110454819D01*
X93259523Y-110454819D02*
X92640476Y-110454819D01*
X91735714Y-109454819D02*
X92211904Y-109454819D01*
X92211904Y-109454819D02*
X92259523Y-109931009D01*
X92259523Y-109931009D02*
X92211904Y-109883390D01*
X92211904Y-109883390D02*
X92116666Y-109835771D01*
X92116666Y-109835771D02*
X91878571Y-109835771D01*
X91878571Y-109835771D02*
X91783333Y-109883390D01*
X91783333Y-109883390D02*
X91735714Y-109931009D01*
X91735714Y-109931009D02*
X91688095Y-110026247D01*
X91688095Y-110026247D02*
X91688095Y-110264342D01*
X91688095Y-110264342D02*
X91735714Y-110359580D01*
X91735714Y-110359580D02*
X91783333Y-110407200D01*
X91783333Y-110407200D02*
X91878571Y-110454819D01*
X91878571Y-110454819D02*
X92116666Y-110454819D01*
X92116666Y-110454819D02*
X92211904Y-110407200D01*
X92211904Y-110407200D02*
X92259523Y-110359580D01*
X88469580Y-104077142D02*
X88517200Y-104029523D01*
X88517200Y-104029523D02*
X88564819Y-103886666D01*
X88564819Y-103886666D02*
X88564819Y-103791428D01*
X88564819Y-103791428D02*
X88517200Y-103648571D01*
X88517200Y-103648571D02*
X88421961Y-103553333D01*
X88421961Y-103553333D02*
X88326723Y-103505714D01*
X88326723Y-103505714D02*
X88136247Y-103458095D01*
X88136247Y-103458095D02*
X87993390Y-103458095D01*
X87993390Y-103458095D02*
X87802914Y-103505714D01*
X87802914Y-103505714D02*
X87707676Y-103553333D01*
X87707676Y-103553333D02*
X87612438Y-103648571D01*
X87612438Y-103648571D02*
X87564819Y-103791428D01*
X87564819Y-103791428D02*
X87564819Y-103886666D01*
X87564819Y-103886666D02*
X87612438Y-104029523D01*
X87612438Y-104029523D02*
X87660057Y-104077142D01*
X87660057Y-104458095D02*
X87612438Y-104505714D01*
X87612438Y-104505714D02*
X87564819Y-104600952D01*
X87564819Y-104600952D02*
X87564819Y-104839047D01*
X87564819Y-104839047D02*
X87612438Y-104934285D01*
X87612438Y-104934285D02*
X87660057Y-104981904D01*
X87660057Y-104981904D02*
X87755295Y-105029523D01*
X87755295Y-105029523D02*
X87850533Y-105029523D01*
X87850533Y-105029523D02*
X87993390Y-104981904D01*
X87993390Y-104981904D02*
X88564819Y-104410476D01*
X88564819Y-104410476D02*
X88564819Y-105029523D01*
X87898152Y-105886666D02*
X88564819Y-105886666D01*
X87517200Y-105648571D02*
X88231485Y-105410476D01*
X88231485Y-105410476D02*
X88231485Y-106029523D01*
X87059580Y-104117142D02*
X87107200Y-104069523D01*
X87107200Y-104069523D02*
X87154819Y-103926666D01*
X87154819Y-103926666D02*
X87154819Y-103831428D01*
X87154819Y-103831428D02*
X87107200Y-103688571D01*
X87107200Y-103688571D02*
X87011961Y-103593333D01*
X87011961Y-103593333D02*
X86916723Y-103545714D01*
X86916723Y-103545714D02*
X86726247Y-103498095D01*
X86726247Y-103498095D02*
X86583390Y-103498095D01*
X86583390Y-103498095D02*
X86392914Y-103545714D01*
X86392914Y-103545714D02*
X86297676Y-103593333D01*
X86297676Y-103593333D02*
X86202438Y-103688571D01*
X86202438Y-103688571D02*
X86154819Y-103831428D01*
X86154819Y-103831428D02*
X86154819Y-103926666D01*
X86154819Y-103926666D02*
X86202438Y-104069523D01*
X86202438Y-104069523D02*
X86250057Y-104117142D01*
X86250057Y-104498095D02*
X86202438Y-104545714D01*
X86202438Y-104545714D02*
X86154819Y-104640952D01*
X86154819Y-104640952D02*
X86154819Y-104879047D01*
X86154819Y-104879047D02*
X86202438Y-104974285D01*
X86202438Y-104974285D02*
X86250057Y-105021904D01*
X86250057Y-105021904D02*
X86345295Y-105069523D01*
X86345295Y-105069523D02*
X86440533Y-105069523D01*
X86440533Y-105069523D02*
X86583390Y-105021904D01*
X86583390Y-105021904D02*
X87154819Y-104450476D01*
X87154819Y-104450476D02*
X87154819Y-105069523D01*
X86154819Y-105402857D02*
X86154819Y-106021904D01*
X86154819Y-106021904D02*
X86535771Y-105688571D01*
X86535771Y-105688571D02*
X86535771Y-105831428D01*
X86535771Y-105831428D02*
X86583390Y-105926666D01*
X86583390Y-105926666D02*
X86631009Y-105974285D01*
X86631009Y-105974285D02*
X86726247Y-106021904D01*
X86726247Y-106021904D02*
X86964342Y-106021904D01*
X86964342Y-106021904D02*
X87059580Y-105974285D01*
X87059580Y-105974285D02*
X87107200Y-105926666D01*
X87107200Y-105926666D02*
X87154819Y-105831428D01*
X87154819Y-105831428D02*
X87154819Y-105545714D01*
X87154819Y-105545714D02*
X87107200Y-105450476D01*
X87107200Y-105450476D02*
X87059580Y-105402857D01*
X85559580Y-104027142D02*
X85607200Y-103979523D01*
X85607200Y-103979523D02*
X85654819Y-103836666D01*
X85654819Y-103836666D02*
X85654819Y-103741428D01*
X85654819Y-103741428D02*
X85607200Y-103598571D01*
X85607200Y-103598571D02*
X85511961Y-103503333D01*
X85511961Y-103503333D02*
X85416723Y-103455714D01*
X85416723Y-103455714D02*
X85226247Y-103408095D01*
X85226247Y-103408095D02*
X85083390Y-103408095D01*
X85083390Y-103408095D02*
X84892914Y-103455714D01*
X84892914Y-103455714D02*
X84797676Y-103503333D01*
X84797676Y-103503333D02*
X84702438Y-103598571D01*
X84702438Y-103598571D02*
X84654819Y-103741428D01*
X84654819Y-103741428D02*
X84654819Y-103836666D01*
X84654819Y-103836666D02*
X84702438Y-103979523D01*
X84702438Y-103979523D02*
X84750057Y-104027142D01*
X84750057Y-104408095D02*
X84702438Y-104455714D01*
X84702438Y-104455714D02*
X84654819Y-104550952D01*
X84654819Y-104550952D02*
X84654819Y-104789047D01*
X84654819Y-104789047D02*
X84702438Y-104884285D01*
X84702438Y-104884285D02*
X84750057Y-104931904D01*
X84750057Y-104931904D02*
X84845295Y-104979523D01*
X84845295Y-104979523D02*
X84940533Y-104979523D01*
X84940533Y-104979523D02*
X85083390Y-104931904D01*
X85083390Y-104931904D02*
X85654819Y-104360476D01*
X85654819Y-104360476D02*
X85654819Y-104979523D01*
X84750057Y-105360476D02*
X84702438Y-105408095D01*
X84702438Y-105408095D02*
X84654819Y-105503333D01*
X84654819Y-105503333D02*
X84654819Y-105741428D01*
X84654819Y-105741428D02*
X84702438Y-105836666D01*
X84702438Y-105836666D02*
X84750057Y-105884285D01*
X84750057Y-105884285D02*
X84845295Y-105931904D01*
X84845295Y-105931904D02*
X84940533Y-105931904D01*
X84940533Y-105931904D02*
X85083390Y-105884285D01*
X85083390Y-105884285D02*
X85654819Y-105312857D01*
X85654819Y-105312857D02*
X85654819Y-105931904D01*
X82619580Y-104107142D02*
X82667200Y-104059523D01*
X82667200Y-104059523D02*
X82714819Y-103916666D01*
X82714819Y-103916666D02*
X82714819Y-103821428D01*
X82714819Y-103821428D02*
X82667200Y-103678571D01*
X82667200Y-103678571D02*
X82571961Y-103583333D01*
X82571961Y-103583333D02*
X82476723Y-103535714D01*
X82476723Y-103535714D02*
X82286247Y-103488095D01*
X82286247Y-103488095D02*
X82143390Y-103488095D01*
X82143390Y-103488095D02*
X81952914Y-103535714D01*
X81952914Y-103535714D02*
X81857676Y-103583333D01*
X81857676Y-103583333D02*
X81762438Y-103678571D01*
X81762438Y-103678571D02*
X81714819Y-103821428D01*
X81714819Y-103821428D02*
X81714819Y-103916666D01*
X81714819Y-103916666D02*
X81762438Y-104059523D01*
X81762438Y-104059523D02*
X81810057Y-104107142D01*
X81810057Y-104488095D02*
X81762438Y-104535714D01*
X81762438Y-104535714D02*
X81714819Y-104630952D01*
X81714819Y-104630952D02*
X81714819Y-104869047D01*
X81714819Y-104869047D02*
X81762438Y-104964285D01*
X81762438Y-104964285D02*
X81810057Y-105011904D01*
X81810057Y-105011904D02*
X81905295Y-105059523D01*
X81905295Y-105059523D02*
X82000533Y-105059523D01*
X82000533Y-105059523D02*
X82143390Y-105011904D01*
X82143390Y-105011904D02*
X82714819Y-104440476D01*
X82714819Y-104440476D02*
X82714819Y-105059523D01*
X82714819Y-106011904D02*
X82714819Y-105440476D01*
X82714819Y-105726190D02*
X81714819Y-105726190D01*
X81714819Y-105726190D02*
X81857676Y-105630952D01*
X81857676Y-105630952D02*
X81952914Y-105535714D01*
X81952914Y-105535714D02*
X82000533Y-105440476D01*
X77432857Y-109399580D02*
X77480476Y-109447200D01*
X77480476Y-109447200D02*
X77623333Y-109494819D01*
X77623333Y-109494819D02*
X77718571Y-109494819D01*
X77718571Y-109494819D02*
X77861428Y-109447200D01*
X77861428Y-109447200D02*
X77956666Y-109351961D01*
X77956666Y-109351961D02*
X78004285Y-109256723D01*
X78004285Y-109256723D02*
X78051904Y-109066247D01*
X78051904Y-109066247D02*
X78051904Y-108923390D01*
X78051904Y-108923390D02*
X78004285Y-108732914D01*
X78004285Y-108732914D02*
X77956666Y-108637676D01*
X77956666Y-108637676D02*
X77861428Y-108542438D01*
X77861428Y-108542438D02*
X77718571Y-108494819D01*
X77718571Y-108494819D02*
X77623333Y-108494819D01*
X77623333Y-108494819D02*
X77480476Y-108542438D01*
X77480476Y-108542438D02*
X77432857Y-108590057D01*
X77051904Y-108590057D02*
X77004285Y-108542438D01*
X77004285Y-108542438D02*
X76909047Y-108494819D01*
X76909047Y-108494819D02*
X76670952Y-108494819D01*
X76670952Y-108494819D02*
X76575714Y-108542438D01*
X76575714Y-108542438D02*
X76528095Y-108590057D01*
X76528095Y-108590057D02*
X76480476Y-108685295D01*
X76480476Y-108685295D02*
X76480476Y-108780533D01*
X76480476Y-108780533D02*
X76528095Y-108923390D01*
X76528095Y-108923390D02*
X77099523Y-109494819D01*
X77099523Y-109494819D02*
X76480476Y-109494819D01*
X75861428Y-108494819D02*
X75766190Y-108494819D01*
X75766190Y-108494819D02*
X75670952Y-108542438D01*
X75670952Y-108542438D02*
X75623333Y-108590057D01*
X75623333Y-108590057D02*
X75575714Y-108685295D01*
X75575714Y-108685295D02*
X75528095Y-108875771D01*
X75528095Y-108875771D02*
X75528095Y-109113866D01*
X75528095Y-109113866D02*
X75575714Y-109304342D01*
X75575714Y-109304342D02*
X75623333Y-109399580D01*
X75623333Y-109399580D02*
X75670952Y-109447200D01*
X75670952Y-109447200D02*
X75766190Y-109494819D01*
X75766190Y-109494819D02*
X75861428Y-109494819D01*
X75861428Y-109494819D02*
X75956666Y-109447200D01*
X75956666Y-109447200D02*
X76004285Y-109399580D01*
X76004285Y-109399580D02*
X76051904Y-109304342D01*
X76051904Y-109304342D02*
X76099523Y-109113866D01*
X76099523Y-109113866D02*
X76099523Y-108875771D01*
X76099523Y-108875771D02*
X76051904Y-108685295D01*
X76051904Y-108685295D02*
X76004285Y-108590057D01*
X76004285Y-108590057D02*
X75956666Y-108542438D01*
X75956666Y-108542438D02*
X75861428Y-108494819D01*
X77452857Y-115349580D02*
X77500476Y-115397200D01*
X77500476Y-115397200D02*
X77643333Y-115444819D01*
X77643333Y-115444819D02*
X77738571Y-115444819D01*
X77738571Y-115444819D02*
X77881428Y-115397200D01*
X77881428Y-115397200D02*
X77976666Y-115301961D01*
X77976666Y-115301961D02*
X78024285Y-115206723D01*
X78024285Y-115206723D02*
X78071904Y-115016247D01*
X78071904Y-115016247D02*
X78071904Y-114873390D01*
X78071904Y-114873390D02*
X78024285Y-114682914D01*
X78024285Y-114682914D02*
X77976666Y-114587676D01*
X77976666Y-114587676D02*
X77881428Y-114492438D01*
X77881428Y-114492438D02*
X77738571Y-114444819D01*
X77738571Y-114444819D02*
X77643333Y-114444819D01*
X77643333Y-114444819D02*
X77500476Y-114492438D01*
X77500476Y-114492438D02*
X77452857Y-114540057D01*
X76500476Y-115444819D02*
X77071904Y-115444819D01*
X76786190Y-115444819D02*
X76786190Y-114444819D01*
X76786190Y-114444819D02*
X76881428Y-114587676D01*
X76881428Y-114587676D02*
X76976666Y-114682914D01*
X76976666Y-114682914D02*
X77071904Y-114730533D01*
X75643333Y-114444819D02*
X75833809Y-114444819D01*
X75833809Y-114444819D02*
X75929047Y-114492438D01*
X75929047Y-114492438D02*
X75976666Y-114540057D01*
X75976666Y-114540057D02*
X76071904Y-114682914D01*
X76071904Y-114682914D02*
X76119523Y-114873390D01*
X76119523Y-114873390D02*
X76119523Y-115254342D01*
X76119523Y-115254342D02*
X76071904Y-115349580D01*
X76071904Y-115349580D02*
X76024285Y-115397200D01*
X76024285Y-115397200D02*
X75929047Y-115444819D01*
X75929047Y-115444819D02*
X75738571Y-115444819D01*
X75738571Y-115444819D02*
X75643333Y-115397200D01*
X75643333Y-115397200D02*
X75595714Y-115349580D01*
X75595714Y-115349580D02*
X75548095Y-115254342D01*
X75548095Y-115254342D02*
X75548095Y-115016247D01*
X75548095Y-115016247D02*
X75595714Y-114921009D01*
X75595714Y-114921009D02*
X75643333Y-114873390D01*
X75643333Y-114873390D02*
X75738571Y-114825771D01*
X75738571Y-114825771D02*
X75929047Y-114825771D01*
X75929047Y-114825771D02*
X76024285Y-114873390D01*
X76024285Y-114873390D02*
X76071904Y-114921009D01*
X76071904Y-114921009D02*
X76119523Y-115016247D01*
D11*
%TO.C,C39*%
X79810580Y-112480000D02*
X79529420Y-112480000D01*
X79810580Y-111460000D02*
X79529420Y-111460000D01*
%TO.C,C30*%
X79830580Y-118540000D02*
X79549420Y-118540000D01*
X79830580Y-117520000D02*
X79549420Y-117520000D01*
%TO.C,C31*%
X83760000Y-117899420D02*
X83760000Y-118180580D01*
X82740000Y-117899420D02*
X82740000Y-118180580D01*
%TO.C,C32*%
X85270000Y-117894420D02*
X85270000Y-118175580D01*
X84250000Y-117894420D02*
X84250000Y-118175580D01*
%TO.C,C38*%
X85760000Y-117889420D02*
X85760000Y-118170580D01*
X86780000Y-117889420D02*
X86780000Y-118170580D01*
%TO.C,C37*%
X89839420Y-111890000D02*
X90120580Y-111890000D01*
X89839420Y-110870000D02*
X90120580Y-110870000D01*
%TO.C,C36*%
X84220000Y-107800580D02*
X84220000Y-107519420D01*
X83200000Y-107800580D02*
X83200000Y-107519420D01*
%TO.C,C35*%
X79840580Y-115990000D02*
X79559420Y-115990000D01*
X79840580Y-117010000D02*
X79559420Y-117010000D01*
%TO.C,C34*%
X89839420Y-113350000D02*
X90120580Y-113350000D01*
X89839420Y-112330000D02*
X90120580Y-112330000D01*
%TO.C,C33*%
X87240000Y-117889420D02*
X87240000Y-118170580D01*
X88260000Y-117889420D02*
X88260000Y-118170580D01*
%TO.C,C29*%
X89839420Y-116290000D02*
X90120580Y-116290000D01*
X89839420Y-115270000D02*
X90120580Y-115270000D01*
%TO.C,C28*%
X89849420Y-114810000D02*
X90130580Y-114810000D01*
X89849420Y-113790000D02*
X90130580Y-113790000D01*
%TO.C,C27*%
X79810580Y-112960000D02*
X79529420Y-112960000D01*
X79810580Y-113980000D02*
X79529420Y-113980000D01*
%TO.C,C26*%
X79815580Y-109990000D02*
X79534420Y-109990000D01*
X79815580Y-111010000D02*
X79534420Y-111010000D01*
%TO.C,C25*%
X89829420Y-110410000D02*
X90110580Y-110410000D01*
X89829420Y-109390000D02*
X90110580Y-109390000D01*
%TO.C,C24*%
X88600000Y-107795580D02*
X88600000Y-107514420D01*
X87580000Y-107795580D02*
X87580000Y-107514420D01*
%TO.C,C23*%
X87140000Y-107795580D02*
X87140000Y-107514420D01*
X86120000Y-107795580D02*
X86120000Y-107514420D01*
%TO.C,C22*%
X85680000Y-107795580D02*
X85680000Y-107514420D01*
X84660000Y-107795580D02*
X84660000Y-107514420D01*
%TO.C,C21*%
X82760000Y-107790580D02*
X82760000Y-107509420D01*
X81740000Y-107790580D02*
X81740000Y-107509420D01*
%TO.C,C20*%
X79815580Y-108520000D02*
X79534420Y-108520000D01*
X79815580Y-109540000D02*
X79534420Y-109540000D01*
%TO.C,C16*%
X79830580Y-114460000D02*
X79549420Y-114460000D01*
X79830580Y-115480000D02*
X79549420Y-115480000D01*
%TD*%
M02*
